solid OpenSCAD_Model
  facet normal 0 1 0
    outer loop
      vertex 4.63635 84.2 0
      vertex 4.63635 84.2 9.5
      vertex 34.2 84.2 0
    endloop
  endfacet
  facet normal 0 1 0
    outer loop
      vertex 34.2 84.2 0
      vertex 4.63635 84.2 9.5
      vertex 34.2 84.2 9.5
    endloop
  endfacet
  facet normal -0.463661 -0.886013 0
    outer loop
      vertex 10.6939 81.03 0
      vertex 10.6939 81.03 9.5
      vertex 4.63635 84.2 9.5
    endloop
  endfacet
  facet normal -0.463661 -0.886013 0
    outer loop
      vertex 4.63635 84.2 0
      vertex 10.6939 81.03 0
      vertex 4.63635 84.2 9.5
    endloop
  endfacet
  facet normal 0 0 -1
    outer loop
      vertex 4.63635 84.2 0
      vertex 34.2 84.2 0
      vertex 10.6939 81.03 0
    endloop
  endfacet
  facet normal 0 0 -1
    outer loop
      vertex 10.6939 81.03 0
      vertex 34.2 84.2 0
      vertex 34.2 75 0
    endloop
  endfacet
  facet normal 0 0 -1
    outer loop
      vertex 34.2 75 0
      vertex 34.2 9.51437 0
      vertex 33.8499 17.7141 0
    endloop
  endfacet
  facet normal 0 0 -1
    outer loop
      vertex 34.2 75 0
      vertex 33.8499 17.7141 0
      vertex 31.6143 34.654 0
    endloop
  endfacet
  facet normal 0 0 -1
    outer loop
      vertex 34.2 75 0
      vertex 31.6143 34.654 0
      vertex 27.997 50.0793 0
    endloop
  endfacet
  facet normal 0 0 -1
    outer loop
      vertex 34.2 75 0
      vertex 27.997 50.0793 0
      vertex 23.1561 63.3159 0
    endloop
  endfacet
  facet normal 0 0 -1
    outer loop
      vertex 34.2 75 0
      vertex 23.1561 63.3159 0
      vertex 22.6 64.3106 0
    endloop
  endfacet
  facet normal 0 0 -1
    outer loop
      vertex 34.2 75 0
      vertex 22.6 64.3106 0
      vertex 22.6 72.6 0
    endloop
  endfacet
  facet normal 0 0 -1
    outer loop
      vertex 34.2 75 0
      vertex 22.6 72.6 0
      vertex 10.6939 81.03 0
    endloop
  endfacet
  facet normal 0 0 -1
    outer loop
      vertex 22.6 72.6 0
      vertex 17.9658 72.6 0
      vertex 17.3031 73.7854 0
    endloop
  endfacet
  facet normal 0 0 -1
    outer loop
      vertex 22.6 72.6 0
      vertex 17.3031 73.7854 0
      vertex 10.6939 81.03 0
    endloop
  endfacet
  facet normal 1 0 0
    outer loop
      vertex 34.2 75 9.5
      vertex 34.2 75 0
      vertex 34.2 84.2 0
    endloop
  endfacet
  facet normal 1 0 0
    outer loop
      vertex 34.2 84.2 9.5
      vertex 34.2 75 9.5
      vertex 34.2 84.2 0
    endloop
  endfacet
  facet normal 0 0 1
    outer loop
      vertex 25 75 9.5
      vertex 25 58.274 9.5
      vertex 34.2 84.2 9.5
    endloop
  endfacet
  facet normal 0 0 1
    outer loop
      vertex 34.2 84.2 9.5
      vertex 4.63635 84.2 9.5
      vertex 10.6939 81.03 9.5
    endloop
  endfacet
  facet normal 0 0 1
    outer loop
      vertex 31.6143 34.654 9.5
      vertex 33.8499 17.7141 9.5
      vertex 34.2 84.2 9.5
    endloop
  endfacet
  facet normal 0 0 1
    outer loop
      vertex 16.195 75 9.5
      vertex 34.2 84.2 9.5
      vertex 10.6939 81.03 9.5
    endloop
  endfacet
  facet normal 0 0 1
    outer loop
      vertex 16.195 75 9.5
      vertex 25 75 9.5
      vertex 34.2 84.2 9.5
    endloop
  endfacet
  facet normal 0 0 1
    outer loop
      vertex 27.997 50.0793 9.5
      vertex 31.6143 34.654 9.5
      vertex 34.2 84.2 9.5
    endloop
  endfacet
  facet normal 0 0 1
    outer loop
      vertex 25 58.274 9.5
      vertex 27.997 50.0793 9.5
      vertex 34.2 84.2 9.5
    endloop
  endfacet
  facet normal 0 0 1
    outer loop
      vertex 33.8499 17.7141 9.5
      vertex 34.2 75 9.5
      vertex 34.2 84.2 9.5
    endloop
  endfacet
  facet normal 0 0 1
    outer loop
      vertex 33.8499 17.7141 9.5
      vertex 34.2 9.51437 9.5
      vertex 34.2 75 9.5
    endloop
  endfacet
  facet normal -0.738764 -0.673964 0
    outer loop
      vertex 17.3031 73.7854 9.5
      vertex 16.4915 74.675 9.5
      vertex 17.3031 73.7854 0
    endloop
  endfacet
  facet normal -0.738764 -0.673964 0
    outer loop
      vertex 17.3031 73.7854 0
      vertex 16.4915 74.675 9.5
      vertex 16.4915 74.675 7.5
    endloop
  endfacet
  facet normal -0.738764 -0.673964 0
    outer loop
      vertex 17.3031 73.7854 0
      vertex 16.4915 74.675 7.5
      vertex 16.195 75 7.5
    endloop
  endfacet
  facet normal -0.738764 -0.673964 0
    outer loop
      vertex 16.195 75 7.5
      vertex 16.195 75 9.5
      vertex 10.6939 81.03 9.5
    endloop
  endfacet
  facet normal -0.738764 -0.673964 0
    outer loop
      vertex 16.195 75 7.5
      vertex 10.6939 81.03 9.5
      vertex 17.3031 73.7854 0
    endloop
  endfacet
  facet normal -0.738764 -0.673964 0
    outer loop
      vertex 17.3031 73.7854 0
      vertex 10.6939 81.03 9.5
      vertex 10.6939 81.03 0
    endloop
  endfacet
  facet normal -0.872858 -0.487974 0
    outer loop
      vertex 21.2 66.8148 0
      vertex 18.7484 71.2 2.2
      vertex 18.7484 71.2 0
    endloop
  endfacet
  facet normal -0.872858 -0.487974 0
    outer loop
      vertex 21.2 66.8148 2.2
      vertex 18.7484 71.2 2.2
      vertex 21.2 66.8148 0
    endloop
  endfacet
  facet normal -0.872858 -0.487974 0
    outer loop
      vertex 17.9658 72.6 2.2
      vertex 18.7484 71.2 2.2
      vertex 23.1561 63.3159 9.5
    endloop
  endfacet
  facet normal -0.872858 -0.487974 0
    outer loop
      vertex 18.7484 71.2 2.2
      vertex 21.2 66.8148 2.2
      vertex 23.1561 63.3159 9.5
    endloop
  endfacet
  facet normal -0.872858 -0.487974 0
    outer loop
      vertex 23.1561 63.3159 0
      vertex 22.6 64.3106 2.2
      vertex 22.6 64.3106 0
    endloop
  endfacet
  facet normal -0.872858 -0.487974 0
    outer loop
      vertex 23.1561 63.3159 9.5
      vertex 22.6 64.3106 2.2
      vertex 23.1561 63.3159 0
    endloop
  endfacet
  facet normal -0.872858 -0.487974 0
    outer loop
      vertex 21.2 66.8148 2.2
      vertex 22.6 64.3106 2.2
      vertex 23.1561 63.3159 9.5
    endloop
  endfacet
  facet normal -0.872858 -0.487974 0
    outer loop
      vertex 17.9658 72.6 2.2
      vertex 23.1561 63.3159 9.5
      vertex 17.3031 73.7854 9.5
    endloop
  endfacet
  facet normal -0.872858 -0.487974 0
    outer loop
      vertex 17.9658 72.6 2.2
      vertex 17.3031 73.7854 9.5
      vertex 17.9658 72.6 0
    endloop
  endfacet
  facet normal -0.872858 -0.487974 0
    outer loop
      vertex 17.3031 73.7854 9.5
      vertex 17.3031 73.7854 0
      vertex 17.9658 72.6 0
    endloop
  endfacet
  facet normal 0 -1 0
    outer loop
      vertex 22.6 72.6 0
      vertex 22.6 72.6 2.2
      vertex 17.9658 72.6 2.2
    endloop
  endfacet
  facet normal 0 -1 0
    outer loop
      vertex 17.9658 72.6 0
      vertex 22.6 72.6 0
      vertex 17.9658 72.6 2.2
    endloop
  endfacet
  facet normal -1 0 0
    outer loop
      vertex 22.6 72.6 2.2
      vertex 22.6 72.6 0
      vertex 22.6 64.3106 2.2
    endloop
  endfacet
  facet normal -1 0 0
    outer loop
      vertex 22.6 64.3106 2.2
      vertex 22.6 72.6 0
      vertex 22.6 64.3106 0
    endloop
  endfacet
  facet normal -0.939163 -0.343473 0
    outer loop
      vertex 27.997 50.0793 9.5
      vertex 25 58.274 9.5
      vertex 27.997 50.0793 0
    endloop
  endfacet
  facet normal -0.939163 -0.343473 0
    outer loop
      vertex 27.997 50.0793 0
      vertex 25 58.274 9.5
      vertex 25 58.274 7.5
    endloop
  endfacet
  facet normal -0.939163 -0.343473 0
    outer loop
      vertex 27.997 50.0793 0
      vertex 25 58.274 7.5
      vertex 24.675 59.1627 7.5
    endloop
  endfacet
  facet normal -0.939163 -0.343473 0
    outer loop
      vertex 24.675 59.1627 7.5
      vertex 24.675 59.1627 9.5
      vertex 23.1561 63.3159 9.5
    endloop
  endfacet
  facet normal -0.939163 -0.343473 0
    outer loop
      vertex 24.675 59.1627 7.5
      vertex 23.1561 63.3159 9.5
      vertex 27.997 50.0793 0
    endloop
  endfacet
  facet normal -0.939163 -0.343473 0
    outer loop
      vertex 27.997 50.0793 0
      vertex 23.1561 63.3159 9.5
      vertex 23.1561 63.3159 0
    endloop
  endfacet
  facet normal -0.973588 -0.228312 0
    outer loop
      vertex 31.6143 34.654 9.5
      vertex 27.997 50.0793 9.5
      vertex 31.6143 34.654 0
    endloop
  endfacet
  facet normal -0.973588 -0.228312 0
    outer loop
      vertex 31.6143 34.654 0
      vertex 27.997 50.0793 9.5
      vertex 27.997 50.0793 0
    endloop
  endfacet
  facet normal -0.991403 -0.13084 0
    outer loop
      vertex 33.8499 17.7141 9.5
      vertex 31.6143 34.654 9.5
      vertex 33.8499 17.7141 0
    endloop
  endfacet
  facet normal -0.991403 -0.13084 0
    outer loop
      vertex 33.8499 17.7141 0
      vertex 31.6143 34.654 9.5
      vertex 31.6143 34.654 0
    endloop
  endfacet
  facet normal -0.99909 -0.0426519 0
    outer loop
      vertex 34.2 9.51437 9.5
      vertex 33.8499 17.7141 9.5
      vertex 34.2 9.51437 0
    endloop
  endfacet
  facet normal -0.99909 -0.0426519 0
    outer loop
      vertex 34.2 9.51437 0
      vertex 33.8499 17.7141 9.5
      vertex 33.8499 17.7141 0
    endloop
  endfacet
  facet normal 1 0 0
    outer loop
      vertex 34.2 9.51437 9.5
      vertex 34.2 9.51437 0
      vertex 34.2 75 0
    endloop
  endfacet
  facet normal 1 0 0
    outer loop
      vertex 34.2 75 9.5
      vertex 34.2 9.51437 9.5
      vertex 34.2 75 0
    endloop
  endfacet
  facet normal -1 0 0
    outer loop
      vertex 25 75 9.5
      vertex 25 75 7.5
      vertex 25 58.274 9.5
    endloop
  endfacet
  facet normal -1 0 0
    outer loop
      vertex 25 58.274 9.5
      vertex 25 75 7.5
      vertex 25 58.274 7.5
    endloop
  endfacet
  facet normal 0 -1 0
    outer loop
      vertex 25 75 7.5
      vertex 25 75 9.5
      vertex 16.195 75 9.5
    endloop
  endfacet
  facet normal 0 -1 0
    outer loop
      vertex 16.195 75 7.5
      vertex 25 75 7.5
      vertex 16.195 75 9.5
    endloop
  endfacet
  facet normal 0 0 1
    outer loop
      vertex 25 75 7.5
      vertex 16.195 75 7.5
      vertex 16.4915 74.675 7.5
    endloop
  endfacet
  facet normal 0 0 1
    outer loop
      vertex 24.675 59.1627 7.5
      vertex 25 75 7.5
      vertex 24.675 74.675 7.5
    endloop
  endfacet
  facet normal 0 0 1
    outer loop
      vertex 24.675 74.675 7.5
      vertex 25 75 7.5
      vertex 16.4915 74.675 7.5
    endloop
  endfacet
  facet normal 0 0 1
    outer loop
      vertex 25 58.274 7.5
      vertex 25 75 7.5
      vertex 24.675 59.1627 7.5
    endloop
  endfacet
  facet normal 0 1 0
    outer loop
      vertex 16.4915 74.675 7.5
      vertex 16.4915 74.675 9.5
      vertex 24.675 74.675 7.5
    endloop
  endfacet
  facet normal 0 1 0
    outer loop
      vertex 24.675 74.675 7.5
      vertex 16.4915 74.675 9.5
      vertex 24.675 74.675 9.5
    endloop
  endfacet
  facet normal 0 0 1
    outer loop
      vertex 24.675 74.675 9.5
      vertex 16.4915 74.675 9.5
      vertex 17.3031 73.7854 9.5
    endloop
  endfacet
  facet normal 0 0 1
    outer loop
      vertex 23.1561 63.3159 9.5
      vertex 24.675 74.675 9.5
      vertex 17.3031 73.7854 9.5
    endloop
  endfacet
  facet normal 0 0 1
    outer loop
      vertex 23.1561 63.3159 9.5
      vertex 24.675 59.1627 9.5
      vertex 24.675 74.675 9.5
    endloop
  endfacet
  facet normal 0 0 -1
    outer loop
      vertex 22.6 64.3106 2.2
      vertex 21.2 66.8148 2.2
      vertex 22.6 72.6 2.2
    endloop
  endfacet
  facet normal 0 0 -1
    outer loop
      vertex 22.6 72.6 2.2
      vertex 21.2 66.8148 2.2
      vertex 21.2 71.2 2.2
    endloop
  endfacet
  facet normal 0 0 -1
    outer loop
      vertex 22.6 72.6 2.2
      vertex 21.2 71.2 2.2
      vertex 18.7484 71.2 2.2
    endloop
  endfacet
  facet normal 0 0 -1
    outer loop
      vertex 22.6 72.6 2.2
      vertex 18.7484 71.2 2.2
      vertex 17.9658 72.6 2.2
    endloop
  endfacet
  facet normal 1 0 0
    outer loop
      vertex 21.2 66.8148 2.2
      vertex 21.2 66.8148 0
      vertex 21.2 71.2 0
    endloop
  endfacet
  facet normal 1 0 0
    outer loop
      vertex 21.2 71.2 2.2
      vertex 21.2 66.8148 2.2
      vertex 21.2 71.2 0
    endloop
  endfacet
  facet normal 0 0 -1
    outer loop
      vertex 21.2 66.8148 0
      vertex 18.7484 71.2 0
      vertex 21.2 71.2 0
    endloop
  endfacet
  facet normal 0 1 0
    outer loop
      vertex 18.7484 71.2 0
      vertex 18.7484 71.2 2.2
      vertex 21.2 71.2 0
    endloop
  endfacet
  facet normal 0 1 0
    outer loop
      vertex 21.2 71.2 0
      vertex 18.7484 71.2 2.2
      vertex 21.2 71.2 2.2
    endloop
  endfacet
  facet normal 1 0 0
    outer loop
      vertex 24.675 59.1627 9.5
      vertex 24.675 59.1627 7.5
      vertex 24.675 74.675 7.5
    endloop
  endfacet
  facet normal 1 0 0
    outer loop
      vertex 24.675 74.675 9.5
      vertex 24.675 59.1627 9.5
      vertex 24.675 74.675 7.5
    endloop
  endfacet
endsolid OpenSCAD_Model
