solid OpenSCAD_Model
  facet normal 0 0 -1
    outer loop
      vertex 11.4146 84.2 0
      vertex 84.2 84.2 0
      vertex 26.3282 81.03 0
    endloop
  endfacet
  facet normal 0 0 -1
    outer loop
      vertex 26.3282 81.03 0
      vertex 84.2 84.2 0
      vertex 84.2 75 0
    endloop
  endfacet
  facet normal 0 0 -1
    outer loop
      vertex 83.3382 17.7141 0
      vertex 84.2 75 0
      vertex 84.2 9.51437 0
    endloop
  endfacet
  facet normal 0 0 -1
    outer loop
      vertex 77.8341 34.654 0
      vertex 84.2 75 0
      vertex 83.3382 17.7141 0
    endloop
  endfacet
  facet normal 0 0 -1
    outer loop
      vertex 72.6 43.7196 0
      vertex 84.2 75 0
      vertex 77.8341 34.654 0
    endloop
  endfacet
  facet normal 0 0 -1
    outer loop
      vertex 72.6 72.6 0
      vertex 84.2 75 0
      vertex 72.6 43.7196 0
    endloop
  endfacet
  facet normal 0 0 -1
    outer loop
      vertex 26.3282 81.03 0
      vertex 84.2 75 0
      vertex 72.6 72.6 0
    endloop
  endfacet
  facet normal 0 0 -1
    outer loop
      vertex 42.6 73.7854 0
      vertex 72.6 72.6 0
      vertex 44.2315 72.6 0
    endloop
  endfacet
  facet normal 0 0 -1
    outer loop
      vertex 26.3282 81.03 0
      vertex 72.6 72.6 0
      vertex 42.6 73.7854 0
    endloop
  endfacet
  facet normal 0 1 0
    outer loop
      vertex 11.4146 84.2 0
      vertex 11.4146 84.2 9.5
      vertex 84.2 84.2 0
    endloop
  endfacet
  facet normal 0 1 0
    outer loop
      vertex 84.2 84.2 0
      vertex 11.4146 84.2 9.5
      vertex 84.2 84.2 9.5
    endloop
  endfacet
  facet normal -0.207912 -0.978148 0
    outer loop
      vertex 26.3282 81.03 0
      vertex 26.3282 81.03 9.5
      vertex 11.4146 84.2 9.5
    endloop
  endfacet
  facet normal -0.207912 -0.978148 0
    outer loop
      vertex 11.4146 84.2 0
      vertex 26.3282 81.03 0
      vertex 11.4146 84.2 9.5
    endloop
  endfacet
  facet normal -0.406737 -0.913545 0
    outer loop
      vertex 42.6 73.7854 0
      vertex 42.6 73.7854 9.5
      vertex 40.6018 74.675 9.5
    endloop
  endfacet
  facet normal -0.406737 -0.913545 0
    outer loop
      vertex 39.8719 75 7.5
      vertex 42.6 73.7854 0
      vertex 40.6018 74.675 7.5
    endloop
  endfacet
  facet normal -0.406737 -0.913545 0
    outer loop
      vertex 40.6018 74.675 7.5
      vertex 42.6 73.7854 0
      vertex 40.6018 74.675 9.5
    endloop
  endfacet
  facet normal -0.406737 -0.913545 0
    outer loop
      vertex 26.3282 81.03 9.5
      vertex 42.6 73.7854 0
      vertex 39.8719 75 7.5
    endloop
  endfacet
  facet normal -0.406737 -0.913545 0
    outer loop
      vertex 26.3282 81.03 9.5
      vertex 39.8719 75 7.5
      vertex 39.8719 75 9.5
    endloop
  endfacet
  facet normal -0.406737 -0.913545 0
    outer loop
      vertex 26.3282 81.03 0
      vertex 42.6 73.7854 0
      vertex 26.3282 81.03 9.5
    endloop
  endfacet
  facet normal -0.587785 -0.809017 0
    outer loop
      vertex 57.0099 63.3159 9.5
      vertex 44.2315 72.6 2.2
      vertex 46.1584 71.2 2.2
    endloop
  endfacet
  facet normal -0.587785 -0.809017 0
    outer loop
      vertex 44.2315 72.6 0
      vertex 44.2315 72.6 2.2
      vertex 42.6 73.7854 9.5
    endloop
  endfacet
  facet normal -0.587785 -0.809017 0
    outer loop
      vertex 46.1584 71.2 0
      vertex 57.0099 63.3159 0
      vertex 46.1584 71.2 2.2
    endloop
  endfacet
  facet normal -0.587785 -0.809017 0
    outer loop
      vertex 57.0099 63.3159 0
      vertex 57.0099 63.3159 9.5
      vertex 46.1584 71.2 2.2
    endloop
  endfacet
  facet normal -0.587785 -0.809017 0
    outer loop
      vertex 57.0099 63.3159 9.5
      vertex 50.325 68.1728 7.5
      vertex 44.2315 72.6 2.2
    endloop
  endfacet
  facet normal -0.587785 -0.809017 0
    outer loop
      vertex 57.0099 63.3159 9.5
      vertex 50.325 68.1728 9.5
      vertex 50.325 68.1728 7.5
    endloop
  endfacet
  facet normal -0.587785 -0.809017 0
    outer loop
      vertex 50.325 68.1728 7.5
      vertex 49.675 68.6451 7.5
      vertex 44.2315 72.6 2.2
    endloop
  endfacet
  facet normal -0.587785 -0.809017 0
    outer loop
      vertex 49.675 68.6451 9.5
      vertex 42.6 73.7854 9.5
      vertex 44.2315 72.6 2.2
    endloop
  endfacet
  facet normal -0.587785 -0.809017 0
    outer loop
      vertex 42.6 73.7854 9.5
      vertex 42.6 73.7854 0
      vertex 44.2315 72.6 0
    endloop
  endfacet
  facet normal -0.587785 -0.809017 0
    outer loop
      vertex 49.675 68.6451 7.5
      vertex 49.675 68.6451 9.5
      vertex 44.2315 72.6 2.2
    endloop
  endfacet
  facet normal 0 -1 0
    outer loop
      vertex 72.6 72.6 0
      vertex 72.6 72.6 2.2
      vertex 44.2315 72.6 2.2
    endloop
  endfacet
  facet normal 0 -1 0
    outer loop
      vertex 44.2315 72.6 0
      vertex 72.6 72.6 0
      vertex 44.2315 72.6 2.2
    endloop
  endfacet
  facet normal -1 0 0
    outer loop
      vertex 72.6 72.6 2.2
      vertex 72.6 72.6 0
      vertex 72.6 43.7196 2.2
    endloop
  endfacet
  facet normal -1 0 0
    outer loop
      vertex 72.6 43.7196 2.2
      vertex 72.6 72.6 0
      vertex 72.6 43.7196 0
    endloop
  endfacet
  facet normal -0.866025 -0.5 0
    outer loop
      vertex 77.8341 34.654 0
      vertex 72.6 43.7196 2.2
      vertex 72.6 43.7196 0
    endloop
  endfacet
  facet normal -0.866025 -0.5 0
    outer loop
      vertex 77.8341 34.654 9.5
      vertex 72.6 43.7196 2.2
      vertex 77.8341 34.654 0
    endloop
  endfacet
  facet normal -0.866025 -0.5 0
    outer loop
      vertex 71.2 46.1445 2.2
      vertex 72.6 43.7196 2.2
      vertex 77.8341 34.654 9.5
    endloop
  endfacet
  facet normal -0.866025 -0.5 0
    outer loop
      vertex 75 39.5627 7.5
      vertex 77.8341 34.654 9.5
      vertex 75 39.5627 9.5
    endloop
  endfacet
  facet normal -0.866025 -0.5 0
    outer loop
      vertex 71.2 46.1445 2.2
      vertex 77.8341 34.654 9.5
      vertex 75 39.5627 7.5
    endloop
  endfacet
  facet normal -0.866025 -0.5 0
    outer loop
      vertex 71.2 46.1445 2.2
      vertex 75 39.5627 7.5
      vertex 74.675 40.1256 7.5
    endloop
  endfacet
  facet normal -0.866025 -0.5 0
    outer loop
      vertex 71.2 46.1445 2.2
      vertex 74.675 40.1256 9.5
      vertex 69.1617 49.675 9.5
    endloop
  endfacet
  facet normal -0.866025 -0.5 0
    outer loop
      vertex 71.2 46.1445 2.2
      vertex 69.1617 49.675 9.5
      vertex 71.2 46.1445 0
    endloop
  endfacet
  facet normal -0.866025 -0.5 0
    outer loop
      vertex 69.1617 49.675 9.5
      vertex 69.1617 49.675 7.5
      vertex 71.2 46.1445 0
    endloop
  endfacet
  facet normal -0.866025 -0.5 0
    outer loop
      vertex 69.1617 49.675 7.5
      vertex 68.9282 50.0793 7.5
      vertex 71.2 46.1445 0
    endloop
  endfacet
  facet normal -0.866025 -0.5 0
    outer loop
      vertex 68.9282 50.0793 7.5
      vertex 68.9282 50.0793 0
      vertex 71.2 46.1445 0
    endloop
  endfacet
  facet normal -0.866025 -0.5 0
    outer loop
      vertex 74.675 40.1256 9.5
      vertex 71.2 46.1445 2.2
      vertex 74.675 40.1256 7.5
    endloop
  endfacet
  facet normal -0.951057 -0.309017 0
    outer loop
      vertex 83.3382 17.7141 9.5
      vertex 77.8341 34.654 9.5
      vertex 83.3382 17.7141 0
    endloop
  endfacet
  facet normal -0.951057 -0.309017 0
    outer loop
      vertex 83.3382 17.7141 0
      vertex 77.8341 34.654 9.5
      vertex 77.8341 34.654 0
    endloop
  endfacet
  facet normal -0.994522 -0.104528 0
    outer loop
      vertex 84.2 9.51437 9.5
      vertex 83.3382 17.7141 9.5
      vertex 84.2 9.51437 0
    endloop
  endfacet
  facet normal -0.994522 -0.104528 0
    outer loop
      vertex 84.2 9.51437 0
      vertex 83.3382 17.7141 9.5
      vertex 83.3382 17.7141 0
    endloop
  endfacet
  facet normal 1 0 0
    outer loop
      vertex 84.2 9.51437 9.5
      vertex 84.2 9.51437 0
      vertex 84.2 75 0
    endloop
  endfacet
  facet normal 1 0 0
    outer loop
      vertex 84.2 75 9.5
      vertex 84.2 9.51437 9.5
      vertex 84.2 75 0
    endloop
  endfacet
  facet normal 1 0 0
    outer loop
      vertex 84.2 75 9.5
      vertex 84.2 75 0
      vertex 84.2 84.2 0
    endloop
  endfacet
  facet normal 1 0 0
    outer loop
      vertex 84.2 84.2 9.5
      vertex 84.2 75 9.5
      vertex 84.2 84.2 0
    endloop
  endfacet
  facet normal 0 0 1
    outer loop
      vertex 75 75 9.5
      vertex 75 39.5627 9.5
      vertex 84.2 84.2 9.5
    endloop
  endfacet
  facet normal 0 0 1
    outer loop
      vertex 84.2 84.2 9.5
      vertex 11.4146 84.2 9.5
      vertex 26.3282 81.03 9.5
    endloop
  endfacet
  facet normal 0 0 1
    outer loop
      vertex 39.8719 75 9.5
      vertex 84.2 84.2 9.5
      vertex 26.3282 81.03 9.5
    endloop
  endfacet
  facet normal 0 0 1
    outer loop
      vertex 39.8719 75 9.5
      vertex 75 75 9.5
      vertex 84.2 84.2 9.5
    endloop
  endfacet
  facet normal 0 0 1
    outer loop
      vertex 77.8341 34.654 9.5
      vertex 83.3382 17.7141 9.5
      vertex 84.2 84.2 9.5
    endloop
  endfacet
  facet normal 0 0 1
    outer loop
      vertex 75 39.5627 9.5
      vertex 77.8341 34.654 9.5
      vertex 84.2 84.2 9.5
    endloop
  endfacet
  facet normal 0 0 1
    outer loop
      vertex 83.3382 17.7141 9.5
      vertex 84.2 75 9.5
      vertex 84.2 84.2 9.5
    endloop
  endfacet
  facet normal 0 0 1
    outer loop
      vertex 83.3382 17.7141 9.5
      vertex 84.2 9.51437 9.5
      vertex 84.2 75 9.5
    endloop
  endfacet
  facet normal 0 -1 0
    outer loop
      vertex 75 75 7.5
      vertex 75 75 9.5
      vertex 39.8719 75 9.5
    endloop
  endfacet
  facet normal 0 -1 0
    outer loop
      vertex 39.8719 75 7.5
      vertex 75 75 7.5
      vertex 39.8719 75 9.5
    endloop
  endfacet
  facet normal 0 0 1
    outer loop
      vertex 74.675 74.675 7.5
      vertex 74.675 50.325 7.5
      vertex 75 75 7.5
    endloop
  endfacet
  facet normal 0 0 1
    outer loop
      vertex 75 75 7.5
      vertex 39.8719 75 7.5
      vertex 40.6018 74.675 7.5
    endloop
  endfacet
  facet normal 0 0 1
    outer loop
      vertex 50.325 74.675 7.5
      vertex 75 75 7.5
      vertex 49.675 74.675 7.5
    endloop
  endfacet
  facet normal 0 0 1
    outer loop
      vertex 49.675 74.675 7.5
      vertex 75 75 7.5
      vertex 40.6018 74.675 7.5
    endloop
  endfacet
  facet normal 0 0 1
    outer loop
      vertex 50.325 74.675 7.5
      vertex 74.675 74.675 7.5
      vertex 75 75 7.5
    endloop
  endfacet
  facet normal 0 0 1
    outer loop
      vertex 68.707 50.325 7.5
      vertex 68.9282 50.0793 7.5
      vertex 74.675 50.325 7.5
    endloop
  endfacet
  facet normal 0 0 1
    outer loop
      vertex 49.675 68.6451 7.5
      vertex 50.325 74.675 7.5
      vertex 49.675 74.675 7.5
    endloop
  endfacet
  facet normal 0 0 1
    outer loop
      vertex 74.675 50.325 7.5
      vertex 74.675 49.675 7.5
      vertex 75 75 7.5
    endloop
  endfacet
  facet normal 0 0 1
    outer loop
      vertex 68.9282 50.0793 7.5
      vertex 69.1617 49.675 7.5
      vertex 74.675 50.325 7.5
    endloop
  endfacet
  facet normal 0 0 1
    outer loop
      vertex 69.1617 49.675 7.5
      vertex 74.675 49.675 7.5
      vertex 74.675 50.325 7.5
    endloop
  endfacet
  facet normal 0 0 1
    outer loop
      vertex 74.675 49.675 7.5
      vertex 74.675 40.1256 7.5
      vertex 75 75 7.5
    endloop
  endfacet
  facet normal 0 0 1
    outer loop
      vertex 74.675 40.1256 7.5
      vertex 75 39.5627 7.5
      vertex 75 75 7.5
    endloop
  endfacet
  facet normal 0 0 1
    outer loop
      vertex 50.325 68.1728 7.5
      vertex 50.325 74.675 7.5
      vertex 49.675 68.6451 7.5
    endloop
  endfacet
  facet normal 0 1 0
    outer loop
      vertex 40.6018 74.675 7.5
      vertex 40.6018 74.675 9.5
      vertex 49.675 74.675 7.5
    endloop
  endfacet
  facet normal 0 1 0
    outer loop
      vertex 49.675 74.675 7.5
      vertex 40.6018 74.675 9.5
      vertex 49.675 74.675 9.5
    endloop
  endfacet
  facet normal 0 0 1
    outer loop
      vertex 49.675 74.675 9.5
      vertex 40.6018 74.675 9.5
      vertex 42.6 73.7854 9.5
    endloop
  endfacet
  facet normal 0 0 1
    outer loop
      vertex 49.675 68.6451 9.5
      vertex 49.675 74.675 9.5
      vertex 42.6 73.7854 9.5
    endloop
  endfacet
  facet normal 1 0 0
    outer loop
      vertex 49.675 68.6451 9.5
      vertex 49.675 68.6451 7.5
      vertex 49.675 74.675 7.5
    endloop
  endfacet
  facet normal 1 0 0
    outer loop
      vertex 49.675 74.675 9.5
      vertex 49.675 68.6451 9.5
      vertex 49.675 74.675 7.5
    endloop
  endfacet
  facet normal -1 0 0
    outer loop
      vertex 50.325 68.1728 7.5
      vertex 50.325 68.1728 9.5
      vertex 50.325 74.675 7.5
    endloop
  endfacet
  facet normal -1 0 0
    outer loop
      vertex 50.325 74.675 7.5
      vertex 50.325 68.1728 9.5
      vertex 50.325 74.675 9.5
    endloop
  endfacet
  facet normal 0 0 1
    outer loop
      vertex 50.325 74.675 9.5
      vertex 50.325 68.1728 9.5
      vertex 57.0099 63.3159 9.5
    endloop
  endfacet
  facet normal 0 0 1
    outer loop
      vertex 68.707 50.325 9.5
      vertex 50.325 74.675 9.5
      vertex 57.0099 63.3159 9.5
    endloop
  endfacet
  facet normal 0 0 1
    outer loop
      vertex 68.707 50.325 9.5
      vertex 74.675 50.325 9.5
      vertex 50.325 74.675 9.5
    endloop
  endfacet
  facet normal 0 0 1
    outer loop
      vertex 74.675 50.325 9.5
      vertex 74.675 74.675 9.5
      vertex 50.325 74.675 9.5
    endloop
  endfacet
  facet normal -0.743145 -0.669131 0
    outer loop
      vertex 68.9282 50.0793 7.5
      vertex 68.707 50.325 7.5
      vertex 68.9282 50.0793 0
    endloop
  endfacet
  facet normal -0.743145 -0.669131 0
    outer loop
      vertex 57.0099 63.3159 9.5
      vertex 68.707 50.325 7.5
      vertex 68.707 50.325 9.5
    endloop
  endfacet
  facet normal -0.743145 -0.669131 0
    outer loop
      vertex 68.9282 50.0793 0
      vertex 68.707 50.325 7.5
      vertex 57.0099 63.3159 9.5
    endloop
  endfacet
  facet normal -0.743145 -0.669131 0
    outer loop
      vertex 68.9282 50.0793 0
      vertex 57.0099 63.3159 9.5
      vertex 57.0099 63.3159 0
    endloop
  endfacet
  facet normal 0 0 -1
    outer loop
      vertex 46.1584 71.2 0
      vertex 71.2 71.2 0
      vertex 57.0099 63.3159 0
    endloop
  endfacet
  facet normal 0 0 -1
    outer loop
      vertex 68.9282 50.0793 0
      vertex 71.2 71.2 0
      vertex 71.2 46.1445 0
    endloop
  endfacet
  facet normal 0 0 -1
    outer loop
      vertex 64.5478 61.0122 0
      vertex 71.2 71.2 0
      vertex 68.9282 50.0793 0
    endloop
  endfacet
  facet normal 0 0 -1
    outer loop
      vertex 61.1437 64.6372 0
      vertex 57.0099 63.3159 0
      vertex 61.4222 64.7903 0
    endloop
  endfacet
  facet normal 0 0 -1
    outer loop
      vertex 57.0099 63.3159 0
      vertex 59.9688 62.5 0
      vertex 59.9887 62.1827 0
    endloop
  endfacet
  facet normal 0 0 -1
    outer loop
      vertex 57.0099 63.3159 0
      vertex 59.9887 62.1827 0
      vertex 60.0483 61.8705 0
    endloop
  endfacet
  facet normal 0 0 -1
    outer loop
      vertex 57.0099 63.3159 0
      vertex 60.0483 61.8705 0
      vertex 60.1465 61.5682 0
    endloop
  endfacet
  facet normal 0 0 -1
    outer loop
      vertex 57.0099 63.3159 0
      vertex 60.1465 61.5682 0
      vertex 60.2818 61.2806 0
    endloop
  endfacet
  facet normal 0 0 -1
    outer loop
      vertex 57.0099 63.3159 0
      vertex 60.2818 61.2806 0
      vertex 60.4522 61.0122 0
    endloop
  endfacet
  facet normal 0 0 -1
    outer loop
      vertex 57.0099 63.3159 0
      vertex 60.4522 61.0122 0
      vertex 68.9282 50.0793 0
    endloop
  endfacet
  facet normal 0 0 -1
    outer loop
      vertex 60.4522 61.0122 0
      vertex 60.6548 60.7672 0
      vertex 68.9282 50.0793 0
    endloop
  endfacet
  facet normal 0 0 -1
    outer loop
      vertex 61.1437 60.3628 0
      vertex 68.9282 50.0793 0
      vertex 60.8865 60.5496 0
    endloop
  endfacet
  facet normal 0 0 -1
    outer loop
      vertex 61.4222 60.2097 0
      vertex 68.9282 50.0793 0
      vertex 61.1437 60.3628 0
    endloop
  endfacet
  facet normal 0 0 -1
    outer loop
      vertex 61.7178 60.0926 0
      vertex 68.9282 50.0793 0
      vertex 61.4222 60.2097 0
    endloop
  endfacet
  facet normal 0 0 -1
    outer loop
      vertex 62.9743 64.9864 0
      vertex 71.2 71.2 0
      vertex 63.2822 64.9074 0
    endloop
  endfacet
  facet normal 0 0 -1
    outer loop
      vertex 64.8535 61.5682 0
      vertex 71.2 71.2 0
      vertex 64.7182 61.2806 0
    endloop
  endfacet
  facet normal 0 0 -1
    outer loop
      vertex 61.7178 60.0926 0
      vertex 62.0257 60.0136 0
      vertex 68.9282 50.0793 0
    endloop
  endfacet
  facet normal 0 0 -1
    outer loop
      vertex 64.7182 63.7194 0
      vertex 71.2 71.2 0
      vertex 64.8535 63.4318 0
    endloop
  endfacet
  facet normal 0 0 -1
    outer loop
      vertex 62.0257 60.0136 0
      vertex 62.3411 59.9737 0
      vertex 68.9282 50.0793 0
    endloop
  endfacet
  facet normal 0 0 -1
    outer loop
      vertex 64.8535 63.4318 0
      vertex 71.2 71.2 0
      vertex 64.9517 63.1295 0
    endloop
  endfacet
  facet normal 0 0 -1
    outer loop
      vertex 62.3411 59.9737 0
      vertex 62.6589 59.9737 0
      vertex 68.9282 50.0793 0
    endloop
  endfacet
  facet normal 0 0 -1
    outer loop
      vertex 64.9517 63.1295 0
      vertex 71.2 71.2 0
      vertex 65.0113 62.8172 0
    endloop
  endfacet
  facet normal 0 0 -1
    outer loop
      vertex 62.6589 59.9737 0
      vertex 62.9743 60.0136 0
      vertex 68.9282 50.0793 0
    endloop
  endfacet
  facet normal 0 0 -1
    outer loop
      vertex 62.9743 60.0136 0
      vertex 63.2822 60.0926 0
      vertex 68.9282 50.0793 0
    endloop
  endfacet
  facet normal 0 0 -1
    outer loop
      vertex 65.0113 62.8172 0
      vertex 71.2 71.2 0
      vertex 65.0312 62.5 0
    endloop
  endfacet
  facet normal 0 0 -1
    outer loop
      vertex 63.2822 60.0926 0
      vertex 63.5778 60.2097 0
      vertex 68.9282 50.0793 0
    endloop
  endfacet
  facet normal 0 0 -1
    outer loop
      vertex 65.0312 62.5 0
      vertex 71.2 71.2 0
      vertex 65.0113 62.1827 0
    endloop
  endfacet
  facet normal 0 0 -1
    outer loop
      vertex 63.5778 60.2097 0
      vertex 63.8563 60.3628 0
      vertex 68.9282 50.0793 0
    endloop
  endfacet
  facet normal 0 0 -1
    outer loop
      vertex 65.0113 62.1827 0
      vertex 71.2 71.2 0
      vertex 64.9517 61.8705 0
    endloop
  endfacet
  facet normal 0 0 -1
    outer loop
      vertex 63.8563 60.3628 0
      vertex 64.1135 60.5496 0
      vertex 68.9282 50.0793 0
    endloop
  endfacet
  facet normal 0 0 -1
    outer loop
      vertex 64.9517 61.8705 0
      vertex 71.2 71.2 0
      vertex 64.8535 61.5682 0
    endloop
  endfacet
  facet normal 0 0 -1
    outer loop
      vertex 64.1135 60.5496 0
      vertex 64.3452 60.7672 0
      vertex 68.9282 50.0793 0
    endloop
  endfacet
  facet normal 0 0 -1
    outer loop
      vertex 64.7182 61.2806 0
      vertex 71.2 71.2 0
      vertex 64.5478 61.0122 0
    endloop
  endfacet
  facet normal 0 0 -1
    outer loop
      vertex 64.3452 60.7672 0
      vertex 64.5478 61.0122 0
      vertex 68.9282 50.0793 0
    endloop
  endfacet
  facet normal 0 0 -1
    outer loop
      vertex 64.5478 63.9878 0
      vertex 71.2 71.2 0
      vertex 64.7182 63.7194 0
    endloop
  endfacet
  facet normal 0 0 -1
    outer loop
      vertex 64.3452 64.2328 0
      vertex 71.2 71.2 0
      vertex 64.5478 63.9878 0
    endloop
  endfacet
  facet normal 0 0 -1
    outer loop
      vertex 64.1135 64.4504 0
      vertex 71.2 71.2 0
      vertex 64.3452 64.2328 0
    endloop
  endfacet
  facet normal 0 0 -1
    outer loop
      vertex 63.8563 64.6372 0
      vertex 71.2 71.2 0
      vertex 64.1135 64.4504 0
    endloop
  endfacet
  facet normal 0 0 -1
    outer loop
      vertex 63.5778 64.7903 0
      vertex 71.2 71.2 0
      vertex 63.8563 64.6372 0
    endloop
  endfacet
  facet normal 0 0 -1
    outer loop
      vertex 63.2822 64.9074 0
      vertex 71.2 71.2 0
      vertex 63.5778 64.7903 0
    endloop
  endfacet
  facet normal 0 0 -1
    outer loop
      vertex 62.6589 65.0263 0
      vertex 71.2 71.2 0
      vertex 62.9743 64.9864 0
    endloop
  endfacet
  facet normal 0 0 -1
    outer loop
      vertex 62.3411 65.0263 0
      vertex 71.2 71.2 0
      vertex 62.6589 65.0263 0
    endloop
  endfacet
  facet normal 0 0 -1
    outer loop
      vertex 62.0257 64.9864 0
      vertex 71.2 71.2 0
      vertex 62.3411 65.0263 0
    endloop
  endfacet
  facet normal 0 0 -1
    outer loop
      vertex 61.7178 64.9074 0
      vertex 71.2 71.2 0
      vertex 62.0257 64.9864 0
    endloop
  endfacet
  facet normal 0 0 -1
    outer loop
      vertex 57.0099 63.3159 0
      vertex 71.2 71.2 0
      vertex 61.7178 64.9074 0
    endloop
  endfacet
  facet normal 0 0 -1
    outer loop
      vertex 57.0099 63.3159 0
      vertex 61.7178 64.9074 0
      vertex 61.4222 64.7903 0
    endloop
  endfacet
  facet normal 0 0 -1
    outer loop
      vertex 60.8865 64.4504 0
      vertex 57.0099 63.3159 0
      vertex 61.1437 64.6372 0
    endloop
  endfacet
  facet normal 0 0 -1
    outer loop
      vertex 60.6548 64.2328 0
      vertex 57.0099 63.3159 0
      vertex 60.8865 64.4504 0
    endloop
  endfacet
  facet normal 0 0 -1
    outer loop
      vertex 57.0099 63.3159 0
      vertex 60.6548 64.2328 0
      vertex 60.4522 63.9878 0
    endloop
  endfacet
  facet normal 0 0 -1
    outer loop
      vertex 57.0099 63.3159 0
      vertex 60.4522 63.9878 0
      vertex 60.2818 63.7194 0
    endloop
  endfacet
  facet normal 0 0 -1
    outer loop
      vertex 57.0099 63.3159 0
      vertex 60.2818 63.7194 0
      vertex 60.1465 63.4318 0
    endloop
  endfacet
  facet normal 0 0 -1
    outer loop
      vertex 57.0099 63.3159 0
      vertex 60.1465 63.4318 0
      vertex 60.0483 63.1295 0
    endloop
  endfacet
  facet normal 0 0 -1
    outer loop
      vertex 57.0099 63.3159 0
      vertex 60.0483 63.1295 0
      vertex 59.9887 62.8172 0
    endloop
  endfacet
  facet normal 0 0 -1
    outer loop
      vertex 57.0099 63.3159 0
      vertex 59.9887 62.8172 0
      vertex 59.9688 62.5 0
    endloop
  endfacet
  facet normal 0 0 -1
    outer loop
      vertex 60.8865 60.5496 0
      vertex 68.9282 50.0793 0
      vertex 60.6548 60.7672 0
    endloop
  endfacet
  facet normal 0 1 0
    outer loop
      vertex 46.1584 71.2 0
      vertex 46.1584 71.2 2.2
      vertex 71.2 71.2 0
    endloop
  endfacet
  facet normal 0 1 0
    outer loop
      vertex 71.2 71.2 0
      vertex 46.1584 71.2 2.2
      vertex 71.2 71.2 2.2
    endloop
  endfacet
  facet normal 0 0 -1
    outer loop
      vertex 72.6 43.7196 2.2
      vertex 71.2 46.1445 2.2
      vertex 72.6 72.6 2.2
    endloop
  endfacet
  facet normal 0 0 -1
    outer loop
      vertex 72.6 72.6 2.2
      vertex 71.2 46.1445 2.2
      vertex 71.2 71.2 2.2
    endloop
  endfacet
  facet normal 0 0 -1
    outer loop
      vertex 72.6 72.6 2.2
      vertex 71.2 71.2 2.2
      vertex 46.1584 71.2 2.2
    endloop
  endfacet
  facet normal 0 0 -1
    outer loop
      vertex 46.1584 71.2 2.2
      vertex 44.2315 72.6 2.2
      vertex 72.6 72.6 2.2
    endloop
  endfacet
  facet normal 1 0 0
    outer loop
      vertex 71.2 46.1445 2.2
      vertex 71.2 46.1445 0
      vertex 71.2 71.2 0
    endloop
  endfacet
  facet normal 1 0 0
    outer loop
      vertex 71.2 71.2 2.2
      vertex 71.2 46.1445 2.2
      vertex 71.2 71.2 0
    endloop
  endfacet
  facet normal 0 1 0
    outer loop
      vertex 69.1617 49.675 7.5
      vertex 69.1617 49.675 9.5
      vertex 74.675 49.675 7.5
    endloop
  endfacet
  facet normal 0 1 0
    outer loop
      vertex 74.675 49.675 7.5
      vertex 69.1617 49.675 9.5
      vertex 74.675 49.675 9.5
    endloop
  endfacet
  facet normal 0 0 1
    outer loop
      vertex 74.675 49.675 9.5
      vertex 69.1617 49.675 9.5
      vertex 74.675 40.1256 9.5
    endloop
  endfacet
  facet normal 1 0 0
    outer loop
      vertex 74.675 40.1256 9.5
      vertex 74.675 40.1256 7.5
      vertex 74.675 49.675 7.5
    endloop
  endfacet
  facet normal 1 0 0
    outer loop
      vertex 74.675 49.675 9.5
      vertex 74.675 40.1256 9.5
      vertex 74.675 49.675 7.5
    endloop
  endfacet
  facet normal -1 0 0
    outer loop
      vertex 75 75 9.5
      vertex 75 75 7.5
      vertex 75 39.5627 9.5
    endloop
  endfacet
  facet normal -1 0 0
    outer loop
      vertex 75 39.5627 9.5
      vertex 75 75 7.5
      vertex 75 39.5627 7.5
    endloop
  endfacet
  facet normal 0 -1 0
    outer loop
      vertex 68.707 50.325 9.5
      vertex 68.707 50.325 7.5
      vertex 74.675 50.325 7.5
    endloop
  endfacet
  facet normal 0 -1 0
    outer loop
      vertex 74.675 50.325 9.5
      vertex 68.707 50.325 9.5
      vertex 74.675 50.325 7.5
    endloop
  endfacet
  facet normal 1 0 0
    outer loop
      vertex 74.675 50.325 9.5
      vertex 74.675 50.325 7.5
      vertex 74.675 74.675 7.5
    endloop
  endfacet
  facet normal 1 0 0
    outer loop
      vertex 74.675 74.675 9.5
      vertex 74.675 50.325 9.5
      vertex 74.675 74.675 7.5
    endloop
  endfacet
  facet normal 0 1 0
    outer loop
      vertex 50.325 74.675 7.5
      vertex 50.325 74.675 9.5
      vertex 74.675 74.675 7.5
    endloop
  endfacet
  facet normal 0 1 0
    outer loop
      vertex 74.675 74.675 7.5
      vertex 50.325 74.675 9.5
      vertex 74.675 74.675 9.5
    endloop
  endfacet
  facet normal 0.998027 -0.0627915 0
    outer loop
      vertex 59.9887 62.8172 0
      vertex 59.9887 62.8172 1.7875
      vertex 59.9688 62.5 1.7875
    endloop
  endfacet
  facet normal 0.998027 -0.0627915 0
    outer loop
      vertex 59.9688 62.5 0
      vertex 59.9887 62.8172 0
      vertex 59.9688 62.5 1.7875
    endloop
  endfacet
  facet normal 0.998027 0.0627915 0
    outer loop
      vertex 59.9688 62.5 1.7875
      vertex 59.9887 62.1827 1.7875
      vertex 59.9887 62.1827 0
    endloop
  endfacet
  facet normal 0.998027 0.0627915 0
    outer loop
      vertex 59.9688 62.5 0
      vertex 59.9688 62.5 1.7875
      vertex 59.9887 62.1827 0
    endloop
  endfacet
  facet normal 0.982287 -0.187381 0
    outer loop
      vertex 60.0483 63.1295 0
      vertex 60.0483 63.1295 1.7875
      vertex 59.9887 62.8172 1.7875
    endloop
  endfacet
  facet normal 0.982287 -0.187381 0
    outer loop
      vertex 59.9887 62.8172 0
      vertex 60.0483 63.1295 0
      vertex 59.9887 62.8172 1.7875
    endloop
  endfacet
  facet normal 0.951057 -0.309016 0
    outer loop
      vertex 60.1465 63.4318 0
      vertex 60.1465 63.4318 1.7875
      vertex 60.0483 63.1295 1.7875
    endloop
  endfacet
  facet normal 0.951057 -0.309016 0
    outer loop
      vertex 60.0483 63.1295 0
      vertex 60.1465 63.4318 0
      vertex 60.0483 63.1295 1.7875
    endloop
  endfacet
  facet normal 0.904827 -0.42578 0
    outer loop
      vertex 60.2818 63.7194 0
      vertex 60.2818 63.7194 1.7875
      vertex 60.1465 63.4318 1.7875
    endloop
  endfacet
  facet normal 0.904827 -0.42578 0
    outer loop
      vertex 60.1465 63.4318 0
      vertex 60.2818 63.7194 0
      vertex 60.1465 63.4318 1.7875
    endloop
  endfacet
  facet normal 0.844328 -0.535827 0
    outer loop
      vertex 60.4522 63.9878 0
      vertex 60.4522 63.9878 1.7875
      vertex 60.2818 63.7194 1.7875
    endloop
  endfacet
  facet normal 0.844328 -0.535827 0
    outer loop
      vertex 60.2818 63.7194 0
      vertex 60.4522 63.9878 0
      vertex 60.2818 63.7194 1.7875
    endloop
  endfacet
  facet normal 0.770515 -0.637422 0
    outer loop
      vertex 60.6548 64.2328 0
      vertex 60.6548 64.2328 1.7875
      vertex 60.4522 63.9878 1.7875
    endloop
  endfacet
  facet normal 0.770515 -0.637422 0
    outer loop
      vertex 60.4522 63.9878 0
      vertex 60.6548 64.2328 0
      vertex 60.4522 63.9878 1.7875
    endloop
  endfacet
  facet normal 0.684546 -0.728969 0
    outer loop
      vertex 60.8865 64.4504 0
      vertex 60.8865 64.4504 1.7875
      vertex 60.6548 64.2328 1.7875
    endloop
  endfacet
  facet normal 0.684546 -0.728969 0
    outer loop
      vertex 60.6548 64.2328 0
      vertex 60.8865 64.4504 0
      vertex 60.6548 64.2328 1.7875
    endloop
  endfacet
  facet normal 0.587786 -0.809017 0
    outer loop
      vertex 61.1437 64.6372 0
      vertex 61.1437 64.6372 1.7875
      vertex 60.8865 64.4504 1.7875
    endloop
  endfacet
  facet normal 0.587786 -0.809017 0
    outer loop
      vertex 60.8865 64.4504 0
      vertex 61.1437 64.6372 0
      vertex 60.8865 64.4504 1.7875
    endloop
  endfacet
  facet normal 0.481752 -0.876307 0
    outer loop
      vertex 61.4222 64.7903 0
      vertex 61.4222 64.7903 1.7875
      vertex 61.1437 64.6372 1.7875
    endloop
  endfacet
  facet normal 0.481752 -0.876307 0
    outer loop
      vertex 61.1437 64.6372 0
      vertex 61.4222 64.7903 0
      vertex 61.1437 64.6372 1.7875
    endloop
  endfacet
  facet normal 0.368126 -0.929776 0
    outer loop
      vertex 61.7178 64.9074 0
      vertex 61.7178 64.9074 1.7875
      vertex 61.4222 64.7903 1.7875
    endloop
  endfacet
  facet normal 0.368126 -0.929776 0
    outer loop
      vertex 61.4222 64.7903 0
      vertex 61.7178 64.9074 0
      vertex 61.4222 64.7903 1.7875
    endloop
  endfacet
  facet normal 0.248691 -0.968583 0
    outer loop
      vertex 62.0257 64.9864 0
      vertex 62.0257 64.9864 1.7875
      vertex 61.7178 64.9074 1.7875
    endloop
  endfacet
  facet normal 0.248691 -0.968583 0
    outer loop
      vertex 61.7178 64.9074 0
      vertex 62.0257 64.9864 0
      vertex 61.7178 64.9074 1.7875
    endloop
  endfacet
  facet normal 0.125332 -0.992115 0
    outer loop
      vertex 62.3411 65.0263 0
      vertex 62.3411 65.0263 1.7875
      vertex 62.0257 64.9864 1.7875
    endloop
  endfacet
  facet normal 0.125332 -0.992115 0
    outer loop
      vertex 62.0257 64.9864 0
      vertex 62.3411 65.0263 0
      vertex 62.0257 64.9864 1.7875
    endloop
  endfacet
  facet normal 0 -1 0
    outer loop
      vertex 62.6589 65.0263 0
      vertex 62.6589 65.0263 1.7875
      vertex 62.3411 65.0263 1.7875
    endloop
  endfacet
  facet normal 0 -1 0
    outer loop
      vertex 62.3411 65.0263 0
      vertex 62.6589 65.0263 0
      vertex 62.3411 65.0263 1.7875
    endloop
  endfacet
  facet normal -0.125332 -0.992115 0
    outer loop
      vertex 62.9743 64.9864 0
      vertex 62.9743 64.9864 1.7875
      vertex 62.6589 65.0263 1.7875
    endloop
  endfacet
  facet normal -0.125332 -0.992115 0
    outer loop
      vertex 62.6589 65.0263 0
      vertex 62.9743 64.9864 0
      vertex 62.6589 65.0263 1.7875
    endloop
  endfacet
  facet normal -0.248691 -0.968583 0
    outer loop
      vertex 63.2822 64.9074 0
      vertex 63.2822 64.9074 1.7875
      vertex 62.9743 64.9864 1.7875
    endloop
  endfacet
  facet normal -0.248691 -0.968583 0
    outer loop
      vertex 62.9743 64.9864 0
      vertex 63.2822 64.9074 0
      vertex 62.9743 64.9864 1.7875
    endloop
  endfacet
  facet normal -0.368126 -0.929776 0
    outer loop
      vertex 63.5778 64.7903 0
      vertex 63.5778 64.7903 1.7875
      vertex 63.2822 64.9074 1.7875
    endloop
  endfacet
  facet normal -0.368126 -0.929776 0
    outer loop
      vertex 63.2822 64.9074 0
      vertex 63.5778 64.7903 0
      vertex 63.2822 64.9074 1.7875
    endloop
  endfacet
  facet normal -0.481752 -0.876307 0
    outer loop
      vertex 63.8563 64.6372 0
      vertex 63.8563 64.6372 1.7875
      vertex 63.5778 64.7903 1.7875
    endloop
  endfacet
  facet normal -0.481752 -0.876307 0
    outer loop
      vertex 63.5778 64.7903 0
      vertex 63.8563 64.6372 0
      vertex 63.5778 64.7903 1.7875
    endloop
  endfacet
  facet normal -0.587786 -0.809017 0
    outer loop
      vertex 64.1135 64.4504 0
      vertex 64.1135 64.4504 1.7875
      vertex 63.8563 64.6372 1.7875
    endloop
  endfacet
  facet normal -0.587786 -0.809017 0
    outer loop
      vertex 63.8563 64.6372 0
      vertex 64.1135 64.4504 0
      vertex 63.8563 64.6372 1.7875
    endloop
  endfacet
  facet normal -0.684546 -0.728969 0
    outer loop
      vertex 64.3452 64.2328 0
      vertex 64.3452 64.2328 1.7875
      vertex 64.1135 64.4504 1.7875
    endloop
  endfacet
  facet normal -0.684546 -0.728969 0
    outer loop
      vertex 64.1135 64.4504 0
      vertex 64.3452 64.2328 0
      vertex 64.1135 64.4504 1.7875
    endloop
  endfacet
  facet normal -0.770515 -0.637422 0
    outer loop
      vertex 64.5478 63.9878 1.7875
      vertex 64.3452 64.2328 1.7875
      vertex 64.5478 63.9878 0
    endloop
  endfacet
  facet normal -0.770515 -0.637422 0
    outer loop
      vertex 64.5478 63.9878 0
      vertex 64.3452 64.2328 1.7875
      vertex 64.3452 64.2328 0
    endloop
  endfacet
  facet normal -0.844328 -0.535827 0
    outer loop
      vertex 64.7182 63.7194 1.7875
      vertex 64.5478 63.9878 1.7875
      vertex 64.7182 63.7194 0
    endloop
  endfacet
  facet normal -0.844328 -0.535827 0
    outer loop
      vertex 64.7182 63.7194 0
      vertex 64.5478 63.9878 1.7875
      vertex 64.5478 63.9878 0
    endloop
  endfacet
  facet normal -0.904827 -0.42578 0
    outer loop
      vertex 64.8535 63.4318 1.7875
      vertex 64.7182 63.7194 1.7875
      vertex 64.8535 63.4318 0
    endloop
  endfacet
  facet normal -0.904827 -0.42578 0
    outer loop
      vertex 64.8535 63.4318 0
      vertex 64.7182 63.7194 1.7875
      vertex 64.7182 63.7194 0
    endloop
  endfacet
  facet normal -0.951057 -0.309016 0
    outer loop
      vertex 64.9517 63.1295 1.7875
      vertex 64.8535 63.4318 1.7875
      vertex 64.9517 63.1295 0
    endloop
  endfacet
  facet normal -0.951057 -0.309016 0
    outer loop
      vertex 64.9517 63.1295 0
      vertex 64.8535 63.4318 1.7875
      vertex 64.8535 63.4318 0
    endloop
  endfacet
  facet normal -0.982287 -0.187381 0
    outer loop
      vertex 65.0113 62.8172 1.7875
      vertex 64.9517 63.1295 1.7875
      vertex 65.0113 62.8172 0
    endloop
  endfacet
  facet normal -0.982287 -0.187381 0
    outer loop
      vertex 65.0113 62.8172 0
      vertex 64.9517 63.1295 1.7875
      vertex 64.9517 63.1295 0
    endloop
  endfacet
  facet normal -0.998027 -0.0627915 0
    outer loop
      vertex 65.0312 62.5 1.7875
      vertex 65.0113 62.8172 1.7875
      vertex 65.0312 62.5 0
    endloop
  endfacet
  facet normal -0.998027 -0.0627915 0
    outer loop
      vertex 65.0312 62.5 0
      vertex 65.0113 62.8172 1.7875
      vertex 65.0113 62.8172 0
    endloop
  endfacet
  facet normal -0.998027 0.0627915 0
    outer loop
      vertex 65.0312 62.5 1.7875
      vertex 65.0312 62.5 0
      vertex 65.0113 62.1827 1.7875
    endloop
  endfacet
  facet normal -0.998027 0.0627915 0
    outer loop
      vertex 65.0113 62.1827 1.7875
      vertex 65.0312 62.5 0
      vertex 65.0113 62.1827 0
    endloop
  endfacet
  facet normal -0.982287 0.187381 0
    outer loop
      vertex 65.0113 62.1827 1.7875
      vertex 65.0113 62.1827 0
      vertex 64.9517 61.8705 1.7875
    endloop
  endfacet
  facet normal -0.982287 0.187381 0
    outer loop
      vertex 64.9517 61.8705 1.7875
      vertex 65.0113 62.1827 0
      vertex 64.9517 61.8705 0
    endloop
  endfacet
  facet normal -0.951057 0.309016 0
    outer loop
      vertex 64.9517 61.8705 1.7875
      vertex 64.9517 61.8705 0
      vertex 64.8535 61.5682 1.7875
    endloop
  endfacet
  facet normal -0.951057 0.309016 0
    outer loop
      vertex 64.8535 61.5682 1.7875
      vertex 64.9517 61.8705 0
      vertex 64.8535 61.5682 0
    endloop
  endfacet
  facet normal -0.904827 0.42578 0
    outer loop
      vertex 64.8535 61.5682 1.7875
      vertex 64.8535 61.5682 0
      vertex 64.7182 61.2806 1.7875
    endloop
  endfacet
  facet normal -0.904827 0.42578 0
    outer loop
      vertex 64.7182 61.2806 1.7875
      vertex 64.8535 61.5682 0
      vertex 64.7182 61.2806 0
    endloop
  endfacet
  facet normal -0.844328 0.535827 0
    outer loop
      vertex 64.7182 61.2806 1.7875
      vertex 64.7182 61.2806 0
      vertex 64.5478 61.0122 1.7875
    endloop
  endfacet
  facet normal -0.844328 0.535827 0
    outer loop
      vertex 64.5478 61.0122 1.7875
      vertex 64.7182 61.2806 0
      vertex 64.5478 61.0122 0
    endloop
  endfacet
  facet normal -0.770515 0.637422 0
    outer loop
      vertex 64.5478 61.0122 1.7875
      vertex 64.5478 61.0122 0
      vertex 64.3452 60.7672 1.7875
    endloop
  endfacet
  facet normal -0.770515 0.637422 0
    outer loop
      vertex 64.3452 60.7672 1.7875
      vertex 64.5478 61.0122 0
      vertex 64.3452 60.7672 0
    endloop
  endfacet
  facet normal -0.684546 0.728969 0
    outer loop
      vertex 64.3452 60.7672 1.7875
      vertex 64.3452 60.7672 0
      vertex 64.1135 60.5496 1.7875
    endloop
  endfacet
  facet normal -0.684546 0.728969 0
    outer loop
      vertex 64.1135 60.5496 1.7875
      vertex 64.3452 60.7672 0
      vertex 64.1135 60.5496 0
    endloop
  endfacet
  facet normal -0.587786 0.809017 0
    outer loop
      vertex 64.1135 60.5496 1.7875
      vertex 64.1135 60.5496 0
      vertex 63.8563 60.3628 1.7875
    endloop
  endfacet
  facet normal -0.587786 0.809017 0
    outer loop
      vertex 63.8563 60.3628 1.7875
      vertex 64.1135 60.5496 0
      vertex 63.8563 60.3628 0
    endloop
  endfacet
  facet normal -0.481752 0.876307 0
    outer loop
      vertex 63.8563 60.3628 1.7875
      vertex 63.8563 60.3628 0
      vertex 63.5778 60.2097 1.7875
    endloop
  endfacet
  facet normal -0.481752 0.876307 0
    outer loop
      vertex 63.5778 60.2097 1.7875
      vertex 63.8563 60.3628 0
      vertex 63.5778 60.2097 0
    endloop
  endfacet
  facet normal -0.368126 0.929776 0
    outer loop
      vertex 63.5778 60.2097 1.7875
      vertex 63.5778 60.2097 0
      vertex 63.2822 60.0926 1.7875
    endloop
  endfacet
  facet normal -0.368126 0.929776 0
    outer loop
      vertex 63.2822 60.0926 1.7875
      vertex 63.5778 60.2097 0
      vertex 63.2822 60.0926 0
    endloop
  endfacet
  facet normal -0.248691 0.968583 0
    outer loop
      vertex 63.2822 60.0926 1.7875
      vertex 63.2822 60.0926 0
      vertex 62.9743 60.0136 1.7875
    endloop
  endfacet
  facet normal -0.248691 0.968583 0
    outer loop
      vertex 62.9743 60.0136 1.7875
      vertex 63.2822 60.0926 0
      vertex 62.9743 60.0136 0
    endloop
  endfacet
  facet normal -0.125332 0.992115 0
    outer loop
      vertex 62.9743 60.0136 1.7875
      vertex 62.9743 60.0136 0
      vertex 62.6589 59.9737 1.7875
    endloop
  endfacet
  facet normal -0.125332 0.992115 0
    outer loop
      vertex 62.6589 59.9737 1.7875
      vertex 62.9743 60.0136 0
      vertex 62.6589 59.9737 0
    endloop
  endfacet
  facet normal 0 1 0
    outer loop
      vertex 62.6589 59.9737 1.7875
      vertex 62.6589 59.9737 0
      vertex 62.3411 59.9737 1.7875
    endloop
  endfacet
  facet normal 0 1 0
    outer loop
      vertex 62.3411 59.9737 1.7875
      vertex 62.6589 59.9737 0
      vertex 62.3411 59.9737 0
    endloop
  endfacet
  facet normal 0.125332 0.992115 0
    outer loop
      vertex 62.3411 59.9737 1.7875
      vertex 62.3411 59.9737 0
      vertex 62.0257 60.0136 1.7875
    endloop
  endfacet
  facet normal 0.125332 0.992115 0
    outer loop
      vertex 62.0257 60.0136 1.7875
      vertex 62.3411 59.9737 0
      vertex 62.0257 60.0136 0
    endloop
  endfacet
  facet normal 0.248691 0.968583 0
    outer loop
      vertex 62.0257 60.0136 1.7875
      vertex 62.0257 60.0136 0
      vertex 61.7178 60.0926 1.7875
    endloop
  endfacet
  facet normal 0.248691 0.968583 0
    outer loop
      vertex 61.7178 60.0926 1.7875
      vertex 62.0257 60.0136 0
      vertex 61.7178 60.0926 0
    endloop
  endfacet
  facet normal 0.368126 0.929776 0
    outer loop
      vertex 61.7178 60.0926 1.7875
      vertex 61.7178 60.0926 0
      vertex 61.4222 60.2097 1.7875
    endloop
  endfacet
  facet normal 0.368126 0.929776 0
    outer loop
      vertex 61.4222 60.2097 1.7875
      vertex 61.7178 60.0926 0
      vertex 61.4222 60.2097 0
    endloop
  endfacet
  facet normal 0.481752 0.876307 0
    outer loop
      vertex 61.4222 60.2097 1.7875
      vertex 61.4222 60.2097 0
      vertex 61.1437 60.3628 1.7875
    endloop
  endfacet
  facet normal 0.481752 0.876307 0
    outer loop
      vertex 61.1437 60.3628 1.7875
      vertex 61.4222 60.2097 0
      vertex 61.1437 60.3628 0
    endloop
  endfacet
  facet normal 0.587786 0.809017 0
    outer loop
      vertex 61.1437 60.3628 1.7875
      vertex 61.1437 60.3628 0
      vertex 60.8865 60.5496 1.7875
    endloop
  endfacet
  facet normal 0.587786 0.809017 0
    outer loop
      vertex 60.8865 60.5496 1.7875
      vertex 61.1437 60.3628 0
      vertex 60.8865 60.5496 0
    endloop
  endfacet
  facet normal 0.684546 0.728969 0
    outer loop
      vertex 60.8865 60.5496 1.7875
      vertex 60.8865 60.5496 0
      vertex 60.6548 60.7672 1.7875
    endloop
  endfacet
  facet normal 0.684546 0.728969 0
    outer loop
      vertex 60.6548 60.7672 1.7875
      vertex 60.8865 60.5496 0
      vertex 60.6548 60.7672 0
    endloop
  endfacet
  facet normal 0.770515 0.637422 0
    outer loop
      vertex 60.4522 61.0122 1.7875
      vertex 60.6548 60.7672 1.7875
      vertex 60.6548 60.7672 0
    endloop
  endfacet
  facet normal 0.770515 0.637422 0
    outer loop
      vertex 60.4522 61.0122 0
      vertex 60.4522 61.0122 1.7875
      vertex 60.6548 60.7672 0
    endloop
  endfacet
  facet normal 0.844328 0.535827 0
    outer loop
      vertex 60.2818 61.2806 1.7875
      vertex 60.4522 61.0122 1.7875
      vertex 60.4522 61.0122 0
    endloop
  endfacet
  facet normal 0.844328 0.535827 0
    outer loop
      vertex 60.2818 61.2806 0
      vertex 60.2818 61.2806 1.7875
      vertex 60.4522 61.0122 0
    endloop
  endfacet
  facet normal 0.904827 0.42578 0
    outer loop
      vertex 60.1465 61.5682 1.7875
      vertex 60.2818 61.2806 1.7875
      vertex 60.2818 61.2806 0
    endloop
  endfacet
  facet normal 0.904827 0.42578 0
    outer loop
      vertex 60.1465 61.5682 0
      vertex 60.1465 61.5682 1.7875
      vertex 60.2818 61.2806 0
    endloop
  endfacet
  facet normal 0.951057 0.309016 0
    outer loop
      vertex 60.0483 61.8705 1.7875
      vertex 60.1465 61.5682 1.7875
      vertex 60.1465 61.5682 0
    endloop
  endfacet
  facet normal 0.951057 0.309016 0
    outer loop
      vertex 60.0483 61.8705 0
      vertex 60.0483 61.8705 1.7875
      vertex 60.1465 61.5682 0
    endloop
  endfacet
  facet normal 0.982287 0.187381 0
    outer loop
      vertex 59.9887 62.1827 1.7875
      vertex 60.0483 61.8705 1.7875
      vertex 60.0483 61.8705 0
    endloop
  endfacet
  facet normal 0.982287 0.187381 0
    outer loop
      vertex 59.9887 62.1827 0
      vertex 59.9887 62.1827 1.7875
      vertex 60.0483 61.8705 0
    endloop
  endfacet
  facet normal 0 0 -1
    outer loop
      vertex 60.0483 63.1295 1.7875
      vertex 60.1465 63.4318 1.7875
      vertex 59.9887 62.8172 1.7875
    endloop
  endfacet
  facet normal 0 0 -1
    outer loop
      vertex 59.9887 62.8172 1.7875
      vertex 60.1465 63.4318 1.7875
      vertex 60.2818 63.7194 1.7875
    endloop
  endfacet
  facet normal 0 0 -1
    outer loop
      vertex 59.9887 62.8172 1.7875
      vertex 60.2818 63.7194 1.7875
      vertex 60.4522 63.9878 1.7875
    endloop
  endfacet
  facet normal 0 0 -1
    outer loop
      vertex 59.9887 62.8172 1.7875
      vertex 60.4522 63.9878 1.7875
      vertex 60.6548 64.2328 1.7875
    endloop
  endfacet
  facet normal 0 0 -1
    outer loop
      vertex 59.9887 62.8172 1.7875
      vertex 60.6548 64.2328 1.7875
      vertex 60.8865 64.4504 1.7875
    endloop
  endfacet
  facet normal 0 0 -1
    outer loop
      vertex 59.9887 62.8172 1.7875
      vertex 60.8865 64.4504 1.7875
      vertex 61.1437 64.6372 1.7875
    endloop
  endfacet
  facet normal 0 0 -1
    outer loop
      vertex 59.9887 62.8172 1.7875
      vertex 61.1437 64.6372 1.7875
      vertex 61.4222 64.7903 1.7875
    endloop
  endfacet
  facet normal 0 0 -1
    outer loop
      vertex 59.9887 62.8172 1.7875
      vertex 61.4222 64.7903 1.7875
      vertex 61.7178 64.9074 1.7875
    endloop
  endfacet
  facet normal 0 0 -1
    outer loop
      vertex 59.9887 62.8172 1.7875
      vertex 61.7178 64.9074 1.7875
      vertex 62.0257 64.9864 1.7875
    endloop
  endfacet
  facet normal 0 0 -1
    outer loop
      vertex 59.9887 62.8172 1.7875
      vertex 62.0257 64.9864 1.7875
      vertex 62.3411 65.0263 1.7875
    endloop
  endfacet
  facet normal 0 0 -1
    outer loop
      vertex 59.9887 62.8172 1.7875
      vertex 62.3411 65.0263 1.7875
      vertex 62.6589 65.0263 1.7875
    endloop
  endfacet
  facet normal 0 0 -1
    outer loop
      vertex 59.9887 62.8172 1.7875
      vertex 62.6589 65.0263 1.7875
      vertex 62.9743 64.9864 1.7875
    endloop
  endfacet
  facet normal 0 0 -1
    outer loop
      vertex 59.9887 62.8172 1.7875
      vertex 62.9743 64.9864 1.7875
      vertex 63.2822 64.9074 1.7875
    endloop
  endfacet
  facet normal 0 0 -1
    outer loop
      vertex 59.9887 62.8172 1.7875
      vertex 63.2822 64.9074 1.7875
      vertex 63.5778 64.7903 1.7875
    endloop
  endfacet
  facet normal 0 0 -1
    outer loop
      vertex 59.9887 62.8172 1.7875
      vertex 63.5778 64.7903 1.7875
      vertex 63.8563 64.6372 1.7875
    endloop
  endfacet
  facet normal 0 0 -1
    outer loop
      vertex 59.9887 62.8172 1.7875
      vertex 63.8563 64.6372 1.7875
      vertex 64.1135 64.4504 1.7875
    endloop
  endfacet
  facet normal 0 0 -1
    outer loop
      vertex 59.9887 62.8172 1.7875
      vertex 64.1135 64.4504 1.7875
      vertex 64.3452 64.2328 1.7875
    endloop
  endfacet
  facet normal 0 0 -1
    outer loop
      vertex 59.9887 62.8172 1.7875
      vertex 64.3452 64.2328 1.7875
      vertex 64.5478 63.9878 1.7875
    endloop
  endfacet
  facet normal 0 0 -1
    outer loop
      vertex 59.9887 62.8172 1.7875
      vertex 64.5478 63.9878 1.7875
      vertex 64.7182 63.7194 1.7875
    endloop
  endfacet
  facet normal 0 0 -1
    outer loop
      vertex 59.9887 62.8172 1.7875
      vertex 64.7182 63.7194 1.7875
      vertex 64.8535 63.4318 1.7875
    endloop
  endfacet
  facet normal 0 0 -1
    outer loop
      vertex 59.9887 62.8172 1.7875
      vertex 64.8535 63.4318 1.7875
      vertex 64.9517 63.1295 1.7875
    endloop
  endfacet
  facet normal 0 0 -1
    outer loop
      vertex 59.9887 62.8172 1.7875
      vertex 64.9517 63.1295 1.7875
      vertex 65.0113 62.8172 1.7875
    endloop
  endfacet
  facet normal 0 0 -1
    outer loop
      vertex 59.9887 62.8172 1.7875
      vertex 65.0113 62.8172 1.7875
      vertex 65.0312 62.5 1.7875
    endloop
  endfacet
  facet normal 0 0 -1
    outer loop
      vertex 59.9887 62.8172 1.7875
      vertex 65.0312 62.5 1.7875
      vertex 65.0113 62.1827 1.7875
    endloop
  endfacet
  facet normal 0 0 -1
    outer loop
      vertex 59.9887 62.8172 1.7875
      vertex 65.0113 62.1827 1.7875
      vertex 64.9517 61.8705 1.7875
    endloop
  endfacet
  facet normal 0 0 -1
    outer loop
      vertex 59.9887 62.8172 1.7875
      vertex 64.9517 61.8705 1.7875
      vertex 64.8535 61.5682 1.7875
    endloop
  endfacet
  facet normal 0 0 -1
    outer loop
      vertex 59.9887 62.8172 1.7875
      vertex 64.8535 61.5682 1.7875
      vertex 64.7182 61.2806 1.7875
    endloop
  endfacet
  facet normal 0 0 -1
    outer loop
      vertex 59.9887 62.8172 1.7875
      vertex 64.7182 61.2806 1.7875
      vertex 64.5478 61.0122 1.7875
    endloop
  endfacet
  facet normal 0 0 -1
    outer loop
      vertex 59.9887 62.8172 1.7875
      vertex 64.5478 61.0122 1.7875
      vertex 64.3452 60.7672 1.7875
    endloop
  endfacet
  facet normal 0 0 -1
    outer loop
      vertex 59.9887 62.8172 1.7875
      vertex 64.3452 60.7672 1.7875
      vertex 64.1135 60.5496 1.7875
    endloop
  endfacet
  facet normal 0 0 -1
    outer loop
      vertex 59.9887 62.8172 1.7875
      vertex 64.1135 60.5496 1.7875
      vertex 63.8563 60.3628 1.7875
    endloop
  endfacet
  facet normal 0 0 -1
    outer loop
      vertex 59.9887 62.8172 1.7875
      vertex 63.8563 60.3628 1.7875
      vertex 63.5778 60.2097 1.7875
    endloop
  endfacet
  facet normal 0 0 -1
    outer loop
      vertex 59.9887 62.8172 1.7875
      vertex 63.5778 60.2097 1.7875
      vertex 63.2822 60.0926 1.7875
    endloop
  endfacet
  facet normal 0 0 -1
    outer loop
      vertex 59.9887 62.8172 1.7875
      vertex 63.2822 60.0926 1.7875
      vertex 62.9743 60.0136 1.7875
    endloop
  endfacet
  facet normal 0 0 -1
    outer loop
      vertex 59.9887 62.8172 1.7875
      vertex 62.9743 60.0136 1.7875
      vertex 62.6589 59.9737 1.7875
    endloop
  endfacet
  facet normal 0 0 -1
    outer loop
      vertex 59.9887 62.8172 1.7875
      vertex 62.6589 59.9737 1.7875
      vertex 62.3411 59.9737 1.7875
    endloop
  endfacet
  facet normal 0 0 -1
    outer loop
      vertex 59.9887 62.8172 1.7875
      vertex 62.3411 59.9737 1.7875
      vertex 62.0257 60.0136 1.7875
    endloop
  endfacet
  facet normal 0 0 -1
    outer loop
      vertex 59.9887 62.8172 1.7875
      vertex 62.0257 60.0136 1.7875
      vertex 61.7178 60.0926 1.7875
    endloop
  endfacet
  facet normal 0 0 -1
    outer loop
      vertex 59.9887 62.8172 1.7875
      vertex 61.7178 60.0926 1.7875
      vertex 61.4222 60.2097 1.7875
    endloop
  endfacet
  facet normal 0 0 -1
    outer loop
      vertex 59.9887 62.8172 1.7875
      vertex 61.4222 60.2097 1.7875
      vertex 61.1437 60.3628 1.7875
    endloop
  endfacet
  facet normal 0 0 -1
    outer loop
      vertex 59.9887 62.8172 1.7875
      vertex 61.1437 60.3628 1.7875
      vertex 60.8865 60.5496 1.7875
    endloop
  endfacet
  facet normal 0 0 -1
    outer loop
      vertex 59.9887 62.8172 1.7875
      vertex 60.8865 60.5496 1.7875
      vertex 60.6548 60.7672 1.7875
    endloop
  endfacet
  facet normal 0 0 -1
    outer loop
      vertex 59.9887 62.8172 1.7875
      vertex 60.6548 60.7672 1.7875
      vertex 60.4522 61.0122 1.7875
    endloop
  endfacet
  facet normal 0 0 -1
    outer loop
      vertex 59.9887 62.8172 1.7875
      vertex 60.4522 61.0122 1.7875
      vertex 60.2818 61.2806 1.7875
    endloop
  endfacet
  facet normal 0 0 -1
    outer loop
      vertex 59.9887 62.8172 1.7875
      vertex 60.2818 61.2806 1.7875
      vertex 60.1465 61.5682 1.7875
    endloop
  endfacet
  facet normal 0 0 -1
    outer loop
      vertex 59.9887 62.8172 1.7875
      vertex 60.1465 61.5682 1.7875
      vertex 60.0483 61.8705 1.7875
    endloop
  endfacet
  facet normal 0 0 -1
    outer loop
      vertex 59.9887 62.8172 1.7875
      vertex 60.0483 61.8705 1.7875
      vertex 59.9887 62.1827 1.7875
    endloop
  endfacet
  facet normal 0 0 -1
    outer loop
      vertex 59.9887 62.8172 1.7875
      vertex 59.9887 62.1827 1.7875
      vertex 59.9688 62.5 1.7875
    endloop
  endfacet
endsolid OpenSCAD_Model
