solid OpenSCAD_Model
  facet normal 0 0 -1
    outer loop
      vertex 7.47684 34.2 0
      vertex 34.2 34.2 0
      vertex 10.8774 33.4772 0
    endloop
  endfacet
  facet normal 0 0 -1
    outer loop
      vertex 10.8774 33.4772 0
      vertex 34.2 34.2 0
      vertex 34.2 25 0
    endloop
  endfacet
  facet normal 0 0 -1
    outer loop
      vertex 34.2 8.02881 0
      vertex 32.1568 14.3171 0
      vertex 34.2 25 0
    endloop
  endfacet
  facet normal 0 0 -1
    outer loop
      vertex 32.1568 14.3171 0
      vertex 28.4774 20.69 0
      vertex 34.2 25 0
    endloop
  endfacet
  facet normal 0 0 -1
    outer loop
      vertex 28.4774 20.69 0
      vertex 23.5534 26.1587 0
      vertex 34.2 25 0
    endloop
  endfacet
  facet normal 0 0 -1
    outer loop
      vertex 23.5534 26.1587 0
      vertex 17.6 30.4841 0
      vertex 34.2 25 0
    endloop
  endfacet
  facet normal 0 0 -1
    outer loop
      vertex 10.8774 33.4772 0
      vertex 34.2 25 0
      vertex 17.6 30.4841 0
    endloop
  endfacet
  facet normal 0 1 0
    outer loop
      vertex 7.47684 34.2 0
      vertex 7.47684 34.2 9.5
      vertex 34.2 34.2 0
    endloop
  endfacet
  facet normal 0 1 0
    outer loop
      vertex 34.2 34.2 0
      vertex 7.47684 34.2 9.5
      vertex 34.2 34.2 9.5
    endloop
  endfacet
  facet normal -0.207912 -0.978148 0
    outer loop
      vertex 10.8774 33.4772 0
      vertex 10.8774 33.4772 9.5
      vertex 7.47684 34.2 9.5
    endloop
  endfacet
  facet normal -0.207912 -0.978148 0
    outer loop
      vertex 7.47684 34.2 0
      vertex 10.8774 33.4772 0
      vertex 7.47684 34.2 9.5
    endloop
  endfacet
  facet normal -0.406737 -0.913545 0
    outer loop
      vertex 17.6 30.4841 0
      vertex 17.6 30.4841 9.5
      vertex 10.8774 33.4772 9.5
    endloop
  endfacet
  facet normal -0.406737 -0.913545 0
    outer loop
      vertex 10.8774 33.4772 0
      vertex 17.6 30.4841 0
      vertex 10.8774 33.4772 9.5
    endloop
  endfacet
  facet normal -0.587785 -0.809017 0
    outer loop
      vertex 23.5534 26.1587 0
      vertex 23.5534 26.1587 9.5
      vertex 17.6 30.4841 9.5
    endloop
  endfacet
  facet normal -0.587785 -0.809017 0
    outer loop
      vertex 17.6 30.4841 0
      vertex 23.5534 26.1587 0
      vertex 17.6 30.4841 9.5
    endloop
  endfacet
  facet normal -0.743145 -0.669131 0
    outer loop
      vertex 28.4774 20.69 9.5
      vertex 25 24.5521 9.5
      vertex 28.4774 20.69 0
    endloop
  endfacet
  facet normal -0.743145 -0.669131 0
    outer loop
      vertex 28.4774 20.69 0
      vertex 25 24.5521 9.5
      vertex 25 24.5521 7.5
    endloop
  endfacet
  facet normal -0.743145 -0.669131 0
    outer loop
      vertex 28.4774 20.69 0
      vertex 25 24.5521 7.5
      vertex 24.5967 25 7.5
    endloop
  endfacet
  facet normal -0.743145 -0.669131 0
    outer loop
      vertex 24.5967 25 7.5
      vertex 24.5967 25 9.5
      vertex 23.5534 26.1587 9.5
    endloop
  endfacet
  facet normal -0.743145 -0.669131 0
    outer loop
      vertex 24.5967 25 7.5
      vertex 23.5534 26.1587 9.5
      vertex 28.4774 20.69 0
    endloop
  endfacet
  facet normal -0.743145 -0.669131 0
    outer loop
      vertex 28.4774 20.69 0
      vertex 23.5534 26.1587 9.5
      vertex 23.5534 26.1587 0
    endloop
  endfacet
  facet normal -0.866025 -0.5 0
    outer loop
      vertex 32.1568 14.3171 9.5
      vertex 28.4774 20.69 9.5
      vertex 32.1568 14.3171 0
    endloop
  endfacet
  facet normal -0.866025 -0.5 0
    outer loop
      vertex 32.1568 14.3171 0
      vertex 28.4774 20.69 9.5
      vertex 28.4774 20.69 0
    endloop
  endfacet
  facet normal -0.951056 -0.309017 0
    outer loop
      vertex 34.2 8.02881 9.5
      vertex 32.1568 14.3171 9.5
      vertex 34.2 8.02881 0
    endloop
  endfacet
  facet normal -0.951056 -0.309017 0
    outer loop
      vertex 34.2 8.02881 0
      vertex 32.1568 14.3171 9.5
      vertex 32.1568 14.3171 0
    endloop
  endfacet
  facet normal 1 0 0
    outer loop
      vertex 34.2 8.02881 9.5
      vertex 34.2 8.02881 0
      vertex 34.2 25 0
    endloop
  endfacet
  facet normal 1 0 0
    outer loop
      vertex 34.2 25 9.5
      vertex 34.2 8.02881 9.5
      vertex 34.2 25 0
    endloop
  endfacet
  facet normal 1 0 0
    outer loop
      vertex 34.2 25 9.5
      vertex 34.2 25 0
      vertex 34.2 34.2 0
    endloop
  endfacet
  facet normal 1 0 0
    outer loop
      vertex 34.2 34.2 9.5
      vertex 34.2 25 9.5
      vertex 34.2 34.2 0
    endloop
  endfacet
  facet normal 0 0 1
    outer loop
      vertex 23.5534 26.1587 9.5
      vertex 24.5967 25 9.5
      vertex 34.2 34.2 9.5
    endloop
  endfacet
  facet normal 0 0 1
    outer loop
      vertex 34.2 34.2 9.5
      vertex 7.47684 34.2 9.5
      vertex 10.8774 33.4772 9.5
    endloop
  endfacet
  facet normal 0 0 1
    outer loop
      vertex 25 25 9.5
      vertex 25 24.5521 9.5
      vertex 34.2 34.2 9.5
    endloop
  endfacet
  facet normal 0 0 1
    outer loop
      vertex 17.6 30.4841 9.5
      vertex 34.2 34.2 9.5
      vertex 10.8774 33.4772 9.5
    endloop
  endfacet
  facet normal 0 0 1
    outer loop
      vertex 17.6 30.4841 9.5
      vertex 23.5534 26.1587 9.5
      vertex 34.2 34.2 9.5
    endloop
  endfacet
  facet normal 0 0 1
    outer loop
      vertex 24.5967 25 9.5
      vertex 25 25 9.5
      vertex 34.2 34.2 9.5
    endloop
  endfacet
  facet normal 0 0 1
    outer loop
      vertex 28.4774 20.69 9.5
      vertex 32.1568 14.3171 9.5
      vertex 34.2 34.2 9.5
    endloop
  endfacet
  facet normal 0 0 1
    outer loop
      vertex 25 24.5521 9.5
      vertex 28.4774 20.69 9.5
      vertex 34.2 34.2 9.5
    endloop
  endfacet
  facet normal 0 0 1
    outer loop
      vertex 32.1568 14.3171 9.5
      vertex 34.2 25 9.5
      vertex 34.2 34.2 9.5
    endloop
  endfacet
  facet normal 0 0 1
    outer loop
      vertex 32.1568 14.3171 9.5
      vertex 34.2 8.02881 9.5
      vertex 34.2 25 9.5
    endloop
  endfacet
  facet normal 0 -1 0
    outer loop
      vertex 25 25 7.5
      vertex 25 25 9.5
      vertex 24.5967 25 9.5
    endloop
  endfacet
  facet normal 0 -1 0
    outer loop
      vertex 24.5967 25 7.5
      vertex 25 25 7.5
      vertex 24.5967 25 9.5
    endloop
  endfacet
  facet normal 0 0 1
    outer loop
      vertex 25 25 7.5
      vertex 24.5967 25 7.5
      vertex 25 24.5521 7.5
    endloop
  endfacet
  facet normal -1 0 0
    outer loop
      vertex 25 25 9.5
      vertex 25 25 7.5
      vertex 25 24.5521 9.5
    endloop
  endfacet
  facet normal -1 0 0
    outer loop
      vertex 25 24.5521 9.5
      vertex 25 25 7.5
      vertex 25 24.5521 7.5
    endloop
  endfacet
endsolid OpenSCAD_Model
