solid OpenSCAD_Model
  facet normal 0 0 -1
    outer loop
      vertex 8.02549 84.2 0
      vertex 59.2 84.2 0
      vertex 18.5111 81.03 0
    endloop
  endfacet
  facet normal 0 0 -1
    outer loop
      vertex 18.5111 81.03 0
      vertex 59.2 84.2 0
      vertex 59.2 75 0
    endloop
  endfacet
  facet normal 0 0 -1
    outer loop
      vertex 59.2 75 0
      vertex 59.2 9.51437 0
      vertex 58.5941 17.7141 0
    endloop
  endfacet
  facet normal 0 0 -1
    outer loop
      vertex 59.2 75 0
      vertex 58.5941 17.7141 0
      vertex 54.7242 34.654 0
    endloop
  endfacet
  facet normal 0 0 -1
    outer loop
      vertex 59.2 75 0
      vertex 54.7242 34.654 0
      vertex 48.4626 50.0793 0
    endloop
  endfacet
  facet normal 0 0 -1
    outer loop
      vertex 59.2 75 0
      vertex 48.4626 50.0793 0
      vertex 47.6 51.4419 0
    endloop
  endfacet
  facet normal 0 0 -1
    outer loop
      vertex 59.2 75 0
      vertex 47.6 51.4419 0
      vertex 47.6 72.6 0
    endloop
  endfacet
  facet normal 0 0 -1
    outer loop
      vertex 59.2 75 0
      vertex 47.6 72.6 0
      vertex 18.5111 81.03 0
    endloop
  endfacet
  facet normal 0 0 -1
    outer loop
      vertex 47.6 72.6 0
      vertex 31.0986 72.6 0
      vertex 29.9515 73.7854 0
    endloop
  endfacet
  facet normal 0 0 -1
    outer loop
      vertex 47.6 72.6 0
      vertex 29.9515 73.7854 0
      vertex 18.5111 81.03 0
    endloop
  endfacet
  facet normal 0 1 0
    outer loop
      vertex 8.02549 84.2 0
      vertex 8.02549 84.2 9.5
      vertex 59.2 84.2 0
    endloop
  endfacet
  facet normal 0 1 0
    outer loop
      vertex 59.2 84.2 0
      vertex 8.02549 84.2 9.5
      vertex 59.2 84.2 9.5
    endloop
  endfacet
  facet normal -0.289383 -0.957213 0
    outer loop
      vertex 18.5111 81.03 0
      vertex 18.5111 81.03 9.5
      vertex 8.02549 84.2 9.5
    endloop
  endfacet
  facet normal -0.289383 -0.957213 0
    outer loop
      vertex 8.02549 84.2 0
      vertex 18.5111 81.03 0
      vertex 8.02549 84.2 9.5
    endloop
  endfacet
  facet normal -0.535 -0.844852 0
    outer loop
      vertex 29.9515 73.7854 0
      vertex 29.9515 73.7854 9.5
      vertex 28.5467 74.675 9.5
    endloop
  endfacet
  facet normal -0.535 -0.844852 0
    outer loop
      vertex 28.0334 75 7.5
      vertex 29.9515 73.7854 0
      vertex 28.5467 74.675 7.5
    endloop
  endfacet
  facet normal -0.535 -0.844852 0
    outer loop
      vertex 28.5467 74.675 7.5
      vertex 29.9515 73.7854 0
      vertex 28.5467 74.675 9.5
    endloop
  endfacet
  facet normal -0.535 -0.844852 0
    outer loop
      vertex 18.5111 81.03 9.5
      vertex 29.9515 73.7854 0
      vertex 28.0334 75 7.5
    endloop
  endfacet
  facet normal -0.535 -0.844852 0
    outer loop
      vertex 18.5111 81.03 9.5
      vertex 28.0334 75 7.5
      vertex 28.0334 75 9.5
    endloop
  endfacet
  facet normal -0.535 -0.844852 0
    outer loop
      vertex 18.5111 81.03 0
      vertex 29.9515 73.7854 0
      vertex 18.5111 81.03 9.5
    endloop
  endfacet
  facet normal -0.718611 -0.695412 0
    outer loop
      vertex 40.083 63.3159 0
      vertex 32.4534 71.2 2.2
      vertex 32.4534 71.2 0
    endloop
  endfacet
  facet normal -0.718611 -0.695412 0
    outer loop
      vertex 40.083 63.3159 9.5
      vertex 32.4534 71.2 2.2
      vertex 40.083 63.3159 0
    endloop
  endfacet
  facet normal -0.718611 -0.695412 0
    outer loop
      vertex 31.0986 72.6 2.2
      vertex 32.4534 71.2 2.2
      vertex 40.083 63.3159 9.5
    endloop
  endfacet
  facet normal -0.718611 -0.695412 0
    outer loop
      vertex 31.0986 72.6 2.2
      vertex 40.083 63.3159 9.5
      vertex 29.9515 73.7854 9.5
    endloop
  endfacet
  facet normal -0.718611 -0.695412 0
    outer loop
      vertex 31.0986 72.6 2.2
      vertex 29.9515 73.7854 9.5
      vertex 31.0986 72.6 0
    endloop
  endfacet
  facet normal -0.718611 -0.695412 0
    outer loop
      vertex 29.9515 73.7854 9.5
      vertex 29.9515 73.7854 0
      vertex 31.0986 72.6 0
    endloop
  endfacet
  facet normal 0 -1 0
    outer loop
      vertex 47.6 72.6 0
      vertex 47.6 72.6 2.2
      vertex 31.0986 72.6 2.2
    endloop
  endfacet
  facet normal 0 -1 0
    outer loop
      vertex 31.0986 72.6 0
      vertex 47.6 72.6 0
      vertex 31.0986 72.6 2.2
    endloop
  endfacet
  facet normal -1 0 0
    outer loop
      vertex 47.6 72.6 2.2
      vertex 47.6 72.6 0
      vertex 47.6 51.4419 2.2
    endloop
  endfacet
  facet normal -1 0 0
    outer loop
      vertex 47.6 51.4419 2.2
      vertex 47.6 72.6 0
      vertex 47.6 51.4419 0
    endloop
  endfacet
  facet normal -0.844922 -0.534889 0
    outer loop
      vertex 48.4626 50.0793 0
      vertex 47.6 51.4419 2.2
      vertex 47.6 51.4419 0
    endloop
  endfacet
  facet normal -0.844922 -0.534889 0
    outer loop
      vertex 48.4626 50.0793 7.5
      vertex 47.6 51.4419 2.2
      vertex 48.4626 50.0793 0
    endloop
  endfacet
  facet normal -0.844922 -0.534889 0
    outer loop
      vertex 46.2 53.6534 2.2
      vertex 47.6 51.4419 2.2
      vertex 48.4626 50.0793 7.5
    endloop
  endfacet
  facet normal -0.844922 -0.534889 0
    outer loop
      vertex 46.2 53.6534 2.2
      vertex 48.4626 50.0793 7.5
      vertex 48.3071 50.325 7.5
    endloop
  endfacet
  facet normal -0.844922 -0.534889 0
    outer loop
      vertex 46.2 53.6534 2.2
      vertex 48.3071 50.325 7.5
      vertex 48.3071 50.325 9.5
    endloop
  endfacet
  facet normal -0.844922 -0.534889 0
    outer loop
      vertex 46.2 53.6534 2.2
      vertex 48.3071 50.325 9.5
      vertex 40.083 63.3159 9.5
    endloop
  endfacet
  facet normal -0.844922 -0.534889 0
    outer loop
      vertex 46.2 53.6534 2.2
      vertex 40.083 63.3159 9.5
      vertex 46.2 53.6534 0
    endloop
  endfacet
  facet normal -0.844922 -0.534889 0
    outer loop
      vertex 40.083 63.3159 9.5
      vertex 40.083 63.3159 0
      vertex 46.2 53.6534 0
    endloop
  endfacet
  facet normal -0.926571 -0.376121 0
    outer loop
      vertex 54.7242 34.654 9.5
      vertex 50 46.292 9.5
      vertex 54.7242 34.654 0
    endloop
  endfacet
  facet normal -0.926571 -0.376121 0
    outer loop
      vertex 54.7242 34.654 0
      vertex 50 46.292 9.5
      vertex 50 46.292 7.5
    endloop
  endfacet
  facet normal -0.926571 -0.376121 0
    outer loop
      vertex 54.7242 34.654 0
      vertex 50 46.292 7.5
      vertex 49.675 47.0926 7.5
    endloop
  endfacet
  facet normal -0.926571 -0.376121 0
    outer loop
      vertex 49.675 47.0926 7.5
      vertex 49.675 47.0926 9.5
      vertex 48.6267 49.675 9.5
    endloop
  endfacet
  facet normal -0.926571 -0.376121 0
    outer loop
      vertex 49.675 47.0926 7.5
      vertex 48.6267 49.675 9.5
      vertex 48.6267 49.675 7.5
    endloop
  endfacet
  facet normal -0.926571 -0.376121 0
    outer loop
      vertex 49.675 47.0926 7.5
      vertex 48.6267 49.675 7.5
      vertex 54.7242 34.654 0
    endloop
  endfacet
  facet normal -0.926571 -0.376121 0
    outer loop
      vertex 48.6267 49.675 7.5
      vertex 48.4626 50.0793 7.5
      vertex 54.7242 34.654 0
    endloop
  endfacet
  facet normal -0.926571 -0.376121 0
    outer loop
      vertex 54.7242 34.654 0
      vertex 48.4626 50.0793 7.5
      vertex 48.4626 50.0793 0
    endloop
  endfacet
  facet normal -0.974885 -0.22271 0
    outer loop
      vertex 58.5941 17.7141 9.5
      vertex 54.7242 34.654 9.5
      vertex 58.5941 17.7141 0
    endloop
  endfacet
  facet normal -0.974885 -0.22271 0
    outer loop
      vertex 58.5941 17.7141 0
      vertex 54.7242 34.654 9.5
      vertex 54.7242 34.654 0
    endloop
  endfacet
  facet normal -0.997281 -0.0736965 0
    outer loop
      vertex 59.2 9.51437 9.5
      vertex 58.5941 17.7141 9.5
      vertex 59.2 9.51437 0
    endloop
  endfacet
  facet normal -0.997281 -0.0736965 0
    outer loop
      vertex 59.2 9.51437 0
      vertex 58.5941 17.7141 9.5
      vertex 58.5941 17.7141 0
    endloop
  endfacet
  facet normal 1 0 0
    outer loop
      vertex 59.2 9.51437 9.5
      vertex 59.2 9.51437 0
      vertex 59.2 75 0
    endloop
  endfacet
  facet normal 1 0 0
    outer loop
      vertex 59.2 75 9.5
      vertex 59.2 9.51437 9.5
      vertex 59.2 75 0
    endloop
  endfacet
  facet normal 1 0 0
    outer loop
      vertex 59.2 75 9.5
      vertex 59.2 75 0
      vertex 59.2 84.2 0
    endloop
  endfacet
  facet normal 1 0 0
    outer loop
      vertex 59.2 84.2 9.5
      vertex 59.2 75 9.5
      vertex 59.2 84.2 0
    endloop
  endfacet
  facet normal 0 0 1
    outer loop
      vertex 50 75 9.5
      vertex 50 46.292 9.5
      vertex 59.2 84.2 9.5
    endloop
  endfacet
  facet normal 0 0 1
    outer loop
      vertex 59.2 84.2 9.5
      vertex 8.02549 84.2 9.5
      vertex 18.5111 81.03 9.5
    endloop
  endfacet
  facet normal 0 0 1
    outer loop
      vertex 28.0334 75 9.5
      vertex 59.2 84.2 9.5
      vertex 18.5111 81.03 9.5
    endloop
  endfacet
  facet normal 0 0 1
    outer loop
      vertex 28.0334 75 9.5
      vertex 50 75 9.5
      vertex 59.2 84.2 9.5
    endloop
  endfacet
  facet normal 0 0 1
    outer loop
      vertex 54.7242 34.654 9.5
      vertex 58.5941 17.7141 9.5
      vertex 59.2 84.2 9.5
    endloop
  endfacet
  facet normal 0 0 1
    outer loop
      vertex 50 46.292 9.5
      vertex 54.7242 34.654 9.5
      vertex 59.2 84.2 9.5
    endloop
  endfacet
  facet normal 0 0 1
    outer loop
      vertex 58.5941 17.7141 9.5
      vertex 59.2 75 9.5
      vertex 59.2 84.2 9.5
    endloop
  endfacet
  facet normal 0 0 1
    outer loop
      vertex 58.5941 17.7141 9.5
      vertex 59.2 9.51437 9.5
      vertex 59.2 75 9.5
    endloop
  endfacet
  facet normal 0 -1 0
    outer loop
      vertex 50 75 7.5
      vertex 50 75 9.5
      vertex 28.0334 75 9.5
    endloop
  endfacet
  facet normal 0 -1 0
    outer loop
      vertex 28.0334 75 7.5
      vertex 50 75 7.5
      vertex 28.0334 75 9.5
    endloop
  endfacet
  facet normal 0 0 1
    outer loop
      vertex 48.3071 50.325 7.5
      vertex 48.4626 50.0793 7.5
      vertex 49.675 50.325 7.5
    endloop
  endfacet
  facet normal 0 0 1
    outer loop
      vertex 50 75 7.5
      vertex 28.0334 75 7.5
      vertex 28.5467 74.675 7.5
    endloop
  endfacet
  facet normal 0 0 1
    outer loop
      vertex 49.675 50.325 7.5
      vertex 50 75 7.5
      vertex 49.675 74.675 7.5
    endloop
  endfacet
  facet normal 0 0 1
    outer loop
      vertex 49.675 74.675 7.5
      vertex 50 75 7.5
      vertex 28.5467 74.675 7.5
    endloop
  endfacet
  facet normal 0 0 1
    outer loop
      vertex 49.675 49.675 7.5
      vertex 50 75 7.5
      vertex 49.675 50.325 7.5
    endloop
  endfacet
  facet normal 0 0 1
    outer loop
      vertex 48.4626 50.0793 7.5
      vertex 48.6267 49.675 7.5
      vertex 49.675 50.325 7.5
    endloop
  endfacet
  facet normal 0 0 1
    outer loop
      vertex 48.6267 49.675 7.5
      vertex 49.675 49.675 7.5
      vertex 49.675 50.325 7.5
    endloop
  endfacet
  facet normal 0 0 1
    outer loop
      vertex 49.675 49.675 7.5
      vertex 49.675 47.0926 7.5
      vertex 50 75 7.5
    endloop
  endfacet
  facet normal 0 0 1
    outer loop
      vertex 49.675 47.0926 7.5
      vertex 50 46.292 7.5
      vertex 50 75 7.5
    endloop
  endfacet
  facet normal 0 1 0
    outer loop
      vertex 28.5467 74.675 7.5
      vertex 28.5467 74.675 9.5
      vertex 49.675 74.675 7.5
    endloop
  endfacet
  facet normal 0 1 0
    outer loop
      vertex 49.675 74.675 7.5
      vertex 28.5467 74.675 9.5
      vertex 49.675 74.675 9.5
    endloop
  endfacet
  facet normal 0 0 1
    outer loop
      vertex 49.675 74.675 9.5
      vertex 28.5467 74.675 9.5
      vertex 29.9515 73.7854 9.5
    endloop
  endfacet
  facet normal 0 0 1
    outer loop
      vertex 40.083 63.3159 9.5
      vertex 49.675 74.675 9.5
      vertex 29.9515 73.7854 9.5
    endloop
  endfacet
  facet normal 0 0 1
    outer loop
      vertex 40.083 63.3159 9.5
      vertex 48.3071 50.325 9.5
      vertex 49.675 74.675 9.5
    endloop
  endfacet
  facet normal 0 0 1
    outer loop
      vertex 48.3071 50.325 9.5
      vertex 49.675 50.325 9.5
      vertex 49.675 74.675 9.5
    endloop
  endfacet
  facet normal 0 0 -1
    outer loop
      vertex 32.4534 71.2 0
      vertex 46.2 71.2 0
      vertex 40.083 63.3159 0
    endloop
  endfacet
  facet normal 0 0 -1
    outer loop
      vertex 40.083 63.3159 0
      vertex 46.2 71.2 0
      vertex 46.2 53.6534 0
    endloop
  endfacet
  facet normal 0 1 0
    outer loop
      vertex 32.4534 71.2 0
      vertex 32.4534 71.2 2.2
      vertex 46.2 71.2 0
    endloop
  endfacet
  facet normal 0 1 0
    outer loop
      vertex 46.2 71.2 0
      vertex 32.4534 71.2 2.2
      vertex 46.2 71.2 2.2
    endloop
  endfacet
  facet normal 0 0 -1
    outer loop
      vertex 47.6 51.4419 2.2
      vertex 46.2 53.6534 2.2
      vertex 47.6 72.6 2.2
    endloop
  endfacet
  facet normal 0 0 -1
    outer loop
      vertex 47.6 72.6 2.2
      vertex 46.2 53.6534 2.2
      vertex 46.2 71.2 2.2
    endloop
  endfacet
  facet normal 0 0 -1
    outer loop
      vertex 47.6 72.6 2.2
      vertex 46.2 71.2 2.2
      vertex 32.4534 71.2 2.2
    endloop
  endfacet
  facet normal 0 0 -1
    outer loop
      vertex 32.4534 71.2 2.2
      vertex 31.0986 72.6 2.2
      vertex 47.6 72.6 2.2
    endloop
  endfacet
  facet normal 1 0 0
    outer loop
      vertex 46.2 53.6534 2.2
      vertex 46.2 53.6534 0
      vertex 46.2 71.2 0
    endloop
  endfacet
  facet normal 1 0 0
    outer loop
      vertex 46.2 71.2 2.2
      vertex 46.2 53.6534 2.2
      vertex 46.2 71.2 0
    endloop
  endfacet
  facet normal 0 -1 0
    outer loop
      vertex 48.3071 50.325 9.5
      vertex 48.3071 50.325 7.5
      vertex 49.675 50.325 7.5
    endloop
  endfacet
  facet normal 0 -1 0
    outer loop
      vertex 49.675 50.325 9.5
      vertex 48.3071 50.325 9.5
      vertex 49.675 50.325 7.5
    endloop
  endfacet
  facet normal 0 1 0
    outer loop
      vertex 48.6267 49.675 7.5
      vertex 48.6267 49.675 9.5
      vertex 49.675 49.675 7.5
    endloop
  endfacet
  facet normal 0 1 0
    outer loop
      vertex 49.675 49.675 7.5
      vertex 48.6267 49.675 9.5
      vertex 49.675 49.675 9.5
    endloop
  endfacet
  facet normal 0 0 1
    outer loop
      vertex 49.675 49.675 9.5
      vertex 48.6267 49.675 9.5
      vertex 49.675 47.0926 9.5
    endloop
  endfacet
  facet normal 1 0 0
    outer loop
      vertex 49.675 47.0926 9.5
      vertex 49.675 47.0926 7.5
      vertex 49.675 49.675 7.5
    endloop
  endfacet
  facet normal 1 0 0
    outer loop
      vertex 49.675 49.675 9.5
      vertex 49.675 47.0926 9.5
      vertex 49.675 49.675 7.5
    endloop
  endfacet
  facet normal -1 0 0
    outer loop
      vertex 50 75 9.5
      vertex 50 75 7.5
      vertex 50 46.292 9.5
    endloop
  endfacet
  facet normal -1 0 0
    outer loop
      vertex 50 46.292 9.5
      vertex 50 75 7.5
      vertex 50 46.292 7.5
    endloop
  endfacet
  facet normal 1 0 0
    outer loop
      vertex 49.675 50.325 9.5
      vertex 49.675 50.325 7.5
      vertex 49.675 74.675 7.5
    endloop
  endfacet
  facet normal 1 0 0
    outer loop
      vertex 49.675 74.675 9.5
      vertex 49.675 50.325 9.5
      vertex 49.675 74.675 7.5
    endloop
  endfacet
endsolid OpenSCAD_Model
