solid OpenSCAD_Model
  facet normal 0 1 0
    outer loop
      vertex 17.4236 59.2 0
      vertex 17.4236 59.2 9.5
      vertex 109.2 59.2 0
    endloop
  endfacet
  facet normal 0 1 0
    outer loop
      vertex 109.2 59.2 0
      vertex 17.4236 59.2 9.5
      vertex 109.2 59.2 9.5
    endloop
  endfacet
  facet normal -0.114475 -0.993426 0
    outer loop
      vertex 34.3147 57.2536 0
      vertex 34.3147 57.2536 9.5
      vertex 17.4236 59.2 9.5
    endloop
  endfacet
  facet normal -0.114475 -0.993426 0
    outer loop
      vertex 17.4236 59.2 0
      vertex 34.3147 57.2536 0
      vertex 17.4236 59.2 9.5
    endloop
  endfacet
  facet normal 0 0 -1
    outer loop
      vertex 17.4236 59.2 0
      vertex 109.2 59.2 0
      vertex 34.3147 57.2536 0
    endloop
  endfacet
  facet normal 0 0 -1
    outer loop
      vertex 34.3147 57.2536 0
      vertex 109.2 59.2 0
      vertex 109.2 50 0
    endloop
  endfacet
  facet normal 0 0 -1
    outer loop
      vertex 109.2 50 0
      vertex 109.2 9.51437 0
      vertex 108.618 12.5163 0
    endloop
  endfacet
  facet normal 0 0 -1
    outer loop
      vertex 109.2 50 0
      vertex 108.618 12.5163 0
      vertex 101.444 24.4855 0
    endloop
  endfacet
  facet normal 0 0 -1
    outer loop
      vertex 109.2 50 0
      vertex 101.444 24.4855 0
      vertex 97.6 28.0953 0
    endloop
  endfacet
  facet normal 0 0 -1
    outer loop
      vertex 109.2 50 0
      vertex 97.6 28.0953 0
      vertex 97.6 47.6 0
    endloop
  endfacet
  facet normal 0 0 -1
    outer loop
      vertex 109.2 50 0
      vertex 97.6 47.6 0
      vertex 34.3147 57.2536 0
    endloop
  endfacet
  facet normal 0 0 -1
    outer loop
      vertex 97.6 47.6 0
      vertex 67.0354 47.6 0
      vertex 55.5223 52.1347 0
    endloop
  endfacet
  facet normal 0 0 -1
    outer loop
      vertex 97.6 47.6 0
      vertex 55.5223 52.1347 0
      vertex 34.3147 57.2536 0
    endloop
  endfacet
  facet normal 1 0 0
    outer loop
      vertex 109.2 50 9.5
      vertex 109.2 50 0
      vertex 109.2 59.2 0
    endloop
  endfacet
  facet normal 1 0 0
    outer loop
      vertex 109.2 59.2 9.5
      vertex 109.2 50 9.5
      vertex 109.2 59.2 0
    endloop
  endfacet
  facet normal 0 0 1
    outer loop
      vertex 100 50 9.5
      vertex 100 25.8417 9.5
      vertex 109.2 59.2 9.5
    endloop
  endfacet
  facet normal 0 0 1
    outer loop
      vertex 109.2 59.2 9.5
      vertex 17.4236 59.2 9.5
      vertex 34.3147 57.2536 9.5
    endloop
  endfacet
  facet normal 0 0 1
    outer loop
      vertex 55.5223 52.1347 9.5
      vertex 109.2 59.2 9.5
      vertex 34.3147 57.2536 9.5
    endloop
  endfacet
  facet normal 0 0 1
    outer loop
      vertex 55.5223 52.1347 9.5
      vertex 60.9421 50 9.5
      vertex 109.2 59.2 9.5
    endloop
  endfacet
  facet normal 0 0 1
    outer loop
      vertex 60.9421 50 9.5
      vertex 100 50 9.5
      vertex 109.2 59.2 9.5
    endloop
  endfacet
  facet normal 0 0 1
    outer loop
      vertex 101.444 24.4855 9.5
      vertex 108.618 12.5163 9.5
      vertex 109.2 59.2 9.5
    endloop
  endfacet
  facet normal 0 0 1
    outer loop
      vertex 100 25.8417 9.5
      vertex 101.444 24.4855 9.5
      vertex 109.2 59.2 9.5
    endloop
  endfacet
  facet normal 0 0 1
    outer loop
      vertex 108.618 12.5163 9.5
      vertex 109.2 50 9.5
      vertex 109.2 59.2 9.5
    endloop
  endfacet
  facet normal 0 0 1
    outer loop
      vertex 108.618 12.5163 9.5
      vertex 109.2 9.51437 9.5
      vertex 109.2 50 9.5
    endloop
  endfacet
  facet normal -0.234631 -0.972084 0
    outer loop
      vertex 55.5223 52.1347 0
      vertex 55.5223 52.1347 9.5
      vertex 34.3147 57.2536 9.5
    endloop
  endfacet
  facet normal -0.234631 -0.972084 0
    outer loop
      vertex 34.3147 57.2536 0
      vertex 55.5223 52.1347 0
      vertex 34.3147 57.2536 9.5
    endloop
  endfacet
  facet normal -0.366474 -0.930428 0
    outer loop
      vertex 74.3033 44.7373 9.5
      vertex 67.0354 47.6 2.2
      vertex 70.5898 46.2 2.2
    endloop
  endfacet
  facet normal -0.366474 -0.930428 0
    outer loop
      vertex 61.7672 49.675 7.5
      vertex 60.9421 50 7.5
      vertex 67.0354 47.6 0
    endloop
  endfacet
  facet normal -0.366474 -0.930428 0
    outer loop
      vertex 67.0354 47.6 0
      vertex 67.0354 47.6 2.2
      vertex 61.7672 49.675 9.5
    endloop
  endfacet
  facet normal -0.366474 -0.930428 0
    outer loop
      vertex 70.5898 46.2 0
      vertex 74.3033 44.7373 0
      vertex 70.5898 46.2 2.2
    endloop
  endfacet
  facet normal -0.366474 -0.930428 0
    outer loop
      vertex 74.3033 44.7373 0
      vertex 74.3033 44.7373 9.5
      vertex 70.5898 46.2 2.2
    endloop
  endfacet
  facet normal -0.366474 -0.930428 0
    outer loop
      vertex 74.3033 44.7373 9.5
      vertex 61.7672 49.675 9.5
      vertex 67.0354 47.6 2.2
    endloop
  endfacet
  facet normal -0.366474 -0.930428 0
    outer loop
      vertex 61.7672 49.675 9.5
      vertex 61.7672 49.675 7.5
      vertex 67.0354 47.6 0
    endloop
  endfacet
  facet normal -0.366474 -0.930428 0
    outer loop
      vertex 60.9421 50 7.5
      vertex 55.5223 52.1347 9.5
      vertex 67.0354 47.6 0
    endloop
  endfacet
  facet normal -0.366474 -0.930428 0
    outer loop
      vertex 60.9421 50 9.5
      vertex 55.5223 52.1347 9.5
      vertex 60.9421 50 7.5
    endloop
  endfacet
  facet normal -0.366474 -0.930428 0
    outer loop
      vertex 55.5223 52.1347 9.5
      vertex 55.5223 52.1347 0
      vertex 67.0354 47.6 0
    endloop
  endfacet
  facet normal 0 -1 0
    outer loop
      vertex 97.6 47.6 0
      vertex 97.6 47.6 2.2
      vertex 67.0354 47.6 2.2
    endloop
  endfacet
  facet normal 0 -1 0
    outer loop
      vertex 67.0354 47.6 0
      vertex 97.6 47.6 0
      vertex 67.0354 47.6 2.2
    endloop
  endfacet
  facet normal -1 0 0
    outer loop
      vertex 97.6 47.6 2.2
      vertex 97.6 47.6 0
      vertex 97.6 28.0953 2.2
    endloop
  endfacet
  facet normal -1 0 0
    outer loop
      vertex 97.6 28.0953 2.2
      vertex 97.6 47.6 0
      vertex 97.6 28.0953 0
    endloop
  endfacet
  facet normal -0.684518 -0.728996 0
    outer loop
      vertex 101.444 24.4855 9.5
      vertex 96.2 29.4099 2.2
      vertex 97.6 28.0953 2.2
    endloop
  endfacet
  facet normal -0.684518 -0.728996 0
    outer loop
      vertex 96.2 29.4099 0
      vertex 96.2 29.4099 2.2
      vertex 89.837 35.3847 9.5
    endloop
  endfacet
  facet normal -0.684518 -0.728996 0
    outer loop
      vertex 97.6 28.0953 0
      vertex 101.444 24.4855 0
      vertex 97.6 28.0953 2.2
    endloop
  endfacet
  facet normal -0.684518 -0.728996 0
    outer loop
      vertex 101.444 24.4855 0
      vertex 101.444 24.4855 9.5
      vertex 97.6 28.0953 2.2
    endloop
  endfacet
  facet normal -0.684518 -0.728996 0
    outer loop
      vertex 101.444 24.4855 9.5
      vertex 100 25.8417 7.5
      vertex 96.2 29.4099 2.2
    endloop
  endfacet
  facet normal -0.684518 -0.728996 0
    outer loop
      vertex 101.444 24.4855 9.5
      vertex 100 25.8417 9.5
      vertex 100 25.8417 7.5
    endloop
  endfacet
  facet normal -0.684518 -0.728996 0
    outer loop
      vertex 100 25.8417 7.5
      vertex 99.675 26.1469 7.5
      vertex 96.2 29.4099 2.2
    endloop
  endfacet
  facet normal -0.684518 -0.728996 0
    outer loop
      vertex 99.675 26.1469 9.5
      vertex 89.837 35.3847 9.5
      vertex 96.2 29.4099 2.2
    endloop
  endfacet
  facet normal -0.684518 -0.728996 0
    outer loop
      vertex 89.837 35.3847 9.5
      vertex 89.837 35.3847 0
      vertex 96.2 29.4099 0
    endloop
  endfacet
  facet normal -0.684518 -0.728996 0
    outer loop
      vertex 99.675 26.1469 7.5
      vertex 99.675 26.1469 9.5
      vertex 96.2 29.4099 2.2
    endloop
  endfacet
  facet normal -0.857741 -0.514083 0
    outer loop
      vertex 108.618 12.5163 9.5
      vertex 101.444 24.4855 9.5
      vertex 108.618 12.5163 0
    endloop
  endfacet
  facet normal -0.857741 -0.514083 0
    outer loop
      vertex 108.618 12.5163 0
      vertex 101.444 24.4855 9.5
      vertex 101.444 24.4855 0
    endloop
  endfacet
  facet normal -0.98172 -0.190331 0
    outer loop
      vertex 109.2 9.51437 9.5
      vertex 108.618 12.5163 9.5
      vertex 109.2 9.51437 0
    endloop
  endfacet
  facet normal -0.98172 -0.190331 0
    outer loop
      vertex 109.2 9.51437 0
      vertex 108.618 12.5163 9.5
      vertex 108.618 12.5163 0
    endloop
  endfacet
  facet normal 1 0 0
    outer loop
      vertex 109.2 9.51437 9.5
      vertex 109.2 9.51437 0
      vertex 109.2 50 0
    endloop
  endfacet
  facet normal 1 0 0
    outer loop
      vertex 109.2 50 9.5
      vertex 109.2 9.51437 9.5
      vertex 109.2 50 0
    endloop
  endfacet
  facet normal -1 0 0
    outer loop
      vertex 100 50 9.5
      vertex 100 50 7.5
      vertex 100 25.8417 9.5
    endloop
  endfacet
  facet normal -1 0 0
    outer loop
      vertex 100 25.8417 9.5
      vertex 100 50 7.5
      vertex 100 25.8417 7.5
    endloop
  endfacet
  facet normal 0 -1 0
    outer loop
      vertex 100 50 7.5
      vertex 100 50 9.5
      vertex 60.9421 50 9.5
    endloop
  endfacet
  facet normal 0 -1 0
    outer loop
      vertex 60.9421 50 7.5
      vertex 100 50 7.5
      vertex 60.9421 50 9.5
    endloop
  endfacet
  facet normal 0 0 1
    outer loop
      vertex 99.675 49.675 7.5
      vertex 99.675 26.1469 7.5
      vertex 100 50 7.5
    endloop
  endfacet
  facet normal 0 0 1
    outer loop
      vertex 100 50 7.5
      vertex 60.9421 50 7.5
      vertex 61.7672 49.675 7.5
    endloop
  endfacet
  facet normal 0 0 1
    outer loop
      vertex 75.325 49.675 7.5
      vertex 100 50 7.5
      vertex 74.675 49.675 7.5
    endloop
  endfacet
  facet normal 0 0 1
    outer loop
      vertex 74.675 49.675 7.5
      vertex 100 50 7.5
      vertex 61.7672 49.675 7.5
    endloop
  endfacet
  facet normal 0 0 1
    outer loop
      vertex 75.325 49.675 7.5
      vertex 99.675 49.675 7.5
      vertex 100 50 7.5
    endloop
  endfacet
  facet normal 0 0 1
    outer loop
      vertex 74.675 44.5135 7.5
      vertex 75.325 49.675 7.5
      vertex 74.675 49.675 7.5
    endloop
  endfacet
  facet normal 0 0 1
    outer loop
      vertex 99.675 26.1469 7.5
      vertex 100 25.8417 7.5
      vertex 100 50 7.5
    endloop
  endfacet
  facet normal 0 0 1
    outer loop
      vertex 75.325 44.1222 7.5
      vertex 75.325 49.675 7.5
      vertex 74.675 44.5135 7.5
    endloop
  endfacet
  facet normal 0 1 0
    outer loop
      vertex 61.7672 49.675 7.5
      vertex 61.7672 49.675 9.5
      vertex 74.675 49.675 7.5
    endloop
  endfacet
  facet normal 0 1 0
    outer loop
      vertex 74.675 49.675 7.5
      vertex 61.7672 49.675 9.5
      vertex 74.675 49.675 9.5
    endloop
  endfacet
  facet normal 0 0 1
    outer loop
      vertex 74.675 49.675 9.5
      vertex 61.7672 49.675 9.5
      vertex 74.3033 44.7373 9.5
    endloop
  endfacet
  facet normal 0 0 1
    outer loop
      vertex 74.675 44.5135 9.5
      vertex 74.675 49.675 9.5
      vertex 74.3033 44.7373 9.5
    endloop
  endfacet
  facet normal -0.515812 -0.856702 0
    outer loop
      vertex 89.837 35.3847 0
      vertex 89.837 35.3847 9.5
      vertex 75.325 44.1222 9.5
    endloop
  endfacet
  facet normal -0.515812 -0.856702 0
    outer loop
      vertex 74.675 44.5135 7.5
      vertex 89.837 35.3847 0
      vertex 75.325 44.1222 7.5
    endloop
  endfacet
  facet normal -0.515812 -0.856702 0
    outer loop
      vertex 75.325 44.1222 7.5
      vertex 89.837 35.3847 0
      vertex 75.325 44.1222 9.5
    endloop
  endfacet
  facet normal -0.515812 -0.856702 0
    outer loop
      vertex 74.3033 44.7373 0
      vertex 89.837 35.3847 0
      vertex 74.675 44.5135 7.5
    endloop
  endfacet
  facet normal -0.515812 -0.856702 0
    outer loop
      vertex 74.3033 44.7373 9.5
      vertex 74.675 44.5135 7.5
      vertex 74.675 44.5135 9.5
    endloop
  endfacet
  facet normal -0.515812 -0.856702 0
    outer loop
      vertex 74.3033 44.7373 0
      vertex 74.675 44.5135 7.5
      vertex 74.3033 44.7373 9.5
    endloop
  endfacet
  facet normal 0 0 -1
    outer loop
      vertex 70.5898 46.2 0
      vertex 96.2 46.2 0
      vertex 74.3033 44.7373 0
    endloop
  endfacet
  facet normal 0 0 -1
    outer loop
      vertex 89.837 35.3847 0
      vertex 96.2 46.2 0
      vertex 96.2 29.4099 0
    endloop
  endfacet
  facet normal 0 0 -1
    outer loop
      vertex 74.3033 44.7373 0
      vertex 96.2 46.2 0
      vertex 89.837 35.3847 0
    endloop
  endfacet
  facet normal 0 1 0
    outer loop
      vertex 70.5898 46.2 0
      vertex 70.5898 46.2 2.2
      vertex 96.2 46.2 0
    endloop
  endfacet
  facet normal 0 1 0
    outer loop
      vertex 96.2 46.2 0
      vertex 70.5898 46.2 2.2
      vertex 96.2 46.2 2.2
    endloop
  endfacet
  facet normal 0 0 -1
    outer loop
      vertex 97.6 28.0953 2.2
      vertex 96.2 29.4099 2.2
      vertex 97.6 47.6 2.2
    endloop
  endfacet
  facet normal 0 0 -1
    outer loop
      vertex 97.6 47.6 2.2
      vertex 96.2 29.4099 2.2
      vertex 96.2 46.2 2.2
    endloop
  endfacet
  facet normal 0 0 -1
    outer loop
      vertex 97.6 47.6 2.2
      vertex 96.2 46.2 2.2
      vertex 70.5898 46.2 2.2
    endloop
  endfacet
  facet normal 0 0 -1
    outer loop
      vertex 70.5898 46.2 2.2
      vertex 67.0354 47.6 2.2
      vertex 97.6 47.6 2.2
    endloop
  endfacet
  facet normal 1 0 0
    outer loop
      vertex 96.2 29.4099 2.2
      vertex 96.2 29.4099 0
      vertex 96.2 46.2 0
    endloop
  endfacet
  facet normal 1 0 0
    outer loop
      vertex 96.2 46.2 2.2
      vertex 96.2 29.4099 2.2
      vertex 96.2 46.2 0
    endloop
  endfacet
  facet normal 0 0 1
    outer loop
      vertex 75.325 49.675 9.5
      vertex 75.325 44.1222 9.5
      vertex 89.837 35.3847 9.5
    endloop
  endfacet
  facet normal 0 0 1
    outer loop
      vertex 99.675 26.1469 9.5
      vertex 75.325 49.675 9.5
      vertex 89.837 35.3847 9.5
    endloop
  endfacet
  facet normal 0 0 1
    outer loop
      vertex 99.675 26.1469 9.5
      vertex 99.675 49.675 9.5
      vertex 75.325 49.675 9.5
    endloop
  endfacet
  facet normal 1 0 0
    outer loop
      vertex 99.675 26.1469 9.5
      vertex 99.675 26.1469 7.5
      vertex 99.675 49.675 7.5
    endloop
  endfacet
  facet normal 1 0 0
    outer loop
      vertex 99.675 49.675 9.5
      vertex 99.675 26.1469 9.5
      vertex 99.675 49.675 7.5
    endloop
  endfacet
  facet normal 0 1 0
    outer loop
      vertex 75.325 49.675 7.5
      vertex 75.325 49.675 9.5
      vertex 99.675 49.675 7.5
    endloop
  endfacet
  facet normal 0 1 0
    outer loop
      vertex 99.675 49.675 7.5
      vertex 75.325 49.675 9.5
      vertex 99.675 49.675 9.5
    endloop
  endfacet
  facet normal -1 0 0
    outer loop
      vertex 75.325 44.1222 7.5
      vertex 75.325 44.1222 9.5
      vertex 75.325 49.675 7.5
    endloop
  endfacet
  facet normal -1 0 0
    outer loop
      vertex 75.325 49.675 7.5
      vertex 75.325 44.1222 9.5
      vertex 75.325 49.675 9.5
    endloop
  endfacet
  facet normal 1 0 0
    outer loop
      vertex 74.675 44.5135 9.5
      vertex 74.675 44.5135 7.5
      vertex 74.675 49.675 7.5
    endloop
  endfacet
  facet normal 1 0 0
    outer loop
      vertex 74.675 49.675 9.5
      vertex 74.675 44.5135 9.5
      vertex 74.675 49.675 7.5
    endloop
  endfacet
endsolid OpenSCAD_Model
