solid OpenSCAD_Model
  facet normal 0 0 -1
    outer loop
      vertex 9.44574 59.2 0
      vertex 59.2 59.2 0
      vertex 18.6028 57.2536 0
    endloop
  endfacet
  facet normal 0 0 -1
    outer loop
      vertex 18.6028 57.2536 0
      vertex 59.2 59.2 0
      vertex 59.2 50 0
    endloop
  endfacet
  facet normal 0 0 -1
    outer loop
      vertex 59.2 50 0
      vertex 59.2 9.51437 0
      vertex 58.8845 12.5163 0
    endloop
  endfacet
  facet normal 0 0 -1
    outer loop
      vertex 59.2 50 0
      vertex 58.8845 12.5163 0
      vertex 54.9954 24.4855 0
    endloop
  endfacet
  facet normal 0 0 -1
    outer loop
      vertex 59.2 50 0
      vertex 54.9954 24.4855 0
      vertex 48.7028 35.3847 0
    endloop
  endfacet
  facet normal 0 0 -1
    outer loop
      vertex 59.2 50 0
      vertex 48.7028 35.3847 0
      vertex 47.6 36.6095 0
    endloop
  endfacet
  facet normal 0 0 -1
    outer loop
      vertex 59.2 50 0
      vertex 47.6 36.6095 0
      vertex 47.6 47.6 0
    endloop
  endfacet
  facet normal 0 0 -1
    outer loop
      vertex 59.2 50 0
      vertex 47.6 47.6 0
      vertex 18.6028 57.2536 0
    endloop
  endfacet
  facet normal 0 0 -1
    outer loop
      vertex 47.6 47.6 0
      vertex 36.3415 47.6 0
      vertex 30.1 52.1347 0
    endloop
  endfacet
  facet normal 0 0 -1
    outer loop
      vertex 47.6 47.6 0
      vertex 30.1 52.1347 0
      vertex 18.6028 57.2536 0
    endloop
  endfacet
  facet normal 0 1 0
    outer loop
      vertex 9.44574 59.2 0
      vertex 9.44574 59.2 9.5
      vertex 59.2 59.2 0
    endloop
  endfacet
  facet normal 0 1 0
    outer loop
      vertex 59.2 59.2 0
      vertex 9.44574 59.2 9.5
      vertex 59.2 59.2 9.5
    endloop
  endfacet
  facet normal -0.207912 -0.978148 0
    outer loop
      vertex 18.6028 57.2536 0
      vertex 18.6028 57.2536 9.5
      vertex 9.44574 59.2 9.5
    endloop
  endfacet
  facet normal -0.207912 -0.978148 0
    outer loop
      vertex 9.44574 59.2 0
      vertex 18.6028 57.2536 0
      vertex 9.44574 59.2 9.5
    endloop
  endfacet
  facet normal -0.406737 -0.913545 0
    outer loop
      vertex 30.1 52.1347 0
      vertex 30.1 52.1347 9.5
      vertex 18.6028 57.2536 9.5
    endloop
  endfacet
  facet normal -0.406737 -0.913545 0
    outer loop
      vertex 18.6028 57.2536 0
      vertex 30.1 52.1347 0
      vertex 18.6028 57.2536 9.5
    endloop
  endfacet
  facet normal -0.587785 -0.809017 0
    outer loop
      vertex 40.2817 44.7373 9.5
      vertex 36.3415 47.6 2.2
      vertex 38.2685 46.2 2.2
    endloop
  endfacet
  facet normal -0.587785 -0.809017 0
    outer loop
      vertex 33.4855 49.675 7.5
      vertex 33.0382 50 7.5
      vertex 36.3415 47.6 0
    endloop
  endfacet
  facet normal -0.587785 -0.809017 0
    outer loop
      vertex 36.3415 47.6 0
      vertex 36.3415 47.6 2.2
      vertex 33.4855 49.675 9.5
    endloop
  endfacet
  facet normal -0.587785 -0.809017 0
    outer loop
      vertex 38.2685 46.2 0
      vertex 40.2817 44.7373 0
      vertex 38.2685 46.2 2.2
    endloop
  endfacet
  facet normal -0.587785 -0.809017 0
    outer loop
      vertex 40.2817 44.7373 0
      vertex 40.2817 44.7373 9.5
      vertex 38.2685 46.2 2.2
    endloop
  endfacet
  facet normal -0.587785 -0.809017 0
    outer loop
      vertex 40.2817 44.7373 9.5
      vertex 33.4855 49.675 9.5
      vertex 36.3415 47.6 2.2
    endloop
  endfacet
  facet normal -0.587785 -0.809017 0
    outer loop
      vertex 33.4855 49.675 9.5
      vertex 33.4855 49.675 7.5
      vertex 36.3415 47.6 0
    endloop
  endfacet
  facet normal -0.587785 -0.809017 0
    outer loop
      vertex 33.0382 50 7.5
      vertex 30.1 52.1347 9.5
      vertex 36.3415 47.6 0
    endloop
  endfacet
  facet normal -0.587785 -0.809017 0
    outer loop
      vertex 33.0382 50 9.5
      vertex 30.1 52.1347 9.5
      vertex 33.0382 50 7.5
    endloop
  endfacet
  facet normal -0.587785 -0.809017 0
    outer loop
      vertex 30.1 52.1347 9.5
      vertex 30.1 52.1347 0
      vertex 36.3415 47.6 0
    endloop
  endfacet
  facet normal 0 -1 0
    outer loop
      vertex 47.6 47.6 0
      vertex 47.6 47.6 2.2
      vertex 36.3415 47.6 2.2
    endloop
  endfacet
  facet normal 0 -1 0
    outer loop
      vertex 36.3415 47.6 0
      vertex 47.6 47.6 0
      vertex 36.3415 47.6 2.2
    endloop
  endfacet
  facet normal -1 0 0
    outer loop
      vertex 47.6 47.6 2.2
      vertex 47.6 47.6 0
      vertex 47.6 36.6095 2.2
    endloop
  endfacet
  facet normal -1 0 0
    outer loop
      vertex 47.6 36.6095 2.2
      vertex 47.6 47.6 0
      vertex 47.6 36.6095 0
    endloop
  endfacet
  facet normal -0.743145 -0.669131 0
    outer loop
      vertex 48.7028 35.3847 0
      vertex 47.6 36.6095 2.2
      vertex 47.6 36.6095 0
    endloop
  endfacet
  facet normal -0.743145 -0.669131 0
    outer loop
      vertex 48.7028 35.3847 9.5
      vertex 47.6 36.6095 2.2
      vertex 48.7028 35.3847 0
    endloop
  endfacet
  facet normal -0.743145 -0.669131 0
    outer loop
      vertex 46.2 38.1643 2.2
      vertex 47.6 36.6095 2.2
      vertex 48.7028 35.3847 9.5
    endloop
  endfacet
  facet normal -0.743145 -0.669131 0
    outer loop
      vertex 46.2 38.1643 2.2
      vertex 48.7028 35.3847 9.5
      vertex 40.2817 44.7373 9.5
    endloop
  endfacet
  facet normal -0.743145 -0.669131 0
    outer loop
      vertex 46.2 38.1643 2.2
      vertex 40.2817 44.7373 9.5
      vertex 46.2 38.1643 0
    endloop
  endfacet
  facet normal -0.743145 -0.669131 0
    outer loop
      vertex 40.2817 44.7373 9.5
      vertex 40.2817 44.7373 0
      vertex 46.2 38.1643 0
    endloop
  endfacet
  facet normal -0.866025 -0.5 0
    outer loop
      vertex 54.9954 24.4855 9.5
      vertex 50 33.1379 9.5
      vertex 54.9954 24.4855 0
    endloop
  endfacet
  facet normal -0.866025 -0.5 0
    outer loop
      vertex 54.9954 24.4855 0
      vertex 50 33.1379 9.5
      vertex 50 33.1379 7.5
    endloop
  endfacet
  facet normal -0.866025 -0.5 0
    outer loop
      vertex 54.9954 24.4855 0
      vertex 50 33.1379 7.5
      vertex 49.675 33.7008 7.5
    endloop
  endfacet
  facet normal -0.866025 -0.5 0
    outer loop
      vertex 49.675 33.7008 7.5
      vertex 49.675 33.7008 9.5
      vertex 48.7028 35.3847 9.5
    endloop
  endfacet
  facet normal -0.866025 -0.5 0
    outer loop
      vertex 49.675 33.7008 7.5
      vertex 48.7028 35.3847 9.5
      vertex 48.7028 35.3847 0
    endloop
  endfacet
  facet normal -0.866025 -0.5 0
    outer loop
      vertex 49.675 33.7008 7.5
      vertex 48.7028 35.3847 0
      vertex 54.9954 24.4855 0
    endloop
  endfacet
  facet normal -0.951057 -0.309017 0
    outer loop
      vertex 58.8845 12.5163 9.5
      vertex 54.9954 24.4855 9.5
      vertex 58.8845 12.5163 0
    endloop
  endfacet
  facet normal -0.951057 -0.309017 0
    outer loop
      vertex 58.8845 12.5163 0
      vertex 54.9954 24.4855 9.5
      vertex 54.9954 24.4855 0
    endloop
  endfacet
  facet normal -0.994522 -0.104528 0
    outer loop
      vertex 59.2 9.51437 9.5
      vertex 58.8845 12.5163 9.5
      vertex 59.2 9.51437 0
    endloop
  endfacet
  facet normal -0.994522 -0.104528 0
    outer loop
      vertex 59.2 9.51437 0
      vertex 58.8845 12.5163 9.5
      vertex 58.8845 12.5163 0
    endloop
  endfacet
  facet normal 1 0 0
    outer loop
      vertex 59.2 9.51437 9.5
      vertex 59.2 9.51437 0
      vertex 59.2 50 0
    endloop
  endfacet
  facet normal 1 0 0
    outer loop
      vertex 59.2 50 9.5
      vertex 59.2 9.51437 9.5
      vertex 59.2 50 0
    endloop
  endfacet
  facet normal 1 0 0
    outer loop
      vertex 59.2 50 9.5
      vertex 59.2 50 0
      vertex 59.2 59.2 0
    endloop
  endfacet
  facet normal 1 0 0
    outer loop
      vertex 59.2 59.2 9.5
      vertex 59.2 50 9.5
      vertex 59.2 59.2 0
    endloop
  endfacet
  facet normal 0 0 1
    outer loop
      vertex 50 50 9.5
      vertex 50 33.1379 9.5
      vertex 59.2 59.2 9.5
    endloop
  endfacet
  facet normal 0 0 1
    outer loop
      vertex 59.2 59.2 9.5
      vertex 9.44574 59.2 9.5
      vertex 18.6028 57.2536 9.5
    endloop
  endfacet
  facet normal 0 0 1
    outer loop
      vertex 30.1 52.1347 9.5
      vertex 59.2 59.2 9.5
      vertex 18.6028 57.2536 9.5
    endloop
  endfacet
  facet normal 0 0 1
    outer loop
      vertex 30.1 52.1347 9.5
      vertex 33.0382 50 9.5
      vertex 59.2 59.2 9.5
    endloop
  endfacet
  facet normal 0 0 1
    outer loop
      vertex 33.0382 50 9.5
      vertex 50 50 9.5
      vertex 59.2 59.2 9.5
    endloop
  endfacet
  facet normal 0 0 1
    outer loop
      vertex 54.9954 24.4855 9.5
      vertex 58.8845 12.5163 9.5
      vertex 59.2 59.2 9.5
    endloop
  endfacet
  facet normal 0 0 1
    outer loop
      vertex 50 33.1379 9.5
      vertex 54.9954 24.4855 9.5
      vertex 59.2 59.2 9.5
    endloop
  endfacet
  facet normal 0 0 1
    outer loop
      vertex 58.8845 12.5163 9.5
      vertex 59.2 50 9.5
      vertex 59.2 59.2 9.5
    endloop
  endfacet
  facet normal 0 0 1
    outer loop
      vertex 58.8845 12.5163 9.5
      vertex 59.2 9.51437 9.5
      vertex 59.2 50 9.5
    endloop
  endfacet
  facet normal 0 -1 0
    outer loop
      vertex 50 50 7.5
      vertex 50 50 9.5
      vertex 33.0382 50 9.5
    endloop
  endfacet
  facet normal 0 -1 0
    outer loop
      vertex 33.0382 50 7.5
      vertex 50 50 7.5
      vertex 33.0382 50 9.5
    endloop
  endfacet
  facet normal 0 0 1
    outer loop
      vertex 50 50 7.5
      vertex 33.0382 50 7.5
      vertex 33.4855 49.675 7.5
    endloop
  endfacet
  facet normal 0 0 1
    outer loop
      vertex 49.675 33.7008 7.5
      vertex 50 50 7.5
      vertex 49.675 49.675 7.5
    endloop
  endfacet
  facet normal 0 0 1
    outer loop
      vertex 49.675 49.675 7.5
      vertex 50 50 7.5
      vertex 33.4855 49.675 7.5
    endloop
  endfacet
  facet normal 0 0 1
    outer loop
      vertex 50 33.1379 7.5
      vertex 50 50 7.5
      vertex 49.675 33.7008 7.5
    endloop
  endfacet
  facet normal 0 1 0
    outer loop
      vertex 33.4855 49.675 7.5
      vertex 33.4855 49.675 9.5
      vertex 49.675 49.675 7.5
    endloop
  endfacet
  facet normal 0 1 0
    outer loop
      vertex 49.675 49.675 7.5
      vertex 33.4855 49.675 9.5
      vertex 49.675 49.675 9.5
    endloop
  endfacet
  facet normal 0 0 1
    outer loop
      vertex 49.675 49.675 9.5
      vertex 33.4855 49.675 9.5
      vertex 40.2817 44.7373 9.5
    endloop
  endfacet
  facet normal 0 0 1
    outer loop
      vertex 48.7028 35.3847 9.5
      vertex 49.675 49.675 9.5
      vertex 40.2817 44.7373 9.5
    endloop
  endfacet
  facet normal 0 0 1
    outer loop
      vertex 48.7028 35.3847 9.5
      vertex 49.675 33.7008 9.5
      vertex 49.675 49.675 9.5
    endloop
  endfacet
  facet normal 0 0 -1
    outer loop
      vertex 38.2685 46.2 0
      vertex 46.2 46.2 0
      vertex 40.2817 44.7373 0
    endloop
  endfacet
  facet normal 0 0 -1
    outer loop
      vertex 40.2817 44.7373 0
      vertex 46.2 46.2 0
      vertex 46.2 38.1643 0
    endloop
  endfacet
  facet normal 0 1 0
    outer loop
      vertex 38.2685 46.2 0
      vertex 38.2685 46.2 2.2
      vertex 46.2 46.2 0
    endloop
  endfacet
  facet normal 0 1 0
    outer loop
      vertex 46.2 46.2 0
      vertex 38.2685 46.2 2.2
      vertex 46.2 46.2 2.2
    endloop
  endfacet
  facet normal 0 0 -1
    outer loop
      vertex 47.6 36.6095 2.2
      vertex 46.2 38.1643 2.2
      vertex 47.6 47.6 2.2
    endloop
  endfacet
  facet normal 0 0 -1
    outer loop
      vertex 47.6 47.6 2.2
      vertex 46.2 38.1643 2.2
      vertex 46.2 46.2 2.2
    endloop
  endfacet
  facet normal 0 0 -1
    outer loop
      vertex 47.6 47.6 2.2
      vertex 46.2 46.2 2.2
      vertex 38.2685 46.2 2.2
    endloop
  endfacet
  facet normal 0 0 -1
    outer loop
      vertex 38.2685 46.2 2.2
      vertex 36.3415 47.6 2.2
      vertex 47.6 47.6 2.2
    endloop
  endfacet
  facet normal 1 0 0
    outer loop
      vertex 46.2 38.1643 2.2
      vertex 46.2 38.1643 0
      vertex 46.2 46.2 0
    endloop
  endfacet
  facet normal 1 0 0
    outer loop
      vertex 46.2 46.2 2.2
      vertex 46.2 38.1643 2.2
      vertex 46.2 46.2 0
    endloop
  endfacet
  facet normal 1 0 0
    outer loop
      vertex 49.675 33.7008 9.5
      vertex 49.675 33.7008 7.5
      vertex 49.675 49.675 7.5
    endloop
  endfacet
  facet normal 1 0 0
    outer loop
      vertex 49.675 49.675 9.5
      vertex 49.675 33.7008 9.5
      vertex 49.675 49.675 7.5
    endloop
  endfacet
  facet normal -1 0 0
    outer loop
      vertex 50 50 9.5
      vertex 50 50 7.5
      vertex 50 33.1379 9.5
    endloop
  endfacet
  facet normal -1 0 0
    outer loop
      vertex 50 33.1379 9.5
      vertex 50 50 7.5
      vertex 50 33.1379 7.5
    endloop
  endfacet
endsolid OpenSCAD_Model
