solid OpenSCAD_Model
  facet normal 0 1 0
    outer loop
      vertex 13.3835 109.2 0
      vertex 13.3835 109.2 9.5
      vertex 109.2 109.2 0
    endloop
  endfacet
  facet normal 0 1 0
    outer loop
      vertex 109.2 109.2 0
      vertex 13.3835 109.2 9.5
      vertex 109.2 109.2 9.5
    endloop
  endfacet
  facet normal -0.207912 -0.978148 0
    outer loop
      vertex 34.0537 104.806 0
      vertex 34.0537 104.806 9.5
      vertex 13.3835 109.2 9.5
    endloop
  endfacet
  facet normal -0.207912 -0.978148 0
    outer loop
      vertex 13.3835 109.2 0
      vertex 34.0537 104.806 0
      vertex 13.3835 109.2 9.5
    endloop
  endfacet
  facet normal 0 0 -1
    outer loop
      vertex 13.3835 109.2 0
      vertex 109.2 109.2 0
      vertex 34.0537 104.806 0
    endloop
  endfacet
  facet normal 0 0 -1
    outer loop
      vertex 34.0537 104.806 0
      vertex 109.2 109.2 0
      vertex 109.2 100 0
    endloop
  endfacet
  facet normal 0 0 -1
    outer loop
      vertex 109.2 100 0
      vertex 109.2 9.51437 0
      vertex 107.792 22.9119 0
    endloop
  endfacet
  facet normal 0 0 -1
    outer loop
      vertex 109.2 100 0
      vertex 107.792 22.9119 0
      vertex 100.673 44.8224 0
    endloop
  endfacet
  facet normal 0 0 -1
    outer loop
      vertex 109.2 100 0
      vertex 100.673 44.8224 0
      vertex 97.6 50.1445 0
    endloop
  endfacet
  facet normal 0 0 -1
    outer loop
      vertex 109.2 100 0
      vertex 97.6 50.1445 0
      vertex 97.6 97.6 0
    endloop
  endfacet
  facet normal 0 0 -1
    outer loop
      vertex 109.2 100 0
      vertex 97.6 97.6 0
      vertex 34.0537 104.806 0
    endloop
  endfacet
  facet normal 0 0 -1
    outer loop
      vertex 97.6 97.6 0
      vertex 50.2396 97.6 0
      vertex 34.0537 104.806 0
    endloop
  endfacet
  facet normal 1 0 0
    outer loop
      vertex 109.2 100 9.5
      vertex 109.2 100 0
      vertex 109.2 109.2 0
    endloop
  endfacet
  facet normal 1 0 0
    outer loop
      vertex 109.2 109.2 9.5
      vertex 109.2 100 9.5
      vertex 109.2 109.2 0
    endloop
  endfacet
  facet normal 0 0 1
    outer loop
      vertex 100 100 9.5
      vertex 100 45.9875 9.5
      vertex 109.2 109.2 9.5
    endloop
  endfacet
  facet normal 0 0 1
    outer loop
      vertex 109.2 109.2 9.5
      vertex 13.3835 109.2 9.5
      vertex 34.0537 104.806 9.5
    endloop
  endfacet
  facet normal 0 0 1
    outer loop
      vertex 44.8491 100 9.5
      vertex 109.2 109.2 9.5
      vertex 34.0537 104.806 9.5
    endloop
  endfacet
  facet normal 0 0 1
    outer loop
      vertex 44.8491 100 9.5
      vertex 100 100 9.5
      vertex 109.2 109.2 9.5
    endloop
  endfacet
  facet normal 0 0 1
    outer loop
      vertex 100.673 44.8224 9.5
      vertex 107.792 22.9119 9.5
      vertex 109.2 109.2 9.5
    endloop
  endfacet
  facet normal 0 0 1
    outer loop
      vertex 100 45.9875 9.5
      vertex 100.673 44.8224 9.5
      vertex 109.2 109.2 9.5
    endloop
  endfacet
  facet normal 0 0 1
    outer loop
      vertex 107.792 22.9119 9.5
      vertex 109.2 100 9.5
      vertex 109.2 109.2 9.5
    endloop
  endfacet
  facet normal 0 0 1
    outer loop
      vertex 107.792 22.9119 9.5
      vertex 109.2 9.51437 9.5
      vertex 109.2 100 9.5
    endloop
  endfacet
  facet normal -0.406737 -0.913545 0
    outer loop
      vertex 55.1 95.436 9.5
      vertex 50.2396 97.6 2.2
      vertex 53.384 96.2 2.2
    endloop
  endfacet
  facet normal -0.406737 -0.913545 0
    outer loop
      vertex 49.675 97.8514 7.5
      vertex 45.579 99.675 9.5
      vertex 50.2396 97.6 0
    endloop
  endfacet
  facet normal -0.406737 -0.913545 0
    outer loop
      vertex 50.2396 97.6 0
      vertex 50.2396 97.6 2.2
      vertex 49.675 97.8514 7.5
    endloop
  endfacet
  facet normal -0.406737 -0.913545 0
    outer loop
      vertex 53.384 96.2 0
      vertex 55.1 95.436 0
      vertex 53.384 96.2 2.2
    endloop
  endfacet
  facet normal -0.406737 -0.913545 0
    outer loop
      vertex 55.1 95.436 0
      vertex 55.1 95.436 9.5
      vertex 53.384 96.2 2.2
    endloop
  endfacet
  facet normal -0.406737 -0.913545 0
    outer loop
      vertex 55.1 95.436 9.5
      vertex 50.325 97.562 7.5
      vertex 50.2396 97.6 2.2
    endloop
  endfacet
  facet normal -0.406737 -0.913545 0
    outer loop
      vertex 55.1 95.436 9.5
      vertex 50.325 97.562 9.5
      vertex 50.325 97.562 7.5
    endloop
  endfacet
  facet normal -0.406737 -0.913545 0
    outer loop
      vertex 45.579 99.675 7.5
      vertex 44.8491 100 7.5
      vertex 50.2396 97.6 0
    endloop
  endfacet
  facet normal -0.406737 -0.913545 0
    outer loop
      vertex 49.675 97.8514 9.5
      vertex 45.579 99.675 9.5
      vertex 49.675 97.8514 7.5
    endloop
  endfacet
  facet normal -0.406737 -0.913545 0
    outer loop
      vertex 45.579 99.675 9.5
      vertex 45.579 99.675 7.5
      vertex 50.2396 97.6 0
    endloop
  endfacet
  facet normal -0.406737 -0.913545 0
    outer loop
      vertex 44.8491 100 7.5
      vertex 34.0537 104.806 9.5
      vertex 50.2396 97.6 0
    endloop
  endfacet
  facet normal -0.406737 -0.913545 0
    outer loop
      vertex 44.8491 100 9.5
      vertex 34.0537 104.806 9.5
      vertex 44.8491 100 7.5
    endloop
  endfacet
  facet normal -0.406737 -0.913545 0
    outer loop
      vertex 34.0537 104.806 9.5
      vertex 34.0537 104.806 0
      vertex 50.2396 97.6 0
    endloop
  endfacet
  facet normal -0.406737 -0.913545 0
    outer loop
      vertex 50.325 97.562 7.5
      vertex 49.675 97.8514 7.5
      vertex 50.2396 97.6 2.2
    endloop
  endfacet
  facet normal 0 -1 0
    outer loop
      vertex 97.6 97.6 0
      vertex 97.6 97.6 2.2
      vertex 50.2396 97.6 2.2
    endloop
  endfacet
  facet normal 0 -1 0
    outer loop
      vertex 50.2396 97.6 0
      vertex 97.6 97.6 0
      vertex 50.2396 97.6 2.2
    endloop
  endfacet
  facet normal -1 0 0
    outer loop
      vertex 97.6 97.6 2.2
      vertex 97.6 97.6 0
      vertex 97.6 50.1445 2.2
    endloop
  endfacet
  facet normal -1 0 0
    outer loop
      vertex 97.6 50.1445 2.2
      vertex 97.6 97.6 0
      vertex 97.6 50.1445 0
    endloop
  endfacet
  facet normal -0.866025 -0.5 0
    outer loop
      vertex 100.673 44.8224 0
      vertex 97.6 50.1445 2.2
      vertex 97.6 50.1445 0
    endloop
  endfacet
  facet normal -0.866025 -0.5 0
    outer loop
      vertex 100 45.9875 7.5
      vertex 97.6 50.1445 2.2
      vertex 100.673 44.8224 0
    endloop
  endfacet
  facet normal -0.866025 -0.5 0
    outer loop
      vertex 99.675 46.5505 9.5
      vertex 96.2 52.5693 2.2
      vertex 99.675 46.5505 7.5
    endloop
  endfacet
  facet normal -0.866025 -0.5 0
    outer loop
      vertex 100.673 44.8224 9.5
      vertex 100 45.9875 7.5
      vertex 100.673 44.8224 0
    endloop
  endfacet
  facet normal -0.866025 -0.5 0
    outer loop
      vertex 96.2 52.5693 2.2
      vertex 97.6 50.1445 2.2
      vertex 99.675 46.5505 7.5
    endloop
  endfacet
  facet normal -0.866025 -0.5 0
    outer loop
      vertex 97.4958 50.325 9.5
      vertex 96.2 52.5693 2.2
      vertex 97.4958 50.325 7.5
    endloop
  endfacet
  facet normal -0.866025 -0.5 0
    outer loop
      vertex 97.871 49.675 7.5
      vertex 99.675 46.5505 9.5
      vertex 97.871 49.675 9.5
    endloop
  endfacet
  facet normal -0.866025 -0.5 0
    outer loop
      vertex 96.2 52.5693 2.2
      vertex 99.675 46.5505 9.5
      vertex 97.871 49.675 7.5
    endloop
  endfacet
  facet normal -0.866025 -0.5 0
    outer loop
      vertex 96.2 52.5693 2.2
      vertex 97.871 49.675 7.5
      vertex 97.4958 50.325 7.5
    endloop
  endfacet
  facet normal -0.866025 -0.5 0
    outer loop
      vertex 96.2 52.5693 2.2
      vertex 97.4958 50.325 9.5
      vertex 89.1537 64.7739 9.5
    endloop
  endfacet
  facet normal -0.866025 -0.5 0
    outer loop
      vertex 96.2 52.5693 2.2
      vertex 89.1537 64.7739 9.5
      vertex 96.2 52.5693 0
    endloop
  endfacet
  facet normal -0.866025 -0.5 0
    outer loop
      vertex 89.1537 64.7739 9.5
      vertex 89.1537 64.7739 0
      vertex 96.2 52.5693 0
    endloop
  endfacet
  facet normal -0.866025 -0.5 0
    outer loop
      vertex 100 45.9875 7.5
      vertex 100.673 44.8224 9.5
      vertex 100 45.9875 9.5
    endloop
  endfacet
  facet normal -0.866025 -0.5 0
    outer loop
      vertex 99.675 46.5505 7.5
      vertex 97.6 50.1445 2.2
      vertex 100 45.9875 7.5
    endloop
  endfacet
  facet normal -0.951057 -0.309017 0
    outer loop
      vertex 107.792 22.9119 9.5
      vertex 100.673 44.8224 9.5
      vertex 107.792 22.9119 0
    endloop
  endfacet
  facet normal -0.951057 -0.309017 0
    outer loop
      vertex 107.792 22.9119 0
      vertex 100.673 44.8224 9.5
      vertex 100.673 44.8224 0
    endloop
  endfacet
  facet normal -0.994522 -0.104528 0
    outer loop
      vertex 109.2 9.51437 9.5
      vertex 107.792 22.9119 9.5
      vertex 109.2 9.51437 0
    endloop
  endfacet
  facet normal -0.994522 -0.104528 0
    outer loop
      vertex 109.2 9.51437 0
      vertex 107.792 22.9119 9.5
      vertex 107.792 22.9119 0
    endloop
  endfacet
  facet normal 1 0 0
    outer loop
      vertex 109.2 9.51437 9.5
      vertex 109.2 9.51437 0
      vertex 109.2 100 0
    endloop
  endfacet
  facet normal 1 0 0
    outer loop
      vertex 109.2 100 9.5
      vertex 109.2 9.51437 9.5
      vertex 109.2 100 0
    endloop
  endfacet
  facet normal -1 0 0
    outer loop
      vertex 100 100 9.5
      vertex 100 100 7.5
      vertex 100 45.9875 9.5
    endloop
  endfacet
  facet normal -1 0 0
    outer loop
      vertex 100 45.9875 9.5
      vertex 100 100 7.5
      vertex 100 45.9875 7.5
    endloop
  endfacet
  facet normal 0 -1 0
    outer loop
      vertex 100 100 7.5
      vertex 100 100 9.5
      vertex 44.8491 100 9.5
    endloop
  endfacet
  facet normal 0 -1 0
    outer loop
      vertex 44.8491 100 7.5
      vertex 100 100 7.5
      vertex 44.8491 100 9.5
    endloop
  endfacet
  facet normal 0 0 1
    outer loop
      vertex 99.675 99.675 7.5
      vertex 99.675 75.325 7.5
      vertex 100 100 7.5
    endloop
  endfacet
  facet normal 0 0 1
    outer loop
      vertex 100 100 7.5
      vertex 44.8491 100 7.5
      vertex 45.579 99.675 7.5
    endloop
  endfacet
  facet normal 0 0 1
    outer loop
      vertex 50.325 99.675 7.5
      vertex 100 100 7.5
      vertex 49.675 99.675 7.5
    endloop
  endfacet
  facet normal 0 0 1
    outer loop
      vertex 49.675 99.675 7.5
      vertex 100 100 7.5
      vertex 45.579 99.675 7.5
    endloop
  endfacet
  facet normal 0 0 1
    outer loop
      vertex 49.675 97.8514 7.5
      vertex 50.325 99.675 7.5
      vertex 49.675 99.675 7.5
    endloop
  endfacet
  facet normal 0 0 1
    outer loop
      vertex 74.675 99.675 7.5
      vertex 100 100 7.5
      vertex 50.325 99.675 7.5
    endloop
  endfacet
  facet normal 0 0 1
    outer loop
      vertex 75.325 99.675 7.5
      vertex 100 100 7.5
      vertex 74.675 99.675 7.5
    endloop
  endfacet
  facet normal 0 0 1
    outer loop
      vertex 75.325 99.675 7.5
      vertex 99.675 99.675 7.5
      vertex 100 100 7.5
    endloop
  endfacet
  facet normal 0 0 1
    outer loop
      vertex 97.4958 50.325 7.5
      vertex 97.871 49.675 7.5
      vertex 99.675 50.325 7.5
    endloop
  endfacet
  facet normal 0 0 1
    outer loop
      vertex 74.675 99.675 7.5
      vertex 74.675 80.8541 7.5
      vertex 75.325 99.675 7.5
    endloop
  endfacet
  facet normal 0 0 1
    outer loop
      vertex 99.675 75.325 7.5
      vertex 99.675 74.675 7.5
      vertex 100 100 7.5
    endloop
  endfacet
  facet normal 0 0 1
    outer loop
      vertex 99.675 50.325 7.5
      vertex 99.675 49.675 7.5
      vertex 100 100 7.5
    endloop
  endfacet
  facet normal 0 0 1
    outer loop
      vertex 79.6535 75.325 7.5
      vertex 80.2387 74.675 7.5
      vertex 99.675 75.325 7.5
    endloop
  endfacet
  facet normal 0 0 1
    outer loop
      vertex 80.2387 74.675 7.5
      vertex 99.675 74.675 7.5
      vertex 99.675 75.325 7.5
    endloop
  endfacet
  facet normal 0 0 1
    outer loop
      vertex 99.675 74.675 7.5
      vertex 99.675 50.325 7.5
      vertex 100 100 7.5
    endloop
  endfacet
  facet normal 0 0 1
    outer loop
      vertex 97.871 49.675 7.5
      vertex 99.675 49.675 7.5
      vertex 99.675 50.325 7.5
    endloop
  endfacet
  facet normal 0 0 1
    outer loop
      vertex 99.675 49.675 7.5
      vertex 99.675 46.5505 7.5
      vertex 100 100 7.5
    endloop
  endfacet
  facet normal 0 0 1
    outer loop
      vertex 99.675 46.5505 7.5
      vertex 100 45.9875 7.5
      vertex 100 100 7.5
    endloop
  endfacet
  facet normal 0 0 1
    outer loop
      vertex 75.325 80.1322 7.5
      vertex 75.325 99.675 7.5
      vertex 74.675 80.8541 7.5
    endloop
  endfacet
  facet normal 0 0 1
    outer loop
      vertex 50.325 97.562 7.5
      vertex 50.325 99.675 7.5
      vertex 49.675 97.8514 7.5
    endloop
  endfacet
  facet normal 0 1 0
    outer loop
      vertex 45.579 99.675 7.5
      vertex 45.579 99.675 9.5
      vertex 49.675 99.675 7.5
    endloop
  endfacet
  facet normal 0 1 0
    outer loop
      vertex 49.675 99.675 7.5
      vertex 45.579 99.675 9.5
      vertex 49.675 99.675 9.5
    endloop
  endfacet
  facet normal 0 0 1
    outer loop
      vertex 49.675 99.675 9.5
      vertex 45.579 99.675 9.5
      vertex 49.675 97.8514 9.5
    endloop
  endfacet
  facet normal 1 0 0
    outer loop
      vertex 49.675 97.8514 9.5
      vertex 49.675 97.8514 7.5
      vertex 49.675 99.675 7.5
    endloop
  endfacet
  facet normal 1 0 0
    outer loop
      vertex 49.675 99.675 9.5
      vertex 49.675 97.8514 9.5
      vertex 49.675 99.675 7.5
    endloop
  endfacet
  facet normal -1 0 0
    outer loop
      vertex 50.325 97.562 7.5
      vertex 50.325 97.562 9.5
      vertex 50.325 99.675 7.5
    endloop
  endfacet
  facet normal -1 0 0
    outer loop
      vertex 50.325 99.675 7.5
      vertex 50.325 97.562 9.5
      vertex 50.325 99.675 9.5
    endloop
  endfacet
  facet normal 0 0 1
    outer loop
      vertex 73.7382 81.8946 9.5
      vertex 74.675 99.675 9.5
      vertex 50.325 99.675 9.5
    endloop
  endfacet
  facet normal 0 0 1
    outer loop
      vertex 50.325 99.675 9.5
      vertex 50.325 97.562 9.5
      vertex 55.1 95.436 9.5
    endloop
  endfacet
  facet normal 0 0 1
    outer loop
      vertex 73.7382 81.8946 9.5
      vertex 50.325 99.675 9.5
      vertex 55.1 95.436 9.5
    endloop
  endfacet
  facet normal 0 0 1
    outer loop
      vertex 74.675 80.8541 9.5
      vertex 74.675 99.675 9.5
      vertex 73.7382 81.8946 9.5
    endloop
  endfacet
  facet normal -0.587785 -0.809017 0
    outer loop
      vertex 73.7382 81.8946 0
      vertex 73.7382 81.8946 9.5
      vertex 55.1 95.436 9.5
    endloop
  endfacet
  facet normal -0.587785 -0.809017 0
    outer loop
      vertex 55.1 95.436 0
      vertex 73.7382 81.8946 0
      vertex 55.1 95.436 9.5
    endloop
  endfacet
  facet normal 0 0 -1
    outer loop
      vertex 53.384 96.2 0
      vertex 96.2 96.2 0
      vertex 55.1 95.436 0
    endloop
  endfacet
  facet normal 0 0 -1
    outer loop
      vertex 89.1537 64.7739 0
      vertex 96.2 96.2 0
      vertex 96.2 52.5693 0
    endloop
  endfacet
  facet normal 0 0 -1
    outer loop
      vertex 73.7382 81.8946 0
      vertex 96.2 96.2 0
      vertex 89.1537 64.7739 0
    endloop
  endfacet
  facet normal 0 0 -1
    outer loop
      vertex 55.1 95.436 0
      vertex 96.2 96.2 0
      vertex 73.7382 81.8946 0
    endloop
  endfacet
  facet normal 0 1 0
    outer loop
      vertex 53.384 96.2 0
      vertex 53.384 96.2 2.2
      vertex 96.2 96.2 0
    endloop
  endfacet
  facet normal 0 1 0
    outer loop
      vertex 96.2 96.2 0
      vertex 53.384 96.2 2.2
      vertex 96.2 96.2 2.2
    endloop
  endfacet
  facet normal 0 0 -1
    outer loop
      vertex 97.6 50.1445 2.2
      vertex 96.2 52.5693 2.2
      vertex 97.6 97.6 2.2
    endloop
  endfacet
  facet normal 0 0 -1
    outer loop
      vertex 97.6 97.6 2.2
      vertex 96.2 52.5693 2.2
      vertex 96.2 96.2 2.2
    endloop
  endfacet
  facet normal 0 0 -1
    outer loop
      vertex 97.6 97.6 2.2
      vertex 96.2 96.2 2.2
      vertex 53.384 96.2 2.2
    endloop
  endfacet
  facet normal 0 0 -1
    outer loop
      vertex 53.384 96.2 2.2
      vertex 50.2396 97.6 2.2
      vertex 97.6 97.6 2.2
    endloop
  endfacet
  facet normal 1 0 0
    outer loop
      vertex 96.2 52.5693 2.2
      vertex 96.2 52.5693 0
      vertex 96.2 96.2 0
    endloop
  endfacet
  facet normal 1 0 0
    outer loop
      vertex 96.2 96.2 2.2
      vertex 96.2 52.5693 2.2
      vertex 96.2 96.2 0
    endloop
  endfacet
  facet normal -0.743145 -0.669131 0
    outer loop
      vertex 89.1537 64.7739 9.5
      vertex 80.2387 74.675 9.5
      vertex 89.1537 64.7739 0
    endloop
  endfacet
  facet normal -0.743145 -0.669131 0
    outer loop
      vertex 89.1537 64.7739 0
      vertex 80.2387 74.675 9.5
      vertex 80.2387 74.675 7.5
    endloop
  endfacet
  facet normal -0.743145 -0.669131 0
    outer loop
      vertex 89.1537 64.7739 0
      vertex 80.2387 74.675 7.5
      vertex 79.6535 75.325 7.5
    endloop
  endfacet
  facet normal -0.743145 -0.669131 0
    outer loop
      vertex 79.6535 75.325 7.5
      vertex 79.6535 75.325 9.5
      vertex 75.325 80.1322 9.5
    endloop
  endfacet
  facet normal -0.743145 -0.669131 0
    outer loop
      vertex 79.6535 75.325 7.5
      vertex 75.325 80.1322 9.5
      vertex 89.1537 64.7739 0
    endloop
  endfacet
  facet normal -0.743145 -0.669131 0
    outer loop
      vertex 89.1537 64.7739 0
      vertex 75.325 80.1322 9.5
      vertex 75.325 80.1322 7.5
    endloop
  endfacet
  facet normal -0.743145 -0.669131 0
    outer loop
      vertex 89.1537 64.7739 0
      vertex 75.325 80.1322 7.5
      vertex 74.675 80.8541 7.5
    endloop
  endfacet
  facet normal -0.743145 -0.669131 0
    outer loop
      vertex 74.675 80.8541 7.5
      vertex 74.675 80.8541 9.5
      vertex 73.7382 81.8946 9.5
    endloop
  endfacet
  facet normal -0.743145 -0.669131 0
    outer loop
      vertex 74.675 80.8541 7.5
      vertex 73.7382 81.8946 9.5
      vertex 73.7382 81.8946 0
    endloop
  endfacet
  facet normal -0.743145 -0.669131 0
    outer loop
      vertex 74.675 80.8541 7.5
      vertex 73.7382 81.8946 0
      vertex 89.1537 64.7739 0
    endloop
  endfacet
  facet normal 0 0 1
    outer loop
      vertex 99.675 74.675 9.5
      vertex 80.2387 74.675 9.5
      vertex 89.1537 64.7739 9.5
    endloop
  endfacet
  facet normal 0 0 1
    outer loop
      vertex 97.4958 50.325 9.5
      vertex 99.675 74.675 9.5
      vertex 89.1537 64.7739 9.5
    endloop
  endfacet
  facet normal 0 0 1
    outer loop
      vertex 97.4958 50.325 9.5
      vertex 99.675 50.325 9.5
      vertex 99.675 74.675 9.5
    endloop
  endfacet
  facet normal 0 -1 0
    outer loop
      vertex 97.4958 50.325 9.5
      vertex 97.4958 50.325 7.5
      vertex 99.675 50.325 7.5
    endloop
  endfacet
  facet normal 0 -1 0
    outer loop
      vertex 99.675 50.325 9.5
      vertex 97.4958 50.325 9.5
      vertex 99.675 50.325 7.5
    endloop
  endfacet
  facet normal 0 1 0
    outer loop
      vertex 97.871 49.675 7.5
      vertex 97.871 49.675 9.5
      vertex 99.675 49.675 7.5
    endloop
  endfacet
  facet normal 0 1 0
    outer loop
      vertex 99.675 49.675 7.5
      vertex 97.871 49.675 9.5
      vertex 99.675 49.675 9.5
    endloop
  endfacet
  facet normal 0 0 1
    outer loop
      vertex 99.675 49.675 9.5
      vertex 97.871 49.675 9.5
      vertex 99.675 46.5505 9.5
    endloop
  endfacet
  facet normal 1 0 0
    outer loop
      vertex 99.675 46.5505 9.5
      vertex 99.675 46.5505 7.5
      vertex 99.675 49.675 7.5
    endloop
  endfacet
  facet normal 1 0 0
    outer loop
      vertex 99.675 49.675 9.5
      vertex 99.675 46.5505 9.5
      vertex 99.675 49.675 7.5
    endloop
  endfacet
  facet normal 1 0 0
    outer loop
      vertex 99.675 50.325 9.5
      vertex 99.675 50.325 7.5
      vertex 99.675 74.675 7.5
    endloop
  endfacet
  facet normal 1 0 0
    outer loop
      vertex 99.675 74.675 9.5
      vertex 99.675 50.325 9.5
      vertex 99.675 74.675 7.5
    endloop
  endfacet
  facet normal 0 1 0
    outer loop
      vertex 80.2387 74.675 7.5
      vertex 80.2387 74.675 9.5
      vertex 99.675 74.675 7.5
    endloop
  endfacet
  facet normal 0 1 0
    outer loop
      vertex 99.675 74.675 7.5
      vertex 80.2387 74.675 9.5
      vertex 99.675 74.675 9.5
    endloop
  endfacet
  facet normal 0 -1 0
    outer loop
      vertex 79.6535 75.325 9.5
      vertex 79.6535 75.325 7.5
      vertex 99.675 75.325 7.5
    endloop
  endfacet
  facet normal 0 -1 0
    outer loop
      vertex 99.675 75.325 9.5
      vertex 79.6535 75.325 9.5
      vertex 99.675 75.325 7.5
    endloop
  endfacet
  facet normal 1 0 0
    outer loop
      vertex 99.675 75.325 9.5
      vertex 99.675 75.325 7.5
      vertex 99.675 99.675 7.5
    endloop
  endfacet
  facet normal 1 0 0
    outer loop
      vertex 99.675 99.675 9.5
      vertex 99.675 75.325 9.5
      vertex 99.675 99.675 7.5
    endloop
  endfacet
  facet normal 0 1 0
    outer loop
      vertex 75.325 99.675 7.5
      vertex 75.325 99.675 9.5
      vertex 99.675 99.675 7.5
    endloop
  endfacet
  facet normal 0 1 0
    outer loop
      vertex 99.675 99.675 7.5
      vertex 75.325 99.675 9.5
      vertex 99.675 99.675 9.5
    endloop
  endfacet
  facet normal -1 0 0
    outer loop
      vertex 75.325 80.1322 7.5
      vertex 75.325 80.1322 9.5
      vertex 75.325 99.675 7.5
    endloop
  endfacet
  facet normal -1 0 0
    outer loop
      vertex 75.325 99.675 7.5
      vertex 75.325 80.1322 9.5
      vertex 75.325 99.675 9.5
    endloop
  endfacet
  facet normal 1 0 0
    outer loop
      vertex 74.675 80.8541 9.5
      vertex 74.675 80.8541 7.5
      vertex 74.675 99.675 7.5
    endloop
  endfacet
  facet normal 1 0 0
    outer loop
      vertex 74.675 99.675 9.5
      vertex 74.675 80.8541 9.5
      vertex 74.675 99.675 7.5
    endloop
  endfacet
  facet normal 0 1 0
    outer loop
      vertex 50.325 99.675 7.5
      vertex 50.325 99.675 9.5
      vertex 74.675 99.675 7.5
    endloop
  endfacet
  facet normal 0 1 0
    outer loop
      vertex 74.675 99.675 7.5
      vertex 50.325 99.675 9.5
      vertex 74.675 99.675 9.5
    endloop
  endfacet
  facet normal 0 0 1
    outer loop
      vertex 75.325 99.675 9.5
      vertex 75.325 80.1322 9.5
      vertex 79.6535 75.325 9.5
    endloop
  endfacet
  facet normal 0 0 1
    outer loop
      vertex 99.675 99.675 9.5
      vertex 75.325 99.675 9.5
      vertex 99.675 75.325 9.5
    endloop
  endfacet
  facet normal 0 0 1
    outer loop
      vertex 99.675 75.325 9.5
      vertex 75.325 99.675 9.5
      vertex 79.6535 75.325 9.5
    endloop
  endfacet
endsolid OpenSCAD_Model
