solid OpenSCAD_Model
  facet normal 0 1 0
    outer loop
      vertex 14.8038 84.2 0
      vertex 14.8038 84.2 9.5
      vertex 109.2 84.2 0
    endloop
  endfacet
  facet normal 0 1 0
    outer loop
      vertex 109.2 84.2 0
      vertex 14.8038 84.2 9.5
      vertex 109.2 84.2 9.5
    endloop
  endfacet
  facet normal -0.161736 -0.986834 0
    outer loop
      vertex 34.1454 81.03 0
      vertex 34.1454 81.03 9.5
      vertex 14.8038 84.2 9.5
    endloop
  endfacet
  facet normal -0.161736 -0.986834 0
    outer loop
      vertex 14.8038 84.2 0
      vertex 34.1454 81.03 0
      vertex 14.8038 84.2 9.5
    endloop
  endfacet
  facet normal 0 0 -1
    outer loop
      vertex 14.8038 84.2 0
      vertex 109.2 84.2 0
      vertex 34.1454 81.03 0
    endloop
  endfacet
  facet normal 0 0 -1
    outer loop
      vertex 34.1454 81.03 0
      vertex 109.2 84.2 0
      vertex 109.2 75 0
    endloop
  endfacet
  facet normal 0 0 -1
    outer loop
      vertex 109.2 75 0
      vertex 109.2 9.51437 0
      vertex 108.082 17.7141 0
    endloop
  endfacet
  facet normal 0 0 -1
    outer loop
      vertex 109.2 75 0
      vertex 108.082 17.7141 0
      vertex 100.944 34.654 0
    endloop
  endfacet
  facet normal 0 0 -1
    outer loop
      vertex 109.2 75 0
      vertex 100.944 34.654 0
      vertex 97.6 39.1199 0
    endloop
  endfacet
  facet normal 0 0 -1
    outer loop
      vertex 109.2 75 0
      vertex 97.6 39.1199 0
      vertex 97.6 72.6 0
    endloop
  endfacet
  facet normal 0 0 -1
    outer loop
      vertex 109.2 75 0
      vertex 97.6 72.6 0
      vertex 34.1454 81.03 0
    endloop
  endfacet
  facet normal 0 0 -1
    outer loop
      vertex 97.6 72.6 0
      vertex 57.3644 72.6 0
      vertex 55.2485 73.7854 0
    endloop
  endfacet
  facet normal 0 0 -1
    outer loop
      vertex 97.6 72.6 0
      vertex 55.2485 73.7854 0
      vertex 34.1454 81.03 0
    endloop
  endfacet
  facet normal 1 0 0
    outer loop
      vertex 109.2 75 9.5
      vertex 109.2 75 0
      vertex 109.2 84.2 0
    endloop
  endfacet
  facet normal 1 0 0
    outer loop
      vertex 109.2 84.2 9.5
      vertex 109.2 75 9.5
      vertex 109.2 84.2 0
    endloop
  endfacet
  facet normal 0 0 1
    outer loop
      vertex 100 75 9.5
      vertex 100 35.9146 9.5
      vertex 109.2 84.2 9.5
    endloop
  endfacet
  facet normal 0 0 1
    outer loop
      vertex 109.2 84.2 9.5
      vertex 14.8038 84.2 9.5
      vertex 34.1454 81.03 9.5
    endloop
  endfacet
  facet normal 0 0 1
    outer loop
      vertex 51.7103 75 9.5
      vertex 109.2 84.2 9.5
      vertex 34.1454 81.03 9.5
    endloop
  endfacet
  facet normal 0 0 1
    outer loop
      vertex 51.7103 75 9.5
      vertex 100 75 9.5
      vertex 109.2 84.2 9.5
    endloop
  endfacet
  facet normal 0 0 1
    outer loop
      vertex 100.944 34.654 9.5
      vertex 108.082 17.7141 9.5
      vertex 109.2 84.2 9.5
    endloop
  endfacet
  facet normal 0 0 1
    outer loop
      vertex 100 35.9146 9.5
      vertex 100.944 34.654 9.5
      vertex 109.2 84.2 9.5
    endloop
  endfacet
  facet normal 0 0 1
    outer loop
      vertex 108.082 17.7141 9.5
      vertex 109.2 75 9.5
      vertex 109.2 84.2 9.5
    endloop
  endfacet
  facet normal 0 0 1
    outer loop
      vertex 108.082 17.7141 9.5
      vertex 109.2 9.51437 9.5
      vertex 109.2 75 9.5
    endloop
  endfacet
  facet normal -0.324698 -0.945818 0
    outer loop
      vertex 55.2485 73.7854 0
      vertex 55.2485 73.7854 9.5
      vertex 52.657 74.675 9.5
    endloop
  endfacet
  facet normal -0.324698 -0.945818 0
    outer loop
      vertex 51.7103 75 7.5
      vertex 55.2485 73.7854 0
      vertex 52.657 74.675 7.5
    endloop
  endfacet
  facet normal -0.324698 -0.945818 0
    outer loop
      vertex 52.657 74.675 7.5
      vertex 55.2485 73.7854 0
      vertex 52.657 74.675 9.5
    endloop
  endfacet
  facet normal -0.324698 -0.945818 0
    outer loop
      vertex 34.1454 81.03 9.5
      vertex 55.2485 73.7854 0
      vertex 51.7103 75 7.5
    endloop
  endfacet
  facet normal -0.324698 -0.945818 0
    outer loop
      vertex 34.1454 81.03 9.5
      vertex 51.7103 75 7.5
      vertex 51.7103 75 9.5
    endloop
  endfacet
  facet normal -0.324698 -0.945818 0
    outer loop
      vertex 34.1454 81.03 0
      vertex 55.2485 73.7854 0
      vertex 34.1454 81.03 9.5
    endloop
  endfacet
  facet normal -0.488743 -0.872428 0
    outer loop
      vertex 73.9369 63.3159 9.5
      vertex 57.3644 72.6 2.2
      vertex 59.8635 71.2 2.2
    endloop
  endfacet
  facet normal -0.488743 -0.872428 0
    outer loop
      vertex 72.8959 63.8991 1.7875
      vertex 73.9369 63.3159 1.7875
      vertex 59.8635 71.2 2.2
    endloop
  endfacet
  facet normal -0.488743 -0.872428 0
    outer loop
      vertex 57.3644 72.6 0
      vertex 57.3644 72.6 2.2
      vertex 55.2485 73.7854 9.5
    endloop
  endfacet
  facet normal -0.488743 -0.872428 0
    outer loop
      vertex 59.8635 71.2 0
      vertex 72.8959 63.8991 0
      vertex 59.8635 71.2 2.2
    endloop
  endfacet
  facet normal -0.488743 -0.872428 0
    outer loop
      vertex 72.8959 63.8991 0
      vertex 72.8959 63.8991 1.7875
      vertex 59.8635 71.2 2.2
    endloop
  endfacet
  facet normal -0.488743 -0.872428 0
    outer loop
      vertex 73.9369 63.3159 1.7875
      vertex 73.9369 63.3159 9.5
      vertex 59.8635 71.2 2.2
    endloop
  endfacet
  facet normal -0.488743 -0.872428 0
    outer loop
      vertex 73.9369 63.3159 9.5
      vertex 55.2485 73.7854 9.5
      vertex 57.3644 72.6 2.2
    endloop
  endfacet
  facet normal -0.488743 -0.872428 0
    outer loop
      vertex 55.2485 73.7854 9.5
      vertex 55.2485 73.7854 0
      vertex 57.3644 72.6 0
    endloop
  endfacet
  facet normal 0 -1 0
    outer loop
      vertex 97.6 72.6 0
      vertex 97.6 72.6 2.2
      vertex 57.3644 72.6 2.2
    endloop
  endfacet
  facet normal 0 -1 0
    outer loop
      vertex 57.3644 72.6 0
      vertex 97.6 72.6 0
      vertex 57.3644 72.6 2.2
    endloop
  endfacet
  facet normal -1 0 0
    outer loop
      vertex 97.6 72.6 2.2
      vertex 97.6 72.6 0
      vertex 97.6 39.1199 2.2
    endloop
  endfacet
  facet normal -1 0 0
    outer loop
      vertex 97.6 39.1199 2.2
      vertex 97.6 72.6 0
      vertex 97.6 39.1199 0
    endloop
  endfacet
  facet normal -0.800471 -0.599371 0
    outer loop
      vertex 100.944 34.654 0
      vertex 97.6 39.1199 2.2
      vertex 97.6 39.1199 0
    endloop
  endfacet
  facet normal -0.800471 -0.599371 0
    outer loop
      vertex 100.944 34.654 9.5
      vertex 97.6 39.1199 2.2
      vertex 100.944 34.654 0
    endloop
  endfacet
  facet normal -0.800471 -0.599371 0
    outer loop
      vertex 100 35.9146 7.5
      vertex 97.6 39.1199 2.2
      vertex 100.944 34.654 9.5
    endloop
  endfacet
  facet normal -0.800471 -0.599371 0
    outer loop
      vertex 96.2 40.9896 2.2
      vertex 97.6 39.1199 2.2
      vertex 100 35.9146 7.5
    endloop
  endfacet
  facet normal -0.800471 -0.599371 0
    outer loop
      vertex 99.675 36.3487 9.5
      vertex 96.2 40.9896 2.2
      vertex 99.675 36.3487 7.5
    endloop
  endfacet
  facet normal -0.800471 -0.599371 0
    outer loop
      vertex 96.2 40.9896 2.2
      vertex 100 35.9146 7.5
      vertex 99.675 36.3487 7.5
    endloop
  endfacet
  facet normal -0.800471 -0.599371 0
    outer loop
      vertex 96.2 40.9896 2.2
      vertex 99.675 36.3487 9.5
      vertex 89.6966 49.675 9.5
    endloop
  endfacet
  facet normal -0.800471 -0.599371 0
    outer loop
      vertex 96.2 40.9896 2.2
      vertex 89.6966 49.675 9.5
      vertex 96.2 40.9896 0
    endloop
  endfacet
  facet normal -0.800471 -0.599371 0
    outer loop
      vertex 89.6966 49.675 9.5
      vertex 89.6966 49.675 7.5
      vertex 96.2 40.9896 0
    endloop
  endfacet
  facet normal -0.800471 -0.599371 0
    outer loop
      vertex 89.6966 49.675 7.5
      vertex 89.3939 50.0793 7.5
      vertex 96.2 40.9896 0
    endloop
  endfacet
  facet normal -0.800471 -0.599371 0
    outer loop
      vertex 89.3939 50.0793 7.5
      vertex 89.3939 50.0793 0
      vertex 96.2 40.9896 0
    endloop
  endfacet
  facet normal -0.800471 -0.599371 0
    outer loop
      vertex 100 35.9146 7.5
      vertex 100.944 34.654 9.5
      vertex 100 35.9146 9.5
    endloop
  endfacet
  facet normal -0.921523 -0.388323 0
    outer loop
      vertex 108.082 17.7141 9.5
      vertex 100.944 34.654 9.5
      vertex 108.082 17.7141 0
    endloop
  endfacet
  facet normal -0.921523 -0.388323 0
    outer loop
      vertex 108.082 17.7141 0
      vertex 100.944 34.654 9.5
      vertex 100.944 34.654 0
    endloop
  endfacet
  facet normal -0.990837 -0.135062 0
    outer loop
      vertex 109.2 9.51437 9.5
      vertex 108.082 17.7141 9.5
      vertex 109.2 9.51437 0
    endloop
  endfacet
  facet normal -0.990837 -0.135062 0
    outer loop
      vertex 109.2 9.51437 0
      vertex 108.082 17.7141 9.5
      vertex 108.082 17.7141 0
    endloop
  endfacet
  facet normal 1 0 0
    outer loop
      vertex 109.2 9.51437 9.5
      vertex 109.2 9.51437 0
      vertex 109.2 75 0
    endloop
  endfacet
  facet normal 1 0 0
    outer loop
      vertex 109.2 75 9.5
      vertex 109.2 9.51437 9.5
      vertex 109.2 75 0
    endloop
  endfacet
  facet normal -1 0 0
    outer loop
      vertex 100 75 9.5
      vertex 100 75 7.5
      vertex 100 35.9146 9.5
    endloop
  endfacet
  facet normal -1 0 0
    outer loop
      vertex 100 35.9146 9.5
      vertex 100 75 7.5
      vertex 100 35.9146 7.5
    endloop
  endfacet
  facet normal 0 -1 0
    outer loop
      vertex 100 75 7.5
      vertex 100 75 9.5
      vertex 51.7103 75 9.5
    endloop
  endfacet
  facet normal 0 -1 0
    outer loop
      vertex 51.7103 75 7.5
      vertex 100 75 7.5
      vertex 51.7103 75 9.5
    endloop
  endfacet
  facet normal 0 0 1
    outer loop
      vertex 99.675 74.675 7.5
      vertex 99.675 50.325 7.5
      vertex 100 75 7.5
    endloop
  endfacet
  facet normal 0 0 1
    outer loop
      vertex 100 75 7.5
      vertex 51.7103 75 7.5
      vertex 52.657 74.675 7.5
    endloop
  endfacet
  facet normal 0 0 1
    outer loop
      vertex 75.325 74.675 7.5
      vertex 100 75 7.5
      vertex 74.675 74.675 7.5
    endloop
  endfacet
  facet normal 0 0 1
    outer loop
      vertex 74.675 74.675 7.5
      vertex 100 75 7.5
      vertex 52.657 74.675 7.5
    endloop
  endfacet
  facet normal 0 0 1
    outer loop
      vertex 75.325 74.675 7.5
      vertex 99.675 74.675 7.5
      vertex 100 75 7.5
    endloop
  endfacet
  facet normal 0 0 1
    outer loop
      vertex 74.675 62.6838 7.5
      vertex 75.325 74.675 7.5
      vertex 74.675 74.675 7.5
    endloop
  endfacet
  facet normal 0 0 1
    outer loop
      vertex 99.675 50.325 7.5
      vertex 99.675 49.675 7.5
      vertex 100 75 7.5
    endloop
  endfacet
  facet normal 0 0 1
    outer loop
      vertex 89.3939 50.0793 7.5
      vertex 89.6966 49.675 7.5
      vertex 99.675 50.325 7.5
    endloop
  endfacet
  facet normal 0 0 1
    outer loop
      vertex 89.107 50.325 7.5
      vertex 89.3939 50.0793 7.5
      vertex 99.675 50.325 7.5
    endloop
  endfacet
  facet normal 0 0 1
    outer loop
      vertex 89.6966 49.675 7.5
      vertex 99.675 49.675 7.5
      vertex 99.675 50.325 7.5
    endloop
  endfacet
  facet normal 0 0 1
    outer loop
      vertex 99.675 49.675 7.5
      vertex 99.675 36.3487 7.5
      vertex 100 75 7.5
    endloop
  endfacet
  facet normal 0 0 1
    outer loop
      vertex 99.675 36.3487 7.5
      vertex 100 35.9146 7.5
      vertex 100 75 7.5
    endloop
  endfacet
  facet normal 0 0 1
    outer loop
      vertex 75.325 62.1272 7.5
      vertex 75.325 74.675 7.5
      vertex 74.675 62.6838 7.5
    endloop
  endfacet
  facet normal 0 1 0
    outer loop
      vertex 52.657 74.675 7.5
      vertex 52.657 74.675 9.5
      vertex 74.675 74.675 7.5
    endloop
  endfacet
  facet normal 0 1 0
    outer loop
      vertex 74.675 74.675 7.5
      vertex 52.657 74.675 9.5
      vertex 74.675 74.675 9.5
    endloop
  endfacet
  facet normal 0 0 1
    outer loop
      vertex 74.675 74.675 9.5
      vertex 52.657 74.675 9.5
      vertex 55.2485 73.7854 9.5
    endloop
  endfacet
  facet normal 0 0 1
    outer loop
      vertex 73.9369 63.3159 9.5
      vertex 74.675 74.675 9.5
      vertex 55.2485 73.7854 9.5
    endloop
  endfacet
  facet normal 0 0 1
    outer loop
      vertex 73.9369 63.3159 9.5
      vertex 74.675 62.6838 9.5
      vertex 74.675 74.675 9.5
    endloop
  endfacet
  facet normal -0.650445 -0.759554 0
    outer loop
      vertex 76.8734 60.8013 1.7875
      vertex 76.8734 60.8013 0
      vertex 89.3939 50.0793 0
    endloop
  endfacet
  facet normal -0.650445 -0.759554 0
    outer loop
      vertex 89.107 50.325 7.5
      vertex 76.8734 60.8013 1.7875
      vertex 89.3939 50.0793 7.5
    endloop
  endfacet
  facet normal -0.650445 -0.759554 0
    outer loop
      vertex 89.3939 50.0793 7.5
      vertex 76.8734 60.8013 1.7875
      vertex 89.3939 50.0793 0
    endloop
  endfacet
  facet normal -0.650445 -0.759554 0
    outer loop
      vertex 89.107 50.325 9.5
      vertex 76.8734 60.8013 1.7875
      vertex 89.107 50.325 7.5
    endloop
  endfacet
  facet normal -0.650445 -0.759554 0
    outer loop
      vertex 75.325 62.1272 9.5
      vertex 76.8734 60.8013 1.7875
      vertex 89.107 50.325 9.5
    endloop
  endfacet
  facet normal -0.650445 -0.759554 0
    outer loop
      vertex 73.9369 63.3159 9.5
      vertex 74.675 62.6838 7.5
      vertex 74.675 62.6838 9.5
    endloop
  endfacet
  facet normal -0.650445 -0.759554 0
    outer loop
      vertex 73.9369 63.3159 1.7875
      vertex 74.675 62.6838 7.5
      vertex 73.9369 63.3159 9.5
    endloop
  endfacet
  facet normal -0.650445 -0.759554 0
    outer loop
      vertex 73.9369 63.3159 1.7875
      vertex 75.325 62.1272 7.5
      vertex 74.675 62.6838 7.5
    endloop
  endfacet
  facet normal -0.650445 -0.759554 0
    outer loop
      vertex 75.325 62.1272 7.5
      vertex 76.8734 60.8013 1.7875
      vertex 75.325 62.1272 9.5
    endloop
  endfacet
  facet normal -0.650445 -0.759554 0
    outer loop
      vertex 73.9369 63.3159 1.7875
      vertex 76.8734 60.8013 1.7875
      vertex 75.325 62.1272 7.5
    endloop
  endfacet
  facet normal 0 0 -1
    outer loop
      vertex 73.1548 64.2328 1.7875
      vertex 73.3865 64.4504 1.7875
      vertex 72.9522 63.9878 1.7875
    endloop
  endfacet
  facet normal 0 0 -1
    outer loop
      vertex 72.9522 63.9878 1.7875
      vertex 73.3865 64.4504 1.7875
      vertex 73.6437 64.6372 1.7875
    endloop
  endfacet
  facet normal 0 0 -1
    outer loop
      vertex 72.9522 63.9878 1.7875
      vertex 73.6437 64.6372 1.7875
      vertex 73.9222 64.7903 1.7875
    endloop
  endfacet
  facet normal 0 0 -1
    outer loop
      vertex 72.9522 63.9878 1.7875
      vertex 73.9222 64.7903 1.7875
      vertex 74.2178 64.9074 1.7875
    endloop
  endfacet
  facet normal 0 0 -1
    outer loop
      vertex 72.9522 63.9878 1.7875
      vertex 74.2178 64.9074 1.7875
      vertex 74.5257 64.9864 1.7875
    endloop
  endfacet
  facet normal 0 0 -1
    outer loop
      vertex 72.9522 63.9878 1.7875
      vertex 74.5257 64.9864 1.7875
      vertex 74.8411 65.0263 1.7875
    endloop
  endfacet
  facet normal 0 0 -1
    outer loop
      vertex 72.9522 63.9878 1.7875
      vertex 74.8411 65.0263 1.7875
      vertex 75.1589 65.0263 1.7875
    endloop
  endfacet
  facet normal 0 0 -1
    outer loop
      vertex 72.9522 63.9878 1.7875
      vertex 75.1589 65.0263 1.7875
      vertex 75.4743 64.9864 1.7875
    endloop
  endfacet
  facet normal 0 0 -1
    outer loop
      vertex 72.9522 63.9878 1.7875
      vertex 75.4743 64.9864 1.7875
      vertex 75.7822 64.9074 1.7875
    endloop
  endfacet
  facet normal 0 0 -1
    outer loop
      vertex 72.9522 63.9878 1.7875
      vertex 75.7822 64.9074 1.7875
      vertex 76.0778 64.7903 1.7875
    endloop
  endfacet
  facet normal 0 0 -1
    outer loop
      vertex 72.9522 63.9878 1.7875
      vertex 76.0778 64.7903 1.7875
      vertex 76.3563 64.6372 1.7875
    endloop
  endfacet
  facet normal 0 0 -1
    outer loop
      vertex 72.9522 63.9878 1.7875
      vertex 76.3563 64.6372 1.7875
      vertex 76.6135 64.4504 1.7875
    endloop
  endfacet
  facet normal 0 0 -1
    outer loop
      vertex 72.9522 63.9878 1.7875
      vertex 76.6135 64.4504 1.7875
      vertex 76.8452 64.2328 1.7875
    endloop
  endfacet
  facet normal 0 0 -1
    outer loop
      vertex 72.9522 63.9878 1.7875
      vertex 76.8452 64.2328 1.7875
      vertex 77.0478 63.9878 1.7875
    endloop
  endfacet
  facet normal 0 0 -1
    outer loop
      vertex 72.9522 63.9878 1.7875
      vertex 77.0478 63.9878 1.7875
      vertex 77.2182 63.7194 1.7875
    endloop
  endfacet
  facet normal 0 0 -1
    outer loop
      vertex 72.9522 63.9878 1.7875
      vertex 77.2182 63.7194 1.7875
      vertex 77.3535 63.4318 1.7875
    endloop
  endfacet
  facet normal 0 0 -1
    outer loop
      vertex 72.9522 63.9878 1.7875
      vertex 77.3535 63.4318 1.7875
      vertex 77.4517 63.1295 1.7875
    endloop
  endfacet
  facet normal 0 0 -1
    outer loop
      vertex 72.9522 63.9878 1.7875
      vertex 77.4517 63.1295 1.7875
      vertex 77.5113 62.8172 1.7875
    endloop
  endfacet
  facet normal 0 0 -1
    outer loop
      vertex 72.9522 63.9878 1.7875
      vertex 77.5113 62.8172 1.7875
      vertex 77.5312 62.5 1.7875
    endloop
  endfacet
  facet normal 0 0 -1
    outer loop
      vertex 72.9522 63.9878 1.7875
      vertex 77.5312 62.5 1.7875
      vertex 77.5113 62.1827 1.7875
    endloop
  endfacet
  facet normal 0 0 -1
    outer loop
      vertex 72.9522 63.9878 1.7875
      vertex 77.5113 62.1827 1.7875
      vertex 77.4517 61.8705 1.7875
    endloop
  endfacet
  facet normal 0 0 -1
    outer loop
      vertex 72.9522 63.9878 1.7875
      vertex 77.4517 61.8705 1.7875
      vertex 77.3535 61.5682 1.7875
    endloop
  endfacet
  facet normal 0 0 -1
    outer loop
      vertex 72.9522 63.9878 1.7875
      vertex 77.3535 61.5682 1.7875
      vertex 77.2182 61.2806 1.7875
    endloop
  endfacet
  facet normal 0 0 -1
    outer loop
      vertex 73.9369 63.3159 1.7875
      vertex 77.2182 61.2806 1.7875
      vertex 77.0478 61.0122 1.7875
    endloop
  endfacet
  facet normal 0 0 -1
    outer loop
      vertex 72.9522 63.9878 1.7875
      vertex 77.2182 61.2806 1.7875
      vertex 73.9369 63.3159 1.7875
    endloop
  endfacet
  facet normal 0 0 -1
    outer loop
      vertex 72.8959 63.8991 1.7875
      vertex 72.9522 63.9878 1.7875
      vertex 73.9369 63.3159 1.7875
    endloop
  endfacet
  facet normal 0 0 -1
    outer loop
      vertex 73.9369 63.3159 1.7875
      vertex 77.0478 61.0122 1.7875
      vertex 76.8734 60.8013 1.7875
    endloop
  endfacet
  facet normal 0.844328 -0.535827 0
    outer loop
      vertex 72.9522 63.9878 0
      vertex 72.9522 63.9878 1.7875
      vertex 72.8959 63.8991 1.7875
    endloop
  endfacet
  facet normal 0.844328 -0.535827 0
    outer loop
      vertex 72.8959 63.8991 0
      vertex 72.9522 63.9878 0
      vertex 72.8959 63.8991 1.7875
    endloop
  endfacet
  facet normal 0 0 -1
    outer loop
      vertex 89.3939 50.0793 0
      vertex 96.2 71.2 0
      vertex 96.2 40.9896 0
    endloop
  endfacet
  facet normal 0 0 -1
    outer loop
      vertex 76.8734 60.8013 0
      vertex 96.2 71.2 0
      vertex 89.3939 50.0793 0
    endloop
  endfacet
  facet normal 0 0 -1
    outer loop
      vertex 77.0478 61.0122 0
      vertex 96.2 71.2 0
      vertex 76.8734 60.8013 0
    endloop
  endfacet
  facet normal 0 0 -1
    outer loop
      vertex 77.2182 61.2806 0
      vertex 96.2 71.2 0
      vertex 77.0478 61.0122 0
    endloop
  endfacet
  facet normal 0 0 -1
    outer loop
      vertex 77.3535 61.5682 0
      vertex 96.2 71.2 0
      vertex 77.2182 61.2806 0
    endloop
  endfacet
  facet normal 0 0 -1
    outer loop
      vertex 77.4517 61.8705 0
      vertex 96.2 71.2 0
      vertex 77.3535 61.5682 0
    endloop
  endfacet
  facet normal 0 0 -1
    outer loop
      vertex 77.5113 62.1827 0
      vertex 96.2 71.2 0
      vertex 77.4517 61.8705 0
    endloop
  endfacet
  facet normal 0 0 -1
    outer loop
      vertex 77.5312 62.5 0
      vertex 96.2 71.2 0
      vertex 77.5113 62.1827 0
    endloop
  endfacet
  facet normal 0 0 -1
    outer loop
      vertex 77.5113 62.8172 0
      vertex 96.2 71.2 0
      vertex 77.5312 62.5 0
    endloop
  endfacet
  facet normal 0 0 -1
    outer loop
      vertex 77.4517 63.1295 0
      vertex 96.2 71.2 0
      vertex 77.5113 62.8172 0
    endloop
  endfacet
  facet normal 0 0 -1
    outer loop
      vertex 77.3535 63.4318 0
      vertex 96.2 71.2 0
      vertex 77.4517 63.1295 0
    endloop
  endfacet
  facet normal 0 0 -1
    outer loop
      vertex 77.2182 63.7194 0
      vertex 96.2 71.2 0
      vertex 77.3535 63.4318 0
    endloop
  endfacet
  facet normal 0 0 -1
    outer loop
      vertex 77.0478 63.9878 0
      vertex 96.2 71.2 0
      vertex 77.2182 63.7194 0
    endloop
  endfacet
  facet normal 0 0 -1
    outer loop
      vertex 76.8452 64.2328 0
      vertex 96.2 71.2 0
      vertex 77.0478 63.9878 0
    endloop
  endfacet
  facet normal 0 0 -1
    outer loop
      vertex 76.6135 64.4504 0
      vertex 96.2 71.2 0
      vertex 76.8452 64.2328 0
    endloop
  endfacet
  facet normal 0 0 -1
    outer loop
      vertex 76.3563 64.6372 0
      vertex 96.2 71.2 0
      vertex 76.6135 64.4504 0
    endloop
  endfacet
  facet normal 0 0 -1
    outer loop
      vertex 76.0778 64.7903 0
      vertex 96.2 71.2 0
      vertex 76.3563 64.6372 0
    endloop
  endfacet
  facet normal 0 0 -1
    outer loop
      vertex 59.8635 71.2 0
      vertex 96.2 71.2 0
      vertex 75.7822 64.9074 0
    endloop
  endfacet
  facet normal 0 0 -1
    outer loop
      vertex 59.8635 71.2 0
      vertex 75.7822 64.9074 0
      vertex 75.4743 64.9864 0
    endloop
  endfacet
  facet normal 0 0 -1
    outer loop
      vertex 59.8635 71.2 0
      vertex 75.4743 64.9864 0
      vertex 75.1589 65.0263 0
    endloop
  endfacet
  facet normal 0 0 -1
    outer loop
      vertex 59.8635 71.2 0
      vertex 75.1589 65.0263 0
      vertex 74.8411 65.0263 0
    endloop
  endfacet
  facet normal 0 0 -1
    outer loop
      vertex 59.8635 71.2 0
      vertex 74.8411 65.0263 0
      vertex 74.5257 64.9864 0
    endloop
  endfacet
  facet normal 0 0 -1
    outer loop
      vertex 59.8635 71.2 0
      vertex 74.5257 64.9864 0
      vertex 74.2178 64.9074 0
    endloop
  endfacet
  facet normal 0 0 -1
    outer loop
      vertex 59.8635 71.2 0
      vertex 74.2178 64.9074 0
      vertex 73.9222 64.7903 0
    endloop
  endfacet
  facet normal 0 0 -1
    outer loop
      vertex 59.8635 71.2 0
      vertex 73.9222 64.7903 0
      vertex 73.6437 64.6372 0
    endloop
  endfacet
  facet normal 0 0 -1
    outer loop
      vertex 59.8635 71.2 0
      vertex 73.6437 64.6372 0
      vertex 73.3865 64.4504 0
    endloop
  endfacet
  facet normal 0 0 -1
    outer loop
      vertex 59.8635 71.2 0
      vertex 73.3865 64.4504 0
      vertex 73.1548 64.2328 0
    endloop
  endfacet
  facet normal 0 0 -1
    outer loop
      vertex 59.8635 71.2 0
      vertex 73.1548 64.2328 0
      vertex 72.9522 63.9878 0
    endloop
  endfacet
  facet normal 0 0 -1
    outer loop
      vertex 59.8635 71.2 0
      vertex 72.9522 63.9878 0
      vertex 72.8959 63.8991 0
    endloop
  endfacet
  facet normal 0 0 -1
    outer loop
      vertex 75.7822 64.9074 0
      vertex 96.2 71.2 0
      vertex 76.0778 64.7903 0
    endloop
  endfacet
  facet normal 0 1 0
    outer loop
      vertex 59.8635 71.2 0
      vertex 59.8635 71.2 2.2
      vertex 96.2 71.2 0
    endloop
  endfacet
  facet normal 0 1 0
    outer loop
      vertex 96.2 71.2 0
      vertex 59.8635 71.2 2.2
      vertex 96.2 71.2 2.2
    endloop
  endfacet
  facet normal 0 0 -1
    outer loop
      vertex 97.6 39.1199 2.2
      vertex 96.2 40.9896 2.2
      vertex 97.6 72.6 2.2
    endloop
  endfacet
  facet normal 0 0 -1
    outer loop
      vertex 97.6 72.6 2.2
      vertex 96.2 40.9896 2.2
      vertex 96.2 71.2 2.2
    endloop
  endfacet
  facet normal 0 0 -1
    outer loop
      vertex 97.6 72.6 2.2
      vertex 96.2 71.2 2.2
      vertex 59.8635 71.2 2.2
    endloop
  endfacet
  facet normal 0 0 -1
    outer loop
      vertex 59.8635 71.2 2.2
      vertex 57.3644 72.6 2.2
      vertex 97.6 72.6 2.2
    endloop
  endfacet
  facet normal 1 0 0
    outer loop
      vertex 96.2 40.9896 2.2
      vertex 96.2 40.9896 0
      vertex 96.2 71.2 0
    endloop
  endfacet
  facet normal 1 0 0
    outer loop
      vertex 96.2 71.2 2.2
      vertex 96.2 40.9896 2.2
      vertex 96.2 71.2 0
    endloop
  endfacet
  facet normal 0 1 0
    outer loop
      vertex 89.6966 49.675 7.5
      vertex 89.6966 49.675 9.5
      vertex 99.675 49.675 7.5
    endloop
  endfacet
  facet normal 0 1 0
    outer loop
      vertex 99.675 49.675 7.5
      vertex 89.6966 49.675 9.5
      vertex 99.675 49.675 9.5
    endloop
  endfacet
  facet normal 0 0 1
    outer loop
      vertex 99.675 49.675 9.5
      vertex 89.6966 49.675 9.5
      vertex 99.675 36.3487 9.5
    endloop
  endfacet
  facet normal 1 0 0
    outer loop
      vertex 99.675 36.3487 9.5
      vertex 99.675 36.3487 7.5
      vertex 99.675 49.675 7.5
    endloop
  endfacet
  facet normal 1 0 0
    outer loop
      vertex 99.675 49.675 9.5
      vertex 99.675 36.3487 9.5
      vertex 99.675 49.675 7.5
    endloop
  endfacet
  facet normal 0 -1 0
    outer loop
      vertex 89.107 50.325 9.5
      vertex 89.107 50.325 7.5
      vertex 99.675 50.325 7.5
    endloop
  endfacet
  facet normal 0 -1 0
    outer loop
      vertex 99.675 50.325 9.5
      vertex 89.107 50.325 9.5
      vertex 99.675 50.325 7.5
    endloop
  endfacet
  facet normal 1 0 0
    outer loop
      vertex 99.675 50.325 9.5
      vertex 99.675 50.325 7.5
      vertex 99.675 74.675 7.5
    endloop
  endfacet
  facet normal 1 0 0
    outer loop
      vertex 99.675 74.675 9.5
      vertex 99.675 50.325 9.5
      vertex 99.675 74.675 7.5
    endloop
  endfacet
  facet normal 0 1 0
    outer loop
      vertex 75.325 74.675 7.5
      vertex 75.325 74.675 9.5
      vertex 99.675 74.675 7.5
    endloop
  endfacet
  facet normal 0 1 0
    outer loop
      vertex 99.675 74.675 7.5
      vertex 75.325 74.675 9.5
      vertex 99.675 74.675 9.5
    endloop
  endfacet
  facet normal -1 0 0
    outer loop
      vertex 75.325 62.1272 7.5
      vertex 75.325 62.1272 9.5
      vertex 75.325 74.675 7.5
    endloop
  endfacet
  facet normal -1 0 0
    outer loop
      vertex 75.325 74.675 7.5
      vertex 75.325 62.1272 9.5
      vertex 75.325 74.675 9.5
    endloop
  endfacet
  facet normal 1 0 0
    outer loop
      vertex 74.675 62.6838 9.5
      vertex 74.675 62.6838 7.5
      vertex 74.675 74.675 7.5
    endloop
  endfacet
  facet normal 1 0 0
    outer loop
      vertex 74.675 74.675 9.5
      vertex 74.675 62.6838 9.5
      vertex 74.675 74.675 7.5
    endloop
  endfacet
  facet normal -0.770515 0.637422 0
    outer loop
      vertex 77.0478 61.0122 1.7875
      vertex 77.0478 61.0122 0
      vertex 76.8734 60.8013 1.7875
    endloop
  endfacet
  facet normal -0.770515 0.637422 0
    outer loop
      vertex 76.8734 60.8013 1.7875
      vertex 77.0478 61.0122 0
      vertex 76.8734 60.8013 0
    endloop
  endfacet
  facet normal 0 0 1
    outer loop
      vertex 75.325 74.675 9.5
      vertex 75.325 62.1272 9.5
      vertex 89.107 50.325 9.5
    endloop
  endfacet
  facet normal 0 0 1
    outer loop
      vertex 99.675 74.675 9.5
      vertex 75.325 74.675 9.5
      vertex 99.675 50.325 9.5
    endloop
  endfacet
  facet normal 0 0 1
    outer loop
      vertex 99.675 50.325 9.5
      vertex 75.325 74.675 9.5
      vertex 89.107 50.325 9.5
    endloop
  endfacet
  facet normal 0.770515 -0.637422 0
    outer loop
      vertex 73.1548 64.2328 0
      vertex 73.1548 64.2328 1.7875
      vertex 72.9522 63.9878 1.7875
    endloop
  endfacet
  facet normal 0.770515 -0.637422 0
    outer loop
      vertex 72.9522 63.9878 0
      vertex 73.1548 64.2328 0
      vertex 72.9522 63.9878 1.7875
    endloop
  endfacet
  facet normal -0.844328 0.535827 0
    outer loop
      vertex 77.2182 61.2806 1.7875
      vertex 77.2182 61.2806 0
      vertex 77.0478 61.0122 1.7875
    endloop
  endfacet
  facet normal -0.844328 0.535827 0
    outer loop
      vertex 77.0478 61.0122 1.7875
      vertex 77.2182 61.2806 0
      vertex 77.0478 61.0122 0
    endloop
  endfacet
  facet normal -0.904827 0.42578 0
    outer loop
      vertex 77.3535 61.5682 1.7875
      vertex 77.3535 61.5682 0
      vertex 77.2182 61.2806 1.7875
    endloop
  endfacet
  facet normal -0.904827 0.42578 0
    outer loop
      vertex 77.2182 61.2806 1.7875
      vertex 77.3535 61.5682 0
      vertex 77.2182 61.2806 0
    endloop
  endfacet
  facet normal -0.951057 0.309016 0
    outer loop
      vertex 77.4517 61.8705 1.7875
      vertex 77.4517 61.8705 0
      vertex 77.3535 61.5682 1.7875
    endloop
  endfacet
  facet normal -0.951057 0.309016 0
    outer loop
      vertex 77.3535 61.5682 1.7875
      vertex 77.4517 61.8705 0
      vertex 77.3535 61.5682 0
    endloop
  endfacet
  facet normal -0.982287 0.187381 0
    outer loop
      vertex 77.5113 62.1827 1.7875
      vertex 77.5113 62.1827 0
      vertex 77.4517 61.8705 1.7875
    endloop
  endfacet
  facet normal -0.982287 0.187381 0
    outer loop
      vertex 77.4517 61.8705 1.7875
      vertex 77.5113 62.1827 0
      vertex 77.4517 61.8705 0
    endloop
  endfacet
  facet normal -0.998027 0.0627915 0
    outer loop
      vertex 77.5312 62.5 1.7875
      vertex 77.5312 62.5 0
      vertex 77.5113 62.1827 1.7875
    endloop
  endfacet
  facet normal -0.998027 0.0627915 0
    outer loop
      vertex 77.5113 62.1827 1.7875
      vertex 77.5312 62.5 0
      vertex 77.5113 62.1827 0
    endloop
  endfacet
  facet normal -0.998027 -0.0627915 0
    outer loop
      vertex 77.5312 62.5 1.7875
      vertex 77.5113 62.8172 1.7875
      vertex 77.5312 62.5 0
    endloop
  endfacet
  facet normal -0.998027 -0.0627915 0
    outer loop
      vertex 77.5312 62.5 0
      vertex 77.5113 62.8172 1.7875
      vertex 77.5113 62.8172 0
    endloop
  endfacet
  facet normal -0.982287 -0.187381 0
    outer loop
      vertex 77.5113 62.8172 1.7875
      vertex 77.4517 63.1295 1.7875
      vertex 77.5113 62.8172 0
    endloop
  endfacet
  facet normal -0.982287 -0.187381 0
    outer loop
      vertex 77.5113 62.8172 0
      vertex 77.4517 63.1295 1.7875
      vertex 77.4517 63.1295 0
    endloop
  endfacet
  facet normal -0.951057 -0.309016 0
    outer loop
      vertex 77.4517 63.1295 1.7875
      vertex 77.3535 63.4318 1.7875
      vertex 77.4517 63.1295 0
    endloop
  endfacet
  facet normal -0.951057 -0.309016 0
    outer loop
      vertex 77.4517 63.1295 0
      vertex 77.3535 63.4318 1.7875
      vertex 77.3535 63.4318 0
    endloop
  endfacet
  facet normal -0.904827 -0.42578 0
    outer loop
      vertex 77.3535 63.4318 1.7875
      vertex 77.2182 63.7194 1.7875
      vertex 77.3535 63.4318 0
    endloop
  endfacet
  facet normal -0.904827 -0.42578 0
    outer loop
      vertex 77.3535 63.4318 0
      vertex 77.2182 63.7194 1.7875
      vertex 77.2182 63.7194 0
    endloop
  endfacet
  facet normal -0.844328 -0.535827 0
    outer loop
      vertex 77.2182 63.7194 1.7875
      vertex 77.0478 63.9878 1.7875
      vertex 77.2182 63.7194 0
    endloop
  endfacet
  facet normal -0.844328 -0.535827 0
    outer loop
      vertex 77.2182 63.7194 0
      vertex 77.0478 63.9878 1.7875
      vertex 77.0478 63.9878 0
    endloop
  endfacet
  facet normal -0.770515 -0.637422 0
    outer loop
      vertex 77.0478 63.9878 1.7875
      vertex 76.8452 64.2328 1.7875
      vertex 77.0478 63.9878 0
    endloop
  endfacet
  facet normal -0.770515 -0.637422 0
    outer loop
      vertex 77.0478 63.9878 0
      vertex 76.8452 64.2328 1.7875
      vertex 76.8452 64.2328 0
    endloop
  endfacet
  facet normal -0.684546 -0.728969 0
    outer loop
      vertex 76.8452 64.2328 0
      vertex 76.8452 64.2328 1.7875
      vertex 76.6135 64.4504 1.7875
    endloop
  endfacet
  facet normal -0.684546 -0.728969 0
    outer loop
      vertex 76.6135 64.4504 0
      vertex 76.8452 64.2328 0
      vertex 76.6135 64.4504 1.7875
    endloop
  endfacet
  facet normal -0.587786 -0.809017 0
    outer loop
      vertex 76.6135 64.4504 0
      vertex 76.6135 64.4504 1.7875
      vertex 76.3563 64.6372 1.7875
    endloop
  endfacet
  facet normal -0.587786 -0.809017 0
    outer loop
      vertex 76.3563 64.6372 0
      vertex 76.6135 64.4504 0
      vertex 76.3563 64.6372 1.7875
    endloop
  endfacet
  facet normal -0.481752 -0.876307 0
    outer loop
      vertex 76.3563 64.6372 0
      vertex 76.3563 64.6372 1.7875
      vertex 76.0778 64.7903 1.7875
    endloop
  endfacet
  facet normal -0.481752 -0.876307 0
    outer loop
      vertex 76.0778 64.7903 0
      vertex 76.3563 64.6372 0
      vertex 76.0778 64.7903 1.7875
    endloop
  endfacet
  facet normal -0.368126 -0.929776 0
    outer loop
      vertex 76.0778 64.7903 0
      vertex 76.0778 64.7903 1.7875
      vertex 75.7822 64.9074 1.7875
    endloop
  endfacet
  facet normal -0.368126 -0.929776 0
    outer loop
      vertex 75.7822 64.9074 0
      vertex 76.0778 64.7903 0
      vertex 75.7822 64.9074 1.7875
    endloop
  endfacet
  facet normal -0.248691 -0.968583 0
    outer loop
      vertex 75.7822 64.9074 0
      vertex 75.7822 64.9074 1.7875
      vertex 75.4743 64.9864 1.7875
    endloop
  endfacet
  facet normal -0.248691 -0.968583 0
    outer loop
      vertex 75.4743 64.9864 0
      vertex 75.7822 64.9074 0
      vertex 75.4743 64.9864 1.7875
    endloop
  endfacet
  facet normal -0.125332 -0.992115 0
    outer loop
      vertex 75.4743 64.9864 0
      vertex 75.4743 64.9864 1.7875
      vertex 75.1589 65.0263 1.7875
    endloop
  endfacet
  facet normal -0.125332 -0.992115 0
    outer loop
      vertex 75.1589 65.0263 0
      vertex 75.4743 64.9864 0
      vertex 75.1589 65.0263 1.7875
    endloop
  endfacet
  facet normal 0 -1 0
    outer loop
      vertex 75.1589 65.0263 0
      vertex 75.1589 65.0263 1.7875
      vertex 74.8411 65.0263 1.7875
    endloop
  endfacet
  facet normal 0 -1 0
    outer loop
      vertex 74.8411 65.0263 0
      vertex 75.1589 65.0263 0
      vertex 74.8411 65.0263 1.7875
    endloop
  endfacet
  facet normal 0.125332 -0.992115 0
    outer loop
      vertex 74.8411 65.0263 0
      vertex 74.8411 65.0263 1.7875
      vertex 74.5257 64.9864 1.7875
    endloop
  endfacet
  facet normal 0.125332 -0.992115 0
    outer loop
      vertex 74.5257 64.9864 0
      vertex 74.8411 65.0263 0
      vertex 74.5257 64.9864 1.7875
    endloop
  endfacet
  facet normal 0.248691 -0.968583 0
    outer loop
      vertex 74.5257 64.9864 0
      vertex 74.5257 64.9864 1.7875
      vertex 74.2178 64.9074 1.7875
    endloop
  endfacet
  facet normal 0.248691 -0.968583 0
    outer loop
      vertex 74.2178 64.9074 0
      vertex 74.5257 64.9864 0
      vertex 74.2178 64.9074 1.7875
    endloop
  endfacet
  facet normal 0.368126 -0.929776 0
    outer loop
      vertex 74.2178 64.9074 0
      vertex 74.2178 64.9074 1.7875
      vertex 73.9222 64.7903 1.7875
    endloop
  endfacet
  facet normal 0.368126 -0.929776 0
    outer loop
      vertex 73.9222 64.7903 0
      vertex 74.2178 64.9074 0
      vertex 73.9222 64.7903 1.7875
    endloop
  endfacet
  facet normal 0.481752 -0.876307 0
    outer loop
      vertex 73.9222 64.7903 0
      vertex 73.9222 64.7903 1.7875
      vertex 73.6437 64.6372 1.7875
    endloop
  endfacet
  facet normal 0.481752 -0.876307 0
    outer loop
      vertex 73.6437 64.6372 0
      vertex 73.9222 64.7903 0
      vertex 73.6437 64.6372 1.7875
    endloop
  endfacet
  facet normal 0.587786 -0.809017 0
    outer loop
      vertex 73.6437 64.6372 0
      vertex 73.6437 64.6372 1.7875
      vertex 73.3865 64.4504 1.7875
    endloop
  endfacet
  facet normal 0.587786 -0.809017 0
    outer loop
      vertex 73.3865 64.4504 0
      vertex 73.6437 64.6372 0
      vertex 73.3865 64.4504 1.7875
    endloop
  endfacet
  facet normal 0.684546 -0.728969 0
    outer loop
      vertex 73.3865 64.4504 0
      vertex 73.3865 64.4504 1.7875
      vertex 73.1548 64.2328 1.7875
    endloop
  endfacet
  facet normal 0.684546 -0.728969 0
    outer loop
      vertex 73.1548 64.2328 0
      vertex 73.3865 64.4504 0
      vertex 73.1548 64.2328 1.7875
    endloop
  endfacet
endsolid OpenSCAD_Model
