solid OpenSCAD_Model
  facet normal -1 0 0
    outer loop
      vertex 0 9.2 0
      vertex 0 9.2 49
      vertex 0 84.2 0
    endloop
  endfacet
  facet normal -1 0 0
    outer loop
      vertex 0 84.2 7.5
      vertex 0 9.2 49
      vertex 0 84.2 49
    endloop
  endfacet
  facet normal -1 0 0
    outer loop
      vertex 0 84.2 0
      vertex 0 9.2 49
      vertex 0 84.2 7.5
    endloop
  endfacet
  facet normal -0.707107 -0.707107 0
    outer loop
      vertex 9.2 0 49
      vertex 0 9.2 49
      vertex 9.2 0 7.5
    endloop
  endfacet
  facet normal -0.707107 -0.707107 0
    outer loop
      vertex 9.2 0 7.5
      vertex 0 9.2 49
      vertex 9.2 0 0
    endloop
  endfacet
  facet normal -0.707107 -0.707107 0
    outer loop
      vertex 9.2 0 0
      vertex 0 9.2 49
      vertex 0 9.2 0
    endloop
  endfacet
  facet normal 0 0 -1
    outer loop
      vertex 0 9.2 0
      vertex 0 84.2 0
      vertex 9.2 0 0
    endloop
  endfacet
  facet normal 0 0 -1
    outer loop
      vertex 11.6 72.6 0
      vertex 0 84.2 0
      vertex 43.4 84.2 0
    endloop
  endfacet
  facet normal 0 0 -1
    outer loop
      vertex 31.8 2.4 0
      vertex 43.4 84.2 0
      vertex 43.4 0 0
    endloop
  endfacet
  facet normal 0 0 -1
    outer loop
      vertex 9.2 0 0
      vertex 0 84.2 0
      vertex 11.6 72.6 0
    endloop
  endfacet
  facet normal 0 0 -1
    outer loop
      vertex 31.8 72.6 0
      vertex 11.6 72.6 0
      vertex 43.4 84.2 0
    endloop
  endfacet
  facet normal 0 0 -1
    outer loop
      vertex 31.8 72.6 0
      vertex 43.4 84.2 0
      vertex 31.8 2.4 0
    endloop
  endfacet
  facet normal 0 0 -1
    outer loop
      vertex 9.2 0 0
      vertex 11.6 2.4 0
      vertex 43.4 0 0
    endloop
  endfacet
  facet normal 0 0 -1
    outer loop
      vertex 11.6 2.4 0
      vertex 31.8 2.4 0
      vertex 43.4 0 0
    endloop
  endfacet
  facet normal 0 0 -1
    outer loop
      vertex 11.6 2.4 0
      vertex 9.2 0 0
      vertex 11.6 72.6 0
    endloop
  endfacet
  facet normal 0 1 0
    outer loop
      vertex 0 84.2 0
      vertex 0 84.2 7.5
      vertex 43.4 84.2 0
    endloop
  endfacet
  facet normal 0 1 0
    outer loop
      vertex 43.4 84.2 0
      vertex 0 84.2 7.5
      vertex 43.4 84.2 7.5
    endloop
  endfacet
  facet normal 0 1 0
    outer loop
      vertex 0 84.2 7.5
      vertex 0 84.2 49
      vertex 43.4 84.2 7.5
    endloop
  endfacet
  facet normal 0 1 0
    outer loop
      vertex 43.4 84.2 7.5
      vertex 0 84.2 49
      vertex 43.4 84.2 49
    endloop
  endfacet
  facet normal 0 0 1
    outer loop
      vertex 0 84.2 49
      vertex 0 9.2 49
      vertex 9.2 0 49
    endloop
  endfacet
  facet normal 0 0 1
    outer loop
      vertex 34.2 75 49
      vertex 0 84.2 49
      vertex 9.2 75 49
    endloop
  endfacet
  facet normal 0 0 1
    outer loop
      vertex 9.2 75 49
      vertex 0 84.2 49
      vertex 9.2 0 49
    endloop
  endfacet
  facet normal 0 0 1
    outer loop
      vertex 43.4 75 49
      vertex 0 84.2 49
      vertex 34.2 75 49
    endloop
  endfacet
  facet normal 0 0 1
    outer loop
      vertex 43.4 0 49
      vertex 34.2 75 49
      vertex 34.2 0 49
    endloop
  endfacet
  facet normal 0 0 1
    outer loop
      vertex 43.4 75 49
      vertex 34.2 75 49
      vertex 43.4 0 49
    endloop
  endfacet
  facet normal 0 0 1
    outer loop
      vertex 43.4 75 49
      vertex 43.4 84.2 49
      vertex 0 84.2 49
    endloop
  endfacet
  facet normal 0 -1 0
    outer loop
      vertex 9.2 0 7.5
      vertex 9.2 0 0
      vertex 43.4 0 0
    endloop
  endfacet
  facet normal 0 -1 0
    outer loop
      vertex 34.2 0 7.5
      vertex 9.2 0 7.5
      vertex 43.4 0 0
    endloop
  endfacet
  facet normal 0 -1 0
    outer loop
      vertex 43.4 0 7.5
      vertex 34.2 0 7.5
      vertex 43.4 0 0
    endloop
  endfacet
  facet normal 0 -1 0
    outer loop
      vertex 43.4 0 49
      vertex 34.2 0 7.5
      vertex 43.4 0 7.5
    endloop
  endfacet
  facet normal 0 -1 0
    outer loop
      vertex 34.2 0 49
      vertex 34.2 0 7.5
      vertex 43.4 0 49
    endloop
  endfacet
  facet normal 1 0 0
    outer loop
      vertex 9.2 0 49
      vertex 9.2 0 7.5
      vertex 9.2 75 7.5
    endloop
  endfacet
  facet normal 1 0 0
    outer loop
      vertex 9.2 75 49
      vertex 9.2 0 49
      vertex 9.2 75 7.5
    endloop
  endfacet
  facet normal 0 0 1
    outer loop
      vertex 9.525 0.325 7.5
      vertex 9.2 0 7.5
      vertex 34.2 0 7.5
    endloop
  endfacet
  facet normal 0 0 1
    outer loop
      vertex 33.875 0.325 7.5
      vertex 9.525 0.325 7.5
      vertex 34.2 0 7.5
    endloop
  endfacet
  facet normal 0 0 1
    outer loop
      vertex 9.2 75 7.5
      vertex 9.2 0 7.5
      vertex 9.525 0.325 7.5
    endloop
  endfacet
  facet normal 0 0 1
    outer loop
      vertex 9.2 75 7.5
      vertex 9.525 0.325 7.5
      vertex 9.525 24.675 7.5
    endloop
  endfacet
  facet normal 0 0 1
    outer loop
      vertex 34.2 75 7.5
      vertex 33.875 24.675 7.5
      vertex 34.2 0 7.5
    endloop
  endfacet
  facet normal 0 0 1
    outer loop
      vertex 33.875 25.325 7.5
      vertex 9.525 25.325 7.5
      vertex 33.875 24.675 7.5
    endloop
  endfacet
  facet normal 0 0 1
    outer loop
      vertex 9.2 75 7.5
      vertex 9.525 24.675 7.5
      vertex 9.525 25.325 7.5
    endloop
  endfacet
  facet normal 0 0 1
    outer loop
      vertex 9.2 75 7.5
      vertex 9.525 25.325 7.5
      vertex 9.525 49.675 7.5
    endloop
  endfacet
  facet normal 0 0 1
    outer loop
      vertex 9.525 50.325 7.5
      vertex 9.525 74.675 7.5
      vertex 9.2 75 7.5
    endloop
  endfacet
  facet normal 0 0 1
    outer loop
      vertex 34.2 75 7.5
      vertex 33.875 25.325 7.5
      vertex 33.875 24.675 7.5
    endloop
  endfacet
  facet normal 0 0 1
    outer loop
      vertex 34.2 75 7.5
      vertex 33.875 49.675 7.5
      vertex 33.875 25.325 7.5
    endloop
  endfacet
  facet normal 0 0 1
    outer loop
      vertex 33.875 24.675 7.5
      vertex 33.875 0.325 7.5
      vertex 34.2 0 7.5
    endloop
  endfacet
  facet normal 0 0 1
    outer loop
      vertex 9.2 75 7.5
      vertex 9.525 49.675 7.5
      vertex 9.525 50.325 7.5
    endloop
  endfacet
  facet normal 0 0 1
    outer loop
      vertex 34.2 75 7.5
      vertex 9.2 75 7.5
      vertex 9.525 74.675 7.5
    endloop
  endfacet
  facet normal 0 0 1
    outer loop
      vertex 34.2 75 7.5
      vertex 9.525 74.675 7.5
      vertex 33.875 74.675 7.5
    endloop
  endfacet
  facet normal 0 0 1
    outer loop
      vertex 34.2 75 7.5
      vertex 33.875 50.325 7.5
      vertex 33.875 49.675 7.5
    endloop
  endfacet
  facet normal 0 0 1
    outer loop
      vertex 34.2 75 7.5
      vertex 33.875 74.675 7.5
      vertex 33.875 50.325 7.5
    endloop
  endfacet
  facet normal 0 0 1
    outer loop
      vertex 33.875 50.325 7.5
      vertex 9.525 50.325 7.5
      vertex 33.875 49.675 7.5
    endloop
  endfacet
  facet normal 0 0 1
    outer loop
      vertex 9.525 49.675 7.5
      vertex 33.875 49.675 7.5
      vertex 9.525 50.325 7.5
    endloop
  endfacet
  facet normal 0 0 1
    outer loop
      vertex 9.525 24.675 7.5
      vertex 33.875 24.675 7.5
      vertex 9.525 25.325 7.5
    endloop
  endfacet
  facet normal 1 0 0
    outer loop
      vertex 43.4 0 7.5
      vertex 43.4 0 0
      vertex 43.4 84.2 0
    endloop
  endfacet
  facet normal 1 0 0
    outer loop
      vertex 43.4 75 7.5
      vertex 43.4 0 7.5
      vertex 43.4 84.2 0
    endloop
  endfacet
  facet normal 1 0 0
    outer loop
      vertex 43.4 84.2 7.5
      vertex 43.4 75 7.5
      vertex 43.4 84.2 0
    endloop
  endfacet
  facet normal 1 0 0
    outer loop
      vertex 43.4 84.2 49
      vertex 43.4 75 7.5
      vertex 43.4 84.2 7.5
    endloop
  endfacet
  facet normal 1 0 0
    outer loop
      vertex 43.4 75 49
      vertex 43.4 75 7.5
      vertex 43.4 84.2 49
    endloop
  endfacet
  facet normal 1 0 0
    outer loop
      vertex 11.6 72.6 0
      vertex 11.6 72.6 2.2
      vertex 11.6 2.4 2.2
    endloop
  endfacet
  facet normal 1 0 0
    outer loop
      vertex 11.6 2.4 0
      vertex 11.6 72.6 0
      vertex 11.6 2.4 2.2
    endloop
  endfacet
  facet normal 0 -1 0
    outer loop
      vertex 31.8 72.6 0
      vertex 31.8 72.6 2.2
      vertex 11.6 72.6 2.2
    endloop
  endfacet
  facet normal 0 -1 0
    outer loop
      vertex 11.6 72.6 0
      vertex 31.8 72.6 0
      vertex 11.6 72.6 2.2
    endloop
  endfacet
  facet normal -1 0 0
    outer loop
      vertex 31.8 72.6 2.2
      vertex 31.8 72.6 0
      vertex 31.8 2.4 2.2
    endloop
  endfacet
  facet normal -1 0 0
    outer loop
      vertex 31.8 2.4 2.2
      vertex 31.8 72.6 0
      vertex 31.8 2.4 0
    endloop
  endfacet
  facet normal 0 1 0
    outer loop
      vertex 31.8 2.4 2.2
      vertex 31.8 2.4 0
      vertex 11.6 2.4 2.2
    endloop
  endfacet
  facet normal 0 1 0
    outer loop
      vertex 11.6 2.4 2.2
      vertex 31.8 2.4 0
      vertex 11.6 2.4 0
    endloop
  endfacet
  facet normal 1 0 0
    outer loop
      vertex 43.4 0 49
      vertex 43.4 0 7.5
      vertex 43.4 75 7.5
    endloop
  endfacet
  facet normal 1 0 0
    outer loop
      vertex 43.4 75 49
      vertex 43.4 0 49
      vertex 43.4 75 7.5
    endloop
  endfacet
  facet normal -1 0 0
    outer loop
      vertex 34.2 0 7.5
      vertex 34.2 0 49
      vertex 34.2 75 7.5
    endloop
  endfacet
  facet normal -1 0 0
    outer loop
      vertex 34.2 75 7.5
      vertex 34.2 0 49
      vertex 34.2 75 49
    endloop
  endfacet
  facet normal 0 -1 0
    outer loop
      vertex 9.2 75 49
      vertex 9.2 75 7.5
      vertex 34.2 75 7.5
    endloop
  endfacet
  facet normal 0 -1 0
    outer loop
      vertex 34.2 75 49
      vertex 9.2 75 49
      vertex 34.2 75 7.5
    endloop
  endfacet
  facet normal -1 0 0
    outer loop
      vertex 9.525 0.325 7.5
      vertex 9.525 0.325 9.5
      vertex 9.525 24.675 7.5
    endloop
  endfacet
  facet normal -1 0 0
    outer loop
      vertex 9.525 24.675 7.5
      vertex 9.525 0.325 9.5
      vertex 9.525 24.675 9.5
    endloop
  endfacet
  facet normal 0 -1 0
    outer loop
      vertex 9.525 0.325 9.5
      vertex 9.525 0.325 7.5
      vertex 33.875 0.325 7.5
    endloop
  endfacet
  facet normal 0 -1 0
    outer loop
      vertex 33.875 0.325 9.5
      vertex 9.525 0.325 9.5
      vertex 33.875 0.325 7.5
    endloop
  endfacet
  facet normal 1 0 0
    outer loop
      vertex 33.875 0.325 9.5
      vertex 33.875 0.325 7.5
      vertex 33.875 24.675 7.5
    endloop
  endfacet
  facet normal 1 0 0
    outer loop
      vertex 33.875 24.675 9.5
      vertex 33.875 0.325 9.5
      vertex 33.875 24.675 7.5
    endloop
  endfacet
  facet normal 0 1 0
    outer loop
      vertex 9.525 24.675 7.5
      vertex 9.525 24.675 9.5
      vertex 33.875 24.675 7.5
    endloop
  endfacet
  facet normal 0 1 0
    outer loop
      vertex 33.875 24.675 7.5
      vertex 9.525 24.675 9.5
      vertex 33.875 24.675 9.5
    endloop
  endfacet
  facet normal -1 0 0
    outer loop
      vertex 9.525 25.325 7.5
      vertex 9.525 25.325 9.5
      vertex 9.525 49.675 7.5
    endloop
  endfacet
  facet normal -1 0 0
    outer loop
      vertex 9.525 49.675 7.5
      vertex 9.525 25.325 9.5
      vertex 9.525 49.675 9.5
    endloop
  endfacet
  facet normal 0 -1 0
    outer loop
      vertex 9.525 25.325 9.5
      vertex 9.525 25.325 7.5
      vertex 33.875 25.325 7.5
    endloop
  endfacet
  facet normal 0 -1 0
    outer loop
      vertex 33.875 25.325 9.5
      vertex 9.525 25.325 9.5
      vertex 33.875 25.325 7.5
    endloop
  endfacet
  facet normal 1 0 0
    outer loop
      vertex 33.875 25.325 9.5
      vertex 33.875 25.325 7.5
      vertex 33.875 49.675 7.5
    endloop
  endfacet
  facet normal 1 0 0
    outer loop
      vertex 33.875 49.675 9.5
      vertex 33.875 25.325 9.5
      vertex 33.875 49.675 7.5
    endloop
  endfacet
  facet normal 0 1 0
    outer loop
      vertex 9.525 49.675 7.5
      vertex 9.525 49.675 9.5
      vertex 33.875 49.675 7.5
    endloop
  endfacet
  facet normal 0 1 0
    outer loop
      vertex 33.875 49.675 7.5
      vertex 9.525 49.675 9.5
      vertex 33.875 49.675 9.5
    endloop
  endfacet
  facet normal -1 0 0
    outer loop
      vertex 9.525 50.325 7.5
      vertex 9.525 50.325 9.5
      vertex 9.525 74.675 7.5
    endloop
  endfacet
  facet normal -1 0 0
    outer loop
      vertex 9.525 74.675 7.5
      vertex 9.525 50.325 9.5
      vertex 9.525 74.675 9.5
    endloop
  endfacet
  facet normal 0 -1 0
    outer loop
      vertex 9.525 50.325 9.5
      vertex 9.525 50.325 7.5
      vertex 33.875 50.325 7.5
    endloop
  endfacet
  facet normal 0 -1 0
    outer loop
      vertex 33.875 50.325 9.5
      vertex 9.525 50.325 9.5
      vertex 33.875 50.325 7.5
    endloop
  endfacet
  facet normal 1 0 0
    outer loop
      vertex 33.875 50.325 9.5
      vertex 33.875 50.325 7.5
      vertex 33.875 74.675 7.5
    endloop
  endfacet
  facet normal 1 0 0
    outer loop
      vertex 33.875 74.675 9.5
      vertex 33.875 50.325 9.5
      vertex 33.875 74.675 7.5
    endloop
  endfacet
  facet normal 0 1 0
    outer loop
      vertex 9.525 74.675 7.5
      vertex 9.525 74.675 9.5
      vertex 33.875 74.675 7.5
    endloop
  endfacet
  facet normal 0 1 0
    outer loop
      vertex 33.875 74.675 7.5
      vertex 9.525 74.675 9.5
      vertex 33.875 74.675 9.5
    endloop
  endfacet
  facet normal 0 0 -1
    outer loop
      vertex 13 3.8 2.2
      vertex 31.8 2.4 2.2
      vertex 11.6 2.4 2.2
    endloop
  endfacet
  facet normal 0 0 -1
    outer loop
      vertex 30.4 3.8 2.2
      vertex 31.8 2.4 2.2
      vertex 13 3.8 2.2
    endloop
  endfacet
  facet normal 0 0 -1
    outer loop
      vertex 11.6 72.6 2.2
      vertex 13 3.8 2.2
      vertex 11.6 2.4 2.2
    endloop
  endfacet
  facet normal 0 0 -1
    outer loop
      vertex 30.4 71.2 2.2
      vertex 31.8 2.4 2.2
      vertex 30.4 3.8 2.2
    endloop
  endfacet
  facet normal 0 0 -1
    outer loop
      vertex 31.8 72.6 2.2
      vertex 31.8 2.4 2.2
      vertex 30.4 71.2 2.2
    endloop
  endfacet
  facet normal 0 0 -1
    outer loop
      vertex 31.8 72.6 2.2
      vertex 30.4 71.2 2.2
      vertex 11.6 72.6 2.2
    endloop
  endfacet
  facet normal 0 0 -1
    outer loop
      vertex 30.4 71.2 2.2
      vertex 13 71.2 2.2
      vertex 11.6 72.6 2.2
    endloop
  endfacet
  facet normal 0 0 -1
    outer loop
      vertex 13 3.8 2.2
      vertex 11.6 72.6 2.2
      vertex 13 71.2 2.2
    endloop
  endfacet
  facet normal 0 0 1
    outer loop
      vertex 9.525 24.675 9.5
      vertex 9.525 0.325 9.5
      vertex 33.875 0.325 9.5
    endloop
  endfacet
  facet normal 0 0 1
    outer loop
      vertex 33.875 24.675 9.5
      vertex 9.525 24.675 9.5
      vertex 33.875 0.325 9.5
    endloop
  endfacet
  facet normal 0 0 1
    outer loop
      vertex 9.525 49.675 9.5
      vertex 9.525 25.325 9.5
      vertex 33.875 25.325 9.5
    endloop
  endfacet
  facet normal 0 0 1
    outer loop
      vertex 33.875 49.675 9.5
      vertex 9.525 49.675 9.5
      vertex 33.875 25.325 9.5
    endloop
  endfacet
  facet normal 0 0 1
    outer loop
      vertex 9.525 74.675 9.5
      vertex 9.525 50.325 9.5
      vertex 33.875 50.325 9.5
    endloop
  endfacet
  facet normal 0 0 1
    outer loop
      vertex 33.875 74.675 9.5
      vertex 9.525 74.675 9.5
      vertex 33.875 50.325 9.5
    endloop
  endfacet
  facet normal -1 0 0
    outer loop
      vertex 13 3.8 0
      vertex 13 3.8 2.2
      vertex 13 71.2 0
    endloop
  endfacet
  facet normal -1 0 0
    outer loop
      vertex 13 71.2 0
      vertex 13 3.8 2.2
      vertex 13 71.2 2.2
    endloop
  endfacet
  facet normal 0 -1 0
    outer loop
      vertex 13 3.8 2.2
      vertex 13 3.8 0
      vertex 30.4 3.8 0
    endloop
  endfacet
  facet normal 0 -1 0
    outer loop
      vertex 30.4 3.8 2.2
      vertex 13 3.8 2.2
      vertex 30.4 3.8 0
    endloop
  endfacet
  facet normal 0 1 0
    outer loop
      vertex 13 71.2 0
      vertex 13 71.2 2.2
      vertex 30.4 71.2 0
    endloop
  endfacet
  facet normal 0 1 0
    outer loop
      vertex 30.4 71.2 0
      vertex 13 71.2 2.2
      vertex 30.4 71.2 2.2
    endloop
  endfacet
  facet normal 1 0 0
    outer loop
      vertex 30.4 3.8 2.2
      vertex 30.4 3.8 0
      vertex 30.4 71.2 0
    endloop
  endfacet
  facet normal 1 0 0
    outer loop
      vertex 30.4 71.2 2.2
      vertex 30.4 3.8 2.2
      vertex 30.4 71.2 0
    endloop
  endfacet
  facet normal 0 0 -1
    outer loop
      vertex 24.1517 13.1295 0
      vertex 13 71.2 0
      vertex 30.4 3.8 0
    endloop
  endfacet
  facet normal 0 0 -1
    outer loop
      vertex 22.1743 64.9864 0
      vertex 13 71.2 0
      vertex 30.4 71.2 0
    endloop
  endfacet
  facet normal 0 0 -1
    outer loop
      vertex 13 3.8 0
      vertex 13 71.2 0
      vertex 19.1687 12.5 0
    endloop
  endfacet
  facet normal 0 0 -1
    outer loop
      vertex 13 3.8 0
      vertex 19.1687 12.5 0
      vertex 19.1887 12.1827 0
    endloop
  endfacet
  facet normal 0 0 -1
    outer loop
      vertex 13 3.8 0
      vertex 19.1887 12.1827 0
      vertex 19.2483 11.8705 0
    endloop
  endfacet
  facet normal 0 0 -1
    outer loop
      vertex 13 3.8 0
      vertex 19.2483 11.8705 0
      vertex 19.3465 11.5682 0
    endloop
  endfacet
  facet normal 0 0 -1
    outer loop
      vertex 13 3.8 0
      vertex 19.3465 11.5682 0
      vertex 19.4818 11.2806 0
    endloop
  endfacet
  facet normal 0 0 -1
    outer loop
      vertex 13 3.8 0
      vertex 19.4818 11.2806 0
      vertex 19.6522 11.0122 0
    endloop
  endfacet
  facet normal 0 0 -1
    outer loop
      vertex 13 3.8 0
      vertex 19.6522 11.0122 0
      vertex 19.8548 10.7672 0
    endloop
  endfacet
  facet normal 0 0 -1
    outer loop
      vertex 13 3.8 0
      vertex 19.8548 10.7672 0
      vertex 20.0865 10.5496 0
    endloop
  endfacet
  facet normal 0 0 -1
    outer loop
      vertex 13 3.8 0
      vertex 20.0865 10.5496 0
      vertex 20.3437 10.3628 0
    endloop
  endfacet
  facet normal 0 0 -1
    outer loop
      vertex 13 3.8 0
      vertex 20.3437 10.3628 0
      vertex 30.4 3.8 0
    endloop
  endfacet
  facet normal 0 0 -1
    outer loop
      vertex 20.9178 10.0926 0
      vertex 30.4 3.8 0
      vertex 20.6222 10.2097 0
    endloop
  endfacet
  facet normal 0 0 -1
    outer loop
      vertex 21.2257 10.0136 0
      vertex 30.4 3.8 0
      vertex 20.9178 10.0926 0
    endloop
  endfacet
  facet normal 0 0 -1
    outer loop
      vertex 21.5411 9.97374 0
      vertex 30.4 3.8 0
      vertex 21.2257 10.0136 0
    endloop
  endfacet
  facet normal 0 0 -1
    outer loop
      vertex 21.8589 9.97374 0
      vertex 30.4 3.8 0
      vertex 21.5411 9.97374 0
    endloop
  endfacet
  facet normal 0 0 -1
    outer loop
      vertex 22.1743 10.0136 0
      vertex 30.4 3.8 0
      vertex 21.8589 9.97374 0
    endloop
  endfacet
  facet normal 0 0 -1
    outer loop
      vertex 22.4822 10.0926 0
      vertex 30.4 3.8 0
      vertex 22.1743 10.0136 0
    endloop
  endfacet
  facet normal 0 0 -1
    outer loop
      vertex 19.3465 61.5682 0
      vertex 30.4 3.8 0
      vertex 19.2483 61.8705 0
    endloop
  endfacet
  facet normal 0 0 -1
    outer loop
      vertex 24.0535 13.4318 0
      vertex 13 71.2 0
      vertex 24.1517 13.1295 0
    endloop
  endfacet
  facet normal 0 0 -1
    outer loop
      vertex 21.5411 15.0263 0
      vertex 13 71.2 0
      vertex 21.8589 15.0263 0
    endloop
  endfacet
  facet normal 0 0 -1
    outer loop
      vertex 22.4822 10.0926 0
      vertex 22.7778 10.2097 0
      vertex 30.4 3.8 0
    endloop
  endfacet
  facet normal 0 0 -1
    outer loop
      vertex 21.8589 15.0263 0
      vertex 13 71.2 0
      vertex 22.1743 14.9864 0
    endloop
  endfacet
  facet normal 0 0 -1
    outer loop
      vertex 22.7778 10.2097 0
      vertex 23.0563 10.3628 0
      vertex 30.4 3.8 0
    endloop
  endfacet
  facet normal 0 0 -1
    outer loop
      vertex 22.1743 14.9864 0
      vertex 13 71.2 0
      vertex 22.4822 14.9074 0
    endloop
  endfacet
  facet normal 0 0 -1
    outer loop
      vertex 23.0563 10.3628 0
      vertex 23.3135 10.5496 0
      vertex 30.4 3.8 0
    endloop
  endfacet
  facet normal 0 0 -1
    outer loop
      vertex 22.4822 14.9074 0
      vertex 13 71.2 0
      vertex 22.7778 14.7903 0
    endloop
  endfacet
  facet normal 0 0 -1
    outer loop
      vertex 23.3135 10.5496 0
      vertex 23.5452 10.7672 0
      vertex 30.4 3.8 0
    endloop
  endfacet
  facet normal 0 0 -1
    outer loop
      vertex 22.7778 14.7903 0
      vertex 13 71.2 0
      vertex 23.0563 14.6372 0
    endloop
  endfacet
  facet normal 0 0 -1
    outer loop
      vertex 23.5452 10.7672 0
      vertex 23.7478 11.0122 0
      vertex 30.4 3.8 0
    endloop
  endfacet
  facet normal 0 0 -1
    outer loop
      vertex 23.0563 14.6372 0
      vertex 13 71.2 0
      vertex 23.3135 14.4504 0
    endloop
  endfacet
  facet normal 0 0 -1
    outer loop
      vertex 23.7478 11.0122 0
      vertex 23.9182 11.2806 0
      vertex 30.4 3.8 0
    endloop
  endfacet
  facet normal 0 0 -1
    outer loop
      vertex 23.3135 14.4504 0
      vertex 13 71.2 0
      vertex 23.5452 14.2328 0
    endloop
  endfacet
  facet normal 0 0 -1
    outer loop
      vertex 23.9182 11.2806 0
      vertex 24.0535 11.5682 0
      vertex 30.4 3.8 0
    endloop
  endfacet
  facet normal 0 0 -1
    outer loop
      vertex 23.5452 14.2328 0
      vertex 13 71.2 0
      vertex 23.7478 13.9878 0
    endloop
  endfacet
  facet normal 0 0 -1
    outer loop
      vertex 24.0535 11.5682 0
      vertex 24.1517 11.8705 0
      vertex 30.4 3.8 0
    endloop
  endfacet
  facet normal 0 0 -1
    outer loop
      vertex 23.7478 13.9878 0
      vertex 13 71.2 0
      vertex 23.9182 13.7194 0
    endloop
  endfacet
  facet normal 0 0 -1
    outer loop
      vertex 24.1517 11.8705 0
      vertex 24.2113 12.1827 0
      vertex 30.4 3.8 0
    endloop
  endfacet
  facet normal 0 0 -1
    outer loop
      vertex 24.2113 12.1827 0
      vertex 24.2312 12.5 0
      vertex 30.4 3.8 0
    endloop
  endfacet
  facet normal 0 0 -1
    outer loop
      vertex 23.9182 13.7194 0
      vertex 13 71.2 0
      vertex 24.0535 13.4318 0
    endloop
  endfacet
  facet normal 0 0 -1
    outer loop
      vertex 24.2312 12.5 0
      vertex 24.2113 12.8172 0
      vertex 30.4 3.8 0
    endloop
  endfacet
  facet normal 0 0 -1
    outer loop
      vertex 24.2113 12.8172 0
      vertex 24.1517 13.1295 0
      vertex 30.4 3.8 0
    endloop
  endfacet
  facet normal 0 0 -1
    outer loop
      vertex 21.2257 14.9864 0
      vertex 13 71.2 0
      vertex 21.5411 15.0263 0
    endloop
  endfacet
  facet normal 0 0 -1
    outer loop
      vertex 20.9178 14.9074 0
      vertex 13 71.2 0
      vertex 21.2257 14.9864 0
    endloop
  endfacet
  facet normal 0 0 -1
    outer loop
      vertex 20.6222 14.7903 0
      vertex 13 71.2 0
      vertex 20.9178 14.9074 0
    endloop
  endfacet
  facet normal 0 0 -1
    outer loop
      vertex 20.3437 14.6372 0
      vertex 13 71.2 0
      vertex 20.6222 14.7903 0
    endloop
  endfacet
  facet normal 0 0 -1
    outer loop
      vertex 20.0865 14.4504 0
      vertex 13 71.2 0
      vertex 20.3437 14.6372 0
    endloop
  endfacet
  facet normal 0 0 -1
    outer loop
      vertex 19.8548 14.2328 0
      vertex 13 71.2 0
      vertex 20.0865 14.4504 0
    endloop
  endfacet
  facet normal 0 0 -1
    outer loop
      vertex 19.6522 13.9878 0
      vertex 13 71.2 0
      vertex 19.8548 14.2328 0
    endloop
  endfacet
  facet normal 0 0 -1
    outer loop
      vertex 19.4818 13.7194 0
      vertex 13 71.2 0
      vertex 19.6522 13.9878 0
    endloop
  endfacet
  facet normal 0 0 -1
    outer loop
      vertex 19.3465 13.4318 0
      vertex 13 71.2 0
      vertex 19.4818 13.7194 0
    endloop
  endfacet
  facet normal 0 0 -1
    outer loop
      vertex 19.2483 13.1295 0
      vertex 13 71.2 0
      vertex 19.3465 13.4318 0
    endloop
  endfacet
  facet normal 0 0 -1
    outer loop
      vertex 19.1887 12.8172 0
      vertex 13 71.2 0
      vertex 19.2483 13.1295 0
    endloop
  endfacet
  facet normal 0 0 -1
    outer loop
      vertex 19.1687 12.5 0
      vertex 13 71.2 0
      vertex 19.1887 12.8172 0
    endloop
  endfacet
  facet normal 0 0 -1
    outer loop
      vertex 19.1887 62.1827 0
      vertex 13 71.2 0
      vertex 19.1687 62.5 0
    endloop
  endfacet
  facet normal 0 0 -1
    outer loop
      vertex 19.2483 61.8705 0
      vertex 13 71.2 0
      vertex 19.1887 62.1827 0
    endloop
  endfacet
  facet normal 0 0 -1
    outer loop
      vertex 30.4 3.8 0
      vertex 13 71.2 0
      vertex 19.2483 61.8705 0
    endloop
  endfacet
  facet normal 0 0 -1
    outer loop
      vertex 19.4818 61.2806 0
      vertex 30.4 3.8 0
      vertex 19.3465 61.5682 0
    endloop
  endfacet
  facet normal 0 0 -1
    outer loop
      vertex 24.0535 61.5682 0
      vertex 30.4 71.2 0
      vertex 23.9182 61.2806 0
    endloop
  endfacet
  facet normal 0 0 -1
    outer loop
      vertex 30.4 3.8 0
      vertex 19.4818 61.2806 0
      vertex 19.6522 61.0122 0
    endloop
  endfacet
  facet normal 0 0 -1
    outer loop
      vertex 30.4 3.8 0
      vertex 19.6522 61.0122 0
      vertex 19.8548 60.7672 0
    endloop
  endfacet
  facet normal 0 0 -1
    outer loop
      vertex 30.4 3.8 0
      vertex 19.8548 60.7672 0
      vertex 20.0865 60.5496 0
    endloop
  endfacet
  facet normal 0 0 -1
    outer loop
      vertex 30.4 3.8 0
      vertex 20.0865 60.5496 0
      vertex 20.3437 60.3628 0
    endloop
  endfacet
  facet normal 0 0 -1
    outer loop
      vertex 30.4 3.8 0
      vertex 20.3437 60.3628 0
      vertex 20.6222 60.2097 0
    endloop
  endfacet
  facet normal 0 0 -1
    outer loop
      vertex 30.4 3.8 0
      vertex 20.6222 60.2097 0
      vertex 20.9178 60.0926 0
    endloop
  endfacet
  facet normal 0 0 -1
    outer loop
      vertex 30.4 3.8 0
      vertex 20.9178 60.0926 0
      vertex 21.2257 60.0136 0
    endloop
  endfacet
  facet normal 0 0 -1
    outer loop
      vertex 30.4 3.8 0
      vertex 21.2257 60.0136 0
      vertex 21.5411 59.9737 0
    endloop
  endfacet
  facet normal 0 0 -1
    outer loop
      vertex 30.4 3.8 0
      vertex 21.5411 59.9737 0
      vertex 21.8589 59.9737 0
    endloop
  endfacet
  facet normal 0 0 -1
    outer loop
      vertex 30.4 3.8 0
      vertex 21.8589 59.9737 0
      vertex 22.1743 60.0136 0
    endloop
  endfacet
  facet normal 0 0 -1
    outer loop
      vertex 30.4 3.8 0
      vertex 22.1743 60.0136 0
      vertex 22.4822 60.0926 0
    endloop
  endfacet
  facet normal 0 0 -1
    outer loop
      vertex 30.4 3.8 0
      vertex 22.4822 60.0926 0
      vertex 22.7778 60.2097 0
    endloop
  endfacet
  facet normal 0 0 -1
    outer loop
      vertex 30.4 3.8 0
      vertex 22.7778 60.2097 0
      vertex 23.0563 60.3628 0
    endloop
  endfacet
  facet normal 0 0 -1
    outer loop
      vertex 30.4 3.8 0
      vertex 23.0563 60.3628 0
      vertex 23.3135 60.5496 0
    endloop
  endfacet
  facet normal 0 0 -1
    outer loop
      vertex 30.4 3.8 0
      vertex 23.3135 60.5496 0
      vertex 23.5452 60.7672 0
    endloop
  endfacet
  facet normal 0 0 -1
    outer loop
      vertex 30.4 3.8 0
      vertex 23.5452 60.7672 0
      vertex 23.7478 61.0122 0
    endloop
  endfacet
  facet normal 0 0 -1
    outer loop
      vertex 30.4 3.8 0
      vertex 23.7478 61.0122 0
      vertex 30.4 71.2 0
    endloop
  endfacet
  facet normal 0 0 -1
    outer loop
      vertex 23.7478 61.0122 0
      vertex 23.9182 61.2806 0
      vertex 30.4 71.2 0
    endloop
  endfacet
  facet normal 0 0 -1
    outer loop
      vertex 24.1517 61.8705 0
      vertex 30.4 71.2 0
      vertex 24.0535 61.5682 0
    endloop
  endfacet
  facet normal 0 0 -1
    outer loop
      vertex 24.2113 62.1827 0
      vertex 30.4 71.2 0
      vertex 24.1517 61.8705 0
    endloop
  endfacet
  facet normal 0 0 -1
    outer loop
      vertex 24.2312 62.5 0
      vertex 30.4 71.2 0
      vertex 24.2113 62.1827 0
    endloop
  endfacet
  facet normal 0 0 -1
    outer loop
      vertex 24.2113 62.8172 0
      vertex 30.4 71.2 0
      vertex 24.2312 62.5 0
    endloop
  endfacet
  facet normal 0 0 -1
    outer loop
      vertex 24.1517 63.1295 0
      vertex 30.4 71.2 0
      vertex 24.2113 62.8172 0
    endloop
  endfacet
  facet normal 0 0 -1
    outer loop
      vertex 24.0535 63.4318 0
      vertex 30.4 71.2 0
      vertex 24.1517 63.1295 0
    endloop
  endfacet
  facet normal 0 0 -1
    outer loop
      vertex 23.9182 63.7194 0
      vertex 30.4 71.2 0
      vertex 24.0535 63.4318 0
    endloop
  endfacet
  facet normal 0 0 -1
    outer loop
      vertex 23.7478 63.9878 0
      vertex 30.4 71.2 0
      vertex 23.9182 63.7194 0
    endloop
  endfacet
  facet normal 0 0 -1
    outer loop
      vertex 23.5452 64.2328 0
      vertex 30.4 71.2 0
      vertex 23.7478 63.9878 0
    endloop
  endfacet
  facet normal 0 0 -1
    outer loop
      vertex 23.3135 64.4504 0
      vertex 30.4 71.2 0
      vertex 23.5452 64.2328 0
    endloop
  endfacet
  facet normal 0 0 -1
    outer loop
      vertex 23.0563 64.6372 0
      vertex 30.4 71.2 0
      vertex 23.3135 64.4504 0
    endloop
  endfacet
  facet normal 0 0 -1
    outer loop
      vertex 22.1743 64.9864 0
      vertex 30.4 71.2 0
      vertex 22.4822 64.9074 0
    endloop
  endfacet
  facet normal 0 0 -1
    outer loop
      vertex 23.0563 64.6372 0
      vertex 22.7778 64.7903 0
      vertex 30.4 71.2 0
    endloop
  endfacet
  facet normal 0 0 -1
    outer loop
      vertex 22.7778 64.7903 0
      vertex 22.4822 64.9074 0
      vertex 30.4 71.2 0
    endloop
  endfacet
  facet normal 0 0 -1
    outer loop
      vertex 21.8589 65.0263 0
      vertex 13 71.2 0
      vertex 22.1743 64.9864 0
    endloop
  endfacet
  facet normal 0 0 -1
    outer loop
      vertex 21.5411 65.0263 0
      vertex 13 71.2 0
      vertex 21.8589 65.0263 0
    endloop
  endfacet
  facet normal 0 0 -1
    outer loop
      vertex 21.2257 64.9864 0
      vertex 13 71.2 0
      vertex 21.5411 65.0263 0
    endloop
  endfacet
  facet normal 0 0 -1
    outer loop
      vertex 20.9178 64.9074 0
      vertex 13 71.2 0
      vertex 21.2257 64.9864 0
    endloop
  endfacet
  facet normal 0 0 -1
    outer loop
      vertex 20.6222 64.7903 0
      vertex 13 71.2 0
      vertex 20.9178 64.9074 0
    endloop
  endfacet
  facet normal 0 0 -1
    outer loop
      vertex 20.3437 64.6372 0
      vertex 13 71.2 0
      vertex 20.6222 64.7903 0
    endloop
  endfacet
  facet normal 0 0 -1
    outer loop
      vertex 20.0865 64.4504 0
      vertex 13 71.2 0
      vertex 20.3437 64.6372 0
    endloop
  endfacet
  facet normal 0 0 -1
    outer loop
      vertex 19.8548 64.2328 0
      vertex 13 71.2 0
      vertex 20.0865 64.4504 0
    endloop
  endfacet
  facet normal 0 0 -1
    outer loop
      vertex 19.6522 63.9878 0
      vertex 13 71.2 0
      vertex 19.8548 64.2328 0
    endloop
  endfacet
  facet normal 0 0 -1
    outer loop
      vertex 19.4818 63.7194 0
      vertex 13 71.2 0
      vertex 19.6522 63.9878 0
    endloop
  endfacet
  facet normal 0 0 -1
    outer loop
      vertex 19.3465 63.4318 0
      vertex 13 71.2 0
      vertex 19.4818 63.7194 0
    endloop
  endfacet
  facet normal 0 0 -1
    outer loop
      vertex 19.2483 63.1295 0
      vertex 13 71.2 0
      vertex 19.3465 63.4318 0
    endloop
  endfacet
  facet normal 0 0 -1
    outer loop
      vertex 19.1887 62.8172 0
      vertex 13 71.2 0
      vertex 19.2483 63.1295 0
    endloop
  endfacet
  facet normal 0 0 -1
    outer loop
      vertex 19.1687 62.5 0
      vertex 13 71.2 0
      vertex 19.1887 62.8172 0
    endloop
  endfacet
  facet normal 0 0 -1
    outer loop
      vertex 20.6222 10.2097 0
      vertex 30.4 3.8 0
      vertex 20.3437 10.3628 0
    endloop
  endfacet
  facet normal 0.998027 -0.0627915 0
    outer loop
      vertex 19.1887 12.8172 0
      vertex 19.1887 12.8172 1.7875
      vertex 19.1687 12.5 1.7875
    endloop
  endfacet
  facet normal 0.998027 -0.0627915 0
    outer loop
      vertex 19.1687 12.5 0
      vertex 19.1887 12.8172 0
      vertex 19.1687 12.5 1.7875
    endloop
  endfacet
  facet normal 0.998027 0.0627915 0
    outer loop
      vertex 19.1687 12.5 1.7875
      vertex 19.1887 12.1827 1.7875
      vertex 19.1887 12.1827 0
    endloop
  endfacet
  facet normal 0.998027 0.0627915 0
    outer loop
      vertex 19.1687 12.5 0
      vertex 19.1687 12.5 1.7875
      vertex 19.1887 12.1827 0
    endloop
  endfacet
  facet normal 0.982287 -0.187381 0
    outer loop
      vertex 19.2483 13.1295 0
      vertex 19.2483 13.1295 1.7875
      vertex 19.1887 12.8172 1.7875
    endloop
  endfacet
  facet normal 0.982287 -0.187381 0
    outer loop
      vertex 19.1887 12.8172 0
      vertex 19.2483 13.1295 0
      vertex 19.1887 12.8172 1.7875
    endloop
  endfacet
  facet normal 0.951057 -0.309016 0
    outer loop
      vertex 19.3465 13.4318 0
      vertex 19.3465 13.4318 1.7875
      vertex 19.2483 13.1295 1.7875
    endloop
  endfacet
  facet normal 0.951057 -0.309016 0
    outer loop
      vertex 19.2483 13.1295 0
      vertex 19.3465 13.4318 0
      vertex 19.2483 13.1295 1.7875
    endloop
  endfacet
  facet normal 0.904827 -0.42578 0
    outer loop
      vertex 19.4818 13.7194 0
      vertex 19.4818 13.7194 1.7875
      vertex 19.3465 13.4318 1.7875
    endloop
  endfacet
  facet normal 0.904827 -0.42578 0
    outer loop
      vertex 19.3465 13.4318 0
      vertex 19.4818 13.7194 0
      vertex 19.3465 13.4318 1.7875
    endloop
  endfacet
  facet normal 0.844328 -0.535827 0
    outer loop
      vertex 19.6522 13.9878 0
      vertex 19.6522 13.9878 1.7875
      vertex 19.4818 13.7194 1.7875
    endloop
  endfacet
  facet normal 0.844328 -0.535827 0
    outer loop
      vertex 19.4818 13.7194 0
      vertex 19.6522 13.9878 0
      vertex 19.4818 13.7194 1.7875
    endloop
  endfacet
  facet normal 0.770515 -0.637422 0
    outer loop
      vertex 19.8548 14.2328 0
      vertex 19.8548 14.2328 1.7875
      vertex 19.6522 13.9878 1.7875
    endloop
  endfacet
  facet normal 0.770515 -0.637422 0
    outer loop
      vertex 19.6522 13.9878 0
      vertex 19.8548 14.2328 0
      vertex 19.6522 13.9878 1.7875
    endloop
  endfacet
  facet normal 0.684546 -0.728969 0
    outer loop
      vertex 20.0865 14.4504 0
      vertex 20.0865 14.4504 1.7875
      vertex 19.8548 14.2328 1.7875
    endloop
  endfacet
  facet normal 0.684546 -0.728969 0
    outer loop
      vertex 19.8548 14.2328 0
      vertex 20.0865 14.4504 0
      vertex 19.8548 14.2328 1.7875
    endloop
  endfacet
  facet normal 0.587786 -0.809017 0
    outer loop
      vertex 20.3437 14.6372 0
      vertex 20.3437 14.6372 1.7875
      vertex 20.0865 14.4504 1.7875
    endloop
  endfacet
  facet normal 0.587786 -0.809017 0
    outer loop
      vertex 20.0865 14.4504 0
      vertex 20.3437 14.6372 0
      vertex 20.0865 14.4504 1.7875
    endloop
  endfacet
  facet normal 0.481752 -0.876307 0
    outer loop
      vertex 20.6222 14.7903 0
      vertex 20.6222 14.7903 1.7875
      vertex 20.3437 14.6372 1.7875
    endloop
  endfacet
  facet normal 0.481752 -0.876307 0
    outer loop
      vertex 20.3437 14.6372 0
      vertex 20.6222 14.7903 0
      vertex 20.3437 14.6372 1.7875
    endloop
  endfacet
  facet normal 0.368126 -0.929776 0
    outer loop
      vertex 20.9178 14.9074 0
      vertex 20.9178 14.9074 1.7875
      vertex 20.6222 14.7903 1.7875
    endloop
  endfacet
  facet normal 0.368126 -0.929776 0
    outer loop
      vertex 20.6222 14.7903 0
      vertex 20.9178 14.9074 0
      vertex 20.6222 14.7903 1.7875
    endloop
  endfacet
  facet normal 0.248691 -0.968583 0
    outer loop
      vertex 21.2257 14.9864 0
      vertex 21.2257 14.9864 1.7875
      vertex 20.9178 14.9074 1.7875
    endloop
  endfacet
  facet normal 0.248691 -0.968583 0
    outer loop
      vertex 20.9178 14.9074 0
      vertex 21.2257 14.9864 0
      vertex 20.9178 14.9074 1.7875
    endloop
  endfacet
  facet normal 0.125332 -0.992115 0
    outer loop
      vertex 21.5411 15.0263 0
      vertex 21.5411 15.0263 1.7875
      vertex 21.2257 14.9864 1.7875
    endloop
  endfacet
  facet normal 0.125332 -0.992115 0
    outer loop
      vertex 21.2257 14.9864 0
      vertex 21.5411 15.0263 0
      vertex 21.2257 14.9864 1.7875
    endloop
  endfacet
  facet normal 0 -1 0
    outer loop
      vertex 21.8589 15.0263 0
      vertex 21.8589 15.0263 1.7875
      vertex 21.5411 15.0263 1.7875
    endloop
  endfacet
  facet normal 0 -1 0
    outer loop
      vertex 21.5411 15.0263 0
      vertex 21.8589 15.0263 0
      vertex 21.5411 15.0263 1.7875
    endloop
  endfacet
  facet normal -0.125332 -0.992115 0
    outer loop
      vertex 22.1743 14.9864 0
      vertex 22.1743 14.9864 1.7875
      vertex 21.8589 15.0263 1.7875
    endloop
  endfacet
  facet normal -0.125332 -0.992115 0
    outer loop
      vertex 21.8589 15.0263 0
      vertex 22.1743 14.9864 0
      vertex 21.8589 15.0263 1.7875
    endloop
  endfacet
  facet normal -0.248691 -0.968583 0
    outer loop
      vertex 22.4822 14.9074 0
      vertex 22.4822 14.9074 1.7875
      vertex 22.1743 14.9864 1.7875
    endloop
  endfacet
  facet normal -0.248691 -0.968583 0
    outer loop
      vertex 22.1743 14.9864 0
      vertex 22.4822 14.9074 0
      vertex 22.1743 14.9864 1.7875
    endloop
  endfacet
  facet normal -0.368126 -0.929776 0
    outer loop
      vertex 22.7778 14.7903 0
      vertex 22.7778 14.7903 1.7875
      vertex 22.4822 14.9074 1.7875
    endloop
  endfacet
  facet normal -0.368126 -0.929776 0
    outer loop
      vertex 22.4822 14.9074 0
      vertex 22.7778 14.7903 0
      vertex 22.4822 14.9074 1.7875
    endloop
  endfacet
  facet normal -0.481752 -0.876307 0
    outer loop
      vertex 23.0563 14.6372 0
      vertex 23.0563 14.6372 1.7875
      vertex 22.7778 14.7903 1.7875
    endloop
  endfacet
  facet normal -0.481752 -0.876307 0
    outer loop
      vertex 22.7778 14.7903 0
      vertex 23.0563 14.6372 0
      vertex 22.7778 14.7903 1.7875
    endloop
  endfacet
  facet normal -0.587786 -0.809017 0
    outer loop
      vertex 23.3135 14.4504 0
      vertex 23.3135 14.4504 1.7875
      vertex 23.0563 14.6372 1.7875
    endloop
  endfacet
  facet normal -0.587786 -0.809017 0
    outer loop
      vertex 23.0563 14.6372 0
      vertex 23.3135 14.4504 0
      vertex 23.0563 14.6372 1.7875
    endloop
  endfacet
  facet normal -0.684546 -0.728969 0
    outer loop
      vertex 23.5452 14.2328 0
      vertex 23.5452 14.2328 1.7875
      vertex 23.3135 14.4504 1.7875
    endloop
  endfacet
  facet normal -0.684546 -0.728969 0
    outer loop
      vertex 23.3135 14.4504 0
      vertex 23.5452 14.2328 0
      vertex 23.3135 14.4504 1.7875
    endloop
  endfacet
  facet normal -0.770515 -0.637422 0
    outer loop
      vertex 23.7478 13.9878 1.7875
      vertex 23.5452 14.2328 1.7875
      vertex 23.7478 13.9878 0
    endloop
  endfacet
  facet normal -0.770515 -0.637422 0
    outer loop
      vertex 23.7478 13.9878 0
      vertex 23.5452 14.2328 1.7875
      vertex 23.5452 14.2328 0
    endloop
  endfacet
  facet normal -0.844328 -0.535827 0
    outer loop
      vertex 23.9182 13.7194 1.7875
      vertex 23.7478 13.9878 1.7875
      vertex 23.9182 13.7194 0
    endloop
  endfacet
  facet normal -0.844328 -0.535827 0
    outer loop
      vertex 23.9182 13.7194 0
      vertex 23.7478 13.9878 1.7875
      vertex 23.7478 13.9878 0
    endloop
  endfacet
  facet normal -0.904827 -0.42578 0
    outer loop
      vertex 24.0535 13.4318 1.7875
      vertex 23.9182 13.7194 1.7875
      vertex 24.0535 13.4318 0
    endloop
  endfacet
  facet normal -0.904827 -0.42578 0
    outer loop
      vertex 24.0535 13.4318 0
      vertex 23.9182 13.7194 1.7875
      vertex 23.9182 13.7194 0
    endloop
  endfacet
  facet normal -0.951057 -0.309016 0
    outer loop
      vertex 24.1517 13.1295 1.7875
      vertex 24.0535 13.4318 1.7875
      vertex 24.1517 13.1295 0
    endloop
  endfacet
  facet normal -0.951057 -0.309016 0
    outer loop
      vertex 24.1517 13.1295 0
      vertex 24.0535 13.4318 1.7875
      vertex 24.0535 13.4318 0
    endloop
  endfacet
  facet normal -0.982287 -0.187381 0
    outer loop
      vertex 24.2113 12.8172 1.7875
      vertex 24.1517 13.1295 1.7875
      vertex 24.2113 12.8172 0
    endloop
  endfacet
  facet normal -0.982287 -0.187381 0
    outer loop
      vertex 24.2113 12.8172 0
      vertex 24.1517 13.1295 1.7875
      vertex 24.1517 13.1295 0
    endloop
  endfacet
  facet normal -0.998027 -0.0627915 0
    outer loop
      vertex 24.2312 12.5 1.7875
      vertex 24.2113 12.8172 1.7875
      vertex 24.2312 12.5 0
    endloop
  endfacet
  facet normal -0.998027 -0.0627915 0
    outer loop
      vertex 24.2312 12.5 0
      vertex 24.2113 12.8172 1.7875
      vertex 24.2113 12.8172 0
    endloop
  endfacet
  facet normal -0.998027 0.0627915 0
    outer loop
      vertex 24.2312 12.5 1.7875
      vertex 24.2312 12.5 0
      vertex 24.2113 12.1827 1.7875
    endloop
  endfacet
  facet normal -0.998027 0.0627915 0
    outer loop
      vertex 24.2113 12.1827 1.7875
      vertex 24.2312 12.5 0
      vertex 24.2113 12.1827 0
    endloop
  endfacet
  facet normal -0.982287 0.187381 0
    outer loop
      vertex 24.2113 12.1827 1.7875
      vertex 24.2113 12.1827 0
      vertex 24.1517 11.8705 1.7875
    endloop
  endfacet
  facet normal -0.982287 0.187381 0
    outer loop
      vertex 24.1517 11.8705 1.7875
      vertex 24.2113 12.1827 0
      vertex 24.1517 11.8705 0
    endloop
  endfacet
  facet normal -0.951057 0.309016 0
    outer loop
      vertex 24.1517 11.8705 1.7875
      vertex 24.1517 11.8705 0
      vertex 24.0535 11.5682 1.7875
    endloop
  endfacet
  facet normal -0.951057 0.309016 0
    outer loop
      vertex 24.0535 11.5682 1.7875
      vertex 24.1517 11.8705 0
      vertex 24.0535 11.5682 0
    endloop
  endfacet
  facet normal -0.904827 0.42578 0
    outer loop
      vertex 24.0535 11.5682 1.7875
      vertex 24.0535 11.5682 0
      vertex 23.9182 11.2806 1.7875
    endloop
  endfacet
  facet normal -0.904827 0.42578 0
    outer loop
      vertex 23.9182 11.2806 1.7875
      vertex 24.0535 11.5682 0
      vertex 23.9182 11.2806 0
    endloop
  endfacet
  facet normal -0.844328 0.535827 0
    outer loop
      vertex 23.9182 11.2806 1.7875
      vertex 23.9182 11.2806 0
      vertex 23.7478 11.0122 1.7875
    endloop
  endfacet
  facet normal -0.844328 0.535827 0
    outer loop
      vertex 23.7478 11.0122 1.7875
      vertex 23.9182 11.2806 0
      vertex 23.7478 11.0122 0
    endloop
  endfacet
  facet normal -0.770515 0.637422 0
    outer loop
      vertex 23.7478 11.0122 1.7875
      vertex 23.7478 11.0122 0
      vertex 23.5452 10.7672 1.7875
    endloop
  endfacet
  facet normal -0.770515 0.637422 0
    outer loop
      vertex 23.5452 10.7672 1.7875
      vertex 23.7478 11.0122 0
      vertex 23.5452 10.7672 0
    endloop
  endfacet
  facet normal -0.684546 0.728969 0
    outer loop
      vertex 23.5452 10.7672 1.7875
      vertex 23.5452 10.7672 0
      vertex 23.3135 10.5496 1.7875
    endloop
  endfacet
  facet normal -0.684546 0.728969 0
    outer loop
      vertex 23.3135 10.5496 1.7875
      vertex 23.5452 10.7672 0
      vertex 23.3135 10.5496 0
    endloop
  endfacet
  facet normal -0.587786 0.809017 0
    outer loop
      vertex 23.3135 10.5496 1.7875
      vertex 23.3135 10.5496 0
      vertex 23.0563 10.3628 1.7875
    endloop
  endfacet
  facet normal -0.587786 0.809017 0
    outer loop
      vertex 23.0563 10.3628 1.7875
      vertex 23.3135 10.5496 0
      vertex 23.0563 10.3628 0
    endloop
  endfacet
  facet normal -0.481752 0.876307 0
    outer loop
      vertex 23.0563 10.3628 1.7875
      vertex 23.0563 10.3628 0
      vertex 22.7778 10.2097 1.7875
    endloop
  endfacet
  facet normal -0.481752 0.876307 0
    outer loop
      vertex 22.7778 10.2097 1.7875
      vertex 23.0563 10.3628 0
      vertex 22.7778 10.2097 0
    endloop
  endfacet
  facet normal -0.368126 0.929776 0
    outer loop
      vertex 22.7778 10.2097 1.7875
      vertex 22.7778 10.2097 0
      vertex 22.4822 10.0926 1.7875
    endloop
  endfacet
  facet normal -0.368126 0.929776 0
    outer loop
      vertex 22.4822 10.0926 1.7875
      vertex 22.7778 10.2097 0
      vertex 22.4822 10.0926 0
    endloop
  endfacet
  facet normal -0.248691 0.968583 0
    outer loop
      vertex 22.4822 10.0926 1.7875
      vertex 22.4822 10.0926 0
      vertex 22.1743 10.0136 1.7875
    endloop
  endfacet
  facet normal -0.248691 0.968583 0
    outer loop
      vertex 22.1743 10.0136 1.7875
      vertex 22.4822 10.0926 0
      vertex 22.1743 10.0136 0
    endloop
  endfacet
  facet normal -0.125332 0.992115 0
    outer loop
      vertex 22.1743 10.0136 1.7875
      vertex 22.1743 10.0136 0
      vertex 21.8589 9.97374 1.7875
    endloop
  endfacet
  facet normal -0.125332 0.992115 0
    outer loop
      vertex 21.8589 9.97374 1.7875
      vertex 22.1743 10.0136 0
      vertex 21.8589 9.97374 0
    endloop
  endfacet
  facet normal 0 1 0
    outer loop
      vertex 21.8589 9.97374 1.7875
      vertex 21.8589 9.97374 0
      vertex 21.5411 9.97374 1.7875
    endloop
  endfacet
  facet normal 0 1 0
    outer loop
      vertex 21.5411 9.97374 1.7875
      vertex 21.8589 9.97374 0
      vertex 21.5411 9.97374 0
    endloop
  endfacet
  facet normal 0.125332 0.992115 0
    outer loop
      vertex 21.5411 9.97374 1.7875
      vertex 21.5411 9.97374 0
      vertex 21.2257 10.0136 1.7875
    endloop
  endfacet
  facet normal 0.125332 0.992115 0
    outer loop
      vertex 21.2257 10.0136 1.7875
      vertex 21.5411 9.97374 0
      vertex 21.2257 10.0136 0
    endloop
  endfacet
  facet normal 0.248691 0.968583 0
    outer loop
      vertex 21.2257 10.0136 1.7875
      vertex 21.2257 10.0136 0
      vertex 20.9178 10.0926 1.7875
    endloop
  endfacet
  facet normal 0.248691 0.968583 0
    outer loop
      vertex 20.9178 10.0926 1.7875
      vertex 21.2257 10.0136 0
      vertex 20.9178 10.0926 0
    endloop
  endfacet
  facet normal 0.368126 0.929776 0
    outer loop
      vertex 20.9178 10.0926 1.7875
      vertex 20.9178 10.0926 0
      vertex 20.6222 10.2097 1.7875
    endloop
  endfacet
  facet normal 0.368126 0.929776 0
    outer loop
      vertex 20.6222 10.2097 1.7875
      vertex 20.9178 10.0926 0
      vertex 20.6222 10.2097 0
    endloop
  endfacet
  facet normal 0.481752 0.876307 0
    outer loop
      vertex 20.6222 10.2097 1.7875
      vertex 20.6222 10.2097 0
      vertex 20.3437 10.3628 1.7875
    endloop
  endfacet
  facet normal 0.481752 0.876307 0
    outer loop
      vertex 20.3437 10.3628 1.7875
      vertex 20.6222 10.2097 0
      vertex 20.3437 10.3628 0
    endloop
  endfacet
  facet normal 0.587786 0.809017 0
    outer loop
      vertex 20.3437 10.3628 1.7875
      vertex 20.3437 10.3628 0
      vertex 20.0865 10.5496 1.7875
    endloop
  endfacet
  facet normal 0.587786 0.809017 0
    outer loop
      vertex 20.0865 10.5496 1.7875
      vertex 20.3437 10.3628 0
      vertex 20.0865 10.5496 0
    endloop
  endfacet
  facet normal 0.684546 0.728969 0
    outer loop
      vertex 20.0865 10.5496 1.7875
      vertex 20.0865 10.5496 0
      vertex 19.8548 10.7672 1.7875
    endloop
  endfacet
  facet normal 0.684546 0.728969 0
    outer loop
      vertex 19.8548 10.7672 1.7875
      vertex 20.0865 10.5496 0
      vertex 19.8548 10.7672 0
    endloop
  endfacet
  facet normal 0.770515 0.637422 0
    outer loop
      vertex 19.6522 11.0122 1.7875
      vertex 19.8548 10.7672 1.7875
      vertex 19.8548 10.7672 0
    endloop
  endfacet
  facet normal 0.770515 0.637422 0
    outer loop
      vertex 19.6522 11.0122 0
      vertex 19.6522 11.0122 1.7875
      vertex 19.8548 10.7672 0
    endloop
  endfacet
  facet normal 0.844328 0.535827 0
    outer loop
      vertex 19.4818 11.2806 1.7875
      vertex 19.6522 11.0122 1.7875
      vertex 19.6522 11.0122 0
    endloop
  endfacet
  facet normal 0.844328 0.535827 0
    outer loop
      vertex 19.4818 11.2806 0
      vertex 19.4818 11.2806 1.7875
      vertex 19.6522 11.0122 0
    endloop
  endfacet
  facet normal 0.904827 0.42578 0
    outer loop
      vertex 19.3465 11.5682 1.7875
      vertex 19.4818 11.2806 1.7875
      vertex 19.4818 11.2806 0
    endloop
  endfacet
  facet normal 0.904827 0.42578 0
    outer loop
      vertex 19.3465 11.5682 0
      vertex 19.3465 11.5682 1.7875
      vertex 19.4818 11.2806 0
    endloop
  endfacet
  facet normal 0.951057 0.309016 0
    outer loop
      vertex 19.2483 11.8705 1.7875
      vertex 19.3465 11.5682 1.7875
      vertex 19.3465 11.5682 0
    endloop
  endfacet
  facet normal 0.951057 0.309016 0
    outer loop
      vertex 19.2483 11.8705 0
      vertex 19.2483 11.8705 1.7875
      vertex 19.3465 11.5682 0
    endloop
  endfacet
  facet normal 0.982287 0.187381 0
    outer loop
      vertex 19.1887 12.1827 1.7875
      vertex 19.2483 11.8705 1.7875
      vertex 19.2483 11.8705 0
    endloop
  endfacet
  facet normal 0.982287 0.187381 0
    outer loop
      vertex 19.1887 12.1827 0
      vertex 19.1887 12.1827 1.7875
      vertex 19.2483 11.8705 0
    endloop
  endfacet
  facet normal 0.998027 -0.0627915 0
    outer loop
      vertex 19.1887 62.8172 0
      vertex 19.1887 62.8172 1.7875
      vertex 19.1687 62.5 1.7875
    endloop
  endfacet
  facet normal 0.998027 -0.0627915 0
    outer loop
      vertex 19.1687 62.5 0
      vertex 19.1887 62.8172 0
      vertex 19.1687 62.5 1.7875
    endloop
  endfacet
  facet normal 0.998027 0.0627915 0
    outer loop
      vertex 19.1687 62.5 1.7875
      vertex 19.1887 62.1827 1.7875
      vertex 19.1887 62.1827 0
    endloop
  endfacet
  facet normal 0.998027 0.0627915 0
    outer loop
      vertex 19.1687 62.5 0
      vertex 19.1687 62.5 1.7875
      vertex 19.1887 62.1827 0
    endloop
  endfacet
  facet normal 0.982287 -0.187381 0
    outer loop
      vertex 19.2483 63.1295 0
      vertex 19.2483 63.1295 1.7875
      vertex 19.1887 62.8172 1.7875
    endloop
  endfacet
  facet normal 0.982287 -0.187381 0
    outer loop
      vertex 19.1887 62.8172 0
      vertex 19.2483 63.1295 0
      vertex 19.1887 62.8172 1.7875
    endloop
  endfacet
  facet normal 0.951057 -0.309016 0
    outer loop
      vertex 19.3465 63.4318 0
      vertex 19.3465 63.4318 1.7875
      vertex 19.2483 63.1295 1.7875
    endloop
  endfacet
  facet normal 0.951057 -0.309016 0
    outer loop
      vertex 19.2483 63.1295 0
      vertex 19.3465 63.4318 0
      vertex 19.2483 63.1295 1.7875
    endloop
  endfacet
  facet normal 0.904827 -0.42578 0
    outer loop
      vertex 19.4818 63.7194 0
      vertex 19.4818 63.7194 1.7875
      vertex 19.3465 63.4318 1.7875
    endloop
  endfacet
  facet normal 0.904827 -0.42578 0
    outer loop
      vertex 19.3465 63.4318 0
      vertex 19.4818 63.7194 0
      vertex 19.3465 63.4318 1.7875
    endloop
  endfacet
  facet normal 0.844328 -0.535827 0
    outer loop
      vertex 19.6522 63.9878 0
      vertex 19.6522 63.9878 1.7875
      vertex 19.4818 63.7194 1.7875
    endloop
  endfacet
  facet normal 0.844328 -0.535827 0
    outer loop
      vertex 19.4818 63.7194 0
      vertex 19.6522 63.9878 0
      vertex 19.4818 63.7194 1.7875
    endloop
  endfacet
  facet normal 0.770515 -0.637422 0
    outer loop
      vertex 19.8548 64.2328 0
      vertex 19.8548 64.2328 1.7875
      vertex 19.6522 63.9878 1.7875
    endloop
  endfacet
  facet normal 0.770515 -0.637422 0
    outer loop
      vertex 19.6522 63.9878 0
      vertex 19.8548 64.2328 0
      vertex 19.6522 63.9878 1.7875
    endloop
  endfacet
  facet normal 0.684546 -0.728969 0
    outer loop
      vertex 20.0865 64.4504 0
      vertex 20.0865 64.4504 1.7875
      vertex 19.8548 64.2328 1.7875
    endloop
  endfacet
  facet normal 0.684546 -0.728969 0
    outer loop
      vertex 19.8548 64.2328 0
      vertex 20.0865 64.4504 0
      vertex 19.8548 64.2328 1.7875
    endloop
  endfacet
  facet normal 0.587786 -0.809017 0
    outer loop
      vertex 20.3437 64.6372 0
      vertex 20.3437 64.6372 1.7875
      vertex 20.0865 64.4504 1.7875
    endloop
  endfacet
  facet normal 0.587786 -0.809017 0
    outer loop
      vertex 20.0865 64.4504 0
      vertex 20.3437 64.6372 0
      vertex 20.0865 64.4504 1.7875
    endloop
  endfacet
  facet normal 0.481752 -0.876307 0
    outer loop
      vertex 20.6222 64.7903 0
      vertex 20.6222 64.7903 1.7875
      vertex 20.3437 64.6372 1.7875
    endloop
  endfacet
  facet normal 0.481752 -0.876307 0
    outer loop
      vertex 20.3437 64.6372 0
      vertex 20.6222 64.7903 0
      vertex 20.3437 64.6372 1.7875
    endloop
  endfacet
  facet normal 0.368126 -0.929776 0
    outer loop
      vertex 20.9178 64.9074 0
      vertex 20.9178 64.9074 1.7875
      vertex 20.6222 64.7903 1.7875
    endloop
  endfacet
  facet normal 0.368126 -0.929776 0
    outer loop
      vertex 20.6222 64.7903 0
      vertex 20.9178 64.9074 0
      vertex 20.6222 64.7903 1.7875
    endloop
  endfacet
  facet normal 0.248691 -0.968583 0
    outer loop
      vertex 21.2257 64.9864 0
      vertex 21.2257 64.9864 1.7875
      vertex 20.9178 64.9074 1.7875
    endloop
  endfacet
  facet normal 0.248691 -0.968583 0
    outer loop
      vertex 20.9178 64.9074 0
      vertex 21.2257 64.9864 0
      vertex 20.9178 64.9074 1.7875
    endloop
  endfacet
  facet normal 0.125332 -0.992115 0
    outer loop
      vertex 21.5411 65.0263 0
      vertex 21.5411 65.0263 1.7875
      vertex 21.2257 64.9864 1.7875
    endloop
  endfacet
  facet normal 0.125332 -0.992115 0
    outer loop
      vertex 21.2257 64.9864 0
      vertex 21.5411 65.0263 0
      vertex 21.2257 64.9864 1.7875
    endloop
  endfacet
  facet normal 0 -1 0
    outer loop
      vertex 21.8589 65.0263 0
      vertex 21.8589 65.0263 1.7875
      vertex 21.5411 65.0263 1.7875
    endloop
  endfacet
  facet normal 0 -1 0
    outer loop
      vertex 21.5411 65.0263 0
      vertex 21.8589 65.0263 0
      vertex 21.5411 65.0263 1.7875
    endloop
  endfacet
  facet normal -0.125332 -0.992115 0
    outer loop
      vertex 22.1743 64.9864 0
      vertex 22.1743 64.9864 1.7875
      vertex 21.8589 65.0263 1.7875
    endloop
  endfacet
  facet normal -0.125332 -0.992115 0
    outer loop
      vertex 21.8589 65.0263 0
      vertex 22.1743 64.9864 0
      vertex 21.8589 65.0263 1.7875
    endloop
  endfacet
  facet normal -0.248691 -0.968583 0
    outer loop
      vertex 22.4822 64.9074 0
      vertex 22.4822 64.9074 1.7875
      vertex 22.1743 64.9864 1.7875
    endloop
  endfacet
  facet normal -0.248691 -0.968583 0
    outer loop
      vertex 22.1743 64.9864 0
      vertex 22.4822 64.9074 0
      vertex 22.1743 64.9864 1.7875
    endloop
  endfacet
  facet normal -0.368126 -0.929776 0
    outer loop
      vertex 22.7778 64.7903 0
      vertex 22.7778 64.7903 1.7875
      vertex 22.4822 64.9074 1.7875
    endloop
  endfacet
  facet normal -0.368126 -0.929776 0
    outer loop
      vertex 22.4822 64.9074 0
      vertex 22.7778 64.7903 0
      vertex 22.4822 64.9074 1.7875
    endloop
  endfacet
  facet normal -0.481752 -0.876307 0
    outer loop
      vertex 23.0563 64.6372 0
      vertex 23.0563 64.6372 1.7875
      vertex 22.7778 64.7903 1.7875
    endloop
  endfacet
  facet normal -0.481752 -0.876307 0
    outer loop
      vertex 22.7778 64.7903 0
      vertex 23.0563 64.6372 0
      vertex 22.7778 64.7903 1.7875
    endloop
  endfacet
  facet normal -0.587786 -0.809017 0
    outer loop
      vertex 23.3135 64.4504 0
      vertex 23.3135 64.4504 1.7875
      vertex 23.0563 64.6372 1.7875
    endloop
  endfacet
  facet normal -0.587786 -0.809017 0
    outer loop
      vertex 23.0563 64.6372 0
      vertex 23.3135 64.4504 0
      vertex 23.0563 64.6372 1.7875
    endloop
  endfacet
  facet normal -0.684546 -0.728969 0
    outer loop
      vertex 23.5452 64.2328 0
      vertex 23.5452 64.2328 1.7875
      vertex 23.3135 64.4504 1.7875
    endloop
  endfacet
  facet normal -0.684546 -0.728969 0
    outer loop
      vertex 23.3135 64.4504 0
      vertex 23.5452 64.2328 0
      vertex 23.3135 64.4504 1.7875
    endloop
  endfacet
  facet normal -0.770515 -0.637422 0
    outer loop
      vertex 23.7478 63.9878 1.7875
      vertex 23.5452 64.2328 1.7875
      vertex 23.7478 63.9878 0
    endloop
  endfacet
  facet normal -0.770515 -0.637422 0
    outer loop
      vertex 23.7478 63.9878 0
      vertex 23.5452 64.2328 1.7875
      vertex 23.5452 64.2328 0
    endloop
  endfacet
  facet normal -0.844328 -0.535827 0
    outer loop
      vertex 23.9182 63.7194 1.7875
      vertex 23.7478 63.9878 1.7875
      vertex 23.9182 63.7194 0
    endloop
  endfacet
  facet normal -0.844328 -0.535827 0
    outer loop
      vertex 23.9182 63.7194 0
      vertex 23.7478 63.9878 1.7875
      vertex 23.7478 63.9878 0
    endloop
  endfacet
  facet normal -0.904827 -0.42578 0
    outer loop
      vertex 24.0535 63.4318 1.7875
      vertex 23.9182 63.7194 1.7875
      vertex 24.0535 63.4318 0
    endloop
  endfacet
  facet normal -0.904827 -0.42578 0
    outer loop
      vertex 24.0535 63.4318 0
      vertex 23.9182 63.7194 1.7875
      vertex 23.9182 63.7194 0
    endloop
  endfacet
  facet normal -0.951057 -0.309016 0
    outer loop
      vertex 24.1517 63.1295 1.7875
      vertex 24.0535 63.4318 1.7875
      vertex 24.1517 63.1295 0
    endloop
  endfacet
  facet normal -0.951057 -0.309016 0
    outer loop
      vertex 24.1517 63.1295 0
      vertex 24.0535 63.4318 1.7875
      vertex 24.0535 63.4318 0
    endloop
  endfacet
  facet normal -0.982287 -0.187381 0
    outer loop
      vertex 24.2113 62.8172 1.7875
      vertex 24.1517 63.1295 1.7875
      vertex 24.2113 62.8172 0
    endloop
  endfacet
  facet normal -0.982287 -0.187381 0
    outer loop
      vertex 24.2113 62.8172 0
      vertex 24.1517 63.1295 1.7875
      vertex 24.1517 63.1295 0
    endloop
  endfacet
  facet normal -0.998027 -0.0627915 0
    outer loop
      vertex 24.2312 62.5 1.7875
      vertex 24.2113 62.8172 1.7875
      vertex 24.2312 62.5 0
    endloop
  endfacet
  facet normal -0.998027 -0.0627915 0
    outer loop
      vertex 24.2312 62.5 0
      vertex 24.2113 62.8172 1.7875
      vertex 24.2113 62.8172 0
    endloop
  endfacet
  facet normal -0.998027 0.0627915 0
    outer loop
      vertex 24.2312 62.5 1.7875
      vertex 24.2312 62.5 0
      vertex 24.2113 62.1827 1.7875
    endloop
  endfacet
  facet normal -0.998027 0.0627915 0
    outer loop
      vertex 24.2113 62.1827 1.7875
      vertex 24.2312 62.5 0
      vertex 24.2113 62.1827 0
    endloop
  endfacet
  facet normal -0.982287 0.187381 0
    outer loop
      vertex 24.2113 62.1827 1.7875
      vertex 24.2113 62.1827 0
      vertex 24.1517 61.8705 1.7875
    endloop
  endfacet
  facet normal -0.982287 0.187381 0
    outer loop
      vertex 24.1517 61.8705 1.7875
      vertex 24.2113 62.1827 0
      vertex 24.1517 61.8705 0
    endloop
  endfacet
  facet normal -0.951057 0.309016 0
    outer loop
      vertex 24.1517 61.8705 1.7875
      vertex 24.1517 61.8705 0
      vertex 24.0535 61.5682 1.7875
    endloop
  endfacet
  facet normal -0.951057 0.309016 0
    outer loop
      vertex 24.0535 61.5682 1.7875
      vertex 24.1517 61.8705 0
      vertex 24.0535 61.5682 0
    endloop
  endfacet
  facet normal -0.904827 0.42578 0
    outer loop
      vertex 24.0535 61.5682 1.7875
      vertex 24.0535 61.5682 0
      vertex 23.9182 61.2806 1.7875
    endloop
  endfacet
  facet normal -0.904827 0.42578 0
    outer loop
      vertex 23.9182 61.2806 1.7875
      vertex 24.0535 61.5682 0
      vertex 23.9182 61.2806 0
    endloop
  endfacet
  facet normal -0.844328 0.535827 0
    outer loop
      vertex 23.9182 61.2806 1.7875
      vertex 23.9182 61.2806 0
      vertex 23.7478 61.0122 1.7875
    endloop
  endfacet
  facet normal -0.844328 0.535827 0
    outer loop
      vertex 23.7478 61.0122 1.7875
      vertex 23.9182 61.2806 0
      vertex 23.7478 61.0122 0
    endloop
  endfacet
  facet normal -0.770515 0.637422 0
    outer loop
      vertex 23.7478 61.0122 1.7875
      vertex 23.7478 61.0122 0
      vertex 23.5452 60.7672 1.7875
    endloop
  endfacet
  facet normal -0.770515 0.637422 0
    outer loop
      vertex 23.5452 60.7672 1.7875
      vertex 23.7478 61.0122 0
      vertex 23.5452 60.7672 0
    endloop
  endfacet
  facet normal -0.684546 0.728969 0
    outer loop
      vertex 23.5452 60.7672 1.7875
      vertex 23.5452 60.7672 0
      vertex 23.3135 60.5496 1.7875
    endloop
  endfacet
  facet normal -0.684546 0.728969 0
    outer loop
      vertex 23.3135 60.5496 1.7875
      vertex 23.5452 60.7672 0
      vertex 23.3135 60.5496 0
    endloop
  endfacet
  facet normal -0.587786 0.809017 0
    outer loop
      vertex 23.3135 60.5496 1.7875
      vertex 23.3135 60.5496 0
      vertex 23.0563 60.3628 1.7875
    endloop
  endfacet
  facet normal -0.587786 0.809017 0
    outer loop
      vertex 23.0563 60.3628 1.7875
      vertex 23.3135 60.5496 0
      vertex 23.0563 60.3628 0
    endloop
  endfacet
  facet normal -0.481752 0.876307 0
    outer loop
      vertex 23.0563 60.3628 1.7875
      vertex 23.0563 60.3628 0
      vertex 22.7778 60.2097 1.7875
    endloop
  endfacet
  facet normal -0.481752 0.876307 0
    outer loop
      vertex 22.7778 60.2097 1.7875
      vertex 23.0563 60.3628 0
      vertex 22.7778 60.2097 0
    endloop
  endfacet
  facet normal -0.368126 0.929776 0
    outer loop
      vertex 22.7778 60.2097 1.7875
      vertex 22.7778 60.2097 0
      vertex 22.4822 60.0926 1.7875
    endloop
  endfacet
  facet normal -0.368126 0.929776 0
    outer loop
      vertex 22.4822 60.0926 1.7875
      vertex 22.7778 60.2097 0
      vertex 22.4822 60.0926 0
    endloop
  endfacet
  facet normal -0.248691 0.968583 0
    outer loop
      vertex 22.4822 60.0926 1.7875
      vertex 22.4822 60.0926 0
      vertex 22.1743 60.0136 1.7875
    endloop
  endfacet
  facet normal -0.248691 0.968583 0
    outer loop
      vertex 22.1743 60.0136 1.7875
      vertex 22.4822 60.0926 0
      vertex 22.1743 60.0136 0
    endloop
  endfacet
  facet normal -0.125332 0.992115 0
    outer loop
      vertex 22.1743 60.0136 1.7875
      vertex 22.1743 60.0136 0
      vertex 21.8589 59.9737 1.7875
    endloop
  endfacet
  facet normal -0.125332 0.992115 0
    outer loop
      vertex 21.8589 59.9737 1.7875
      vertex 22.1743 60.0136 0
      vertex 21.8589 59.9737 0
    endloop
  endfacet
  facet normal 0 1 0
    outer loop
      vertex 21.8589 59.9737 1.7875
      vertex 21.8589 59.9737 0
      vertex 21.5411 59.9737 1.7875
    endloop
  endfacet
  facet normal 0 1 0
    outer loop
      vertex 21.5411 59.9737 1.7875
      vertex 21.8589 59.9737 0
      vertex 21.5411 59.9737 0
    endloop
  endfacet
  facet normal 0.125332 0.992115 0
    outer loop
      vertex 21.5411 59.9737 1.7875
      vertex 21.5411 59.9737 0
      vertex 21.2257 60.0136 1.7875
    endloop
  endfacet
  facet normal 0.125332 0.992115 0
    outer loop
      vertex 21.2257 60.0136 1.7875
      vertex 21.5411 59.9737 0
      vertex 21.2257 60.0136 0
    endloop
  endfacet
  facet normal 0.248691 0.968583 0
    outer loop
      vertex 21.2257 60.0136 1.7875
      vertex 21.2257 60.0136 0
      vertex 20.9178 60.0926 1.7875
    endloop
  endfacet
  facet normal 0.248691 0.968583 0
    outer loop
      vertex 20.9178 60.0926 1.7875
      vertex 21.2257 60.0136 0
      vertex 20.9178 60.0926 0
    endloop
  endfacet
  facet normal 0.368126 0.929776 0
    outer loop
      vertex 20.9178 60.0926 1.7875
      vertex 20.9178 60.0926 0
      vertex 20.6222 60.2097 1.7875
    endloop
  endfacet
  facet normal 0.368126 0.929776 0
    outer loop
      vertex 20.6222 60.2097 1.7875
      vertex 20.9178 60.0926 0
      vertex 20.6222 60.2097 0
    endloop
  endfacet
  facet normal 0.481752 0.876307 0
    outer loop
      vertex 20.6222 60.2097 1.7875
      vertex 20.6222 60.2097 0
      vertex 20.3437 60.3628 1.7875
    endloop
  endfacet
  facet normal 0.481752 0.876307 0
    outer loop
      vertex 20.3437 60.3628 1.7875
      vertex 20.6222 60.2097 0
      vertex 20.3437 60.3628 0
    endloop
  endfacet
  facet normal 0.587786 0.809017 0
    outer loop
      vertex 20.3437 60.3628 1.7875
      vertex 20.3437 60.3628 0
      vertex 20.0865 60.5496 1.7875
    endloop
  endfacet
  facet normal 0.587786 0.809017 0
    outer loop
      vertex 20.0865 60.5496 1.7875
      vertex 20.3437 60.3628 0
      vertex 20.0865 60.5496 0
    endloop
  endfacet
  facet normal 0.684546 0.728969 0
    outer loop
      vertex 20.0865 60.5496 1.7875
      vertex 20.0865 60.5496 0
      vertex 19.8548 60.7672 1.7875
    endloop
  endfacet
  facet normal 0.684546 0.728969 0
    outer loop
      vertex 19.8548 60.7672 1.7875
      vertex 20.0865 60.5496 0
      vertex 19.8548 60.7672 0
    endloop
  endfacet
  facet normal 0.770515 0.637422 0
    outer loop
      vertex 19.6522 61.0122 1.7875
      vertex 19.8548 60.7672 1.7875
      vertex 19.8548 60.7672 0
    endloop
  endfacet
  facet normal 0.770515 0.637422 0
    outer loop
      vertex 19.6522 61.0122 0
      vertex 19.6522 61.0122 1.7875
      vertex 19.8548 60.7672 0
    endloop
  endfacet
  facet normal 0.844328 0.535827 0
    outer loop
      vertex 19.4818 61.2806 1.7875
      vertex 19.6522 61.0122 1.7875
      vertex 19.6522 61.0122 0
    endloop
  endfacet
  facet normal 0.844328 0.535827 0
    outer loop
      vertex 19.4818 61.2806 0
      vertex 19.4818 61.2806 1.7875
      vertex 19.6522 61.0122 0
    endloop
  endfacet
  facet normal 0.904827 0.42578 0
    outer loop
      vertex 19.3465 61.5682 1.7875
      vertex 19.4818 61.2806 1.7875
      vertex 19.4818 61.2806 0
    endloop
  endfacet
  facet normal 0.904827 0.42578 0
    outer loop
      vertex 19.3465 61.5682 0
      vertex 19.3465 61.5682 1.7875
      vertex 19.4818 61.2806 0
    endloop
  endfacet
  facet normal 0.951057 0.309016 0
    outer loop
      vertex 19.2483 61.8705 1.7875
      vertex 19.3465 61.5682 1.7875
      vertex 19.3465 61.5682 0
    endloop
  endfacet
  facet normal 0.951057 0.309016 0
    outer loop
      vertex 19.2483 61.8705 0
      vertex 19.2483 61.8705 1.7875
      vertex 19.3465 61.5682 0
    endloop
  endfacet
  facet normal 0.982287 0.187381 0
    outer loop
      vertex 19.1887 62.1827 1.7875
      vertex 19.2483 61.8705 1.7875
      vertex 19.2483 61.8705 0
    endloop
  endfacet
  facet normal 0.982287 0.187381 0
    outer loop
      vertex 19.1887 62.1827 0
      vertex 19.1887 62.1827 1.7875
      vertex 19.2483 61.8705 0
    endloop
  endfacet
  facet normal 0 0 -1
    outer loop
      vertex 19.2483 13.1295 1.7875
      vertex 19.3465 13.4318 1.7875
      vertex 19.1887 12.8172 1.7875
    endloop
  endfacet
  facet normal 0 0 -1
    outer loop
      vertex 19.1887 12.8172 1.7875
      vertex 19.3465 13.4318 1.7875
      vertex 19.4818 13.7194 1.7875
    endloop
  endfacet
  facet normal 0 0 -1
    outer loop
      vertex 19.1887 12.8172 1.7875
      vertex 19.4818 13.7194 1.7875
      vertex 19.6522 13.9878 1.7875
    endloop
  endfacet
  facet normal 0 0 -1
    outer loop
      vertex 19.1887 12.8172 1.7875
      vertex 19.6522 13.9878 1.7875
      vertex 19.8548 14.2328 1.7875
    endloop
  endfacet
  facet normal 0 0 -1
    outer loop
      vertex 19.1887 12.8172 1.7875
      vertex 19.8548 14.2328 1.7875
      vertex 20.0865 14.4504 1.7875
    endloop
  endfacet
  facet normal 0 0 -1
    outer loop
      vertex 19.1887 12.8172 1.7875
      vertex 20.0865 14.4504 1.7875
      vertex 20.3437 14.6372 1.7875
    endloop
  endfacet
  facet normal 0 0 -1
    outer loop
      vertex 19.1887 12.8172 1.7875
      vertex 20.3437 14.6372 1.7875
      vertex 20.6222 14.7903 1.7875
    endloop
  endfacet
  facet normal 0 0 -1
    outer loop
      vertex 19.1887 12.8172 1.7875
      vertex 20.6222 14.7903 1.7875
      vertex 20.9178 14.9074 1.7875
    endloop
  endfacet
  facet normal 0 0 -1
    outer loop
      vertex 19.1887 12.8172 1.7875
      vertex 20.9178 14.9074 1.7875
      vertex 21.2257 14.9864 1.7875
    endloop
  endfacet
  facet normal 0 0 -1
    outer loop
      vertex 19.1887 12.8172 1.7875
      vertex 21.2257 14.9864 1.7875
      vertex 21.5411 15.0263 1.7875
    endloop
  endfacet
  facet normal 0 0 -1
    outer loop
      vertex 19.1887 12.8172 1.7875
      vertex 21.5411 15.0263 1.7875
      vertex 21.8589 15.0263 1.7875
    endloop
  endfacet
  facet normal 0 0 -1
    outer loop
      vertex 19.1887 12.8172 1.7875
      vertex 21.8589 15.0263 1.7875
      vertex 22.1743 14.9864 1.7875
    endloop
  endfacet
  facet normal 0 0 -1
    outer loop
      vertex 19.1887 12.8172 1.7875
      vertex 22.1743 14.9864 1.7875
      vertex 22.4822 14.9074 1.7875
    endloop
  endfacet
  facet normal 0 0 -1
    outer loop
      vertex 19.1887 12.8172 1.7875
      vertex 22.4822 14.9074 1.7875
      vertex 22.7778 14.7903 1.7875
    endloop
  endfacet
  facet normal 0 0 -1
    outer loop
      vertex 19.1887 12.8172 1.7875
      vertex 22.7778 14.7903 1.7875
      vertex 23.0563 14.6372 1.7875
    endloop
  endfacet
  facet normal 0 0 -1
    outer loop
      vertex 19.1887 12.8172 1.7875
      vertex 23.0563 14.6372 1.7875
      vertex 23.3135 14.4504 1.7875
    endloop
  endfacet
  facet normal 0 0 -1
    outer loop
      vertex 19.1887 12.8172 1.7875
      vertex 23.3135 14.4504 1.7875
      vertex 23.5452 14.2328 1.7875
    endloop
  endfacet
  facet normal 0 0 -1
    outer loop
      vertex 19.1887 12.8172 1.7875
      vertex 23.5452 14.2328 1.7875
      vertex 23.7478 13.9878 1.7875
    endloop
  endfacet
  facet normal 0 0 -1
    outer loop
      vertex 19.1887 12.8172 1.7875
      vertex 23.7478 13.9878 1.7875
      vertex 23.9182 13.7194 1.7875
    endloop
  endfacet
  facet normal 0 0 -1
    outer loop
      vertex 19.1887 12.8172 1.7875
      vertex 23.9182 13.7194 1.7875
      vertex 24.0535 13.4318 1.7875
    endloop
  endfacet
  facet normal 0 0 -1
    outer loop
      vertex 19.1887 12.8172 1.7875
      vertex 24.0535 13.4318 1.7875
      vertex 24.1517 13.1295 1.7875
    endloop
  endfacet
  facet normal 0 0 -1
    outer loop
      vertex 19.1887 12.8172 1.7875
      vertex 24.1517 13.1295 1.7875
      vertex 24.2113 12.8172 1.7875
    endloop
  endfacet
  facet normal 0 0 -1
    outer loop
      vertex 19.1887 12.8172 1.7875
      vertex 24.2113 12.8172 1.7875
      vertex 24.2312 12.5 1.7875
    endloop
  endfacet
  facet normal 0 0 -1
    outer loop
      vertex 19.1887 12.8172 1.7875
      vertex 24.2312 12.5 1.7875
      vertex 24.2113 12.1827 1.7875
    endloop
  endfacet
  facet normal 0 0 -1
    outer loop
      vertex 19.1887 12.8172 1.7875
      vertex 24.2113 12.1827 1.7875
      vertex 24.1517 11.8705 1.7875
    endloop
  endfacet
  facet normal 0 0 -1
    outer loop
      vertex 19.1887 12.8172 1.7875
      vertex 24.1517 11.8705 1.7875
      vertex 24.0535 11.5682 1.7875
    endloop
  endfacet
  facet normal 0 0 -1
    outer loop
      vertex 19.1887 12.8172 1.7875
      vertex 24.0535 11.5682 1.7875
      vertex 23.9182 11.2806 1.7875
    endloop
  endfacet
  facet normal 0 0 -1
    outer loop
      vertex 19.1887 12.8172 1.7875
      vertex 23.9182 11.2806 1.7875
      vertex 23.7478 11.0122 1.7875
    endloop
  endfacet
  facet normal 0 0 -1
    outer loop
      vertex 19.1887 12.8172 1.7875
      vertex 23.7478 11.0122 1.7875
      vertex 23.5452 10.7672 1.7875
    endloop
  endfacet
  facet normal 0 0 -1
    outer loop
      vertex 19.1887 12.8172 1.7875
      vertex 23.5452 10.7672 1.7875
      vertex 23.3135 10.5496 1.7875
    endloop
  endfacet
  facet normal 0 0 -1
    outer loop
      vertex 19.1887 12.8172 1.7875
      vertex 23.3135 10.5496 1.7875
      vertex 23.0563 10.3628 1.7875
    endloop
  endfacet
  facet normal 0 0 -1
    outer loop
      vertex 19.1887 12.8172 1.7875
      vertex 23.0563 10.3628 1.7875
      vertex 22.7778 10.2097 1.7875
    endloop
  endfacet
  facet normal 0 0 -1
    outer loop
      vertex 19.1887 12.8172 1.7875
      vertex 22.7778 10.2097 1.7875
      vertex 22.4822 10.0926 1.7875
    endloop
  endfacet
  facet normal 0 0 -1
    outer loop
      vertex 19.1887 12.8172 1.7875
      vertex 22.4822 10.0926 1.7875
      vertex 22.1743 10.0136 1.7875
    endloop
  endfacet
  facet normal 0 0 -1
    outer loop
      vertex 19.1887 12.8172 1.7875
      vertex 22.1743 10.0136 1.7875
      vertex 21.8589 9.97374 1.7875
    endloop
  endfacet
  facet normal 0 0 -1
    outer loop
      vertex 19.1887 12.8172 1.7875
      vertex 21.8589 9.97374 1.7875
      vertex 21.5411 9.97374 1.7875
    endloop
  endfacet
  facet normal 0 0 -1
    outer loop
      vertex 19.1887 12.8172 1.7875
      vertex 21.5411 9.97374 1.7875
      vertex 21.2257 10.0136 1.7875
    endloop
  endfacet
  facet normal 0 0 -1
    outer loop
      vertex 19.1887 12.8172 1.7875
      vertex 21.2257 10.0136 1.7875
      vertex 20.9178 10.0926 1.7875
    endloop
  endfacet
  facet normal 0 0 -1
    outer loop
      vertex 19.1887 12.8172 1.7875
      vertex 20.9178 10.0926 1.7875
      vertex 20.6222 10.2097 1.7875
    endloop
  endfacet
  facet normal 0 0 -1
    outer loop
      vertex 19.1887 12.8172 1.7875
      vertex 20.6222 10.2097 1.7875
      vertex 20.3437 10.3628 1.7875
    endloop
  endfacet
  facet normal 0 0 -1
    outer loop
      vertex 19.1887 12.8172 1.7875
      vertex 20.3437 10.3628 1.7875
      vertex 20.0865 10.5496 1.7875
    endloop
  endfacet
  facet normal 0 0 -1
    outer loop
      vertex 19.1887 12.8172 1.7875
      vertex 20.0865 10.5496 1.7875
      vertex 19.8548 10.7672 1.7875
    endloop
  endfacet
  facet normal 0 0 -1
    outer loop
      vertex 19.1887 12.8172 1.7875
      vertex 19.8548 10.7672 1.7875
      vertex 19.6522 11.0122 1.7875
    endloop
  endfacet
  facet normal 0 0 -1
    outer loop
      vertex 19.1887 12.8172 1.7875
      vertex 19.6522 11.0122 1.7875
      vertex 19.4818 11.2806 1.7875
    endloop
  endfacet
  facet normal 0 0 -1
    outer loop
      vertex 19.1887 12.8172 1.7875
      vertex 19.4818 11.2806 1.7875
      vertex 19.3465 11.5682 1.7875
    endloop
  endfacet
  facet normal 0 0 -1
    outer loop
      vertex 19.1887 12.8172 1.7875
      vertex 19.3465 11.5682 1.7875
      vertex 19.2483 11.8705 1.7875
    endloop
  endfacet
  facet normal 0 0 -1
    outer loop
      vertex 19.1887 12.8172 1.7875
      vertex 19.2483 11.8705 1.7875
      vertex 19.1887 12.1827 1.7875
    endloop
  endfacet
  facet normal 0 0 -1
    outer loop
      vertex 19.1887 12.8172 1.7875
      vertex 19.1887 12.1827 1.7875
      vertex 19.1687 12.5 1.7875
    endloop
  endfacet
  facet normal 0 0 -1
    outer loop
      vertex 19.2483 63.1295 1.7875
      vertex 19.3465 63.4318 1.7875
      vertex 19.1887 62.8172 1.7875
    endloop
  endfacet
  facet normal 0 0 -1
    outer loop
      vertex 19.1887 62.8172 1.7875
      vertex 19.3465 63.4318 1.7875
      vertex 19.4818 63.7194 1.7875
    endloop
  endfacet
  facet normal 0 0 -1
    outer loop
      vertex 19.1887 62.8172 1.7875
      vertex 19.4818 63.7194 1.7875
      vertex 19.6522 63.9878 1.7875
    endloop
  endfacet
  facet normal 0 0 -1
    outer loop
      vertex 19.1887 62.8172 1.7875
      vertex 19.6522 63.9878 1.7875
      vertex 19.8548 64.2328 1.7875
    endloop
  endfacet
  facet normal 0 0 -1
    outer loop
      vertex 19.1887 62.8172 1.7875
      vertex 19.8548 64.2328 1.7875
      vertex 20.0865 64.4504 1.7875
    endloop
  endfacet
  facet normal 0 0 -1
    outer loop
      vertex 19.1887 62.8172 1.7875
      vertex 20.0865 64.4504 1.7875
      vertex 20.3437 64.6372 1.7875
    endloop
  endfacet
  facet normal 0 0 -1
    outer loop
      vertex 19.1887 62.8172 1.7875
      vertex 20.3437 64.6372 1.7875
      vertex 20.6222 64.7903 1.7875
    endloop
  endfacet
  facet normal 0 0 -1
    outer loop
      vertex 19.1887 62.8172 1.7875
      vertex 20.6222 64.7903 1.7875
      vertex 20.9178 64.9074 1.7875
    endloop
  endfacet
  facet normal 0 0 -1
    outer loop
      vertex 19.1887 62.8172 1.7875
      vertex 20.9178 64.9074 1.7875
      vertex 21.2257 64.9864 1.7875
    endloop
  endfacet
  facet normal 0 0 -1
    outer loop
      vertex 19.1887 62.8172 1.7875
      vertex 21.2257 64.9864 1.7875
      vertex 21.5411 65.0263 1.7875
    endloop
  endfacet
  facet normal 0 0 -1
    outer loop
      vertex 19.1887 62.8172 1.7875
      vertex 21.5411 65.0263 1.7875
      vertex 21.8589 65.0263 1.7875
    endloop
  endfacet
  facet normal 0 0 -1
    outer loop
      vertex 19.1887 62.8172 1.7875
      vertex 21.8589 65.0263 1.7875
      vertex 22.1743 64.9864 1.7875
    endloop
  endfacet
  facet normal 0 0 -1
    outer loop
      vertex 19.1887 62.8172 1.7875
      vertex 22.1743 64.9864 1.7875
      vertex 22.4822 64.9074 1.7875
    endloop
  endfacet
  facet normal 0 0 -1
    outer loop
      vertex 19.1887 62.8172 1.7875
      vertex 22.4822 64.9074 1.7875
      vertex 22.7778 64.7903 1.7875
    endloop
  endfacet
  facet normal 0 0 -1
    outer loop
      vertex 19.1887 62.8172 1.7875
      vertex 22.7778 64.7903 1.7875
      vertex 23.0563 64.6372 1.7875
    endloop
  endfacet
  facet normal 0 0 -1
    outer loop
      vertex 19.1887 62.8172 1.7875
      vertex 23.0563 64.6372 1.7875
      vertex 23.3135 64.4504 1.7875
    endloop
  endfacet
  facet normal 0 0 -1
    outer loop
      vertex 19.1887 62.8172 1.7875
      vertex 23.3135 64.4504 1.7875
      vertex 23.5452 64.2328 1.7875
    endloop
  endfacet
  facet normal 0 0 -1
    outer loop
      vertex 19.1887 62.8172 1.7875
      vertex 23.5452 64.2328 1.7875
      vertex 23.7478 63.9878 1.7875
    endloop
  endfacet
  facet normal 0 0 -1
    outer loop
      vertex 19.1887 62.8172 1.7875
      vertex 23.7478 63.9878 1.7875
      vertex 23.9182 63.7194 1.7875
    endloop
  endfacet
  facet normal 0 0 -1
    outer loop
      vertex 19.1887 62.8172 1.7875
      vertex 23.9182 63.7194 1.7875
      vertex 24.0535 63.4318 1.7875
    endloop
  endfacet
  facet normal 0 0 -1
    outer loop
      vertex 19.1887 62.8172 1.7875
      vertex 24.0535 63.4318 1.7875
      vertex 24.1517 63.1295 1.7875
    endloop
  endfacet
  facet normal 0 0 -1
    outer loop
      vertex 19.1887 62.8172 1.7875
      vertex 24.1517 63.1295 1.7875
      vertex 24.2113 62.8172 1.7875
    endloop
  endfacet
  facet normal 0 0 -1
    outer loop
      vertex 19.1887 62.8172 1.7875
      vertex 24.2113 62.8172 1.7875
      vertex 24.2312 62.5 1.7875
    endloop
  endfacet
  facet normal 0 0 -1
    outer loop
      vertex 19.1887 62.8172 1.7875
      vertex 24.2312 62.5 1.7875
      vertex 24.2113 62.1827 1.7875
    endloop
  endfacet
  facet normal 0 0 -1
    outer loop
      vertex 19.1887 62.8172 1.7875
      vertex 24.2113 62.1827 1.7875
      vertex 24.1517 61.8705 1.7875
    endloop
  endfacet
  facet normal 0 0 -1
    outer loop
      vertex 19.1887 62.8172 1.7875
      vertex 24.1517 61.8705 1.7875
      vertex 24.0535 61.5682 1.7875
    endloop
  endfacet
  facet normal 0 0 -1
    outer loop
      vertex 19.1887 62.8172 1.7875
      vertex 24.0535 61.5682 1.7875
      vertex 23.9182 61.2806 1.7875
    endloop
  endfacet
  facet normal 0 0 -1
    outer loop
      vertex 19.1887 62.8172 1.7875
      vertex 23.9182 61.2806 1.7875
      vertex 23.7478 61.0122 1.7875
    endloop
  endfacet
  facet normal 0 0 -1
    outer loop
      vertex 19.1887 62.8172 1.7875
      vertex 23.7478 61.0122 1.7875
      vertex 23.5452 60.7672 1.7875
    endloop
  endfacet
  facet normal 0 0 -1
    outer loop
      vertex 19.1887 62.8172 1.7875
      vertex 23.5452 60.7672 1.7875
      vertex 23.3135 60.5496 1.7875
    endloop
  endfacet
  facet normal 0 0 -1
    outer loop
      vertex 19.1887 62.8172 1.7875
      vertex 23.3135 60.5496 1.7875
      vertex 23.0563 60.3628 1.7875
    endloop
  endfacet
  facet normal 0 0 -1
    outer loop
      vertex 19.1887 62.8172 1.7875
      vertex 23.0563 60.3628 1.7875
      vertex 22.7778 60.2097 1.7875
    endloop
  endfacet
  facet normal 0 0 -1
    outer loop
      vertex 19.1887 62.8172 1.7875
      vertex 22.7778 60.2097 1.7875
      vertex 22.4822 60.0926 1.7875
    endloop
  endfacet
  facet normal 0 0 -1
    outer loop
      vertex 19.1887 62.8172 1.7875
      vertex 22.4822 60.0926 1.7875
      vertex 22.1743 60.0136 1.7875
    endloop
  endfacet
  facet normal 0 0 -1
    outer loop
      vertex 19.1887 62.8172 1.7875
      vertex 22.1743 60.0136 1.7875
      vertex 21.8589 59.9737 1.7875
    endloop
  endfacet
  facet normal 0 0 -1
    outer loop
      vertex 19.1887 62.8172 1.7875
      vertex 21.8589 59.9737 1.7875
      vertex 21.5411 59.9737 1.7875
    endloop
  endfacet
  facet normal 0 0 -1
    outer loop
      vertex 19.1887 62.8172 1.7875
      vertex 21.5411 59.9737 1.7875
      vertex 21.2257 60.0136 1.7875
    endloop
  endfacet
  facet normal 0 0 -1
    outer loop
      vertex 19.1887 62.8172 1.7875
      vertex 21.2257 60.0136 1.7875
      vertex 20.9178 60.0926 1.7875
    endloop
  endfacet
  facet normal 0 0 -1
    outer loop
      vertex 19.1887 62.8172 1.7875
      vertex 20.9178 60.0926 1.7875
      vertex 20.6222 60.2097 1.7875
    endloop
  endfacet
  facet normal 0 0 -1
    outer loop
      vertex 19.1887 62.8172 1.7875
      vertex 20.6222 60.2097 1.7875
      vertex 20.3437 60.3628 1.7875
    endloop
  endfacet
  facet normal 0 0 -1
    outer loop
      vertex 19.1887 62.8172 1.7875
      vertex 20.3437 60.3628 1.7875
      vertex 20.0865 60.5496 1.7875
    endloop
  endfacet
  facet normal 0 0 -1
    outer loop
      vertex 19.1887 62.8172 1.7875
      vertex 20.0865 60.5496 1.7875
      vertex 19.8548 60.7672 1.7875
    endloop
  endfacet
  facet normal 0 0 -1
    outer loop
      vertex 19.1887 62.8172 1.7875
      vertex 19.8548 60.7672 1.7875
      vertex 19.6522 61.0122 1.7875
    endloop
  endfacet
  facet normal 0 0 -1
    outer loop
      vertex 19.1887 62.8172 1.7875
      vertex 19.6522 61.0122 1.7875
      vertex 19.4818 61.2806 1.7875
    endloop
  endfacet
  facet normal 0 0 -1
    outer loop
      vertex 19.1887 62.8172 1.7875
      vertex 19.4818 61.2806 1.7875
      vertex 19.3465 61.5682 1.7875
    endloop
  endfacet
  facet normal 0 0 -1
    outer loop
      vertex 19.1887 62.8172 1.7875
      vertex 19.3465 61.5682 1.7875
      vertex 19.2483 61.8705 1.7875
    endloop
  endfacet
  facet normal 0 0 -1
    outer loop
      vertex 19.1887 62.8172 1.7875
      vertex 19.2483 61.8705 1.7875
      vertex 19.1887 62.1827 1.7875
    endloop
  endfacet
  facet normal 0 0 -1
    outer loop
      vertex 19.1887 62.8172 1.7875
      vertex 19.1887 62.1827 1.7875
      vertex 19.1687 62.5 1.7875
    endloop
  endfacet
endsolid OpenSCAD_Model
