solid OpenSCAD_Model
  facet normal -1 0 0
    outer loop
      vertex 0 9.2 0
      vertex 0 9.2 7.5
      vertex 0 68.4 0
    endloop
  endfacet
  facet normal -1 0 0
    outer loop
      vertex 0 68.4 0
      vertex 0 9.2 7.5
      vertex 0 59.2 7.5
    endloop
  endfacet
  facet normal -1 0 0
    outer loop
      vertex 0 68.4 0
      vertex 0 59.2 7.5
      vertex 0 59.2 49
    endloop
  endfacet
  facet normal -1 0 0
    outer loop
      vertex 0 68.4 7.5
      vertex 0 59.2 49
      vertex 0 68.4 49
    endloop
  endfacet
  facet normal -1 0 0
    outer loop
      vertex 0 68.4 0
      vertex 0 59.2 49
      vertex 0 68.4 7.5
    endloop
  endfacet
  facet normal -0.707107 -0.707107 0
    outer loop
      vertex 9.2 0 49
      vertex 2.88897e-15 9.2 49
      vertex 9.2 0 0
    endloop
  endfacet
  facet normal -0.707107 -0.707107 0
    outer loop
      vertex 9.2 0 0
      vertex 2.88897e-15 9.2 49
      vertex 2.88897e-15 9.2 7.5
    endloop
  endfacet
  facet normal -0.707107 -0.707107 0
    outer loop
      vertex 9.2 0 0
      vertex 2.88897e-15 9.2 7.5
      vertex 0 9.2 7.5
    endloop
  endfacet
  facet normal -0.707107 -0.707107 0
    outer loop
      vertex 9.2 0 0
      vertex 0 9.2 7.5
      vertex 0 9.2 0
    endloop
  endfacet
  facet normal 0 0 -1
    outer loop
      vertex 72.6 11.6 0
      vertex 9.2 0 0
      vertex 2.4 11.6 0
    endloop
  endfacet
  facet normal 0 0 -1
    outer loop
      vertex 2.4 56.8 0
      vertex 0 68.4 0
      vertex 65.8 68.4 0
    endloop
  endfacet
  facet normal 0 0 -1
    outer loop
      vertex 72.6 11.6 0
      vertex 75 59.2 0
      vertex 75 0 0
    endloop
  endfacet
  facet normal 0 0 -1
    outer loop
      vertex 2.4 11.6 0
      vertex 0 68.4 0
      vertex 2.4 56.8 0
    endloop
  endfacet
  facet normal 0 0 -1
    outer loop
      vertex 0 9.2 0
      vertex 0 68.4 0
      vertex 2.4 11.6 0
    endloop
  endfacet
  facet normal 0 0 -1
    outer loop
      vertex 0 9.2 0
      vertex 2.4 11.6 0
      vertex 9.2 0 0
    endloop
  endfacet
  facet normal 0 0 -1
    outer loop
      vertex 72.6 56.8 0
      vertex 75 59.2 0
      vertex 72.6 11.6 0
    endloop
  endfacet
  facet normal 0 0 -1
    outer loop
      vertex 9.2 0 0
      vertex 72.6 11.6 0
      vertex 75 0 0
    endloop
  endfacet
  facet normal 0 0 -1
    outer loop
      vertex 2.4 56.8 0
      vertex 65.8 68.4 0
      vertex 75 59.2 0
    endloop
  endfacet
  facet normal 0 0 -1
    outer loop
      vertex 2.4 56.8 0
      vertex 75 59.2 0
      vertex 72.6 56.8 0
    endloop
  endfacet
  facet normal 0 1 0
    outer loop
      vertex 0 68.4 0
      vertex 0 68.4 7.5
      vertex 65.8 68.4 0
    endloop
  endfacet
  facet normal 0 1 0
    outer loop
      vertex 65.8 68.4 0
      vertex 0 68.4 7.5
      vertex 65.8 68.4 7.5
    endloop
  endfacet
  facet normal 0 1 0
    outer loop
      vertex 0 68.4 7.5
      vertex 0 68.4 49
      vertex 65.8 68.4 7.5
    endloop
  endfacet
  facet normal 0 1 0
    outer loop
      vertex 65.8 68.4 7.5
      vertex 0 68.4 49
      vertex 65.8 68.4 49
    endloop
  endfacet
  facet normal 0 0 1
    outer loop
      vertex 0 68.4 49
      vertex 0 59.2 49
      vertex 75 59.2 49
    endloop
  endfacet
  facet normal 0 0 1
    outer loop
      vertex 65.8 68.4 49
      vertex 0 68.4 49
      vertex 75 59.2 49
    endloop
  endfacet
  facet normal 0 -1 0
    outer loop
      vertex 0 59.2 49
      vertex 0 59.2 7.5
      vertex 75 59.2 7.5
    endloop
  endfacet
  facet normal 0 -1 0
    outer loop
      vertex 75 59.2 49
      vertex 0 59.2 49
      vertex 75 59.2 7.5
    endloop
  endfacet
  facet normal 0 0 1
    outer loop
      vertex 0 59.2 7.5
      vertex 0 9.2 7.5
      vertex 2.88897e-15 9.2 7.5
    endloop
  endfacet
  facet normal 0 0 1
    outer loop
      vertex 0.325 9.525 7.5
      vertex 0 59.2 7.5
      vertex 2.88897e-15 9.2 7.5
    endloop
  endfacet
  facet normal 0 0 1
    outer loop
      vertex 75 9.2 7.5
      vertex 0.325 9.525 7.5
      vertex 2.88897e-15 9.2 7.5
    endloop
  endfacet
  facet normal 0 0 1
    outer loop
      vertex 0.325 33.875 7.5
      vertex 0 59.2 7.5
      vertex 0.325 9.525 7.5
    endloop
  endfacet
  facet normal 0 0 1
    outer loop
      vertex 0.325 34.525 7.5
      vertex 0 59.2 7.5
      vertex 0.325 33.875 7.5
    endloop
  endfacet
  facet normal 0 0 1
    outer loop
      vertex 49.675 34.525 7.5
      vertex 25.325 34.525 7.5
      vertex 49.675 33.875 7.5
    endloop
  endfacet
  facet normal 0 0 1
    outer loop
      vertex 25.325 9.525 7.5
      vertex 25.325 33.875 7.5
      vertex 24.675 33.875 7.5
    endloop
  endfacet
  facet normal 0 0 1
    outer loop
      vertex 75 9.2 7.5
      vertex 24.675 9.525 7.5
      vertex 0.325 9.525 7.5
    endloop
  endfacet
  facet normal 0 0 1
    outer loop
      vertex 0.325 34.525 7.5
      vertex 0.325 58.875 7.5
      vertex 0 59.2 7.5
    endloop
  endfacet
  facet normal 0 0 1
    outer loop
      vertex 24.675 33.875 7.5
      vertex 0.325 34.525 7.5
      vertex 0.325 33.875 7.5
    endloop
  endfacet
  facet normal 0 0 1
    outer loop
      vertex 0.325 58.875 7.5
      vertex 24.675 58.875 7.5
      vertex 0 59.2 7.5
    endloop
  endfacet
  facet normal 0 0 1
    outer loop
      vertex 49.675 58.875 7.5
      vertex 49.675 34.525 7.5
      vertex 50.325 34.525 7.5
    endloop
  endfacet
  facet normal 0 0 1
    outer loop
      vertex 75 59.2 7.5
      vertex 0 59.2 7.5
      vertex 24.675 58.875 7.5
    endloop
  endfacet
  facet normal 0 0 1
    outer loop
      vertex 25.325 33.875 7.5
      vertex 24.675 34.525 7.5
      vertex 24.675 33.875 7.5
    endloop
  endfacet
  facet normal 0 0 1
    outer loop
      vertex 50.325 9.525 7.5
      vertex 50.325 33.875 7.5
      vertex 49.675 33.875 7.5
    endloop
  endfacet
  facet normal 0 0 1
    outer loop
      vertex 75 9.2 7.5
      vertex 25.325 9.525 7.5
      vertex 24.675 9.525 7.5
    endloop
  endfacet
  facet normal 0 0 1
    outer loop
      vertex 49.675 33.875 7.5
      vertex 49.675 9.525 7.5
      vertex 50.325 9.525 7.5
    endloop
  endfacet
  facet normal 0 0 1
    outer loop
      vertex 25.325 34.525 7.5
      vertex 25.325 58.875 7.5
      vertex 24.675 58.875 7.5
    endloop
  endfacet
  facet normal 0 0 1
    outer loop
      vertex 75 9.2 7.5
      vertex 49.675 9.525 7.5
      vertex 25.325 9.525 7.5
    endloop
  endfacet
  facet normal 0 0 1
    outer loop
      vertex 24.675 34.525 7.5
      vertex 0.325 34.525 7.5
      vertex 24.675 33.875 7.5
    endloop
  endfacet
  facet normal 0 0 1
    outer loop
      vertex 74.675 34.525 7.5
      vertex 50.325 34.525 7.5
      vertex 74.675 33.875 7.5
    endloop
  endfacet
  facet normal 0 0 1
    outer loop
      vertex 74.675 9.525 7.5
      vertex 50.325 9.525 7.5
      vertex 75 9.2 7.5
    endloop
  endfacet
  facet normal 0 0 1
    outer loop
      vertex 75 59.2 7.5
      vertex 24.675 58.875 7.5
      vertex 25.325 58.875 7.5
    endloop
  endfacet
  facet normal 0 0 1
    outer loop
      vertex 75 59.2 7.5
      vertex 25.325 58.875 7.5
      vertex 49.675 58.875 7.5
    endloop
  endfacet
  facet normal 0 0 1
    outer loop
      vertex 50.325 33.875 7.5
      vertex 50.325 34.525 7.5
      vertex 49.675 34.525 7.5
    endloop
  endfacet
  facet normal 0 0 1
    outer loop
      vertex 75 9.2 7.5
      vertex 50.325 9.525 7.5
      vertex 49.675 9.525 7.5
    endloop
  endfacet
  facet normal 0 0 1
    outer loop
      vertex 24.675 58.875 7.5
      vertex 24.675 34.525 7.5
      vertex 25.325 34.525 7.5
    endloop
  endfacet
  facet normal 0 0 1
    outer loop
      vertex 75 59.2 7.5
      vertex 74.675 33.875 7.5
      vertex 75 9.2 7.5
    endloop
  endfacet
  facet normal 0 0 1
    outer loop
      vertex 50.325 34.525 7.5
      vertex 50.325 58.875 7.5
      vertex 49.675 58.875 7.5
    endloop
  endfacet
  facet normal 0 0 1
    outer loop
      vertex 50.325 33.875 7.5
      vertex 74.675 33.875 7.5
      vertex 50.325 34.525 7.5
    endloop
  endfacet
  facet normal 0 0 1
    outer loop
      vertex 74.675 33.875 7.5
      vertex 74.675 9.525 7.5
      vertex 75 9.2 7.5
    endloop
  endfacet
  facet normal 0 0 1
    outer loop
      vertex 75 59.2 7.5
      vertex 49.675 58.875 7.5
      vertex 50.325 58.875 7.5
    endloop
  endfacet
  facet normal 0 0 1
    outer loop
      vertex 75 59.2 7.5
      vertex 50.325 58.875 7.5
      vertex 74.675 58.875 7.5
    endloop
  endfacet
  facet normal 0 0 1
    outer loop
      vertex 75 59.2 7.5
      vertex 74.675 34.525 7.5
      vertex 74.675 33.875 7.5
    endloop
  endfacet
  facet normal 0 0 1
    outer loop
      vertex 75 59.2 7.5
      vertex 74.675 58.875 7.5
      vertex 74.675 34.525 7.5
    endloop
  endfacet
  facet normal 0 0 1
    outer loop
      vertex 25.325 33.875 7.5
      vertex 25.325 34.525 7.5
      vertex 24.675 34.525 7.5
    endloop
  endfacet
  facet normal 0 0 1
    outer loop
      vertex 25.325 33.875 7.5
      vertex 49.675 33.875 7.5
      vertex 25.325 34.525 7.5
    endloop
  endfacet
  facet normal 0 0 1
    outer loop
      vertex 49.675 34.525 7.5
      vertex 49.675 33.875 7.5
      vertex 50.325 33.875 7.5
    endloop
  endfacet
  facet normal 0 0 1
    outer loop
      vertex 24.675 33.875 7.5
      vertex 24.675 9.525 7.5
      vertex 25.325 9.525 7.5
    endloop
  endfacet
  facet normal 0 -1 0
    outer loop
      vertex 9.2 0 49
      vertex 9.2 0 0
      vertex 75 0 0
    endloop
  endfacet
  facet normal 0 -1 0
    outer loop
      vertex 75 0 49
      vertex 9.2 0 49
      vertex 75 0 0
    endloop
  endfacet
  facet normal 0 1 0
    outer loop
      vertex 2.88897e-15 9.2 7.5
      vertex 2.88897e-15 9.2 49
      vertex 75 9.2 7.5
    endloop
  endfacet
  facet normal 0 1 0
    outer loop
      vertex 75 9.2 7.5
      vertex 2.88897e-15 9.2 49
      vertex 75 9.2 49
    endloop
  endfacet
  facet normal 0 0 1
    outer loop
      vertex 75 9.2 49
      vertex 2.88897e-15 9.2 49
      vertex 9.2 0 49
    endloop
  endfacet
  facet normal 0 0 1
    outer loop
      vertex 75 0 49
      vertex 75 9.2 49
      vertex 9.2 0 49
    endloop
  endfacet
  facet normal 1 0 0
    outer loop
      vertex 75 9.2 7.5
      vertex 75 0 0
      vertex 75 59.2 0
    endloop
  endfacet
  facet normal 1 0 0
    outer loop
      vertex 75 9.2 7.5
      vertex 75 9.2 49
      vertex 75 0 49
    endloop
  endfacet
  facet normal 1 0 0
    outer loop
      vertex 75 0 49
      vertex 75 0 0
      vertex 75 9.2 7.5
    endloop
  endfacet
  facet normal 1 0 0
    outer loop
      vertex 75 59.2 7.5
      vertex 75 9.2 7.5
      vertex 75 59.2 0
    endloop
  endfacet
  facet normal 0.707107 0.707107 0
    outer loop
      vertex 75 59.2 7.5
      vertex 65.8 68.4 7.5
      vertex 75 59.2 49
    endloop
  endfacet
  facet normal 0.707107 0.707107 0
    outer loop
      vertex 75 59.2 49
      vertex 65.8 68.4 7.5
      vertex 65.8 68.4 49
    endloop
  endfacet
  facet normal 0.707107 0.707107 0
    outer loop
      vertex 75 59.2 0
      vertex 65.8 68.4 7.5
      vertex 75 59.2 7.5
    endloop
  endfacet
  facet normal 0.707107 0.707107 0
    outer loop
      vertex 65.8 68.4 0
      vertex 65.8 68.4 7.5
      vertex 75 59.2 0
    endloop
  endfacet
  facet normal 1 0 0
    outer loop
      vertex 2.4 56.8 0
      vertex 2.4 56.8 2.2
      vertex 2.4 11.6 2.2
    endloop
  endfacet
  facet normal 1 0 0
    outer loop
      vertex 2.4 11.6 0
      vertex 2.4 56.8 0
      vertex 2.4 11.6 2.2
    endloop
  endfacet
  facet normal 0 -1 0
    outer loop
      vertex 72.6 56.8 0
      vertex 72.6 56.8 2.2
      vertex 2.4 56.8 2.2
    endloop
  endfacet
  facet normal 0 -1 0
    outer loop
      vertex 2.4 56.8 0
      vertex 72.6 56.8 0
      vertex 2.4 56.8 2.2
    endloop
  endfacet
  facet normal -1 0 0
    outer loop
      vertex 72.6 56.8 2.2
      vertex 72.6 56.8 0
      vertex 72.6 11.6 2.2
    endloop
  endfacet
  facet normal -1 0 0
    outer loop
      vertex 72.6 11.6 2.2
      vertex 72.6 56.8 0
      vertex 72.6 11.6 0
    endloop
  endfacet
  facet normal 0 1 0
    outer loop
      vertex 72.6 11.6 2.2
      vertex 72.6 11.6 0
      vertex 2.4 11.6 2.2
    endloop
  endfacet
  facet normal 0 1 0
    outer loop
      vertex 2.4 11.6 2.2
      vertex 72.6 11.6 0
      vertex 2.4 11.6 0
    endloop
  endfacet
  facet normal -1 0 0
    outer loop
      vertex 0.325 9.525 7.5
      vertex 0.325 9.525 9.5
      vertex 0.325 33.875 7.5
    endloop
  endfacet
  facet normal -1 0 0
    outer loop
      vertex 0.325 33.875 7.5
      vertex 0.325 9.525 9.5
      vertex 0.325 33.875 9.5
    endloop
  endfacet
  facet normal 0 -1 0
    outer loop
      vertex 0.325 9.525 9.5
      vertex 0.325 9.525 7.5
      vertex 24.675 9.525 7.5
    endloop
  endfacet
  facet normal 0 -1 0
    outer loop
      vertex 24.675 9.525 9.5
      vertex 0.325 9.525 9.5
      vertex 24.675 9.525 7.5
    endloop
  endfacet
  facet normal 1 0 0
    outer loop
      vertex 24.675 9.525 9.5
      vertex 24.675 9.525 7.5
      vertex 24.675 33.875 7.5
    endloop
  endfacet
  facet normal 1 0 0
    outer loop
      vertex 24.675 33.875 9.5
      vertex 24.675 9.525 9.5
      vertex 24.675 33.875 7.5
    endloop
  endfacet
  facet normal 0 1 0
    outer loop
      vertex 0.325 33.875 7.5
      vertex 0.325 33.875 9.5
      vertex 24.675 33.875 7.5
    endloop
  endfacet
  facet normal 0 1 0
    outer loop
      vertex 24.675 33.875 7.5
      vertex 0.325 33.875 9.5
      vertex 24.675 33.875 9.5
    endloop
  endfacet
  facet normal -1 0 0
    outer loop
      vertex 0.325 34.525 7.5
      vertex 0.325 34.525 9.5
      vertex 0.325 58.875 7.5
    endloop
  endfacet
  facet normal -1 0 0
    outer loop
      vertex 0.325 58.875 7.5
      vertex 0.325 34.525 9.5
      vertex 0.325 58.875 9.5
    endloop
  endfacet
  facet normal 0 -1 0
    outer loop
      vertex 0.325 34.525 9.5
      vertex 0.325 34.525 7.5
      vertex 24.675 34.525 7.5
    endloop
  endfacet
  facet normal 0 -1 0
    outer loop
      vertex 24.675 34.525 9.5
      vertex 0.325 34.525 9.5
      vertex 24.675 34.525 7.5
    endloop
  endfacet
  facet normal 1 0 0
    outer loop
      vertex 24.675 34.525 9.5
      vertex 24.675 34.525 7.5
      vertex 24.675 58.875 7.5
    endloop
  endfacet
  facet normal 1 0 0
    outer loop
      vertex 24.675 58.875 9.5
      vertex 24.675 34.525 9.5
      vertex 24.675 58.875 7.5
    endloop
  endfacet
  facet normal 0 1 0
    outer loop
      vertex 0.325 58.875 7.5
      vertex 0.325 58.875 9.5
      vertex 24.675 58.875 7.5
    endloop
  endfacet
  facet normal 0 1 0
    outer loop
      vertex 24.675 58.875 7.5
      vertex 0.325 58.875 9.5
      vertex 24.675 58.875 9.5
    endloop
  endfacet
  facet normal -1 0 0
    outer loop
      vertex 25.325 9.525 7.5
      vertex 25.325 9.525 9.5
      vertex 25.325 33.875 7.5
    endloop
  endfacet
  facet normal -1 0 0
    outer loop
      vertex 25.325 33.875 7.5
      vertex 25.325 9.525 9.5
      vertex 25.325 33.875 9.5
    endloop
  endfacet
  facet normal 0 -1 0
    outer loop
      vertex 25.325 9.525 9.5
      vertex 25.325 9.525 7.5
      vertex 49.675 9.525 7.5
    endloop
  endfacet
  facet normal 0 -1 0
    outer loop
      vertex 49.675 9.525 9.5
      vertex 25.325 9.525 9.5
      vertex 49.675 9.525 7.5
    endloop
  endfacet
  facet normal 1 0 0
    outer loop
      vertex 49.675 9.525 9.5
      vertex 49.675 9.525 7.5
      vertex 49.675 33.875 7.5
    endloop
  endfacet
  facet normal 1 0 0
    outer loop
      vertex 49.675 33.875 9.5
      vertex 49.675 9.525 9.5
      vertex 49.675 33.875 7.5
    endloop
  endfacet
  facet normal 0 1 0
    outer loop
      vertex 25.325 33.875 7.5
      vertex 25.325 33.875 9.5
      vertex 49.675 33.875 7.5
    endloop
  endfacet
  facet normal 0 1 0
    outer loop
      vertex 49.675 33.875 7.5
      vertex 25.325 33.875 9.5
      vertex 49.675 33.875 9.5
    endloop
  endfacet
  facet normal -1 0 0
    outer loop
      vertex 25.325 34.525 7.5
      vertex 25.325 34.525 9.5
      vertex 25.325 58.875 7.5
    endloop
  endfacet
  facet normal -1 0 0
    outer loop
      vertex 25.325 58.875 7.5
      vertex 25.325 34.525 9.5
      vertex 25.325 58.875 9.5
    endloop
  endfacet
  facet normal 0 -1 0
    outer loop
      vertex 25.325 34.525 9.5
      vertex 25.325 34.525 7.5
      vertex 49.675 34.525 7.5
    endloop
  endfacet
  facet normal 0 -1 0
    outer loop
      vertex 49.675 34.525 9.5
      vertex 25.325 34.525 9.5
      vertex 49.675 34.525 7.5
    endloop
  endfacet
  facet normal 1 0 0
    outer loop
      vertex 49.675 34.525 9.5
      vertex 49.675 34.525 7.5
      vertex 49.675 58.875 7.5
    endloop
  endfacet
  facet normal 1 0 0
    outer loop
      vertex 49.675 58.875 9.5
      vertex 49.675 34.525 9.5
      vertex 49.675 58.875 7.5
    endloop
  endfacet
  facet normal 0 1 0
    outer loop
      vertex 25.325 58.875 7.5
      vertex 25.325 58.875 9.5
      vertex 49.675 58.875 7.5
    endloop
  endfacet
  facet normal 0 1 0
    outer loop
      vertex 49.675 58.875 7.5
      vertex 25.325 58.875 9.5
      vertex 49.675 58.875 9.5
    endloop
  endfacet
  facet normal -1 0 0
    outer loop
      vertex 50.325 9.525 7.5
      vertex 50.325 9.525 9.5
      vertex 50.325 33.875 7.5
    endloop
  endfacet
  facet normal -1 0 0
    outer loop
      vertex 50.325 33.875 7.5
      vertex 50.325 9.525 9.5
      vertex 50.325 33.875 9.5
    endloop
  endfacet
  facet normal 0 -1 0
    outer loop
      vertex 50.325 9.525 9.5
      vertex 50.325 9.525 7.5
      vertex 74.675 9.525 7.5
    endloop
  endfacet
  facet normal 0 -1 0
    outer loop
      vertex 74.675 9.525 9.5
      vertex 50.325 9.525 9.5
      vertex 74.675 9.525 7.5
    endloop
  endfacet
  facet normal 1 0 0
    outer loop
      vertex 74.675 9.525 9.5
      vertex 74.675 9.525 7.5
      vertex 74.675 33.875 7.5
    endloop
  endfacet
  facet normal 1 0 0
    outer loop
      vertex 74.675 33.875 9.5
      vertex 74.675 9.525 9.5
      vertex 74.675 33.875 7.5
    endloop
  endfacet
  facet normal 0 1 0
    outer loop
      vertex 50.325 33.875 7.5
      vertex 50.325 33.875 9.5
      vertex 74.675 33.875 7.5
    endloop
  endfacet
  facet normal 0 1 0
    outer loop
      vertex 74.675 33.875 7.5
      vertex 50.325 33.875 9.5
      vertex 74.675 33.875 9.5
    endloop
  endfacet
  facet normal -1 0 0
    outer loop
      vertex 50.325 34.525 7.5
      vertex 50.325 34.525 9.5
      vertex 50.325 58.875 7.5
    endloop
  endfacet
  facet normal -1 0 0
    outer loop
      vertex 50.325 58.875 7.5
      vertex 50.325 34.525 9.5
      vertex 50.325 58.875 9.5
    endloop
  endfacet
  facet normal 0 -1 0
    outer loop
      vertex 50.325 34.525 9.5
      vertex 50.325 34.525 7.5
      vertex 74.675 34.525 7.5
    endloop
  endfacet
  facet normal 0 -1 0
    outer loop
      vertex 74.675 34.525 9.5
      vertex 50.325 34.525 9.5
      vertex 74.675 34.525 7.5
    endloop
  endfacet
  facet normal 1 0 0
    outer loop
      vertex 74.675 34.525 9.5
      vertex 74.675 34.525 7.5
      vertex 74.675 58.875 7.5
    endloop
  endfacet
  facet normal 1 0 0
    outer loop
      vertex 74.675 58.875 9.5
      vertex 74.675 34.525 9.5
      vertex 74.675 58.875 7.5
    endloop
  endfacet
  facet normal 0 1 0
    outer loop
      vertex 50.325 58.875 7.5
      vertex 50.325 58.875 9.5
      vertex 74.675 58.875 7.5
    endloop
  endfacet
  facet normal 0 1 0
    outer loop
      vertex 74.675 58.875 7.5
      vertex 50.325 58.875 9.5
      vertex 74.675 58.875 9.5
    endloop
  endfacet
  facet normal 0 0 -1
    outer loop
      vertex 3.8 55.4 2.2
      vertex 2.4 56.8 2.2
      vertex 71.2 55.4 2.2
    endloop
  endfacet
  facet normal 0 0 -1
    outer loop
      vertex 3.8 13 2.2
      vertex 72.6 11.6 2.2
      vertex 2.4 11.6 2.2
    endloop
  endfacet
  facet normal 0 0 -1
    outer loop
      vertex 2.4 56.8 2.2
      vertex 3.8 13 2.2
      vertex 2.4 11.6 2.2
    endloop
  endfacet
  facet normal 0 0 -1
    outer loop
      vertex 72.6 56.8 2.2
      vertex 72.6 11.6 2.2
      vertex 71.2 13 2.2
    endloop
  endfacet
  facet normal 0 0 -1
    outer loop
      vertex 72.6 56.8 2.2
      vertex 71.2 13 2.2
      vertex 71.2 55.4 2.2
    endloop
  endfacet
  facet normal 0 0 -1
    outer loop
      vertex 72.6 56.8 2.2
      vertex 71.2 55.4 2.2
      vertex 2.4 56.8 2.2
    endloop
  endfacet
  facet normal 0 0 -1
    outer loop
      vertex 2.4 56.8 2.2
      vertex 3.8 55.4 2.2
      vertex 3.8 13 2.2
    endloop
  endfacet
  facet normal 0 0 -1
    outer loop
      vertex 71.2 13 2.2
      vertex 72.6 11.6 2.2
      vertex 3.8 13 2.2
    endloop
  endfacet
  facet normal 0 0 1
    outer loop
      vertex 0.325 33.875 9.5
      vertex 0.325 9.525 9.5
      vertex 24.675 9.525 9.5
    endloop
  endfacet
  facet normal 0 0 1
    outer loop
      vertex 24.675 33.875 9.5
      vertex 0.325 33.875 9.5
      vertex 24.675 9.525 9.5
    endloop
  endfacet
  facet normal 0 0 1
    outer loop
      vertex 0.325 58.875 9.5
      vertex 0.325 34.525 9.5
      vertex 24.675 34.525 9.5
    endloop
  endfacet
  facet normal 0 0 1
    outer loop
      vertex 24.675 58.875 9.5
      vertex 0.325 58.875 9.5
      vertex 24.675 34.525 9.5
    endloop
  endfacet
  facet normal 0 0 1
    outer loop
      vertex 25.325 33.875 9.5
      vertex 25.325 9.525 9.5
      vertex 49.675 9.525 9.5
    endloop
  endfacet
  facet normal 0 0 1
    outer loop
      vertex 49.675 33.875 9.5
      vertex 25.325 33.875 9.5
      vertex 49.675 9.525 9.5
    endloop
  endfacet
  facet normal 0 0 1
    outer loop
      vertex 25.325 58.875 9.5
      vertex 25.325 34.525 9.5
      vertex 49.675 34.525 9.5
    endloop
  endfacet
  facet normal 0 0 1
    outer loop
      vertex 49.675 58.875 9.5
      vertex 25.325 58.875 9.5
      vertex 49.675 34.525 9.5
    endloop
  endfacet
  facet normal 0 0 1
    outer loop
      vertex 50.325 33.875 9.5
      vertex 50.325 9.525 9.5
      vertex 74.675 9.525 9.5
    endloop
  endfacet
  facet normal 0 0 1
    outer loop
      vertex 74.675 33.875 9.5
      vertex 50.325 33.875 9.5
      vertex 74.675 9.525 9.5
    endloop
  endfacet
  facet normal 0 0 1
    outer loop
      vertex 50.325 58.875 9.5
      vertex 50.325 34.525 9.5
      vertex 74.675 34.525 9.5
    endloop
  endfacet
  facet normal 0 0 1
    outer loop
      vertex 74.675 58.875 9.5
      vertex 50.325 58.875 9.5
      vertex 74.675 34.525 9.5
    endloop
  endfacet
  facet normal -1 0 0
    outer loop
      vertex 3.8 13 0
      vertex 3.8 13 2.2
      vertex 3.8 55.4 0
    endloop
  endfacet
  facet normal -1 0 0
    outer loop
      vertex 3.8 55.4 0
      vertex 3.8 13 2.2
      vertex 3.8 55.4 2.2
    endloop
  endfacet
  facet normal 0 -1 0
    outer loop
      vertex 3.8 13 2.2
      vertex 3.8 13 0
      vertex 71.2 13 0
    endloop
  endfacet
  facet normal 0 -1 0
    outer loop
      vertex 71.2 13 2.2
      vertex 3.8 13 2.2
      vertex 71.2 13 0
    endloop
  endfacet
  facet normal 0 1 0
    outer loop
      vertex 3.8 55.4 0
      vertex 3.8 55.4 2.2
      vertex 71.2 55.4 0
    endloop
  endfacet
  facet normal 0 1 0
    outer loop
      vertex 71.2 55.4 0
      vertex 3.8 55.4 2.2
      vertex 71.2 55.4 2.2
    endloop
  endfacet
  facet normal 1 0 0
    outer loop
      vertex 71.2 13 2.2
      vertex 71.2 13 0
      vertex 71.2 55.4 0
    endloop
  endfacet
  facet normal 1 0 0
    outer loop
      vertex 71.2 55.4 2.2
      vertex 71.2 13 2.2
      vertex 71.2 55.4 0
    endloop
  endfacet
  facet normal 0 0 -1
    outer loop
      vertex 14.7182 35.4194 0
      vertex 3.8 55.4 0
      vertex 71.2 13 0
    endloop
  endfacet
  facet normal 0 0 -1
    outer loop
      vertex 60.8865 36.1504 0
      vertex 3.8 55.4 0
      vertex 71.2 55.4 0
    endloop
  endfacet
  facet normal 0 0 -1
    outer loop
      vertex 3.8 13 0
      vertex 3.8 55.4 0
      vertex 9.96875 34.2 0
    endloop
  endfacet
  facet normal 0 0 -1
    outer loop
      vertex 3.8 13 0
      vertex 9.96875 34.2 0
      vertex 9.98871 33.8827 0
    endloop
  endfacet
  facet normal 0 0 -1
    outer loop
      vertex 3.8 13 0
      vertex 9.98871 33.8827 0
      vertex 10.0483 33.5705 0
    endloop
  endfacet
  facet normal 0 0 -1
    outer loop
      vertex 3.8 13 0
      vertex 10.0483 33.5705 0
      vertex 10.1465 33.2682 0
    endloop
  endfacet
  facet normal 0 0 -1
    outer loop
      vertex 3.8 13 0
      vertex 10.1465 33.2682 0
      vertex 10.2818 32.9806 0
    endloop
  endfacet
  facet normal 0 0 -1
    outer loop
      vertex 3.8 13 0
      vertex 10.2818 32.9806 0
      vertex 10.4522 32.7122 0
    endloop
  endfacet
  facet normal 0 0 -1
    outer loop
      vertex 3.8 13 0
      vertex 10.4522 32.7122 0
      vertex 10.6548 32.4672 0
    endloop
  endfacet
  facet normal 0 0 -1
    outer loop
      vertex 3.8 13 0
      vertex 10.6548 32.4672 0
      vertex 10.8865 32.2496 0
    endloop
  endfacet
  facet normal 0 0 -1
    outer loop
      vertex 3.8 13 0
      vertex 10.8865 32.2496 0
      vertex 11.1437 32.0628 0
    endloop
  endfacet
  facet normal 0 0 -1
    outer loop
      vertex 3.8 13 0
      vertex 11.1437 32.0628 0
      vertex 11.4222 31.9097 0
    endloop
  endfacet
  facet normal 0 0 -1
    outer loop
      vertex 3.8 13 0
      vertex 11.4222 31.9097 0
      vertex 11.7178 31.7926 0
    endloop
  endfacet
  facet normal 0 0 -1
    outer loop
      vertex 3.8 13 0
      vertex 11.7178 31.7926 0
      vertex 71.2 13 0
    endloop
  endfacet
  facet normal 0 0 -1
    outer loop
      vertex 11.7178 31.7926 0
      vertex 12.0257 31.7136 0
      vertex 71.2 13 0
    endloop
  endfacet
  facet normal 0 0 -1
    outer loop
      vertex 12.6589 31.6737 0
      vertex 71.2 13 0
      vertex 12.3411 31.6737 0
    endloop
  endfacet
  facet normal 0 0 -1
    outer loop
      vertex 12.9743 31.7136 0
      vertex 71.2 13 0
      vertex 12.6589 31.6737 0
    endloop
  endfacet
  facet normal 0 0 -1
    outer loop
      vertex 13.2822 31.7926 0
      vertex 71.2 13 0
      vertex 12.9743 31.7136 0
    endloop
  endfacet
  facet normal 0 0 -1
    outer loop
      vertex 13.5778 31.9097 0
      vertex 71.2 13 0
      vertex 13.2822 31.7926 0
    endloop
  endfacet
  facet normal 0 0 -1
    outer loop
      vertex 13.8563 32.0628 0
      vertex 71.2 13 0
      vertex 13.5778 31.9097 0
    endloop
  endfacet
  facet normal 0 0 -1
    outer loop
      vertex 14.1135 32.2496 0
      vertex 71.2 13 0
      vertex 13.8563 32.0628 0
    endloop
  endfacet
  facet normal 0 0 -1
    outer loop
      vertex 14.3452 32.4672 0
      vertex 71.2 13 0
      vertex 14.1135 32.2496 0
    endloop
  endfacet
  facet normal 0 0 -1
    outer loop
      vertex 14.5478 32.7122 0
      vertex 71.2 13 0
      vertex 14.3452 32.4672 0
    endloop
  endfacet
  facet normal 0 0 -1
    outer loop
      vertex 60.4522 32.7122 0
      vertex 71.2 13 0
      vertex 60.2818 32.9806 0
    endloop
  endfacet
  facet normal 0 0 -1
    outer loop
      vertex 14.5478 35.6878 0
      vertex 3.8 55.4 0
      vertex 14.7182 35.4194 0
    endloop
  endfacet
  facet normal 0 0 -1
    outer loop
      vertex 12.3411 36.7263 0
      vertex 3.8 55.4 0
      vertex 12.6589 36.7263 0
    endloop
  endfacet
  facet normal 0 0 -1
    outer loop
      vertex 14.5478 32.7122 0
      vertex 14.7182 32.9806 0
      vertex 71.2 13 0
    endloop
  endfacet
  facet normal 0 0 -1
    outer loop
      vertex 12.6589 36.7263 0
      vertex 3.8 55.4 0
      vertex 12.9743 36.6864 0
    endloop
  endfacet
  facet normal 0 0 -1
    outer loop
      vertex 14.7182 32.9806 0
      vertex 14.8535 33.2682 0
      vertex 71.2 13 0
    endloop
  endfacet
  facet normal 0 0 -1
    outer loop
      vertex 12.9743 36.6864 0
      vertex 3.8 55.4 0
      vertex 13.2822 36.6074 0
    endloop
  endfacet
  facet normal 0 0 -1
    outer loop
      vertex 14.8535 33.2682 0
      vertex 14.9517 33.5705 0
      vertex 71.2 13 0
    endloop
  endfacet
  facet normal 0 0 -1
    outer loop
      vertex 13.2822 36.6074 0
      vertex 3.8 55.4 0
      vertex 13.5778 36.4903 0
    endloop
  endfacet
  facet normal 0 0 -1
    outer loop
      vertex 14.9517 33.5705 0
      vertex 15.0113 33.8827 0
      vertex 71.2 13 0
    endloop
  endfacet
  facet normal 0 0 -1
    outer loop
      vertex 13.5778 36.4903 0
      vertex 3.8 55.4 0
      vertex 13.8563 36.3372 0
    endloop
  endfacet
  facet normal 0 0 -1
    outer loop
      vertex 15.0113 33.8827 0
      vertex 15.0312 34.2 0
      vertex 71.2 13 0
    endloop
  endfacet
  facet normal 0 0 -1
    outer loop
      vertex 13.8563 36.3372 0
      vertex 3.8 55.4 0
      vertex 14.1135 36.1504 0
    endloop
  endfacet
  facet normal 0 0 -1
    outer loop
      vertex 15.0312 34.2 0
      vertex 15.0113 34.5172 0
      vertex 71.2 13 0
    endloop
  endfacet
  facet normal 0 0 -1
    outer loop
      vertex 14.1135 36.1504 0
      vertex 3.8 55.4 0
      vertex 14.3452 35.9328 0
    endloop
  endfacet
  facet normal 0 0 -1
    outer loop
      vertex 15.0113 34.5172 0
      vertex 14.9517 34.8295 0
      vertex 71.2 13 0
    endloop
  endfacet
  facet normal 0 0 -1
    outer loop
      vertex 14.3452 35.9328 0
      vertex 3.8 55.4 0
      vertex 14.5478 35.6878 0
    endloop
  endfacet
  facet normal 0 0 -1
    outer loop
      vertex 14.9517 34.8295 0
      vertex 14.8535 35.1318 0
      vertex 71.2 13 0
    endloop
  endfacet
  facet normal 0 0 -1
    outer loop
      vertex 14.8535 35.1318 0
      vertex 14.7182 35.4194 0
      vertex 71.2 13 0
    endloop
  endfacet
  facet normal 0 0 -1
    outer loop
      vertex 12.0257 36.6864 0
      vertex 3.8 55.4 0
      vertex 12.3411 36.7263 0
    endloop
  endfacet
  facet normal 0 0 -1
    outer loop
      vertex 11.7178 36.6074 0
      vertex 3.8 55.4 0
      vertex 12.0257 36.6864 0
    endloop
  endfacet
  facet normal 0 0 -1
    outer loop
      vertex 11.4222 36.4903 0
      vertex 3.8 55.4 0
      vertex 11.7178 36.6074 0
    endloop
  endfacet
  facet normal 0 0 -1
    outer loop
      vertex 11.1437 36.3372 0
      vertex 3.8 55.4 0
      vertex 11.4222 36.4903 0
    endloop
  endfacet
  facet normal 0 0 -1
    outer loop
      vertex 10.8865 36.1504 0
      vertex 3.8 55.4 0
      vertex 11.1437 36.3372 0
    endloop
  endfacet
  facet normal 0 0 -1
    outer loop
      vertex 10.6548 35.9328 0
      vertex 3.8 55.4 0
      vertex 10.8865 36.1504 0
    endloop
  endfacet
  facet normal 0 0 -1
    outer loop
      vertex 10.4522 35.6878 0
      vertex 3.8 55.4 0
      vertex 10.6548 35.9328 0
    endloop
  endfacet
  facet normal 0 0 -1
    outer loop
      vertex 10.2818 35.4194 0
      vertex 3.8 55.4 0
      vertex 10.4522 35.6878 0
    endloop
  endfacet
  facet normal 0 0 -1
    outer loop
      vertex 10.1465 35.1318 0
      vertex 3.8 55.4 0
      vertex 10.2818 35.4194 0
    endloop
  endfacet
  facet normal 0 0 -1
    outer loop
      vertex 10.0483 34.8295 0
      vertex 3.8 55.4 0
      vertex 10.1465 35.1318 0
    endloop
  endfacet
  facet normal 0 0 -1
    outer loop
      vertex 9.98871 34.5172 0
      vertex 3.8 55.4 0
      vertex 10.0483 34.8295 0
    endloop
  endfacet
  facet normal 0 0 -1
    outer loop
      vertex 9.96875 34.2 0
      vertex 3.8 55.4 0
      vertex 9.98871 34.5172 0
    endloop
  endfacet
  facet normal 0 0 -1
    outer loop
      vertex 59.9887 33.8827 0
      vertex 3.8 55.4 0
      vertex 59.9688 34.2 0
    endloop
  endfacet
  facet normal 0 0 -1
    outer loop
      vertex 60.0483 33.5705 0
      vertex 3.8 55.4 0
      vertex 59.9887 33.8827 0
    endloop
  endfacet
  facet normal 0 0 -1
    outer loop
      vertex 60.1465 33.2682 0
      vertex 3.8 55.4 0
      vertex 60.0483 33.5705 0
    endloop
  endfacet
  facet normal 0 0 -1
    outer loop
      vertex 60.2818 32.9806 0
      vertex 3.8 55.4 0
      vertex 60.1465 33.2682 0
    endloop
  endfacet
  facet normal 0 0 -1
    outer loop
      vertex 71.2 13 0
      vertex 3.8 55.4 0
      vertex 60.2818 32.9806 0
    endloop
  endfacet
  facet normal 0 0 -1
    outer loop
      vertex 60.6548 32.4672 0
      vertex 71.2 13 0
      vertex 60.4522 32.7122 0
    endloop
  endfacet
  facet normal 0 0 -1
    outer loop
      vertex 60.8865 32.2496 0
      vertex 71.2 13 0
      vertex 60.6548 32.4672 0
    endloop
  endfacet
  facet normal 0 0 -1
    outer loop
      vertex 61.1437 32.0628 0
      vertex 71.2 13 0
      vertex 60.8865 32.2496 0
    endloop
  endfacet
  facet normal 0 0 -1
    outer loop
      vertex 65.0113 33.8827 0
      vertex 71.2 55.4 0
      vertex 64.9517 33.5705 0
    endloop
  endfacet
  facet normal 0 0 -1
    outer loop
      vertex 71.2 13 0
      vertex 61.1437 32.0628 0
      vertex 61.4222 31.9097 0
    endloop
  endfacet
  facet normal 0 0 -1
    outer loop
      vertex 71.2 13 0
      vertex 61.4222 31.9097 0
      vertex 61.7178 31.7926 0
    endloop
  endfacet
  facet normal 0 0 -1
    outer loop
      vertex 71.2 13 0
      vertex 61.7178 31.7926 0
      vertex 62.0257 31.7136 0
    endloop
  endfacet
  facet normal 0 0 -1
    outer loop
      vertex 71.2 13 0
      vertex 62.0257 31.7136 0
      vertex 62.3411 31.6737 0
    endloop
  endfacet
  facet normal 0 0 -1
    outer loop
      vertex 71.2 13 0
      vertex 62.3411 31.6737 0
      vertex 62.6589 31.6737 0
    endloop
  endfacet
  facet normal 0 0 -1
    outer loop
      vertex 71.2 13 0
      vertex 62.6589 31.6737 0
      vertex 62.9743 31.7136 0
    endloop
  endfacet
  facet normal 0 0 -1
    outer loop
      vertex 71.2 13 0
      vertex 62.9743 31.7136 0
      vertex 63.2822 31.7926 0
    endloop
  endfacet
  facet normal 0 0 -1
    outer loop
      vertex 71.2 13 0
      vertex 63.2822 31.7926 0
      vertex 63.5778 31.9097 0
    endloop
  endfacet
  facet normal 0 0 -1
    outer loop
      vertex 71.2 13 0
      vertex 63.5778 31.9097 0
      vertex 63.8563 32.0628 0
    endloop
  endfacet
  facet normal 0 0 -1
    outer loop
      vertex 71.2 13 0
      vertex 63.8563 32.0628 0
      vertex 64.1135 32.2496 0
    endloop
  endfacet
  facet normal 0 0 -1
    outer loop
      vertex 71.2 13 0
      vertex 64.1135 32.2496 0
      vertex 64.3452 32.4672 0
    endloop
  endfacet
  facet normal 0 0 -1
    outer loop
      vertex 71.2 13 0
      vertex 64.3452 32.4672 0
      vertex 64.5478 32.7122 0
    endloop
  endfacet
  facet normal 0 0 -1
    outer loop
      vertex 71.2 13 0
      vertex 64.5478 32.7122 0
      vertex 64.7182 32.9806 0
    endloop
  endfacet
  facet normal 0 0 -1
    outer loop
      vertex 71.2 13 0
      vertex 64.7182 32.9806 0
      vertex 64.8535 33.2682 0
    endloop
  endfacet
  facet normal 0 0 -1
    outer loop
      vertex 71.2 13 0
      vertex 64.8535 33.2682 0
      vertex 64.9517 33.5705 0
    endloop
  endfacet
  facet normal 0 0 -1
    outer loop
      vertex 71.2 13 0
      vertex 64.9517 33.5705 0
      vertex 71.2 55.4 0
    endloop
  endfacet
  facet normal 0 0 -1
    outer loop
      vertex 65.0312 34.2 0
      vertex 71.2 55.4 0
      vertex 65.0113 33.8827 0
    endloop
  endfacet
  facet normal 0 0 -1
    outer loop
      vertex 65.0113 34.5172 0
      vertex 71.2 55.4 0
      vertex 65.0312 34.2 0
    endloop
  endfacet
  facet normal 0 0 -1
    outer loop
      vertex 64.9517 34.8295 0
      vertex 71.2 55.4 0
      vertex 65.0113 34.5172 0
    endloop
  endfacet
  facet normal 0 0 -1
    outer loop
      vertex 64.8535 35.1318 0
      vertex 71.2 55.4 0
      vertex 64.9517 34.8295 0
    endloop
  endfacet
  facet normal 0 0 -1
    outer loop
      vertex 64.7182 35.4194 0
      vertex 71.2 55.4 0
      vertex 64.8535 35.1318 0
    endloop
  endfacet
  facet normal 0 0 -1
    outer loop
      vertex 64.5478 35.6878 0
      vertex 71.2 55.4 0
      vertex 64.7182 35.4194 0
    endloop
  endfacet
  facet normal 0 0 -1
    outer loop
      vertex 64.3452 35.9328 0
      vertex 71.2 55.4 0
      vertex 64.5478 35.6878 0
    endloop
  endfacet
  facet normal 0 0 -1
    outer loop
      vertex 64.1135 36.1504 0
      vertex 71.2 55.4 0
      vertex 64.3452 35.9328 0
    endloop
  endfacet
  facet normal 0 0 -1
    outer loop
      vertex 63.8563 36.3372 0
      vertex 71.2 55.4 0
      vertex 64.1135 36.1504 0
    endloop
  endfacet
  facet normal 0 0 -1
    outer loop
      vertex 63.5778 36.4903 0
      vertex 71.2 55.4 0
      vertex 63.8563 36.3372 0
    endloop
  endfacet
  facet normal 0 0 -1
    outer loop
      vertex 63.2822 36.6074 0
      vertex 71.2 55.4 0
      vertex 63.5778 36.4903 0
    endloop
  endfacet
  facet normal 0 0 -1
    outer loop
      vertex 62.9743 36.6864 0
      vertex 71.2 55.4 0
      vertex 63.2822 36.6074 0
    endloop
  endfacet
  facet normal 0 0 -1
    outer loop
      vertex 60.8865 36.1504 0
      vertex 71.2 55.4 0
      vertex 61.1437 36.3372 0
    endloop
  endfacet
  facet normal 0 0 -1
    outer loop
      vertex 62.9743 36.6864 0
      vertex 62.6589 36.7263 0
      vertex 71.2 55.4 0
    endloop
  endfacet
  facet normal 0 0 -1
    outer loop
      vertex 62.6589 36.7263 0
      vertex 62.3411 36.7263 0
      vertex 71.2 55.4 0
    endloop
  endfacet
  facet normal 0 0 -1
    outer loop
      vertex 62.3411 36.7263 0
      vertex 62.0257 36.6864 0
      vertex 71.2 55.4 0
    endloop
  endfacet
  facet normal 0 0 -1
    outer loop
      vertex 62.0257 36.6864 0
      vertex 61.7178 36.6074 0
      vertex 71.2 55.4 0
    endloop
  endfacet
  facet normal 0 0 -1
    outer loop
      vertex 61.7178 36.6074 0
      vertex 61.4222 36.4903 0
      vertex 71.2 55.4 0
    endloop
  endfacet
  facet normal 0 0 -1
    outer loop
      vertex 61.4222 36.4903 0
      vertex 61.1437 36.3372 0
      vertex 71.2 55.4 0
    endloop
  endfacet
  facet normal 0 0 -1
    outer loop
      vertex 60.6548 35.9328 0
      vertex 3.8 55.4 0
      vertex 60.8865 36.1504 0
    endloop
  endfacet
  facet normal 0 0 -1
    outer loop
      vertex 60.4522 35.6878 0
      vertex 3.8 55.4 0
      vertex 60.6548 35.9328 0
    endloop
  endfacet
  facet normal 0 0 -1
    outer loop
      vertex 60.2818 35.4194 0
      vertex 3.8 55.4 0
      vertex 60.4522 35.6878 0
    endloop
  endfacet
  facet normal 0 0 -1
    outer loop
      vertex 60.1465 35.1318 0
      vertex 3.8 55.4 0
      vertex 60.2818 35.4194 0
    endloop
  endfacet
  facet normal 0 0 -1
    outer loop
      vertex 60.0483 34.8295 0
      vertex 3.8 55.4 0
      vertex 60.1465 35.1318 0
    endloop
  endfacet
  facet normal 0 0 -1
    outer loop
      vertex 59.9887 34.5172 0
      vertex 3.8 55.4 0
      vertex 60.0483 34.8295 0
    endloop
  endfacet
  facet normal 0 0 -1
    outer loop
      vertex 59.9688 34.2 0
      vertex 3.8 55.4 0
      vertex 59.9887 34.5172 0
    endloop
  endfacet
  facet normal 0 0 -1
    outer loop
      vertex 12.3411 31.6737 0
      vertex 71.2 13 0
      vertex 12.0257 31.7136 0
    endloop
  endfacet
  facet normal 0.998027 -0.0627915 0
    outer loop
      vertex 9.98871 34.5172 0
      vertex 9.98871 34.5172 1.7875
      vertex 9.96875 34.2 1.7875
    endloop
  endfacet
  facet normal 0.998027 -0.0627915 0
    outer loop
      vertex 9.96875 34.2 0
      vertex 9.98871 34.5172 0
      vertex 9.96875 34.2 1.7875
    endloop
  endfacet
  facet normal 0.998027 0.0627915 0
    outer loop
      vertex 9.96875 34.2 1.7875
      vertex 9.98871 33.8827 1.7875
      vertex 9.98871 33.8827 0
    endloop
  endfacet
  facet normal 0.998027 0.0627915 0
    outer loop
      vertex 9.96875 34.2 0
      vertex 9.96875 34.2 1.7875
      vertex 9.98871 33.8827 0
    endloop
  endfacet
  facet normal 0.982287 -0.187381 0
    outer loop
      vertex 10.0483 34.8295 0
      vertex 10.0483 34.8295 1.7875
      vertex 9.98871 34.5172 1.7875
    endloop
  endfacet
  facet normal 0.982287 -0.187381 0
    outer loop
      vertex 9.98871 34.5172 0
      vertex 10.0483 34.8295 0
      vertex 9.98871 34.5172 1.7875
    endloop
  endfacet
  facet normal 0.951057 -0.309016 0
    outer loop
      vertex 10.1465 35.1318 0
      vertex 10.1465 35.1318 1.7875
      vertex 10.0483 34.8295 1.7875
    endloop
  endfacet
  facet normal 0.951057 -0.309016 0
    outer loop
      vertex 10.0483 34.8295 0
      vertex 10.1465 35.1318 0
      vertex 10.0483 34.8295 1.7875
    endloop
  endfacet
  facet normal 0.904827 -0.42578 0
    outer loop
      vertex 10.2818 35.4194 0
      vertex 10.2818 35.4194 1.7875
      vertex 10.1465 35.1318 1.7875
    endloop
  endfacet
  facet normal 0.904827 -0.42578 0
    outer loop
      vertex 10.1465 35.1318 0
      vertex 10.2818 35.4194 0
      vertex 10.1465 35.1318 1.7875
    endloop
  endfacet
  facet normal 0.844328 -0.535827 0
    outer loop
      vertex 10.4522 35.6878 0
      vertex 10.4522 35.6878 1.7875
      vertex 10.2818 35.4194 1.7875
    endloop
  endfacet
  facet normal 0.844328 -0.535827 0
    outer loop
      vertex 10.2818 35.4194 0
      vertex 10.4522 35.6878 0
      vertex 10.2818 35.4194 1.7875
    endloop
  endfacet
  facet normal 0.770515 -0.637422 0
    outer loop
      vertex 10.6548 35.9328 0
      vertex 10.6548 35.9328 1.7875
      vertex 10.4522 35.6878 1.7875
    endloop
  endfacet
  facet normal 0.770515 -0.637422 0
    outer loop
      vertex 10.4522 35.6878 0
      vertex 10.6548 35.9328 0
      vertex 10.4522 35.6878 1.7875
    endloop
  endfacet
  facet normal 0.684546 -0.728969 0
    outer loop
      vertex 10.8865 36.1504 0
      vertex 10.8865 36.1504 1.7875
      vertex 10.6548 35.9328 1.7875
    endloop
  endfacet
  facet normal 0.684546 -0.728969 0
    outer loop
      vertex 10.6548 35.9328 0
      vertex 10.8865 36.1504 0
      vertex 10.6548 35.9328 1.7875
    endloop
  endfacet
  facet normal 0.587786 -0.809017 0
    outer loop
      vertex 11.1437 36.3372 0
      vertex 11.1437 36.3372 1.7875
      vertex 10.8865 36.1504 1.7875
    endloop
  endfacet
  facet normal 0.587786 -0.809017 0
    outer loop
      vertex 10.8865 36.1504 0
      vertex 11.1437 36.3372 0
      vertex 10.8865 36.1504 1.7875
    endloop
  endfacet
  facet normal 0.481752 -0.876307 0
    outer loop
      vertex 11.4222 36.4903 0
      vertex 11.4222 36.4903 1.7875
      vertex 11.1437 36.3372 1.7875
    endloop
  endfacet
  facet normal 0.481752 -0.876307 0
    outer loop
      vertex 11.1437 36.3372 0
      vertex 11.4222 36.4903 0
      vertex 11.1437 36.3372 1.7875
    endloop
  endfacet
  facet normal 0.368126 -0.929776 0
    outer loop
      vertex 11.7178 36.6074 0
      vertex 11.7178 36.6074 1.7875
      vertex 11.4222 36.4903 1.7875
    endloop
  endfacet
  facet normal 0.368126 -0.929776 0
    outer loop
      vertex 11.4222 36.4903 0
      vertex 11.7178 36.6074 0
      vertex 11.4222 36.4903 1.7875
    endloop
  endfacet
  facet normal 0.248691 -0.968583 0
    outer loop
      vertex 12.0257 36.6864 0
      vertex 12.0257 36.6864 1.7875
      vertex 11.7178 36.6074 1.7875
    endloop
  endfacet
  facet normal 0.248691 -0.968583 0
    outer loop
      vertex 11.7178 36.6074 0
      vertex 12.0257 36.6864 0
      vertex 11.7178 36.6074 1.7875
    endloop
  endfacet
  facet normal 0.125332 -0.992115 0
    outer loop
      vertex 12.3411 36.7263 0
      vertex 12.3411 36.7263 1.7875
      vertex 12.0257 36.6864 1.7875
    endloop
  endfacet
  facet normal 0.125332 -0.992115 0
    outer loop
      vertex 12.0257 36.6864 0
      vertex 12.3411 36.7263 0
      vertex 12.0257 36.6864 1.7875
    endloop
  endfacet
  facet normal 0 -1 0
    outer loop
      vertex 12.6589 36.7263 0
      vertex 12.6589 36.7263 1.7875
      vertex 12.3411 36.7263 1.7875
    endloop
  endfacet
  facet normal 0 -1 0
    outer loop
      vertex 12.3411 36.7263 0
      vertex 12.6589 36.7263 0
      vertex 12.3411 36.7263 1.7875
    endloop
  endfacet
  facet normal -0.125332 -0.992115 0
    outer loop
      vertex 12.9743 36.6864 0
      vertex 12.9743 36.6864 1.7875
      vertex 12.6589 36.7263 1.7875
    endloop
  endfacet
  facet normal -0.125332 -0.992115 0
    outer loop
      vertex 12.6589 36.7263 0
      vertex 12.9743 36.6864 0
      vertex 12.6589 36.7263 1.7875
    endloop
  endfacet
  facet normal -0.248691 -0.968583 0
    outer loop
      vertex 13.2822 36.6074 0
      vertex 13.2822 36.6074 1.7875
      vertex 12.9743 36.6864 1.7875
    endloop
  endfacet
  facet normal -0.248691 -0.968583 0
    outer loop
      vertex 12.9743 36.6864 0
      vertex 13.2822 36.6074 0
      vertex 12.9743 36.6864 1.7875
    endloop
  endfacet
  facet normal -0.368126 -0.929776 0
    outer loop
      vertex 13.5778 36.4903 0
      vertex 13.5778 36.4903 1.7875
      vertex 13.2822 36.6074 1.7875
    endloop
  endfacet
  facet normal -0.368126 -0.929776 0
    outer loop
      vertex 13.2822 36.6074 0
      vertex 13.5778 36.4903 0
      vertex 13.2822 36.6074 1.7875
    endloop
  endfacet
  facet normal -0.481752 -0.876307 0
    outer loop
      vertex 13.8563 36.3372 0
      vertex 13.8563 36.3372 1.7875
      vertex 13.5778 36.4903 1.7875
    endloop
  endfacet
  facet normal -0.481752 -0.876307 0
    outer loop
      vertex 13.5778 36.4903 0
      vertex 13.8563 36.3372 0
      vertex 13.5778 36.4903 1.7875
    endloop
  endfacet
  facet normal -0.587786 -0.809017 0
    outer loop
      vertex 14.1135 36.1504 0
      vertex 14.1135 36.1504 1.7875
      vertex 13.8563 36.3372 1.7875
    endloop
  endfacet
  facet normal -0.587786 -0.809017 0
    outer loop
      vertex 13.8563 36.3372 0
      vertex 14.1135 36.1504 0
      vertex 13.8563 36.3372 1.7875
    endloop
  endfacet
  facet normal -0.684546 -0.728969 0
    outer loop
      vertex 14.3452 35.9328 0
      vertex 14.3452 35.9328 1.7875
      vertex 14.1135 36.1504 1.7875
    endloop
  endfacet
  facet normal -0.684546 -0.728969 0
    outer loop
      vertex 14.1135 36.1504 0
      vertex 14.3452 35.9328 0
      vertex 14.1135 36.1504 1.7875
    endloop
  endfacet
  facet normal -0.770515 -0.637422 0
    outer loop
      vertex 14.5478 35.6878 1.7875
      vertex 14.3452 35.9328 1.7875
      vertex 14.5478 35.6878 0
    endloop
  endfacet
  facet normal -0.770515 -0.637422 0
    outer loop
      vertex 14.5478 35.6878 0
      vertex 14.3452 35.9328 1.7875
      vertex 14.3452 35.9328 0
    endloop
  endfacet
  facet normal -0.844328 -0.535827 0
    outer loop
      vertex 14.7182 35.4194 1.7875
      vertex 14.5478 35.6878 1.7875
      vertex 14.7182 35.4194 0
    endloop
  endfacet
  facet normal -0.844328 -0.535827 0
    outer loop
      vertex 14.7182 35.4194 0
      vertex 14.5478 35.6878 1.7875
      vertex 14.5478 35.6878 0
    endloop
  endfacet
  facet normal -0.904827 -0.42578 0
    outer loop
      vertex 14.8535 35.1318 1.7875
      vertex 14.7182 35.4194 1.7875
      vertex 14.8535 35.1318 0
    endloop
  endfacet
  facet normal -0.904827 -0.42578 0
    outer loop
      vertex 14.8535 35.1318 0
      vertex 14.7182 35.4194 1.7875
      vertex 14.7182 35.4194 0
    endloop
  endfacet
  facet normal -0.951057 -0.309016 0
    outer loop
      vertex 14.9517 34.8295 1.7875
      vertex 14.8535 35.1318 1.7875
      vertex 14.9517 34.8295 0
    endloop
  endfacet
  facet normal -0.951057 -0.309016 0
    outer loop
      vertex 14.9517 34.8295 0
      vertex 14.8535 35.1318 1.7875
      vertex 14.8535 35.1318 0
    endloop
  endfacet
  facet normal -0.982287 -0.187381 0
    outer loop
      vertex 15.0113 34.5172 1.7875
      vertex 14.9517 34.8295 1.7875
      vertex 15.0113 34.5172 0
    endloop
  endfacet
  facet normal -0.982287 -0.187381 0
    outer loop
      vertex 15.0113 34.5172 0
      vertex 14.9517 34.8295 1.7875
      vertex 14.9517 34.8295 0
    endloop
  endfacet
  facet normal -0.998027 -0.0627915 0
    outer loop
      vertex 15.0312 34.2 1.7875
      vertex 15.0113 34.5172 1.7875
      vertex 15.0312 34.2 0
    endloop
  endfacet
  facet normal -0.998027 -0.0627915 0
    outer loop
      vertex 15.0312 34.2 0
      vertex 15.0113 34.5172 1.7875
      vertex 15.0113 34.5172 0
    endloop
  endfacet
  facet normal -0.998027 0.0627915 0
    outer loop
      vertex 15.0312 34.2 1.7875
      vertex 15.0312 34.2 0
      vertex 15.0113 33.8827 1.7875
    endloop
  endfacet
  facet normal -0.998027 0.0627915 0
    outer loop
      vertex 15.0113 33.8827 1.7875
      vertex 15.0312 34.2 0
      vertex 15.0113 33.8827 0
    endloop
  endfacet
  facet normal -0.982287 0.187381 0
    outer loop
      vertex 15.0113 33.8827 1.7875
      vertex 15.0113 33.8827 0
      vertex 14.9517 33.5705 1.7875
    endloop
  endfacet
  facet normal -0.982287 0.187381 0
    outer loop
      vertex 14.9517 33.5705 1.7875
      vertex 15.0113 33.8827 0
      vertex 14.9517 33.5705 0
    endloop
  endfacet
  facet normal -0.951057 0.309016 0
    outer loop
      vertex 14.9517 33.5705 1.7875
      vertex 14.9517 33.5705 0
      vertex 14.8535 33.2682 1.7875
    endloop
  endfacet
  facet normal -0.951057 0.309016 0
    outer loop
      vertex 14.8535 33.2682 1.7875
      vertex 14.9517 33.5705 0
      vertex 14.8535 33.2682 0
    endloop
  endfacet
  facet normal -0.904827 0.42578 0
    outer loop
      vertex 14.8535 33.2682 1.7875
      vertex 14.8535 33.2682 0
      vertex 14.7182 32.9806 1.7875
    endloop
  endfacet
  facet normal -0.904827 0.42578 0
    outer loop
      vertex 14.7182 32.9806 1.7875
      vertex 14.8535 33.2682 0
      vertex 14.7182 32.9806 0
    endloop
  endfacet
  facet normal -0.844328 0.535827 0
    outer loop
      vertex 14.7182 32.9806 1.7875
      vertex 14.7182 32.9806 0
      vertex 14.5478 32.7122 1.7875
    endloop
  endfacet
  facet normal -0.844328 0.535827 0
    outer loop
      vertex 14.5478 32.7122 1.7875
      vertex 14.7182 32.9806 0
      vertex 14.5478 32.7122 0
    endloop
  endfacet
  facet normal -0.770515 0.637422 0
    outer loop
      vertex 14.5478 32.7122 1.7875
      vertex 14.5478 32.7122 0
      vertex 14.3452 32.4672 1.7875
    endloop
  endfacet
  facet normal -0.770515 0.637422 0
    outer loop
      vertex 14.3452 32.4672 1.7875
      vertex 14.5478 32.7122 0
      vertex 14.3452 32.4672 0
    endloop
  endfacet
  facet normal -0.684546 0.728969 0
    outer loop
      vertex 14.3452 32.4672 1.7875
      vertex 14.3452 32.4672 0
      vertex 14.1135 32.2496 1.7875
    endloop
  endfacet
  facet normal -0.684546 0.728969 0
    outer loop
      vertex 14.1135 32.2496 1.7875
      vertex 14.3452 32.4672 0
      vertex 14.1135 32.2496 0
    endloop
  endfacet
  facet normal -0.587786 0.809017 0
    outer loop
      vertex 14.1135 32.2496 1.7875
      vertex 14.1135 32.2496 0
      vertex 13.8563 32.0628 1.7875
    endloop
  endfacet
  facet normal -0.587786 0.809017 0
    outer loop
      vertex 13.8563 32.0628 1.7875
      vertex 14.1135 32.2496 0
      vertex 13.8563 32.0628 0
    endloop
  endfacet
  facet normal -0.481752 0.876307 0
    outer loop
      vertex 13.8563 32.0628 1.7875
      vertex 13.8563 32.0628 0
      vertex 13.5778 31.9097 1.7875
    endloop
  endfacet
  facet normal -0.481752 0.876307 0
    outer loop
      vertex 13.5778 31.9097 1.7875
      vertex 13.8563 32.0628 0
      vertex 13.5778 31.9097 0
    endloop
  endfacet
  facet normal -0.368126 0.929776 0
    outer loop
      vertex 13.5778 31.9097 1.7875
      vertex 13.5778 31.9097 0
      vertex 13.2822 31.7926 1.7875
    endloop
  endfacet
  facet normal -0.368126 0.929776 0
    outer loop
      vertex 13.2822 31.7926 1.7875
      vertex 13.5778 31.9097 0
      vertex 13.2822 31.7926 0
    endloop
  endfacet
  facet normal -0.248691 0.968583 0
    outer loop
      vertex 13.2822 31.7926 1.7875
      vertex 13.2822 31.7926 0
      vertex 12.9743 31.7136 1.7875
    endloop
  endfacet
  facet normal -0.248691 0.968583 0
    outer loop
      vertex 12.9743 31.7136 1.7875
      vertex 13.2822 31.7926 0
      vertex 12.9743 31.7136 0
    endloop
  endfacet
  facet normal -0.125332 0.992115 0
    outer loop
      vertex 12.9743 31.7136 1.7875
      vertex 12.9743 31.7136 0
      vertex 12.6589 31.6737 1.7875
    endloop
  endfacet
  facet normal -0.125332 0.992115 0
    outer loop
      vertex 12.6589 31.6737 1.7875
      vertex 12.9743 31.7136 0
      vertex 12.6589 31.6737 0
    endloop
  endfacet
  facet normal 0 1 0
    outer loop
      vertex 12.6589 31.6737 1.7875
      vertex 12.6589 31.6737 0
      vertex 12.3411 31.6737 1.7875
    endloop
  endfacet
  facet normal 0 1 0
    outer loop
      vertex 12.3411 31.6737 1.7875
      vertex 12.6589 31.6737 0
      vertex 12.3411 31.6737 0
    endloop
  endfacet
  facet normal 0.125332 0.992115 0
    outer loop
      vertex 12.3411 31.6737 1.7875
      vertex 12.3411 31.6737 0
      vertex 12.0257 31.7136 1.7875
    endloop
  endfacet
  facet normal 0.125332 0.992115 0
    outer loop
      vertex 12.0257 31.7136 1.7875
      vertex 12.3411 31.6737 0
      vertex 12.0257 31.7136 0
    endloop
  endfacet
  facet normal 0.248691 0.968583 0
    outer loop
      vertex 12.0257 31.7136 1.7875
      vertex 12.0257 31.7136 0
      vertex 11.7178 31.7926 1.7875
    endloop
  endfacet
  facet normal 0.248691 0.968583 0
    outer loop
      vertex 11.7178 31.7926 1.7875
      vertex 12.0257 31.7136 0
      vertex 11.7178 31.7926 0
    endloop
  endfacet
  facet normal 0.368126 0.929776 0
    outer loop
      vertex 11.7178 31.7926 1.7875
      vertex 11.7178 31.7926 0
      vertex 11.4222 31.9097 1.7875
    endloop
  endfacet
  facet normal 0.368126 0.929776 0
    outer loop
      vertex 11.4222 31.9097 1.7875
      vertex 11.7178 31.7926 0
      vertex 11.4222 31.9097 0
    endloop
  endfacet
  facet normal 0.481752 0.876307 0
    outer loop
      vertex 11.4222 31.9097 1.7875
      vertex 11.4222 31.9097 0
      vertex 11.1437 32.0628 1.7875
    endloop
  endfacet
  facet normal 0.481752 0.876307 0
    outer loop
      vertex 11.1437 32.0628 1.7875
      vertex 11.4222 31.9097 0
      vertex 11.1437 32.0628 0
    endloop
  endfacet
  facet normal 0.587786 0.809017 0
    outer loop
      vertex 11.1437 32.0628 1.7875
      vertex 11.1437 32.0628 0
      vertex 10.8865 32.2496 1.7875
    endloop
  endfacet
  facet normal 0.587786 0.809017 0
    outer loop
      vertex 10.8865 32.2496 1.7875
      vertex 11.1437 32.0628 0
      vertex 10.8865 32.2496 0
    endloop
  endfacet
  facet normal 0.684546 0.728969 0
    outer loop
      vertex 10.8865 32.2496 1.7875
      vertex 10.8865 32.2496 0
      vertex 10.6548 32.4672 1.7875
    endloop
  endfacet
  facet normal 0.684546 0.728969 0
    outer loop
      vertex 10.6548 32.4672 1.7875
      vertex 10.8865 32.2496 0
      vertex 10.6548 32.4672 0
    endloop
  endfacet
  facet normal 0.770515 0.637422 0
    outer loop
      vertex 10.4522 32.7122 1.7875
      vertex 10.6548 32.4672 1.7875
      vertex 10.6548 32.4672 0
    endloop
  endfacet
  facet normal 0.770515 0.637422 0
    outer loop
      vertex 10.4522 32.7122 0
      vertex 10.4522 32.7122 1.7875
      vertex 10.6548 32.4672 0
    endloop
  endfacet
  facet normal 0.844328 0.535827 0
    outer loop
      vertex 10.2818 32.9806 1.7875
      vertex 10.4522 32.7122 1.7875
      vertex 10.4522 32.7122 0
    endloop
  endfacet
  facet normal 0.844328 0.535827 0
    outer loop
      vertex 10.2818 32.9806 0
      vertex 10.2818 32.9806 1.7875
      vertex 10.4522 32.7122 0
    endloop
  endfacet
  facet normal 0.904827 0.42578 0
    outer loop
      vertex 10.1465 33.2682 1.7875
      vertex 10.2818 32.9806 1.7875
      vertex 10.2818 32.9806 0
    endloop
  endfacet
  facet normal 0.904827 0.42578 0
    outer loop
      vertex 10.1465 33.2682 0
      vertex 10.1465 33.2682 1.7875
      vertex 10.2818 32.9806 0
    endloop
  endfacet
  facet normal 0.951057 0.309016 0
    outer loop
      vertex 10.0483 33.5705 1.7875
      vertex 10.1465 33.2682 1.7875
      vertex 10.1465 33.2682 0
    endloop
  endfacet
  facet normal 0.951057 0.309016 0
    outer loop
      vertex 10.0483 33.5705 0
      vertex 10.0483 33.5705 1.7875
      vertex 10.1465 33.2682 0
    endloop
  endfacet
  facet normal 0.982287 0.187381 0
    outer loop
      vertex 9.98871 33.8827 1.7875
      vertex 10.0483 33.5705 1.7875
      vertex 10.0483 33.5705 0
    endloop
  endfacet
  facet normal 0.982287 0.187381 0
    outer loop
      vertex 9.98871 33.8827 0
      vertex 9.98871 33.8827 1.7875
      vertex 10.0483 33.5705 0
    endloop
  endfacet
  facet normal 0.998027 -0.0627915 0
    outer loop
      vertex 59.9887 34.5172 0
      vertex 59.9887 34.5172 1.7875
      vertex 59.9688 34.2 1.7875
    endloop
  endfacet
  facet normal 0.998027 -0.0627915 0
    outer loop
      vertex 59.9688 34.2 0
      vertex 59.9887 34.5172 0
      vertex 59.9688 34.2 1.7875
    endloop
  endfacet
  facet normal 0.998027 0.0627915 0
    outer loop
      vertex 59.9688 34.2 1.7875
      vertex 59.9887 33.8827 1.7875
      vertex 59.9887 33.8827 0
    endloop
  endfacet
  facet normal 0.998027 0.0627915 0
    outer loop
      vertex 59.9688 34.2 0
      vertex 59.9688 34.2 1.7875
      vertex 59.9887 33.8827 0
    endloop
  endfacet
  facet normal 0.982287 -0.187381 0
    outer loop
      vertex 60.0483 34.8295 0
      vertex 60.0483 34.8295 1.7875
      vertex 59.9887 34.5172 1.7875
    endloop
  endfacet
  facet normal 0.982287 -0.187381 0
    outer loop
      vertex 59.9887 34.5172 0
      vertex 60.0483 34.8295 0
      vertex 59.9887 34.5172 1.7875
    endloop
  endfacet
  facet normal 0.951057 -0.309016 0
    outer loop
      vertex 60.1465 35.1318 0
      vertex 60.1465 35.1318 1.7875
      vertex 60.0483 34.8295 1.7875
    endloop
  endfacet
  facet normal 0.951057 -0.309016 0
    outer loop
      vertex 60.0483 34.8295 0
      vertex 60.1465 35.1318 0
      vertex 60.0483 34.8295 1.7875
    endloop
  endfacet
  facet normal 0.904827 -0.42578 0
    outer loop
      vertex 60.2818 35.4194 0
      vertex 60.2818 35.4194 1.7875
      vertex 60.1465 35.1318 1.7875
    endloop
  endfacet
  facet normal 0.904827 -0.42578 0
    outer loop
      vertex 60.1465 35.1318 0
      vertex 60.2818 35.4194 0
      vertex 60.1465 35.1318 1.7875
    endloop
  endfacet
  facet normal 0.844328 -0.535827 0
    outer loop
      vertex 60.4522 35.6878 0
      vertex 60.4522 35.6878 1.7875
      vertex 60.2818 35.4194 1.7875
    endloop
  endfacet
  facet normal 0.844328 -0.535827 0
    outer loop
      vertex 60.2818 35.4194 0
      vertex 60.4522 35.6878 0
      vertex 60.2818 35.4194 1.7875
    endloop
  endfacet
  facet normal 0.770515 -0.637422 0
    outer loop
      vertex 60.6548 35.9328 0
      vertex 60.6548 35.9328 1.7875
      vertex 60.4522 35.6878 1.7875
    endloop
  endfacet
  facet normal 0.770515 -0.637422 0
    outer loop
      vertex 60.4522 35.6878 0
      vertex 60.6548 35.9328 0
      vertex 60.4522 35.6878 1.7875
    endloop
  endfacet
  facet normal 0.684546 -0.728969 0
    outer loop
      vertex 60.8865 36.1504 0
      vertex 60.8865 36.1504 1.7875
      vertex 60.6548 35.9328 1.7875
    endloop
  endfacet
  facet normal 0.684546 -0.728969 0
    outer loop
      vertex 60.6548 35.9328 0
      vertex 60.8865 36.1504 0
      vertex 60.6548 35.9328 1.7875
    endloop
  endfacet
  facet normal 0.587786 -0.809017 0
    outer loop
      vertex 61.1437 36.3372 0
      vertex 61.1437 36.3372 1.7875
      vertex 60.8865 36.1504 1.7875
    endloop
  endfacet
  facet normal 0.587786 -0.809017 0
    outer loop
      vertex 60.8865 36.1504 0
      vertex 61.1437 36.3372 0
      vertex 60.8865 36.1504 1.7875
    endloop
  endfacet
  facet normal 0.481752 -0.876307 0
    outer loop
      vertex 61.4222 36.4903 0
      vertex 61.4222 36.4903 1.7875
      vertex 61.1437 36.3372 1.7875
    endloop
  endfacet
  facet normal 0.481752 -0.876307 0
    outer loop
      vertex 61.1437 36.3372 0
      vertex 61.4222 36.4903 0
      vertex 61.1437 36.3372 1.7875
    endloop
  endfacet
  facet normal 0.368126 -0.929776 0
    outer loop
      vertex 61.7178 36.6074 0
      vertex 61.7178 36.6074 1.7875
      vertex 61.4222 36.4903 1.7875
    endloop
  endfacet
  facet normal 0.368126 -0.929776 0
    outer loop
      vertex 61.4222 36.4903 0
      vertex 61.7178 36.6074 0
      vertex 61.4222 36.4903 1.7875
    endloop
  endfacet
  facet normal 0.248691 -0.968583 0
    outer loop
      vertex 62.0257 36.6864 0
      vertex 62.0257 36.6864 1.7875
      vertex 61.7178 36.6074 1.7875
    endloop
  endfacet
  facet normal 0.248691 -0.968583 0
    outer loop
      vertex 61.7178 36.6074 0
      vertex 62.0257 36.6864 0
      vertex 61.7178 36.6074 1.7875
    endloop
  endfacet
  facet normal 0.125332 -0.992115 0
    outer loop
      vertex 62.3411 36.7263 0
      vertex 62.3411 36.7263 1.7875
      vertex 62.0257 36.6864 1.7875
    endloop
  endfacet
  facet normal 0.125332 -0.992115 0
    outer loop
      vertex 62.0257 36.6864 0
      vertex 62.3411 36.7263 0
      vertex 62.0257 36.6864 1.7875
    endloop
  endfacet
  facet normal 0 -1 0
    outer loop
      vertex 62.6589 36.7263 0
      vertex 62.6589 36.7263 1.7875
      vertex 62.3411 36.7263 1.7875
    endloop
  endfacet
  facet normal 0 -1 0
    outer loop
      vertex 62.3411 36.7263 0
      vertex 62.6589 36.7263 0
      vertex 62.3411 36.7263 1.7875
    endloop
  endfacet
  facet normal -0.125332 -0.992115 0
    outer loop
      vertex 62.9743 36.6864 0
      vertex 62.9743 36.6864 1.7875
      vertex 62.6589 36.7263 1.7875
    endloop
  endfacet
  facet normal -0.125332 -0.992115 0
    outer loop
      vertex 62.6589 36.7263 0
      vertex 62.9743 36.6864 0
      vertex 62.6589 36.7263 1.7875
    endloop
  endfacet
  facet normal -0.248691 -0.968583 0
    outer loop
      vertex 63.2822 36.6074 0
      vertex 63.2822 36.6074 1.7875
      vertex 62.9743 36.6864 1.7875
    endloop
  endfacet
  facet normal -0.248691 -0.968583 0
    outer loop
      vertex 62.9743 36.6864 0
      vertex 63.2822 36.6074 0
      vertex 62.9743 36.6864 1.7875
    endloop
  endfacet
  facet normal -0.368126 -0.929776 0
    outer loop
      vertex 63.5778 36.4903 0
      vertex 63.5778 36.4903 1.7875
      vertex 63.2822 36.6074 1.7875
    endloop
  endfacet
  facet normal -0.368126 -0.929776 0
    outer loop
      vertex 63.2822 36.6074 0
      vertex 63.5778 36.4903 0
      vertex 63.2822 36.6074 1.7875
    endloop
  endfacet
  facet normal -0.481752 -0.876307 0
    outer loop
      vertex 63.8563 36.3372 0
      vertex 63.8563 36.3372 1.7875
      vertex 63.5778 36.4903 1.7875
    endloop
  endfacet
  facet normal -0.481752 -0.876307 0
    outer loop
      vertex 63.5778 36.4903 0
      vertex 63.8563 36.3372 0
      vertex 63.5778 36.4903 1.7875
    endloop
  endfacet
  facet normal -0.587786 -0.809017 0
    outer loop
      vertex 64.1135 36.1504 0
      vertex 64.1135 36.1504 1.7875
      vertex 63.8563 36.3372 1.7875
    endloop
  endfacet
  facet normal -0.587786 -0.809017 0
    outer loop
      vertex 63.8563 36.3372 0
      vertex 64.1135 36.1504 0
      vertex 63.8563 36.3372 1.7875
    endloop
  endfacet
  facet normal -0.684546 -0.728969 0
    outer loop
      vertex 64.3452 35.9328 0
      vertex 64.3452 35.9328 1.7875
      vertex 64.1135 36.1504 1.7875
    endloop
  endfacet
  facet normal -0.684546 -0.728969 0
    outer loop
      vertex 64.1135 36.1504 0
      vertex 64.3452 35.9328 0
      vertex 64.1135 36.1504 1.7875
    endloop
  endfacet
  facet normal -0.770515 -0.637422 0
    outer loop
      vertex 64.5478 35.6878 1.7875
      vertex 64.3452 35.9328 1.7875
      vertex 64.5478 35.6878 0
    endloop
  endfacet
  facet normal -0.770515 -0.637422 0
    outer loop
      vertex 64.5478 35.6878 0
      vertex 64.3452 35.9328 1.7875
      vertex 64.3452 35.9328 0
    endloop
  endfacet
  facet normal -0.844328 -0.535827 0
    outer loop
      vertex 64.7182 35.4194 1.7875
      vertex 64.5478 35.6878 1.7875
      vertex 64.7182 35.4194 0
    endloop
  endfacet
  facet normal -0.844328 -0.535827 0
    outer loop
      vertex 64.7182 35.4194 0
      vertex 64.5478 35.6878 1.7875
      vertex 64.5478 35.6878 0
    endloop
  endfacet
  facet normal -0.904827 -0.42578 0
    outer loop
      vertex 64.8535 35.1318 1.7875
      vertex 64.7182 35.4194 1.7875
      vertex 64.8535 35.1318 0
    endloop
  endfacet
  facet normal -0.904827 -0.42578 0
    outer loop
      vertex 64.8535 35.1318 0
      vertex 64.7182 35.4194 1.7875
      vertex 64.7182 35.4194 0
    endloop
  endfacet
  facet normal -0.951057 -0.309016 0
    outer loop
      vertex 64.9517 34.8295 1.7875
      vertex 64.8535 35.1318 1.7875
      vertex 64.9517 34.8295 0
    endloop
  endfacet
  facet normal -0.951057 -0.309016 0
    outer loop
      vertex 64.9517 34.8295 0
      vertex 64.8535 35.1318 1.7875
      vertex 64.8535 35.1318 0
    endloop
  endfacet
  facet normal -0.982287 -0.187381 0
    outer loop
      vertex 65.0113 34.5172 1.7875
      vertex 64.9517 34.8295 1.7875
      vertex 65.0113 34.5172 0
    endloop
  endfacet
  facet normal -0.982287 -0.187381 0
    outer loop
      vertex 65.0113 34.5172 0
      vertex 64.9517 34.8295 1.7875
      vertex 64.9517 34.8295 0
    endloop
  endfacet
  facet normal -0.998027 -0.0627915 0
    outer loop
      vertex 65.0312 34.2 1.7875
      vertex 65.0113 34.5172 1.7875
      vertex 65.0312 34.2 0
    endloop
  endfacet
  facet normal -0.998027 -0.0627915 0
    outer loop
      vertex 65.0312 34.2 0
      vertex 65.0113 34.5172 1.7875
      vertex 65.0113 34.5172 0
    endloop
  endfacet
  facet normal -0.998027 0.0627915 0
    outer loop
      vertex 65.0312 34.2 1.7875
      vertex 65.0312 34.2 0
      vertex 65.0113 33.8827 1.7875
    endloop
  endfacet
  facet normal -0.998027 0.0627915 0
    outer loop
      vertex 65.0113 33.8827 1.7875
      vertex 65.0312 34.2 0
      vertex 65.0113 33.8827 0
    endloop
  endfacet
  facet normal -0.982287 0.187381 0
    outer loop
      vertex 65.0113 33.8827 1.7875
      vertex 65.0113 33.8827 0
      vertex 64.9517 33.5705 1.7875
    endloop
  endfacet
  facet normal -0.982287 0.187381 0
    outer loop
      vertex 64.9517 33.5705 1.7875
      vertex 65.0113 33.8827 0
      vertex 64.9517 33.5705 0
    endloop
  endfacet
  facet normal -0.951057 0.309016 0
    outer loop
      vertex 64.9517 33.5705 1.7875
      vertex 64.9517 33.5705 0
      vertex 64.8535 33.2682 1.7875
    endloop
  endfacet
  facet normal -0.951057 0.309016 0
    outer loop
      vertex 64.8535 33.2682 1.7875
      vertex 64.9517 33.5705 0
      vertex 64.8535 33.2682 0
    endloop
  endfacet
  facet normal -0.904827 0.42578 0
    outer loop
      vertex 64.8535 33.2682 1.7875
      vertex 64.8535 33.2682 0
      vertex 64.7182 32.9806 1.7875
    endloop
  endfacet
  facet normal -0.904827 0.42578 0
    outer loop
      vertex 64.7182 32.9806 1.7875
      vertex 64.8535 33.2682 0
      vertex 64.7182 32.9806 0
    endloop
  endfacet
  facet normal -0.844328 0.535827 0
    outer loop
      vertex 64.7182 32.9806 1.7875
      vertex 64.7182 32.9806 0
      vertex 64.5478 32.7122 1.7875
    endloop
  endfacet
  facet normal -0.844328 0.535827 0
    outer loop
      vertex 64.5478 32.7122 1.7875
      vertex 64.7182 32.9806 0
      vertex 64.5478 32.7122 0
    endloop
  endfacet
  facet normal -0.770515 0.637422 0
    outer loop
      vertex 64.5478 32.7122 1.7875
      vertex 64.5478 32.7122 0
      vertex 64.3452 32.4672 1.7875
    endloop
  endfacet
  facet normal -0.770515 0.637422 0
    outer loop
      vertex 64.3452 32.4672 1.7875
      vertex 64.5478 32.7122 0
      vertex 64.3452 32.4672 0
    endloop
  endfacet
  facet normal -0.684546 0.728969 0
    outer loop
      vertex 64.3452 32.4672 1.7875
      vertex 64.3452 32.4672 0
      vertex 64.1135 32.2496 1.7875
    endloop
  endfacet
  facet normal -0.684546 0.728969 0
    outer loop
      vertex 64.1135 32.2496 1.7875
      vertex 64.3452 32.4672 0
      vertex 64.1135 32.2496 0
    endloop
  endfacet
  facet normal -0.587786 0.809017 0
    outer loop
      vertex 64.1135 32.2496 1.7875
      vertex 64.1135 32.2496 0
      vertex 63.8563 32.0628 1.7875
    endloop
  endfacet
  facet normal -0.587786 0.809017 0
    outer loop
      vertex 63.8563 32.0628 1.7875
      vertex 64.1135 32.2496 0
      vertex 63.8563 32.0628 0
    endloop
  endfacet
  facet normal -0.481752 0.876307 0
    outer loop
      vertex 63.8563 32.0628 1.7875
      vertex 63.8563 32.0628 0
      vertex 63.5778 31.9097 1.7875
    endloop
  endfacet
  facet normal -0.481752 0.876307 0
    outer loop
      vertex 63.5778 31.9097 1.7875
      vertex 63.8563 32.0628 0
      vertex 63.5778 31.9097 0
    endloop
  endfacet
  facet normal -0.368126 0.929776 0
    outer loop
      vertex 63.5778 31.9097 1.7875
      vertex 63.5778 31.9097 0
      vertex 63.2822 31.7926 1.7875
    endloop
  endfacet
  facet normal -0.368126 0.929776 0
    outer loop
      vertex 63.2822 31.7926 1.7875
      vertex 63.5778 31.9097 0
      vertex 63.2822 31.7926 0
    endloop
  endfacet
  facet normal -0.248691 0.968583 0
    outer loop
      vertex 63.2822 31.7926 1.7875
      vertex 63.2822 31.7926 0
      vertex 62.9743 31.7136 1.7875
    endloop
  endfacet
  facet normal -0.248691 0.968583 0
    outer loop
      vertex 62.9743 31.7136 1.7875
      vertex 63.2822 31.7926 0
      vertex 62.9743 31.7136 0
    endloop
  endfacet
  facet normal -0.125332 0.992115 0
    outer loop
      vertex 62.9743 31.7136 1.7875
      vertex 62.9743 31.7136 0
      vertex 62.6589 31.6737 1.7875
    endloop
  endfacet
  facet normal -0.125332 0.992115 0
    outer loop
      vertex 62.6589 31.6737 1.7875
      vertex 62.9743 31.7136 0
      vertex 62.6589 31.6737 0
    endloop
  endfacet
  facet normal 0 1 0
    outer loop
      vertex 62.6589 31.6737 1.7875
      vertex 62.6589 31.6737 0
      vertex 62.3411 31.6737 1.7875
    endloop
  endfacet
  facet normal 0 1 0
    outer loop
      vertex 62.3411 31.6737 1.7875
      vertex 62.6589 31.6737 0
      vertex 62.3411 31.6737 0
    endloop
  endfacet
  facet normal 0.125332 0.992115 0
    outer loop
      vertex 62.3411 31.6737 1.7875
      vertex 62.3411 31.6737 0
      vertex 62.0257 31.7136 1.7875
    endloop
  endfacet
  facet normal 0.125332 0.992115 0
    outer loop
      vertex 62.0257 31.7136 1.7875
      vertex 62.3411 31.6737 0
      vertex 62.0257 31.7136 0
    endloop
  endfacet
  facet normal 0.248691 0.968583 0
    outer loop
      vertex 62.0257 31.7136 1.7875
      vertex 62.0257 31.7136 0
      vertex 61.7178 31.7926 1.7875
    endloop
  endfacet
  facet normal 0.248691 0.968583 0
    outer loop
      vertex 61.7178 31.7926 1.7875
      vertex 62.0257 31.7136 0
      vertex 61.7178 31.7926 0
    endloop
  endfacet
  facet normal 0.368126 0.929776 0
    outer loop
      vertex 61.7178 31.7926 1.7875
      vertex 61.7178 31.7926 0
      vertex 61.4222 31.9097 1.7875
    endloop
  endfacet
  facet normal 0.368126 0.929776 0
    outer loop
      vertex 61.4222 31.9097 1.7875
      vertex 61.7178 31.7926 0
      vertex 61.4222 31.9097 0
    endloop
  endfacet
  facet normal 0.481752 0.876307 0
    outer loop
      vertex 61.4222 31.9097 1.7875
      vertex 61.4222 31.9097 0
      vertex 61.1437 32.0628 1.7875
    endloop
  endfacet
  facet normal 0.481752 0.876307 0
    outer loop
      vertex 61.1437 32.0628 1.7875
      vertex 61.4222 31.9097 0
      vertex 61.1437 32.0628 0
    endloop
  endfacet
  facet normal 0.587786 0.809017 0
    outer loop
      vertex 61.1437 32.0628 1.7875
      vertex 61.1437 32.0628 0
      vertex 60.8865 32.2496 1.7875
    endloop
  endfacet
  facet normal 0.587786 0.809017 0
    outer loop
      vertex 60.8865 32.2496 1.7875
      vertex 61.1437 32.0628 0
      vertex 60.8865 32.2496 0
    endloop
  endfacet
  facet normal 0.684546 0.728969 0
    outer loop
      vertex 60.8865 32.2496 1.7875
      vertex 60.8865 32.2496 0
      vertex 60.6548 32.4672 1.7875
    endloop
  endfacet
  facet normal 0.684546 0.728969 0
    outer loop
      vertex 60.6548 32.4672 1.7875
      vertex 60.8865 32.2496 0
      vertex 60.6548 32.4672 0
    endloop
  endfacet
  facet normal 0.770515 0.637422 0
    outer loop
      vertex 60.4522 32.7122 1.7875
      vertex 60.6548 32.4672 1.7875
      vertex 60.6548 32.4672 0
    endloop
  endfacet
  facet normal 0.770515 0.637422 0
    outer loop
      vertex 60.4522 32.7122 0
      vertex 60.4522 32.7122 1.7875
      vertex 60.6548 32.4672 0
    endloop
  endfacet
  facet normal 0.844328 0.535827 0
    outer loop
      vertex 60.2818 32.9806 1.7875
      vertex 60.4522 32.7122 1.7875
      vertex 60.4522 32.7122 0
    endloop
  endfacet
  facet normal 0.844328 0.535827 0
    outer loop
      vertex 60.2818 32.9806 0
      vertex 60.2818 32.9806 1.7875
      vertex 60.4522 32.7122 0
    endloop
  endfacet
  facet normal 0.904827 0.42578 0
    outer loop
      vertex 60.1465 33.2682 1.7875
      vertex 60.2818 32.9806 1.7875
      vertex 60.2818 32.9806 0
    endloop
  endfacet
  facet normal 0.904827 0.42578 0
    outer loop
      vertex 60.1465 33.2682 0
      vertex 60.1465 33.2682 1.7875
      vertex 60.2818 32.9806 0
    endloop
  endfacet
  facet normal 0.951057 0.309016 0
    outer loop
      vertex 60.0483 33.5705 1.7875
      vertex 60.1465 33.2682 1.7875
      vertex 60.1465 33.2682 0
    endloop
  endfacet
  facet normal 0.951057 0.309016 0
    outer loop
      vertex 60.0483 33.5705 0
      vertex 60.0483 33.5705 1.7875
      vertex 60.1465 33.2682 0
    endloop
  endfacet
  facet normal 0.982287 0.187381 0
    outer loop
      vertex 59.9887 33.8827 1.7875
      vertex 60.0483 33.5705 1.7875
      vertex 60.0483 33.5705 0
    endloop
  endfacet
  facet normal 0.982287 0.187381 0
    outer loop
      vertex 59.9887 33.8827 0
      vertex 59.9887 33.8827 1.7875
      vertex 60.0483 33.5705 0
    endloop
  endfacet
  facet normal 0 0 -1
    outer loop
      vertex 10.0483 34.8295 1.7875
      vertex 10.1465 35.1318 1.7875
      vertex 9.98871 34.5172 1.7875
    endloop
  endfacet
  facet normal 0 0 -1
    outer loop
      vertex 9.98871 34.5172 1.7875
      vertex 10.1465 35.1318 1.7875
      vertex 10.2818 35.4194 1.7875
    endloop
  endfacet
  facet normal 0 0 -1
    outer loop
      vertex 9.98871 34.5172 1.7875
      vertex 10.2818 35.4194 1.7875
      vertex 10.4522 35.6878 1.7875
    endloop
  endfacet
  facet normal 0 0 -1
    outer loop
      vertex 9.98871 34.5172 1.7875
      vertex 10.4522 35.6878 1.7875
      vertex 10.6548 35.9328 1.7875
    endloop
  endfacet
  facet normal 0 0 -1
    outer loop
      vertex 9.98871 34.5172 1.7875
      vertex 10.6548 35.9328 1.7875
      vertex 10.8865 36.1504 1.7875
    endloop
  endfacet
  facet normal 0 0 -1
    outer loop
      vertex 9.98871 34.5172 1.7875
      vertex 10.8865 36.1504 1.7875
      vertex 11.1437 36.3372 1.7875
    endloop
  endfacet
  facet normal 0 0 -1
    outer loop
      vertex 9.98871 34.5172 1.7875
      vertex 11.1437 36.3372 1.7875
      vertex 11.4222 36.4903 1.7875
    endloop
  endfacet
  facet normal 0 0 -1
    outer loop
      vertex 9.98871 34.5172 1.7875
      vertex 11.4222 36.4903 1.7875
      vertex 11.7178 36.6074 1.7875
    endloop
  endfacet
  facet normal 0 0 -1
    outer loop
      vertex 9.98871 34.5172 1.7875
      vertex 11.7178 36.6074 1.7875
      vertex 12.0257 36.6864 1.7875
    endloop
  endfacet
  facet normal 0 0 -1
    outer loop
      vertex 9.98871 34.5172 1.7875
      vertex 12.0257 36.6864 1.7875
      vertex 12.3411 36.7263 1.7875
    endloop
  endfacet
  facet normal 0 0 -1
    outer loop
      vertex 9.98871 34.5172 1.7875
      vertex 12.3411 36.7263 1.7875
      vertex 12.6589 36.7263 1.7875
    endloop
  endfacet
  facet normal 0 0 -1
    outer loop
      vertex 9.98871 34.5172 1.7875
      vertex 12.6589 36.7263 1.7875
      vertex 12.9743 36.6864 1.7875
    endloop
  endfacet
  facet normal 0 0 -1
    outer loop
      vertex 9.98871 34.5172 1.7875
      vertex 12.9743 36.6864 1.7875
      vertex 13.2822 36.6074 1.7875
    endloop
  endfacet
  facet normal 0 0 -1
    outer loop
      vertex 9.98871 34.5172 1.7875
      vertex 13.2822 36.6074 1.7875
      vertex 13.5778 36.4903 1.7875
    endloop
  endfacet
  facet normal 0 0 -1
    outer loop
      vertex 9.98871 34.5172 1.7875
      vertex 13.5778 36.4903 1.7875
      vertex 13.8563 36.3372 1.7875
    endloop
  endfacet
  facet normal 0 0 -1
    outer loop
      vertex 9.98871 34.5172 1.7875
      vertex 13.8563 36.3372 1.7875
      vertex 14.1135 36.1504 1.7875
    endloop
  endfacet
  facet normal 0 0 -1
    outer loop
      vertex 9.98871 34.5172 1.7875
      vertex 14.1135 36.1504 1.7875
      vertex 14.3452 35.9328 1.7875
    endloop
  endfacet
  facet normal 0 0 -1
    outer loop
      vertex 9.98871 34.5172 1.7875
      vertex 14.3452 35.9328 1.7875
      vertex 14.5478 35.6878 1.7875
    endloop
  endfacet
  facet normal 0 0 -1
    outer loop
      vertex 9.98871 34.5172 1.7875
      vertex 14.5478 35.6878 1.7875
      vertex 14.7182 35.4194 1.7875
    endloop
  endfacet
  facet normal 0 0 -1
    outer loop
      vertex 9.98871 34.5172 1.7875
      vertex 14.7182 35.4194 1.7875
      vertex 14.8535 35.1318 1.7875
    endloop
  endfacet
  facet normal 0 0 -1
    outer loop
      vertex 9.98871 34.5172 1.7875
      vertex 14.8535 35.1318 1.7875
      vertex 14.9517 34.8295 1.7875
    endloop
  endfacet
  facet normal 0 0 -1
    outer loop
      vertex 9.98871 34.5172 1.7875
      vertex 14.9517 34.8295 1.7875
      vertex 15.0113 34.5172 1.7875
    endloop
  endfacet
  facet normal 0 0 -1
    outer loop
      vertex 9.98871 34.5172 1.7875
      vertex 15.0113 34.5172 1.7875
      vertex 15.0312 34.2 1.7875
    endloop
  endfacet
  facet normal 0 0 -1
    outer loop
      vertex 9.98871 34.5172 1.7875
      vertex 15.0312 34.2 1.7875
      vertex 15.0113 33.8827 1.7875
    endloop
  endfacet
  facet normal 0 0 -1
    outer loop
      vertex 9.98871 34.5172 1.7875
      vertex 15.0113 33.8827 1.7875
      vertex 14.9517 33.5705 1.7875
    endloop
  endfacet
  facet normal 0 0 -1
    outer loop
      vertex 9.98871 34.5172 1.7875
      vertex 14.9517 33.5705 1.7875
      vertex 14.8535 33.2682 1.7875
    endloop
  endfacet
  facet normal 0 0 -1
    outer loop
      vertex 9.98871 34.5172 1.7875
      vertex 14.8535 33.2682 1.7875
      vertex 14.7182 32.9806 1.7875
    endloop
  endfacet
  facet normal 0 0 -1
    outer loop
      vertex 9.98871 34.5172 1.7875
      vertex 14.7182 32.9806 1.7875
      vertex 14.5478 32.7122 1.7875
    endloop
  endfacet
  facet normal 0 0 -1
    outer loop
      vertex 9.98871 34.5172 1.7875
      vertex 14.5478 32.7122 1.7875
      vertex 14.3452 32.4672 1.7875
    endloop
  endfacet
  facet normal 0 0 -1
    outer loop
      vertex 9.98871 34.5172 1.7875
      vertex 14.3452 32.4672 1.7875
      vertex 14.1135 32.2496 1.7875
    endloop
  endfacet
  facet normal 0 0 -1
    outer loop
      vertex 9.98871 34.5172 1.7875
      vertex 14.1135 32.2496 1.7875
      vertex 13.8563 32.0628 1.7875
    endloop
  endfacet
  facet normal 0 0 -1
    outer loop
      vertex 9.98871 34.5172 1.7875
      vertex 13.8563 32.0628 1.7875
      vertex 13.5778 31.9097 1.7875
    endloop
  endfacet
  facet normal 0 0 -1
    outer loop
      vertex 9.98871 34.5172 1.7875
      vertex 13.5778 31.9097 1.7875
      vertex 13.2822 31.7926 1.7875
    endloop
  endfacet
  facet normal 0 0 -1
    outer loop
      vertex 9.98871 34.5172 1.7875
      vertex 13.2822 31.7926 1.7875
      vertex 12.9743 31.7136 1.7875
    endloop
  endfacet
  facet normal 0 0 -1
    outer loop
      vertex 9.98871 34.5172 1.7875
      vertex 12.9743 31.7136 1.7875
      vertex 12.6589 31.6737 1.7875
    endloop
  endfacet
  facet normal 0 0 -1
    outer loop
      vertex 9.98871 34.5172 1.7875
      vertex 12.6589 31.6737 1.7875
      vertex 12.3411 31.6737 1.7875
    endloop
  endfacet
  facet normal 0 0 -1
    outer loop
      vertex 9.98871 34.5172 1.7875
      vertex 12.3411 31.6737 1.7875
      vertex 12.0257 31.7136 1.7875
    endloop
  endfacet
  facet normal 0 0 -1
    outer loop
      vertex 9.98871 34.5172 1.7875
      vertex 12.0257 31.7136 1.7875
      vertex 11.7178 31.7926 1.7875
    endloop
  endfacet
  facet normal 0 0 -1
    outer loop
      vertex 9.98871 34.5172 1.7875
      vertex 11.7178 31.7926 1.7875
      vertex 11.4222 31.9097 1.7875
    endloop
  endfacet
  facet normal 0 0 -1
    outer loop
      vertex 9.98871 34.5172 1.7875
      vertex 11.4222 31.9097 1.7875
      vertex 11.1437 32.0628 1.7875
    endloop
  endfacet
  facet normal 0 0 -1
    outer loop
      vertex 9.98871 34.5172 1.7875
      vertex 11.1437 32.0628 1.7875
      vertex 10.8865 32.2496 1.7875
    endloop
  endfacet
  facet normal 0 0 -1
    outer loop
      vertex 9.98871 34.5172 1.7875
      vertex 10.8865 32.2496 1.7875
      vertex 10.6548 32.4672 1.7875
    endloop
  endfacet
  facet normal 0 0 -1
    outer loop
      vertex 9.98871 34.5172 1.7875
      vertex 10.6548 32.4672 1.7875
      vertex 10.4522 32.7122 1.7875
    endloop
  endfacet
  facet normal 0 0 -1
    outer loop
      vertex 9.98871 34.5172 1.7875
      vertex 10.4522 32.7122 1.7875
      vertex 10.2818 32.9806 1.7875
    endloop
  endfacet
  facet normal 0 0 -1
    outer loop
      vertex 9.98871 34.5172 1.7875
      vertex 10.2818 32.9806 1.7875
      vertex 10.1465 33.2682 1.7875
    endloop
  endfacet
  facet normal 0 0 -1
    outer loop
      vertex 9.98871 34.5172 1.7875
      vertex 10.1465 33.2682 1.7875
      vertex 10.0483 33.5705 1.7875
    endloop
  endfacet
  facet normal 0 0 -1
    outer loop
      vertex 9.98871 34.5172 1.7875
      vertex 10.0483 33.5705 1.7875
      vertex 9.98871 33.8827 1.7875
    endloop
  endfacet
  facet normal 0 0 -1
    outer loop
      vertex 9.98871 34.5172 1.7875
      vertex 9.98871 33.8827 1.7875
      vertex 9.96875 34.2 1.7875
    endloop
  endfacet
  facet normal 0 0 -1
    outer loop
      vertex 60.0483 34.8295 1.7875
      vertex 60.1465 35.1318 1.7875
      vertex 59.9887 34.5172 1.7875
    endloop
  endfacet
  facet normal 0 0 -1
    outer loop
      vertex 59.9887 34.5172 1.7875
      vertex 60.1465 35.1318 1.7875
      vertex 60.2818 35.4194 1.7875
    endloop
  endfacet
  facet normal 0 0 -1
    outer loop
      vertex 59.9887 34.5172 1.7875
      vertex 60.2818 35.4194 1.7875
      vertex 60.4522 35.6878 1.7875
    endloop
  endfacet
  facet normal 0 0 -1
    outer loop
      vertex 59.9887 34.5172 1.7875
      vertex 60.4522 35.6878 1.7875
      vertex 60.6548 35.9328 1.7875
    endloop
  endfacet
  facet normal 0 0 -1
    outer loop
      vertex 59.9887 34.5172 1.7875
      vertex 60.6548 35.9328 1.7875
      vertex 60.8865 36.1504 1.7875
    endloop
  endfacet
  facet normal 0 0 -1
    outer loop
      vertex 59.9887 34.5172 1.7875
      vertex 60.8865 36.1504 1.7875
      vertex 61.1437 36.3372 1.7875
    endloop
  endfacet
  facet normal 0 0 -1
    outer loop
      vertex 59.9887 34.5172 1.7875
      vertex 61.1437 36.3372 1.7875
      vertex 61.4222 36.4903 1.7875
    endloop
  endfacet
  facet normal 0 0 -1
    outer loop
      vertex 59.9887 34.5172 1.7875
      vertex 61.4222 36.4903 1.7875
      vertex 61.7178 36.6074 1.7875
    endloop
  endfacet
  facet normal 0 0 -1
    outer loop
      vertex 59.9887 34.5172 1.7875
      vertex 61.7178 36.6074 1.7875
      vertex 62.0257 36.6864 1.7875
    endloop
  endfacet
  facet normal 0 0 -1
    outer loop
      vertex 59.9887 34.5172 1.7875
      vertex 62.0257 36.6864 1.7875
      vertex 62.3411 36.7263 1.7875
    endloop
  endfacet
  facet normal 0 0 -1
    outer loop
      vertex 59.9887 34.5172 1.7875
      vertex 62.3411 36.7263 1.7875
      vertex 62.6589 36.7263 1.7875
    endloop
  endfacet
  facet normal 0 0 -1
    outer loop
      vertex 59.9887 34.5172 1.7875
      vertex 62.6589 36.7263 1.7875
      vertex 62.9743 36.6864 1.7875
    endloop
  endfacet
  facet normal 0 0 -1
    outer loop
      vertex 59.9887 34.5172 1.7875
      vertex 62.9743 36.6864 1.7875
      vertex 63.2822 36.6074 1.7875
    endloop
  endfacet
  facet normal 0 0 -1
    outer loop
      vertex 59.9887 34.5172 1.7875
      vertex 63.2822 36.6074 1.7875
      vertex 63.5778 36.4903 1.7875
    endloop
  endfacet
  facet normal 0 0 -1
    outer loop
      vertex 59.9887 34.5172 1.7875
      vertex 63.5778 36.4903 1.7875
      vertex 63.8563 36.3372 1.7875
    endloop
  endfacet
  facet normal 0 0 -1
    outer loop
      vertex 59.9887 34.5172 1.7875
      vertex 63.8563 36.3372 1.7875
      vertex 64.1135 36.1504 1.7875
    endloop
  endfacet
  facet normal 0 0 -1
    outer loop
      vertex 59.9887 34.5172 1.7875
      vertex 64.1135 36.1504 1.7875
      vertex 64.3452 35.9328 1.7875
    endloop
  endfacet
  facet normal 0 0 -1
    outer loop
      vertex 59.9887 34.5172 1.7875
      vertex 64.3452 35.9328 1.7875
      vertex 64.5478 35.6878 1.7875
    endloop
  endfacet
  facet normal 0 0 -1
    outer loop
      vertex 59.9887 34.5172 1.7875
      vertex 64.5478 35.6878 1.7875
      vertex 64.7182 35.4194 1.7875
    endloop
  endfacet
  facet normal 0 0 -1
    outer loop
      vertex 59.9887 34.5172 1.7875
      vertex 64.7182 35.4194 1.7875
      vertex 64.8535 35.1318 1.7875
    endloop
  endfacet
  facet normal 0 0 -1
    outer loop
      vertex 59.9887 34.5172 1.7875
      vertex 64.8535 35.1318 1.7875
      vertex 64.9517 34.8295 1.7875
    endloop
  endfacet
  facet normal 0 0 -1
    outer loop
      vertex 59.9887 34.5172 1.7875
      vertex 64.9517 34.8295 1.7875
      vertex 65.0113 34.5172 1.7875
    endloop
  endfacet
  facet normal 0 0 -1
    outer loop
      vertex 59.9887 34.5172 1.7875
      vertex 65.0113 34.5172 1.7875
      vertex 65.0312 34.2 1.7875
    endloop
  endfacet
  facet normal 0 0 -1
    outer loop
      vertex 59.9887 34.5172 1.7875
      vertex 65.0312 34.2 1.7875
      vertex 65.0113 33.8827 1.7875
    endloop
  endfacet
  facet normal 0 0 -1
    outer loop
      vertex 59.9887 34.5172 1.7875
      vertex 65.0113 33.8827 1.7875
      vertex 64.9517 33.5705 1.7875
    endloop
  endfacet
  facet normal 0 0 -1
    outer loop
      vertex 59.9887 34.5172 1.7875
      vertex 64.9517 33.5705 1.7875
      vertex 64.8535 33.2682 1.7875
    endloop
  endfacet
  facet normal 0 0 -1
    outer loop
      vertex 59.9887 34.5172 1.7875
      vertex 64.8535 33.2682 1.7875
      vertex 64.7182 32.9806 1.7875
    endloop
  endfacet
  facet normal 0 0 -1
    outer loop
      vertex 59.9887 34.5172 1.7875
      vertex 64.7182 32.9806 1.7875
      vertex 64.5478 32.7122 1.7875
    endloop
  endfacet
  facet normal 0 0 -1
    outer loop
      vertex 59.9887 34.5172 1.7875
      vertex 64.5478 32.7122 1.7875
      vertex 64.3452 32.4672 1.7875
    endloop
  endfacet
  facet normal 0 0 -1
    outer loop
      vertex 59.9887 34.5172 1.7875
      vertex 64.3452 32.4672 1.7875
      vertex 64.1135 32.2496 1.7875
    endloop
  endfacet
  facet normal 0 0 -1
    outer loop
      vertex 59.9887 34.5172 1.7875
      vertex 64.1135 32.2496 1.7875
      vertex 63.8563 32.0628 1.7875
    endloop
  endfacet
  facet normal 0 0 -1
    outer loop
      vertex 59.9887 34.5172 1.7875
      vertex 63.8563 32.0628 1.7875
      vertex 63.5778 31.9097 1.7875
    endloop
  endfacet
  facet normal 0 0 -1
    outer loop
      vertex 59.9887 34.5172 1.7875
      vertex 63.5778 31.9097 1.7875
      vertex 63.2822 31.7926 1.7875
    endloop
  endfacet
  facet normal 0 0 -1
    outer loop
      vertex 59.9887 34.5172 1.7875
      vertex 63.2822 31.7926 1.7875
      vertex 62.9743 31.7136 1.7875
    endloop
  endfacet
  facet normal 0 0 -1
    outer loop
      vertex 59.9887 34.5172 1.7875
      vertex 62.9743 31.7136 1.7875
      vertex 62.6589 31.6737 1.7875
    endloop
  endfacet
  facet normal 0 0 -1
    outer loop
      vertex 59.9887 34.5172 1.7875
      vertex 62.6589 31.6737 1.7875
      vertex 62.3411 31.6737 1.7875
    endloop
  endfacet
  facet normal 0 0 -1
    outer loop
      vertex 59.9887 34.5172 1.7875
      vertex 62.3411 31.6737 1.7875
      vertex 62.0257 31.7136 1.7875
    endloop
  endfacet
  facet normal 0 0 -1
    outer loop
      vertex 59.9887 34.5172 1.7875
      vertex 62.0257 31.7136 1.7875
      vertex 61.7178 31.7926 1.7875
    endloop
  endfacet
  facet normal 0 0 -1
    outer loop
      vertex 59.9887 34.5172 1.7875
      vertex 61.7178 31.7926 1.7875
      vertex 61.4222 31.9097 1.7875
    endloop
  endfacet
  facet normal 0 0 -1
    outer loop
      vertex 59.9887 34.5172 1.7875
      vertex 61.4222 31.9097 1.7875
      vertex 61.1437 32.0628 1.7875
    endloop
  endfacet
  facet normal 0 0 -1
    outer loop
      vertex 59.9887 34.5172 1.7875
      vertex 61.1437 32.0628 1.7875
      vertex 60.8865 32.2496 1.7875
    endloop
  endfacet
  facet normal 0 0 -1
    outer loop
      vertex 59.9887 34.5172 1.7875
      vertex 60.8865 32.2496 1.7875
      vertex 60.6548 32.4672 1.7875
    endloop
  endfacet
  facet normal 0 0 -1
    outer loop
      vertex 59.9887 34.5172 1.7875
      vertex 60.6548 32.4672 1.7875
      vertex 60.4522 32.7122 1.7875
    endloop
  endfacet
  facet normal 0 0 -1
    outer loop
      vertex 59.9887 34.5172 1.7875
      vertex 60.4522 32.7122 1.7875
      vertex 60.2818 32.9806 1.7875
    endloop
  endfacet
  facet normal 0 0 -1
    outer loop
      vertex 59.9887 34.5172 1.7875
      vertex 60.2818 32.9806 1.7875
      vertex 60.1465 33.2682 1.7875
    endloop
  endfacet
  facet normal 0 0 -1
    outer loop
      vertex 59.9887 34.5172 1.7875
      vertex 60.1465 33.2682 1.7875
      vertex 60.0483 33.5705 1.7875
    endloop
  endfacet
  facet normal 0 0 -1
    outer loop
      vertex 59.9887 34.5172 1.7875
      vertex 60.0483 33.5705 1.7875
      vertex 59.9887 33.8827 1.7875
    endloop
  endfacet
  facet normal 0 0 -1
    outer loop
      vertex 59.9887 34.5172 1.7875
      vertex 59.9887 33.8827 1.7875
      vertex 59.9688 34.2 1.7875
    endloop
  endfacet
endsolid OpenSCAD_Model
