solid OpenSCAD_Model
  facet normal -1 0 0
    outer loop
      vertex 0 0 0
      vertex 0 0 49
      vertex 0 9.2 7.5
    endloop
  endfacet
  facet normal -1 0 0
    outer loop
      vertex 0 0 0
      vertex 0 9.2 7.5
      vertex 0 43.4 0
    endloop
  endfacet
  facet normal -1 0 0
    outer loop
      vertex 0 34.2 49
      vertex 0 43.4 0
      vertex 0 34.2 7.5
    endloop
  endfacet
  facet normal -1 0 0
    outer loop
      vertex 0 9.2 7.5
      vertex 0 34.2 7.5
      vertex 0 43.4 0
    endloop
  endfacet
  facet normal -1 0 0
    outer loop
      vertex 0 43.4 7.5
      vertex 0 34.2 49
      vertex 0 43.4 49
    endloop
  endfacet
  facet normal -1 0 0
    outer loop
      vertex 0 43.4 0
      vertex 0 34.2 49
      vertex 0 43.4 7.5
    endloop
  endfacet
  facet normal -1 0 0
    outer loop
      vertex 0 9.2 7.5
      vertex 0 0 49
      vertex 0 9.2 49
    endloop
  endfacet
  facet normal 0 -1 0
    outer loop
      vertex 0 0 49
      vertex 0 0 0
      vertex 25 0 0
    endloop
  endfacet
  facet normal 0 -1 0
    outer loop
      vertex 25 0 49
      vertex 0 0 49
      vertex 25 0 0
    endloop
  endfacet
  facet normal 0 0 -1
    outer loop
      vertex 2.4 41 0
      vertex 0 43.4 0
      vertex 25 43.4 0
    endloop
  endfacet
  facet normal 0 0 -1
    outer loop
      vertex 22.6 41 0
      vertex 2.4 41 0
      vertex 25 43.4 0
    endloop
  endfacet
  facet normal 0 0 -1
    outer loop
      vertex 0 0 0
      vertex 0 43.4 0
      vertex 2.4 2.4 0
    endloop
  endfacet
  facet normal 0 0 -1
    outer loop
      vertex 0 0 0
      vertex 2.4 2.4 0
      vertex 25 0 0
    endloop
  endfacet
  facet normal 0 0 -1
    outer loop
      vertex 22.6 41 0
      vertex 25 0 0
      vertex 22.6 2.4 0
    endloop
  endfacet
  facet normal 0 0 -1
    outer loop
      vertex 2.4 2.4 0
      vertex 22.6 2.4 0
      vertex 25 0 0
    endloop
  endfacet
  facet normal 0 0 -1
    outer loop
      vertex 25 0 0
      vertex 22.6 41 0
      vertex 25 43.4 0
    endloop
  endfacet
  facet normal 0 0 -1
    outer loop
      vertex 2.4 2.4 0
      vertex 0 43.4 0
      vertex 2.4 41 0
    endloop
  endfacet
  facet normal 0 1 0
    outer loop
      vertex 0 43.4 0
      vertex 0 43.4 7.5
      vertex 25 43.4 0
    endloop
  endfacet
  facet normal 0 1 0
    outer loop
      vertex 25 43.4 0
      vertex 0 43.4 7.5
      vertex 25 43.4 7.5
    endloop
  endfacet
  facet normal 0 1 0
    outer loop
      vertex 0 43.4 7.5
      vertex 0 43.4 49
      vertex 25 43.4 7.5
    endloop
  endfacet
  facet normal 0 1 0
    outer loop
      vertex 25 43.4 7.5
      vertex 0 43.4 49
      vertex 25 43.4 49
    endloop
  endfacet
  facet normal 0 0 1
    outer loop
      vertex 0 43.4 49
      vertex 0 34.2 49
      vertex 25 34.2 49
    endloop
  endfacet
  facet normal 0 0 1
    outer loop
      vertex 25 43.4 49
      vertex 0 43.4 49
      vertex 25 34.2 49
    endloop
  endfacet
  facet normal 0 -1 0
    outer loop
      vertex 0 34.2 49
      vertex 0 34.2 7.5
      vertex 25 34.2 7.5
    endloop
  endfacet
  facet normal 0 -1 0
    outer loop
      vertex 25 34.2 49
      vertex 0 34.2 49
      vertex 25 34.2 7.5
    endloop
  endfacet
  facet normal 0 0 1
    outer loop
      vertex 0.325 9.525 7.5
      vertex 0 9.2 7.5
      vertex 25 9.2 7.5
    endloop
  endfacet
  facet normal 0 0 1
    outer loop
      vertex 24.675 9.525 7.5
      vertex 0.325 9.525 7.5
      vertex 25 9.2 7.5
    endloop
  endfacet
  facet normal 0 0 1
    outer loop
      vertex 0 34.2 7.5
      vertex 0 9.2 7.5
      vertex 0.325 9.525 7.5
    endloop
  endfacet
  facet normal 0 0 1
    outer loop
      vertex 24.675 33.875 7.5
      vertex 24.675 9.525 7.5
      vertex 25 9.2 7.5
    endloop
  endfacet
  facet normal 0 0 1
    outer loop
      vertex 0 34.2 7.5
      vertex 0.325 9.525 7.5
      vertex 0.325 33.875 7.5
    endloop
  endfacet
  facet normal 0 0 1
    outer loop
      vertex 25 34.2 7.5
      vertex 24.675 33.875 7.5
      vertex 25 9.2 7.5
    endloop
  endfacet
  facet normal 0 0 1
    outer loop
      vertex 25 34.2 7.5
      vertex 0 34.2 7.5
      vertex 24.675 33.875 7.5
    endloop
  endfacet
  facet normal 0 0 1
    outer loop
      vertex 0.325 33.875 7.5
      vertex 24.675 33.875 7.5
      vertex 0 34.2 7.5
    endloop
  endfacet
  facet normal 0 1 0
    outer loop
      vertex 0 9.2 7.5
      vertex 0 9.2 49
      vertex 25 9.2 7.5
    endloop
  endfacet
  facet normal 0 1 0
    outer loop
      vertex 25 9.2 7.5
      vertex 0 9.2 49
      vertex 25 9.2 49
    endloop
  endfacet
  facet normal 0 0 1
    outer loop
      vertex 0 9.2 49
      vertex 0 0 49
      vertex 25 0 49
    endloop
  endfacet
  facet normal 0 0 1
    outer loop
      vertex 25 9.2 49
      vertex 0 9.2 49
      vertex 25 0 49
    endloop
  endfacet
  facet normal 1 0 0
    outer loop
      vertex 25 34.2 7.5
      vertex 25 0 0
      vertex 25 43.4 0
    endloop
  endfacet
  facet normal 1 0 0
    outer loop
      vertex 25 9.2 7.5
      vertex 25 9.2 49
      vertex 25 0 49
    endloop
  endfacet
  facet normal 1 0 0
    outer loop
      vertex 25 43.4 49
      vertex 25 34.2 49
      vertex 25 43.4 7.5
    endloop
  endfacet
  facet normal 1 0 0
    outer loop
      vertex 25 9.2 7.5
      vertex 25 0 0
      vertex 25 34.2 7.5
    endloop
  endfacet
  facet normal 1 0 0
    outer loop
      vertex 25 0 49
      vertex 25 0 0
      vertex 25 9.2 7.5
    endloop
  endfacet
  facet normal 1 0 0
    outer loop
      vertex 25 34.2 49
      vertex 25 43.4 0
      vertex 25 43.4 7.5
    endloop
  endfacet
  facet normal 1 0 0
    outer loop
      vertex 25 34.2 49
      vertex 25 34.2 7.5
      vertex 25 43.4 0
    endloop
  endfacet
  facet normal 1 0 0
    outer loop
      vertex 2.4 41 0
      vertex 2.4 41 2.2
      vertex 2.4 2.4 2.2
    endloop
  endfacet
  facet normal 1 0 0
    outer loop
      vertex 2.4 2.4 0
      vertex 2.4 41 0
      vertex 2.4 2.4 2.2
    endloop
  endfacet
  facet normal 0 -1 0
    outer loop
      vertex 22.6 41 0
      vertex 22.6 41 2.2
      vertex 2.4 41 2.2
    endloop
  endfacet
  facet normal 0 -1 0
    outer loop
      vertex 2.4 41 0
      vertex 22.6 41 0
      vertex 2.4 41 2.2
    endloop
  endfacet
  facet normal -1 0 0
    outer loop
      vertex 22.6 41 2.2
      vertex 22.6 41 0
      vertex 22.6 2.4 2.2
    endloop
  endfacet
  facet normal -1 0 0
    outer loop
      vertex 22.6 2.4 2.2
      vertex 22.6 41 0
      vertex 22.6 2.4 0
    endloop
  endfacet
  facet normal 0 1 0
    outer loop
      vertex 22.6 2.4 2.2
      vertex 22.6 2.4 0
      vertex 2.4 2.4 2.2
    endloop
  endfacet
  facet normal 0 1 0
    outer loop
      vertex 2.4 2.4 2.2
      vertex 22.6 2.4 0
      vertex 2.4 2.4 0
    endloop
  endfacet
  facet normal -1 0 0
    outer loop
      vertex 0.325 9.525 7.5
      vertex 0.325 9.525 9.5
      vertex 0.325 33.875 7.5
    endloop
  endfacet
  facet normal -1 0 0
    outer loop
      vertex 0.325 33.875 7.5
      vertex 0.325 9.525 9.5
      vertex 0.325 33.875 9.5
    endloop
  endfacet
  facet normal 0 -1 0
    outer loop
      vertex 0.325 9.525 9.5
      vertex 0.325 9.525 7.5
      vertex 24.675 9.525 7.5
    endloop
  endfacet
  facet normal 0 -1 0
    outer loop
      vertex 24.675 9.525 9.5
      vertex 0.325 9.525 9.5
      vertex 24.675 9.525 7.5
    endloop
  endfacet
  facet normal 1 0 0
    outer loop
      vertex 24.675 9.525 9.5
      vertex 24.675 9.525 7.5
      vertex 24.675 33.875 7.5
    endloop
  endfacet
  facet normal 1 0 0
    outer loop
      vertex 24.675 33.875 9.5
      vertex 24.675 9.525 9.5
      vertex 24.675 33.875 7.5
    endloop
  endfacet
  facet normal 0 1 0
    outer loop
      vertex 0.325 33.875 7.5
      vertex 0.325 33.875 9.5
      vertex 24.675 33.875 7.5
    endloop
  endfacet
  facet normal 0 1 0
    outer loop
      vertex 24.675 33.875 7.5
      vertex 0.325 33.875 9.5
      vertex 24.675 33.875 9.5
    endloop
  endfacet
  facet normal 0 0 -1
    outer loop
      vertex 3.8 3.8 2.2
      vertex 22.6 2.4 2.2
      vertex 2.4 2.4 2.2
    endloop
  endfacet
  facet normal 0 0 -1
    outer loop
      vertex 21.2 3.8 2.2
      vertex 22.6 2.4 2.2
      vertex 3.8 3.8 2.2
    endloop
  endfacet
  facet normal 0 0 -1
    outer loop
      vertex 2.4 41 2.2
      vertex 3.8 3.8 2.2
      vertex 2.4 2.4 2.2
    endloop
  endfacet
  facet normal 0 0 -1
    outer loop
      vertex 3.8 30.4 2.2
      vertex 3.8 31.8 2.2
      vertex 21.2 30.4 2.2
    endloop
  endfacet
  facet normal 0 0 -1
    outer loop
      vertex 22.6 41 2.2
      vertex 22.6 2.4 2.2
      vertex 21.2 11.6 2.2
    endloop
  endfacet
  facet normal 0 0 -1
    outer loop
      vertex 3.8 31.8 2.2
      vertex 2.4 41 2.2
      vertex 3.8 39.6 2.2
    endloop
  endfacet
  facet normal 0 0 -1
    outer loop
      vertex 21.2 13 2.2
      vertex 21.2 11.6 2.2
      vertex 3.8 13 2.2
    endloop
  endfacet
  facet normal 0 0 -1
    outer loop
      vertex 2.4 41 2.2
      vertex 3.8 11.6 2.2
      vertex 3.8 3.8 2.2
    endloop
  endfacet
  facet normal 0 0 -1
    outer loop
      vertex 2.4 41 2.2
      vertex 3.8 13 2.2
      vertex 3.8 11.6 2.2
    endloop
  endfacet
  facet normal 0 0 -1
    outer loop
      vertex 22.6 41 2.2
      vertex 21.2 11.6 2.2
      vertex 21.2 13 2.2
    endloop
  endfacet
  facet normal 0 0 -1
    outer loop
      vertex 22.6 41 2.2
      vertex 21.2 13 2.2
      vertex 21.2 30.4 2.2
    endloop
  endfacet
  facet normal 0 0 -1
    outer loop
      vertex 3.8 39.6 2.2
      vertex 2.4 41 2.2
      vertex 21.2 39.6 2.2
    endloop
  endfacet
  facet normal 0 0 -1
    outer loop
      vertex 21.2 31.8 2.2
      vertex 21.2 30.4 2.2
      vertex 3.8 31.8 2.2
    endloop
  endfacet
  facet normal 0 0 -1
    outer loop
      vertex 2.4 41 2.2
      vertex 3.8 30.4 2.2
      vertex 3.8 13 2.2
    endloop
  endfacet
  facet normal 0 0 -1
    outer loop
      vertex 2.4 41 2.2
      vertex 3.8 31.8 2.2
      vertex 3.8 30.4 2.2
    endloop
  endfacet
  facet normal 0 0 -1
    outer loop
      vertex 22.6 41 2.2
      vertex 21.2 30.4 2.2
      vertex 21.2 31.8 2.2
    endloop
  endfacet
  facet normal 0 0 -1
    outer loop
      vertex 22.6 41 2.2
      vertex 21.2 31.8 2.2
      vertex 21.2 39.6 2.2
    endloop
  endfacet
  facet normal 0 0 -1
    outer loop
      vertex 22.6 41 2.2
      vertex 21.2 39.6 2.2
      vertex 2.4 41 2.2
    endloop
  endfacet
  facet normal 0 0 -1
    outer loop
      vertex 21.2 11.6 2.2
      vertex 22.6 2.4 2.2
      vertex 21.2 3.8 2.2
    endloop
  endfacet
  facet normal 0 0 -1
    outer loop
      vertex 3.8 11.6 2.2
      vertex 3.8 13 2.2
      vertex 21.2 11.6 2.2
    endloop
  endfacet
  facet normal 0 0 1
    outer loop
      vertex 0.325 33.875 9.5
      vertex 0.325 9.525 9.5
      vertex 24.675 9.525 9.5
    endloop
  endfacet
  facet normal 0 0 1
    outer loop
      vertex 24.675 33.875 9.5
      vertex 0.325 33.875 9.5
      vertex 24.675 9.525 9.5
    endloop
  endfacet
  facet normal -1 0 0
    outer loop
      vertex 3.8 3.8 0
      vertex 3.8 3.8 2.2
      vertex 3.8 11.6 0
    endloop
  endfacet
  facet normal -1 0 0
    outer loop
      vertex 3.8 11.6 0
      vertex 3.8 3.8 2.2
      vertex 3.8 11.6 2.2
    endloop
  endfacet
  facet normal 0 -1 0
    outer loop
      vertex 3.8 3.8 2.2
      vertex 3.8 3.8 0
      vertex 21.2 3.8 0
    endloop
  endfacet
  facet normal 0 -1 0
    outer loop
      vertex 21.2 3.8 2.2
      vertex 3.8 3.8 2.2
      vertex 21.2 3.8 0
    endloop
  endfacet
  facet normal 0 1 0
    outer loop
      vertex 21.2 11.6 2.2
      vertex 21.2 11.6 0
      vertex 3.8 11.6 2.2
    endloop
  endfacet
  facet normal 0 1 0
    outer loop
      vertex 3.8 11.6 2.2
      vertex 21.2 11.6 0
      vertex 3.8 11.6 0
    endloop
  endfacet
  facet normal 1 0 0
    outer loop
      vertex 21.2 3.8 2.2
      vertex 21.2 3.8 0
      vertex 21.2 11.6 0
    endloop
  endfacet
  facet normal 1 0 0
    outer loop
      vertex 21.2 11.6 2.2
      vertex 21.2 3.8 2.2
      vertex 21.2 11.6 0
    endloop
  endfacet
  facet normal 0 -1 0
    outer loop
      vertex 3.8 13 2.2
      vertex 3.8 13 0
      vertex 21.2 13 0
    endloop
  endfacet
  facet normal 0 -1 0
    outer loop
      vertex 21.2 13 2.2
      vertex 3.8 13 2.2
      vertex 21.2 13 0
    endloop
  endfacet
  facet normal -1 0 0
    outer loop
      vertex 3.8 13 0
      vertex 3.8 13 2.2
      vertex 3.8 30.4 0
    endloop
  endfacet
  facet normal -1 0 0
    outer loop
      vertex 3.8 30.4 0
      vertex 3.8 13 2.2
      vertex 3.8 30.4 2.2
    endloop
  endfacet
  facet normal 0 1 0
    outer loop
      vertex 3.8 30.4 0
      vertex 3.8 30.4 2.2
      vertex 21.2 30.4 0
    endloop
  endfacet
  facet normal 0 1 0
    outer loop
      vertex 21.2 30.4 0
      vertex 3.8 30.4 2.2
      vertex 21.2 30.4 2.2
    endloop
  endfacet
  facet normal 1 0 0
    outer loop
      vertex 21.2 13 2.2
      vertex 21.2 13 0
      vertex 21.2 30.4 0
    endloop
  endfacet
  facet normal 1 0 0
    outer loop
      vertex 21.2 30.4 2.2
      vertex 21.2 13 2.2
      vertex 21.2 30.4 0
    endloop
  endfacet
  facet normal 0 -1 0
    outer loop
      vertex 21.2 31.8 0
      vertex 21.2 31.8 2.2
      vertex 3.8 31.8 2.2
    endloop
  endfacet
  facet normal 0 -1 0
    outer loop
      vertex 3.8 31.8 0
      vertex 21.2 31.8 0
      vertex 3.8 31.8 2.2
    endloop
  endfacet
  facet normal -1 0 0
    outer loop
      vertex 3.8 31.8 0
      vertex 3.8 31.8 2.2
      vertex 3.8 39.6 0
    endloop
  endfacet
  facet normal -1 0 0
    outer loop
      vertex 3.8 39.6 0
      vertex 3.8 31.8 2.2
      vertex 3.8 39.6 2.2
    endloop
  endfacet
  facet normal 0 1 0
    outer loop
      vertex 3.8 39.6 0
      vertex 3.8 39.6 2.2
      vertex 21.2 39.6 0
    endloop
  endfacet
  facet normal 0 1 0
    outer loop
      vertex 21.2 39.6 0
      vertex 3.8 39.6 2.2
      vertex 21.2 39.6 2.2
    endloop
  endfacet
  facet normal 1 0 0
    outer loop
      vertex 21.2 31.8 2.2
      vertex 21.2 31.8 0
      vertex 21.2 39.6 0
    endloop
  endfacet
  facet normal 1 0 0
    outer loop
      vertex 21.2 39.6 2.2
      vertex 21.2 31.8 2.2
      vertex 21.2 39.6 0
    endloop
  endfacet
  facet normal 0 0 -1
    outer loop
      vertex 3.8 3.8 0
      vertex 3.8 11.6 0
      vertex 21.2 3.8 0
    endloop
  endfacet
  facet normal 0 0 -1
    outer loop
      vertex 21.2 3.8 0
      vertex 3.8 11.6 0
      vertex 21.2 11.6 0
    endloop
  endfacet
  facet normal 0 0 -1
    outer loop
      vertex 13.8563 23.8372 0
      vertex 3.8 30.4 0
      vertex 21.2 30.4 0
    endloop
  endfacet
  facet normal 0 0 -1
    outer loop
      vertex 3.8 13 0
      vertex 3.8 30.4 0
      vertex 9.96875 21.7 0
    endloop
  endfacet
  facet normal 0 0 -1
    outer loop
      vertex 10.4522 23.1878 0
      vertex 3.8 30.4 0
      vertex 10.6548 23.4328 0
    endloop
  endfacet
  facet normal 0 0 -1
    outer loop
      vertex 3.8 13 0
      vertex 9.96875 21.7 0
      vertex 9.98871 21.3827 0
    endloop
  endfacet
  facet normal 0 0 -1
    outer loop
      vertex 3.8 13 0
      vertex 9.98871 21.3827 0
      vertex 10.0483 21.0705 0
    endloop
  endfacet
  facet normal 0 0 -1
    outer loop
      vertex 3.8 13 0
      vertex 10.0483 21.0705 0
      vertex 10.1465 20.7682 0
    endloop
  endfacet
  facet normal 0 0 -1
    outer loop
      vertex 3.8 13 0
      vertex 10.1465 20.7682 0
      vertex 10.2818 20.4806 0
    endloop
  endfacet
  facet normal 0 0 -1
    outer loop
      vertex 3.8 13 0
      vertex 10.2818 20.4806 0
      vertex 10.4522 20.2122 0
    endloop
  endfacet
  facet normal 0 0 -1
    outer loop
      vertex 3.8 13 0
      vertex 10.4522 20.2122 0
      vertex 10.6548 19.9672 0
    endloop
  endfacet
  facet normal 0 0 -1
    outer loop
      vertex 3.8 13 0
      vertex 10.6548 19.9672 0
      vertex 10.8865 19.7496 0
    endloop
  endfacet
  facet normal 0 0 -1
    outer loop
      vertex 3.8 13 0
      vertex 10.8865 19.7496 0
      vertex 11.1437 19.5628 0
    endloop
  endfacet
  facet normal 0 0 -1
    outer loop
      vertex 3.8 13 0
      vertex 11.1437 19.5628 0
      vertex 21.2 13 0
    endloop
  endfacet
  facet normal 0 0 -1
    outer loop
      vertex 11.7178 19.2926 0
      vertex 21.2 13 0
      vertex 11.4222 19.4097 0
    endloop
  endfacet
  facet normal 0 0 -1
    outer loop
      vertex 12.0257 19.2136 0
      vertex 21.2 13 0
      vertex 11.7178 19.2926 0
    endloop
  endfacet
  facet normal 0 0 -1
    outer loop
      vertex 12.3411 19.1737 0
      vertex 21.2 13 0
      vertex 12.0257 19.2136 0
    endloop
  endfacet
  facet normal 0 0 -1
    outer loop
      vertex 12.6589 19.1737 0
      vertex 21.2 13 0
      vertex 12.3411 19.1737 0
    endloop
  endfacet
  facet normal 0 0 -1
    outer loop
      vertex 12.9743 19.2136 0
      vertex 21.2 13 0
      vertex 12.6589 19.1737 0
    endloop
  endfacet
  facet normal 0 0 -1
    outer loop
      vertex 13.2822 19.2926 0
      vertex 21.2 13 0
      vertex 12.9743 19.2136 0
    endloop
  endfacet
  facet normal 0 0 -1
    outer loop
      vertex 14.3452 19.9672 0
      vertex 21.2 13 0
      vertex 14.1135 19.7496 0
    endloop
  endfacet
  facet normal 0 0 -1
    outer loop
      vertex 10.1465 22.6318 0
      vertex 3.8 30.4 0
      vertex 10.2818 22.9194 0
    endloop
  endfacet
  facet normal 0 0 -1
    outer loop
      vertex 13.2822 19.2926 0
      vertex 13.5778 19.4097 0
      vertex 21.2 13 0
    endloop
  endfacet
  facet normal 0 0 -1
    outer loop
      vertex 10.2818 22.9194 0
      vertex 3.8 30.4 0
      vertex 10.4522 23.1878 0
    endloop
  endfacet
  facet normal 0 0 -1
    outer loop
      vertex 13.5778 19.4097 0
      vertex 13.8563 19.5628 0
      vertex 21.2 13 0
    endloop
  endfacet
  facet normal 0 0 -1
    outer loop
      vertex 13.8563 19.5628 0
      vertex 14.1135 19.7496 0
      vertex 21.2 13 0
    endloop
  endfacet
  facet normal 0 0 -1
    outer loop
      vertex 14.8535 20.7682 0
      vertex 21.2 30.4 0
      vertex 14.7182 20.4806 0
    endloop
  endfacet
  facet normal 0 0 -1
    outer loop
      vertex 21.2 13 0
      vertex 14.3452 19.9672 0
      vertex 14.5478 20.2122 0
    endloop
  endfacet
  facet normal 0 0 -1
    outer loop
      vertex 21.2 13 0
      vertex 14.5478 20.2122 0
      vertex 21.2 30.4 0
    endloop
  endfacet
  facet normal 0 0 -1
    outer loop
      vertex 14.5478 20.2122 0
      vertex 14.7182 20.4806 0
      vertex 21.2 30.4 0
    endloop
  endfacet
  facet normal 0 0 -1
    outer loop
      vertex 10.6548 23.4328 0
      vertex 3.8 30.4 0
      vertex 10.8865 23.6504 0
    endloop
  endfacet
  facet normal 0 0 -1
    outer loop
      vertex 13.5778 23.9903 0
      vertex 3.8 30.4 0
      vertex 13.8563 23.8372 0
    endloop
  endfacet
  facet normal 0 0 -1
    outer loop
      vertex 11.1437 23.8372 0
      vertex 3.8 30.4 0
      vertex 11.4222 23.9903 0
    endloop
  endfacet
  facet normal 0 0 -1
    outer loop
      vertex 14.8535 20.7682 0
      vertex 14.9517 21.0705 0
      vertex 21.2 30.4 0
    endloop
  endfacet
  facet normal 0 0 -1
    outer loop
      vertex 14.9517 21.0705 0
      vertex 15.0113 21.3827 0
      vertex 21.2 30.4 0
    endloop
  endfacet
  facet normal 0 0 -1
    outer loop
      vertex 11.4222 23.9903 0
      vertex 3.8 30.4 0
      vertex 11.7178 24.1074 0
    endloop
  endfacet
  facet normal 0 0 -1
    outer loop
      vertex 15.0113 21.3827 0
      vertex 15.0312 21.7 0
      vertex 21.2 30.4 0
    endloop
  endfacet
  facet normal 0 0 -1
    outer loop
      vertex 11.7178 24.1074 0
      vertex 3.8 30.4 0
      vertex 12.0257 24.1864 0
    endloop
  endfacet
  facet normal 0 0 -1
    outer loop
      vertex 15.0312 21.7 0
      vertex 15.0113 22.0172 0
      vertex 21.2 30.4 0
    endloop
  endfacet
  facet normal 0 0 -1
    outer loop
      vertex 15.0113 22.0172 0
      vertex 14.9517 22.3295 0
      vertex 21.2 30.4 0
    endloop
  endfacet
  facet normal 0 0 -1
    outer loop
      vertex 12.0257 24.1864 0
      vertex 3.8 30.4 0
      vertex 12.3411 24.2263 0
    endloop
  endfacet
  facet normal 0 0 -1
    outer loop
      vertex 14.9517 22.3295 0
      vertex 14.8535 22.6318 0
      vertex 21.2 30.4 0
    endloop
  endfacet
  facet normal 0 0 -1
    outer loop
      vertex 12.3411 24.2263 0
      vertex 3.8 30.4 0
      vertex 12.6589 24.2263 0
    endloop
  endfacet
  facet normal 0 0 -1
    outer loop
      vertex 14.8535 22.6318 0
      vertex 14.7182 22.9194 0
      vertex 21.2 30.4 0
    endloop
  endfacet
  facet normal 0 0 -1
    outer loop
      vertex 12.6589 24.2263 0
      vertex 3.8 30.4 0
      vertex 12.9743 24.1864 0
    endloop
  endfacet
  facet normal 0 0 -1
    outer loop
      vertex 14.7182 22.9194 0
      vertex 14.5478 23.1878 0
      vertex 21.2 30.4 0
    endloop
  endfacet
  facet normal 0 0 -1
    outer loop
      vertex 12.9743 24.1864 0
      vertex 3.8 30.4 0
      vertex 13.2822 24.1074 0
    endloop
  endfacet
  facet normal 0 0 -1
    outer loop
      vertex 14.5478 23.1878 0
      vertex 14.3452 23.4328 0
      vertex 21.2 30.4 0
    endloop
  endfacet
  facet normal 0 0 -1
    outer loop
      vertex 13.2822 24.1074 0
      vertex 3.8 30.4 0
      vertex 13.5778 23.9903 0
    endloop
  endfacet
  facet normal 0 0 -1
    outer loop
      vertex 14.3452 23.4328 0
      vertex 14.1135 23.6504 0
      vertex 21.2 30.4 0
    endloop
  endfacet
  facet normal 0 0 -1
    outer loop
      vertex 14.1135 23.6504 0
      vertex 13.8563 23.8372 0
      vertex 21.2 30.4 0
    endloop
  endfacet
  facet normal 0 0 -1
    outer loop
      vertex 10.8865 23.6504 0
      vertex 3.8 30.4 0
      vertex 11.1437 23.8372 0
    endloop
  endfacet
  facet normal 0 0 -1
    outer loop
      vertex 10.0483 22.3295 0
      vertex 3.8 30.4 0
      vertex 10.1465 22.6318 0
    endloop
  endfacet
  facet normal 0 0 -1
    outer loop
      vertex 9.98871 22.0172 0
      vertex 3.8 30.4 0
      vertex 10.0483 22.3295 0
    endloop
  endfacet
  facet normal 0 0 -1
    outer loop
      vertex 9.96875 21.7 0
      vertex 3.8 30.4 0
      vertex 9.98871 22.0172 0
    endloop
  endfacet
  facet normal 0 0 -1
    outer loop
      vertex 11.4222 19.4097 0
      vertex 21.2 13 0
      vertex 11.1437 19.5628 0
    endloop
  endfacet
  facet normal 0 0 -1
    outer loop
      vertex 3.8 31.8 0
      vertex 3.8 39.6 0
      vertex 21.2 31.8 0
    endloop
  endfacet
  facet normal 0 0 -1
    outer loop
      vertex 21.2 31.8 0
      vertex 3.8 39.6 0
      vertex 21.2 39.6 0
    endloop
  endfacet
  facet normal 0.998027 0.0627915 0
    outer loop
      vertex 9.96875 21.7 1.7875
      vertex 9.98871 21.3827 1.7875
      vertex 9.98871 21.3827 0
    endloop
  endfacet
  facet normal 0.998027 0.0627915 0
    outer loop
      vertex 9.96875 21.7 0
      vertex 9.96875 21.7 1.7875
      vertex 9.98871 21.3827 0
    endloop
  endfacet
  facet normal 0.998027 -0.0627915 0
    outer loop
      vertex 9.98871 22.0172 0
      vertex 9.98871 22.0172 1.7875
      vertex 9.96875 21.7 1.7875
    endloop
  endfacet
  facet normal 0.998027 -0.0627915 0
    outer loop
      vertex 9.96875 21.7 0
      vertex 9.98871 22.0172 0
      vertex 9.96875 21.7 1.7875
    endloop
  endfacet
  facet normal 0.982287 -0.187381 0
    outer loop
      vertex 10.0483 22.3295 0
      vertex 10.0483 22.3295 1.7875
      vertex 9.98871 22.0172 1.7875
    endloop
  endfacet
  facet normal 0.982287 -0.187381 0
    outer loop
      vertex 9.98871 22.0172 0
      vertex 10.0483 22.3295 0
      vertex 9.98871 22.0172 1.7875
    endloop
  endfacet
  facet normal 0.951057 -0.309016 0
    outer loop
      vertex 10.1465 22.6318 0
      vertex 10.1465 22.6318 1.7875
      vertex 10.0483 22.3295 1.7875
    endloop
  endfacet
  facet normal 0.951057 -0.309016 0
    outer loop
      vertex 10.0483 22.3295 0
      vertex 10.1465 22.6318 0
      vertex 10.0483 22.3295 1.7875
    endloop
  endfacet
  facet normal 0.904827 -0.42578 0
    outer loop
      vertex 10.2818 22.9194 0
      vertex 10.2818 22.9194 1.7875
      vertex 10.1465 22.6318 1.7875
    endloop
  endfacet
  facet normal 0.904827 -0.42578 0
    outer loop
      vertex 10.1465 22.6318 0
      vertex 10.2818 22.9194 0
      vertex 10.1465 22.6318 1.7875
    endloop
  endfacet
  facet normal 0.844328 -0.535827 0
    outer loop
      vertex 10.4522 23.1878 0
      vertex 10.4522 23.1878 1.7875
      vertex 10.2818 22.9194 1.7875
    endloop
  endfacet
  facet normal 0.844328 -0.535827 0
    outer loop
      vertex 10.2818 22.9194 0
      vertex 10.4522 23.1878 0
      vertex 10.2818 22.9194 1.7875
    endloop
  endfacet
  facet normal 0.770515 -0.637422 0
    outer loop
      vertex 10.6548 23.4328 0
      vertex 10.6548 23.4328 1.7875
      vertex 10.4522 23.1878 1.7875
    endloop
  endfacet
  facet normal 0.770515 -0.637422 0
    outer loop
      vertex 10.4522 23.1878 0
      vertex 10.6548 23.4328 0
      vertex 10.4522 23.1878 1.7875
    endloop
  endfacet
  facet normal 0.684546 -0.728969 0
    outer loop
      vertex 10.8865 23.6504 0
      vertex 10.8865 23.6504 1.7875
      vertex 10.6548 23.4328 1.7875
    endloop
  endfacet
  facet normal 0.684546 -0.728969 0
    outer loop
      vertex 10.6548 23.4328 0
      vertex 10.8865 23.6504 0
      vertex 10.6548 23.4328 1.7875
    endloop
  endfacet
  facet normal 0.587786 -0.809017 0
    outer loop
      vertex 11.1437 23.8372 0
      vertex 11.1437 23.8372 1.7875
      vertex 10.8865 23.6504 1.7875
    endloop
  endfacet
  facet normal 0.587786 -0.809017 0
    outer loop
      vertex 10.8865 23.6504 0
      vertex 11.1437 23.8372 0
      vertex 10.8865 23.6504 1.7875
    endloop
  endfacet
  facet normal 0.481752 -0.876307 0
    outer loop
      vertex 11.4222 23.9903 0
      vertex 11.4222 23.9903 1.7875
      vertex 11.1437 23.8372 1.7875
    endloop
  endfacet
  facet normal 0.481752 -0.876307 0
    outer loop
      vertex 11.1437 23.8372 0
      vertex 11.4222 23.9903 0
      vertex 11.1437 23.8372 1.7875
    endloop
  endfacet
  facet normal 0.368126 -0.929776 0
    outer loop
      vertex 11.7178 24.1074 0
      vertex 11.7178 24.1074 1.7875
      vertex 11.4222 23.9903 1.7875
    endloop
  endfacet
  facet normal 0.368126 -0.929776 0
    outer loop
      vertex 11.4222 23.9903 0
      vertex 11.7178 24.1074 0
      vertex 11.4222 23.9903 1.7875
    endloop
  endfacet
  facet normal 0.248691 -0.968583 0
    outer loop
      vertex 12.0257 24.1864 0
      vertex 12.0257 24.1864 1.7875
      vertex 11.7178 24.1074 1.7875
    endloop
  endfacet
  facet normal 0.248691 -0.968583 0
    outer loop
      vertex 11.7178 24.1074 0
      vertex 12.0257 24.1864 0
      vertex 11.7178 24.1074 1.7875
    endloop
  endfacet
  facet normal 0.125332 -0.992115 0
    outer loop
      vertex 12.3411 24.2263 0
      vertex 12.3411 24.2263 1.7875
      vertex 12.0257 24.1864 1.7875
    endloop
  endfacet
  facet normal 0.125332 -0.992115 0
    outer loop
      vertex 12.0257 24.1864 0
      vertex 12.3411 24.2263 0
      vertex 12.0257 24.1864 1.7875
    endloop
  endfacet
  facet normal 0 -1 0
    outer loop
      vertex 12.6589 24.2263 0
      vertex 12.6589 24.2263 1.7875
      vertex 12.3411 24.2263 1.7875
    endloop
  endfacet
  facet normal 0 -1 0
    outer loop
      vertex 12.3411 24.2263 0
      vertex 12.6589 24.2263 0
      vertex 12.3411 24.2263 1.7875
    endloop
  endfacet
  facet normal -0.125332 -0.992115 0
    outer loop
      vertex 12.9743 24.1864 0
      vertex 12.9743 24.1864 1.7875
      vertex 12.6589 24.2263 1.7875
    endloop
  endfacet
  facet normal -0.125332 -0.992115 0
    outer loop
      vertex 12.6589 24.2263 0
      vertex 12.9743 24.1864 0
      vertex 12.6589 24.2263 1.7875
    endloop
  endfacet
  facet normal -0.248691 -0.968583 0
    outer loop
      vertex 13.2822 24.1074 0
      vertex 13.2822 24.1074 1.7875
      vertex 12.9743 24.1864 1.7875
    endloop
  endfacet
  facet normal -0.248691 -0.968583 0
    outer loop
      vertex 12.9743 24.1864 0
      vertex 13.2822 24.1074 0
      vertex 12.9743 24.1864 1.7875
    endloop
  endfacet
  facet normal -0.368126 -0.929776 0
    outer loop
      vertex 13.5778 23.9903 0
      vertex 13.5778 23.9903 1.7875
      vertex 13.2822 24.1074 1.7875
    endloop
  endfacet
  facet normal -0.368126 -0.929776 0
    outer loop
      vertex 13.2822 24.1074 0
      vertex 13.5778 23.9903 0
      vertex 13.2822 24.1074 1.7875
    endloop
  endfacet
  facet normal -0.481752 -0.876307 0
    outer loop
      vertex 13.8563 23.8372 0
      vertex 13.8563 23.8372 1.7875
      vertex 13.5778 23.9903 1.7875
    endloop
  endfacet
  facet normal -0.481752 -0.876307 0
    outer loop
      vertex 13.5778 23.9903 0
      vertex 13.8563 23.8372 0
      vertex 13.5778 23.9903 1.7875
    endloop
  endfacet
  facet normal -0.587786 -0.809017 0
    outer loop
      vertex 14.1135 23.6504 0
      vertex 14.1135 23.6504 1.7875
      vertex 13.8563 23.8372 1.7875
    endloop
  endfacet
  facet normal -0.587786 -0.809017 0
    outer loop
      vertex 13.8563 23.8372 0
      vertex 14.1135 23.6504 0
      vertex 13.8563 23.8372 1.7875
    endloop
  endfacet
  facet normal -0.684546 -0.728969 0
    outer loop
      vertex 14.3452 23.4328 0
      vertex 14.3452 23.4328 1.7875
      vertex 14.1135 23.6504 1.7875
    endloop
  endfacet
  facet normal -0.684546 -0.728969 0
    outer loop
      vertex 14.1135 23.6504 0
      vertex 14.3452 23.4328 0
      vertex 14.1135 23.6504 1.7875
    endloop
  endfacet
  facet normal -0.770515 -0.637422 0
    outer loop
      vertex 14.5478 23.1878 1.7875
      vertex 14.3452 23.4328 1.7875
      vertex 14.5478 23.1878 0
    endloop
  endfacet
  facet normal -0.770515 -0.637422 0
    outer loop
      vertex 14.5478 23.1878 0
      vertex 14.3452 23.4328 1.7875
      vertex 14.3452 23.4328 0
    endloop
  endfacet
  facet normal -0.844328 -0.535827 0
    outer loop
      vertex 14.7182 22.9194 1.7875
      vertex 14.5478 23.1878 1.7875
      vertex 14.7182 22.9194 0
    endloop
  endfacet
  facet normal -0.844328 -0.535827 0
    outer loop
      vertex 14.7182 22.9194 0
      vertex 14.5478 23.1878 1.7875
      vertex 14.5478 23.1878 0
    endloop
  endfacet
  facet normal -0.904827 -0.42578 0
    outer loop
      vertex 14.8535 22.6318 1.7875
      vertex 14.7182 22.9194 1.7875
      vertex 14.8535 22.6318 0
    endloop
  endfacet
  facet normal -0.904827 -0.42578 0
    outer loop
      vertex 14.8535 22.6318 0
      vertex 14.7182 22.9194 1.7875
      vertex 14.7182 22.9194 0
    endloop
  endfacet
  facet normal -0.951057 -0.309016 0
    outer loop
      vertex 14.9517 22.3295 1.7875
      vertex 14.8535 22.6318 1.7875
      vertex 14.9517 22.3295 0
    endloop
  endfacet
  facet normal -0.951057 -0.309016 0
    outer loop
      vertex 14.9517 22.3295 0
      vertex 14.8535 22.6318 1.7875
      vertex 14.8535 22.6318 0
    endloop
  endfacet
  facet normal -0.982287 -0.187381 0
    outer loop
      vertex 15.0113 22.0172 1.7875
      vertex 14.9517 22.3295 1.7875
      vertex 15.0113 22.0172 0
    endloop
  endfacet
  facet normal -0.982287 -0.187381 0
    outer loop
      vertex 15.0113 22.0172 0
      vertex 14.9517 22.3295 1.7875
      vertex 14.9517 22.3295 0
    endloop
  endfacet
  facet normal -0.998027 -0.0627915 0
    outer loop
      vertex 15.0312 21.7 1.7875
      vertex 15.0113 22.0172 1.7875
      vertex 15.0312 21.7 0
    endloop
  endfacet
  facet normal -0.998027 -0.0627915 0
    outer loop
      vertex 15.0312 21.7 0
      vertex 15.0113 22.0172 1.7875
      vertex 15.0113 22.0172 0
    endloop
  endfacet
  facet normal -0.998027 0.0627915 0
    outer loop
      vertex 15.0312 21.7 1.7875
      vertex 15.0312 21.7 0
      vertex 15.0113 21.3827 1.7875
    endloop
  endfacet
  facet normal -0.998027 0.0627915 0
    outer loop
      vertex 15.0113 21.3827 1.7875
      vertex 15.0312 21.7 0
      vertex 15.0113 21.3827 0
    endloop
  endfacet
  facet normal -0.982287 0.187381 0
    outer loop
      vertex 15.0113 21.3827 1.7875
      vertex 15.0113 21.3827 0
      vertex 14.9517 21.0705 1.7875
    endloop
  endfacet
  facet normal -0.982287 0.187381 0
    outer loop
      vertex 14.9517 21.0705 1.7875
      vertex 15.0113 21.3827 0
      vertex 14.9517 21.0705 0
    endloop
  endfacet
  facet normal -0.951057 0.309016 0
    outer loop
      vertex 14.9517 21.0705 1.7875
      vertex 14.9517 21.0705 0
      vertex 14.8535 20.7682 1.7875
    endloop
  endfacet
  facet normal -0.951057 0.309016 0
    outer loop
      vertex 14.8535 20.7682 1.7875
      vertex 14.9517 21.0705 0
      vertex 14.8535 20.7682 0
    endloop
  endfacet
  facet normal -0.904827 0.42578 0
    outer loop
      vertex 14.8535 20.7682 1.7875
      vertex 14.8535 20.7682 0
      vertex 14.7182 20.4806 1.7875
    endloop
  endfacet
  facet normal -0.904827 0.42578 0
    outer loop
      vertex 14.7182 20.4806 1.7875
      vertex 14.8535 20.7682 0
      vertex 14.7182 20.4806 0
    endloop
  endfacet
  facet normal -0.844328 0.535827 0
    outer loop
      vertex 14.7182 20.4806 1.7875
      vertex 14.7182 20.4806 0
      vertex 14.5478 20.2122 1.7875
    endloop
  endfacet
  facet normal -0.844328 0.535827 0
    outer loop
      vertex 14.5478 20.2122 1.7875
      vertex 14.7182 20.4806 0
      vertex 14.5478 20.2122 0
    endloop
  endfacet
  facet normal -0.770515 0.637422 0
    outer loop
      vertex 14.5478 20.2122 1.7875
      vertex 14.5478 20.2122 0
      vertex 14.3452 19.9672 1.7875
    endloop
  endfacet
  facet normal -0.770515 0.637422 0
    outer loop
      vertex 14.3452 19.9672 1.7875
      vertex 14.5478 20.2122 0
      vertex 14.3452 19.9672 0
    endloop
  endfacet
  facet normal -0.684546 0.728969 0
    outer loop
      vertex 14.3452 19.9672 1.7875
      vertex 14.3452 19.9672 0
      vertex 14.1135 19.7496 1.7875
    endloop
  endfacet
  facet normal -0.684546 0.728969 0
    outer loop
      vertex 14.1135 19.7496 1.7875
      vertex 14.3452 19.9672 0
      vertex 14.1135 19.7496 0
    endloop
  endfacet
  facet normal -0.587786 0.809017 0
    outer loop
      vertex 14.1135 19.7496 1.7875
      vertex 14.1135 19.7496 0
      vertex 13.8563 19.5628 1.7875
    endloop
  endfacet
  facet normal -0.587786 0.809017 0
    outer loop
      vertex 13.8563 19.5628 1.7875
      vertex 14.1135 19.7496 0
      vertex 13.8563 19.5628 0
    endloop
  endfacet
  facet normal -0.481752 0.876307 0
    outer loop
      vertex 13.8563 19.5628 1.7875
      vertex 13.8563 19.5628 0
      vertex 13.5778 19.4097 1.7875
    endloop
  endfacet
  facet normal -0.481752 0.876307 0
    outer loop
      vertex 13.5778 19.4097 1.7875
      vertex 13.8563 19.5628 0
      vertex 13.5778 19.4097 0
    endloop
  endfacet
  facet normal -0.368126 0.929776 0
    outer loop
      vertex 13.5778 19.4097 1.7875
      vertex 13.5778 19.4097 0
      vertex 13.2822 19.2926 1.7875
    endloop
  endfacet
  facet normal -0.368126 0.929776 0
    outer loop
      vertex 13.2822 19.2926 1.7875
      vertex 13.5778 19.4097 0
      vertex 13.2822 19.2926 0
    endloop
  endfacet
  facet normal -0.248691 0.968583 0
    outer loop
      vertex 13.2822 19.2926 1.7875
      vertex 13.2822 19.2926 0
      vertex 12.9743 19.2136 1.7875
    endloop
  endfacet
  facet normal -0.248691 0.968583 0
    outer loop
      vertex 12.9743 19.2136 1.7875
      vertex 13.2822 19.2926 0
      vertex 12.9743 19.2136 0
    endloop
  endfacet
  facet normal -0.125332 0.992115 0
    outer loop
      vertex 12.9743 19.2136 1.7875
      vertex 12.9743 19.2136 0
      vertex 12.6589 19.1737 1.7875
    endloop
  endfacet
  facet normal -0.125332 0.992115 0
    outer loop
      vertex 12.6589 19.1737 1.7875
      vertex 12.9743 19.2136 0
      vertex 12.6589 19.1737 0
    endloop
  endfacet
  facet normal 0 1 0
    outer loop
      vertex 12.6589 19.1737 1.7875
      vertex 12.6589 19.1737 0
      vertex 12.3411 19.1737 1.7875
    endloop
  endfacet
  facet normal 0 1 0
    outer loop
      vertex 12.3411 19.1737 1.7875
      vertex 12.6589 19.1737 0
      vertex 12.3411 19.1737 0
    endloop
  endfacet
  facet normal 0.125332 0.992115 0
    outer loop
      vertex 12.3411 19.1737 1.7875
      vertex 12.3411 19.1737 0
      vertex 12.0257 19.2136 1.7875
    endloop
  endfacet
  facet normal 0.125332 0.992115 0
    outer loop
      vertex 12.0257 19.2136 1.7875
      vertex 12.3411 19.1737 0
      vertex 12.0257 19.2136 0
    endloop
  endfacet
  facet normal 0.248691 0.968583 0
    outer loop
      vertex 12.0257 19.2136 1.7875
      vertex 12.0257 19.2136 0
      vertex 11.7178 19.2926 1.7875
    endloop
  endfacet
  facet normal 0.248691 0.968583 0
    outer loop
      vertex 11.7178 19.2926 1.7875
      vertex 12.0257 19.2136 0
      vertex 11.7178 19.2926 0
    endloop
  endfacet
  facet normal 0.368126 0.929776 0
    outer loop
      vertex 11.7178 19.2926 1.7875
      vertex 11.7178 19.2926 0
      vertex 11.4222 19.4097 1.7875
    endloop
  endfacet
  facet normal 0.368126 0.929776 0
    outer loop
      vertex 11.4222 19.4097 1.7875
      vertex 11.7178 19.2926 0
      vertex 11.4222 19.4097 0
    endloop
  endfacet
  facet normal 0.481752 0.876307 0
    outer loop
      vertex 11.4222 19.4097 1.7875
      vertex 11.4222 19.4097 0
      vertex 11.1437 19.5628 1.7875
    endloop
  endfacet
  facet normal 0.481752 0.876307 0
    outer loop
      vertex 11.1437 19.5628 1.7875
      vertex 11.4222 19.4097 0
      vertex 11.1437 19.5628 0
    endloop
  endfacet
  facet normal 0.587786 0.809017 0
    outer loop
      vertex 11.1437 19.5628 1.7875
      vertex 11.1437 19.5628 0
      vertex 10.8865 19.7496 1.7875
    endloop
  endfacet
  facet normal 0.587786 0.809017 0
    outer loop
      vertex 10.8865 19.7496 1.7875
      vertex 11.1437 19.5628 0
      vertex 10.8865 19.7496 0
    endloop
  endfacet
  facet normal 0.684546 0.728969 0
    outer loop
      vertex 10.8865 19.7496 1.7875
      vertex 10.8865 19.7496 0
      vertex 10.6548 19.9672 1.7875
    endloop
  endfacet
  facet normal 0.684546 0.728969 0
    outer loop
      vertex 10.6548 19.9672 1.7875
      vertex 10.8865 19.7496 0
      vertex 10.6548 19.9672 0
    endloop
  endfacet
  facet normal 0.770515 0.637422 0
    outer loop
      vertex 10.4522 20.2122 1.7875
      vertex 10.6548 19.9672 1.7875
      vertex 10.6548 19.9672 0
    endloop
  endfacet
  facet normal 0.770515 0.637422 0
    outer loop
      vertex 10.4522 20.2122 0
      vertex 10.4522 20.2122 1.7875
      vertex 10.6548 19.9672 0
    endloop
  endfacet
  facet normal 0.844328 0.535827 0
    outer loop
      vertex 10.2818 20.4806 1.7875
      vertex 10.4522 20.2122 1.7875
      vertex 10.4522 20.2122 0
    endloop
  endfacet
  facet normal 0.844328 0.535827 0
    outer loop
      vertex 10.2818 20.4806 0
      vertex 10.2818 20.4806 1.7875
      vertex 10.4522 20.2122 0
    endloop
  endfacet
  facet normal 0.904827 0.42578 0
    outer loop
      vertex 10.1465 20.7682 1.7875
      vertex 10.2818 20.4806 1.7875
      vertex 10.2818 20.4806 0
    endloop
  endfacet
  facet normal 0.904827 0.42578 0
    outer loop
      vertex 10.1465 20.7682 0
      vertex 10.1465 20.7682 1.7875
      vertex 10.2818 20.4806 0
    endloop
  endfacet
  facet normal 0.951057 0.309016 0
    outer loop
      vertex 10.0483 21.0705 1.7875
      vertex 10.1465 20.7682 1.7875
      vertex 10.1465 20.7682 0
    endloop
  endfacet
  facet normal 0.951057 0.309016 0
    outer loop
      vertex 10.0483 21.0705 0
      vertex 10.0483 21.0705 1.7875
      vertex 10.1465 20.7682 0
    endloop
  endfacet
  facet normal 0.982287 0.187381 0
    outer loop
      vertex 9.98871 21.3827 1.7875
      vertex 10.0483 21.0705 1.7875
      vertex 10.0483 21.0705 0
    endloop
  endfacet
  facet normal 0.982287 0.187381 0
    outer loop
      vertex 9.98871 21.3827 0
      vertex 9.98871 21.3827 1.7875
      vertex 10.0483 21.0705 0
    endloop
  endfacet
  facet normal 0 0 -1
    outer loop
      vertex 10.0483 22.3295 1.7875
      vertex 10.1465 22.6318 1.7875
      vertex 9.98871 22.0172 1.7875
    endloop
  endfacet
  facet normal 0 0 -1
    outer loop
      vertex 9.98871 22.0172 1.7875
      vertex 10.1465 22.6318 1.7875
      vertex 10.2818 22.9194 1.7875
    endloop
  endfacet
  facet normal 0 0 -1
    outer loop
      vertex 9.98871 22.0172 1.7875
      vertex 10.2818 22.9194 1.7875
      vertex 10.4522 23.1878 1.7875
    endloop
  endfacet
  facet normal 0 0 -1
    outer loop
      vertex 9.98871 22.0172 1.7875
      vertex 10.4522 23.1878 1.7875
      vertex 10.6548 23.4328 1.7875
    endloop
  endfacet
  facet normal 0 0 -1
    outer loop
      vertex 9.98871 22.0172 1.7875
      vertex 10.6548 23.4328 1.7875
      vertex 10.8865 23.6504 1.7875
    endloop
  endfacet
  facet normal 0 0 -1
    outer loop
      vertex 9.98871 22.0172 1.7875
      vertex 10.8865 23.6504 1.7875
      vertex 11.1437 23.8372 1.7875
    endloop
  endfacet
  facet normal 0 0 -1
    outer loop
      vertex 9.98871 22.0172 1.7875
      vertex 11.1437 23.8372 1.7875
      vertex 11.4222 23.9903 1.7875
    endloop
  endfacet
  facet normal 0 0 -1
    outer loop
      vertex 9.98871 22.0172 1.7875
      vertex 11.4222 23.9903 1.7875
      vertex 11.7178 24.1074 1.7875
    endloop
  endfacet
  facet normal 0 0 -1
    outer loop
      vertex 9.98871 22.0172 1.7875
      vertex 11.7178 24.1074 1.7875
      vertex 12.0257 24.1864 1.7875
    endloop
  endfacet
  facet normal 0 0 -1
    outer loop
      vertex 9.98871 22.0172 1.7875
      vertex 12.0257 24.1864 1.7875
      vertex 12.3411 24.2263 1.7875
    endloop
  endfacet
  facet normal 0 0 -1
    outer loop
      vertex 9.98871 22.0172 1.7875
      vertex 12.3411 24.2263 1.7875
      vertex 12.6589 24.2263 1.7875
    endloop
  endfacet
  facet normal 0 0 -1
    outer loop
      vertex 9.98871 22.0172 1.7875
      vertex 12.6589 24.2263 1.7875
      vertex 12.9743 24.1864 1.7875
    endloop
  endfacet
  facet normal 0 0 -1
    outer loop
      vertex 9.98871 22.0172 1.7875
      vertex 12.9743 24.1864 1.7875
      vertex 13.2822 24.1074 1.7875
    endloop
  endfacet
  facet normal 0 0 -1
    outer loop
      vertex 9.98871 22.0172 1.7875
      vertex 13.2822 24.1074 1.7875
      vertex 13.5778 23.9903 1.7875
    endloop
  endfacet
  facet normal 0 0 -1
    outer loop
      vertex 9.98871 22.0172 1.7875
      vertex 13.5778 23.9903 1.7875
      vertex 13.8563 23.8372 1.7875
    endloop
  endfacet
  facet normal 0 0 -1
    outer loop
      vertex 9.98871 22.0172 1.7875
      vertex 13.8563 23.8372 1.7875
      vertex 14.1135 23.6504 1.7875
    endloop
  endfacet
  facet normal 0 0 -1
    outer loop
      vertex 9.98871 22.0172 1.7875
      vertex 14.1135 23.6504 1.7875
      vertex 14.3452 23.4328 1.7875
    endloop
  endfacet
  facet normal 0 0 -1
    outer loop
      vertex 9.98871 22.0172 1.7875
      vertex 14.3452 23.4328 1.7875
      vertex 14.5478 23.1878 1.7875
    endloop
  endfacet
  facet normal 0 0 -1
    outer loop
      vertex 9.98871 22.0172 1.7875
      vertex 14.5478 23.1878 1.7875
      vertex 14.7182 22.9194 1.7875
    endloop
  endfacet
  facet normal 0 0 -1
    outer loop
      vertex 9.98871 22.0172 1.7875
      vertex 14.7182 22.9194 1.7875
      vertex 14.8535 22.6318 1.7875
    endloop
  endfacet
  facet normal 0 0 -1
    outer loop
      vertex 9.98871 22.0172 1.7875
      vertex 14.8535 22.6318 1.7875
      vertex 14.9517 22.3295 1.7875
    endloop
  endfacet
  facet normal 0 0 -1
    outer loop
      vertex 9.98871 22.0172 1.7875
      vertex 14.9517 22.3295 1.7875
      vertex 15.0113 22.0172 1.7875
    endloop
  endfacet
  facet normal 0 0 -1
    outer loop
      vertex 9.98871 22.0172 1.7875
      vertex 15.0113 22.0172 1.7875
      vertex 15.0312 21.7 1.7875
    endloop
  endfacet
  facet normal 0 0 -1
    outer loop
      vertex 9.98871 22.0172 1.7875
      vertex 15.0312 21.7 1.7875
      vertex 15.0113 21.3827 1.7875
    endloop
  endfacet
  facet normal 0 0 -1
    outer loop
      vertex 9.98871 22.0172 1.7875
      vertex 15.0113 21.3827 1.7875
      vertex 14.9517 21.0705 1.7875
    endloop
  endfacet
  facet normal 0 0 -1
    outer loop
      vertex 9.98871 22.0172 1.7875
      vertex 14.9517 21.0705 1.7875
      vertex 14.8535 20.7682 1.7875
    endloop
  endfacet
  facet normal 0 0 -1
    outer loop
      vertex 9.98871 22.0172 1.7875
      vertex 14.8535 20.7682 1.7875
      vertex 14.7182 20.4806 1.7875
    endloop
  endfacet
  facet normal 0 0 -1
    outer loop
      vertex 9.98871 22.0172 1.7875
      vertex 14.7182 20.4806 1.7875
      vertex 14.5478 20.2122 1.7875
    endloop
  endfacet
  facet normal 0 0 -1
    outer loop
      vertex 9.98871 22.0172 1.7875
      vertex 14.5478 20.2122 1.7875
      vertex 14.3452 19.9672 1.7875
    endloop
  endfacet
  facet normal 0 0 -1
    outer loop
      vertex 9.98871 22.0172 1.7875
      vertex 14.3452 19.9672 1.7875
      vertex 14.1135 19.7496 1.7875
    endloop
  endfacet
  facet normal 0 0 -1
    outer loop
      vertex 9.98871 22.0172 1.7875
      vertex 14.1135 19.7496 1.7875
      vertex 13.8563 19.5628 1.7875
    endloop
  endfacet
  facet normal 0 0 -1
    outer loop
      vertex 9.98871 22.0172 1.7875
      vertex 13.8563 19.5628 1.7875
      vertex 13.5778 19.4097 1.7875
    endloop
  endfacet
  facet normal 0 0 -1
    outer loop
      vertex 9.98871 22.0172 1.7875
      vertex 13.5778 19.4097 1.7875
      vertex 13.2822 19.2926 1.7875
    endloop
  endfacet
  facet normal 0 0 -1
    outer loop
      vertex 9.98871 22.0172 1.7875
      vertex 13.2822 19.2926 1.7875
      vertex 12.9743 19.2136 1.7875
    endloop
  endfacet
  facet normal 0 0 -1
    outer loop
      vertex 9.98871 22.0172 1.7875
      vertex 12.9743 19.2136 1.7875
      vertex 12.6589 19.1737 1.7875
    endloop
  endfacet
  facet normal 0 0 -1
    outer loop
      vertex 9.98871 22.0172 1.7875
      vertex 12.6589 19.1737 1.7875
      vertex 12.3411 19.1737 1.7875
    endloop
  endfacet
  facet normal 0 0 -1
    outer loop
      vertex 9.98871 22.0172 1.7875
      vertex 12.3411 19.1737 1.7875
      vertex 12.0257 19.2136 1.7875
    endloop
  endfacet
  facet normal 0 0 -1
    outer loop
      vertex 9.98871 22.0172 1.7875
      vertex 12.0257 19.2136 1.7875
      vertex 11.7178 19.2926 1.7875
    endloop
  endfacet
  facet normal 0 0 -1
    outer loop
      vertex 9.98871 22.0172 1.7875
      vertex 11.7178 19.2926 1.7875
      vertex 11.4222 19.4097 1.7875
    endloop
  endfacet
  facet normal 0 0 -1
    outer loop
      vertex 9.98871 22.0172 1.7875
      vertex 11.4222 19.4097 1.7875
      vertex 11.1437 19.5628 1.7875
    endloop
  endfacet
  facet normal 0 0 -1
    outer loop
      vertex 9.98871 22.0172 1.7875
      vertex 11.1437 19.5628 1.7875
      vertex 10.8865 19.7496 1.7875
    endloop
  endfacet
  facet normal 0 0 -1
    outer loop
      vertex 9.98871 22.0172 1.7875
      vertex 10.8865 19.7496 1.7875
      vertex 10.6548 19.9672 1.7875
    endloop
  endfacet
  facet normal 0 0 -1
    outer loop
      vertex 9.98871 22.0172 1.7875
      vertex 10.6548 19.9672 1.7875
      vertex 10.4522 20.2122 1.7875
    endloop
  endfacet
  facet normal 0 0 -1
    outer loop
      vertex 9.98871 22.0172 1.7875
      vertex 10.4522 20.2122 1.7875
      vertex 10.2818 20.4806 1.7875
    endloop
  endfacet
  facet normal 0 0 -1
    outer loop
      vertex 9.98871 22.0172 1.7875
      vertex 10.2818 20.4806 1.7875
      vertex 10.1465 20.7682 1.7875
    endloop
  endfacet
  facet normal 0 0 -1
    outer loop
      vertex 9.98871 22.0172 1.7875
      vertex 10.1465 20.7682 1.7875
      vertex 10.0483 21.0705 1.7875
    endloop
  endfacet
  facet normal 0 0 -1
    outer loop
      vertex 9.98871 22.0172 1.7875
      vertex 10.0483 21.0705 1.7875
      vertex 9.98871 21.3827 1.7875
    endloop
  endfacet
  facet normal 0 0 -1
    outer loop
      vertex 9.98871 22.0172 1.7875
      vertex 9.98871 21.3827 1.7875
      vertex 9.96875 21.7 1.7875
    endloop
  endfacet
endsolid OpenSCAD_Model
