solid OpenSCAD_Model
  facet normal -1 0 0
    outer loop
      vertex 0 2.1 0
      vertex 0 2.1 15.9
      vertex 0 5 0
    endloop
  endfacet
  facet normal -1 0 0
    outer loop
      vertex 0 5 0
      vertex 0 2.1 15.9
      vertex 0 5 18.8
    endloop
  endfacet
  facet normal 0 -1 0
    outer loop
      vertex 0 2.1 15.9
      vertex 0 2.1 0
      vertex 19.8 2.1 0
    endloop
  endfacet
  facet normal 0 -1 0
    outer loop
      vertex 19.8 2.1 15.9
      vertex 0 2.1 15.9
      vertex 19.8 2.1 0
    endloop
  endfacet
  facet normal 0 0 -1
    outer loop
      vertex 0 2.1 0
      vertex 0 5 0
      vertex 19.8 2.1 0
    endloop
  endfacet
  facet normal 0 0 -1
    outer loop
      vertex 19.8 2.1 0
      vertex 0 5 0
      vertex 19.8 5 0
    endloop
  endfacet
  facet normal 0 1 0
    outer loop
      vertex 0 5 0
      vertex 0 5 18.8
      vertex 19.8 5 0
    endloop
  endfacet
  facet normal 0 1 0
    outer loop
      vertex 19.8 5 0
      vertex 0 5 18.8
      vertex 19.8 5 18.8
    endloop
  endfacet
  facet normal 0 -0.707107 0.707107
    outer loop
      vertex 19.8 2.1 15.9
      vertex 19.8 5 18.8
      vertex 0 5 18.8
    endloop
  endfacet
  facet normal 0 -0.707107 0.707107
    outer loop
      vertex 0 2.1 15.9
      vertex 19.8 2.1 15.9
      vertex 0 5 18.8
    endloop
  endfacet
  facet normal 1 0 0
    outer loop
      vertex 19.8 2.1 15.9
      vertex 19.8 2.1 0
      vertex 19.8 5 0
    endloop
  endfacet
  facet normal 1 0 0
    outer loop
      vertex 19.8 5 18.8
      vertex 19.8 2.1 15.9
      vertex 19.8 5 0
    endloop
  endfacet
endsolid OpenSCAD_Model
