solid OpenSCAD_Model
  facet normal -1 0 0
    outer loop
      vertex 0 0 0
      vertex 0 0 7.5
      vertex 0 59.2 0
    endloop
  endfacet
  facet normal -1 0 0
    outer loop
      vertex 0 59.2 0
      vertex 0 0 7.5
      vertex 0 50 7.5
    endloop
  endfacet
  facet normal -1 0 0
    outer loop
      vertex 0 59.2 0
      vertex 0 50 7.5
      vertex 0 50 49
    endloop
  endfacet
  facet normal -1 0 0
    outer loop
      vertex 0 59.2 7.5
      vertex 0 50 49
      vertex 0 59.2 49
    endloop
  endfacet
  facet normal -1 0 0
    outer loop
      vertex 0 59.2 0
      vertex 0 50 49
      vertex 0 59.2 7.5
    endloop
  endfacet
  facet normal 0 -1 0
    outer loop
      vertex 0 0 7.5
      vertex 0 0 0
      vertex 25 0 0
    endloop
  endfacet
  facet normal 0 -1 0
    outer loop
      vertex 25 0 7.5
      vertex 0 0 7.5
      vertex 25 0 0
    endloop
  endfacet
  facet normal 0 0 -1
    outer loop
      vertex 22.6 47.6 0
      vertex 25 0 0
      vertex 22.6 2.4 0
    endloop
  endfacet
  facet normal 0 0 -1
    outer loop
      vertex 22.6 47.6 0
      vertex 15.8 59.2 0
      vertex 25 50 0
    endloop
  endfacet
  facet normal 0 0 -1
    outer loop
      vertex 0 0 0
      vertex 0 59.2 0
      vertex 2.4 47.6 0
    endloop
  endfacet
  facet normal 0 0 -1
    outer loop
      vertex 0 0 0
      vertex 2.4 47.6 0
      vertex 2.4 2.4 0
    endloop
  endfacet
  facet normal 0 0 -1
    outer loop
      vertex 0 0 0
      vertex 2.4 2.4 0
      vertex 25 0 0
    endloop
  endfacet
  facet normal 0 0 -1
    outer loop
      vertex 2.4 2.4 0
      vertex 22.6 2.4 0
      vertex 25 0 0
    endloop
  endfacet
  facet normal 0 0 -1
    outer loop
      vertex 25 0 0
      vertex 22.6 47.6 0
      vertex 25 50 0
    endloop
  endfacet
  facet normal 0 0 -1
    outer loop
      vertex 2.4 47.6 0
      vertex 0 59.2 0
      vertex 15.8 59.2 0
    endloop
  endfacet
  facet normal 0 0 -1
    outer loop
      vertex 2.4 47.6 0
      vertex 15.8 59.2 0
      vertex 22.6 47.6 0
    endloop
  endfacet
  facet normal 0 1 0
    outer loop
      vertex 0 59.2 0
      vertex 0 59.2 7.5
      vertex 15.8 59.2 0
    endloop
  endfacet
  facet normal 0 1 0
    outer loop
      vertex 15.8 59.2 0
      vertex 0 59.2 7.5
      vertex 15.8 59.2 7.5
    endloop
  endfacet
  facet normal 0 1 0
    outer loop
      vertex 0 59.2 7.5
      vertex 0 59.2 49
      vertex 15.8 59.2 7.5
    endloop
  endfacet
  facet normal 0 1 0
    outer loop
      vertex 15.8 59.2 7.5
      vertex 0 59.2 49
      vertex 15.8 59.2 49
    endloop
  endfacet
  facet normal 0 0 1
    outer loop
      vertex 0 59.2 49
      vertex 0 50 49
      vertex 25 50 49
    endloop
  endfacet
  facet normal 0 0 1
    outer loop
      vertex 15.8 59.2 49
      vertex 0 59.2 49
      vertex 25 50 49
    endloop
  endfacet
  facet normal 0 -1 0
    outer loop
      vertex 0 50 49
      vertex 0 50 7.5
      vertex 25 50 7.5
    endloop
  endfacet
  facet normal 0 -1 0
    outer loop
      vertex 25 50 49
      vertex 0 50 49
      vertex 25 50 7.5
    endloop
  endfacet
  facet normal 0 0 1
    outer loop
      vertex 0.325 0.325 7.5
      vertex 0 0 7.5
      vertex 25 0 7.5
    endloop
  endfacet
  facet normal 0 0 1
    outer loop
      vertex 24.675 0.325 7.5
      vertex 0.325 0.325 7.5
      vertex 25 0 7.5
    endloop
  endfacet
  facet normal 0 0 1
    outer loop
      vertex 0 50 7.5
      vertex 0 0 7.5
      vertex 0.325 0.325 7.5
    endloop
  endfacet
  facet normal 0 0 1
    outer loop
      vertex 24.675 25.325 7.5
      vertex 0.325 25.325 7.5
      vertex 24.675 24.675 7.5
    endloop
  endfacet
  facet normal 0 0 1
    outer loop
      vertex 0 50 7.5
      vertex 0.325 0.325 7.5
      vertex 0.325 24.675 7.5
    endloop
  endfacet
  facet normal 0 0 1
    outer loop
      vertex 25 50 7.5
      vertex 24.675 24.675 7.5
      vertex 25 0 7.5
    endloop
  endfacet
  facet normal 0 0 1
    outer loop
      vertex 0.325 25.325 7.5
      vertex 0.325 49.675 7.5
      vertex 0 50 7.5
    endloop
  endfacet
  facet normal 0 0 1
    outer loop
      vertex 24.675 24.675 7.5
      vertex 24.675 0.325 7.5
      vertex 25 0 7.5
    endloop
  endfacet
  facet normal 0 0 1
    outer loop
      vertex 0 50 7.5
      vertex 0.325 24.675 7.5
      vertex 0.325 25.325 7.5
    endloop
  endfacet
  facet normal 0 0 1
    outer loop
      vertex 25 50 7.5
      vertex 0 50 7.5
      vertex 0.325 49.675 7.5
    endloop
  endfacet
  facet normal 0 0 1
    outer loop
      vertex 25 50 7.5
      vertex 0.325 49.675 7.5
      vertex 24.675 49.675 7.5
    endloop
  endfacet
  facet normal 0 0 1
    outer loop
      vertex 25 50 7.5
      vertex 24.675 25.325 7.5
      vertex 24.675 24.675 7.5
    endloop
  endfacet
  facet normal 0 0 1
    outer loop
      vertex 25 50 7.5
      vertex 24.675 49.675 7.5
      vertex 24.675 25.325 7.5
    endloop
  endfacet
  facet normal 0 0 1
    outer loop
      vertex 0.325 24.675 7.5
      vertex 24.675 24.675 7.5
      vertex 0.325 25.325 7.5
    endloop
  endfacet
  facet normal 1 0 0
    outer loop
      vertex 25 0 7.5
      vertex 25 0 0
      vertex 25 50 0
    endloop
  endfacet
  facet normal 1 0 0
    outer loop
      vertex 25 50 7.5
      vertex 25 0 7.5
      vertex 25 50 0
    endloop
  endfacet
  facet normal 0.707107 0.707107 0
    outer loop
      vertex 25 50 49
      vertex 25 50 7.5
      vertex 15.8 59.2 49
    endloop
  endfacet
  facet normal 0.707107 0.707107 0
    outer loop
      vertex 15.8 59.2 49
      vertex 25 50 7.5
      vertex 25 50 0
    endloop
  endfacet
  facet normal 0.707107 0.707107 0
    outer loop
      vertex 15.8 59.2 7.5
      vertex 25 50 0
      vertex 15.8 59.2 0
    endloop
  endfacet
  facet normal 0.707107 0.707107 0
    outer loop
      vertex 15.8 59.2 49
      vertex 25 50 0
      vertex 15.8 59.2 7.5
    endloop
  endfacet
  facet normal 1 0 0
    outer loop
      vertex 2.4 47.6 0
      vertex 2.4 47.6 2.2
      vertex 2.4 2.4 2.2
    endloop
  endfacet
  facet normal 1 0 0
    outer loop
      vertex 2.4 2.4 0
      vertex 2.4 47.6 0
      vertex 2.4 2.4 2.2
    endloop
  endfacet
  facet normal 0 -1 0
    outer loop
      vertex 22.6 47.6 0
      vertex 22.6 47.6 2.2
      vertex 2.4 47.6 2.2
    endloop
  endfacet
  facet normal 0 -1 0
    outer loop
      vertex 2.4 47.6 0
      vertex 22.6 47.6 0
      vertex 2.4 47.6 2.2
    endloop
  endfacet
  facet normal -1 0 0
    outer loop
      vertex 22.6 47.6 2.2
      vertex 22.6 47.6 0
      vertex 22.6 2.4 2.2
    endloop
  endfacet
  facet normal -1 0 0
    outer loop
      vertex 22.6 2.4 2.2
      vertex 22.6 47.6 0
      vertex 22.6 2.4 0
    endloop
  endfacet
  facet normal 0 1 0
    outer loop
      vertex 22.6 2.4 2.2
      vertex 22.6 2.4 0
      vertex 2.4 2.4 2.2
    endloop
  endfacet
  facet normal 0 1 0
    outer loop
      vertex 2.4 2.4 2.2
      vertex 22.6 2.4 0
      vertex 2.4 2.4 0
    endloop
  endfacet
  facet normal -1 0 0
    outer loop
      vertex 0.325 0.325 7.5
      vertex 0.325 0.325 9.5
      vertex 0.325 24.675 7.5
    endloop
  endfacet
  facet normal -1 0 0
    outer loop
      vertex 0.325 24.675 7.5
      vertex 0.325 0.325 9.5
      vertex 0.325 24.675 9.5
    endloop
  endfacet
  facet normal 0 -1 0
    outer loop
      vertex 0.325 0.325 9.5
      vertex 0.325 0.325 7.5
      vertex 24.675 0.325 7.5
    endloop
  endfacet
  facet normal 0 -1 0
    outer loop
      vertex 24.675 0.325 9.5
      vertex 0.325 0.325 9.5
      vertex 24.675 0.325 7.5
    endloop
  endfacet
  facet normal 1 0 0
    outer loop
      vertex 24.675 0.325 9.5
      vertex 24.675 0.325 7.5
      vertex 24.675 24.675 7.5
    endloop
  endfacet
  facet normal 1 0 0
    outer loop
      vertex 24.675 24.675 9.5
      vertex 24.675 0.325 9.5
      vertex 24.675 24.675 7.5
    endloop
  endfacet
  facet normal 0 1 0
    outer loop
      vertex 0.325 24.675 7.5
      vertex 0.325 24.675 9.5
      vertex 24.675 24.675 7.5
    endloop
  endfacet
  facet normal 0 1 0
    outer loop
      vertex 24.675 24.675 7.5
      vertex 0.325 24.675 9.5
      vertex 24.675 24.675 9.5
    endloop
  endfacet
  facet normal -1 0 0
    outer loop
      vertex 0.325 25.325 7.5
      vertex 0.325 25.325 9.5
      vertex 0.325 49.675 7.5
    endloop
  endfacet
  facet normal -1 0 0
    outer loop
      vertex 0.325 49.675 7.5
      vertex 0.325 25.325 9.5
      vertex 0.325 49.675 9.5
    endloop
  endfacet
  facet normal 0 -1 0
    outer loop
      vertex 0.325 25.325 9.5
      vertex 0.325 25.325 7.5
      vertex 24.675 25.325 7.5
    endloop
  endfacet
  facet normal 0 -1 0
    outer loop
      vertex 24.675 25.325 9.5
      vertex 0.325 25.325 9.5
      vertex 24.675 25.325 7.5
    endloop
  endfacet
  facet normal 1 0 0
    outer loop
      vertex 24.675 25.325 9.5
      vertex 24.675 25.325 7.5
      vertex 24.675 49.675 7.5
    endloop
  endfacet
  facet normal 1 0 0
    outer loop
      vertex 24.675 49.675 9.5
      vertex 24.675 25.325 9.5
      vertex 24.675 49.675 7.5
    endloop
  endfacet
  facet normal 0 1 0
    outer loop
      vertex 0.325 49.675 7.5
      vertex 0.325 49.675 9.5
      vertex 24.675 49.675 7.5
    endloop
  endfacet
  facet normal 0 1 0
    outer loop
      vertex 24.675 49.675 7.5
      vertex 0.325 49.675 9.5
      vertex 24.675 49.675 9.5
    endloop
  endfacet
  facet normal 0 0 -1
    outer loop
      vertex 3.8 3.8 2.2
      vertex 22.6 2.4 2.2
      vertex 2.4 2.4 2.2
    endloop
  endfacet
  facet normal 0 0 -1
    outer loop
      vertex 21.2 3.8 2.2
      vertex 22.6 2.4 2.2
      vertex 3.8 3.8 2.2
    endloop
  endfacet
  facet normal 0 0 -1
    outer loop
      vertex 2.4 47.6 2.2
      vertex 3.8 3.8 2.2
      vertex 2.4 2.4 2.2
    endloop
  endfacet
  facet normal 0 0 -1
    outer loop
      vertex 21.2 46.2 2.2
      vertex 22.6 2.4 2.2
      vertex 21.2 3.8 2.2
    endloop
  endfacet
  facet normal 0 0 -1
    outer loop
      vertex 22.6 47.6 2.2
      vertex 22.6 2.4 2.2
      vertex 21.2 46.2 2.2
    endloop
  endfacet
  facet normal 0 0 -1
    outer loop
      vertex 22.6 47.6 2.2
      vertex 21.2 46.2 2.2
      vertex 2.4 47.6 2.2
    endloop
  endfacet
  facet normal 0 0 -1
    outer loop
      vertex 21.2 46.2 2.2
      vertex 3.8 46.2 2.2
      vertex 2.4 47.6 2.2
    endloop
  endfacet
  facet normal 0 0 -1
    outer loop
      vertex 3.8 3.8 2.2
      vertex 2.4 47.6 2.2
      vertex 3.8 46.2 2.2
    endloop
  endfacet
  facet normal 0 0 1
    outer loop
      vertex 0.325 24.675 9.5
      vertex 0.325 0.325 9.5
      vertex 24.675 0.325 9.5
    endloop
  endfacet
  facet normal 0 0 1
    outer loop
      vertex 24.675 24.675 9.5
      vertex 0.325 24.675 9.5
      vertex 24.675 0.325 9.5
    endloop
  endfacet
  facet normal 0 0 1
    outer loop
      vertex 0.325 49.675 9.5
      vertex 0.325 25.325 9.5
      vertex 24.675 25.325 9.5
    endloop
  endfacet
  facet normal 0 0 1
    outer loop
      vertex 24.675 49.675 9.5
      vertex 0.325 49.675 9.5
      vertex 24.675 25.325 9.5
    endloop
  endfacet
  facet normal -1 0 0
    outer loop
      vertex 3.8 3.8 0
      vertex 3.8 3.8 2.2
      vertex 3.8 46.2 0
    endloop
  endfacet
  facet normal -1 0 0
    outer loop
      vertex 3.8 46.2 0
      vertex 3.8 3.8 2.2
      vertex 3.8 46.2 2.2
    endloop
  endfacet
  facet normal 0 -1 0
    outer loop
      vertex 3.8 3.8 2.2
      vertex 3.8 3.8 0
      vertex 21.2 3.8 0
    endloop
  endfacet
  facet normal 0 -1 0
    outer loop
      vertex 21.2 3.8 2.2
      vertex 3.8 3.8 2.2
      vertex 21.2 3.8 0
    endloop
  endfacet
  facet normal 0 1 0
    outer loop
      vertex 3.8 46.2 0
      vertex 3.8 46.2 2.2
      vertex 21.2 46.2 0
    endloop
  endfacet
  facet normal 0 1 0
    outer loop
      vertex 21.2 46.2 0
      vertex 3.8 46.2 2.2
      vertex 21.2 46.2 2.2
    endloop
  endfacet
  facet normal 1 0 0
    outer loop
      vertex 21.2 3.8 2.2
      vertex 21.2 3.8 0
      vertex 21.2 46.2 0
    endloop
  endfacet
  facet normal 1 0 0
    outer loop
      vertex 21.2 46.2 2.2
      vertex 21.2 3.8 2.2
      vertex 21.2 46.2 0
    endloop
  endfacet
  facet normal 0 0 -1
    outer loop
      vertex 14.5478 26.4878 0
      vertex 3.8 46.2 0
      vertex 21.2 46.2 0
    endloop
  endfacet
  facet normal 0 0 -1
    outer loop
      vertex 3.8 3.8 0
      vertex 3.8 46.2 0
      vertex 9.96875 25 0
    endloop
  endfacet
  facet normal 0 0 -1
    outer loop
      vertex 11.1437 27.1372 0
      vertex 3.8 46.2 0
      vertex 11.4222 27.2903 0
    endloop
  endfacet
  facet normal 0 0 -1
    outer loop
      vertex 3.8 3.8 0
      vertex 9.96875 25 0
      vertex 9.98871 24.6827 0
    endloop
  endfacet
  facet normal 0 0 -1
    outer loop
      vertex 3.8 3.8 0
      vertex 9.98871 24.6827 0
      vertex 10.0483 24.3705 0
    endloop
  endfacet
  facet normal 0 0 -1
    outer loop
      vertex 3.8 3.8 0
      vertex 10.0483 24.3705 0
      vertex 10.1465 24.0682 0
    endloop
  endfacet
  facet normal 0 0 -1
    outer loop
      vertex 3.8 3.8 0
      vertex 10.1465 24.0682 0
      vertex 10.2818 23.7806 0
    endloop
  endfacet
  facet normal 0 0 -1
    outer loop
      vertex 3.8 3.8 0
      vertex 10.2818 23.7806 0
      vertex 21.2 3.8 0
    endloop
  endfacet
  facet normal 0 0 -1
    outer loop
      vertex 10.6548 23.2672 0
      vertex 21.2 3.8 0
      vertex 10.4522 23.5122 0
    endloop
  endfacet
  facet normal 0 0 -1
    outer loop
      vertex 10.8865 23.0496 0
      vertex 21.2 3.8 0
      vertex 10.6548 23.2672 0
    endloop
  endfacet
  facet normal 0 0 -1
    outer loop
      vertex 11.1437 22.8628 0
      vertex 21.2 3.8 0
      vertex 10.8865 23.0496 0
    endloop
  endfacet
  facet normal 0 0 -1
    outer loop
      vertex 13.5778 22.7097 0
      vertex 21.2 3.8 0
      vertex 13.2822 22.5926 0
    endloop
  endfacet
  facet normal 0 0 -1
    outer loop
      vertex 10.1465 25.9318 0
      vertex 3.8 46.2 0
      vertex 10.2818 26.2194 0
    endloop
  endfacet
  facet normal 0 0 -1
    outer loop
      vertex 11.1437 22.8628 0
      vertex 11.4222 22.7097 0
      vertex 21.2 3.8 0
    endloop
  endfacet
  facet normal 0 0 -1
    outer loop
      vertex 11.4222 22.7097 0
      vertex 11.7178 22.5926 0
      vertex 21.2 3.8 0
    endloop
  endfacet
  facet normal 0 0 -1
    outer loop
      vertex 10.2818 26.2194 0
      vertex 3.8 46.2 0
      vertex 10.4522 26.4878 0
    endloop
  endfacet
  facet normal 0 0 -1
    outer loop
      vertex 11.7178 22.5926 0
      vertex 12.0257 22.5136 0
      vertex 21.2 3.8 0
    endloop
  endfacet
  facet normal 0 0 -1
    outer loop
      vertex 10.4522 26.4878 0
      vertex 3.8 46.2 0
      vertex 10.6548 26.7328 0
    endloop
  endfacet
  facet normal 0 0 -1
    outer loop
      vertex 12.0257 22.5136 0
      vertex 12.3411 22.4737 0
      vertex 21.2 3.8 0
    endloop
  endfacet
  facet normal 0 0 -1
    outer loop
      vertex 10.6548 26.7328 0
      vertex 3.8 46.2 0
      vertex 10.8865 26.9504 0
    endloop
  endfacet
  facet normal 0 0 -1
    outer loop
      vertex 12.3411 22.4737 0
      vertex 12.6589 22.4737 0
      vertex 21.2 3.8 0
    endloop
  endfacet
  facet normal 0 0 -1
    outer loop
      vertex 10.8865 26.9504 0
      vertex 3.8 46.2 0
      vertex 11.1437 27.1372 0
    endloop
  endfacet
  facet normal 0 0 -1
    outer loop
      vertex 12.6589 22.4737 0
      vertex 12.9743 22.5136 0
      vertex 21.2 3.8 0
    endloop
  endfacet
  facet normal 0 0 -1
    outer loop
      vertex 12.9743 22.5136 0
      vertex 13.2822 22.5926 0
      vertex 21.2 3.8 0
    endloop
  endfacet
  facet normal 0 0 -1
    outer loop
      vertex 15.0113 24.6827 0
      vertex 21.2 46.2 0
      vertex 14.9517 24.3705 0
    endloop
  endfacet
  facet normal 0 0 -1
    outer loop
      vertex 21.2 3.8 0
      vertex 13.5778 22.7097 0
      vertex 13.8563 22.8628 0
    endloop
  endfacet
  facet normal 0 0 -1
    outer loop
      vertex 21.2 3.8 0
      vertex 13.8563 22.8628 0
      vertex 14.1135 23.0496 0
    endloop
  endfacet
  facet normal 0 0 -1
    outer loop
      vertex 21.2 3.8 0
      vertex 14.1135 23.0496 0
      vertex 14.3452 23.2672 0
    endloop
  endfacet
  facet normal 0 0 -1
    outer loop
      vertex 21.2 3.8 0
      vertex 14.3452 23.2672 0
      vertex 14.5478 23.5122 0
    endloop
  endfacet
  facet normal 0 0 -1
    outer loop
      vertex 21.2 3.8 0
      vertex 14.5478 23.5122 0
      vertex 14.7182 23.7806 0
    endloop
  endfacet
  facet normal 0 0 -1
    outer loop
      vertex 21.2 3.8 0
      vertex 14.7182 23.7806 0
      vertex 14.8535 24.0682 0
    endloop
  endfacet
  facet normal 0 0 -1
    outer loop
      vertex 21.2 3.8 0
      vertex 14.8535 24.0682 0
      vertex 14.9517 24.3705 0
    endloop
  endfacet
  facet normal 0 0 -1
    outer loop
      vertex 21.2 3.8 0
      vertex 14.9517 24.3705 0
      vertex 21.2 46.2 0
    endloop
  endfacet
  facet normal 0 0 -1
    outer loop
      vertex 15.0312 25 0
      vertex 21.2 46.2 0
      vertex 15.0113 24.6827 0
    endloop
  endfacet
  facet normal 0 0 -1
    outer loop
      vertex 15.0113 25.3172 0
      vertex 21.2 46.2 0
      vertex 15.0312 25 0
    endloop
  endfacet
  facet normal 0 0 -1
    outer loop
      vertex 14.9517 25.6295 0
      vertex 21.2 46.2 0
      vertex 15.0113 25.3172 0
    endloop
  endfacet
  facet normal 0 0 -1
    outer loop
      vertex 14.8535 25.9318 0
      vertex 21.2 46.2 0
      vertex 14.9517 25.6295 0
    endloop
  endfacet
  facet normal 0 0 -1
    outer loop
      vertex 14.7182 26.2194 0
      vertex 21.2 46.2 0
      vertex 14.8535 25.9318 0
    endloop
  endfacet
  facet normal 0 0 -1
    outer loop
      vertex 14.5478 26.4878 0
      vertex 21.2 46.2 0
      vertex 14.7182 26.2194 0
    endloop
  endfacet
  facet normal 0 0 -1
    outer loop
      vertex 14.3452 26.7328 0
      vertex 3.8 46.2 0
      vertex 14.5478 26.4878 0
    endloop
  endfacet
  facet normal 0 0 -1
    outer loop
      vertex 11.4222 27.2903 0
      vertex 3.8 46.2 0
      vertex 11.7178 27.4074 0
    endloop
  endfacet
  facet normal 0 0 -1
    outer loop
      vertex 14.1135 26.9504 0
      vertex 3.8 46.2 0
      vertex 14.3452 26.7328 0
    endloop
  endfacet
  facet normal 0 0 -1
    outer loop
      vertex 13.8563 27.1372 0
      vertex 3.8 46.2 0
      vertex 14.1135 26.9504 0
    endloop
  endfacet
  facet normal 0 0 -1
    outer loop
      vertex 13.5778 27.2903 0
      vertex 3.8 46.2 0
      vertex 13.8563 27.1372 0
    endloop
  endfacet
  facet normal 0 0 -1
    outer loop
      vertex 13.2822 27.4074 0
      vertex 3.8 46.2 0
      vertex 13.5778 27.2903 0
    endloop
  endfacet
  facet normal 0 0 -1
    outer loop
      vertex 12.9743 27.4864 0
      vertex 3.8 46.2 0
      vertex 13.2822 27.4074 0
    endloop
  endfacet
  facet normal 0 0 -1
    outer loop
      vertex 12.6589 27.5263 0
      vertex 3.8 46.2 0
      vertex 12.9743 27.4864 0
    endloop
  endfacet
  facet normal 0 0 -1
    outer loop
      vertex 12.3411 27.5263 0
      vertex 3.8 46.2 0
      vertex 12.6589 27.5263 0
    endloop
  endfacet
  facet normal 0 0 -1
    outer loop
      vertex 12.0257 27.4864 0
      vertex 3.8 46.2 0
      vertex 12.3411 27.5263 0
    endloop
  endfacet
  facet normal 0 0 -1
    outer loop
      vertex 11.7178 27.4074 0
      vertex 3.8 46.2 0
      vertex 12.0257 27.4864 0
    endloop
  endfacet
  facet normal 0 0 -1
    outer loop
      vertex 10.0483 25.6295 0
      vertex 3.8 46.2 0
      vertex 10.1465 25.9318 0
    endloop
  endfacet
  facet normal 0 0 -1
    outer loop
      vertex 9.98871 25.3172 0
      vertex 3.8 46.2 0
      vertex 10.0483 25.6295 0
    endloop
  endfacet
  facet normal 0 0 -1
    outer loop
      vertex 9.96875 25 0
      vertex 3.8 46.2 0
      vertex 9.98871 25.3172 0
    endloop
  endfacet
  facet normal 0 0 -1
    outer loop
      vertex 10.4522 23.5122 0
      vertex 21.2 3.8 0
      vertex 10.2818 23.7806 0
    endloop
  endfacet
  facet normal 0.998027 -0.0627915 0
    outer loop
      vertex 9.98871 25.3172 0
      vertex 9.98871 25.3172 1.7875
      vertex 9.96875 25 1.7875
    endloop
  endfacet
  facet normal 0.998027 -0.0627915 0
    outer loop
      vertex 9.96875 25 0
      vertex 9.98871 25.3172 0
      vertex 9.96875 25 1.7875
    endloop
  endfacet
  facet normal 0.998027 0.0627915 0
    outer loop
      vertex 9.96875 25 1.7875
      vertex 9.98871 24.6827 1.7875
      vertex 9.98871 24.6827 0
    endloop
  endfacet
  facet normal 0.998027 0.0627915 0
    outer loop
      vertex 9.96875 25 0
      vertex 9.96875 25 1.7875
      vertex 9.98871 24.6827 0
    endloop
  endfacet
  facet normal 0.982287 -0.187381 0
    outer loop
      vertex 10.0483 25.6295 0
      vertex 10.0483 25.6295 1.7875
      vertex 9.98871 25.3172 1.7875
    endloop
  endfacet
  facet normal 0.982287 -0.187381 0
    outer loop
      vertex 9.98871 25.3172 0
      vertex 10.0483 25.6295 0
      vertex 9.98871 25.3172 1.7875
    endloop
  endfacet
  facet normal 0.951057 -0.309016 0
    outer loop
      vertex 10.1465 25.9318 0
      vertex 10.1465 25.9318 1.7875
      vertex 10.0483 25.6295 1.7875
    endloop
  endfacet
  facet normal 0.951057 -0.309016 0
    outer loop
      vertex 10.0483 25.6295 0
      vertex 10.1465 25.9318 0
      vertex 10.0483 25.6295 1.7875
    endloop
  endfacet
  facet normal 0.904827 -0.42578 0
    outer loop
      vertex 10.2818 26.2194 0
      vertex 10.2818 26.2194 1.7875
      vertex 10.1465 25.9318 1.7875
    endloop
  endfacet
  facet normal 0.904827 -0.42578 0
    outer loop
      vertex 10.1465 25.9318 0
      vertex 10.2818 26.2194 0
      vertex 10.1465 25.9318 1.7875
    endloop
  endfacet
  facet normal 0.844328 -0.535827 0
    outer loop
      vertex 10.4522 26.4878 0
      vertex 10.4522 26.4878 1.7875
      vertex 10.2818 26.2194 1.7875
    endloop
  endfacet
  facet normal 0.844328 -0.535827 0
    outer loop
      vertex 10.2818 26.2194 0
      vertex 10.4522 26.4878 0
      vertex 10.2818 26.2194 1.7875
    endloop
  endfacet
  facet normal 0.770515 -0.637422 0
    outer loop
      vertex 10.6548 26.7328 0
      vertex 10.6548 26.7328 1.7875
      vertex 10.4522 26.4878 1.7875
    endloop
  endfacet
  facet normal 0.770515 -0.637422 0
    outer loop
      vertex 10.4522 26.4878 0
      vertex 10.6548 26.7328 0
      vertex 10.4522 26.4878 1.7875
    endloop
  endfacet
  facet normal 0.684546 -0.728969 0
    outer loop
      vertex 10.8865 26.9504 0
      vertex 10.8865 26.9504 1.7875
      vertex 10.6548 26.7328 1.7875
    endloop
  endfacet
  facet normal 0.684546 -0.728969 0
    outer loop
      vertex 10.6548 26.7328 0
      vertex 10.8865 26.9504 0
      vertex 10.6548 26.7328 1.7875
    endloop
  endfacet
  facet normal 0.587786 -0.809017 0
    outer loop
      vertex 11.1437 27.1372 0
      vertex 11.1437 27.1372 1.7875
      vertex 10.8865 26.9504 1.7875
    endloop
  endfacet
  facet normal 0.587786 -0.809017 0
    outer loop
      vertex 10.8865 26.9504 0
      vertex 11.1437 27.1372 0
      vertex 10.8865 26.9504 1.7875
    endloop
  endfacet
  facet normal 0.481752 -0.876307 0
    outer loop
      vertex 11.4222 27.2903 0
      vertex 11.4222 27.2903 1.7875
      vertex 11.1437 27.1372 1.7875
    endloop
  endfacet
  facet normal 0.481752 -0.876307 0
    outer loop
      vertex 11.1437 27.1372 0
      vertex 11.4222 27.2903 0
      vertex 11.1437 27.1372 1.7875
    endloop
  endfacet
  facet normal 0.368126 -0.929776 0
    outer loop
      vertex 11.7178 27.4074 0
      vertex 11.7178 27.4074 1.7875
      vertex 11.4222 27.2903 1.7875
    endloop
  endfacet
  facet normal 0.368126 -0.929776 0
    outer loop
      vertex 11.4222 27.2903 0
      vertex 11.7178 27.4074 0
      vertex 11.4222 27.2903 1.7875
    endloop
  endfacet
  facet normal 0.248691 -0.968583 0
    outer loop
      vertex 12.0257 27.4864 0
      vertex 12.0257 27.4864 1.7875
      vertex 11.7178 27.4074 1.7875
    endloop
  endfacet
  facet normal 0.248691 -0.968583 0
    outer loop
      vertex 11.7178 27.4074 0
      vertex 12.0257 27.4864 0
      vertex 11.7178 27.4074 1.7875
    endloop
  endfacet
  facet normal 0.125332 -0.992115 0
    outer loop
      vertex 12.3411 27.5263 0
      vertex 12.3411 27.5263 1.7875
      vertex 12.0257 27.4864 1.7875
    endloop
  endfacet
  facet normal 0.125332 -0.992115 0
    outer loop
      vertex 12.0257 27.4864 0
      vertex 12.3411 27.5263 0
      vertex 12.0257 27.4864 1.7875
    endloop
  endfacet
  facet normal 0 -1 0
    outer loop
      vertex 12.6589 27.5263 0
      vertex 12.6589 27.5263 1.7875
      vertex 12.3411 27.5263 1.7875
    endloop
  endfacet
  facet normal 0 -1 0
    outer loop
      vertex 12.3411 27.5263 0
      vertex 12.6589 27.5263 0
      vertex 12.3411 27.5263 1.7875
    endloop
  endfacet
  facet normal -0.125332 -0.992115 0
    outer loop
      vertex 12.9743 27.4864 0
      vertex 12.9743 27.4864 1.7875
      vertex 12.6589 27.5263 1.7875
    endloop
  endfacet
  facet normal -0.125332 -0.992115 0
    outer loop
      vertex 12.6589 27.5263 0
      vertex 12.9743 27.4864 0
      vertex 12.6589 27.5263 1.7875
    endloop
  endfacet
  facet normal -0.248691 -0.968583 0
    outer loop
      vertex 13.2822 27.4074 0
      vertex 13.2822 27.4074 1.7875
      vertex 12.9743 27.4864 1.7875
    endloop
  endfacet
  facet normal -0.248691 -0.968583 0
    outer loop
      vertex 12.9743 27.4864 0
      vertex 13.2822 27.4074 0
      vertex 12.9743 27.4864 1.7875
    endloop
  endfacet
  facet normal -0.368126 -0.929776 0
    outer loop
      vertex 13.5778 27.2903 0
      vertex 13.5778 27.2903 1.7875
      vertex 13.2822 27.4074 1.7875
    endloop
  endfacet
  facet normal -0.368126 -0.929776 0
    outer loop
      vertex 13.2822 27.4074 0
      vertex 13.5778 27.2903 0
      vertex 13.2822 27.4074 1.7875
    endloop
  endfacet
  facet normal -0.481752 -0.876307 0
    outer loop
      vertex 13.8563 27.1372 0
      vertex 13.8563 27.1372 1.7875
      vertex 13.5778 27.2903 1.7875
    endloop
  endfacet
  facet normal -0.481752 -0.876307 0
    outer loop
      vertex 13.5778 27.2903 0
      vertex 13.8563 27.1372 0
      vertex 13.5778 27.2903 1.7875
    endloop
  endfacet
  facet normal -0.587786 -0.809017 0
    outer loop
      vertex 14.1135 26.9504 0
      vertex 14.1135 26.9504 1.7875
      vertex 13.8563 27.1372 1.7875
    endloop
  endfacet
  facet normal -0.587786 -0.809017 0
    outer loop
      vertex 13.8563 27.1372 0
      vertex 14.1135 26.9504 0
      vertex 13.8563 27.1372 1.7875
    endloop
  endfacet
  facet normal -0.684546 -0.728969 0
    outer loop
      vertex 14.3452 26.7328 0
      vertex 14.3452 26.7328 1.7875
      vertex 14.1135 26.9504 1.7875
    endloop
  endfacet
  facet normal -0.684546 -0.728969 0
    outer loop
      vertex 14.1135 26.9504 0
      vertex 14.3452 26.7328 0
      vertex 14.1135 26.9504 1.7875
    endloop
  endfacet
  facet normal -0.770515 -0.637422 0
    outer loop
      vertex 14.5478 26.4878 1.7875
      vertex 14.3452 26.7328 1.7875
      vertex 14.5478 26.4878 0
    endloop
  endfacet
  facet normal -0.770515 -0.637422 0
    outer loop
      vertex 14.5478 26.4878 0
      vertex 14.3452 26.7328 1.7875
      vertex 14.3452 26.7328 0
    endloop
  endfacet
  facet normal -0.844328 -0.535827 0
    outer loop
      vertex 14.7182 26.2194 1.7875
      vertex 14.5478 26.4878 1.7875
      vertex 14.7182 26.2194 0
    endloop
  endfacet
  facet normal -0.844328 -0.535827 0
    outer loop
      vertex 14.7182 26.2194 0
      vertex 14.5478 26.4878 1.7875
      vertex 14.5478 26.4878 0
    endloop
  endfacet
  facet normal -0.904827 -0.42578 0
    outer loop
      vertex 14.8535 25.9318 1.7875
      vertex 14.7182 26.2194 1.7875
      vertex 14.8535 25.9318 0
    endloop
  endfacet
  facet normal -0.904827 -0.42578 0
    outer loop
      vertex 14.8535 25.9318 0
      vertex 14.7182 26.2194 1.7875
      vertex 14.7182 26.2194 0
    endloop
  endfacet
  facet normal -0.951057 -0.309016 0
    outer loop
      vertex 14.9517 25.6295 1.7875
      vertex 14.8535 25.9318 1.7875
      vertex 14.9517 25.6295 0
    endloop
  endfacet
  facet normal -0.951057 -0.309016 0
    outer loop
      vertex 14.9517 25.6295 0
      vertex 14.8535 25.9318 1.7875
      vertex 14.8535 25.9318 0
    endloop
  endfacet
  facet normal -0.982287 -0.187381 0
    outer loop
      vertex 15.0113 25.3172 1.7875
      vertex 14.9517 25.6295 1.7875
      vertex 15.0113 25.3172 0
    endloop
  endfacet
  facet normal -0.982287 -0.187381 0
    outer loop
      vertex 15.0113 25.3172 0
      vertex 14.9517 25.6295 1.7875
      vertex 14.9517 25.6295 0
    endloop
  endfacet
  facet normal -0.998027 -0.0627915 0
    outer loop
      vertex 15.0312 25 1.7875
      vertex 15.0113 25.3172 1.7875
      vertex 15.0312 25 0
    endloop
  endfacet
  facet normal -0.998027 -0.0627915 0
    outer loop
      vertex 15.0312 25 0
      vertex 15.0113 25.3172 1.7875
      vertex 15.0113 25.3172 0
    endloop
  endfacet
  facet normal -0.998027 0.0627915 0
    outer loop
      vertex 15.0312 25 1.7875
      vertex 15.0312 25 0
      vertex 15.0113 24.6827 1.7875
    endloop
  endfacet
  facet normal -0.998027 0.0627915 0
    outer loop
      vertex 15.0113 24.6827 1.7875
      vertex 15.0312 25 0
      vertex 15.0113 24.6827 0
    endloop
  endfacet
  facet normal -0.982287 0.187381 0
    outer loop
      vertex 15.0113 24.6827 1.7875
      vertex 15.0113 24.6827 0
      vertex 14.9517 24.3705 1.7875
    endloop
  endfacet
  facet normal -0.982287 0.187381 0
    outer loop
      vertex 14.9517 24.3705 1.7875
      vertex 15.0113 24.6827 0
      vertex 14.9517 24.3705 0
    endloop
  endfacet
  facet normal -0.951057 0.309016 0
    outer loop
      vertex 14.9517 24.3705 1.7875
      vertex 14.9517 24.3705 0
      vertex 14.8535 24.0682 1.7875
    endloop
  endfacet
  facet normal -0.951057 0.309016 0
    outer loop
      vertex 14.8535 24.0682 1.7875
      vertex 14.9517 24.3705 0
      vertex 14.8535 24.0682 0
    endloop
  endfacet
  facet normal -0.904827 0.42578 0
    outer loop
      vertex 14.8535 24.0682 1.7875
      vertex 14.8535 24.0682 0
      vertex 14.7182 23.7806 1.7875
    endloop
  endfacet
  facet normal -0.904827 0.42578 0
    outer loop
      vertex 14.7182 23.7806 1.7875
      vertex 14.8535 24.0682 0
      vertex 14.7182 23.7806 0
    endloop
  endfacet
  facet normal -0.844328 0.535827 0
    outer loop
      vertex 14.7182 23.7806 1.7875
      vertex 14.7182 23.7806 0
      vertex 14.5478 23.5122 1.7875
    endloop
  endfacet
  facet normal -0.844328 0.535827 0
    outer loop
      vertex 14.5478 23.5122 1.7875
      vertex 14.7182 23.7806 0
      vertex 14.5478 23.5122 0
    endloop
  endfacet
  facet normal -0.770515 0.637422 0
    outer loop
      vertex 14.5478 23.5122 1.7875
      vertex 14.5478 23.5122 0
      vertex 14.3452 23.2672 1.7875
    endloop
  endfacet
  facet normal -0.770515 0.637422 0
    outer loop
      vertex 14.3452 23.2672 1.7875
      vertex 14.5478 23.5122 0
      vertex 14.3452 23.2672 0
    endloop
  endfacet
  facet normal -0.684546 0.728969 0
    outer loop
      vertex 14.3452 23.2672 1.7875
      vertex 14.3452 23.2672 0
      vertex 14.1135 23.0496 1.7875
    endloop
  endfacet
  facet normal -0.684546 0.728969 0
    outer loop
      vertex 14.1135 23.0496 1.7875
      vertex 14.3452 23.2672 0
      vertex 14.1135 23.0496 0
    endloop
  endfacet
  facet normal -0.587786 0.809017 0
    outer loop
      vertex 14.1135 23.0496 1.7875
      vertex 14.1135 23.0496 0
      vertex 13.8563 22.8628 1.7875
    endloop
  endfacet
  facet normal -0.587786 0.809017 0
    outer loop
      vertex 13.8563 22.8628 1.7875
      vertex 14.1135 23.0496 0
      vertex 13.8563 22.8628 0
    endloop
  endfacet
  facet normal -0.481752 0.876307 0
    outer loop
      vertex 13.8563 22.8628 1.7875
      vertex 13.8563 22.8628 0
      vertex 13.5778 22.7097 1.7875
    endloop
  endfacet
  facet normal -0.481752 0.876307 0
    outer loop
      vertex 13.5778 22.7097 1.7875
      vertex 13.8563 22.8628 0
      vertex 13.5778 22.7097 0
    endloop
  endfacet
  facet normal -0.368126 0.929776 0
    outer loop
      vertex 13.5778 22.7097 1.7875
      vertex 13.5778 22.7097 0
      vertex 13.2822 22.5926 1.7875
    endloop
  endfacet
  facet normal -0.368126 0.929776 0
    outer loop
      vertex 13.2822 22.5926 1.7875
      vertex 13.5778 22.7097 0
      vertex 13.2822 22.5926 0
    endloop
  endfacet
  facet normal -0.248691 0.968583 0
    outer loop
      vertex 13.2822 22.5926 1.7875
      vertex 13.2822 22.5926 0
      vertex 12.9743 22.5136 1.7875
    endloop
  endfacet
  facet normal -0.248691 0.968583 0
    outer loop
      vertex 12.9743 22.5136 1.7875
      vertex 13.2822 22.5926 0
      vertex 12.9743 22.5136 0
    endloop
  endfacet
  facet normal -0.125332 0.992115 0
    outer loop
      vertex 12.9743 22.5136 1.7875
      vertex 12.9743 22.5136 0
      vertex 12.6589 22.4737 1.7875
    endloop
  endfacet
  facet normal -0.125332 0.992115 0
    outer loop
      vertex 12.6589 22.4737 1.7875
      vertex 12.9743 22.5136 0
      vertex 12.6589 22.4737 0
    endloop
  endfacet
  facet normal 0 1 0
    outer loop
      vertex 12.6589 22.4737 1.7875
      vertex 12.6589 22.4737 0
      vertex 12.3411 22.4737 1.7875
    endloop
  endfacet
  facet normal 0 1 0
    outer loop
      vertex 12.3411 22.4737 1.7875
      vertex 12.6589 22.4737 0
      vertex 12.3411 22.4737 0
    endloop
  endfacet
  facet normal 0.125332 0.992115 0
    outer loop
      vertex 12.3411 22.4737 1.7875
      vertex 12.3411 22.4737 0
      vertex 12.0257 22.5136 1.7875
    endloop
  endfacet
  facet normal 0.125332 0.992115 0
    outer loop
      vertex 12.0257 22.5136 1.7875
      vertex 12.3411 22.4737 0
      vertex 12.0257 22.5136 0
    endloop
  endfacet
  facet normal 0.248691 0.968583 0
    outer loop
      vertex 12.0257 22.5136 1.7875
      vertex 12.0257 22.5136 0
      vertex 11.7178 22.5926 1.7875
    endloop
  endfacet
  facet normal 0.248691 0.968583 0
    outer loop
      vertex 11.7178 22.5926 1.7875
      vertex 12.0257 22.5136 0
      vertex 11.7178 22.5926 0
    endloop
  endfacet
  facet normal 0.368126 0.929776 0
    outer loop
      vertex 11.7178 22.5926 1.7875
      vertex 11.7178 22.5926 0
      vertex 11.4222 22.7097 1.7875
    endloop
  endfacet
  facet normal 0.368126 0.929776 0
    outer loop
      vertex 11.4222 22.7097 1.7875
      vertex 11.7178 22.5926 0
      vertex 11.4222 22.7097 0
    endloop
  endfacet
  facet normal 0.481752 0.876307 0
    outer loop
      vertex 11.4222 22.7097 1.7875
      vertex 11.4222 22.7097 0
      vertex 11.1437 22.8628 1.7875
    endloop
  endfacet
  facet normal 0.481752 0.876307 0
    outer loop
      vertex 11.1437 22.8628 1.7875
      vertex 11.4222 22.7097 0
      vertex 11.1437 22.8628 0
    endloop
  endfacet
  facet normal 0.587786 0.809017 0
    outer loop
      vertex 11.1437 22.8628 1.7875
      vertex 11.1437 22.8628 0
      vertex 10.8865 23.0496 1.7875
    endloop
  endfacet
  facet normal 0.587786 0.809017 0
    outer loop
      vertex 10.8865 23.0496 1.7875
      vertex 11.1437 22.8628 0
      vertex 10.8865 23.0496 0
    endloop
  endfacet
  facet normal 0.684546 0.728969 0
    outer loop
      vertex 10.8865 23.0496 1.7875
      vertex 10.8865 23.0496 0
      vertex 10.6548 23.2672 1.7875
    endloop
  endfacet
  facet normal 0.684546 0.728969 0
    outer loop
      vertex 10.6548 23.2672 1.7875
      vertex 10.8865 23.0496 0
      vertex 10.6548 23.2672 0
    endloop
  endfacet
  facet normal 0.770515 0.637422 0
    outer loop
      vertex 10.4522 23.5122 1.7875
      vertex 10.6548 23.2672 1.7875
      vertex 10.6548 23.2672 0
    endloop
  endfacet
  facet normal 0.770515 0.637422 0
    outer loop
      vertex 10.4522 23.5122 0
      vertex 10.4522 23.5122 1.7875
      vertex 10.6548 23.2672 0
    endloop
  endfacet
  facet normal 0.844328 0.535827 0
    outer loop
      vertex 10.2818 23.7806 1.7875
      vertex 10.4522 23.5122 1.7875
      vertex 10.4522 23.5122 0
    endloop
  endfacet
  facet normal 0.844328 0.535827 0
    outer loop
      vertex 10.2818 23.7806 0
      vertex 10.2818 23.7806 1.7875
      vertex 10.4522 23.5122 0
    endloop
  endfacet
  facet normal 0.904827 0.42578 0
    outer loop
      vertex 10.1465 24.0682 1.7875
      vertex 10.2818 23.7806 1.7875
      vertex 10.2818 23.7806 0
    endloop
  endfacet
  facet normal 0.904827 0.42578 0
    outer loop
      vertex 10.1465 24.0682 0
      vertex 10.1465 24.0682 1.7875
      vertex 10.2818 23.7806 0
    endloop
  endfacet
  facet normal 0.951057 0.309016 0
    outer loop
      vertex 10.0483 24.3705 1.7875
      vertex 10.1465 24.0682 1.7875
      vertex 10.1465 24.0682 0
    endloop
  endfacet
  facet normal 0.951057 0.309016 0
    outer loop
      vertex 10.0483 24.3705 0
      vertex 10.0483 24.3705 1.7875
      vertex 10.1465 24.0682 0
    endloop
  endfacet
  facet normal 0.982287 0.187381 0
    outer loop
      vertex 9.98871 24.6827 1.7875
      vertex 10.0483 24.3705 1.7875
      vertex 10.0483 24.3705 0
    endloop
  endfacet
  facet normal 0.982287 0.187381 0
    outer loop
      vertex 9.98871 24.6827 0
      vertex 9.98871 24.6827 1.7875
      vertex 10.0483 24.3705 0
    endloop
  endfacet
  facet normal 0 0 -1
    outer loop
      vertex 10.0483 25.6295 1.7875
      vertex 10.1465 25.9318 1.7875
      vertex 9.98871 25.3172 1.7875
    endloop
  endfacet
  facet normal 0 0 -1
    outer loop
      vertex 9.98871 25.3172 1.7875
      vertex 10.1465 25.9318 1.7875
      vertex 10.2818 26.2194 1.7875
    endloop
  endfacet
  facet normal 0 0 -1
    outer loop
      vertex 9.98871 25.3172 1.7875
      vertex 10.2818 26.2194 1.7875
      vertex 10.4522 26.4878 1.7875
    endloop
  endfacet
  facet normal 0 0 -1
    outer loop
      vertex 9.98871 25.3172 1.7875
      vertex 10.4522 26.4878 1.7875
      vertex 10.6548 26.7328 1.7875
    endloop
  endfacet
  facet normal 0 0 -1
    outer loop
      vertex 9.98871 25.3172 1.7875
      vertex 10.6548 26.7328 1.7875
      vertex 10.8865 26.9504 1.7875
    endloop
  endfacet
  facet normal 0 0 -1
    outer loop
      vertex 9.98871 25.3172 1.7875
      vertex 10.8865 26.9504 1.7875
      vertex 11.1437 27.1372 1.7875
    endloop
  endfacet
  facet normal 0 0 -1
    outer loop
      vertex 9.98871 25.3172 1.7875
      vertex 11.1437 27.1372 1.7875
      vertex 11.4222 27.2903 1.7875
    endloop
  endfacet
  facet normal 0 0 -1
    outer loop
      vertex 9.98871 25.3172 1.7875
      vertex 11.4222 27.2903 1.7875
      vertex 11.7178 27.4074 1.7875
    endloop
  endfacet
  facet normal 0 0 -1
    outer loop
      vertex 9.98871 25.3172 1.7875
      vertex 11.7178 27.4074 1.7875
      vertex 12.0257 27.4864 1.7875
    endloop
  endfacet
  facet normal 0 0 -1
    outer loop
      vertex 9.98871 25.3172 1.7875
      vertex 12.0257 27.4864 1.7875
      vertex 12.3411 27.5263 1.7875
    endloop
  endfacet
  facet normal 0 0 -1
    outer loop
      vertex 9.98871 25.3172 1.7875
      vertex 12.3411 27.5263 1.7875
      vertex 12.6589 27.5263 1.7875
    endloop
  endfacet
  facet normal 0 0 -1
    outer loop
      vertex 9.98871 25.3172 1.7875
      vertex 12.6589 27.5263 1.7875
      vertex 12.9743 27.4864 1.7875
    endloop
  endfacet
  facet normal 0 0 -1
    outer loop
      vertex 9.98871 25.3172 1.7875
      vertex 12.9743 27.4864 1.7875
      vertex 13.2822 27.4074 1.7875
    endloop
  endfacet
  facet normal 0 0 -1
    outer loop
      vertex 9.98871 25.3172 1.7875
      vertex 13.2822 27.4074 1.7875
      vertex 13.5778 27.2903 1.7875
    endloop
  endfacet
  facet normal 0 0 -1
    outer loop
      vertex 9.98871 25.3172 1.7875
      vertex 13.5778 27.2903 1.7875
      vertex 13.8563 27.1372 1.7875
    endloop
  endfacet
  facet normal 0 0 -1
    outer loop
      vertex 9.98871 25.3172 1.7875
      vertex 13.8563 27.1372 1.7875
      vertex 14.1135 26.9504 1.7875
    endloop
  endfacet
  facet normal 0 0 -1
    outer loop
      vertex 9.98871 25.3172 1.7875
      vertex 14.1135 26.9504 1.7875
      vertex 14.3452 26.7328 1.7875
    endloop
  endfacet
  facet normal 0 0 -1
    outer loop
      vertex 9.98871 25.3172 1.7875
      vertex 14.3452 26.7328 1.7875
      vertex 14.5478 26.4878 1.7875
    endloop
  endfacet
  facet normal 0 0 -1
    outer loop
      vertex 9.98871 25.3172 1.7875
      vertex 14.5478 26.4878 1.7875
      vertex 14.7182 26.2194 1.7875
    endloop
  endfacet
  facet normal 0 0 -1
    outer loop
      vertex 9.98871 25.3172 1.7875
      vertex 14.7182 26.2194 1.7875
      vertex 14.8535 25.9318 1.7875
    endloop
  endfacet
  facet normal 0 0 -1
    outer loop
      vertex 9.98871 25.3172 1.7875
      vertex 14.8535 25.9318 1.7875
      vertex 14.9517 25.6295 1.7875
    endloop
  endfacet
  facet normal 0 0 -1
    outer loop
      vertex 9.98871 25.3172 1.7875
      vertex 14.9517 25.6295 1.7875
      vertex 15.0113 25.3172 1.7875
    endloop
  endfacet
  facet normal 0 0 -1
    outer loop
      vertex 9.98871 25.3172 1.7875
      vertex 15.0113 25.3172 1.7875
      vertex 15.0312 25 1.7875
    endloop
  endfacet
  facet normal 0 0 -1
    outer loop
      vertex 9.98871 25.3172 1.7875
      vertex 15.0312 25 1.7875
      vertex 15.0113 24.6827 1.7875
    endloop
  endfacet
  facet normal 0 0 -1
    outer loop
      vertex 9.98871 25.3172 1.7875
      vertex 15.0113 24.6827 1.7875
      vertex 14.9517 24.3705 1.7875
    endloop
  endfacet
  facet normal 0 0 -1
    outer loop
      vertex 9.98871 25.3172 1.7875
      vertex 14.9517 24.3705 1.7875
      vertex 14.8535 24.0682 1.7875
    endloop
  endfacet
  facet normal 0 0 -1
    outer loop
      vertex 9.98871 25.3172 1.7875
      vertex 14.8535 24.0682 1.7875
      vertex 14.7182 23.7806 1.7875
    endloop
  endfacet
  facet normal 0 0 -1
    outer loop
      vertex 9.98871 25.3172 1.7875
      vertex 14.7182 23.7806 1.7875
      vertex 14.5478 23.5122 1.7875
    endloop
  endfacet
  facet normal 0 0 -1
    outer loop
      vertex 9.98871 25.3172 1.7875
      vertex 14.5478 23.5122 1.7875
      vertex 14.3452 23.2672 1.7875
    endloop
  endfacet
  facet normal 0 0 -1
    outer loop
      vertex 9.98871 25.3172 1.7875
      vertex 14.3452 23.2672 1.7875
      vertex 14.1135 23.0496 1.7875
    endloop
  endfacet
  facet normal 0 0 -1
    outer loop
      vertex 9.98871 25.3172 1.7875
      vertex 14.1135 23.0496 1.7875
      vertex 13.8563 22.8628 1.7875
    endloop
  endfacet
  facet normal 0 0 -1
    outer loop
      vertex 9.98871 25.3172 1.7875
      vertex 13.8563 22.8628 1.7875
      vertex 13.5778 22.7097 1.7875
    endloop
  endfacet
  facet normal 0 0 -1
    outer loop
      vertex 9.98871 25.3172 1.7875
      vertex 13.5778 22.7097 1.7875
      vertex 13.2822 22.5926 1.7875
    endloop
  endfacet
  facet normal 0 0 -1
    outer loop
      vertex 9.98871 25.3172 1.7875
      vertex 13.2822 22.5926 1.7875
      vertex 12.9743 22.5136 1.7875
    endloop
  endfacet
  facet normal 0 0 -1
    outer loop
      vertex 9.98871 25.3172 1.7875
      vertex 12.9743 22.5136 1.7875
      vertex 12.6589 22.4737 1.7875
    endloop
  endfacet
  facet normal 0 0 -1
    outer loop
      vertex 9.98871 25.3172 1.7875
      vertex 12.6589 22.4737 1.7875
      vertex 12.3411 22.4737 1.7875
    endloop
  endfacet
  facet normal 0 0 -1
    outer loop
      vertex 9.98871 25.3172 1.7875
      vertex 12.3411 22.4737 1.7875
      vertex 12.0257 22.5136 1.7875
    endloop
  endfacet
  facet normal 0 0 -1
    outer loop
      vertex 9.98871 25.3172 1.7875
      vertex 12.0257 22.5136 1.7875
      vertex 11.7178 22.5926 1.7875
    endloop
  endfacet
  facet normal 0 0 -1
    outer loop
      vertex 9.98871 25.3172 1.7875
      vertex 11.7178 22.5926 1.7875
      vertex 11.4222 22.7097 1.7875
    endloop
  endfacet
  facet normal 0 0 -1
    outer loop
      vertex 9.98871 25.3172 1.7875
      vertex 11.4222 22.7097 1.7875
      vertex 11.1437 22.8628 1.7875
    endloop
  endfacet
  facet normal 0 0 -1
    outer loop
      vertex 9.98871 25.3172 1.7875
      vertex 11.1437 22.8628 1.7875
      vertex 10.8865 23.0496 1.7875
    endloop
  endfacet
  facet normal 0 0 -1
    outer loop
      vertex 9.98871 25.3172 1.7875
      vertex 10.8865 23.0496 1.7875
      vertex 10.6548 23.2672 1.7875
    endloop
  endfacet
  facet normal 0 0 -1
    outer loop
      vertex 9.98871 25.3172 1.7875
      vertex 10.6548 23.2672 1.7875
      vertex 10.4522 23.5122 1.7875
    endloop
  endfacet
  facet normal 0 0 -1
    outer loop
      vertex 9.98871 25.3172 1.7875
      vertex 10.4522 23.5122 1.7875
      vertex 10.2818 23.7806 1.7875
    endloop
  endfacet
  facet normal 0 0 -1
    outer loop
      vertex 9.98871 25.3172 1.7875
      vertex 10.2818 23.7806 1.7875
      vertex 10.1465 24.0682 1.7875
    endloop
  endfacet
  facet normal 0 0 -1
    outer loop
      vertex 9.98871 25.3172 1.7875
      vertex 10.1465 24.0682 1.7875
      vertex 10.0483 24.3705 1.7875
    endloop
  endfacet
  facet normal 0 0 -1
    outer loop
      vertex 9.98871 25.3172 1.7875
      vertex 10.0483 24.3705 1.7875
      vertex 9.98871 24.6827 1.7875
    endloop
  endfacet
  facet normal 0 0 -1
    outer loop
      vertex 9.98871 25.3172 1.7875
      vertex 9.98871 24.6827 1.7875
      vertex 9.96875 25 1.7875
    endloop
  endfacet
endsolid OpenSCAD_Model
