solid OpenSCAD_Model
  facet normal -1 0 0
    outer loop
      vertex 0 0 0
      vertex 0 0 7.5
      vertex 0 100 0
    endloop
  endfacet
  facet normal -1 0 0
    outer loop
      vertex 0 100 0
      vertex 0 0 7.5
      vertex 0 100 7.5
    endloop
  endfacet
  facet normal 0 -1 0
    outer loop
      vertex 0 0 7.5
      vertex 0 0 0
      vertex 50 0 0
    endloop
  endfacet
  facet normal 0 -1 0
    outer loop
      vertex 50 0 7.5
      vertex 0 0 7.5
      vertex 50 0 0
    endloop
  endfacet
  facet normal 0 0 -1
    outer loop
      vertex 2.4 97.6 0
      vertex 0 100 0
      vertex 9.2 109.2 0
    endloop
  endfacet
  facet normal 0 0 -1
    outer loop
      vertex 47.6 97.6 0
      vertex 40.8 109.2 0
      vertex 50 100 0
    endloop
  endfacet
  facet normal 0 0 -1
    outer loop
      vertex 2.4 2.4 0
      vertex 0 100 0
      vertex 2.4 97.6 0
    endloop
  endfacet
  facet normal 0 0 -1
    outer loop
      vertex 0 0 0
      vertex 0 100 0
      vertex 2.4 2.4 0
    endloop
  endfacet
  facet normal 0 0 -1
    outer loop
      vertex 0 0 0
      vertex 2.4 2.4 0
      vertex 50 0 0
    endloop
  endfacet
  facet normal 0 0 -1
    outer loop
      vertex 47.6 97.6 0
      vertex 50 0 0
      vertex 47.6 2.4 0
    endloop
  endfacet
  facet normal 0 0 -1
    outer loop
      vertex 2.4 2.4 0
      vertex 47.6 2.4 0
      vertex 50 0 0
    endloop
  endfacet
  facet normal 0 0 -1
    outer loop
      vertex 50 0 0
      vertex 47.6 97.6 0
      vertex 50 100 0
    endloop
  endfacet
  facet normal 0 0 -1
    outer loop
      vertex 2.4 97.6 0
      vertex 9.2 109.2 0
      vertex 40.8 109.2 0
    endloop
  endfacet
  facet normal 0 0 -1
    outer loop
      vertex 2.4 97.6 0
      vertex 40.8 109.2 0
      vertex 47.6 97.6 0
    endloop
  endfacet
  facet normal -0.707107 0.707107 0
    outer loop
      vertex 0 100 49
      vertex 9.2 109.2 49
      vertex 0 100 7.5
    endloop
  endfacet
  facet normal -0.707107 0.707107 0
    outer loop
      vertex 0 100 7.5
      vertex 9.2 109.2 49
      vertex 9.2 109.2 7.5
    endloop
  endfacet
  facet normal -0.707107 0.707107 0
    outer loop
      vertex 9.2 109.2 7.5
      vertex 9.2 109.2 0
      vertex 0 100 7.5
    endloop
  endfacet
  facet normal -0.707107 0.707107 0
    outer loop
      vertex 0 100 7.5
      vertex 9.2 109.2 0
      vertex 0 100 0
    endloop
  endfacet
  facet normal 0 0 1
    outer loop
      vertex 0.325 0.325 7.5
      vertex 0 0 7.5
      vertex 50 0 7.5
    endloop
  endfacet
  facet normal 0 0 1
    outer loop
      vertex 24.675 0.325 7.5
      vertex 0.325 0.325 7.5
      vertex 50 0 7.5
    endloop
  endfacet
  facet normal 0 0 1
    outer loop
      vertex 0 100 7.5
      vertex 0 0 7.5
      vertex 0.325 0.325 7.5
    endloop
  endfacet
  facet normal 0 0 1
    outer loop
      vertex 24.675 50.325 7.5
      vertex 0.325 50.325 7.5
      vertex 24.675 49.675 7.5
    endloop
  endfacet
  facet normal 0 0 1
    outer loop
      vertex 0 100 7.5
      vertex 0.325 0.325 7.5
      vertex 0.325 24.675 7.5
    endloop
  endfacet
  facet normal 0 0 1
    outer loop
      vertex 25.325 0.325 7.5
      vertex 25.325 24.675 7.5
      vertex 24.675 24.675 7.5
    endloop
  endfacet
  facet normal 0 0 1
    outer loop
      vertex 0.325 25.325 7.5
      vertex 0.325 24.675 7.5
      vertex 24.675 24.675 7.5
    endloop
  endfacet
  facet normal 0 0 1
    outer loop
      vertex 25.325 0.325 7.5
      vertex 24.675 0.325 7.5
      vertex 50 0 7.5
    endloop
  endfacet
  facet normal 0 0 1
    outer loop
      vertex 0 100 7.5
      vertex 0.325 24.675 7.5
      vertex 0.325 25.325 7.5
    endloop
  endfacet
  facet normal 0 0 1
    outer loop
      vertex 0 100 7.5
      vertex 0.325 25.325 7.5
      vertex 0.325 49.675 7.5
    endloop
  endfacet
  facet normal 0 0 1
    outer loop
      vertex 49.675 99.675 7.5
      vertex 49.675 75.325 7.5
      vertex 50 100 7.5
    endloop
  endfacet
  facet normal 0 0 1
    outer loop
      vertex 25.325 25.325 7.5
      vertex 25.325 49.675 7.5
      vertex 24.675 50.325 7.5
    endloop
  endfacet
  facet normal 0 0 1
    outer loop
      vertex 24.675 74.675 7.5
      vertex 24.675 50.325 7.5
      vertex 25.325 49.675 7.5
    endloop
  endfacet
  facet normal 0 0 1
    outer loop
      vertex 0 100 7.5
      vertex 0.325 49.675 7.5
      vertex 0.325 50.325 7.5
    endloop
  endfacet
  facet normal 0 0 1
    outer loop
      vertex 49.675 25.325 7.5
      vertex 25.325 25.325 7.5
      vertex 49.675 24.675 7.5
    endloop
  endfacet
  facet normal 0 0 1
    outer loop
      vertex 0 100 7.5
      vertex 0.325 50.325 7.5
      vertex 0.325 74.675 7.5
    endloop
  endfacet
  facet normal 0 0 1
    outer loop
      vertex 49.675 0.325 7.5
      vertex 25.325 0.325 7.5
      vertex 50 0 7.5
    endloop
  endfacet
  facet normal 0 0 1
    outer loop
      vertex 24.675 75.325 7.5
      vertex 0.325 75.325 7.5
      vertex 24.675 74.675 7.5
    endloop
  endfacet
  facet normal 0 0 1
    outer loop
      vertex 25.325 24.675 7.5
      vertex 25.325 25.325 7.5
      vertex 24.675 25.325 7.5
    endloop
  endfacet
  facet normal 0 0 1
    outer loop
      vertex 0.325 49.675 7.5
      vertex 24.675 49.675 7.5
      vertex 0.325 50.325 7.5
    endloop
  endfacet
  facet normal 0 0 1
    outer loop
      vertex 0 100 7.5
      vertex 0.325 74.675 7.5
      vertex 0.325 75.325 7.5
    endloop
  endfacet
  facet normal 0 0 1
    outer loop
      vertex 25.325 25.325 7.5
      vertex 24.675 50.325 7.5
      vertex 24.675 49.675 7.5
    endloop
  endfacet
  facet normal 0 0 1
    outer loop
      vertex 50 100 7.5
      vertex 0 100 7.5
      vertex 0.325 99.675 7.5
    endloop
  endfacet
  facet normal 0 0 1
    outer loop
      vertex 50 100 7.5
      vertex 0.325 99.675 7.5
      vertex 24.675 99.675 7.5
    endloop
  endfacet
  facet normal 0 0 1
    outer loop
      vertex 25.325 75.325 7.5
      vertex 24.675 75.325 7.5
      vertex 24.675 74.675 7.5
    endloop
  endfacet
  facet normal 0 0 1
    outer loop
      vertex 25.325 99.675 7.5
      vertex 24.675 99.675 7.5
      vertex 24.675 75.325 7.5
    endloop
  endfacet
  facet normal 0 0 1
    outer loop
      vertex 25.325 49.675 7.5
      vertex 49.675 49.675 7.5
      vertex 25.325 50.325 7.5
    endloop
  endfacet
  facet normal 0 0 1
    outer loop
      vertex 24.675 25.325 7.5
      vertex 24.675 24.675 7.5
      vertex 25.325 24.675 7.5
    endloop
  endfacet
  facet normal 0 0 1
    outer loop
      vertex 50 100 7.5
      vertex 49.675 24.675 7.5
      vertex 50 0 7.5
    endloop
  endfacet
  facet normal 0 0 1
    outer loop
      vertex 49.675 50.325 7.5
      vertex 25.325 50.325 7.5
      vertex 49.675 49.675 7.5
    endloop
  endfacet
  facet normal 0 0 1
    outer loop
      vertex 24.675 49.675 7.5
      vertex 24.675 25.325 7.5
      vertex 25.325 25.325 7.5
    endloop
  endfacet
  facet normal 0 0 1
    outer loop
      vertex 0.325 75.325 7.5
      vertex 0.325 99.675 7.5
      vertex 0 100 7.5
    endloop
  endfacet
  facet normal 0 0 1
    outer loop
      vertex 25.325 50.325 7.5
      vertex 25.325 74.675 7.5
      vertex 24.675 74.675 7.5
    endloop
  endfacet
  facet normal 0 0 1
    outer loop
      vertex 50 100 7.5
      vertex 49.675 25.325 7.5
      vertex 49.675 24.675 7.5
    endloop
  endfacet
  facet normal 0 0 1
    outer loop
      vertex 50 100 7.5
      vertex 49.675 49.675 7.5
      vertex 49.675 25.325 7.5
    endloop
  endfacet
  facet normal 0 0 1
    outer loop
      vertex 49.675 24.675 7.5
      vertex 49.675 0.325 7.5
      vertex 50 0 7.5
    endloop
  endfacet
  facet normal 0 0 1
    outer loop
      vertex 24.675 74.675 7.5
      vertex 25.325 49.675 7.5
      vertex 25.325 50.325 7.5
    endloop
  endfacet
  facet normal 0 0 1
    outer loop
      vertex 49.675 75.325 7.5
      vertex 25.325 75.325 7.5
      vertex 25.325 74.675 7.5
    endloop
  endfacet
  facet normal 0 0 1
    outer loop
      vertex 25.325 75.325 7.5
      vertex 24.675 74.675 7.5
      vertex 25.325 74.675 7.5
    endloop
  endfacet
  facet normal 0 0 1
    outer loop
      vertex 49.675 75.325 7.5
      vertex 25.325 74.675 7.5
      vertex 49.675 74.675 7.5
    endloop
  endfacet
  facet normal 0 0 1
    outer loop
      vertex 50 100 7.5
      vertex 49.675 50.325 7.5
      vertex 49.675 49.675 7.5
    endloop
  endfacet
  facet normal 0 0 1
    outer loop
      vertex 50 100 7.5
      vertex 49.675 74.675 7.5
      vertex 49.675 50.325 7.5
    endloop
  endfacet
  facet normal 0 0 1
    outer loop
      vertex 25.325 99.675 7.5
      vertex 49.675 99.675 7.5
      vertex 50 100 7.5
    endloop
  endfacet
  facet normal 0 0 1
    outer loop
      vertex 50 100 7.5
      vertex 24.675 99.675 7.5
      vertex 25.325 99.675 7.5
    endloop
  endfacet
  facet normal 0 0 1
    outer loop
      vertex 50 100 7.5
      vertex 49.675 75.325 7.5
      vertex 49.675 74.675 7.5
    endloop
  endfacet
  facet normal 0 0 1
    outer loop
      vertex 25.325 75.325 7.5
      vertex 25.325 99.675 7.5
      vertex 24.675 75.325 7.5
    endloop
  endfacet
  facet normal 0 0 1
    outer loop
      vertex 24.675 24.675 7.5
      vertex 24.675 0.325 7.5
      vertex 25.325 0.325 7.5
    endloop
  endfacet
  facet normal 0 0 1
    outer loop
      vertex 0.325 74.675 7.5
      vertex 24.675 74.675 7.5
      vertex 0.325 75.325 7.5
    endloop
  endfacet
  facet normal 0 0 1
    outer loop
      vertex 24.675 25.325 7.5
      vertex 0.325 25.325 7.5
      vertex 24.675 24.675 7.5
    endloop
  endfacet
  facet normal 0 0 1
    outer loop
      vertex 25.325 24.675 7.5
      vertex 49.675 24.675 7.5
      vertex 25.325 25.325 7.5
    endloop
  endfacet
  facet normal 0 -1 0
    outer loop
      vertex 0 100 49
      vertex 0 100 7.5
      vertex 50 100 7.5
    endloop
  endfacet
  facet normal 0 -1 0
    outer loop
      vertex 50 100 49
      vertex 0 100 49
      vertex 50 100 7.5
    endloop
  endfacet
  facet normal 1 0 0
    outer loop
      vertex 50 0 7.5
      vertex 50 0 0
      vertex 50 100 0
    endloop
  endfacet
  facet normal 1 0 0
    outer loop
      vertex 50 100 7.5
      vertex 50 0 7.5
      vertex 50 100 0
    endloop
  endfacet
  facet normal 0.707107 0.707107 0
    outer loop
      vertex 50 100 49
      vertex 50 100 7.5
      vertex 40.8 109.2 49
    endloop
  endfacet
  facet normal 0.707107 0.707107 0
    outer loop
      vertex 40.8 109.2 49
      vertex 50 100 7.5
      vertex 50 100 0
    endloop
  endfacet
  facet normal 0.707107 0.707107 0
    outer loop
      vertex 40.8 109.2 7.5
      vertex 50 100 0
      vertex 40.8 109.2 0
    endloop
  endfacet
  facet normal 0.707107 0.707107 0
    outer loop
      vertex 40.8 109.2 49
      vertex 50 100 0
      vertex 40.8 109.2 7.5
    endloop
  endfacet
  facet normal 0 1 0
    outer loop
      vertex 9.2 109.2 0
      vertex 9.2 109.2 7.5
      vertex 40.8 109.2 0
    endloop
  endfacet
  facet normal 0 1 0
    outer loop
      vertex 40.8 109.2 0
      vertex 9.2 109.2 7.5
      vertex 40.8 109.2 7.5
    endloop
  endfacet
  facet normal 1 0 0
    outer loop
      vertex 2.4 97.6 0
      vertex 2.4 97.6 2.2
      vertex 2.4 2.4 2.2
    endloop
  endfacet
  facet normal 1 0 0
    outer loop
      vertex 2.4 2.4 0
      vertex 2.4 97.6 0
      vertex 2.4 2.4 2.2
    endloop
  endfacet
  facet normal 0 -1 0
    outer loop
      vertex 47.6 97.6 0
      vertex 47.6 97.6 2.2
      vertex 2.4 97.6 2.2
    endloop
  endfacet
  facet normal 0 -1 0
    outer loop
      vertex 2.4 97.6 0
      vertex 47.6 97.6 0
      vertex 2.4 97.6 2.2
    endloop
  endfacet
  facet normal -1 0 0
    outer loop
      vertex 47.6 97.6 2.2
      vertex 47.6 97.6 0
      vertex 47.6 2.4 2.2
    endloop
  endfacet
  facet normal -1 0 0
    outer loop
      vertex 47.6 2.4 2.2
      vertex 47.6 97.6 0
      vertex 47.6 2.4 0
    endloop
  endfacet
  facet normal 0 1 0
    outer loop
      vertex 47.6 2.4 2.2
      vertex 47.6 2.4 0
      vertex 2.4 2.4 2.2
    endloop
  endfacet
  facet normal 0 1 0
    outer loop
      vertex 2.4 2.4 2.2
      vertex 47.6 2.4 0
      vertex 2.4 2.4 0
    endloop
  endfacet
  facet normal 0 1 0
    outer loop
      vertex 9.2 109.2 7.5
      vertex 9.2 109.2 49
      vertex 40.8 109.2 7.5
    endloop
  endfacet
  facet normal 0 1 0
    outer loop
      vertex 40.8 109.2 7.5
      vertex 9.2 109.2 49
      vertex 40.8 109.2 49
    endloop
  endfacet
  facet normal 0 0 1
    outer loop
      vertex 9.2 109.2 49
      vertex 0 100 49
      vertex 50 100 49
    endloop
  endfacet
  facet normal 0 0 1
    outer loop
      vertex 40.8 109.2 49
      vertex 9.2 109.2 49
      vertex 50 100 49
    endloop
  endfacet
  facet normal -1 0 0
    outer loop
      vertex 0.325 0.325 7.5
      vertex 0.325 0.325 9.5
      vertex 0.325 24.675 7.5
    endloop
  endfacet
  facet normal -1 0 0
    outer loop
      vertex 0.325 24.675 7.5
      vertex 0.325 0.325 9.5
      vertex 0.325 24.675 9.5
    endloop
  endfacet
  facet normal 0 -1 0
    outer loop
      vertex 0.325 0.325 9.5
      vertex 0.325 0.325 7.5
      vertex 24.675 0.325 7.5
    endloop
  endfacet
  facet normal 0 -1 0
    outer loop
      vertex 24.675 0.325 9.5
      vertex 0.325 0.325 9.5
      vertex 24.675 0.325 7.5
    endloop
  endfacet
  facet normal 1 0 0
    outer loop
      vertex 24.675 0.325 9.5
      vertex 24.675 0.325 7.5
      vertex 24.675 24.675 7.5
    endloop
  endfacet
  facet normal 1 0 0
    outer loop
      vertex 24.675 24.675 9.5
      vertex 24.675 0.325 9.5
      vertex 24.675 24.675 7.5
    endloop
  endfacet
  facet normal 0 1 0
    outer loop
      vertex 0.325 24.675 7.5
      vertex 0.325 24.675 9.5
      vertex 24.675 24.675 7.5
    endloop
  endfacet
  facet normal 0 1 0
    outer loop
      vertex 24.675 24.675 7.5
      vertex 0.325 24.675 9.5
      vertex 24.675 24.675 9.5
    endloop
  endfacet
  facet normal -1 0 0
    outer loop
      vertex 0.325 25.325 7.5
      vertex 0.325 25.325 9.5
      vertex 0.325 49.675 7.5
    endloop
  endfacet
  facet normal -1 0 0
    outer loop
      vertex 0.325 49.675 7.5
      vertex 0.325 25.325 9.5
      vertex 0.325 49.675 9.5
    endloop
  endfacet
  facet normal 0 -1 0
    outer loop
      vertex 0.325 25.325 9.5
      vertex 0.325 25.325 7.5
      vertex 24.675 25.325 7.5
    endloop
  endfacet
  facet normal 0 -1 0
    outer loop
      vertex 24.675 25.325 9.5
      vertex 0.325 25.325 9.5
      vertex 24.675 25.325 7.5
    endloop
  endfacet
  facet normal 1 0 0
    outer loop
      vertex 24.675 25.325 9.5
      vertex 24.675 25.325 7.5
      vertex 24.675 49.675 7.5
    endloop
  endfacet
  facet normal 1 0 0
    outer loop
      vertex 24.675 49.675 9.5
      vertex 24.675 25.325 9.5
      vertex 24.675 49.675 7.5
    endloop
  endfacet
  facet normal 0 1 0
    outer loop
      vertex 0.325 49.675 7.5
      vertex 0.325 49.675 9.5
      vertex 24.675 49.675 7.5
    endloop
  endfacet
  facet normal 0 1 0
    outer loop
      vertex 24.675 49.675 7.5
      vertex 0.325 49.675 9.5
      vertex 24.675 49.675 9.5
    endloop
  endfacet
  facet normal -1 0 0
    outer loop
      vertex 0.325 50.325 7.5
      vertex 0.325 50.325 9.5
      vertex 0.325 74.675 7.5
    endloop
  endfacet
  facet normal -1 0 0
    outer loop
      vertex 0.325 74.675 7.5
      vertex 0.325 50.325 9.5
      vertex 0.325 74.675 9.5
    endloop
  endfacet
  facet normal 0 -1 0
    outer loop
      vertex 0.325 50.325 9.5
      vertex 0.325 50.325 7.5
      vertex 24.675 50.325 7.5
    endloop
  endfacet
  facet normal 0 -1 0
    outer loop
      vertex 24.675 50.325 9.5
      vertex 0.325 50.325 9.5
      vertex 24.675 50.325 7.5
    endloop
  endfacet
  facet normal 1 0 0
    outer loop
      vertex 24.675 50.325 9.5
      vertex 24.675 50.325 7.5
      vertex 24.675 74.675 7.5
    endloop
  endfacet
  facet normal 1 0 0
    outer loop
      vertex 24.675 74.675 9.5
      vertex 24.675 50.325 9.5
      vertex 24.675 74.675 7.5
    endloop
  endfacet
  facet normal 0 1 0
    outer loop
      vertex 0.325 74.675 7.5
      vertex 0.325 74.675 9.5
      vertex 24.675 74.675 7.5
    endloop
  endfacet
  facet normal 0 1 0
    outer loop
      vertex 24.675 74.675 7.5
      vertex 0.325 74.675 9.5
      vertex 24.675 74.675 9.5
    endloop
  endfacet
  facet normal -1 0 0
    outer loop
      vertex 0.325 75.325 7.5
      vertex 0.325 75.325 9.5
      vertex 0.325 99.675 7.5
    endloop
  endfacet
  facet normal -1 0 0
    outer loop
      vertex 0.325 99.675 7.5
      vertex 0.325 75.325 9.5
      vertex 0.325 99.675 9.5
    endloop
  endfacet
  facet normal 0 -1 0
    outer loop
      vertex 0.325 75.325 9.5
      vertex 0.325 75.325 7.5
      vertex 24.675 75.325 7.5
    endloop
  endfacet
  facet normal 0 -1 0
    outer loop
      vertex 24.675 75.325 9.5
      vertex 0.325 75.325 9.5
      vertex 24.675 75.325 7.5
    endloop
  endfacet
  facet normal 1 0 0
    outer loop
      vertex 24.675 75.325 9.5
      vertex 24.675 75.325 7.5
      vertex 24.675 99.675 7.5
    endloop
  endfacet
  facet normal 1 0 0
    outer loop
      vertex 24.675 99.675 9.5
      vertex 24.675 75.325 9.5
      vertex 24.675 99.675 7.5
    endloop
  endfacet
  facet normal 0 1 0
    outer loop
      vertex 0.325 99.675 7.5
      vertex 0.325 99.675 9.5
      vertex 24.675 99.675 7.5
    endloop
  endfacet
  facet normal 0 1 0
    outer loop
      vertex 24.675 99.675 7.5
      vertex 0.325 99.675 9.5
      vertex 24.675 99.675 9.5
    endloop
  endfacet
  facet normal -1 0 0
    outer loop
      vertex 25.325 0.325 7.5
      vertex 25.325 0.325 9.5
      vertex 25.325 24.675 7.5
    endloop
  endfacet
  facet normal -1 0 0
    outer loop
      vertex 25.325 24.675 7.5
      vertex 25.325 0.325 9.5
      vertex 25.325 24.675 9.5
    endloop
  endfacet
  facet normal 0 -1 0
    outer loop
      vertex 25.325 0.325 9.5
      vertex 25.325 0.325 7.5
      vertex 49.675 0.325 7.5
    endloop
  endfacet
  facet normal 0 -1 0
    outer loop
      vertex 49.675 0.325 9.5
      vertex 25.325 0.325 9.5
      vertex 49.675 0.325 7.5
    endloop
  endfacet
  facet normal 1 0 0
    outer loop
      vertex 49.675 0.325 9.5
      vertex 49.675 0.325 7.5
      vertex 49.675 24.675 7.5
    endloop
  endfacet
  facet normal 1 0 0
    outer loop
      vertex 49.675 24.675 9.5
      vertex 49.675 0.325 9.5
      vertex 49.675 24.675 7.5
    endloop
  endfacet
  facet normal 0 1 0
    outer loop
      vertex 25.325 24.675 7.5
      vertex 25.325 24.675 9.5
      vertex 49.675 24.675 7.5
    endloop
  endfacet
  facet normal 0 1 0
    outer loop
      vertex 49.675 24.675 7.5
      vertex 25.325 24.675 9.5
      vertex 49.675 24.675 9.5
    endloop
  endfacet
  facet normal -1 0 0
    outer loop
      vertex 25.325 25.325 7.5
      vertex 25.325 25.325 9.5
      vertex 25.325 49.675 7.5
    endloop
  endfacet
  facet normal -1 0 0
    outer loop
      vertex 25.325 49.675 7.5
      vertex 25.325 25.325 9.5
      vertex 25.325 49.675 9.5
    endloop
  endfacet
  facet normal 0 -1 0
    outer loop
      vertex 25.325 25.325 9.5
      vertex 25.325 25.325 7.5
      vertex 49.675 25.325 7.5
    endloop
  endfacet
  facet normal 0 -1 0
    outer loop
      vertex 49.675 25.325 9.5
      vertex 25.325 25.325 9.5
      vertex 49.675 25.325 7.5
    endloop
  endfacet
  facet normal 1 0 0
    outer loop
      vertex 49.675 25.325 9.5
      vertex 49.675 25.325 7.5
      vertex 49.675 49.675 7.5
    endloop
  endfacet
  facet normal 1 0 0
    outer loop
      vertex 49.675 49.675 9.5
      vertex 49.675 25.325 9.5
      vertex 49.675 49.675 7.5
    endloop
  endfacet
  facet normal 0 1 0
    outer loop
      vertex 25.325 49.675 7.5
      vertex 25.325 49.675 9.5
      vertex 49.675 49.675 7.5
    endloop
  endfacet
  facet normal 0 1 0
    outer loop
      vertex 49.675 49.675 7.5
      vertex 25.325 49.675 9.5
      vertex 49.675 49.675 9.5
    endloop
  endfacet
  facet normal -1 0 0
    outer loop
      vertex 25.325 50.325 7.5
      vertex 25.325 50.325 9.5
      vertex 25.325 74.675 7.5
    endloop
  endfacet
  facet normal -1 0 0
    outer loop
      vertex 25.325 74.675 7.5
      vertex 25.325 50.325 9.5
      vertex 25.325 74.675 9.5
    endloop
  endfacet
  facet normal 0 -1 0
    outer loop
      vertex 25.325 50.325 9.5
      vertex 25.325 50.325 7.5
      vertex 49.675 50.325 7.5
    endloop
  endfacet
  facet normal 0 -1 0
    outer loop
      vertex 49.675 50.325 9.5
      vertex 25.325 50.325 9.5
      vertex 49.675 50.325 7.5
    endloop
  endfacet
  facet normal 1 0 0
    outer loop
      vertex 49.675 50.325 9.5
      vertex 49.675 50.325 7.5
      vertex 49.675 74.675 7.5
    endloop
  endfacet
  facet normal 1 0 0
    outer loop
      vertex 49.675 74.675 9.5
      vertex 49.675 50.325 9.5
      vertex 49.675 74.675 7.5
    endloop
  endfacet
  facet normal 0 1 0
    outer loop
      vertex 25.325 74.675 7.5
      vertex 25.325 74.675 9.5
      vertex 49.675 74.675 7.5
    endloop
  endfacet
  facet normal 0 1 0
    outer loop
      vertex 49.675 74.675 7.5
      vertex 25.325 74.675 9.5
      vertex 49.675 74.675 9.5
    endloop
  endfacet
  facet normal -1 0 0
    outer loop
      vertex 25.325 75.325 7.5
      vertex 25.325 75.325 9.5
      vertex 25.325 99.675 7.5
    endloop
  endfacet
  facet normal -1 0 0
    outer loop
      vertex 25.325 99.675 7.5
      vertex 25.325 75.325 9.5
      vertex 25.325 99.675 9.5
    endloop
  endfacet
  facet normal 0 -1 0
    outer loop
      vertex 25.325 75.325 9.5
      vertex 25.325 75.325 7.5
      vertex 49.675 75.325 7.5
    endloop
  endfacet
  facet normal 0 -1 0
    outer loop
      vertex 49.675 75.325 9.5
      vertex 25.325 75.325 9.5
      vertex 49.675 75.325 7.5
    endloop
  endfacet
  facet normal 1 0 0
    outer loop
      vertex 49.675 75.325 9.5
      vertex 49.675 75.325 7.5
      vertex 49.675 99.675 7.5
    endloop
  endfacet
  facet normal 1 0 0
    outer loop
      vertex 49.675 99.675 9.5
      vertex 49.675 75.325 9.5
      vertex 49.675 99.675 7.5
    endloop
  endfacet
  facet normal 0 1 0
    outer loop
      vertex 25.325 99.675 7.5
      vertex 25.325 99.675 9.5
      vertex 49.675 99.675 7.5
    endloop
  endfacet
  facet normal 0 1 0
    outer loop
      vertex 49.675 99.675 7.5
      vertex 25.325 99.675 9.5
      vertex 49.675 99.675 9.5
    endloop
  endfacet
  facet normal 0 0 -1
    outer loop
      vertex 3.8 3.8 2.2
      vertex 47.6 2.4 2.2
      vertex 2.4 2.4 2.2
    endloop
  endfacet
  facet normal 0 0 -1
    outer loop
      vertex 46.2 3.8 2.2
      vertex 47.6 2.4 2.2
      vertex 3.8 3.8 2.2
    endloop
  endfacet
  facet normal 0 0 -1
    outer loop
      vertex 2.4 97.6 2.2
      vertex 3.8 3.8 2.2
      vertex 2.4 2.4 2.2
    endloop
  endfacet
  facet normal 0 0 -1
    outer loop
      vertex 46.2 96.2 2.2
      vertex 47.6 2.4 2.2
      vertex 46.2 3.8 2.2
    endloop
  endfacet
  facet normal 0 0 -1
    outer loop
      vertex 47.6 97.6 2.2
      vertex 47.6 2.4 2.2
      vertex 46.2 96.2 2.2
    endloop
  endfacet
  facet normal 0 0 -1
    outer loop
      vertex 47.6 97.6 2.2
      vertex 46.2 96.2 2.2
      vertex 2.4 97.6 2.2
    endloop
  endfacet
  facet normal 0 0 -1
    outer loop
      vertex 46.2 96.2 2.2
      vertex 3.8 96.2 2.2
      vertex 2.4 97.6 2.2
    endloop
  endfacet
  facet normal 0 0 -1
    outer loop
      vertex 3.8 3.8 2.2
      vertex 2.4 97.6 2.2
      vertex 3.8 96.2 2.2
    endloop
  endfacet
  facet normal 0 0 1
    outer loop
      vertex 0.325 24.675 9.5
      vertex 0.325 0.325 9.5
      vertex 24.675 0.325 9.5
    endloop
  endfacet
  facet normal 0 0 1
    outer loop
      vertex 24.675 24.675 9.5
      vertex 0.325 24.675 9.5
      vertex 24.675 0.325 9.5
    endloop
  endfacet
  facet normal 0 0 1
    outer loop
      vertex 0.325 49.675 9.5
      vertex 0.325 25.325 9.5
      vertex 24.675 25.325 9.5
    endloop
  endfacet
  facet normal 0 0 1
    outer loop
      vertex 24.675 49.675 9.5
      vertex 0.325 49.675 9.5
      vertex 24.675 25.325 9.5
    endloop
  endfacet
  facet normal 0 0 1
    outer loop
      vertex 0.325 74.675 9.5
      vertex 0.325 50.325 9.5
      vertex 24.675 50.325 9.5
    endloop
  endfacet
  facet normal 0 0 1
    outer loop
      vertex 24.675 74.675 9.5
      vertex 0.325 74.675 9.5
      vertex 24.675 50.325 9.5
    endloop
  endfacet
  facet normal 0 0 1
    outer loop
      vertex 0.325 99.675 9.5
      vertex 0.325 75.325 9.5
      vertex 24.675 75.325 9.5
    endloop
  endfacet
  facet normal 0 0 1
    outer loop
      vertex 24.675 99.675 9.5
      vertex 0.325 99.675 9.5
      vertex 24.675 75.325 9.5
    endloop
  endfacet
  facet normal 0 0 1
    outer loop
      vertex 25.325 24.675 9.5
      vertex 25.325 0.325 9.5
      vertex 49.675 0.325 9.5
    endloop
  endfacet
  facet normal 0 0 1
    outer loop
      vertex 49.675 24.675 9.5
      vertex 25.325 24.675 9.5
      vertex 49.675 0.325 9.5
    endloop
  endfacet
  facet normal 0 0 1
    outer loop
      vertex 25.325 49.675 9.5
      vertex 25.325 25.325 9.5
      vertex 49.675 25.325 9.5
    endloop
  endfacet
  facet normal 0 0 1
    outer loop
      vertex 49.675 49.675 9.5
      vertex 25.325 49.675 9.5
      vertex 49.675 25.325 9.5
    endloop
  endfacet
  facet normal 0 0 1
    outer loop
      vertex 25.325 74.675 9.5
      vertex 25.325 50.325 9.5
      vertex 49.675 50.325 9.5
    endloop
  endfacet
  facet normal 0 0 1
    outer loop
      vertex 49.675 74.675 9.5
      vertex 25.325 74.675 9.5
      vertex 49.675 50.325 9.5
    endloop
  endfacet
  facet normal 0 0 1
    outer loop
      vertex 25.325 99.675 9.5
      vertex 25.325 75.325 9.5
      vertex 49.675 75.325 9.5
    endloop
  endfacet
  facet normal 0 0 1
    outer loop
      vertex 49.675 99.675 9.5
      vertex 25.325 99.675 9.5
      vertex 49.675 75.325 9.5
    endloop
  endfacet
  facet normal -1 0 0
    outer loop
      vertex 3.8 3.8 0
      vertex 3.8 3.8 2.2
      vertex 3.8 96.2 0
    endloop
  endfacet
  facet normal -1 0 0
    outer loop
      vertex 3.8 96.2 0
      vertex 3.8 3.8 2.2
      vertex 3.8 96.2 2.2
    endloop
  endfacet
  facet normal 0 -1 0
    outer loop
      vertex 3.8 3.8 2.2
      vertex 3.8 3.8 0
      vertex 46.2 3.8 0
    endloop
  endfacet
  facet normal 0 -1 0
    outer loop
      vertex 46.2 3.8 2.2
      vertex 3.8 3.8 2.2
      vertex 46.2 3.8 0
    endloop
  endfacet
  facet normal 0 1 0
    outer loop
      vertex 3.8 96.2 0
      vertex 3.8 96.2 2.2
      vertex 46.2 96.2 0
    endloop
  endfacet
  facet normal 0 1 0
    outer loop
      vertex 46.2 96.2 0
      vertex 3.8 96.2 2.2
      vertex 46.2 96.2 2.2
    endloop
  endfacet
  facet normal 1 0 0
    outer loop
      vertex 46.2 3.8 2.2
      vertex 46.2 3.8 0
      vertex 46.2 96.2 0
    endloop
  endfacet
  facet normal 1 0 0
    outer loop
      vertex 46.2 96.2 2.2
      vertex 46.2 3.8 2.2
      vertex 46.2 96.2 0
    endloop
  endfacet
  facet normal 0 0 -1
    outer loop
      vertex 27.3535 25.9318 0
      vertex 3.8 96.2 0
      vertex 46.2 3.8 0
    endloop
  endfacet
  facet normal 0 0 -1
    outer loop
      vertex 25.1589 77.5263 0
      vertex 3.8 96.2 0
      vertex 46.2 96.2 0
    endloop
  endfacet
  facet normal 0 0 -1
    outer loop
      vertex 3.8 3.8 0
      vertex 3.8 96.2 0
      vertex 22.4688 25 0
    endloop
  endfacet
  facet normal 0 0 -1
    outer loop
      vertex 3.8 3.8 0
      vertex 22.4688 25 0
      vertex 22.4887 24.6827 0
    endloop
  endfacet
  facet normal 0 0 -1
    outer loop
      vertex 3.8 3.8 0
      vertex 22.4887 24.6827 0
      vertex 22.5483 24.3705 0
    endloop
  endfacet
  facet normal 0 0 -1
    outer loop
      vertex 3.8 3.8 0
      vertex 22.5483 24.3705 0
      vertex 22.6465 24.0682 0
    endloop
  endfacet
  facet normal 0 0 -1
    outer loop
      vertex 3.8 3.8 0
      vertex 22.6465 24.0682 0
      vertex 22.7818 23.7806 0
    endloop
  endfacet
  facet normal 0 0 -1
    outer loop
      vertex 3.8 3.8 0
      vertex 22.7818 23.7806 0
      vertex 22.9522 23.5122 0
    endloop
  endfacet
  facet normal 0 0 -1
    outer loop
      vertex 3.8 3.8 0
      vertex 22.9522 23.5122 0
      vertex 23.1548 23.2672 0
    endloop
  endfacet
  facet normal 0 0 -1
    outer loop
      vertex 3.8 3.8 0
      vertex 23.1548 23.2672 0
      vertex 23.3865 23.0496 0
    endloop
  endfacet
  facet normal 0 0 -1
    outer loop
      vertex 3.8 3.8 0
      vertex 23.3865 23.0496 0
      vertex 46.2 3.8 0
    endloop
  endfacet
  facet normal 0 0 -1
    outer loop
      vertex 23.9222 22.7097 0
      vertex 46.2 3.8 0
      vertex 23.6437 22.8628 0
    endloop
  endfacet
  facet normal 0 0 -1
    outer loop
      vertex 24.2178 22.5926 0
      vertex 46.2 3.8 0
      vertex 23.9222 22.7097 0
    endloop
  endfacet
  facet normal 0 0 -1
    outer loop
      vertex 24.5257 22.5136 0
      vertex 46.2 3.8 0
      vertex 24.2178 22.5926 0
    endloop
  endfacet
  facet normal 0 0 -1
    outer loop
      vertex 24.8411 22.4737 0
      vertex 46.2 3.8 0
      vertex 24.5257 22.5136 0
    endloop
  endfacet
  facet normal 0 0 -1
    outer loop
      vertex 25.1589 22.4737 0
      vertex 46.2 3.8 0
      vertex 24.8411 22.4737 0
    endloop
  endfacet
  facet normal 0 0 -1
    outer loop
      vertex 25.4743 22.5136 0
      vertex 46.2 3.8 0
      vertex 25.1589 22.4737 0
    endloop
  endfacet
  facet normal 0 0 -1
    outer loop
      vertex 22.7818 73.7806 0
      vertex 46.2 3.8 0
      vertex 22.6465 74.0682 0
    endloop
  endfacet
  facet normal 0 0 -1
    outer loop
      vertex 27.2182 26.2194 0
      vertex 3.8 96.2 0
      vertex 27.3535 25.9318 0
    endloop
  endfacet
  facet normal 0 0 -1
    outer loop
      vertex 23.9222 27.2903 0
      vertex 3.8 96.2 0
      vertex 24.2178 27.4074 0
    endloop
  endfacet
  facet normal 0 0 -1
    outer loop
      vertex 25.4743 22.5136 0
      vertex 25.7822 22.5926 0
      vertex 46.2 3.8 0
    endloop
  endfacet
  facet normal 0 0 -1
    outer loop
      vertex 24.2178 27.4074 0
      vertex 3.8 96.2 0
      vertex 24.5257 27.4864 0
    endloop
  endfacet
  facet normal 0 0 -1
    outer loop
      vertex 25.7822 22.5926 0
      vertex 26.0778 22.7097 0
      vertex 46.2 3.8 0
    endloop
  endfacet
  facet normal 0 0 -1
    outer loop
      vertex 24.5257 27.4864 0
      vertex 3.8 96.2 0
      vertex 24.8411 27.5263 0
    endloop
  endfacet
  facet normal 0 0 -1
    outer loop
      vertex 26.0778 22.7097 0
      vertex 26.3563 22.8628 0
      vertex 46.2 3.8 0
    endloop
  endfacet
  facet normal 0 0 -1
    outer loop
      vertex 24.8411 27.5263 0
      vertex 3.8 96.2 0
      vertex 25.1589 27.5263 0
    endloop
  endfacet
  facet normal 0 0 -1
    outer loop
      vertex 26.3563 22.8628 0
      vertex 26.6135 23.0496 0
      vertex 46.2 3.8 0
    endloop
  endfacet
  facet normal 0 0 -1
    outer loop
      vertex 25.1589 27.5263 0
      vertex 3.8 96.2 0
      vertex 25.4743 27.4864 0
    endloop
  endfacet
  facet normal 0 0 -1
    outer loop
      vertex 26.6135 23.0496 0
      vertex 26.8452 23.2672 0
      vertex 46.2 3.8 0
    endloop
  endfacet
  facet normal 0 0 -1
    outer loop
      vertex 25.4743 27.4864 0
      vertex 3.8 96.2 0
      vertex 25.7822 27.4074 0
    endloop
  endfacet
  facet normal 0 0 -1
    outer loop
      vertex 26.8452 23.2672 0
      vertex 27.0478 23.5122 0
      vertex 46.2 3.8 0
    endloop
  endfacet
  facet normal 0 0 -1
    outer loop
      vertex 25.7822 27.4074 0
      vertex 3.8 96.2 0
      vertex 26.0778 27.2903 0
    endloop
  endfacet
  facet normal 0 0 -1
    outer loop
      vertex 27.0478 23.5122 0
      vertex 27.2182 23.7806 0
      vertex 46.2 3.8 0
    endloop
  endfacet
  facet normal 0 0 -1
    outer loop
      vertex 27.2182 23.7806 0
      vertex 27.3535 24.0682 0
      vertex 46.2 3.8 0
    endloop
  endfacet
  facet normal 0 0 -1
    outer loop
      vertex 26.0778 27.2903 0
      vertex 3.8 96.2 0
      vertex 26.3563 27.1372 0
    endloop
  endfacet
  facet normal 0 0 -1
    outer loop
      vertex 27.3535 24.0682 0
      vertex 27.4517 24.3705 0
      vertex 46.2 3.8 0
    endloop
  endfacet
  facet normal 0 0 -1
    outer loop
      vertex 26.3563 27.1372 0
      vertex 3.8 96.2 0
      vertex 26.6135 26.9504 0
    endloop
  endfacet
  facet normal 0 0 -1
    outer loop
      vertex 27.4517 24.3705 0
      vertex 27.5113 24.6827 0
      vertex 46.2 3.8 0
    endloop
  endfacet
  facet normal 0 0 -1
    outer loop
      vertex 26.6135 26.9504 0
      vertex 3.8 96.2 0
      vertex 26.8452 26.7328 0
    endloop
  endfacet
  facet normal 0 0 -1
    outer loop
      vertex 27.5113 24.6827 0
      vertex 27.5312 25 0
      vertex 46.2 3.8 0
    endloop
  endfacet
  facet normal 0 0 -1
    outer loop
      vertex 26.8452 26.7328 0
      vertex 3.8 96.2 0
      vertex 27.0478 26.4878 0
    endloop
  endfacet
  facet normal 0 0 -1
    outer loop
      vertex 27.5312 25 0
      vertex 27.5113 25.3172 0
      vertex 46.2 3.8 0
    endloop
  endfacet
  facet normal 0 0 -1
    outer loop
      vertex 27.0478 26.4878 0
      vertex 3.8 96.2 0
      vertex 27.2182 26.2194 0
    endloop
  endfacet
  facet normal 0 0 -1
    outer loop
      vertex 27.5113 25.3172 0
      vertex 27.4517 25.6295 0
      vertex 46.2 3.8 0
    endloop
  endfacet
  facet normal 0 0 -1
    outer loop
      vertex 27.4517 25.6295 0
      vertex 27.3535 25.9318 0
      vertex 46.2 3.8 0
    endloop
  endfacet
  facet normal 0 0 -1
    outer loop
      vertex 23.6437 27.1372 0
      vertex 3.8 96.2 0
      vertex 23.9222 27.2903 0
    endloop
  endfacet
  facet normal 0 0 -1
    outer loop
      vertex 23.3865 26.9504 0
      vertex 3.8 96.2 0
      vertex 23.6437 27.1372 0
    endloop
  endfacet
  facet normal 0 0 -1
    outer loop
      vertex 23.1548 26.7328 0
      vertex 3.8 96.2 0
      vertex 23.3865 26.9504 0
    endloop
  endfacet
  facet normal 0 0 -1
    outer loop
      vertex 22.9522 26.4878 0
      vertex 3.8 96.2 0
      vertex 23.1548 26.7328 0
    endloop
  endfacet
  facet normal 0 0 -1
    outer loop
      vertex 22.7818 26.2194 0
      vertex 3.8 96.2 0
      vertex 22.9522 26.4878 0
    endloop
  endfacet
  facet normal 0 0 -1
    outer loop
      vertex 22.6465 25.9318 0
      vertex 3.8 96.2 0
      vertex 22.7818 26.2194 0
    endloop
  endfacet
  facet normal 0 0 -1
    outer loop
      vertex 22.5483 25.6295 0
      vertex 3.8 96.2 0
      vertex 22.6465 25.9318 0
    endloop
  endfacet
  facet normal 0 0 -1
    outer loop
      vertex 22.4887 25.3172 0
      vertex 3.8 96.2 0
      vertex 22.5483 25.6295 0
    endloop
  endfacet
  facet normal 0 0 -1
    outer loop
      vertex 22.4688 25 0
      vertex 3.8 96.2 0
      vertex 22.4887 25.3172 0
    endloop
  endfacet
  facet normal 0 0 -1
    outer loop
      vertex 22.4887 74.6827 0
      vertex 3.8 96.2 0
      vertex 22.4688 75 0
    endloop
  endfacet
  facet normal 0 0 -1
    outer loop
      vertex 22.5483 74.3705 0
      vertex 3.8 96.2 0
      vertex 22.4887 74.6827 0
    endloop
  endfacet
  facet normal 0 0 -1
    outer loop
      vertex 22.6465 74.0682 0
      vertex 3.8 96.2 0
      vertex 22.5483 74.3705 0
    endloop
  endfacet
  facet normal 0 0 -1
    outer loop
      vertex 46.2 3.8 0
      vertex 3.8 96.2 0
      vertex 22.6465 74.0682 0
    endloop
  endfacet
  facet normal 0 0 -1
    outer loop
      vertex 22.9522 73.5122 0
      vertex 46.2 3.8 0
      vertex 22.7818 73.7806 0
    endloop
  endfacet
  facet normal 0 0 -1
    outer loop
      vertex 23.1548 73.2672 0
      vertex 46.2 3.8 0
      vertex 22.9522 73.5122 0
    endloop
  endfacet
  facet normal 0 0 -1
    outer loop
      vertex 27.2182 73.7806 0
      vertex 46.2 96.2 0
      vertex 27.0478 73.5122 0
    endloop
  endfacet
  facet normal 0 0 -1
    outer loop
      vertex 46.2 3.8 0
      vertex 23.1548 73.2672 0
      vertex 23.3865 73.0496 0
    endloop
  endfacet
  facet normal 0 0 -1
    outer loop
      vertex 46.2 3.8 0
      vertex 23.3865 73.0496 0
      vertex 23.6437 72.8628 0
    endloop
  endfacet
  facet normal 0 0 -1
    outer loop
      vertex 46.2 3.8 0
      vertex 23.6437 72.8628 0
      vertex 23.9222 72.7097 0
    endloop
  endfacet
  facet normal 0 0 -1
    outer loop
      vertex 46.2 3.8 0
      vertex 23.9222 72.7097 0
      vertex 24.2178 72.5926 0
    endloop
  endfacet
  facet normal 0 0 -1
    outer loop
      vertex 46.2 3.8 0
      vertex 24.2178 72.5926 0
      vertex 24.5257 72.5136 0
    endloop
  endfacet
  facet normal 0 0 -1
    outer loop
      vertex 46.2 3.8 0
      vertex 24.5257 72.5136 0
      vertex 24.8411 72.4737 0
    endloop
  endfacet
  facet normal 0 0 -1
    outer loop
      vertex 46.2 3.8 0
      vertex 24.8411 72.4737 0
      vertex 25.1589 72.4737 0
    endloop
  endfacet
  facet normal 0 0 -1
    outer loop
      vertex 46.2 3.8 0
      vertex 25.1589 72.4737 0
      vertex 25.4743 72.5136 0
    endloop
  endfacet
  facet normal 0 0 -1
    outer loop
      vertex 46.2 3.8 0
      vertex 25.4743 72.5136 0
      vertex 25.7822 72.5926 0
    endloop
  endfacet
  facet normal 0 0 -1
    outer loop
      vertex 46.2 3.8 0
      vertex 25.7822 72.5926 0
      vertex 26.0778 72.7097 0
    endloop
  endfacet
  facet normal 0 0 -1
    outer loop
      vertex 46.2 3.8 0
      vertex 26.0778 72.7097 0
      vertex 26.3563 72.8628 0
    endloop
  endfacet
  facet normal 0 0 -1
    outer loop
      vertex 46.2 3.8 0
      vertex 26.3563 72.8628 0
      vertex 26.6135 73.0496 0
    endloop
  endfacet
  facet normal 0 0 -1
    outer loop
      vertex 46.2 3.8 0
      vertex 26.6135 73.0496 0
      vertex 26.8452 73.2672 0
    endloop
  endfacet
  facet normal 0 0 -1
    outer loop
      vertex 46.2 3.8 0
      vertex 26.8452 73.2672 0
      vertex 46.2 96.2 0
    endloop
  endfacet
  facet normal 0 0 -1
    outer loop
      vertex 26.8452 73.2672 0
      vertex 27.0478 73.5122 0
      vertex 46.2 96.2 0
    endloop
  endfacet
  facet normal 0 0 -1
    outer loop
      vertex 27.3535 74.0682 0
      vertex 46.2 96.2 0
      vertex 27.2182 73.7806 0
    endloop
  endfacet
  facet normal 0 0 -1
    outer loop
      vertex 27.4517 74.3705 0
      vertex 46.2 96.2 0
      vertex 27.3535 74.0682 0
    endloop
  endfacet
  facet normal 0 0 -1
    outer loop
      vertex 27.5113 74.6827 0
      vertex 46.2 96.2 0
      vertex 27.4517 74.3705 0
    endloop
  endfacet
  facet normal 0 0 -1
    outer loop
      vertex 27.5312 75 0
      vertex 46.2 96.2 0
      vertex 27.5113 74.6827 0
    endloop
  endfacet
  facet normal 0 0 -1
    outer loop
      vertex 27.5113 75.3172 0
      vertex 46.2 96.2 0
      vertex 27.5312 75 0
    endloop
  endfacet
  facet normal 0 0 -1
    outer loop
      vertex 27.4517 75.6295 0
      vertex 46.2 96.2 0
      vertex 27.5113 75.3172 0
    endloop
  endfacet
  facet normal 0 0 -1
    outer loop
      vertex 27.3535 75.9318 0
      vertex 46.2 96.2 0
      vertex 27.4517 75.6295 0
    endloop
  endfacet
  facet normal 0 0 -1
    outer loop
      vertex 27.2182 76.2194 0
      vertex 46.2 96.2 0
      vertex 27.3535 75.9318 0
    endloop
  endfacet
  facet normal 0 0 -1
    outer loop
      vertex 27.0478 76.4878 0
      vertex 46.2 96.2 0
      vertex 27.2182 76.2194 0
    endloop
  endfacet
  facet normal 0 0 -1
    outer loop
      vertex 26.8452 76.7328 0
      vertex 46.2 96.2 0
      vertex 27.0478 76.4878 0
    endloop
  endfacet
  facet normal 0 0 -1
    outer loop
      vertex 26.6135 76.9504 0
      vertex 46.2 96.2 0
      vertex 26.8452 76.7328 0
    endloop
  endfacet
  facet normal 0 0 -1
    outer loop
      vertex 25.1589 77.5263 0
      vertex 46.2 96.2 0
      vertex 25.4743 77.4864 0
    endloop
  endfacet
  facet normal 0 0 -1
    outer loop
      vertex 26.6135 76.9504 0
      vertex 26.3563 77.1372 0
      vertex 46.2 96.2 0
    endloop
  endfacet
  facet normal 0 0 -1
    outer loop
      vertex 26.3563 77.1372 0
      vertex 26.0778 77.2903 0
      vertex 46.2 96.2 0
    endloop
  endfacet
  facet normal 0 0 -1
    outer loop
      vertex 26.0778 77.2903 0
      vertex 25.7822 77.4074 0
      vertex 46.2 96.2 0
    endloop
  endfacet
  facet normal 0 0 -1
    outer loop
      vertex 25.7822 77.4074 0
      vertex 25.4743 77.4864 0
      vertex 46.2 96.2 0
    endloop
  endfacet
  facet normal 0 0 -1
    outer loop
      vertex 24.8411 77.5263 0
      vertex 3.8 96.2 0
      vertex 25.1589 77.5263 0
    endloop
  endfacet
  facet normal 0 0 -1
    outer loop
      vertex 24.5257 77.4864 0
      vertex 3.8 96.2 0
      vertex 24.8411 77.5263 0
    endloop
  endfacet
  facet normal 0 0 -1
    outer loop
      vertex 24.2178 77.4074 0
      vertex 3.8 96.2 0
      vertex 24.5257 77.4864 0
    endloop
  endfacet
  facet normal 0 0 -1
    outer loop
      vertex 23.9222 77.2903 0
      vertex 3.8 96.2 0
      vertex 24.2178 77.4074 0
    endloop
  endfacet
  facet normal 0 0 -1
    outer loop
      vertex 23.6437 77.1372 0
      vertex 3.8 96.2 0
      vertex 23.9222 77.2903 0
    endloop
  endfacet
  facet normal 0 0 -1
    outer loop
      vertex 23.3865 76.9504 0
      vertex 3.8 96.2 0
      vertex 23.6437 77.1372 0
    endloop
  endfacet
  facet normal 0 0 -1
    outer loop
      vertex 23.1548 76.7328 0
      vertex 3.8 96.2 0
      vertex 23.3865 76.9504 0
    endloop
  endfacet
  facet normal 0 0 -1
    outer loop
      vertex 22.9522 76.4878 0
      vertex 3.8 96.2 0
      vertex 23.1548 76.7328 0
    endloop
  endfacet
  facet normal 0 0 -1
    outer loop
      vertex 22.7818 76.2194 0
      vertex 3.8 96.2 0
      vertex 22.9522 76.4878 0
    endloop
  endfacet
  facet normal 0 0 -1
    outer loop
      vertex 22.6465 75.9318 0
      vertex 3.8 96.2 0
      vertex 22.7818 76.2194 0
    endloop
  endfacet
  facet normal 0 0 -1
    outer loop
      vertex 22.5483 75.6295 0
      vertex 3.8 96.2 0
      vertex 22.6465 75.9318 0
    endloop
  endfacet
  facet normal 0 0 -1
    outer loop
      vertex 22.4887 75.3172 0
      vertex 3.8 96.2 0
      vertex 22.5483 75.6295 0
    endloop
  endfacet
  facet normal 0 0 -1
    outer loop
      vertex 22.4688 75 0
      vertex 3.8 96.2 0
      vertex 22.4887 75.3172 0
    endloop
  endfacet
  facet normal 0 0 -1
    outer loop
      vertex 23.6437 22.8628 0
      vertex 46.2 3.8 0
      vertex 23.3865 23.0496 0
    endloop
  endfacet
  facet normal 0.998027 -0.0627915 0
    outer loop
      vertex 22.4887 25.3172 0
      vertex 22.4887 25.3172 1.7875
      vertex 22.4688 25 1.7875
    endloop
  endfacet
  facet normal 0.998027 -0.0627915 0
    outer loop
      vertex 22.4688 25 0
      vertex 22.4887 25.3172 0
      vertex 22.4688 25 1.7875
    endloop
  endfacet
  facet normal 0.998027 0.0627915 0
    outer loop
      vertex 22.4688 25 1.7875
      vertex 22.4887 24.6827 1.7875
      vertex 22.4887 24.6827 0
    endloop
  endfacet
  facet normal 0.998027 0.0627915 0
    outer loop
      vertex 22.4688 25 0
      vertex 22.4688 25 1.7875
      vertex 22.4887 24.6827 0
    endloop
  endfacet
  facet normal 0.982287 -0.187381 0
    outer loop
      vertex 22.5483 25.6295 0
      vertex 22.5483 25.6295 1.7875
      vertex 22.4887 25.3172 1.7875
    endloop
  endfacet
  facet normal 0.982287 -0.187381 0
    outer loop
      vertex 22.4887 25.3172 0
      vertex 22.5483 25.6295 0
      vertex 22.4887 25.3172 1.7875
    endloop
  endfacet
  facet normal 0.951057 -0.309016 0
    outer loop
      vertex 22.6465 25.9318 0
      vertex 22.6465 25.9318 1.7875
      vertex 22.5483 25.6295 1.7875
    endloop
  endfacet
  facet normal 0.951057 -0.309016 0
    outer loop
      vertex 22.5483 25.6295 0
      vertex 22.6465 25.9318 0
      vertex 22.5483 25.6295 1.7875
    endloop
  endfacet
  facet normal 0.904827 -0.42578 0
    outer loop
      vertex 22.7818 26.2194 0
      vertex 22.7818 26.2194 1.7875
      vertex 22.6465 25.9318 1.7875
    endloop
  endfacet
  facet normal 0.904827 -0.42578 0
    outer loop
      vertex 22.6465 25.9318 0
      vertex 22.7818 26.2194 0
      vertex 22.6465 25.9318 1.7875
    endloop
  endfacet
  facet normal 0.844328 -0.535827 0
    outer loop
      vertex 22.9522 26.4878 0
      vertex 22.9522 26.4878 1.7875
      vertex 22.7818 26.2194 1.7875
    endloop
  endfacet
  facet normal 0.844328 -0.535827 0
    outer loop
      vertex 22.7818 26.2194 0
      vertex 22.9522 26.4878 0
      vertex 22.7818 26.2194 1.7875
    endloop
  endfacet
  facet normal 0.770515 -0.637422 0
    outer loop
      vertex 23.1548 26.7328 0
      vertex 23.1548 26.7328 1.7875
      vertex 22.9522 26.4878 1.7875
    endloop
  endfacet
  facet normal 0.770515 -0.637422 0
    outer loop
      vertex 22.9522 26.4878 0
      vertex 23.1548 26.7328 0
      vertex 22.9522 26.4878 1.7875
    endloop
  endfacet
  facet normal 0.684546 -0.728969 0
    outer loop
      vertex 23.3865 26.9504 0
      vertex 23.3865 26.9504 1.7875
      vertex 23.1548 26.7328 1.7875
    endloop
  endfacet
  facet normal 0.684546 -0.728969 0
    outer loop
      vertex 23.1548 26.7328 0
      vertex 23.3865 26.9504 0
      vertex 23.1548 26.7328 1.7875
    endloop
  endfacet
  facet normal 0.587786 -0.809017 0
    outer loop
      vertex 23.6437 27.1372 0
      vertex 23.6437 27.1372 1.7875
      vertex 23.3865 26.9504 1.7875
    endloop
  endfacet
  facet normal 0.587786 -0.809017 0
    outer loop
      vertex 23.3865 26.9504 0
      vertex 23.6437 27.1372 0
      vertex 23.3865 26.9504 1.7875
    endloop
  endfacet
  facet normal 0.481752 -0.876307 0
    outer loop
      vertex 23.9222 27.2903 0
      vertex 23.9222 27.2903 1.7875
      vertex 23.6437 27.1372 1.7875
    endloop
  endfacet
  facet normal 0.481752 -0.876307 0
    outer loop
      vertex 23.6437 27.1372 0
      vertex 23.9222 27.2903 0
      vertex 23.6437 27.1372 1.7875
    endloop
  endfacet
  facet normal 0.368126 -0.929776 0
    outer loop
      vertex 24.2178 27.4074 0
      vertex 24.2178 27.4074 1.7875
      vertex 23.9222 27.2903 1.7875
    endloop
  endfacet
  facet normal 0.368126 -0.929776 0
    outer loop
      vertex 23.9222 27.2903 0
      vertex 24.2178 27.4074 0
      vertex 23.9222 27.2903 1.7875
    endloop
  endfacet
  facet normal 0.248691 -0.968583 0
    outer loop
      vertex 24.5257 27.4864 0
      vertex 24.5257 27.4864 1.7875
      vertex 24.2178 27.4074 1.7875
    endloop
  endfacet
  facet normal 0.248691 -0.968583 0
    outer loop
      vertex 24.2178 27.4074 0
      vertex 24.5257 27.4864 0
      vertex 24.2178 27.4074 1.7875
    endloop
  endfacet
  facet normal 0.125332 -0.992115 0
    outer loop
      vertex 24.8411 27.5263 0
      vertex 24.8411 27.5263 1.7875
      vertex 24.5257 27.4864 1.7875
    endloop
  endfacet
  facet normal 0.125332 -0.992115 0
    outer loop
      vertex 24.5257 27.4864 0
      vertex 24.8411 27.5263 0
      vertex 24.5257 27.4864 1.7875
    endloop
  endfacet
  facet normal 0 -1 0
    outer loop
      vertex 25.1589 27.5263 0
      vertex 25.1589 27.5263 1.7875
      vertex 24.8411 27.5263 1.7875
    endloop
  endfacet
  facet normal 0 -1 0
    outer loop
      vertex 24.8411 27.5263 0
      vertex 25.1589 27.5263 0
      vertex 24.8411 27.5263 1.7875
    endloop
  endfacet
  facet normal -0.125332 -0.992115 0
    outer loop
      vertex 25.4743 27.4864 0
      vertex 25.4743 27.4864 1.7875
      vertex 25.1589 27.5263 1.7875
    endloop
  endfacet
  facet normal -0.125332 -0.992115 0
    outer loop
      vertex 25.1589 27.5263 0
      vertex 25.4743 27.4864 0
      vertex 25.1589 27.5263 1.7875
    endloop
  endfacet
  facet normal -0.248691 -0.968583 0
    outer loop
      vertex 25.7822 27.4074 0
      vertex 25.7822 27.4074 1.7875
      vertex 25.4743 27.4864 1.7875
    endloop
  endfacet
  facet normal -0.248691 -0.968583 0
    outer loop
      vertex 25.4743 27.4864 0
      vertex 25.7822 27.4074 0
      vertex 25.4743 27.4864 1.7875
    endloop
  endfacet
  facet normal -0.368126 -0.929776 0
    outer loop
      vertex 26.0778 27.2903 0
      vertex 26.0778 27.2903 1.7875
      vertex 25.7822 27.4074 1.7875
    endloop
  endfacet
  facet normal -0.368126 -0.929776 0
    outer loop
      vertex 25.7822 27.4074 0
      vertex 26.0778 27.2903 0
      vertex 25.7822 27.4074 1.7875
    endloop
  endfacet
  facet normal -0.481752 -0.876307 0
    outer loop
      vertex 26.3563 27.1372 0
      vertex 26.3563 27.1372 1.7875
      vertex 26.0778 27.2903 1.7875
    endloop
  endfacet
  facet normal -0.481752 -0.876307 0
    outer loop
      vertex 26.0778 27.2903 0
      vertex 26.3563 27.1372 0
      vertex 26.0778 27.2903 1.7875
    endloop
  endfacet
  facet normal -0.587786 -0.809017 0
    outer loop
      vertex 26.6135 26.9504 0
      vertex 26.6135 26.9504 1.7875
      vertex 26.3563 27.1372 1.7875
    endloop
  endfacet
  facet normal -0.587786 -0.809017 0
    outer loop
      vertex 26.3563 27.1372 0
      vertex 26.6135 26.9504 0
      vertex 26.3563 27.1372 1.7875
    endloop
  endfacet
  facet normal -0.684546 -0.728969 0
    outer loop
      vertex 26.8452 26.7328 0
      vertex 26.8452 26.7328 1.7875
      vertex 26.6135 26.9504 1.7875
    endloop
  endfacet
  facet normal -0.684546 -0.728969 0
    outer loop
      vertex 26.6135 26.9504 0
      vertex 26.8452 26.7328 0
      vertex 26.6135 26.9504 1.7875
    endloop
  endfacet
  facet normal -0.770515 -0.637422 0
    outer loop
      vertex 27.0478 26.4878 1.7875
      vertex 26.8452 26.7328 1.7875
      vertex 27.0478 26.4878 0
    endloop
  endfacet
  facet normal -0.770515 -0.637422 0
    outer loop
      vertex 27.0478 26.4878 0
      vertex 26.8452 26.7328 1.7875
      vertex 26.8452 26.7328 0
    endloop
  endfacet
  facet normal -0.844328 -0.535827 0
    outer loop
      vertex 27.2182 26.2194 1.7875
      vertex 27.0478 26.4878 1.7875
      vertex 27.2182 26.2194 0
    endloop
  endfacet
  facet normal -0.844328 -0.535827 0
    outer loop
      vertex 27.2182 26.2194 0
      vertex 27.0478 26.4878 1.7875
      vertex 27.0478 26.4878 0
    endloop
  endfacet
  facet normal -0.904827 -0.42578 0
    outer loop
      vertex 27.3535 25.9318 1.7875
      vertex 27.2182 26.2194 1.7875
      vertex 27.3535 25.9318 0
    endloop
  endfacet
  facet normal -0.904827 -0.42578 0
    outer loop
      vertex 27.3535 25.9318 0
      vertex 27.2182 26.2194 1.7875
      vertex 27.2182 26.2194 0
    endloop
  endfacet
  facet normal -0.951057 -0.309016 0
    outer loop
      vertex 27.4517 25.6295 1.7875
      vertex 27.3535 25.9318 1.7875
      vertex 27.4517 25.6295 0
    endloop
  endfacet
  facet normal -0.951057 -0.309016 0
    outer loop
      vertex 27.4517 25.6295 0
      vertex 27.3535 25.9318 1.7875
      vertex 27.3535 25.9318 0
    endloop
  endfacet
  facet normal -0.982287 -0.187381 0
    outer loop
      vertex 27.5113 25.3172 1.7875
      vertex 27.4517 25.6295 1.7875
      vertex 27.5113 25.3172 0
    endloop
  endfacet
  facet normal -0.982287 -0.187381 0
    outer loop
      vertex 27.5113 25.3172 0
      vertex 27.4517 25.6295 1.7875
      vertex 27.4517 25.6295 0
    endloop
  endfacet
  facet normal -0.998027 -0.0627915 0
    outer loop
      vertex 27.5312 25 1.7875
      vertex 27.5113 25.3172 1.7875
      vertex 27.5312 25 0
    endloop
  endfacet
  facet normal -0.998027 -0.0627915 0
    outer loop
      vertex 27.5312 25 0
      vertex 27.5113 25.3172 1.7875
      vertex 27.5113 25.3172 0
    endloop
  endfacet
  facet normal -0.998027 0.0627915 0
    outer loop
      vertex 27.5312 25 1.7875
      vertex 27.5312 25 0
      vertex 27.5113 24.6827 1.7875
    endloop
  endfacet
  facet normal -0.998027 0.0627915 0
    outer loop
      vertex 27.5113 24.6827 1.7875
      vertex 27.5312 25 0
      vertex 27.5113 24.6827 0
    endloop
  endfacet
  facet normal -0.982287 0.187381 0
    outer loop
      vertex 27.5113 24.6827 1.7875
      vertex 27.5113 24.6827 0
      vertex 27.4517 24.3705 1.7875
    endloop
  endfacet
  facet normal -0.982287 0.187381 0
    outer loop
      vertex 27.4517 24.3705 1.7875
      vertex 27.5113 24.6827 0
      vertex 27.4517 24.3705 0
    endloop
  endfacet
  facet normal -0.951057 0.309016 0
    outer loop
      vertex 27.4517 24.3705 1.7875
      vertex 27.4517 24.3705 0
      vertex 27.3535 24.0682 1.7875
    endloop
  endfacet
  facet normal -0.951057 0.309016 0
    outer loop
      vertex 27.3535 24.0682 1.7875
      vertex 27.4517 24.3705 0
      vertex 27.3535 24.0682 0
    endloop
  endfacet
  facet normal -0.904827 0.42578 0
    outer loop
      vertex 27.3535 24.0682 1.7875
      vertex 27.3535 24.0682 0
      vertex 27.2182 23.7806 1.7875
    endloop
  endfacet
  facet normal -0.904827 0.42578 0
    outer loop
      vertex 27.2182 23.7806 1.7875
      vertex 27.3535 24.0682 0
      vertex 27.2182 23.7806 0
    endloop
  endfacet
  facet normal -0.844328 0.535827 0
    outer loop
      vertex 27.2182 23.7806 1.7875
      vertex 27.2182 23.7806 0
      vertex 27.0478 23.5122 1.7875
    endloop
  endfacet
  facet normal -0.844328 0.535827 0
    outer loop
      vertex 27.0478 23.5122 1.7875
      vertex 27.2182 23.7806 0
      vertex 27.0478 23.5122 0
    endloop
  endfacet
  facet normal -0.770515 0.637422 0
    outer loop
      vertex 27.0478 23.5122 1.7875
      vertex 27.0478 23.5122 0
      vertex 26.8452 23.2672 1.7875
    endloop
  endfacet
  facet normal -0.770515 0.637422 0
    outer loop
      vertex 26.8452 23.2672 1.7875
      vertex 27.0478 23.5122 0
      vertex 26.8452 23.2672 0
    endloop
  endfacet
  facet normal -0.684546 0.728969 0
    outer loop
      vertex 26.8452 23.2672 1.7875
      vertex 26.8452 23.2672 0
      vertex 26.6135 23.0496 1.7875
    endloop
  endfacet
  facet normal -0.684546 0.728969 0
    outer loop
      vertex 26.6135 23.0496 1.7875
      vertex 26.8452 23.2672 0
      vertex 26.6135 23.0496 0
    endloop
  endfacet
  facet normal -0.587786 0.809017 0
    outer loop
      vertex 26.6135 23.0496 1.7875
      vertex 26.6135 23.0496 0
      vertex 26.3563 22.8628 1.7875
    endloop
  endfacet
  facet normal -0.587786 0.809017 0
    outer loop
      vertex 26.3563 22.8628 1.7875
      vertex 26.6135 23.0496 0
      vertex 26.3563 22.8628 0
    endloop
  endfacet
  facet normal -0.481752 0.876307 0
    outer loop
      vertex 26.3563 22.8628 1.7875
      vertex 26.3563 22.8628 0
      vertex 26.0778 22.7097 1.7875
    endloop
  endfacet
  facet normal -0.481752 0.876307 0
    outer loop
      vertex 26.0778 22.7097 1.7875
      vertex 26.3563 22.8628 0
      vertex 26.0778 22.7097 0
    endloop
  endfacet
  facet normal -0.368126 0.929776 0
    outer loop
      vertex 26.0778 22.7097 1.7875
      vertex 26.0778 22.7097 0
      vertex 25.7822 22.5926 1.7875
    endloop
  endfacet
  facet normal -0.368126 0.929776 0
    outer loop
      vertex 25.7822 22.5926 1.7875
      vertex 26.0778 22.7097 0
      vertex 25.7822 22.5926 0
    endloop
  endfacet
  facet normal -0.248691 0.968583 0
    outer loop
      vertex 25.7822 22.5926 1.7875
      vertex 25.7822 22.5926 0
      vertex 25.4743 22.5136 1.7875
    endloop
  endfacet
  facet normal -0.248691 0.968583 0
    outer loop
      vertex 25.4743 22.5136 1.7875
      vertex 25.7822 22.5926 0
      vertex 25.4743 22.5136 0
    endloop
  endfacet
  facet normal -0.125332 0.992115 0
    outer loop
      vertex 25.4743 22.5136 1.7875
      vertex 25.4743 22.5136 0
      vertex 25.1589 22.4737 1.7875
    endloop
  endfacet
  facet normal -0.125332 0.992115 0
    outer loop
      vertex 25.1589 22.4737 1.7875
      vertex 25.4743 22.5136 0
      vertex 25.1589 22.4737 0
    endloop
  endfacet
  facet normal 0 1 0
    outer loop
      vertex 25.1589 22.4737 1.7875
      vertex 25.1589 22.4737 0
      vertex 24.8411 22.4737 1.7875
    endloop
  endfacet
  facet normal 0 1 0
    outer loop
      vertex 24.8411 22.4737 1.7875
      vertex 25.1589 22.4737 0
      vertex 24.8411 22.4737 0
    endloop
  endfacet
  facet normal 0.125332 0.992115 0
    outer loop
      vertex 24.8411 22.4737 1.7875
      vertex 24.8411 22.4737 0
      vertex 24.5257 22.5136 1.7875
    endloop
  endfacet
  facet normal 0.125332 0.992115 0
    outer loop
      vertex 24.5257 22.5136 1.7875
      vertex 24.8411 22.4737 0
      vertex 24.5257 22.5136 0
    endloop
  endfacet
  facet normal 0.248691 0.968583 0
    outer loop
      vertex 24.5257 22.5136 1.7875
      vertex 24.5257 22.5136 0
      vertex 24.2178 22.5926 1.7875
    endloop
  endfacet
  facet normal 0.248691 0.968583 0
    outer loop
      vertex 24.2178 22.5926 1.7875
      vertex 24.5257 22.5136 0
      vertex 24.2178 22.5926 0
    endloop
  endfacet
  facet normal 0.368126 0.929776 0
    outer loop
      vertex 24.2178 22.5926 1.7875
      vertex 24.2178 22.5926 0
      vertex 23.9222 22.7097 1.7875
    endloop
  endfacet
  facet normal 0.368126 0.929776 0
    outer loop
      vertex 23.9222 22.7097 1.7875
      vertex 24.2178 22.5926 0
      vertex 23.9222 22.7097 0
    endloop
  endfacet
  facet normal 0.481752 0.876307 0
    outer loop
      vertex 23.9222 22.7097 1.7875
      vertex 23.9222 22.7097 0
      vertex 23.6437 22.8628 1.7875
    endloop
  endfacet
  facet normal 0.481752 0.876307 0
    outer loop
      vertex 23.6437 22.8628 1.7875
      vertex 23.9222 22.7097 0
      vertex 23.6437 22.8628 0
    endloop
  endfacet
  facet normal 0.587786 0.809017 0
    outer loop
      vertex 23.6437 22.8628 1.7875
      vertex 23.6437 22.8628 0
      vertex 23.3865 23.0496 1.7875
    endloop
  endfacet
  facet normal 0.587786 0.809017 0
    outer loop
      vertex 23.3865 23.0496 1.7875
      vertex 23.6437 22.8628 0
      vertex 23.3865 23.0496 0
    endloop
  endfacet
  facet normal 0.684546 0.728969 0
    outer loop
      vertex 23.3865 23.0496 1.7875
      vertex 23.3865 23.0496 0
      vertex 23.1548 23.2672 1.7875
    endloop
  endfacet
  facet normal 0.684546 0.728969 0
    outer loop
      vertex 23.1548 23.2672 1.7875
      vertex 23.3865 23.0496 0
      vertex 23.1548 23.2672 0
    endloop
  endfacet
  facet normal 0.770515 0.637422 0
    outer loop
      vertex 22.9522 23.5122 1.7875
      vertex 23.1548 23.2672 1.7875
      vertex 23.1548 23.2672 0
    endloop
  endfacet
  facet normal 0.770515 0.637422 0
    outer loop
      vertex 22.9522 23.5122 0
      vertex 22.9522 23.5122 1.7875
      vertex 23.1548 23.2672 0
    endloop
  endfacet
  facet normal 0.844328 0.535827 0
    outer loop
      vertex 22.7818 23.7806 1.7875
      vertex 22.9522 23.5122 1.7875
      vertex 22.9522 23.5122 0
    endloop
  endfacet
  facet normal 0.844328 0.535827 0
    outer loop
      vertex 22.7818 23.7806 0
      vertex 22.7818 23.7806 1.7875
      vertex 22.9522 23.5122 0
    endloop
  endfacet
  facet normal 0.904827 0.42578 0
    outer loop
      vertex 22.6465 24.0682 1.7875
      vertex 22.7818 23.7806 1.7875
      vertex 22.7818 23.7806 0
    endloop
  endfacet
  facet normal 0.904827 0.42578 0
    outer loop
      vertex 22.6465 24.0682 0
      vertex 22.6465 24.0682 1.7875
      vertex 22.7818 23.7806 0
    endloop
  endfacet
  facet normal 0.951057 0.309016 0
    outer loop
      vertex 22.5483 24.3705 1.7875
      vertex 22.6465 24.0682 1.7875
      vertex 22.6465 24.0682 0
    endloop
  endfacet
  facet normal 0.951057 0.309016 0
    outer loop
      vertex 22.5483 24.3705 0
      vertex 22.5483 24.3705 1.7875
      vertex 22.6465 24.0682 0
    endloop
  endfacet
  facet normal 0.982287 0.187381 0
    outer loop
      vertex 22.4887 24.6827 1.7875
      vertex 22.5483 24.3705 1.7875
      vertex 22.5483 24.3705 0
    endloop
  endfacet
  facet normal 0.982287 0.187381 0
    outer loop
      vertex 22.4887 24.6827 0
      vertex 22.4887 24.6827 1.7875
      vertex 22.5483 24.3705 0
    endloop
  endfacet
  facet normal 0.998027 -0.0627915 0
    outer loop
      vertex 22.4887 75.3172 0
      vertex 22.4887 75.3172 1.7875
      vertex 22.4688 75 1.7875
    endloop
  endfacet
  facet normal 0.998027 -0.0627915 0
    outer loop
      vertex 22.4688 75 0
      vertex 22.4887 75.3172 0
      vertex 22.4688 75 1.7875
    endloop
  endfacet
  facet normal 0.998027 0.0627915 0
    outer loop
      vertex 22.4688 75 1.7875
      vertex 22.4887 74.6827 1.7875
      vertex 22.4887 74.6827 0
    endloop
  endfacet
  facet normal 0.998027 0.0627915 0
    outer loop
      vertex 22.4688 75 0
      vertex 22.4688 75 1.7875
      vertex 22.4887 74.6827 0
    endloop
  endfacet
  facet normal 0.982287 -0.187381 0
    outer loop
      vertex 22.5483 75.6295 0
      vertex 22.5483 75.6295 1.7875
      vertex 22.4887 75.3172 1.7875
    endloop
  endfacet
  facet normal 0.982287 -0.187381 0
    outer loop
      vertex 22.4887 75.3172 0
      vertex 22.5483 75.6295 0
      vertex 22.4887 75.3172 1.7875
    endloop
  endfacet
  facet normal 0.951057 -0.309016 0
    outer loop
      vertex 22.6465 75.9318 0
      vertex 22.6465 75.9318 1.7875
      vertex 22.5483 75.6295 1.7875
    endloop
  endfacet
  facet normal 0.951057 -0.309016 0
    outer loop
      vertex 22.5483 75.6295 0
      vertex 22.6465 75.9318 0
      vertex 22.5483 75.6295 1.7875
    endloop
  endfacet
  facet normal 0.904827 -0.42578 0
    outer loop
      vertex 22.7818 76.2194 0
      vertex 22.7818 76.2194 1.7875
      vertex 22.6465 75.9318 1.7875
    endloop
  endfacet
  facet normal 0.904827 -0.42578 0
    outer loop
      vertex 22.6465 75.9318 0
      vertex 22.7818 76.2194 0
      vertex 22.6465 75.9318 1.7875
    endloop
  endfacet
  facet normal 0.844328 -0.535827 0
    outer loop
      vertex 22.9522 76.4878 0
      vertex 22.9522 76.4878 1.7875
      vertex 22.7818 76.2194 1.7875
    endloop
  endfacet
  facet normal 0.844328 -0.535827 0
    outer loop
      vertex 22.7818 76.2194 0
      vertex 22.9522 76.4878 0
      vertex 22.7818 76.2194 1.7875
    endloop
  endfacet
  facet normal 0.770515 -0.637422 0
    outer loop
      vertex 23.1548 76.7328 0
      vertex 23.1548 76.7328 1.7875
      vertex 22.9522 76.4878 1.7875
    endloop
  endfacet
  facet normal 0.770515 -0.637422 0
    outer loop
      vertex 22.9522 76.4878 0
      vertex 23.1548 76.7328 0
      vertex 22.9522 76.4878 1.7875
    endloop
  endfacet
  facet normal 0.684546 -0.728969 0
    outer loop
      vertex 23.3865 76.9504 0
      vertex 23.3865 76.9504 1.7875
      vertex 23.1548 76.7328 1.7875
    endloop
  endfacet
  facet normal 0.684546 -0.728969 0
    outer loop
      vertex 23.1548 76.7328 0
      vertex 23.3865 76.9504 0
      vertex 23.1548 76.7328 1.7875
    endloop
  endfacet
  facet normal 0.587786 -0.809017 0
    outer loop
      vertex 23.6437 77.1372 0
      vertex 23.6437 77.1372 1.7875
      vertex 23.3865 76.9504 1.7875
    endloop
  endfacet
  facet normal 0.587786 -0.809017 0
    outer loop
      vertex 23.3865 76.9504 0
      vertex 23.6437 77.1372 0
      vertex 23.3865 76.9504 1.7875
    endloop
  endfacet
  facet normal 0.481752 -0.876307 0
    outer loop
      vertex 23.9222 77.2903 0
      vertex 23.9222 77.2903 1.7875
      vertex 23.6437 77.1372 1.7875
    endloop
  endfacet
  facet normal 0.481752 -0.876307 0
    outer loop
      vertex 23.6437 77.1372 0
      vertex 23.9222 77.2903 0
      vertex 23.6437 77.1372 1.7875
    endloop
  endfacet
  facet normal 0.368126 -0.929776 0
    outer loop
      vertex 24.2178 77.4074 0
      vertex 24.2178 77.4074 1.7875
      vertex 23.9222 77.2903 1.7875
    endloop
  endfacet
  facet normal 0.368126 -0.929776 0
    outer loop
      vertex 23.9222 77.2903 0
      vertex 24.2178 77.4074 0
      vertex 23.9222 77.2903 1.7875
    endloop
  endfacet
  facet normal 0.248691 -0.968583 0
    outer loop
      vertex 24.5257 77.4864 0
      vertex 24.5257 77.4864 1.7875
      vertex 24.2178 77.4074 1.7875
    endloop
  endfacet
  facet normal 0.248691 -0.968583 0
    outer loop
      vertex 24.2178 77.4074 0
      vertex 24.5257 77.4864 0
      vertex 24.2178 77.4074 1.7875
    endloop
  endfacet
  facet normal 0.125332 -0.992115 0
    outer loop
      vertex 24.8411 77.5263 0
      vertex 24.8411 77.5263 1.7875
      vertex 24.5257 77.4864 1.7875
    endloop
  endfacet
  facet normal 0.125332 -0.992115 0
    outer loop
      vertex 24.5257 77.4864 0
      vertex 24.8411 77.5263 0
      vertex 24.5257 77.4864 1.7875
    endloop
  endfacet
  facet normal 0 -1 0
    outer loop
      vertex 25.1589 77.5263 0
      vertex 25.1589 77.5263 1.7875
      vertex 24.8411 77.5263 1.7875
    endloop
  endfacet
  facet normal 0 -1 0
    outer loop
      vertex 24.8411 77.5263 0
      vertex 25.1589 77.5263 0
      vertex 24.8411 77.5263 1.7875
    endloop
  endfacet
  facet normal -0.125332 -0.992115 0
    outer loop
      vertex 25.4743 77.4864 0
      vertex 25.4743 77.4864 1.7875
      vertex 25.1589 77.5263 1.7875
    endloop
  endfacet
  facet normal -0.125332 -0.992115 0
    outer loop
      vertex 25.1589 77.5263 0
      vertex 25.4743 77.4864 0
      vertex 25.1589 77.5263 1.7875
    endloop
  endfacet
  facet normal -0.248691 -0.968583 0
    outer loop
      vertex 25.7822 77.4074 0
      vertex 25.7822 77.4074 1.7875
      vertex 25.4743 77.4864 1.7875
    endloop
  endfacet
  facet normal -0.248691 -0.968583 0
    outer loop
      vertex 25.4743 77.4864 0
      vertex 25.7822 77.4074 0
      vertex 25.4743 77.4864 1.7875
    endloop
  endfacet
  facet normal -0.368126 -0.929776 0
    outer loop
      vertex 26.0778 77.2903 0
      vertex 26.0778 77.2903 1.7875
      vertex 25.7822 77.4074 1.7875
    endloop
  endfacet
  facet normal -0.368126 -0.929776 0
    outer loop
      vertex 25.7822 77.4074 0
      vertex 26.0778 77.2903 0
      vertex 25.7822 77.4074 1.7875
    endloop
  endfacet
  facet normal -0.481752 -0.876307 0
    outer loop
      vertex 26.3563 77.1372 0
      vertex 26.3563 77.1372 1.7875
      vertex 26.0778 77.2903 1.7875
    endloop
  endfacet
  facet normal -0.481752 -0.876307 0
    outer loop
      vertex 26.0778 77.2903 0
      vertex 26.3563 77.1372 0
      vertex 26.0778 77.2903 1.7875
    endloop
  endfacet
  facet normal -0.587786 -0.809017 0
    outer loop
      vertex 26.6135 76.9504 0
      vertex 26.6135 76.9504 1.7875
      vertex 26.3563 77.1372 1.7875
    endloop
  endfacet
  facet normal -0.587786 -0.809017 0
    outer loop
      vertex 26.3563 77.1372 0
      vertex 26.6135 76.9504 0
      vertex 26.3563 77.1372 1.7875
    endloop
  endfacet
  facet normal -0.684546 -0.728969 0
    outer loop
      vertex 26.8452 76.7328 0
      vertex 26.8452 76.7328 1.7875
      vertex 26.6135 76.9504 1.7875
    endloop
  endfacet
  facet normal -0.684546 -0.728969 0
    outer loop
      vertex 26.6135 76.9504 0
      vertex 26.8452 76.7328 0
      vertex 26.6135 76.9504 1.7875
    endloop
  endfacet
  facet normal -0.770515 -0.637422 0
    outer loop
      vertex 27.0478 76.4878 1.7875
      vertex 26.8452 76.7328 1.7875
      vertex 27.0478 76.4878 0
    endloop
  endfacet
  facet normal -0.770515 -0.637422 0
    outer loop
      vertex 27.0478 76.4878 0
      vertex 26.8452 76.7328 1.7875
      vertex 26.8452 76.7328 0
    endloop
  endfacet
  facet normal -0.844328 -0.535827 0
    outer loop
      vertex 27.2182 76.2194 1.7875
      vertex 27.0478 76.4878 1.7875
      vertex 27.2182 76.2194 0
    endloop
  endfacet
  facet normal -0.844328 -0.535827 0
    outer loop
      vertex 27.2182 76.2194 0
      vertex 27.0478 76.4878 1.7875
      vertex 27.0478 76.4878 0
    endloop
  endfacet
  facet normal -0.904827 -0.42578 0
    outer loop
      vertex 27.3535 75.9318 1.7875
      vertex 27.2182 76.2194 1.7875
      vertex 27.3535 75.9318 0
    endloop
  endfacet
  facet normal -0.904827 -0.42578 0
    outer loop
      vertex 27.3535 75.9318 0
      vertex 27.2182 76.2194 1.7875
      vertex 27.2182 76.2194 0
    endloop
  endfacet
  facet normal -0.951057 -0.309016 0
    outer loop
      vertex 27.4517 75.6295 1.7875
      vertex 27.3535 75.9318 1.7875
      vertex 27.4517 75.6295 0
    endloop
  endfacet
  facet normal -0.951057 -0.309016 0
    outer loop
      vertex 27.4517 75.6295 0
      vertex 27.3535 75.9318 1.7875
      vertex 27.3535 75.9318 0
    endloop
  endfacet
  facet normal -0.982287 -0.187381 0
    outer loop
      vertex 27.5113 75.3172 1.7875
      vertex 27.4517 75.6295 1.7875
      vertex 27.5113 75.3172 0
    endloop
  endfacet
  facet normal -0.982287 -0.187381 0
    outer loop
      vertex 27.5113 75.3172 0
      vertex 27.4517 75.6295 1.7875
      vertex 27.4517 75.6295 0
    endloop
  endfacet
  facet normal -0.998027 -0.0627915 0
    outer loop
      vertex 27.5312 75 1.7875
      vertex 27.5113 75.3172 1.7875
      vertex 27.5312 75 0
    endloop
  endfacet
  facet normal -0.998027 -0.0627915 0
    outer loop
      vertex 27.5312 75 0
      vertex 27.5113 75.3172 1.7875
      vertex 27.5113 75.3172 0
    endloop
  endfacet
  facet normal -0.998027 0.0627915 0
    outer loop
      vertex 27.5312 75 1.7875
      vertex 27.5312 75 0
      vertex 27.5113 74.6827 1.7875
    endloop
  endfacet
  facet normal -0.998027 0.0627915 0
    outer loop
      vertex 27.5113 74.6827 1.7875
      vertex 27.5312 75 0
      vertex 27.5113 74.6827 0
    endloop
  endfacet
  facet normal -0.982287 0.187381 0
    outer loop
      vertex 27.5113 74.6827 1.7875
      vertex 27.5113 74.6827 0
      vertex 27.4517 74.3705 1.7875
    endloop
  endfacet
  facet normal -0.982287 0.187381 0
    outer loop
      vertex 27.4517 74.3705 1.7875
      vertex 27.5113 74.6827 0
      vertex 27.4517 74.3705 0
    endloop
  endfacet
  facet normal -0.951057 0.309016 0
    outer loop
      vertex 27.4517 74.3705 1.7875
      vertex 27.4517 74.3705 0
      vertex 27.3535 74.0682 1.7875
    endloop
  endfacet
  facet normal -0.951057 0.309016 0
    outer loop
      vertex 27.3535 74.0682 1.7875
      vertex 27.4517 74.3705 0
      vertex 27.3535 74.0682 0
    endloop
  endfacet
  facet normal -0.904827 0.42578 0
    outer loop
      vertex 27.3535 74.0682 1.7875
      vertex 27.3535 74.0682 0
      vertex 27.2182 73.7806 1.7875
    endloop
  endfacet
  facet normal -0.904827 0.42578 0
    outer loop
      vertex 27.2182 73.7806 1.7875
      vertex 27.3535 74.0682 0
      vertex 27.2182 73.7806 0
    endloop
  endfacet
  facet normal -0.844328 0.535827 0
    outer loop
      vertex 27.2182 73.7806 1.7875
      vertex 27.2182 73.7806 0
      vertex 27.0478 73.5122 1.7875
    endloop
  endfacet
  facet normal -0.844328 0.535827 0
    outer loop
      vertex 27.0478 73.5122 1.7875
      vertex 27.2182 73.7806 0
      vertex 27.0478 73.5122 0
    endloop
  endfacet
  facet normal -0.770515 0.637422 0
    outer loop
      vertex 27.0478 73.5122 1.7875
      vertex 27.0478 73.5122 0
      vertex 26.8452 73.2672 1.7875
    endloop
  endfacet
  facet normal -0.770515 0.637422 0
    outer loop
      vertex 26.8452 73.2672 1.7875
      vertex 27.0478 73.5122 0
      vertex 26.8452 73.2672 0
    endloop
  endfacet
  facet normal -0.684546 0.728969 0
    outer loop
      vertex 26.8452 73.2672 1.7875
      vertex 26.8452 73.2672 0
      vertex 26.6135 73.0496 1.7875
    endloop
  endfacet
  facet normal -0.684546 0.728969 0
    outer loop
      vertex 26.6135 73.0496 1.7875
      vertex 26.8452 73.2672 0
      vertex 26.6135 73.0496 0
    endloop
  endfacet
  facet normal -0.587786 0.809017 0
    outer loop
      vertex 26.6135 73.0496 1.7875
      vertex 26.6135 73.0496 0
      vertex 26.3563 72.8628 1.7875
    endloop
  endfacet
  facet normal -0.587786 0.809017 0
    outer loop
      vertex 26.3563 72.8628 1.7875
      vertex 26.6135 73.0496 0
      vertex 26.3563 72.8628 0
    endloop
  endfacet
  facet normal -0.481752 0.876307 0
    outer loop
      vertex 26.3563 72.8628 1.7875
      vertex 26.3563 72.8628 0
      vertex 26.0778 72.7097 1.7875
    endloop
  endfacet
  facet normal -0.481752 0.876307 0
    outer loop
      vertex 26.0778 72.7097 1.7875
      vertex 26.3563 72.8628 0
      vertex 26.0778 72.7097 0
    endloop
  endfacet
  facet normal -0.368126 0.929776 0
    outer loop
      vertex 26.0778 72.7097 1.7875
      vertex 26.0778 72.7097 0
      vertex 25.7822 72.5926 1.7875
    endloop
  endfacet
  facet normal -0.368126 0.929776 0
    outer loop
      vertex 25.7822 72.5926 1.7875
      vertex 26.0778 72.7097 0
      vertex 25.7822 72.5926 0
    endloop
  endfacet
  facet normal -0.248691 0.968583 0
    outer loop
      vertex 25.7822 72.5926 1.7875
      vertex 25.7822 72.5926 0
      vertex 25.4743 72.5136 1.7875
    endloop
  endfacet
  facet normal -0.248691 0.968583 0
    outer loop
      vertex 25.4743 72.5136 1.7875
      vertex 25.7822 72.5926 0
      vertex 25.4743 72.5136 0
    endloop
  endfacet
  facet normal -0.125332 0.992115 0
    outer loop
      vertex 25.4743 72.5136 1.7875
      vertex 25.4743 72.5136 0
      vertex 25.1589 72.4737 1.7875
    endloop
  endfacet
  facet normal -0.125332 0.992115 0
    outer loop
      vertex 25.1589 72.4737 1.7875
      vertex 25.4743 72.5136 0
      vertex 25.1589 72.4737 0
    endloop
  endfacet
  facet normal 0 1 0
    outer loop
      vertex 25.1589 72.4737 1.7875
      vertex 25.1589 72.4737 0
      vertex 24.8411 72.4737 1.7875
    endloop
  endfacet
  facet normal 0 1 0
    outer loop
      vertex 24.8411 72.4737 1.7875
      vertex 25.1589 72.4737 0
      vertex 24.8411 72.4737 0
    endloop
  endfacet
  facet normal 0.125332 0.992115 0
    outer loop
      vertex 24.8411 72.4737 1.7875
      vertex 24.8411 72.4737 0
      vertex 24.5257 72.5136 1.7875
    endloop
  endfacet
  facet normal 0.125332 0.992115 0
    outer loop
      vertex 24.5257 72.5136 1.7875
      vertex 24.8411 72.4737 0
      vertex 24.5257 72.5136 0
    endloop
  endfacet
  facet normal 0.248691 0.968583 0
    outer loop
      vertex 24.5257 72.5136 1.7875
      vertex 24.5257 72.5136 0
      vertex 24.2178 72.5926 1.7875
    endloop
  endfacet
  facet normal 0.248691 0.968583 0
    outer loop
      vertex 24.2178 72.5926 1.7875
      vertex 24.5257 72.5136 0
      vertex 24.2178 72.5926 0
    endloop
  endfacet
  facet normal 0.368126 0.929776 0
    outer loop
      vertex 24.2178 72.5926 1.7875
      vertex 24.2178 72.5926 0
      vertex 23.9222 72.7097 1.7875
    endloop
  endfacet
  facet normal 0.368126 0.929776 0
    outer loop
      vertex 23.9222 72.7097 1.7875
      vertex 24.2178 72.5926 0
      vertex 23.9222 72.7097 0
    endloop
  endfacet
  facet normal 0.481752 0.876307 0
    outer loop
      vertex 23.9222 72.7097 1.7875
      vertex 23.9222 72.7097 0
      vertex 23.6437 72.8628 1.7875
    endloop
  endfacet
  facet normal 0.481752 0.876307 0
    outer loop
      vertex 23.6437 72.8628 1.7875
      vertex 23.9222 72.7097 0
      vertex 23.6437 72.8628 0
    endloop
  endfacet
  facet normal 0.587786 0.809017 0
    outer loop
      vertex 23.6437 72.8628 1.7875
      vertex 23.6437 72.8628 0
      vertex 23.3865 73.0496 1.7875
    endloop
  endfacet
  facet normal 0.587786 0.809017 0
    outer loop
      vertex 23.3865 73.0496 1.7875
      vertex 23.6437 72.8628 0
      vertex 23.3865 73.0496 0
    endloop
  endfacet
  facet normal 0.684546 0.728969 0
    outer loop
      vertex 23.3865 73.0496 1.7875
      vertex 23.3865 73.0496 0
      vertex 23.1548 73.2672 1.7875
    endloop
  endfacet
  facet normal 0.684546 0.728969 0
    outer loop
      vertex 23.1548 73.2672 1.7875
      vertex 23.3865 73.0496 0
      vertex 23.1548 73.2672 0
    endloop
  endfacet
  facet normal 0.770515 0.637422 0
    outer loop
      vertex 22.9522 73.5122 1.7875
      vertex 23.1548 73.2672 1.7875
      vertex 23.1548 73.2672 0
    endloop
  endfacet
  facet normal 0.770515 0.637422 0
    outer loop
      vertex 22.9522 73.5122 0
      vertex 22.9522 73.5122 1.7875
      vertex 23.1548 73.2672 0
    endloop
  endfacet
  facet normal 0.844328 0.535827 0
    outer loop
      vertex 22.7818 73.7806 1.7875
      vertex 22.9522 73.5122 1.7875
      vertex 22.9522 73.5122 0
    endloop
  endfacet
  facet normal 0.844328 0.535827 0
    outer loop
      vertex 22.7818 73.7806 0
      vertex 22.7818 73.7806 1.7875
      vertex 22.9522 73.5122 0
    endloop
  endfacet
  facet normal 0.904827 0.42578 0
    outer loop
      vertex 22.6465 74.0682 1.7875
      vertex 22.7818 73.7806 1.7875
      vertex 22.7818 73.7806 0
    endloop
  endfacet
  facet normal 0.904827 0.42578 0
    outer loop
      vertex 22.6465 74.0682 0
      vertex 22.6465 74.0682 1.7875
      vertex 22.7818 73.7806 0
    endloop
  endfacet
  facet normal 0.951057 0.309016 0
    outer loop
      vertex 22.5483 74.3705 1.7875
      vertex 22.6465 74.0682 1.7875
      vertex 22.6465 74.0682 0
    endloop
  endfacet
  facet normal 0.951057 0.309016 0
    outer loop
      vertex 22.5483 74.3705 0
      vertex 22.5483 74.3705 1.7875
      vertex 22.6465 74.0682 0
    endloop
  endfacet
  facet normal 0.982287 0.187381 0
    outer loop
      vertex 22.4887 74.6827 1.7875
      vertex 22.5483 74.3705 1.7875
      vertex 22.5483 74.3705 0
    endloop
  endfacet
  facet normal 0.982287 0.187381 0
    outer loop
      vertex 22.4887 74.6827 0
      vertex 22.4887 74.6827 1.7875
      vertex 22.5483 74.3705 0
    endloop
  endfacet
  facet normal 0 0 -1
    outer loop
      vertex 22.5483 25.6295 1.7875
      vertex 22.6465 25.9318 1.7875
      vertex 22.4887 25.3172 1.7875
    endloop
  endfacet
  facet normal 0 0 -1
    outer loop
      vertex 22.4887 25.3172 1.7875
      vertex 22.6465 25.9318 1.7875
      vertex 22.7818 26.2194 1.7875
    endloop
  endfacet
  facet normal 0 0 -1
    outer loop
      vertex 22.4887 25.3172 1.7875
      vertex 22.7818 26.2194 1.7875
      vertex 22.9522 26.4878 1.7875
    endloop
  endfacet
  facet normal 0 0 -1
    outer loop
      vertex 22.4887 25.3172 1.7875
      vertex 22.9522 26.4878 1.7875
      vertex 23.1548 26.7328 1.7875
    endloop
  endfacet
  facet normal 0 0 -1
    outer loop
      vertex 22.4887 25.3172 1.7875
      vertex 23.1548 26.7328 1.7875
      vertex 23.3865 26.9504 1.7875
    endloop
  endfacet
  facet normal 0 0 -1
    outer loop
      vertex 22.4887 25.3172 1.7875
      vertex 23.3865 26.9504 1.7875
      vertex 23.6437 27.1372 1.7875
    endloop
  endfacet
  facet normal 0 0 -1
    outer loop
      vertex 22.4887 25.3172 1.7875
      vertex 23.6437 27.1372 1.7875
      vertex 23.9222 27.2903 1.7875
    endloop
  endfacet
  facet normal 0 0 -1
    outer loop
      vertex 22.4887 25.3172 1.7875
      vertex 23.9222 27.2903 1.7875
      vertex 24.2178 27.4074 1.7875
    endloop
  endfacet
  facet normal 0 0 -1
    outer loop
      vertex 22.4887 25.3172 1.7875
      vertex 24.2178 27.4074 1.7875
      vertex 24.5257 27.4864 1.7875
    endloop
  endfacet
  facet normal 0 0 -1
    outer loop
      vertex 22.4887 25.3172 1.7875
      vertex 24.5257 27.4864 1.7875
      vertex 24.8411 27.5263 1.7875
    endloop
  endfacet
  facet normal 0 0 -1
    outer loop
      vertex 22.4887 25.3172 1.7875
      vertex 24.8411 27.5263 1.7875
      vertex 25.1589 27.5263 1.7875
    endloop
  endfacet
  facet normal 0 0 -1
    outer loop
      vertex 22.4887 25.3172 1.7875
      vertex 25.1589 27.5263 1.7875
      vertex 25.4743 27.4864 1.7875
    endloop
  endfacet
  facet normal 0 0 -1
    outer loop
      vertex 22.4887 25.3172 1.7875
      vertex 25.4743 27.4864 1.7875
      vertex 25.7822 27.4074 1.7875
    endloop
  endfacet
  facet normal 0 0 -1
    outer loop
      vertex 22.4887 25.3172 1.7875
      vertex 25.7822 27.4074 1.7875
      vertex 26.0778 27.2903 1.7875
    endloop
  endfacet
  facet normal 0 0 -1
    outer loop
      vertex 22.4887 25.3172 1.7875
      vertex 26.0778 27.2903 1.7875
      vertex 26.3563 27.1372 1.7875
    endloop
  endfacet
  facet normal 0 0 -1
    outer loop
      vertex 22.4887 25.3172 1.7875
      vertex 26.3563 27.1372 1.7875
      vertex 26.6135 26.9504 1.7875
    endloop
  endfacet
  facet normal 0 0 -1
    outer loop
      vertex 22.4887 25.3172 1.7875
      vertex 26.6135 26.9504 1.7875
      vertex 26.8452 26.7328 1.7875
    endloop
  endfacet
  facet normal 0 0 -1
    outer loop
      vertex 22.4887 25.3172 1.7875
      vertex 26.8452 26.7328 1.7875
      vertex 27.0478 26.4878 1.7875
    endloop
  endfacet
  facet normal 0 0 -1
    outer loop
      vertex 22.4887 25.3172 1.7875
      vertex 27.0478 26.4878 1.7875
      vertex 27.2182 26.2194 1.7875
    endloop
  endfacet
  facet normal 0 0 -1
    outer loop
      vertex 22.4887 25.3172 1.7875
      vertex 27.2182 26.2194 1.7875
      vertex 27.3535 25.9318 1.7875
    endloop
  endfacet
  facet normal 0 0 -1
    outer loop
      vertex 22.4887 25.3172 1.7875
      vertex 27.3535 25.9318 1.7875
      vertex 27.4517 25.6295 1.7875
    endloop
  endfacet
  facet normal 0 0 -1
    outer loop
      vertex 22.4887 25.3172 1.7875
      vertex 27.4517 25.6295 1.7875
      vertex 27.5113 25.3172 1.7875
    endloop
  endfacet
  facet normal 0 0 -1
    outer loop
      vertex 22.4887 25.3172 1.7875
      vertex 27.5113 25.3172 1.7875
      vertex 27.5312 25 1.7875
    endloop
  endfacet
  facet normal 0 0 -1
    outer loop
      vertex 22.4887 25.3172 1.7875
      vertex 27.5312 25 1.7875
      vertex 27.5113 24.6827 1.7875
    endloop
  endfacet
  facet normal 0 0 -1
    outer loop
      vertex 22.4887 25.3172 1.7875
      vertex 27.5113 24.6827 1.7875
      vertex 27.4517 24.3705 1.7875
    endloop
  endfacet
  facet normal 0 0 -1
    outer loop
      vertex 22.4887 25.3172 1.7875
      vertex 27.4517 24.3705 1.7875
      vertex 27.3535 24.0682 1.7875
    endloop
  endfacet
  facet normal 0 0 -1
    outer loop
      vertex 22.4887 25.3172 1.7875
      vertex 27.3535 24.0682 1.7875
      vertex 27.2182 23.7806 1.7875
    endloop
  endfacet
  facet normal 0 0 -1
    outer loop
      vertex 22.4887 25.3172 1.7875
      vertex 27.2182 23.7806 1.7875
      vertex 27.0478 23.5122 1.7875
    endloop
  endfacet
  facet normal 0 0 -1
    outer loop
      vertex 22.4887 25.3172 1.7875
      vertex 27.0478 23.5122 1.7875
      vertex 26.8452 23.2672 1.7875
    endloop
  endfacet
  facet normal 0 0 -1
    outer loop
      vertex 22.4887 25.3172 1.7875
      vertex 26.8452 23.2672 1.7875
      vertex 26.6135 23.0496 1.7875
    endloop
  endfacet
  facet normal 0 0 -1
    outer loop
      vertex 22.4887 25.3172 1.7875
      vertex 26.6135 23.0496 1.7875
      vertex 26.3563 22.8628 1.7875
    endloop
  endfacet
  facet normal 0 0 -1
    outer loop
      vertex 22.4887 25.3172 1.7875
      vertex 26.3563 22.8628 1.7875
      vertex 26.0778 22.7097 1.7875
    endloop
  endfacet
  facet normal 0 0 -1
    outer loop
      vertex 22.4887 25.3172 1.7875
      vertex 26.0778 22.7097 1.7875
      vertex 25.7822 22.5926 1.7875
    endloop
  endfacet
  facet normal 0 0 -1
    outer loop
      vertex 22.4887 25.3172 1.7875
      vertex 25.7822 22.5926 1.7875
      vertex 25.4743 22.5136 1.7875
    endloop
  endfacet
  facet normal 0 0 -1
    outer loop
      vertex 22.4887 25.3172 1.7875
      vertex 25.4743 22.5136 1.7875
      vertex 25.1589 22.4737 1.7875
    endloop
  endfacet
  facet normal 0 0 -1
    outer loop
      vertex 22.4887 25.3172 1.7875
      vertex 25.1589 22.4737 1.7875
      vertex 24.8411 22.4737 1.7875
    endloop
  endfacet
  facet normal 0 0 -1
    outer loop
      vertex 22.4887 25.3172 1.7875
      vertex 24.8411 22.4737 1.7875
      vertex 24.5257 22.5136 1.7875
    endloop
  endfacet
  facet normal 0 0 -1
    outer loop
      vertex 22.4887 25.3172 1.7875
      vertex 24.5257 22.5136 1.7875
      vertex 24.2178 22.5926 1.7875
    endloop
  endfacet
  facet normal 0 0 -1
    outer loop
      vertex 22.4887 25.3172 1.7875
      vertex 24.2178 22.5926 1.7875
      vertex 23.9222 22.7097 1.7875
    endloop
  endfacet
  facet normal 0 0 -1
    outer loop
      vertex 22.4887 25.3172 1.7875
      vertex 23.9222 22.7097 1.7875
      vertex 23.6437 22.8628 1.7875
    endloop
  endfacet
  facet normal 0 0 -1
    outer loop
      vertex 22.4887 25.3172 1.7875
      vertex 23.6437 22.8628 1.7875
      vertex 23.3865 23.0496 1.7875
    endloop
  endfacet
  facet normal 0 0 -1
    outer loop
      vertex 22.4887 25.3172 1.7875
      vertex 23.3865 23.0496 1.7875
      vertex 23.1548 23.2672 1.7875
    endloop
  endfacet
  facet normal 0 0 -1
    outer loop
      vertex 22.4887 25.3172 1.7875
      vertex 23.1548 23.2672 1.7875
      vertex 22.9522 23.5122 1.7875
    endloop
  endfacet
  facet normal 0 0 -1
    outer loop
      vertex 22.4887 25.3172 1.7875
      vertex 22.9522 23.5122 1.7875
      vertex 22.7818 23.7806 1.7875
    endloop
  endfacet
  facet normal 0 0 -1
    outer loop
      vertex 22.4887 25.3172 1.7875
      vertex 22.7818 23.7806 1.7875
      vertex 22.6465 24.0682 1.7875
    endloop
  endfacet
  facet normal 0 0 -1
    outer loop
      vertex 22.4887 25.3172 1.7875
      vertex 22.6465 24.0682 1.7875
      vertex 22.5483 24.3705 1.7875
    endloop
  endfacet
  facet normal 0 0 -1
    outer loop
      vertex 22.4887 25.3172 1.7875
      vertex 22.5483 24.3705 1.7875
      vertex 22.4887 24.6827 1.7875
    endloop
  endfacet
  facet normal 0 0 -1
    outer loop
      vertex 22.4887 25.3172 1.7875
      vertex 22.4887 24.6827 1.7875
      vertex 22.4688 25 1.7875
    endloop
  endfacet
  facet normal 0 0 -1
    outer loop
      vertex 22.5483 75.6295 1.7875
      vertex 22.6465 75.9318 1.7875
      vertex 22.4887 75.3172 1.7875
    endloop
  endfacet
  facet normal 0 0 -1
    outer loop
      vertex 22.4887 75.3172 1.7875
      vertex 22.6465 75.9318 1.7875
      vertex 22.7818 76.2194 1.7875
    endloop
  endfacet
  facet normal 0 0 -1
    outer loop
      vertex 22.4887 75.3172 1.7875
      vertex 22.7818 76.2194 1.7875
      vertex 22.9522 76.4878 1.7875
    endloop
  endfacet
  facet normal 0 0 -1
    outer loop
      vertex 22.4887 75.3172 1.7875
      vertex 22.9522 76.4878 1.7875
      vertex 23.1548 76.7328 1.7875
    endloop
  endfacet
  facet normal 0 0 -1
    outer loop
      vertex 22.4887 75.3172 1.7875
      vertex 23.1548 76.7328 1.7875
      vertex 23.3865 76.9504 1.7875
    endloop
  endfacet
  facet normal 0 0 -1
    outer loop
      vertex 22.4887 75.3172 1.7875
      vertex 23.3865 76.9504 1.7875
      vertex 23.6437 77.1372 1.7875
    endloop
  endfacet
  facet normal 0 0 -1
    outer loop
      vertex 22.4887 75.3172 1.7875
      vertex 23.6437 77.1372 1.7875
      vertex 23.9222 77.2903 1.7875
    endloop
  endfacet
  facet normal 0 0 -1
    outer loop
      vertex 22.4887 75.3172 1.7875
      vertex 23.9222 77.2903 1.7875
      vertex 24.2178 77.4074 1.7875
    endloop
  endfacet
  facet normal 0 0 -1
    outer loop
      vertex 22.4887 75.3172 1.7875
      vertex 24.2178 77.4074 1.7875
      vertex 24.5257 77.4864 1.7875
    endloop
  endfacet
  facet normal 0 0 -1
    outer loop
      vertex 22.4887 75.3172 1.7875
      vertex 24.5257 77.4864 1.7875
      vertex 24.8411 77.5263 1.7875
    endloop
  endfacet
  facet normal 0 0 -1
    outer loop
      vertex 22.4887 75.3172 1.7875
      vertex 24.8411 77.5263 1.7875
      vertex 25.1589 77.5263 1.7875
    endloop
  endfacet
  facet normal 0 0 -1
    outer loop
      vertex 22.4887 75.3172 1.7875
      vertex 25.1589 77.5263 1.7875
      vertex 25.4743 77.4864 1.7875
    endloop
  endfacet
  facet normal 0 0 -1
    outer loop
      vertex 22.4887 75.3172 1.7875
      vertex 25.4743 77.4864 1.7875
      vertex 25.7822 77.4074 1.7875
    endloop
  endfacet
  facet normal 0 0 -1
    outer loop
      vertex 22.4887 75.3172 1.7875
      vertex 25.7822 77.4074 1.7875
      vertex 26.0778 77.2903 1.7875
    endloop
  endfacet
  facet normal 0 0 -1
    outer loop
      vertex 22.4887 75.3172 1.7875
      vertex 26.0778 77.2903 1.7875
      vertex 26.3563 77.1372 1.7875
    endloop
  endfacet
  facet normal 0 0 -1
    outer loop
      vertex 22.4887 75.3172 1.7875
      vertex 26.3563 77.1372 1.7875
      vertex 26.6135 76.9504 1.7875
    endloop
  endfacet
  facet normal 0 0 -1
    outer loop
      vertex 22.4887 75.3172 1.7875
      vertex 26.6135 76.9504 1.7875
      vertex 26.8452 76.7328 1.7875
    endloop
  endfacet
  facet normal 0 0 -1
    outer loop
      vertex 22.4887 75.3172 1.7875
      vertex 26.8452 76.7328 1.7875
      vertex 27.0478 76.4878 1.7875
    endloop
  endfacet
  facet normal 0 0 -1
    outer loop
      vertex 22.4887 75.3172 1.7875
      vertex 27.0478 76.4878 1.7875
      vertex 27.2182 76.2194 1.7875
    endloop
  endfacet
  facet normal 0 0 -1
    outer loop
      vertex 22.4887 75.3172 1.7875
      vertex 27.2182 76.2194 1.7875
      vertex 27.3535 75.9318 1.7875
    endloop
  endfacet
  facet normal 0 0 -1
    outer loop
      vertex 22.4887 75.3172 1.7875
      vertex 27.3535 75.9318 1.7875
      vertex 27.4517 75.6295 1.7875
    endloop
  endfacet
  facet normal 0 0 -1
    outer loop
      vertex 22.4887 75.3172 1.7875
      vertex 27.4517 75.6295 1.7875
      vertex 27.5113 75.3172 1.7875
    endloop
  endfacet
  facet normal 0 0 -1
    outer loop
      vertex 22.4887 75.3172 1.7875
      vertex 27.5113 75.3172 1.7875
      vertex 27.5312 75 1.7875
    endloop
  endfacet
  facet normal 0 0 -1
    outer loop
      vertex 22.4887 75.3172 1.7875
      vertex 27.5312 75 1.7875
      vertex 27.5113 74.6827 1.7875
    endloop
  endfacet
  facet normal 0 0 -1
    outer loop
      vertex 22.4887 75.3172 1.7875
      vertex 27.5113 74.6827 1.7875
      vertex 27.4517 74.3705 1.7875
    endloop
  endfacet
  facet normal 0 0 -1
    outer loop
      vertex 22.4887 75.3172 1.7875
      vertex 27.4517 74.3705 1.7875
      vertex 27.3535 74.0682 1.7875
    endloop
  endfacet
  facet normal 0 0 -1
    outer loop
      vertex 22.4887 75.3172 1.7875
      vertex 27.3535 74.0682 1.7875
      vertex 27.2182 73.7806 1.7875
    endloop
  endfacet
  facet normal 0 0 -1
    outer loop
      vertex 22.4887 75.3172 1.7875
      vertex 27.2182 73.7806 1.7875
      vertex 27.0478 73.5122 1.7875
    endloop
  endfacet
  facet normal 0 0 -1
    outer loop
      vertex 22.4887 75.3172 1.7875
      vertex 27.0478 73.5122 1.7875
      vertex 26.8452 73.2672 1.7875
    endloop
  endfacet
  facet normal 0 0 -1
    outer loop
      vertex 22.4887 75.3172 1.7875
      vertex 26.8452 73.2672 1.7875
      vertex 26.6135 73.0496 1.7875
    endloop
  endfacet
  facet normal 0 0 -1
    outer loop
      vertex 22.4887 75.3172 1.7875
      vertex 26.6135 73.0496 1.7875
      vertex 26.3563 72.8628 1.7875
    endloop
  endfacet
  facet normal 0 0 -1
    outer loop
      vertex 22.4887 75.3172 1.7875
      vertex 26.3563 72.8628 1.7875
      vertex 26.0778 72.7097 1.7875
    endloop
  endfacet
  facet normal 0 0 -1
    outer loop
      vertex 22.4887 75.3172 1.7875
      vertex 26.0778 72.7097 1.7875
      vertex 25.7822 72.5926 1.7875
    endloop
  endfacet
  facet normal 0 0 -1
    outer loop
      vertex 22.4887 75.3172 1.7875
      vertex 25.7822 72.5926 1.7875
      vertex 25.4743 72.5136 1.7875
    endloop
  endfacet
  facet normal 0 0 -1
    outer loop
      vertex 22.4887 75.3172 1.7875
      vertex 25.4743 72.5136 1.7875
      vertex 25.1589 72.4737 1.7875
    endloop
  endfacet
  facet normal 0 0 -1
    outer loop
      vertex 22.4887 75.3172 1.7875
      vertex 25.1589 72.4737 1.7875
      vertex 24.8411 72.4737 1.7875
    endloop
  endfacet
  facet normal 0 0 -1
    outer loop
      vertex 22.4887 75.3172 1.7875
      vertex 24.8411 72.4737 1.7875
      vertex 24.5257 72.5136 1.7875
    endloop
  endfacet
  facet normal 0 0 -1
    outer loop
      vertex 22.4887 75.3172 1.7875
      vertex 24.5257 72.5136 1.7875
      vertex 24.2178 72.5926 1.7875
    endloop
  endfacet
  facet normal 0 0 -1
    outer loop
      vertex 22.4887 75.3172 1.7875
      vertex 24.2178 72.5926 1.7875
      vertex 23.9222 72.7097 1.7875
    endloop
  endfacet
  facet normal 0 0 -1
    outer loop
      vertex 22.4887 75.3172 1.7875
      vertex 23.9222 72.7097 1.7875
      vertex 23.6437 72.8628 1.7875
    endloop
  endfacet
  facet normal 0 0 -1
    outer loop
      vertex 22.4887 75.3172 1.7875
      vertex 23.6437 72.8628 1.7875
      vertex 23.3865 73.0496 1.7875
    endloop
  endfacet
  facet normal 0 0 -1
    outer loop
      vertex 22.4887 75.3172 1.7875
      vertex 23.3865 73.0496 1.7875
      vertex 23.1548 73.2672 1.7875
    endloop
  endfacet
  facet normal 0 0 -1
    outer loop
      vertex 22.4887 75.3172 1.7875
      vertex 23.1548 73.2672 1.7875
      vertex 22.9522 73.5122 1.7875
    endloop
  endfacet
  facet normal 0 0 -1
    outer loop
      vertex 22.4887 75.3172 1.7875
      vertex 22.9522 73.5122 1.7875
      vertex 22.7818 73.7806 1.7875
    endloop
  endfacet
  facet normal 0 0 -1
    outer loop
      vertex 22.4887 75.3172 1.7875
      vertex 22.7818 73.7806 1.7875
      vertex 22.6465 74.0682 1.7875
    endloop
  endfacet
  facet normal 0 0 -1
    outer loop
      vertex 22.4887 75.3172 1.7875
      vertex 22.6465 74.0682 1.7875
      vertex 22.5483 74.3705 1.7875
    endloop
  endfacet
  facet normal 0 0 -1
    outer loop
      vertex 22.4887 75.3172 1.7875
      vertex 22.5483 74.3705 1.7875
      vertex 22.4887 74.6827 1.7875
    endloop
  endfacet
  facet normal 0 0 -1
    outer loop
      vertex 22.4887 75.3172 1.7875
      vertex 22.4887 74.6827 1.7875
      vertex 22.4688 75 1.7875
    endloop
  endfacet
endsolid OpenSCAD_Model
