solid OpenSCAD_Model
  facet normal -1 0 0
    outer loop
      vertex 0 0 0
      vertex 0 0 7.5
      vertex 0 75 0
    endloop
  endfacet
  facet normal -1 0 0
    outer loop
      vertex 0 75 0
      vertex 0 0 7.5
      vertex 0 65.8 7.5
    endloop
  endfacet
  facet normal -1 0 0
    outer loop
      vertex 0 75 0
      vertex 0 65.8 7.5
      vertex 0 65.8 49
    endloop
  endfacet
  facet normal -1 0 0
    outer loop
      vertex 0 75 7.5
      vertex 0 65.8 49
      vertex 0 75 49
    endloop
  endfacet
  facet normal -1 0 0
    outer loop
      vertex 0 75 0
      vertex 0 65.8 49
      vertex 0 75 7.5
    endloop
  endfacet
  facet normal 0 -1 0
    outer loop
      vertex 0 0 7.5
      vertex 0 0 0
      vertex 25 0 0
    endloop
  endfacet
  facet normal 0 -1 0
    outer loop
      vertex 25 0 7.5
      vertex 0 0 7.5
      vertex 25 0 0
    endloop
  endfacet
  facet normal 0 0 -1
    outer loop
      vertex 2.4 72.6 0
      vertex 0 75 0
      vertex 25 75 0
    endloop
  endfacet
  facet normal 0 0 -1
    outer loop
      vertex 22.6 72.6 0
      vertex 2.4 72.6 0
      vertex 25 75 0
    endloop
  endfacet
  facet normal 0 0 -1
    outer loop
      vertex 0 0 0
      vertex 0 75 0
      vertex 2.4 2.4 0
    endloop
  endfacet
  facet normal 0 0 -1
    outer loop
      vertex 0 0 0
      vertex 2.4 2.4 0
      vertex 25 0 0
    endloop
  endfacet
  facet normal 0 0 -1
    outer loop
      vertex 22.6 72.6 0
      vertex 25 0 0
      vertex 22.6 2.4 0
    endloop
  endfacet
  facet normal 0 0 -1
    outer loop
      vertex 2.4 2.4 0
      vertex 22.6 2.4 0
      vertex 25 0 0
    endloop
  endfacet
  facet normal 0 0 -1
    outer loop
      vertex 25 0 0
      vertex 22.6 72.6 0
      vertex 25 75 0
    endloop
  endfacet
  facet normal 0 0 -1
    outer loop
      vertex 2.4 2.4 0
      vertex 0 75 0
      vertex 2.4 72.6 0
    endloop
  endfacet
  facet normal 0 1 0
    outer loop
      vertex 0 75 0
      vertex 0 75 7.5
      vertex 25 75 0
    endloop
  endfacet
  facet normal 0 1 0
    outer loop
      vertex 25 75 0
      vertex 0 75 7.5
      vertex 25 75 7.5
    endloop
  endfacet
  facet normal 0 1 0
    outer loop
      vertex 0 75 7.5
      vertex 0 75 49
      vertex 25 75 7.5
    endloop
  endfacet
  facet normal 0 1 0
    outer loop
      vertex 25 75 7.5
      vertex 0 75 49
      vertex 25 75 49
    endloop
  endfacet
  facet normal 0 0 1
    outer loop
      vertex 0 75 49
      vertex 0 65.8 49
      vertex 25 65.8 49
    endloop
  endfacet
  facet normal 0 0 1
    outer loop
      vertex 25 75 49
      vertex 0 75 49
      vertex 25 65.8 49
    endloop
  endfacet
  facet normal 0 -1 0
    outer loop
      vertex 0 65.8 49
      vertex 0 65.8 7.5
      vertex 0.325 65.8 7.5
    endloop
  endfacet
  facet normal 0 -1 0
    outer loop
      vertex 24.675 65.8 9.5
      vertex 0 65.8 49
      vertex 0.325 65.8 9.5
    endloop
  endfacet
  facet normal 0 -1 0
    outer loop
      vertex 0.325 65.8 9.5
      vertex 0 65.8 49
      vertex 0.325 65.8 7.5
    endloop
  endfacet
  facet normal 0 -1 0
    outer loop
      vertex 25 65.8 49
      vertex 0 65.8 49
      vertex 24.675 65.8 9.5
    endloop
  endfacet
  facet normal 0 -1 0
    outer loop
      vertex 25 65.8 7.5
      vertex 24.675 65.8 9.5
      vertex 24.675 65.8 7.5
    endloop
  endfacet
  facet normal 0 -1 0
    outer loop
      vertex 25 65.8 49
      vertex 24.675 65.8 9.5
      vertex 25 65.8 7.5
    endloop
  endfacet
  facet normal 0 0 1
    outer loop
      vertex 25 0 7.5
      vertex 25 65.8 7.5
      vertex 24.675 65.8 7.5
    endloop
  endfacet
  facet normal 0 0 1
    outer loop
      vertex 24.675 49.675 7.5
      vertex 25 0 7.5
      vertex 24.675 50.325 7.5
    endloop
  endfacet
  facet normal 0 0 1
    outer loop
      vertex 24.675 50.325 7.5
      vertex 25 0 7.5
      vertex 24.675 65.8 7.5
    endloop
  endfacet
  facet normal 0 0 1
    outer loop
      vertex 24.675 24.675 7.5
      vertex 24.675 0.325 7.5
      vertex 25 0 7.5
    endloop
  endfacet
  facet normal 0 0 1
    outer loop
      vertex 0 65.8 7.5
      vertex 0.325 50.325 7.5
      vertex 0.325 65.8 7.5
    endloop
  endfacet
  facet normal 0 0 1
    outer loop
      vertex 0 0 7.5
      vertex 0.325 50.325 7.5
      vertex 0 65.8 7.5
    endloop
  endfacet
  facet normal 0 0 1
    outer loop
      vertex 0.325 49.675 7.5
      vertex 24.675 49.675 7.5
      vertex 0.325 50.325 7.5
    endloop
  endfacet
  facet normal 0 0 1
    outer loop
      vertex 24.675 49.675 7.5
      vertex 24.675 25.325 7.5
      vertex 25 0 7.5
    endloop
  endfacet
  facet normal 0 0 1
    outer loop
      vertex 0 0 7.5
      vertex 25 0 7.5
      vertex 24.675 0.325 7.5
    endloop
  endfacet
  facet normal 0 0 1
    outer loop
      vertex 0 0 7.5
      vertex 0.325 0.325 7.5
      vertex 0.325 24.675 7.5
    endloop
  endfacet
  facet normal 0 0 1
    outer loop
      vertex 0 0 7.5
      vertex 24.675 0.325 7.5
      vertex 0.325 0.325 7.5
    endloop
  endfacet
  facet normal 0 0 1
    outer loop
      vertex 0 0 7.5
      vertex 0.325 49.675 7.5
      vertex 0.325 50.325 7.5
    endloop
  endfacet
  facet normal 0 0 1
    outer loop
      vertex 0.325 50.325 7.5
      vertex 24.675 49.675 7.5
      vertex 24.675 50.325 7.5
    endloop
  endfacet
  facet normal 0 0 1
    outer loop
      vertex 24.675 25.325 7.5
      vertex 24.675 24.675 7.5
      vertex 25 0 7.5
    endloop
  endfacet
  facet normal 0 0 1
    outer loop
      vertex 24.675 25.325 7.5
      vertex 0.325 25.325 7.5
      vertex 24.675 24.675 7.5
    endloop
  endfacet
  facet normal 0 0 1
    outer loop
      vertex 0 0 7.5
      vertex 0.325 25.325 7.5
      vertex 0.325 49.675 7.5
    endloop
  endfacet
  facet normal 0 0 1
    outer loop
      vertex 0 0 7.5
      vertex 0.325 24.675 7.5
      vertex 0.325 25.325 7.5
    endloop
  endfacet
  facet normal 0 0 1
    outer loop
      vertex 0.325 24.675 7.5
      vertex 24.675 24.675 7.5
      vertex 0.325 25.325 7.5
    endloop
  endfacet
  facet normal 1 0 0
    outer loop
      vertex 25 0 7.5
      vertex 25 0 0
      vertex 25 75 0
    endloop
  endfacet
  facet normal 1 0 0
    outer loop
      vertex 25 65.8 7.5
      vertex 25 0 7.5
      vertex 25 75 0
    endloop
  endfacet
  facet normal 1 0 0
    outer loop
      vertex 25 75 7.5
      vertex 25 65.8 7.5
      vertex 25 75 0
    endloop
  endfacet
  facet normal 1 0 0
    outer loop
      vertex 25 75 49
      vertex 25 65.8 7.5
      vertex 25 75 7.5
    endloop
  endfacet
  facet normal 1 0 0
    outer loop
      vertex 25 65.8 49
      vertex 25 65.8 7.5
      vertex 25 75 49
    endloop
  endfacet
  facet normal 1 0 0
    outer loop
      vertex 2.4 72.6 0
      vertex 2.4 72.6 2.2
      vertex 2.4 2.4 2.2
    endloop
  endfacet
  facet normal 1 0 0
    outer loop
      vertex 2.4 2.4 0
      vertex 2.4 72.6 0
      vertex 2.4 2.4 2.2
    endloop
  endfacet
  facet normal 0 -1 0
    outer loop
      vertex 22.6 72.6 0
      vertex 22.6 72.6 2.2
      vertex 2.4 72.6 2.2
    endloop
  endfacet
  facet normal 0 -1 0
    outer loop
      vertex 2.4 72.6 0
      vertex 22.6 72.6 0
      vertex 2.4 72.6 2.2
    endloop
  endfacet
  facet normal -1 0 0
    outer loop
      vertex 22.6 72.6 2.2
      vertex 22.6 72.6 0
      vertex 22.6 2.4 2.2
    endloop
  endfacet
  facet normal -1 0 0
    outer loop
      vertex 22.6 2.4 2.2
      vertex 22.6 72.6 0
      vertex 22.6 2.4 0
    endloop
  endfacet
  facet normal 0 1 0
    outer loop
      vertex 22.6 2.4 2.2
      vertex 22.6 2.4 0
      vertex 2.4 2.4 2.2
    endloop
  endfacet
  facet normal 0 1 0
    outer loop
      vertex 2.4 2.4 2.2
      vertex 22.6 2.4 0
      vertex 2.4 2.4 0
    endloop
  endfacet
  facet normal 1 0 0
    outer loop
      vertex 24.675 50.325 9.5
      vertex 24.675 50.325 7.5
      vertex 24.675 65.8 7.5
    endloop
  endfacet
  facet normal 1 0 0
    outer loop
      vertex 24.675 65.8 9.5
      vertex 24.675 50.325 9.5
      vertex 24.675 65.8 7.5
    endloop
  endfacet
  facet normal 0 0 1
    outer loop
      vertex 0.325 65.8 9.5
      vertex 0.325 50.325 9.5
      vertex 24.675 50.325 9.5
    endloop
  endfacet
  facet normal 0 0 1
    outer loop
      vertex 24.675 65.8 9.5
      vertex 0.325 65.8 9.5
      vertex 24.675 50.325 9.5
    endloop
  endfacet
  facet normal -1 0 0
    outer loop
      vertex 0.325 50.325 7.5
      vertex 0.325 50.325 9.5
      vertex 0.325 65.8 7.5
    endloop
  endfacet
  facet normal -1 0 0
    outer loop
      vertex 0.325 65.8 7.5
      vertex 0.325 50.325 9.5
      vertex 0.325 65.8 9.5
    endloop
  endfacet
  facet normal 0 -1 0
    outer loop
      vertex 0.325 50.325 9.5
      vertex 0.325 50.325 7.5
      vertex 24.675 50.325 7.5
    endloop
  endfacet
  facet normal 0 -1 0
    outer loop
      vertex 24.675 50.325 9.5
      vertex 0.325 50.325 9.5
      vertex 24.675 50.325 7.5
    endloop
  endfacet
  facet normal -1 0 0
    outer loop
      vertex 0.325 0.325 7.5
      vertex 0.325 0.325 9.5
      vertex 0.325 24.675 7.5
    endloop
  endfacet
  facet normal -1 0 0
    outer loop
      vertex 0.325 24.675 7.5
      vertex 0.325 0.325 9.5
      vertex 0.325 24.675 9.5
    endloop
  endfacet
  facet normal 0 1 0
    outer loop
      vertex 0.325 24.675 7.5
      vertex 0.325 24.675 9.5
      vertex 24.675 24.675 7.5
    endloop
  endfacet
  facet normal 0 1 0
    outer loop
      vertex 24.675 24.675 7.5
      vertex 0.325 24.675 9.5
      vertex 24.675 24.675 9.5
    endloop
  endfacet
  facet normal 0 -1 0
    outer loop
      vertex 0.325 0.325 9.5
      vertex 0.325 0.325 7.5
      vertex 24.675 0.325 7.5
    endloop
  endfacet
  facet normal 0 -1 0
    outer loop
      vertex 24.675 0.325 9.5
      vertex 0.325 0.325 9.5
      vertex 24.675 0.325 7.5
    endloop
  endfacet
  facet normal 1 0 0
    outer loop
      vertex 24.675 0.325 9.5
      vertex 24.675 0.325 7.5
      vertex 24.675 24.675 7.5
    endloop
  endfacet
  facet normal 1 0 0
    outer loop
      vertex 24.675 24.675 9.5
      vertex 24.675 0.325 9.5
      vertex 24.675 24.675 7.5
    endloop
  endfacet
  facet normal -1 0 0
    outer loop
      vertex 0.325 25.325 7.5
      vertex 0.325 25.325 9.5
      vertex 0.325 49.675 7.5
    endloop
  endfacet
  facet normal -1 0 0
    outer loop
      vertex 0.325 49.675 7.5
      vertex 0.325 25.325 9.5
      vertex 0.325 49.675 9.5
    endloop
  endfacet
  facet normal 0 1 0
    outer loop
      vertex 0.325 49.675 7.5
      vertex 0.325 49.675 9.5
      vertex 24.675 49.675 7.5
    endloop
  endfacet
  facet normal 0 1 0
    outer loop
      vertex 24.675 49.675 7.5
      vertex 0.325 49.675 9.5
      vertex 24.675 49.675 9.5
    endloop
  endfacet
  facet normal 0 -1 0
    outer loop
      vertex 0.325 25.325 9.5
      vertex 0.325 25.325 7.5
      vertex 24.675 25.325 7.5
    endloop
  endfacet
  facet normal 0 -1 0
    outer loop
      vertex 24.675 25.325 9.5
      vertex 0.325 25.325 9.5
      vertex 24.675 25.325 7.5
    endloop
  endfacet
  facet normal 1 0 0
    outer loop
      vertex 24.675 25.325 9.5
      vertex 24.675 25.325 7.5
      vertex 24.675 49.675 7.5
    endloop
  endfacet
  facet normal 1 0 0
    outer loop
      vertex 24.675 49.675 9.5
      vertex 24.675 25.325 9.5
      vertex 24.675 49.675 7.5
    endloop
  endfacet
  facet normal 0 0 -1
    outer loop
      vertex 3.8 3.8 2.2
      vertex 22.6 2.4 2.2
      vertex 2.4 2.4 2.2
    endloop
  endfacet
  facet normal 0 0 -1
    outer loop
      vertex 21.2 3.8 2.2
      vertex 22.6 2.4 2.2
      vertex 3.8 3.8 2.2
    endloop
  endfacet
  facet normal 0 0 -1
    outer loop
      vertex 2.4 72.6 2.2
      vertex 3.8 3.8 2.2
      vertex 2.4 2.4 2.2
    endloop
  endfacet
  facet normal 0 0 -1
    outer loop
      vertex 21.2 71.2 2.2
      vertex 22.6 2.4 2.2
      vertex 21.2 3.8 2.2
    endloop
  endfacet
  facet normal 0 0 -1
    outer loop
      vertex 22.6 72.6 2.2
      vertex 22.6 2.4 2.2
      vertex 21.2 71.2 2.2
    endloop
  endfacet
  facet normal 0 0 -1
    outer loop
      vertex 22.6 72.6 2.2
      vertex 21.2 71.2 2.2
      vertex 2.4 72.6 2.2
    endloop
  endfacet
  facet normal 0 0 -1
    outer loop
      vertex 21.2 71.2 2.2
      vertex 3.8 71.2 2.2
      vertex 2.4 72.6 2.2
    endloop
  endfacet
  facet normal 0 0 -1
    outer loop
      vertex 3.8 3.8 2.2
      vertex 2.4 72.6 2.2
      vertex 3.8 71.2 2.2
    endloop
  endfacet
  facet normal 0 0 1
    outer loop
      vertex 0.325 24.675 9.5
      vertex 0.325 0.325 9.5
      vertex 24.675 0.325 9.5
    endloop
  endfacet
  facet normal 0 0 1
    outer loop
      vertex 24.675 24.675 9.5
      vertex 0.325 24.675 9.5
      vertex 24.675 0.325 9.5
    endloop
  endfacet
  facet normal 0 0 1
    outer loop
      vertex 0.325 49.675 9.5
      vertex 0.325 25.325 9.5
      vertex 24.675 25.325 9.5
    endloop
  endfacet
  facet normal 0 0 1
    outer loop
      vertex 24.675 49.675 9.5
      vertex 0.325 49.675 9.5
      vertex 24.675 25.325 9.5
    endloop
  endfacet
  facet normal -1 0 0
    outer loop
      vertex 3.8 3.8 0
      vertex 3.8 3.8 2.2
      vertex 3.8 71.2 0
    endloop
  endfacet
  facet normal -1 0 0
    outer loop
      vertex 3.8 71.2 0
      vertex 3.8 3.8 2.2
      vertex 3.8 71.2 2.2
    endloop
  endfacet
  facet normal 0 -1 0
    outer loop
      vertex 3.8 3.8 2.2
      vertex 3.8 3.8 0
      vertex 21.2 3.8 0
    endloop
  endfacet
  facet normal 0 -1 0
    outer loop
      vertex 21.2 3.8 2.2
      vertex 3.8 3.8 2.2
      vertex 21.2 3.8 0
    endloop
  endfacet
  facet normal 0 1 0
    outer loop
      vertex 3.8 71.2 0
      vertex 3.8 71.2 2.2
      vertex 21.2 71.2 0
    endloop
  endfacet
  facet normal 0 1 0
    outer loop
      vertex 21.2 71.2 0
      vertex 3.8 71.2 2.2
      vertex 21.2 71.2 2.2
    endloop
  endfacet
  facet normal 1 0 0
    outer loop
      vertex 21.2 3.8 2.2
      vertex 21.2 3.8 0
      vertex 21.2 71.2 0
    endloop
  endfacet
  facet normal 1 0 0
    outer loop
      vertex 21.2 71.2 2.2
      vertex 21.2 3.8 2.2
      vertex 21.2 71.2 0
    endloop
  endfacet
  facet normal 0 0 -1
    outer loop
      vertex 14.9517 13.1295 0
      vertex 3.8 71.2 0
      vertex 21.2 3.8 0
    endloop
  endfacet
  facet normal 0 0 -1
    outer loop
      vertex 12.9743 64.9864 0
      vertex 3.8 71.2 0
      vertex 21.2 71.2 0
    endloop
  endfacet
  facet normal 0 0 -1
    outer loop
      vertex 3.8 3.8 0
      vertex 3.8 71.2 0
      vertex 9.96875 12.5 0
    endloop
  endfacet
  facet normal 0 0 -1
    outer loop
      vertex 3.8 3.8 0
      vertex 9.96875 12.5 0
      vertex 9.98871 12.1827 0
    endloop
  endfacet
  facet normal 0 0 -1
    outer loop
      vertex 3.8 3.8 0
      vertex 9.98871 12.1827 0
      vertex 10.0483 11.8705 0
    endloop
  endfacet
  facet normal 0 0 -1
    outer loop
      vertex 3.8 3.8 0
      vertex 10.0483 11.8705 0
      vertex 10.1465 11.5682 0
    endloop
  endfacet
  facet normal 0 0 -1
    outer loop
      vertex 3.8 3.8 0
      vertex 10.1465 11.5682 0
      vertex 10.2818 11.2806 0
    endloop
  endfacet
  facet normal 0 0 -1
    outer loop
      vertex 3.8 3.8 0
      vertex 10.2818 11.2806 0
      vertex 10.4522 11.0122 0
    endloop
  endfacet
  facet normal 0 0 -1
    outer loop
      vertex 3.8 3.8 0
      vertex 10.4522 11.0122 0
      vertex 10.6548 10.7672 0
    endloop
  endfacet
  facet normal 0 0 -1
    outer loop
      vertex 3.8 3.8 0
      vertex 10.6548 10.7672 0
      vertex 10.8865 10.5496 0
    endloop
  endfacet
  facet normal 0 0 -1
    outer loop
      vertex 3.8 3.8 0
      vertex 10.8865 10.5496 0
      vertex 11.1437 10.3628 0
    endloop
  endfacet
  facet normal 0 0 -1
    outer loop
      vertex 3.8 3.8 0
      vertex 11.1437 10.3628 0
      vertex 21.2 3.8 0
    endloop
  endfacet
  facet normal 0 0 -1
    outer loop
      vertex 11.7178 10.0926 0
      vertex 21.2 3.8 0
      vertex 11.4222 10.2097 0
    endloop
  endfacet
  facet normal 0 0 -1
    outer loop
      vertex 12.0257 10.0136 0
      vertex 21.2 3.8 0
      vertex 11.7178 10.0926 0
    endloop
  endfacet
  facet normal 0 0 -1
    outer loop
      vertex 12.3411 9.97374 0
      vertex 21.2 3.8 0
      vertex 12.0257 10.0136 0
    endloop
  endfacet
  facet normal 0 0 -1
    outer loop
      vertex 12.6589 9.97374 0
      vertex 21.2 3.8 0
      vertex 12.3411 9.97374 0
    endloop
  endfacet
  facet normal 0 0 -1
    outer loop
      vertex 12.9743 10.0136 0
      vertex 21.2 3.8 0
      vertex 12.6589 9.97374 0
    endloop
  endfacet
  facet normal 0 0 -1
    outer loop
      vertex 13.2822 10.0926 0
      vertex 21.2 3.8 0
      vertex 12.9743 10.0136 0
    endloop
  endfacet
  facet normal 0 0 -1
    outer loop
      vertex 10.1465 61.5682 0
      vertex 21.2 3.8 0
      vertex 10.0483 61.8705 0
    endloop
  endfacet
  facet normal 0 0 -1
    outer loop
      vertex 14.8535 13.4318 0
      vertex 3.8 71.2 0
      vertex 14.9517 13.1295 0
    endloop
  endfacet
  facet normal 0 0 -1
    outer loop
      vertex 12.3411 15.0263 0
      vertex 3.8 71.2 0
      vertex 12.6589 15.0263 0
    endloop
  endfacet
  facet normal 0 0 -1
    outer loop
      vertex 13.2822 10.0926 0
      vertex 13.5778 10.2097 0
      vertex 21.2 3.8 0
    endloop
  endfacet
  facet normal 0 0 -1
    outer loop
      vertex 12.6589 15.0263 0
      vertex 3.8 71.2 0
      vertex 12.9743 14.9864 0
    endloop
  endfacet
  facet normal 0 0 -1
    outer loop
      vertex 13.5778 10.2097 0
      vertex 13.8563 10.3628 0
      vertex 21.2 3.8 0
    endloop
  endfacet
  facet normal 0 0 -1
    outer loop
      vertex 12.9743 14.9864 0
      vertex 3.8 71.2 0
      vertex 13.2822 14.9074 0
    endloop
  endfacet
  facet normal 0 0 -1
    outer loop
      vertex 13.8563 10.3628 0
      vertex 14.1135 10.5496 0
      vertex 21.2 3.8 0
    endloop
  endfacet
  facet normal 0 0 -1
    outer loop
      vertex 13.2822 14.9074 0
      vertex 3.8 71.2 0
      vertex 13.5778 14.7903 0
    endloop
  endfacet
  facet normal 0 0 -1
    outer loop
      vertex 14.1135 10.5496 0
      vertex 14.3452 10.7672 0
      vertex 21.2 3.8 0
    endloop
  endfacet
  facet normal 0 0 -1
    outer loop
      vertex 13.5778 14.7903 0
      vertex 3.8 71.2 0
      vertex 13.8563 14.6372 0
    endloop
  endfacet
  facet normal 0 0 -1
    outer loop
      vertex 14.3452 10.7672 0
      vertex 14.5478 11.0122 0
      vertex 21.2 3.8 0
    endloop
  endfacet
  facet normal 0 0 -1
    outer loop
      vertex 13.8563 14.6372 0
      vertex 3.8 71.2 0
      vertex 14.1135 14.4504 0
    endloop
  endfacet
  facet normal 0 0 -1
    outer loop
      vertex 14.5478 11.0122 0
      vertex 14.7182 11.2806 0
      vertex 21.2 3.8 0
    endloop
  endfacet
  facet normal 0 0 -1
    outer loop
      vertex 14.1135 14.4504 0
      vertex 3.8 71.2 0
      vertex 14.3452 14.2328 0
    endloop
  endfacet
  facet normal 0 0 -1
    outer loop
      vertex 14.7182 11.2806 0
      vertex 14.8535 11.5682 0
      vertex 21.2 3.8 0
    endloop
  endfacet
  facet normal 0 0 -1
    outer loop
      vertex 14.3452 14.2328 0
      vertex 3.8 71.2 0
      vertex 14.5478 13.9878 0
    endloop
  endfacet
  facet normal 0 0 -1
    outer loop
      vertex 14.8535 11.5682 0
      vertex 14.9517 11.8705 0
      vertex 21.2 3.8 0
    endloop
  endfacet
  facet normal 0 0 -1
    outer loop
      vertex 14.5478 13.9878 0
      vertex 3.8 71.2 0
      vertex 14.7182 13.7194 0
    endloop
  endfacet
  facet normal 0 0 -1
    outer loop
      vertex 14.9517 11.8705 0
      vertex 15.0113 12.1827 0
      vertex 21.2 3.8 0
    endloop
  endfacet
  facet normal 0 0 -1
    outer loop
      vertex 15.0113 12.1827 0
      vertex 15.0312 12.5 0
      vertex 21.2 3.8 0
    endloop
  endfacet
  facet normal 0 0 -1
    outer loop
      vertex 14.7182 13.7194 0
      vertex 3.8 71.2 0
      vertex 14.8535 13.4318 0
    endloop
  endfacet
  facet normal 0 0 -1
    outer loop
      vertex 15.0312 12.5 0
      vertex 15.0113 12.8172 0
      vertex 21.2 3.8 0
    endloop
  endfacet
  facet normal 0 0 -1
    outer loop
      vertex 15.0113 12.8172 0
      vertex 14.9517 13.1295 0
      vertex 21.2 3.8 0
    endloop
  endfacet
  facet normal 0 0 -1
    outer loop
      vertex 12.0257 14.9864 0
      vertex 3.8 71.2 0
      vertex 12.3411 15.0263 0
    endloop
  endfacet
  facet normal 0 0 -1
    outer loop
      vertex 11.7178 14.9074 0
      vertex 3.8 71.2 0
      vertex 12.0257 14.9864 0
    endloop
  endfacet
  facet normal 0 0 -1
    outer loop
      vertex 11.4222 14.7903 0
      vertex 3.8 71.2 0
      vertex 11.7178 14.9074 0
    endloop
  endfacet
  facet normal 0 0 -1
    outer loop
      vertex 11.1437 14.6372 0
      vertex 3.8 71.2 0
      vertex 11.4222 14.7903 0
    endloop
  endfacet
  facet normal 0 0 -1
    outer loop
      vertex 10.8865 14.4504 0
      vertex 3.8 71.2 0
      vertex 11.1437 14.6372 0
    endloop
  endfacet
  facet normal 0 0 -1
    outer loop
      vertex 10.6548 14.2328 0
      vertex 3.8 71.2 0
      vertex 10.8865 14.4504 0
    endloop
  endfacet
  facet normal 0 0 -1
    outer loop
      vertex 10.4522 13.9878 0
      vertex 3.8 71.2 0
      vertex 10.6548 14.2328 0
    endloop
  endfacet
  facet normal 0 0 -1
    outer loop
      vertex 10.2818 13.7194 0
      vertex 3.8 71.2 0
      vertex 10.4522 13.9878 0
    endloop
  endfacet
  facet normal 0 0 -1
    outer loop
      vertex 10.1465 13.4318 0
      vertex 3.8 71.2 0
      vertex 10.2818 13.7194 0
    endloop
  endfacet
  facet normal 0 0 -1
    outer loop
      vertex 10.0483 13.1295 0
      vertex 3.8 71.2 0
      vertex 10.1465 13.4318 0
    endloop
  endfacet
  facet normal 0 0 -1
    outer loop
      vertex 9.98871 12.8172 0
      vertex 3.8 71.2 0
      vertex 10.0483 13.1295 0
    endloop
  endfacet
  facet normal 0 0 -1
    outer loop
      vertex 9.96875 12.5 0
      vertex 3.8 71.2 0
      vertex 9.98871 12.8172 0
    endloop
  endfacet
  facet normal 0 0 -1
    outer loop
      vertex 9.98871 62.1827 0
      vertex 3.8 71.2 0
      vertex 9.96875 62.5 0
    endloop
  endfacet
  facet normal 0 0 -1
    outer loop
      vertex 10.0483 61.8705 0
      vertex 3.8 71.2 0
      vertex 9.98871 62.1827 0
    endloop
  endfacet
  facet normal 0 0 -1
    outer loop
      vertex 21.2 3.8 0
      vertex 3.8 71.2 0
      vertex 10.0483 61.8705 0
    endloop
  endfacet
  facet normal 0 0 -1
    outer loop
      vertex 10.2818 61.2806 0
      vertex 21.2 3.8 0
      vertex 10.1465 61.5682 0
    endloop
  endfacet
  facet normal 0 0 -1
    outer loop
      vertex 14.8535 61.5682 0
      vertex 21.2 71.2 0
      vertex 14.7182 61.2806 0
    endloop
  endfacet
  facet normal 0 0 -1
    outer loop
      vertex 21.2 3.8 0
      vertex 10.2818 61.2806 0
      vertex 10.4522 61.0122 0
    endloop
  endfacet
  facet normal 0 0 -1
    outer loop
      vertex 21.2 3.8 0
      vertex 10.4522 61.0122 0
      vertex 10.6548 60.7672 0
    endloop
  endfacet
  facet normal 0 0 -1
    outer loop
      vertex 21.2 3.8 0
      vertex 10.6548 60.7672 0
      vertex 10.8865 60.5496 0
    endloop
  endfacet
  facet normal 0 0 -1
    outer loop
      vertex 21.2 3.8 0
      vertex 10.8865 60.5496 0
      vertex 11.1437 60.3628 0
    endloop
  endfacet
  facet normal 0 0 -1
    outer loop
      vertex 21.2 3.8 0
      vertex 11.1437 60.3628 0
      vertex 11.4222 60.2097 0
    endloop
  endfacet
  facet normal 0 0 -1
    outer loop
      vertex 21.2 3.8 0
      vertex 11.4222 60.2097 0
      vertex 11.7178 60.0926 0
    endloop
  endfacet
  facet normal 0 0 -1
    outer loop
      vertex 21.2 3.8 0
      vertex 11.7178 60.0926 0
      vertex 12.0257 60.0136 0
    endloop
  endfacet
  facet normal 0 0 -1
    outer loop
      vertex 21.2 3.8 0
      vertex 12.0257 60.0136 0
      vertex 12.3411 59.9737 0
    endloop
  endfacet
  facet normal 0 0 -1
    outer loop
      vertex 21.2 3.8 0
      vertex 12.3411 59.9737 0
      vertex 12.6589 59.9737 0
    endloop
  endfacet
  facet normal 0 0 -1
    outer loop
      vertex 21.2 3.8 0
      vertex 12.6589 59.9737 0
      vertex 12.9743 60.0136 0
    endloop
  endfacet
  facet normal 0 0 -1
    outer loop
      vertex 21.2 3.8 0
      vertex 12.9743 60.0136 0
      vertex 13.2822 60.0926 0
    endloop
  endfacet
  facet normal 0 0 -1
    outer loop
      vertex 21.2 3.8 0
      vertex 13.2822 60.0926 0
      vertex 13.5778 60.2097 0
    endloop
  endfacet
  facet normal 0 0 -1
    outer loop
      vertex 21.2 3.8 0
      vertex 13.5778 60.2097 0
      vertex 13.8563 60.3628 0
    endloop
  endfacet
  facet normal 0 0 -1
    outer loop
      vertex 21.2 3.8 0
      vertex 13.8563 60.3628 0
      vertex 14.1135 60.5496 0
    endloop
  endfacet
  facet normal 0 0 -1
    outer loop
      vertex 21.2 3.8 0
      vertex 14.1135 60.5496 0
      vertex 14.3452 60.7672 0
    endloop
  endfacet
  facet normal 0 0 -1
    outer loop
      vertex 21.2 3.8 0
      vertex 14.3452 60.7672 0
      vertex 14.5478 61.0122 0
    endloop
  endfacet
  facet normal 0 0 -1
    outer loop
      vertex 21.2 3.8 0
      vertex 14.5478 61.0122 0
      vertex 21.2 71.2 0
    endloop
  endfacet
  facet normal 0 0 -1
    outer loop
      vertex 14.5478 61.0122 0
      vertex 14.7182 61.2806 0
      vertex 21.2 71.2 0
    endloop
  endfacet
  facet normal 0 0 -1
    outer loop
      vertex 14.9517 61.8705 0
      vertex 21.2 71.2 0
      vertex 14.8535 61.5682 0
    endloop
  endfacet
  facet normal 0 0 -1
    outer loop
      vertex 15.0113 62.1827 0
      vertex 21.2 71.2 0
      vertex 14.9517 61.8705 0
    endloop
  endfacet
  facet normal 0 0 -1
    outer loop
      vertex 15.0312 62.5 0
      vertex 21.2 71.2 0
      vertex 15.0113 62.1827 0
    endloop
  endfacet
  facet normal 0 0 -1
    outer loop
      vertex 15.0113 62.8172 0
      vertex 21.2 71.2 0
      vertex 15.0312 62.5 0
    endloop
  endfacet
  facet normal 0 0 -1
    outer loop
      vertex 14.9517 63.1295 0
      vertex 21.2 71.2 0
      vertex 15.0113 62.8172 0
    endloop
  endfacet
  facet normal 0 0 -1
    outer loop
      vertex 14.8535 63.4318 0
      vertex 21.2 71.2 0
      vertex 14.9517 63.1295 0
    endloop
  endfacet
  facet normal 0 0 -1
    outer loop
      vertex 14.7182 63.7194 0
      vertex 21.2 71.2 0
      vertex 14.8535 63.4318 0
    endloop
  endfacet
  facet normal 0 0 -1
    outer loop
      vertex 14.5478 63.9878 0
      vertex 21.2 71.2 0
      vertex 14.7182 63.7194 0
    endloop
  endfacet
  facet normal 0 0 -1
    outer loop
      vertex 14.3452 64.2328 0
      vertex 21.2 71.2 0
      vertex 14.5478 63.9878 0
    endloop
  endfacet
  facet normal 0 0 -1
    outer loop
      vertex 14.1135 64.4504 0
      vertex 21.2 71.2 0
      vertex 14.3452 64.2328 0
    endloop
  endfacet
  facet normal 0 0 -1
    outer loop
      vertex 13.8563 64.6372 0
      vertex 21.2 71.2 0
      vertex 14.1135 64.4504 0
    endloop
  endfacet
  facet normal 0 0 -1
    outer loop
      vertex 12.9743 64.9864 0
      vertex 21.2 71.2 0
      vertex 13.2822 64.9074 0
    endloop
  endfacet
  facet normal 0 0 -1
    outer loop
      vertex 13.8563 64.6372 0
      vertex 13.5778 64.7903 0
      vertex 21.2 71.2 0
    endloop
  endfacet
  facet normal 0 0 -1
    outer loop
      vertex 13.5778 64.7903 0
      vertex 13.2822 64.9074 0
      vertex 21.2 71.2 0
    endloop
  endfacet
  facet normal 0 0 -1
    outer loop
      vertex 12.6589 65.0263 0
      vertex 3.8 71.2 0
      vertex 12.9743 64.9864 0
    endloop
  endfacet
  facet normal 0 0 -1
    outer loop
      vertex 12.3411 65.0263 0
      vertex 3.8 71.2 0
      vertex 12.6589 65.0263 0
    endloop
  endfacet
  facet normal 0 0 -1
    outer loop
      vertex 12.0257 64.9864 0
      vertex 3.8 71.2 0
      vertex 12.3411 65.0263 0
    endloop
  endfacet
  facet normal 0 0 -1
    outer loop
      vertex 11.7178 64.9074 0
      vertex 3.8 71.2 0
      vertex 12.0257 64.9864 0
    endloop
  endfacet
  facet normal 0 0 -1
    outer loop
      vertex 11.4222 64.7903 0
      vertex 3.8 71.2 0
      vertex 11.7178 64.9074 0
    endloop
  endfacet
  facet normal 0 0 -1
    outer loop
      vertex 11.1437 64.6372 0
      vertex 3.8 71.2 0
      vertex 11.4222 64.7903 0
    endloop
  endfacet
  facet normal 0 0 -1
    outer loop
      vertex 10.8865 64.4504 0
      vertex 3.8 71.2 0
      vertex 11.1437 64.6372 0
    endloop
  endfacet
  facet normal 0 0 -1
    outer loop
      vertex 10.6548 64.2328 0
      vertex 3.8 71.2 0
      vertex 10.8865 64.4504 0
    endloop
  endfacet
  facet normal 0 0 -1
    outer loop
      vertex 10.4522 63.9878 0
      vertex 3.8 71.2 0
      vertex 10.6548 64.2328 0
    endloop
  endfacet
  facet normal 0 0 -1
    outer loop
      vertex 10.2818 63.7194 0
      vertex 3.8 71.2 0
      vertex 10.4522 63.9878 0
    endloop
  endfacet
  facet normal 0 0 -1
    outer loop
      vertex 10.1465 63.4318 0
      vertex 3.8 71.2 0
      vertex 10.2818 63.7194 0
    endloop
  endfacet
  facet normal 0 0 -1
    outer loop
      vertex 10.0483 63.1295 0
      vertex 3.8 71.2 0
      vertex 10.1465 63.4318 0
    endloop
  endfacet
  facet normal 0 0 -1
    outer loop
      vertex 9.98871 62.8172 0
      vertex 3.8 71.2 0
      vertex 10.0483 63.1295 0
    endloop
  endfacet
  facet normal 0 0 -1
    outer loop
      vertex 9.96875 62.5 0
      vertex 3.8 71.2 0
      vertex 9.98871 62.8172 0
    endloop
  endfacet
  facet normal 0 0 -1
    outer loop
      vertex 11.4222 10.2097 0
      vertex 21.2 3.8 0
      vertex 11.1437 10.3628 0
    endloop
  endfacet
  facet normal 0.998027 -0.0627915 0
    outer loop
      vertex 9.98871 12.8172 0
      vertex 9.98871 12.8172 1.7875
      vertex 9.96875 12.5 1.7875
    endloop
  endfacet
  facet normal 0.998027 -0.0627915 0
    outer loop
      vertex 9.96875 12.5 0
      vertex 9.98871 12.8172 0
      vertex 9.96875 12.5 1.7875
    endloop
  endfacet
  facet normal 0.998027 0.0627915 0
    outer loop
      vertex 9.96875 12.5 1.7875
      vertex 9.98871 12.1827 1.7875
      vertex 9.98871 12.1827 0
    endloop
  endfacet
  facet normal 0.998027 0.0627915 0
    outer loop
      vertex 9.96875 12.5 0
      vertex 9.96875 12.5 1.7875
      vertex 9.98871 12.1827 0
    endloop
  endfacet
  facet normal 0.982287 -0.187381 0
    outer loop
      vertex 10.0483 13.1295 0
      vertex 10.0483 13.1295 1.7875
      vertex 9.98871 12.8172 1.7875
    endloop
  endfacet
  facet normal 0.982287 -0.187381 0
    outer loop
      vertex 9.98871 12.8172 0
      vertex 10.0483 13.1295 0
      vertex 9.98871 12.8172 1.7875
    endloop
  endfacet
  facet normal 0.951057 -0.309016 0
    outer loop
      vertex 10.1465 13.4318 0
      vertex 10.1465 13.4318 1.7875
      vertex 10.0483 13.1295 1.7875
    endloop
  endfacet
  facet normal 0.951057 -0.309016 0
    outer loop
      vertex 10.0483 13.1295 0
      vertex 10.1465 13.4318 0
      vertex 10.0483 13.1295 1.7875
    endloop
  endfacet
  facet normal 0.904827 -0.42578 0
    outer loop
      vertex 10.2818 13.7194 0
      vertex 10.2818 13.7194 1.7875
      vertex 10.1465 13.4318 1.7875
    endloop
  endfacet
  facet normal 0.904827 -0.42578 0
    outer loop
      vertex 10.1465 13.4318 0
      vertex 10.2818 13.7194 0
      vertex 10.1465 13.4318 1.7875
    endloop
  endfacet
  facet normal 0.844328 -0.535827 0
    outer loop
      vertex 10.4522 13.9878 0
      vertex 10.4522 13.9878 1.7875
      vertex 10.2818 13.7194 1.7875
    endloop
  endfacet
  facet normal 0.844328 -0.535827 0
    outer loop
      vertex 10.2818 13.7194 0
      vertex 10.4522 13.9878 0
      vertex 10.2818 13.7194 1.7875
    endloop
  endfacet
  facet normal 0.770515 -0.637422 0
    outer loop
      vertex 10.6548 14.2328 0
      vertex 10.6548 14.2328 1.7875
      vertex 10.4522 13.9878 1.7875
    endloop
  endfacet
  facet normal 0.770515 -0.637422 0
    outer loop
      vertex 10.4522 13.9878 0
      vertex 10.6548 14.2328 0
      vertex 10.4522 13.9878 1.7875
    endloop
  endfacet
  facet normal 0.684546 -0.728969 0
    outer loop
      vertex 10.8865 14.4504 0
      vertex 10.8865 14.4504 1.7875
      vertex 10.6548 14.2328 1.7875
    endloop
  endfacet
  facet normal 0.684546 -0.728969 0
    outer loop
      vertex 10.6548 14.2328 0
      vertex 10.8865 14.4504 0
      vertex 10.6548 14.2328 1.7875
    endloop
  endfacet
  facet normal 0.587786 -0.809017 0
    outer loop
      vertex 11.1437 14.6372 0
      vertex 11.1437 14.6372 1.7875
      vertex 10.8865 14.4504 1.7875
    endloop
  endfacet
  facet normal 0.587786 -0.809017 0
    outer loop
      vertex 10.8865 14.4504 0
      vertex 11.1437 14.6372 0
      vertex 10.8865 14.4504 1.7875
    endloop
  endfacet
  facet normal 0.481752 -0.876307 0
    outer loop
      vertex 11.4222 14.7903 0
      vertex 11.4222 14.7903 1.7875
      vertex 11.1437 14.6372 1.7875
    endloop
  endfacet
  facet normal 0.481752 -0.876307 0
    outer loop
      vertex 11.1437 14.6372 0
      vertex 11.4222 14.7903 0
      vertex 11.1437 14.6372 1.7875
    endloop
  endfacet
  facet normal 0.368126 -0.929776 0
    outer loop
      vertex 11.7178 14.9074 0
      vertex 11.7178 14.9074 1.7875
      vertex 11.4222 14.7903 1.7875
    endloop
  endfacet
  facet normal 0.368126 -0.929776 0
    outer loop
      vertex 11.4222 14.7903 0
      vertex 11.7178 14.9074 0
      vertex 11.4222 14.7903 1.7875
    endloop
  endfacet
  facet normal 0.248691 -0.968583 0
    outer loop
      vertex 12.0257 14.9864 0
      vertex 12.0257 14.9864 1.7875
      vertex 11.7178 14.9074 1.7875
    endloop
  endfacet
  facet normal 0.248691 -0.968583 0
    outer loop
      vertex 11.7178 14.9074 0
      vertex 12.0257 14.9864 0
      vertex 11.7178 14.9074 1.7875
    endloop
  endfacet
  facet normal 0.125332 -0.992115 0
    outer loop
      vertex 12.3411 15.0263 0
      vertex 12.3411 15.0263 1.7875
      vertex 12.0257 14.9864 1.7875
    endloop
  endfacet
  facet normal 0.125332 -0.992115 0
    outer loop
      vertex 12.0257 14.9864 0
      vertex 12.3411 15.0263 0
      vertex 12.0257 14.9864 1.7875
    endloop
  endfacet
  facet normal 0 -1 0
    outer loop
      vertex 12.6589 15.0263 0
      vertex 12.6589 15.0263 1.7875
      vertex 12.3411 15.0263 1.7875
    endloop
  endfacet
  facet normal 0 -1 0
    outer loop
      vertex 12.3411 15.0263 0
      vertex 12.6589 15.0263 0
      vertex 12.3411 15.0263 1.7875
    endloop
  endfacet
  facet normal -0.125332 -0.992115 0
    outer loop
      vertex 12.9743 14.9864 0
      vertex 12.9743 14.9864 1.7875
      vertex 12.6589 15.0263 1.7875
    endloop
  endfacet
  facet normal -0.125332 -0.992115 0
    outer loop
      vertex 12.6589 15.0263 0
      vertex 12.9743 14.9864 0
      vertex 12.6589 15.0263 1.7875
    endloop
  endfacet
  facet normal -0.248691 -0.968583 0
    outer loop
      vertex 13.2822 14.9074 0
      vertex 13.2822 14.9074 1.7875
      vertex 12.9743 14.9864 1.7875
    endloop
  endfacet
  facet normal -0.248691 -0.968583 0
    outer loop
      vertex 12.9743 14.9864 0
      vertex 13.2822 14.9074 0
      vertex 12.9743 14.9864 1.7875
    endloop
  endfacet
  facet normal -0.368126 -0.929776 0
    outer loop
      vertex 13.5778 14.7903 0
      vertex 13.5778 14.7903 1.7875
      vertex 13.2822 14.9074 1.7875
    endloop
  endfacet
  facet normal -0.368126 -0.929776 0
    outer loop
      vertex 13.2822 14.9074 0
      vertex 13.5778 14.7903 0
      vertex 13.2822 14.9074 1.7875
    endloop
  endfacet
  facet normal -0.481752 -0.876307 0
    outer loop
      vertex 13.8563 14.6372 0
      vertex 13.8563 14.6372 1.7875
      vertex 13.5778 14.7903 1.7875
    endloop
  endfacet
  facet normal -0.481752 -0.876307 0
    outer loop
      vertex 13.5778 14.7903 0
      vertex 13.8563 14.6372 0
      vertex 13.5778 14.7903 1.7875
    endloop
  endfacet
  facet normal -0.587786 -0.809017 0
    outer loop
      vertex 14.1135 14.4504 0
      vertex 14.1135 14.4504 1.7875
      vertex 13.8563 14.6372 1.7875
    endloop
  endfacet
  facet normal -0.587786 -0.809017 0
    outer loop
      vertex 13.8563 14.6372 0
      vertex 14.1135 14.4504 0
      vertex 13.8563 14.6372 1.7875
    endloop
  endfacet
  facet normal -0.684546 -0.728969 0
    outer loop
      vertex 14.3452 14.2328 0
      vertex 14.3452 14.2328 1.7875
      vertex 14.1135 14.4504 1.7875
    endloop
  endfacet
  facet normal -0.684546 -0.728969 0
    outer loop
      vertex 14.1135 14.4504 0
      vertex 14.3452 14.2328 0
      vertex 14.1135 14.4504 1.7875
    endloop
  endfacet
  facet normal -0.770515 -0.637422 0
    outer loop
      vertex 14.5478 13.9878 1.7875
      vertex 14.3452 14.2328 1.7875
      vertex 14.5478 13.9878 0
    endloop
  endfacet
  facet normal -0.770515 -0.637422 0
    outer loop
      vertex 14.5478 13.9878 0
      vertex 14.3452 14.2328 1.7875
      vertex 14.3452 14.2328 0
    endloop
  endfacet
  facet normal -0.844328 -0.535827 0
    outer loop
      vertex 14.7182 13.7194 1.7875
      vertex 14.5478 13.9878 1.7875
      vertex 14.7182 13.7194 0
    endloop
  endfacet
  facet normal -0.844328 -0.535827 0
    outer loop
      vertex 14.7182 13.7194 0
      vertex 14.5478 13.9878 1.7875
      vertex 14.5478 13.9878 0
    endloop
  endfacet
  facet normal -0.904827 -0.42578 0
    outer loop
      vertex 14.8535 13.4318 1.7875
      vertex 14.7182 13.7194 1.7875
      vertex 14.8535 13.4318 0
    endloop
  endfacet
  facet normal -0.904827 -0.42578 0
    outer loop
      vertex 14.8535 13.4318 0
      vertex 14.7182 13.7194 1.7875
      vertex 14.7182 13.7194 0
    endloop
  endfacet
  facet normal -0.951057 -0.309016 0
    outer loop
      vertex 14.9517 13.1295 1.7875
      vertex 14.8535 13.4318 1.7875
      vertex 14.9517 13.1295 0
    endloop
  endfacet
  facet normal -0.951057 -0.309016 0
    outer loop
      vertex 14.9517 13.1295 0
      vertex 14.8535 13.4318 1.7875
      vertex 14.8535 13.4318 0
    endloop
  endfacet
  facet normal -0.982287 -0.187381 0
    outer loop
      vertex 15.0113 12.8172 1.7875
      vertex 14.9517 13.1295 1.7875
      vertex 15.0113 12.8172 0
    endloop
  endfacet
  facet normal -0.982287 -0.187381 0
    outer loop
      vertex 15.0113 12.8172 0
      vertex 14.9517 13.1295 1.7875
      vertex 14.9517 13.1295 0
    endloop
  endfacet
  facet normal -0.998027 -0.0627915 0
    outer loop
      vertex 15.0312 12.5 1.7875
      vertex 15.0113 12.8172 1.7875
      vertex 15.0312 12.5 0
    endloop
  endfacet
  facet normal -0.998027 -0.0627915 0
    outer loop
      vertex 15.0312 12.5 0
      vertex 15.0113 12.8172 1.7875
      vertex 15.0113 12.8172 0
    endloop
  endfacet
  facet normal -0.998027 0.0627915 0
    outer loop
      vertex 15.0312 12.5 1.7875
      vertex 15.0312 12.5 0
      vertex 15.0113 12.1827 1.7875
    endloop
  endfacet
  facet normal -0.998027 0.0627915 0
    outer loop
      vertex 15.0113 12.1827 1.7875
      vertex 15.0312 12.5 0
      vertex 15.0113 12.1827 0
    endloop
  endfacet
  facet normal -0.982287 0.187381 0
    outer loop
      vertex 15.0113 12.1827 1.7875
      vertex 15.0113 12.1827 0
      vertex 14.9517 11.8705 1.7875
    endloop
  endfacet
  facet normal -0.982287 0.187381 0
    outer loop
      vertex 14.9517 11.8705 1.7875
      vertex 15.0113 12.1827 0
      vertex 14.9517 11.8705 0
    endloop
  endfacet
  facet normal -0.951057 0.309016 0
    outer loop
      vertex 14.9517 11.8705 1.7875
      vertex 14.9517 11.8705 0
      vertex 14.8535 11.5682 1.7875
    endloop
  endfacet
  facet normal -0.951057 0.309016 0
    outer loop
      vertex 14.8535 11.5682 1.7875
      vertex 14.9517 11.8705 0
      vertex 14.8535 11.5682 0
    endloop
  endfacet
  facet normal -0.904827 0.42578 0
    outer loop
      vertex 14.8535 11.5682 1.7875
      vertex 14.8535 11.5682 0
      vertex 14.7182 11.2806 1.7875
    endloop
  endfacet
  facet normal -0.904827 0.42578 0
    outer loop
      vertex 14.7182 11.2806 1.7875
      vertex 14.8535 11.5682 0
      vertex 14.7182 11.2806 0
    endloop
  endfacet
  facet normal -0.844328 0.535827 0
    outer loop
      vertex 14.7182 11.2806 1.7875
      vertex 14.7182 11.2806 0
      vertex 14.5478 11.0122 1.7875
    endloop
  endfacet
  facet normal -0.844328 0.535827 0
    outer loop
      vertex 14.5478 11.0122 1.7875
      vertex 14.7182 11.2806 0
      vertex 14.5478 11.0122 0
    endloop
  endfacet
  facet normal -0.770515 0.637422 0
    outer loop
      vertex 14.5478 11.0122 1.7875
      vertex 14.5478 11.0122 0
      vertex 14.3452 10.7672 1.7875
    endloop
  endfacet
  facet normal -0.770515 0.637422 0
    outer loop
      vertex 14.3452 10.7672 1.7875
      vertex 14.5478 11.0122 0
      vertex 14.3452 10.7672 0
    endloop
  endfacet
  facet normal -0.684546 0.728969 0
    outer loop
      vertex 14.3452 10.7672 1.7875
      vertex 14.3452 10.7672 0
      vertex 14.1135 10.5496 1.7875
    endloop
  endfacet
  facet normal -0.684546 0.728969 0
    outer loop
      vertex 14.1135 10.5496 1.7875
      vertex 14.3452 10.7672 0
      vertex 14.1135 10.5496 0
    endloop
  endfacet
  facet normal -0.587786 0.809017 0
    outer loop
      vertex 14.1135 10.5496 1.7875
      vertex 14.1135 10.5496 0
      vertex 13.8563 10.3628 1.7875
    endloop
  endfacet
  facet normal -0.587786 0.809017 0
    outer loop
      vertex 13.8563 10.3628 1.7875
      vertex 14.1135 10.5496 0
      vertex 13.8563 10.3628 0
    endloop
  endfacet
  facet normal -0.481752 0.876307 0
    outer loop
      vertex 13.8563 10.3628 1.7875
      vertex 13.8563 10.3628 0
      vertex 13.5778 10.2097 1.7875
    endloop
  endfacet
  facet normal -0.481752 0.876307 0
    outer loop
      vertex 13.5778 10.2097 1.7875
      vertex 13.8563 10.3628 0
      vertex 13.5778 10.2097 0
    endloop
  endfacet
  facet normal -0.368126 0.929776 0
    outer loop
      vertex 13.5778 10.2097 1.7875
      vertex 13.5778 10.2097 0
      vertex 13.2822 10.0926 1.7875
    endloop
  endfacet
  facet normal -0.368126 0.929776 0
    outer loop
      vertex 13.2822 10.0926 1.7875
      vertex 13.5778 10.2097 0
      vertex 13.2822 10.0926 0
    endloop
  endfacet
  facet normal -0.248691 0.968583 0
    outer loop
      vertex 13.2822 10.0926 1.7875
      vertex 13.2822 10.0926 0
      vertex 12.9743 10.0136 1.7875
    endloop
  endfacet
  facet normal -0.248691 0.968583 0
    outer loop
      vertex 12.9743 10.0136 1.7875
      vertex 13.2822 10.0926 0
      vertex 12.9743 10.0136 0
    endloop
  endfacet
  facet normal -0.125332 0.992115 0
    outer loop
      vertex 12.9743 10.0136 1.7875
      vertex 12.9743 10.0136 0
      vertex 12.6589 9.97374 1.7875
    endloop
  endfacet
  facet normal -0.125332 0.992115 0
    outer loop
      vertex 12.6589 9.97374 1.7875
      vertex 12.9743 10.0136 0
      vertex 12.6589 9.97374 0
    endloop
  endfacet
  facet normal 0 1 0
    outer loop
      vertex 12.6589 9.97374 1.7875
      vertex 12.6589 9.97374 0
      vertex 12.3411 9.97374 1.7875
    endloop
  endfacet
  facet normal 0 1 0
    outer loop
      vertex 12.3411 9.97374 1.7875
      vertex 12.6589 9.97374 0
      vertex 12.3411 9.97374 0
    endloop
  endfacet
  facet normal 0.125332 0.992115 0
    outer loop
      vertex 12.3411 9.97374 1.7875
      vertex 12.3411 9.97374 0
      vertex 12.0257 10.0136 1.7875
    endloop
  endfacet
  facet normal 0.125332 0.992115 0
    outer loop
      vertex 12.0257 10.0136 1.7875
      vertex 12.3411 9.97374 0
      vertex 12.0257 10.0136 0
    endloop
  endfacet
  facet normal 0.248691 0.968583 0
    outer loop
      vertex 12.0257 10.0136 1.7875
      vertex 12.0257 10.0136 0
      vertex 11.7178 10.0926 1.7875
    endloop
  endfacet
  facet normal 0.248691 0.968583 0
    outer loop
      vertex 11.7178 10.0926 1.7875
      vertex 12.0257 10.0136 0
      vertex 11.7178 10.0926 0
    endloop
  endfacet
  facet normal 0.368126 0.929776 0
    outer loop
      vertex 11.7178 10.0926 1.7875
      vertex 11.7178 10.0926 0
      vertex 11.4222 10.2097 1.7875
    endloop
  endfacet
  facet normal 0.368126 0.929776 0
    outer loop
      vertex 11.4222 10.2097 1.7875
      vertex 11.7178 10.0926 0
      vertex 11.4222 10.2097 0
    endloop
  endfacet
  facet normal 0.481752 0.876307 0
    outer loop
      vertex 11.4222 10.2097 1.7875
      vertex 11.4222 10.2097 0
      vertex 11.1437 10.3628 1.7875
    endloop
  endfacet
  facet normal 0.481752 0.876307 0
    outer loop
      vertex 11.1437 10.3628 1.7875
      vertex 11.4222 10.2097 0
      vertex 11.1437 10.3628 0
    endloop
  endfacet
  facet normal 0.587786 0.809017 0
    outer loop
      vertex 11.1437 10.3628 1.7875
      vertex 11.1437 10.3628 0
      vertex 10.8865 10.5496 1.7875
    endloop
  endfacet
  facet normal 0.587786 0.809017 0
    outer loop
      vertex 10.8865 10.5496 1.7875
      vertex 11.1437 10.3628 0
      vertex 10.8865 10.5496 0
    endloop
  endfacet
  facet normal 0.684546 0.728969 0
    outer loop
      vertex 10.8865 10.5496 1.7875
      vertex 10.8865 10.5496 0
      vertex 10.6548 10.7672 1.7875
    endloop
  endfacet
  facet normal 0.684546 0.728969 0
    outer loop
      vertex 10.6548 10.7672 1.7875
      vertex 10.8865 10.5496 0
      vertex 10.6548 10.7672 0
    endloop
  endfacet
  facet normal 0.770515 0.637422 0
    outer loop
      vertex 10.4522 11.0122 1.7875
      vertex 10.6548 10.7672 1.7875
      vertex 10.6548 10.7672 0
    endloop
  endfacet
  facet normal 0.770515 0.637422 0
    outer loop
      vertex 10.4522 11.0122 0
      vertex 10.4522 11.0122 1.7875
      vertex 10.6548 10.7672 0
    endloop
  endfacet
  facet normal 0.844328 0.535827 0
    outer loop
      vertex 10.2818 11.2806 1.7875
      vertex 10.4522 11.0122 1.7875
      vertex 10.4522 11.0122 0
    endloop
  endfacet
  facet normal 0.844328 0.535827 0
    outer loop
      vertex 10.2818 11.2806 0
      vertex 10.2818 11.2806 1.7875
      vertex 10.4522 11.0122 0
    endloop
  endfacet
  facet normal 0.904827 0.42578 0
    outer loop
      vertex 10.1465 11.5682 1.7875
      vertex 10.2818 11.2806 1.7875
      vertex 10.2818 11.2806 0
    endloop
  endfacet
  facet normal 0.904827 0.42578 0
    outer loop
      vertex 10.1465 11.5682 0
      vertex 10.1465 11.5682 1.7875
      vertex 10.2818 11.2806 0
    endloop
  endfacet
  facet normal 0.951057 0.309016 0
    outer loop
      vertex 10.0483 11.8705 1.7875
      vertex 10.1465 11.5682 1.7875
      vertex 10.1465 11.5682 0
    endloop
  endfacet
  facet normal 0.951057 0.309016 0
    outer loop
      vertex 10.0483 11.8705 0
      vertex 10.0483 11.8705 1.7875
      vertex 10.1465 11.5682 0
    endloop
  endfacet
  facet normal 0.982287 0.187381 0
    outer loop
      vertex 9.98871 12.1827 1.7875
      vertex 10.0483 11.8705 1.7875
      vertex 10.0483 11.8705 0
    endloop
  endfacet
  facet normal 0.982287 0.187381 0
    outer loop
      vertex 9.98871 12.1827 0
      vertex 9.98871 12.1827 1.7875
      vertex 10.0483 11.8705 0
    endloop
  endfacet
  facet normal 0.998027 -0.0627915 0
    outer loop
      vertex 9.98871 62.8172 0
      vertex 9.98871 62.8172 1.7875
      vertex 9.96875 62.5 1.7875
    endloop
  endfacet
  facet normal 0.998027 -0.0627915 0
    outer loop
      vertex 9.96875 62.5 0
      vertex 9.98871 62.8172 0
      vertex 9.96875 62.5 1.7875
    endloop
  endfacet
  facet normal 0.998027 0.0627915 0
    outer loop
      vertex 9.96875 62.5 1.7875
      vertex 9.98871 62.1827 1.7875
      vertex 9.98871 62.1827 0
    endloop
  endfacet
  facet normal 0.998027 0.0627915 0
    outer loop
      vertex 9.96875 62.5 0
      vertex 9.96875 62.5 1.7875
      vertex 9.98871 62.1827 0
    endloop
  endfacet
  facet normal 0.982287 -0.187381 0
    outer loop
      vertex 10.0483 63.1295 0
      vertex 10.0483 63.1295 1.7875
      vertex 9.98871 62.8172 1.7875
    endloop
  endfacet
  facet normal 0.982287 -0.187381 0
    outer loop
      vertex 9.98871 62.8172 0
      vertex 10.0483 63.1295 0
      vertex 9.98871 62.8172 1.7875
    endloop
  endfacet
  facet normal 0.951057 -0.309016 0
    outer loop
      vertex 10.1465 63.4318 0
      vertex 10.1465 63.4318 1.7875
      vertex 10.0483 63.1295 1.7875
    endloop
  endfacet
  facet normal 0.951057 -0.309016 0
    outer loop
      vertex 10.0483 63.1295 0
      vertex 10.1465 63.4318 0
      vertex 10.0483 63.1295 1.7875
    endloop
  endfacet
  facet normal 0.904827 -0.42578 0
    outer loop
      vertex 10.2818 63.7194 0
      vertex 10.2818 63.7194 1.7875
      vertex 10.1465 63.4318 1.7875
    endloop
  endfacet
  facet normal 0.904827 -0.42578 0
    outer loop
      vertex 10.1465 63.4318 0
      vertex 10.2818 63.7194 0
      vertex 10.1465 63.4318 1.7875
    endloop
  endfacet
  facet normal 0.844328 -0.535827 0
    outer loop
      vertex 10.4522 63.9878 0
      vertex 10.4522 63.9878 1.7875
      vertex 10.2818 63.7194 1.7875
    endloop
  endfacet
  facet normal 0.844328 -0.535827 0
    outer loop
      vertex 10.2818 63.7194 0
      vertex 10.4522 63.9878 0
      vertex 10.2818 63.7194 1.7875
    endloop
  endfacet
  facet normal 0.770515 -0.637422 0
    outer loop
      vertex 10.6548 64.2328 0
      vertex 10.6548 64.2328 1.7875
      vertex 10.4522 63.9878 1.7875
    endloop
  endfacet
  facet normal 0.770515 -0.637422 0
    outer loop
      vertex 10.4522 63.9878 0
      vertex 10.6548 64.2328 0
      vertex 10.4522 63.9878 1.7875
    endloop
  endfacet
  facet normal 0.684546 -0.728969 0
    outer loop
      vertex 10.8865 64.4504 0
      vertex 10.8865 64.4504 1.7875
      vertex 10.6548 64.2328 1.7875
    endloop
  endfacet
  facet normal 0.684546 -0.728969 0
    outer loop
      vertex 10.6548 64.2328 0
      vertex 10.8865 64.4504 0
      vertex 10.6548 64.2328 1.7875
    endloop
  endfacet
  facet normal 0.587786 -0.809017 0
    outer loop
      vertex 11.1437 64.6372 0
      vertex 11.1437 64.6372 1.7875
      vertex 10.8865 64.4504 1.7875
    endloop
  endfacet
  facet normal 0.587786 -0.809017 0
    outer loop
      vertex 10.8865 64.4504 0
      vertex 11.1437 64.6372 0
      vertex 10.8865 64.4504 1.7875
    endloop
  endfacet
  facet normal 0.481752 -0.876307 0
    outer loop
      vertex 11.4222 64.7903 0
      vertex 11.4222 64.7903 1.7875
      vertex 11.1437 64.6372 1.7875
    endloop
  endfacet
  facet normal 0.481752 -0.876307 0
    outer loop
      vertex 11.1437 64.6372 0
      vertex 11.4222 64.7903 0
      vertex 11.1437 64.6372 1.7875
    endloop
  endfacet
  facet normal 0.368126 -0.929776 0
    outer loop
      vertex 11.7178 64.9074 0
      vertex 11.7178 64.9074 1.7875
      vertex 11.4222 64.7903 1.7875
    endloop
  endfacet
  facet normal 0.368126 -0.929776 0
    outer loop
      vertex 11.4222 64.7903 0
      vertex 11.7178 64.9074 0
      vertex 11.4222 64.7903 1.7875
    endloop
  endfacet
  facet normal 0.248691 -0.968583 0
    outer loop
      vertex 12.0257 64.9864 0
      vertex 12.0257 64.9864 1.7875
      vertex 11.7178 64.9074 1.7875
    endloop
  endfacet
  facet normal 0.248691 -0.968583 0
    outer loop
      vertex 11.7178 64.9074 0
      vertex 12.0257 64.9864 0
      vertex 11.7178 64.9074 1.7875
    endloop
  endfacet
  facet normal 0.125332 -0.992115 0
    outer loop
      vertex 12.3411 65.0263 0
      vertex 12.3411 65.0263 1.7875
      vertex 12.0257 64.9864 1.7875
    endloop
  endfacet
  facet normal 0.125332 -0.992115 0
    outer loop
      vertex 12.0257 64.9864 0
      vertex 12.3411 65.0263 0
      vertex 12.0257 64.9864 1.7875
    endloop
  endfacet
  facet normal 0 -1 0
    outer loop
      vertex 12.6589 65.0263 0
      vertex 12.6589 65.0263 1.7875
      vertex 12.3411 65.0263 1.7875
    endloop
  endfacet
  facet normal 0 -1 0
    outer loop
      vertex 12.3411 65.0263 0
      vertex 12.6589 65.0263 0
      vertex 12.3411 65.0263 1.7875
    endloop
  endfacet
  facet normal -0.125332 -0.992115 0
    outer loop
      vertex 12.9743 64.9864 0
      vertex 12.9743 64.9864 1.7875
      vertex 12.6589 65.0263 1.7875
    endloop
  endfacet
  facet normal -0.125332 -0.992115 0
    outer loop
      vertex 12.6589 65.0263 0
      vertex 12.9743 64.9864 0
      vertex 12.6589 65.0263 1.7875
    endloop
  endfacet
  facet normal -0.248691 -0.968583 0
    outer loop
      vertex 13.2822 64.9074 0
      vertex 13.2822 64.9074 1.7875
      vertex 12.9743 64.9864 1.7875
    endloop
  endfacet
  facet normal -0.248691 -0.968583 0
    outer loop
      vertex 12.9743 64.9864 0
      vertex 13.2822 64.9074 0
      vertex 12.9743 64.9864 1.7875
    endloop
  endfacet
  facet normal -0.368126 -0.929776 0
    outer loop
      vertex 13.5778 64.7903 0
      vertex 13.5778 64.7903 1.7875
      vertex 13.2822 64.9074 1.7875
    endloop
  endfacet
  facet normal -0.368126 -0.929776 0
    outer loop
      vertex 13.2822 64.9074 0
      vertex 13.5778 64.7903 0
      vertex 13.2822 64.9074 1.7875
    endloop
  endfacet
  facet normal -0.481752 -0.876307 0
    outer loop
      vertex 13.8563 64.6372 0
      vertex 13.8563 64.6372 1.7875
      vertex 13.5778 64.7903 1.7875
    endloop
  endfacet
  facet normal -0.481752 -0.876307 0
    outer loop
      vertex 13.5778 64.7903 0
      vertex 13.8563 64.6372 0
      vertex 13.5778 64.7903 1.7875
    endloop
  endfacet
  facet normal -0.587786 -0.809017 0
    outer loop
      vertex 14.1135 64.4504 0
      vertex 14.1135 64.4504 1.7875
      vertex 13.8563 64.6372 1.7875
    endloop
  endfacet
  facet normal -0.587786 -0.809017 0
    outer loop
      vertex 13.8563 64.6372 0
      vertex 14.1135 64.4504 0
      vertex 13.8563 64.6372 1.7875
    endloop
  endfacet
  facet normal -0.684546 -0.728969 0
    outer loop
      vertex 14.3452 64.2328 0
      vertex 14.3452 64.2328 1.7875
      vertex 14.1135 64.4504 1.7875
    endloop
  endfacet
  facet normal -0.684546 -0.728969 0
    outer loop
      vertex 14.1135 64.4504 0
      vertex 14.3452 64.2328 0
      vertex 14.1135 64.4504 1.7875
    endloop
  endfacet
  facet normal -0.770515 -0.637422 0
    outer loop
      vertex 14.5478 63.9878 1.7875
      vertex 14.3452 64.2328 1.7875
      vertex 14.5478 63.9878 0
    endloop
  endfacet
  facet normal -0.770515 -0.637422 0
    outer loop
      vertex 14.5478 63.9878 0
      vertex 14.3452 64.2328 1.7875
      vertex 14.3452 64.2328 0
    endloop
  endfacet
  facet normal -0.844328 -0.535827 0
    outer loop
      vertex 14.7182 63.7194 1.7875
      vertex 14.5478 63.9878 1.7875
      vertex 14.7182 63.7194 0
    endloop
  endfacet
  facet normal -0.844328 -0.535827 0
    outer loop
      vertex 14.7182 63.7194 0
      vertex 14.5478 63.9878 1.7875
      vertex 14.5478 63.9878 0
    endloop
  endfacet
  facet normal -0.904827 -0.42578 0
    outer loop
      vertex 14.8535 63.4318 1.7875
      vertex 14.7182 63.7194 1.7875
      vertex 14.8535 63.4318 0
    endloop
  endfacet
  facet normal -0.904827 -0.42578 0
    outer loop
      vertex 14.8535 63.4318 0
      vertex 14.7182 63.7194 1.7875
      vertex 14.7182 63.7194 0
    endloop
  endfacet
  facet normal -0.951057 -0.309016 0
    outer loop
      vertex 14.9517 63.1295 1.7875
      vertex 14.8535 63.4318 1.7875
      vertex 14.9517 63.1295 0
    endloop
  endfacet
  facet normal -0.951057 -0.309016 0
    outer loop
      vertex 14.9517 63.1295 0
      vertex 14.8535 63.4318 1.7875
      vertex 14.8535 63.4318 0
    endloop
  endfacet
  facet normal -0.982287 -0.187381 0
    outer loop
      vertex 15.0113 62.8172 1.7875
      vertex 14.9517 63.1295 1.7875
      vertex 15.0113 62.8172 0
    endloop
  endfacet
  facet normal -0.982287 -0.187381 0
    outer loop
      vertex 15.0113 62.8172 0
      vertex 14.9517 63.1295 1.7875
      vertex 14.9517 63.1295 0
    endloop
  endfacet
  facet normal -0.998027 -0.0627915 0
    outer loop
      vertex 15.0312 62.5 1.7875
      vertex 15.0113 62.8172 1.7875
      vertex 15.0312 62.5 0
    endloop
  endfacet
  facet normal -0.998027 -0.0627915 0
    outer loop
      vertex 15.0312 62.5 0
      vertex 15.0113 62.8172 1.7875
      vertex 15.0113 62.8172 0
    endloop
  endfacet
  facet normal -0.998027 0.0627915 0
    outer loop
      vertex 15.0312 62.5 1.7875
      vertex 15.0312 62.5 0
      vertex 15.0113 62.1827 1.7875
    endloop
  endfacet
  facet normal -0.998027 0.0627915 0
    outer loop
      vertex 15.0113 62.1827 1.7875
      vertex 15.0312 62.5 0
      vertex 15.0113 62.1827 0
    endloop
  endfacet
  facet normal -0.982287 0.187381 0
    outer loop
      vertex 15.0113 62.1827 1.7875
      vertex 15.0113 62.1827 0
      vertex 14.9517 61.8705 1.7875
    endloop
  endfacet
  facet normal -0.982287 0.187381 0
    outer loop
      vertex 14.9517 61.8705 1.7875
      vertex 15.0113 62.1827 0
      vertex 14.9517 61.8705 0
    endloop
  endfacet
  facet normal -0.951057 0.309016 0
    outer loop
      vertex 14.9517 61.8705 1.7875
      vertex 14.9517 61.8705 0
      vertex 14.8535 61.5682 1.7875
    endloop
  endfacet
  facet normal -0.951057 0.309016 0
    outer loop
      vertex 14.8535 61.5682 1.7875
      vertex 14.9517 61.8705 0
      vertex 14.8535 61.5682 0
    endloop
  endfacet
  facet normal -0.904827 0.42578 0
    outer loop
      vertex 14.8535 61.5682 1.7875
      vertex 14.8535 61.5682 0
      vertex 14.7182 61.2806 1.7875
    endloop
  endfacet
  facet normal -0.904827 0.42578 0
    outer loop
      vertex 14.7182 61.2806 1.7875
      vertex 14.8535 61.5682 0
      vertex 14.7182 61.2806 0
    endloop
  endfacet
  facet normal -0.844328 0.535827 0
    outer loop
      vertex 14.7182 61.2806 1.7875
      vertex 14.7182 61.2806 0
      vertex 14.5478 61.0122 1.7875
    endloop
  endfacet
  facet normal -0.844328 0.535827 0
    outer loop
      vertex 14.5478 61.0122 1.7875
      vertex 14.7182 61.2806 0
      vertex 14.5478 61.0122 0
    endloop
  endfacet
  facet normal -0.770515 0.637422 0
    outer loop
      vertex 14.5478 61.0122 1.7875
      vertex 14.5478 61.0122 0
      vertex 14.3452 60.7672 1.7875
    endloop
  endfacet
  facet normal -0.770515 0.637422 0
    outer loop
      vertex 14.3452 60.7672 1.7875
      vertex 14.5478 61.0122 0
      vertex 14.3452 60.7672 0
    endloop
  endfacet
  facet normal -0.684546 0.728969 0
    outer loop
      vertex 14.3452 60.7672 1.7875
      vertex 14.3452 60.7672 0
      vertex 14.1135 60.5496 1.7875
    endloop
  endfacet
  facet normal -0.684546 0.728969 0
    outer loop
      vertex 14.1135 60.5496 1.7875
      vertex 14.3452 60.7672 0
      vertex 14.1135 60.5496 0
    endloop
  endfacet
  facet normal -0.587786 0.809017 0
    outer loop
      vertex 14.1135 60.5496 1.7875
      vertex 14.1135 60.5496 0
      vertex 13.8563 60.3628 1.7875
    endloop
  endfacet
  facet normal -0.587786 0.809017 0
    outer loop
      vertex 13.8563 60.3628 1.7875
      vertex 14.1135 60.5496 0
      vertex 13.8563 60.3628 0
    endloop
  endfacet
  facet normal -0.481752 0.876307 0
    outer loop
      vertex 13.8563 60.3628 1.7875
      vertex 13.8563 60.3628 0
      vertex 13.5778 60.2097 1.7875
    endloop
  endfacet
  facet normal -0.481752 0.876307 0
    outer loop
      vertex 13.5778 60.2097 1.7875
      vertex 13.8563 60.3628 0
      vertex 13.5778 60.2097 0
    endloop
  endfacet
  facet normal -0.368126 0.929776 0
    outer loop
      vertex 13.5778 60.2097 1.7875
      vertex 13.5778 60.2097 0
      vertex 13.2822 60.0926 1.7875
    endloop
  endfacet
  facet normal -0.368126 0.929776 0
    outer loop
      vertex 13.2822 60.0926 1.7875
      vertex 13.5778 60.2097 0
      vertex 13.2822 60.0926 0
    endloop
  endfacet
  facet normal -0.248691 0.968583 0
    outer loop
      vertex 13.2822 60.0926 1.7875
      vertex 13.2822 60.0926 0
      vertex 12.9743 60.0136 1.7875
    endloop
  endfacet
  facet normal -0.248691 0.968583 0
    outer loop
      vertex 12.9743 60.0136 1.7875
      vertex 13.2822 60.0926 0
      vertex 12.9743 60.0136 0
    endloop
  endfacet
  facet normal -0.125332 0.992115 0
    outer loop
      vertex 12.9743 60.0136 1.7875
      vertex 12.9743 60.0136 0
      vertex 12.6589 59.9737 1.7875
    endloop
  endfacet
  facet normal -0.125332 0.992115 0
    outer loop
      vertex 12.6589 59.9737 1.7875
      vertex 12.9743 60.0136 0
      vertex 12.6589 59.9737 0
    endloop
  endfacet
  facet normal 0 1 0
    outer loop
      vertex 12.6589 59.9737 1.7875
      vertex 12.6589 59.9737 0
      vertex 12.3411 59.9737 1.7875
    endloop
  endfacet
  facet normal 0 1 0
    outer loop
      vertex 12.3411 59.9737 1.7875
      vertex 12.6589 59.9737 0
      vertex 12.3411 59.9737 0
    endloop
  endfacet
  facet normal 0.125332 0.992115 0
    outer loop
      vertex 12.3411 59.9737 1.7875
      vertex 12.3411 59.9737 0
      vertex 12.0257 60.0136 1.7875
    endloop
  endfacet
  facet normal 0.125332 0.992115 0
    outer loop
      vertex 12.0257 60.0136 1.7875
      vertex 12.3411 59.9737 0
      vertex 12.0257 60.0136 0
    endloop
  endfacet
  facet normal 0.248691 0.968583 0
    outer loop
      vertex 12.0257 60.0136 1.7875
      vertex 12.0257 60.0136 0
      vertex 11.7178 60.0926 1.7875
    endloop
  endfacet
  facet normal 0.248691 0.968583 0
    outer loop
      vertex 11.7178 60.0926 1.7875
      vertex 12.0257 60.0136 0
      vertex 11.7178 60.0926 0
    endloop
  endfacet
  facet normal 0.368126 0.929776 0
    outer loop
      vertex 11.7178 60.0926 1.7875
      vertex 11.7178 60.0926 0
      vertex 11.4222 60.2097 1.7875
    endloop
  endfacet
  facet normal 0.368126 0.929776 0
    outer loop
      vertex 11.4222 60.2097 1.7875
      vertex 11.7178 60.0926 0
      vertex 11.4222 60.2097 0
    endloop
  endfacet
  facet normal 0.481752 0.876307 0
    outer loop
      vertex 11.4222 60.2097 1.7875
      vertex 11.4222 60.2097 0
      vertex 11.1437 60.3628 1.7875
    endloop
  endfacet
  facet normal 0.481752 0.876307 0
    outer loop
      vertex 11.1437 60.3628 1.7875
      vertex 11.4222 60.2097 0
      vertex 11.1437 60.3628 0
    endloop
  endfacet
  facet normal 0.587786 0.809017 0
    outer loop
      vertex 11.1437 60.3628 1.7875
      vertex 11.1437 60.3628 0
      vertex 10.8865 60.5496 1.7875
    endloop
  endfacet
  facet normal 0.587786 0.809017 0
    outer loop
      vertex 10.8865 60.5496 1.7875
      vertex 11.1437 60.3628 0
      vertex 10.8865 60.5496 0
    endloop
  endfacet
  facet normal 0.684546 0.728969 0
    outer loop
      vertex 10.8865 60.5496 1.7875
      vertex 10.8865 60.5496 0
      vertex 10.6548 60.7672 1.7875
    endloop
  endfacet
  facet normal 0.684546 0.728969 0
    outer loop
      vertex 10.6548 60.7672 1.7875
      vertex 10.8865 60.5496 0
      vertex 10.6548 60.7672 0
    endloop
  endfacet
  facet normal 0.770515 0.637422 0
    outer loop
      vertex 10.4522 61.0122 1.7875
      vertex 10.6548 60.7672 1.7875
      vertex 10.6548 60.7672 0
    endloop
  endfacet
  facet normal 0.770515 0.637422 0
    outer loop
      vertex 10.4522 61.0122 0
      vertex 10.4522 61.0122 1.7875
      vertex 10.6548 60.7672 0
    endloop
  endfacet
  facet normal 0.844328 0.535827 0
    outer loop
      vertex 10.2818 61.2806 1.7875
      vertex 10.4522 61.0122 1.7875
      vertex 10.4522 61.0122 0
    endloop
  endfacet
  facet normal 0.844328 0.535827 0
    outer loop
      vertex 10.2818 61.2806 0
      vertex 10.2818 61.2806 1.7875
      vertex 10.4522 61.0122 0
    endloop
  endfacet
  facet normal 0.904827 0.42578 0
    outer loop
      vertex 10.1465 61.5682 1.7875
      vertex 10.2818 61.2806 1.7875
      vertex 10.2818 61.2806 0
    endloop
  endfacet
  facet normal 0.904827 0.42578 0
    outer loop
      vertex 10.1465 61.5682 0
      vertex 10.1465 61.5682 1.7875
      vertex 10.2818 61.2806 0
    endloop
  endfacet
  facet normal 0.951057 0.309016 0
    outer loop
      vertex 10.0483 61.8705 1.7875
      vertex 10.1465 61.5682 1.7875
      vertex 10.1465 61.5682 0
    endloop
  endfacet
  facet normal 0.951057 0.309016 0
    outer loop
      vertex 10.0483 61.8705 0
      vertex 10.0483 61.8705 1.7875
      vertex 10.1465 61.5682 0
    endloop
  endfacet
  facet normal 0.982287 0.187381 0
    outer loop
      vertex 9.98871 62.1827 1.7875
      vertex 10.0483 61.8705 1.7875
      vertex 10.0483 61.8705 0
    endloop
  endfacet
  facet normal 0.982287 0.187381 0
    outer loop
      vertex 9.98871 62.1827 0
      vertex 9.98871 62.1827 1.7875
      vertex 10.0483 61.8705 0
    endloop
  endfacet
  facet normal 0 0 -1
    outer loop
      vertex 10.0483 13.1295 1.7875
      vertex 10.1465 13.4318 1.7875
      vertex 9.98871 12.8172 1.7875
    endloop
  endfacet
  facet normal 0 0 -1
    outer loop
      vertex 9.98871 12.8172 1.7875
      vertex 10.1465 13.4318 1.7875
      vertex 10.2818 13.7194 1.7875
    endloop
  endfacet
  facet normal 0 0 -1
    outer loop
      vertex 9.98871 12.8172 1.7875
      vertex 10.2818 13.7194 1.7875
      vertex 10.4522 13.9878 1.7875
    endloop
  endfacet
  facet normal 0 0 -1
    outer loop
      vertex 9.98871 12.8172 1.7875
      vertex 10.4522 13.9878 1.7875
      vertex 10.6548 14.2328 1.7875
    endloop
  endfacet
  facet normal 0 0 -1
    outer loop
      vertex 9.98871 12.8172 1.7875
      vertex 10.6548 14.2328 1.7875
      vertex 10.8865 14.4504 1.7875
    endloop
  endfacet
  facet normal 0 0 -1
    outer loop
      vertex 9.98871 12.8172 1.7875
      vertex 10.8865 14.4504 1.7875
      vertex 11.1437 14.6372 1.7875
    endloop
  endfacet
  facet normal 0 0 -1
    outer loop
      vertex 9.98871 12.8172 1.7875
      vertex 11.1437 14.6372 1.7875
      vertex 11.4222 14.7903 1.7875
    endloop
  endfacet
  facet normal 0 0 -1
    outer loop
      vertex 9.98871 12.8172 1.7875
      vertex 11.4222 14.7903 1.7875
      vertex 11.7178 14.9074 1.7875
    endloop
  endfacet
  facet normal 0 0 -1
    outer loop
      vertex 9.98871 12.8172 1.7875
      vertex 11.7178 14.9074 1.7875
      vertex 12.0257 14.9864 1.7875
    endloop
  endfacet
  facet normal 0 0 -1
    outer loop
      vertex 9.98871 12.8172 1.7875
      vertex 12.0257 14.9864 1.7875
      vertex 12.3411 15.0263 1.7875
    endloop
  endfacet
  facet normal 0 0 -1
    outer loop
      vertex 9.98871 12.8172 1.7875
      vertex 12.3411 15.0263 1.7875
      vertex 12.6589 15.0263 1.7875
    endloop
  endfacet
  facet normal 0 0 -1
    outer loop
      vertex 9.98871 12.8172 1.7875
      vertex 12.6589 15.0263 1.7875
      vertex 12.9743 14.9864 1.7875
    endloop
  endfacet
  facet normal 0 0 -1
    outer loop
      vertex 9.98871 12.8172 1.7875
      vertex 12.9743 14.9864 1.7875
      vertex 13.2822 14.9074 1.7875
    endloop
  endfacet
  facet normal 0 0 -1
    outer loop
      vertex 9.98871 12.8172 1.7875
      vertex 13.2822 14.9074 1.7875
      vertex 13.5778 14.7903 1.7875
    endloop
  endfacet
  facet normal 0 0 -1
    outer loop
      vertex 9.98871 12.8172 1.7875
      vertex 13.5778 14.7903 1.7875
      vertex 13.8563 14.6372 1.7875
    endloop
  endfacet
  facet normal 0 0 -1
    outer loop
      vertex 9.98871 12.8172 1.7875
      vertex 13.8563 14.6372 1.7875
      vertex 14.1135 14.4504 1.7875
    endloop
  endfacet
  facet normal 0 0 -1
    outer loop
      vertex 9.98871 12.8172 1.7875
      vertex 14.1135 14.4504 1.7875
      vertex 14.3452 14.2328 1.7875
    endloop
  endfacet
  facet normal 0 0 -1
    outer loop
      vertex 9.98871 12.8172 1.7875
      vertex 14.3452 14.2328 1.7875
      vertex 14.5478 13.9878 1.7875
    endloop
  endfacet
  facet normal 0 0 -1
    outer loop
      vertex 9.98871 12.8172 1.7875
      vertex 14.5478 13.9878 1.7875
      vertex 14.7182 13.7194 1.7875
    endloop
  endfacet
  facet normal 0 0 -1
    outer loop
      vertex 9.98871 12.8172 1.7875
      vertex 14.7182 13.7194 1.7875
      vertex 14.8535 13.4318 1.7875
    endloop
  endfacet
  facet normal 0 0 -1
    outer loop
      vertex 9.98871 12.8172 1.7875
      vertex 14.8535 13.4318 1.7875
      vertex 14.9517 13.1295 1.7875
    endloop
  endfacet
  facet normal 0 0 -1
    outer loop
      vertex 9.98871 12.8172 1.7875
      vertex 14.9517 13.1295 1.7875
      vertex 15.0113 12.8172 1.7875
    endloop
  endfacet
  facet normal 0 0 -1
    outer loop
      vertex 9.98871 12.8172 1.7875
      vertex 15.0113 12.8172 1.7875
      vertex 15.0312 12.5 1.7875
    endloop
  endfacet
  facet normal 0 0 -1
    outer loop
      vertex 9.98871 12.8172 1.7875
      vertex 15.0312 12.5 1.7875
      vertex 15.0113 12.1827 1.7875
    endloop
  endfacet
  facet normal 0 0 -1
    outer loop
      vertex 9.98871 12.8172 1.7875
      vertex 15.0113 12.1827 1.7875
      vertex 14.9517 11.8705 1.7875
    endloop
  endfacet
  facet normal 0 0 -1
    outer loop
      vertex 9.98871 12.8172 1.7875
      vertex 14.9517 11.8705 1.7875
      vertex 14.8535 11.5682 1.7875
    endloop
  endfacet
  facet normal 0 0 -1
    outer loop
      vertex 9.98871 12.8172 1.7875
      vertex 14.8535 11.5682 1.7875
      vertex 14.7182 11.2806 1.7875
    endloop
  endfacet
  facet normal 0 0 -1
    outer loop
      vertex 9.98871 12.8172 1.7875
      vertex 14.7182 11.2806 1.7875
      vertex 14.5478 11.0122 1.7875
    endloop
  endfacet
  facet normal 0 0 -1
    outer loop
      vertex 9.98871 12.8172 1.7875
      vertex 14.5478 11.0122 1.7875
      vertex 14.3452 10.7672 1.7875
    endloop
  endfacet
  facet normal 0 0 -1
    outer loop
      vertex 9.98871 12.8172 1.7875
      vertex 14.3452 10.7672 1.7875
      vertex 14.1135 10.5496 1.7875
    endloop
  endfacet
  facet normal 0 0 -1
    outer loop
      vertex 9.98871 12.8172 1.7875
      vertex 14.1135 10.5496 1.7875
      vertex 13.8563 10.3628 1.7875
    endloop
  endfacet
  facet normal 0 0 -1
    outer loop
      vertex 9.98871 12.8172 1.7875
      vertex 13.8563 10.3628 1.7875
      vertex 13.5778 10.2097 1.7875
    endloop
  endfacet
  facet normal 0 0 -1
    outer loop
      vertex 9.98871 12.8172 1.7875
      vertex 13.5778 10.2097 1.7875
      vertex 13.2822 10.0926 1.7875
    endloop
  endfacet
  facet normal 0 0 -1
    outer loop
      vertex 9.98871 12.8172 1.7875
      vertex 13.2822 10.0926 1.7875
      vertex 12.9743 10.0136 1.7875
    endloop
  endfacet
  facet normal 0 0 -1
    outer loop
      vertex 9.98871 12.8172 1.7875
      vertex 12.9743 10.0136 1.7875
      vertex 12.6589 9.97374 1.7875
    endloop
  endfacet
  facet normal 0 0 -1
    outer loop
      vertex 9.98871 12.8172 1.7875
      vertex 12.6589 9.97374 1.7875
      vertex 12.3411 9.97374 1.7875
    endloop
  endfacet
  facet normal 0 0 -1
    outer loop
      vertex 9.98871 12.8172 1.7875
      vertex 12.3411 9.97374 1.7875
      vertex 12.0257 10.0136 1.7875
    endloop
  endfacet
  facet normal 0 0 -1
    outer loop
      vertex 9.98871 12.8172 1.7875
      vertex 12.0257 10.0136 1.7875
      vertex 11.7178 10.0926 1.7875
    endloop
  endfacet
  facet normal 0 0 -1
    outer loop
      vertex 9.98871 12.8172 1.7875
      vertex 11.7178 10.0926 1.7875
      vertex 11.4222 10.2097 1.7875
    endloop
  endfacet
  facet normal 0 0 -1
    outer loop
      vertex 9.98871 12.8172 1.7875
      vertex 11.4222 10.2097 1.7875
      vertex 11.1437 10.3628 1.7875
    endloop
  endfacet
  facet normal 0 0 -1
    outer loop
      vertex 9.98871 12.8172 1.7875
      vertex 11.1437 10.3628 1.7875
      vertex 10.8865 10.5496 1.7875
    endloop
  endfacet
  facet normal 0 0 -1
    outer loop
      vertex 9.98871 12.8172 1.7875
      vertex 10.8865 10.5496 1.7875
      vertex 10.6548 10.7672 1.7875
    endloop
  endfacet
  facet normal 0 0 -1
    outer loop
      vertex 9.98871 12.8172 1.7875
      vertex 10.6548 10.7672 1.7875
      vertex 10.4522 11.0122 1.7875
    endloop
  endfacet
  facet normal 0 0 -1
    outer loop
      vertex 9.98871 12.8172 1.7875
      vertex 10.4522 11.0122 1.7875
      vertex 10.2818 11.2806 1.7875
    endloop
  endfacet
  facet normal 0 0 -1
    outer loop
      vertex 9.98871 12.8172 1.7875
      vertex 10.2818 11.2806 1.7875
      vertex 10.1465 11.5682 1.7875
    endloop
  endfacet
  facet normal 0 0 -1
    outer loop
      vertex 9.98871 12.8172 1.7875
      vertex 10.1465 11.5682 1.7875
      vertex 10.0483 11.8705 1.7875
    endloop
  endfacet
  facet normal 0 0 -1
    outer loop
      vertex 9.98871 12.8172 1.7875
      vertex 10.0483 11.8705 1.7875
      vertex 9.98871 12.1827 1.7875
    endloop
  endfacet
  facet normal 0 0 -1
    outer loop
      vertex 9.98871 12.8172 1.7875
      vertex 9.98871 12.1827 1.7875
      vertex 9.96875 12.5 1.7875
    endloop
  endfacet
  facet normal 0 0 -1
    outer loop
      vertex 10.0483 63.1295 1.7875
      vertex 10.1465 63.4318 1.7875
      vertex 9.98871 62.8172 1.7875
    endloop
  endfacet
  facet normal 0 0 -1
    outer loop
      vertex 9.98871 62.8172 1.7875
      vertex 10.1465 63.4318 1.7875
      vertex 10.2818 63.7194 1.7875
    endloop
  endfacet
  facet normal 0 0 -1
    outer loop
      vertex 9.98871 62.8172 1.7875
      vertex 10.2818 63.7194 1.7875
      vertex 10.4522 63.9878 1.7875
    endloop
  endfacet
  facet normal 0 0 -1
    outer loop
      vertex 9.98871 62.8172 1.7875
      vertex 10.4522 63.9878 1.7875
      vertex 10.6548 64.2328 1.7875
    endloop
  endfacet
  facet normal 0 0 -1
    outer loop
      vertex 9.98871 62.8172 1.7875
      vertex 10.6548 64.2328 1.7875
      vertex 10.8865 64.4504 1.7875
    endloop
  endfacet
  facet normal 0 0 -1
    outer loop
      vertex 9.98871 62.8172 1.7875
      vertex 10.8865 64.4504 1.7875
      vertex 11.1437 64.6372 1.7875
    endloop
  endfacet
  facet normal 0 0 -1
    outer loop
      vertex 9.98871 62.8172 1.7875
      vertex 11.1437 64.6372 1.7875
      vertex 11.4222 64.7903 1.7875
    endloop
  endfacet
  facet normal 0 0 -1
    outer loop
      vertex 9.98871 62.8172 1.7875
      vertex 11.4222 64.7903 1.7875
      vertex 11.7178 64.9074 1.7875
    endloop
  endfacet
  facet normal 0 0 -1
    outer loop
      vertex 9.98871 62.8172 1.7875
      vertex 11.7178 64.9074 1.7875
      vertex 12.0257 64.9864 1.7875
    endloop
  endfacet
  facet normal 0 0 -1
    outer loop
      vertex 9.98871 62.8172 1.7875
      vertex 12.0257 64.9864 1.7875
      vertex 12.3411 65.0263 1.7875
    endloop
  endfacet
  facet normal 0 0 -1
    outer loop
      vertex 9.98871 62.8172 1.7875
      vertex 12.3411 65.0263 1.7875
      vertex 12.6589 65.0263 1.7875
    endloop
  endfacet
  facet normal 0 0 -1
    outer loop
      vertex 9.98871 62.8172 1.7875
      vertex 12.6589 65.0263 1.7875
      vertex 12.9743 64.9864 1.7875
    endloop
  endfacet
  facet normal 0 0 -1
    outer loop
      vertex 9.98871 62.8172 1.7875
      vertex 12.9743 64.9864 1.7875
      vertex 13.2822 64.9074 1.7875
    endloop
  endfacet
  facet normal 0 0 -1
    outer loop
      vertex 9.98871 62.8172 1.7875
      vertex 13.2822 64.9074 1.7875
      vertex 13.5778 64.7903 1.7875
    endloop
  endfacet
  facet normal 0 0 -1
    outer loop
      vertex 9.98871 62.8172 1.7875
      vertex 13.5778 64.7903 1.7875
      vertex 13.8563 64.6372 1.7875
    endloop
  endfacet
  facet normal 0 0 -1
    outer loop
      vertex 9.98871 62.8172 1.7875
      vertex 13.8563 64.6372 1.7875
      vertex 14.1135 64.4504 1.7875
    endloop
  endfacet
  facet normal 0 0 -1
    outer loop
      vertex 9.98871 62.8172 1.7875
      vertex 14.1135 64.4504 1.7875
      vertex 14.3452 64.2328 1.7875
    endloop
  endfacet
  facet normal 0 0 -1
    outer loop
      vertex 9.98871 62.8172 1.7875
      vertex 14.3452 64.2328 1.7875
      vertex 14.5478 63.9878 1.7875
    endloop
  endfacet
  facet normal 0 0 -1
    outer loop
      vertex 9.98871 62.8172 1.7875
      vertex 14.5478 63.9878 1.7875
      vertex 14.7182 63.7194 1.7875
    endloop
  endfacet
  facet normal 0 0 -1
    outer loop
      vertex 9.98871 62.8172 1.7875
      vertex 14.7182 63.7194 1.7875
      vertex 14.8535 63.4318 1.7875
    endloop
  endfacet
  facet normal 0 0 -1
    outer loop
      vertex 9.98871 62.8172 1.7875
      vertex 14.8535 63.4318 1.7875
      vertex 14.9517 63.1295 1.7875
    endloop
  endfacet
  facet normal 0 0 -1
    outer loop
      vertex 9.98871 62.8172 1.7875
      vertex 14.9517 63.1295 1.7875
      vertex 15.0113 62.8172 1.7875
    endloop
  endfacet
  facet normal 0 0 -1
    outer loop
      vertex 9.98871 62.8172 1.7875
      vertex 15.0113 62.8172 1.7875
      vertex 15.0312 62.5 1.7875
    endloop
  endfacet
  facet normal 0 0 -1
    outer loop
      vertex 9.98871 62.8172 1.7875
      vertex 15.0312 62.5 1.7875
      vertex 15.0113 62.1827 1.7875
    endloop
  endfacet
  facet normal 0 0 -1
    outer loop
      vertex 9.98871 62.8172 1.7875
      vertex 15.0113 62.1827 1.7875
      vertex 14.9517 61.8705 1.7875
    endloop
  endfacet
  facet normal 0 0 -1
    outer loop
      vertex 9.98871 62.8172 1.7875
      vertex 14.9517 61.8705 1.7875
      vertex 14.8535 61.5682 1.7875
    endloop
  endfacet
  facet normal 0 0 -1
    outer loop
      vertex 9.98871 62.8172 1.7875
      vertex 14.8535 61.5682 1.7875
      vertex 14.7182 61.2806 1.7875
    endloop
  endfacet
  facet normal 0 0 -1
    outer loop
      vertex 9.98871 62.8172 1.7875
      vertex 14.7182 61.2806 1.7875
      vertex 14.5478 61.0122 1.7875
    endloop
  endfacet
  facet normal 0 0 -1
    outer loop
      vertex 9.98871 62.8172 1.7875
      vertex 14.5478 61.0122 1.7875
      vertex 14.3452 60.7672 1.7875
    endloop
  endfacet
  facet normal 0 0 -1
    outer loop
      vertex 9.98871 62.8172 1.7875
      vertex 14.3452 60.7672 1.7875
      vertex 14.1135 60.5496 1.7875
    endloop
  endfacet
  facet normal 0 0 -1
    outer loop
      vertex 9.98871 62.8172 1.7875
      vertex 14.1135 60.5496 1.7875
      vertex 13.8563 60.3628 1.7875
    endloop
  endfacet
  facet normal 0 0 -1
    outer loop
      vertex 9.98871 62.8172 1.7875
      vertex 13.8563 60.3628 1.7875
      vertex 13.5778 60.2097 1.7875
    endloop
  endfacet
  facet normal 0 0 -1
    outer loop
      vertex 9.98871 62.8172 1.7875
      vertex 13.5778 60.2097 1.7875
      vertex 13.2822 60.0926 1.7875
    endloop
  endfacet
  facet normal 0 0 -1
    outer loop
      vertex 9.98871 62.8172 1.7875
      vertex 13.2822 60.0926 1.7875
      vertex 12.9743 60.0136 1.7875
    endloop
  endfacet
  facet normal 0 0 -1
    outer loop
      vertex 9.98871 62.8172 1.7875
      vertex 12.9743 60.0136 1.7875
      vertex 12.6589 59.9737 1.7875
    endloop
  endfacet
  facet normal 0 0 -1
    outer loop
      vertex 9.98871 62.8172 1.7875
      vertex 12.6589 59.9737 1.7875
      vertex 12.3411 59.9737 1.7875
    endloop
  endfacet
  facet normal 0 0 -1
    outer loop
      vertex 9.98871 62.8172 1.7875
      vertex 12.3411 59.9737 1.7875
      vertex 12.0257 60.0136 1.7875
    endloop
  endfacet
  facet normal 0 0 -1
    outer loop
      vertex 9.98871 62.8172 1.7875
      vertex 12.0257 60.0136 1.7875
      vertex 11.7178 60.0926 1.7875
    endloop
  endfacet
  facet normal 0 0 -1
    outer loop
      vertex 9.98871 62.8172 1.7875
      vertex 11.7178 60.0926 1.7875
      vertex 11.4222 60.2097 1.7875
    endloop
  endfacet
  facet normal 0 0 -1
    outer loop
      vertex 9.98871 62.8172 1.7875
      vertex 11.4222 60.2097 1.7875
      vertex 11.1437 60.3628 1.7875
    endloop
  endfacet
  facet normal 0 0 -1
    outer loop
      vertex 9.98871 62.8172 1.7875
      vertex 11.1437 60.3628 1.7875
      vertex 10.8865 60.5496 1.7875
    endloop
  endfacet
  facet normal 0 0 -1
    outer loop
      vertex 9.98871 62.8172 1.7875
      vertex 10.8865 60.5496 1.7875
      vertex 10.6548 60.7672 1.7875
    endloop
  endfacet
  facet normal 0 0 -1
    outer loop
      vertex 9.98871 62.8172 1.7875
      vertex 10.6548 60.7672 1.7875
      vertex 10.4522 61.0122 1.7875
    endloop
  endfacet
  facet normal 0 0 -1
    outer loop
      vertex 9.98871 62.8172 1.7875
      vertex 10.4522 61.0122 1.7875
      vertex 10.2818 61.2806 1.7875
    endloop
  endfacet
  facet normal 0 0 -1
    outer loop
      vertex 9.98871 62.8172 1.7875
      vertex 10.2818 61.2806 1.7875
      vertex 10.1465 61.5682 1.7875
    endloop
  endfacet
  facet normal 0 0 -1
    outer loop
      vertex 9.98871 62.8172 1.7875
      vertex 10.1465 61.5682 1.7875
      vertex 10.0483 61.8705 1.7875
    endloop
  endfacet
  facet normal 0 0 -1
    outer loop
      vertex 9.98871 62.8172 1.7875
      vertex 10.0483 61.8705 1.7875
      vertex 9.98871 62.1827 1.7875
    endloop
  endfacet
  facet normal 0 0 -1
    outer loop
      vertex 9.98871 62.8172 1.7875
      vertex 9.98871 62.1827 1.7875
      vertex 9.96875 62.5 1.7875
    endloop
  endfacet
endsolid OpenSCAD_Model
