solid OpenSCAD_Model
  facet normal -1 0 0
    outer loop
      vertex 0 0 0
      vertex 0 0 7.5
      vertex 0 100 0
    endloop
  endfacet
  facet normal -1 0 0
    outer loop
      vertex 0 100 0
      vertex 0 0 7.5
      vertex 0 100 7.5
    endloop
  endfacet
  facet normal 0 -1 0
    outer loop
      vertex 0 0 7.5
      vertex 0 0 0
      vertex 100 0 0
    endloop
  endfacet
  facet normal 0 -1 0
    outer loop
      vertex 100 0 7.5
      vertex 0 0 7.5
      vertex 100 0 0
    endloop
  endfacet
  facet normal 0 0 -1
    outer loop
      vertex 2.4 93.923 0
      vertex 0 100 0
      vertex 100 0 0
    endloop
  endfacet
  facet normal 0 0 -1
    outer loop
      vertex 100 0 0
      vertex 0 100 0
      vertex 9.2 100 0
    endloop
  endfacet
  facet normal 0 0 -1
    outer loop
      vertex 100 0 0
      vertex 9.2 100 0
      vertex 109.2 0 0
    endloop
  endfacet
  facet normal 0 0 -1
    outer loop
      vertex 0 0 0
      vertex 0 100 0
      vertex 2.4 93.923 0
    endloop
  endfacet
  facet normal 0 0 -1
    outer loop
      vertex 93.923 2.4 0
      vertex 2.4 93.923 0
      vertex 100 0 0
    endloop
  endfacet
  facet normal 0 0 -1
    outer loop
      vertex 0 0 0
      vertex 2.4 93.923 0
      vertex 2.4 2.4 0
    endloop
  endfacet
  facet normal 0 0 -1
    outer loop
      vertex 0 0 0
      vertex 2.4 2.4 0
      vertex 100 0 0
    endloop
  endfacet
  facet normal 0 0 -1
    outer loop
      vertex 2.4 2.4 0
      vertex 93.923 2.4 0
      vertex 100 0 0
    endloop
  endfacet
  facet normal -1 0 0
    outer loop
      vertex 0 100 7.5
      vertex 0 100 49
      vertex 0 100 0
    endloop
  endfacet
  facet normal 0 0 1
    outer loop
      vertex 99.675 0.325 7.5
      vertex 0 0 7.5
      vertex 100 0 7.5
    endloop
  endfacet
  facet normal 0 0 1
    outer loop
      vertex 74.675 0.325 7.5
      vertex 0 0 7.5
      vertex 75.325 0.325 7.5
    endloop
  endfacet
  facet normal 0 0 1
    outer loop
      vertex 74.675 25.325 7.5
      vertex 75.325 0.325 7.5
      vertex 75.325 24.675 7.5
    endloop
  endfacet
  facet normal 0 0 1
    outer loop
      vertex 74.675 24.675 7.5
      vertex 75.325 0.325 7.5
      vertex 74.675 25.325 7.5
    endloop
  endfacet
  facet normal 0 0 1
    outer loop
      vertex 24.675 0.325 7.5
      vertex 0.325 0.325 7.5
      vertex 0 0 7.5
    endloop
  endfacet
  facet normal 0 0 1
    outer loop
      vertex 24.675 24.675 7.5
      vertex 24.675 0.325 7.5
      vertex 25.325 24.675 7.5
    endloop
  endfacet
  facet normal 0 0 1
    outer loop
      vertex 49.675 50.325 7.5
      vertex 25.325 50.325 7.5
      vertex 49.675 49.675 7.5
    endloop
  endfacet
  facet normal 0 0 1
    outer loop
      vertex 0.325 75.325 7.5
      vertex 0.325 99.675 7.5
      vertex 0 100 7.5
    endloop
  endfacet
  facet normal 0 0 1
    outer loop
      vertex 25.325 50.325 7.5
      vertex 25.325 74.675 7.5
      vertex 24.675 75.325 7.5
    endloop
  endfacet
  facet normal 0 0 1
    outer loop
      vertex 24.675 49.675 7.5
      vertex 24.675 25.325 7.5
      vertex 25.325 50.325 7.5
    endloop
  endfacet
  facet normal 0 0 1
    outer loop
      vertex 0 100 7.5
      vertex 0 0 7.5
      vertex 0.325 75.325 7.5
    endloop
  endfacet
  facet normal 0 0 1
    outer loop
      vertex 0.325 24.675 7.5
      vertex 24.675 24.675 7.5
      vertex 24.675 25.325 7.5
    endloop
  endfacet
  facet normal 0 0 1
    outer loop
      vertex 25.325 0.325 7.5
      vertex 25.325 24.675 7.5
      vertex 24.675 0.325 7.5
    endloop
  endfacet
  facet normal 0 0 1
    outer loop
      vertex 24.675 74.675 7.5
      vertex 24.675 50.325 7.5
      vertex 25.325 50.325 7.5
    endloop
  endfacet
  facet normal 0 0 1
    outer loop
      vertex 0.325 25.325 7.5
      vertex 0 0 7.5
      vertex 0.325 24.675 7.5
    endloop
  endfacet
  facet normal 0 0 1
    outer loop
      vertex 49.675 25.325 7.5
      vertex 24.675 24.675 7.5
      vertex 50.325 25.325 7.5
    endloop
  endfacet
  facet normal 0 0 1
    outer loop
      vertex 50.325 0.325 7.5
      vertex 50.325 24.675 7.5
      vertex 49.675 24.675 7.5
    endloop
  endfacet
  facet normal 0 0 1
    outer loop
      vertex 0.325 0.325 7.5
      vertex 0.325 24.675 7.5
      vertex 0 0 7.5
    endloop
  endfacet
  facet normal 0 0 1
    outer loop
      vertex 0.325 49.675 7.5
      vertex 0 0 7.5
      vertex 0.325 25.325 7.5
    endloop
  endfacet
  facet normal 0 0 1
    outer loop
      vertex 0.325 50.325 7.5
      vertex 0 0 7.5
      vertex 0.325 49.675 7.5
    endloop
  endfacet
  facet normal 0 0 1
    outer loop
      vertex 0.325 74.675 7.5
      vertex 24.675 74.675 7.5
      vertex 0.325 75.325 7.5
    endloop
  endfacet
  facet normal 0 0 1
    outer loop
      vertex 25.325 50.325 7.5
      vertex 0.325 49.675 7.5
      vertex 24.675 49.675 7.5
    endloop
  endfacet
  facet normal 0 0 1
    outer loop
      vertex 25.325 50.325 7.5
      vertex 24.675 25.325 7.5
      vertex 24.675 24.675 7.5
    endloop
  endfacet
  facet normal 0 0 1
    outer loop
      vertex 24.675 50.325 7.5
      vertex 0.325 50.325 7.5
      vertex 0.325 49.675 7.5
    endloop
  endfacet
  facet normal 0 0 1
    outer loop
      vertex 0.325 74.675 7.5
      vertex 0 0 7.5
      vertex 0.325 50.325 7.5
    endloop
  endfacet
  facet normal 0 0 1
    outer loop
      vertex 0.325 75.325 7.5
      vertex 0 0 7.5
      vertex 0.325 74.675 7.5
    endloop
  endfacet
  facet normal 0 0 1
    outer loop
      vertex 25.325 50.325 7.5
      vertex 24.675 75.325 7.5
      vertex 24.675 74.675 7.5
    endloop
  endfacet
  facet normal 0 0 1
    outer loop
      vertex 25.325 50.325 7.5
      vertex 24.675 50.325 7.5
      vertex 0.325 49.675 7.5
    endloop
  endfacet
  facet normal 0 0 1
    outer loop
      vertex 25.325 24.675 7.5
      vertex 49.675 24.675 7.5
      vertex 50.325 25.325 7.5
    endloop
  endfacet
  facet normal 0 0 1
    outer loop
      vertex 24.675 0.325 7.5
      vertex 0 0 7.5
      vertex 25.325 0.325 7.5
    endloop
  endfacet
  facet normal 0 0 1
    outer loop
      vertex 24.675 24.675 7.5
      vertex 25.325 24.675 7.5
      vertex 50.325 25.325 7.5
    endloop
  endfacet
  facet normal 0 0 1
    outer loop
      vertex 24.675 25.325 7.5
      vertex 0.325 25.325 7.5
      vertex 0.325 24.675 7.5
    endloop
  endfacet
  facet normal 0 0 1
    outer loop
      vertex 25.325 49.675 7.5
      vertex 49.675 49.675 7.5
      vertex 25.325 50.325 7.5
    endloop
  endfacet
  facet normal 0 0 1
    outer loop
      vertex 49.675 24.675 7.5
      vertex 49.675 0.325 7.5
      vertex 50.325 0.325 7.5
    endloop
  endfacet
  facet normal 0 0 1
    outer loop
      vertex 25.325 0.325 7.5
      vertex 0 0 7.5
      vertex 49.675 0.325 7.5
    endloop
  endfacet
  facet normal 0 0 1
    outer loop
      vertex 49.675 49.675 7.5
      vertex 49.675 25.325 7.5
      vertex 50.325 25.325 7.5
    endloop
  endfacet
  facet normal 0 0 1
    outer loop
      vertex 25.325 49.675 7.5
      vertex 24.675 24.675 7.5
      vertex 25.325 25.325 7.5
    endloop
  endfacet
  facet normal 0 0 1
    outer loop
      vertex 25.325 50.325 7.5
      vertex 24.675 24.675 7.5
      vertex 25.325 49.675 7.5
    endloop
  endfacet
  facet normal 0 0 1
    outer loop
      vertex 25.325 25.325 7.5
      vertex 24.675 24.675 7.5
      vertex 49.675 25.325 7.5
    endloop
  endfacet
  facet normal 0 0 1
    outer loop
      vertex 49.675 0.325 7.5
      vertex 0 0 7.5
      vertex 50.325 0.325 7.5
    endloop
  endfacet
  facet normal 0 0 1
    outer loop
      vertex 74.675 24.675 7.5
      vertex 74.675 0.325 7.5
      vertex 75.325 0.325 7.5
    endloop
  endfacet
  facet normal 0 0 1
    outer loop
      vertex 50.325 25.325 7.5
      vertex 49.675 24.675 7.5
      vertex 50.325 24.675 7.5
    endloop
  endfacet
  facet normal 0 0 1
    outer loop
      vertex 50.325 24.675 7.5
      vertex 74.675 24.675 7.5
      vertex 50.325 25.325 7.5
    endloop
  endfacet
  facet normal 0 0 1
    outer loop
      vertex 50.325 0.325 7.5
      vertex 0 0 7.5
      vertex 74.675 0.325 7.5
    endloop
  endfacet
  facet normal 0 0 1
    outer loop
      vertex 99.675 0.325 7.5
      vertex 75.325 0.325 7.5
      vertex 0 0 7.5
    endloop
  endfacet
  facet normal 0 0 1
    outer loop
      vertex 24.675 75.325 7.5
      vertex 0.325 75.325 7.5
      vertex 24.675 74.675 7.5
    endloop
  endfacet
  facet normal 0 0 1
    outer loop
      vertex 50.325 25.325 7.5
      vertex 49.675 50.325 7.5
      vertex 49.675 49.675 7.5
    endloop
  endfacet
  facet normal 0 0 1
    outer loop
      vertex 50.325 25.325 7.5
      vertex 50.325 49.675 7.5
      vertex 49.675 50.325 7.5
    endloop
  endfacet
  facet normal 0 0 1
    outer loop
      vertex 74.675 25.325 7.5
      vertex 50.325 25.325 7.5
      vertex 74.675 24.675 7.5
    endloop
  endfacet
  facet normal -0.707107 -0.707107 0
    outer loop
      vertex 0 100 49
      vertex 0 100 7.5
      vertex 0.325 99.675 7.5
    endloop
  endfacet
  facet normal -0.707107 -0.707107 0
    outer loop
      vertex 24.675 75.325 9.5
      vertex 0 100 49
      vertex 0.325 99.675 9.5
    endloop
  endfacet
  facet normal -0.707107 -0.707107 0
    outer loop
      vertex 0.325 99.675 9.5
      vertex 0 100 49
      vertex 0.325 99.675 7.5
    endloop
  endfacet
  facet normal -0.707107 -0.707107 0
    outer loop
      vertex 25.325 74.675 9.5
      vertex 0 100 49
      vertex 24.675 75.325 9.5
    endloop
  endfacet
  facet normal -0.707107 -0.707107 0
    outer loop
      vertex 25.325 74.675 7.5
      vertex 24.675 75.325 9.5
      vertex 24.675 75.325 7.5
    endloop
  endfacet
  facet normal -0.707107 -0.707107 0
    outer loop
      vertex 25.325 74.675 9.5
      vertex 24.675 75.325 9.5
      vertex 25.325 74.675 7.5
    endloop
  endfacet
  facet normal -0.707107 -0.707107 0
    outer loop
      vertex 49.675 50.325 9.5
      vertex 0 100 49
      vertex 25.325 74.675 9.5
    endloop
  endfacet
  facet normal -0.707107 -0.707107 0
    outer loop
      vertex 50.325 49.675 9.5
      vertex 0 100 49
      vertex 49.675 50.325 9.5
    endloop
  endfacet
  facet normal -0.707107 -0.707107 0
    outer loop
      vertex 50.325 49.675 7.5
      vertex 49.675 50.325 9.5
      vertex 49.675 50.325 7.5
    endloop
  endfacet
  facet normal -0.707107 -0.707107 0
    outer loop
      vertex 50.325 49.675 9.5
      vertex 49.675 50.325 9.5
      vertex 50.325 49.675 7.5
    endloop
  endfacet
  facet normal -0.707107 -0.707107 0
    outer loop
      vertex 74.675 25.325 9.5
      vertex 0 100 49
      vertex 50.325 49.675 9.5
    endloop
  endfacet
  facet normal -0.707107 -0.707107 0
    outer loop
      vertex 75.325 24.675 9.5
      vertex 0 100 49
      vertex 74.675 25.325 9.5
    endloop
  endfacet
  facet normal -0.707107 -0.707107 0
    outer loop
      vertex 75.325 24.675 7.5
      vertex 74.675 25.325 9.5
      vertex 74.675 25.325 7.5
    endloop
  endfacet
  facet normal -0.707107 -0.707107 0
    outer loop
      vertex 75.325 24.675 9.5
      vertex 74.675 25.325 9.5
      vertex 75.325 24.675 7.5
    endloop
  endfacet
  facet normal -0.707107 -0.707107 0
    outer loop
      vertex 99.675 0.325 9.5
      vertex 0 100 49
      vertex 75.325 24.675 9.5
    endloop
  endfacet
  facet normal -0.707107 -0.707107 0
    outer loop
      vertex 100 0 49
      vertex 0 100 49
      vertex 99.675 0.325 9.5
    endloop
  endfacet
  facet normal -0.707107 -0.707107 0
    outer loop
      vertex 100 0 7.5
      vertex 99.675 0.325 9.5
      vertex 99.675 0.325 7.5
    endloop
  endfacet
  facet normal -0.707107 -0.707107 0
    outer loop
      vertex 100 0 49
      vertex 99.675 0.325 9.5
      vertex 100 0 7.5
    endloop
  endfacet
  facet normal 0 -1 0
    outer loop
      vertex 109.2 0 0
      vertex 109.2 0 49
      vertex 100 0 49
    endloop
  endfacet
  facet normal 0 -1 0
    outer loop
      vertex 100 0 0
      vertex 109.2 0 0
      vertex 100 0 7.5
    endloop
  endfacet
  facet normal 0 -1 0
    outer loop
      vertex 100 0 7.5
      vertex 109.2 0 0
      vertex 100 0 49
    endloop
  endfacet
  facet normal 0.707107 0.707107 0
    outer loop
      vertex 9.2 100 0
      vertex 9.2 100 49
      vertex 109.2 0 0
    endloop
  endfacet
  facet normal 0.707107 0.707107 0
    outer loop
      vertex 109.2 0 0
      vertex 9.2 100 49
      vertex 109.2 0 49
    endloop
  endfacet
  facet normal 0 1 0
    outer loop
      vertex 9.2 100 49
      vertex 9.2 100 0
      vertex 0 100 49
    endloop
  endfacet
  facet normal 0 1 0
    outer loop
      vertex 0 100 49
      vertex 9.2 100 0
      vertex 0 100 0
    endloop
  endfacet
  facet normal 1 0 0
    outer loop
      vertex 2.4 93.923 0
      vertex 2.4 93.923 2.2
      vertex 2.4 2.4 2.2
    endloop
  endfacet
  facet normal 1 0 0
    outer loop
      vertex 2.4 2.4 0
      vertex 2.4 93.923 0
      vertex 2.4 2.4 2.2
    endloop
  endfacet
  facet normal -0.707107 -0.707107 0
    outer loop
      vertex 2.4 93.923 2.2
      vertex 2.4 93.923 0
      vertex 93.923 2.4 0
    endloop
  endfacet
  facet normal -0.707107 -0.707107 0
    outer loop
      vertex 93.923 2.4 2.2
      vertex 2.4 93.923 2.2
      vertex 93.923 2.4 0
    endloop
  endfacet
  facet normal 0 1 0
    outer loop
      vertex 93.923 2.4 2.2
      vertex 93.923 2.4 0
      vertex 2.4 2.4 2.2
    endloop
  endfacet
  facet normal 0 1 0
    outer loop
      vertex 2.4 2.4 2.2
      vertex 93.923 2.4 0
      vertex 2.4 2.4 0
    endloop
  endfacet
  facet normal 0 0 1
    outer loop
      vertex 9.2 100 49
      vertex 0 100 49
      vertex 109.2 0 49
    endloop
  endfacet
  facet normal 0 0 1
    outer loop
      vertex 109.2 0 49
      vertex 0 100 49
      vertex 100 0 49
    endloop
  endfacet
  facet normal -1 0 0
    outer loop
      vertex 0.325 75.325 7.5
      vertex 0.325 75.325 9.5
      vertex 0.325 99.675 7.5
    endloop
  endfacet
  facet normal -1 0 0
    outer loop
      vertex 0.325 99.675 7.5
      vertex 0.325 75.325 9.5
      vertex 0.325 99.675 9.5
    endloop
  endfacet
  facet normal 0 -1 0
    outer loop
      vertex 0.325 75.325 9.5
      vertex 0.325 75.325 7.5
      vertex 24.675 75.325 7.5
    endloop
  endfacet
  facet normal 0 -1 0
    outer loop
      vertex 24.675 75.325 9.5
      vertex 0.325 75.325 9.5
      vertex 24.675 75.325 7.5
    endloop
  endfacet
  facet normal -1 0 0
    outer loop
      vertex 25.325 50.325 7.5
      vertex 25.325 50.325 9.5
      vertex 25.325 74.675 7.5
    endloop
  endfacet
  facet normal -1 0 0
    outer loop
      vertex 25.325 74.675 7.5
      vertex 25.325 50.325 9.5
      vertex 25.325 74.675 9.5
    endloop
  endfacet
  facet normal 0 -1 0
    outer loop
      vertex 25.325 50.325 9.5
      vertex 25.325 50.325 7.5
      vertex 49.675 50.325 7.5
    endloop
  endfacet
  facet normal 0 -1 0
    outer loop
      vertex 49.675 50.325 9.5
      vertex 25.325 50.325 9.5
      vertex 49.675 50.325 7.5
    endloop
  endfacet
  facet normal -1 0 0
    outer loop
      vertex 50.325 25.325 7.5
      vertex 50.325 25.325 9.5
      vertex 50.325 49.675 7.5
    endloop
  endfacet
  facet normal -1 0 0
    outer loop
      vertex 50.325 49.675 7.5
      vertex 50.325 25.325 9.5
      vertex 50.325 49.675 9.5
    endloop
  endfacet
  facet normal 0 -1 0
    outer loop
      vertex 50.325 25.325 9.5
      vertex 50.325 25.325 7.5
      vertex 74.675 25.325 7.5
    endloop
  endfacet
  facet normal 0 -1 0
    outer loop
      vertex 74.675 25.325 9.5
      vertex 50.325 25.325 9.5
      vertex 74.675 25.325 7.5
    endloop
  endfacet
  facet normal -1 0 0
    outer loop
      vertex 75.325 0.325 7.5
      vertex 75.325 0.325 9.5
      vertex 75.325 24.675 7.5
    endloop
  endfacet
  facet normal -1 0 0
    outer loop
      vertex 75.325 24.675 7.5
      vertex 75.325 0.325 9.5
      vertex 75.325 24.675 9.5
    endloop
  endfacet
  facet normal 0 -1 0
    outer loop
      vertex 75.325 0.325 9.5
      vertex 75.325 0.325 7.5
      vertex 99.675 0.325 7.5
    endloop
  endfacet
  facet normal 0 -1 0
    outer loop
      vertex 99.675 0.325 9.5
      vertex 75.325 0.325 9.5
      vertex 99.675 0.325 7.5
    endloop
  endfacet
  facet normal -1 0 0
    outer loop
      vertex 0.325 0.325 7.5
      vertex 0.325 0.325 9.5
      vertex 0.325 24.675 7.5
    endloop
  endfacet
  facet normal -1 0 0
    outer loop
      vertex 0.325 24.675 7.5
      vertex 0.325 0.325 9.5
      vertex 0.325 24.675 9.5
    endloop
  endfacet
  facet normal 0 -1 0
    outer loop
      vertex 0.325 0.325 9.5
      vertex 0.325 0.325 7.5
      vertex 24.675 0.325 7.5
    endloop
  endfacet
  facet normal 0 -1 0
    outer loop
      vertex 24.675 0.325 9.5
      vertex 0.325 0.325 9.5
      vertex 24.675 0.325 7.5
    endloop
  endfacet
  facet normal 1 0 0
    outer loop
      vertex 24.675 0.325 9.5
      vertex 24.675 0.325 7.5
      vertex 24.675 24.675 7.5
    endloop
  endfacet
  facet normal 1 0 0
    outer loop
      vertex 24.675 24.675 9.5
      vertex 24.675 0.325 9.5
      vertex 24.675 24.675 7.5
    endloop
  endfacet
  facet normal 0 1 0
    outer loop
      vertex 0.325 24.675 7.5
      vertex 0.325 24.675 9.5
      vertex 24.675 24.675 7.5
    endloop
  endfacet
  facet normal 0 1 0
    outer loop
      vertex 24.675 24.675 7.5
      vertex 0.325 24.675 9.5
      vertex 24.675 24.675 9.5
    endloop
  endfacet
  facet normal -1 0 0
    outer loop
      vertex 0.325 25.325 7.5
      vertex 0.325 25.325 9.5
      vertex 0.325 49.675 7.5
    endloop
  endfacet
  facet normal -1 0 0
    outer loop
      vertex 0.325 49.675 7.5
      vertex 0.325 25.325 9.5
      vertex 0.325 49.675 9.5
    endloop
  endfacet
  facet normal 0 -1 0
    outer loop
      vertex 0.325 25.325 9.5
      vertex 0.325 25.325 7.5
      vertex 24.675 25.325 7.5
    endloop
  endfacet
  facet normal 0 -1 0
    outer loop
      vertex 24.675 25.325 9.5
      vertex 0.325 25.325 9.5
      vertex 24.675 25.325 7.5
    endloop
  endfacet
  facet normal 1 0 0
    outer loop
      vertex 24.675 25.325 9.5
      vertex 24.675 25.325 7.5
      vertex 24.675 49.675 7.5
    endloop
  endfacet
  facet normal 1 0 0
    outer loop
      vertex 24.675 49.675 9.5
      vertex 24.675 25.325 9.5
      vertex 24.675 49.675 7.5
    endloop
  endfacet
  facet normal 0 1 0
    outer loop
      vertex 0.325 49.675 7.5
      vertex 0.325 49.675 9.5
      vertex 24.675 49.675 7.5
    endloop
  endfacet
  facet normal 0 1 0
    outer loop
      vertex 24.675 49.675 7.5
      vertex 0.325 49.675 9.5
      vertex 24.675 49.675 9.5
    endloop
  endfacet
  facet normal -1 0 0
    outer loop
      vertex 0.325 50.325 7.5
      vertex 0.325 50.325 9.5
      vertex 0.325 74.675 7.5
    endloop
  endfacet
  facet normal -1 0 0
    outer loop
      vertex 0.325 74.675 7.5
      vertex 0.325 50.325 9.5
      vertex 0.325 74.675 9.5
    endloop
  endfacet
  facet normal 0 -1 0
    outer loop
      vertex 0.325 50.325 9.5
      vertex 0.325 50.325 7.5
      vertex 24.675 50.325 7.5
    endloop
  endfacet
  facet normal 0 -1 0
    outer loop
      vertex 24.675 50.325 9.5
      vertex 0.325 50.325 9.5
      vertex 24.675 50.325 7.5
    endloop
  endfacet
  facet normal 1 0 0
    outer loop
      vertex 24.675 50.325 9.5
      vertex 24.675 50.325 7.5
      vertex 24.675 74.675 7.5
    endloop
  endfacet
  facet normal 1 0 0
    outer loop
      vertex 24.675 74.675 9.5
      vertex 24.675 50.325 9.5
      vertex 24.675 74.675 7.5
    endloop
  endfacet
  facet normal 0 1 0
    outer loop
      vertex 0.325 74.675 7.5
      vertex 0.325 74.675 9.5
      vertex 24.675 74.675 7.5
    endloop
  endfacet
  facet normal 0 1 0
    outer loop
      vertex 24.675 74.675 7.5
      vertex 0.325 74.675 9.5
      vertex 24.675 74.675 9.5
    endloop
  endfacet
  facet normal -1 0 0
    outer loop
      vertex 25.325 0.325 7.5
      vertex 25.325 0.325 9.5
      vertex 25.325 24.675 7.5
    endloop
  endfacet
  facet normal -1 0 0
    outer loop
      vertex 25.325 24.675 7.5
      vertex 25.325 0.325 9.5
      vertex 25.325 24.675 9.5
    endloop
  endfacet
  facet normal 0 -1 0
    outer loop
      vertex 25.325 0.325 9.5
      vertex 25.325 0.325 7.5
      vertex 49.675 0.325 7.5
    endloop
  endfacet
  facet normal 0 -1 0
    outer loop
      vertex 49.675 0.325 9.5
      vertex 25.325 0.325 9.5
      vertex 49.675 0.325 7.5
    endloop
  endfacet
  facet normal 1 0 0
    outer loop
      vertex 49.675 0.325 9.5
      vertex 49.675 0.325 7.5
      vertex 49.675 24.675 7.5
    endloop
  endfacet
  facet normal 1 0 0
    outer loop
      vertex 49.675 24.675 9.5
      vertex 49.675 0.325 9.5
      vertex 49.675 24.675 7.5
    endloop
  endfacet
  facet normal 0 1 0
    outer loop
      vertex 25.325 24.675 7.5
      vertex 25.325 24.675 9.5
      vertex 49.675 24.675 7.5
    endloop
  endfacet
  facet normal 0 1 0
    outer loop
      vertex 49.675 24.675 7.5
      vertex 25.325 24.675 9.5
      vertex 49.675 24.675 9.5
    endloop
  endfacet
  facet normal -1 0 0
    outer loop
      vertex 25.325 25.325 7.5
      vertex 25.325 25.325 9.5
      vertex 25.325 49.675 7.5
    endloop
  endfacet
  facet normal -1 0 0
    outer loop
      vertex 25.325 49.675 7.5
      vertex 25.325 25.325 9.5
      vertex 25.325 49.675 9.5
    endloop
  endfacet
  facet normal 0 -1 0
    outer loop
      vertex 25.325 25.325 9.5
      vertex 25.325 25.325 7.5
      vertex 49.675 25.325 7.5
    endloop
  endfacet
  facet normal 0 -1 0
    outer loop
      vertex 49.675 25.325 9.5
      vertex 25.325 25.325 9.5
      vertex 49.675 25.325 7.5
    endloop
  endfacet
  facet normal 1 0 0
    outer loop
      vertex 49.675 25.325 9.5
      vertex 49.675 25.325 7.5
      vertex 49.675 49.675 7.5
    endloop
  endfacet
  facet normal 1 0 0
    outer loop
      vertex 49.675 49.675 9.5
      vertex 49.675 25.325 9.5
      vertex 49.675 49.675 7.5
    endloop
  endfacet
  facet normal 0 1 0
    outer loop
      vertex 25.325 49.675 7.5
      vertex 25.325 49.675 9.5
      vertex 49.675 49.675 7.5
    endloop
  endfacet
  facet normal 0 1 0
    outer loop
      vertex 49.675 49.675 7.5
      vertex 25.325 49.675 9.5
      vertex 49.675 49.675 9.5
    endloop
  endfacet
  facet normal -1 0 0
    outer loop
      vertex 50.325 0.325 7.5
      vertex 50.325 0.325 9.5
      vertex 50.325 24.675 7.5
    endloop
  endfacet
  facet normal -1 0 0
    outer loop
      vertex 50.325 24.675 7.5
      vertex 50.325 0.325 9.5
      vertex 50.325 24.675 9.5
    endloop
  endfacet
  facet normal 0 -1 0
    outer loop
      vertex 50.325 0.325 9.5
      vertex 50.325 0.325 7.5
      vertex 74.675 0.325 7.5
    endloop
  endfacet
  facet normal 0 -1 0
    outer loop
      vertex 74.675 0.325 9.5
      vertex 50.325 0.325 9.5
      vertex 74.675 0.325 7.5
    endloop
  endfacet
  facet normal 1 0 0
    outer loop
      vertex 74.675 0.325 9.5
      vertex 74.675 0.325 7.5
      vertex 74.675 24.675 7.5
    endloop
  endfacet
  facet normal 1 0 0
    outer loop
      vertex 74.675 24.675 9.5
      vertex 74.675 0.325 9.5
      vertex 74.675 24.675 7.5
    endloop
  endfacet
  facet normal 0 1 0
    outer loop
      vertex 50.325 24.675 7.5
      vertex 50.325 24.675 9.5
      vertex 74.675 24.675 7.5
    endloop
  endfacet
  facet normal 0 1 0
    outer loop
      vertex 74.675 24.675 7.5
      vertex 50.325 24.675 9.5
      vertex 74.675 24.675 9.5
    endloop
  endfacet
  facet normal 0 0 1
    outer loop
      vertex 75.325 24.675 9.5
      vertex 75.325 0.325 9.5
      vertex 99.675 0.325 9.5
    endloop
  endfacet
  facet normal 0 0 1
    outer loop
      vertex 50.325 49.675 9.5
      vertex 50.325 25.325 9.5
      vertex 74.675 25.325 9.5
    endloop
  endfacet
  facet normal 0 0 1
    outer loop
      vertex 25.325 74.675 9.5
      vertex 25.325 50.325 9.5
      vertex 49.675 50.325 9.5
    endloop
  endfacet
  facet normal 0 0 1
    outer loop
      vertex 0.325 99.675 9.5
      vertex 0.325 75.325 9.5
      vertex 24.675 75.325 9.5
    endloop
  endfacet
  facet normal 0 0 -1
    outer loop
      vertex 3.8 3.8 2.2
      vertex 2.4 2.4 2.2
      vertex 2.4 93.923 2.2
    endloop
  endfacet
  facet normal 0 0 -1
    outer loop
      vertex 3.8 90.5431 2.2
      vertex 3.8 3.8 2.2
      vertex 2.4 93.923 2.2
    endloop
  endfacet
  facet normal 0 0 -1
    outer loop
      vertex 93.923 2.4 2.2
      vertex 2.4 2.4 2.2
      vertex 3.8 3.8 2.2
    endloop
  endfacet
  facet normal 0 0 -1
    outer loop
      vertex 93.923 2.4 2.2
      vertex 3.8 3.8 2.2
      vertex 90.5431 3.8 2.2
    endloop
  endfacet
  facet normal 0 0 -1
    outer loop
      vertex 93.923 2.4 2.2
      vertex 90.5431 3.8 2.2
      vertex 2.4 93.923 2.2
    endloop
  endfacet
  facet normal 0 0 -1
    outer loop
      vertex 90.5431 3.8 2.2
      vertex 3.8 90.5431 2.2
      vertex 2.4 93.923 2.2
    endloop
  endfacet
  facet normal 0 0 1
    outer loop
      vertex 0.325 24.675 9.5
      vertex 0.325 0.325 9.5
      vertex 24.675 0.325 9.5
    endloop
  endfacet
  facet normal 0 0 1
    outer loop
      vertex 24.675 24.675 9.5
      vertex 0.325 24.675 9.5
      vertex 24.675 0.325 9.5
    endloop
  endfacet
  facet normal 0 0 1
    outer loop
      vertex 0.325 49.675 9.5
      vertex 0.325 25.325 9.5
      vertex 24.675 25.325 9.5
    endloop
  endfacet
  facet normal 0 0 1
    outer loop
      vertex 24.675 49.675 9.5
      vertex 0.325 49.675 9.5
      vertex 24.675 25.325 9.5
    endloop
  endfacet
  facet normal 0 0 1
    outer loop
      vertex 0.325 74.675 9.5
      vertex 0.325 50.325 9.5
      vertex 24.675 50.325 9.5
    endloop
  endfacet
  facet normal 0 0 1
    outer loop
      vertex 24.675 74.675 9.5
      vertex 0.325 74.675 9.5
      vertex 24.675 50.325 9.5
    endloop
  endfacet
  facet normal 0 0 1
    outer loop
      vertex 25.325 24.675 9.5
      vertex 25.325 0.325 9.5
      vertex 49.675 0.325 9.5
    endloop
  endfacet
  facet normal 0 0 1
    outer loop
      vertex 49.675 24.675 9.5
      vertex 25.325 24.675 9.5
      vertex 49.675 0.325 9.5
    endloop
  endfacet
  facet normal 0 0 1
    outer loop
      vertex 25.325 49.675 9.5
      vertex 25.325 25.325 9.5
      vertex 49.675 25.325 9.5
    endloop
  endfacet
  facet normal 0 0 1
    outer loop
      vertex 49.675 49.675 9.5
      vertex 25.325 49.675 9.5
      vertex 49.675 25.325 9.5
    endloop
  endfacet
  facet normal 0 0 1
    outer loop
      vertex 50.325 24.675 9.5
      vertex 50.325 0.325 9.5
      vertex 74.675 0.325 9.5
    endloop
  endfacet
  facet normal 0 0 1
    outer loop
      vertex 74.675 24.675 9.5
      vertex 50.325 24.675 9.5
      vertex 74.675 0.325 9.5
    endloop
  endfacet
  facet normal -1 0 0
    outer loop
      vertex 3.8 3.8 0
      vertex 3.8 3.8 2.2
      vertex 3.8 90.5431 0
    endloop
  endfacet
  facet normal -1 0 0
    outer loop
      vertex 3.8 90.5431 0
      vertex 3.8 3.8 2.2
      vertex 3.8 90.5431 2.2
    endloop
  endfacet
  facet normal 0 -1 0
    outer loop
      vertex 3.8 3.8 2.2
      vertex 3.8 3.8 0
      vertex 90.5431 3.8 0
    endloop
  endfacet
  facet normal 0 -1 0
    outer loop
      vertex 90.5431 3.8 2.2
      vertex 3.8 3.8 2.2
      vertex 90.5431 3.8 0
    endloop
  endfacet
  facet normal 0.707107 0.707107 0
    outer loop
      vertex 90.5431 3.8 2.2
      vertex 90.5431 3.8 0
      vertex 3.8 90.5431 2.2
    endloop
  endfacet
  facet normal 0.707107 0.707107 0
    outer loop
      vertex 3.8 90.5431 2.2
      vertex 90.5431 3.8 0
      vertex 3.8 90.5431 0
    endloop
  endfacet
  facet normal 0 0 -1
    outer loop
      vertex 31.3535 29.9318 0
      vertex 3.8 90.5431 0
      vertex 90.5431 3.8 0
    endloop
  endfacet
  facet normal 0 0 -1
    outer loop
      vertex 3.8 3.8 0
      vertex 3.8 90.5431 0
      vertex 26.4688 29 0
    endloop
  endfacet
  facet normal 0 0 -1
    outer loop
      vertex 3.8 3.8 0
      vertex 26.4688 29 0
      vertex 26.4887 28.6827 0
    endloop
  endfacet
  facet normal 0 0 -1
    outer loop
      vertex 3.8 3.8 0
      vertex 26.4887 28.6827 0
      vertex 26.5483 28.3705 0
    endloop
  endfacet
  facet normal 0 0 -1
    outer loop
      vertex 3.8 3.8 0
      vertex 26.5483 28.3705 0
      vertex 26.6465 28.0682 0
    endloop
  endfacet
  facet normal 0 0 -1
    outer loop
      vertex 3.8 3.8 0
      vertex 26.6465 28.0682 0
      vertex 26.7818 27.7806 0
    endloop
  endfacet
  facet normal 0 0 -1
    outer loop
      vertex 3.8 3.8 0
      vertex 26.7818 27.7806 0
      vertex 26.9522 27.5122 0
    endloop
  endfacet
  facet normal 0 0 -1
    outer loop
      vertex 3.8 3.8 0
      vertex 26.9522 27.5122 0
      vertex 27.1548 27.2672 0
    endloop
  endfacet
  facet normal 0 0 -1
    outer loop
      vertex 3.8 3.8 0
      vertex 27.1548 27.2672 0
      vertex 27.3865 27.0496 0
    endloop
  endfacet
  facet normal 0 0 -1
    outer loop
      vertex 3.8 3.8 0
      vertex 27.3865 27.0496 0
      vertex 27.6437 26.8628 0
    endloop
  endfacet
  facet normal 0 0 -1
    outer loop
      vertex 3.8 3.8 0
      vertex 27.6437 26.8628 0
      vertex 27.9222 26.7097 0
    endloop
  endfacet
  facet normal 0 0 -1
    outer loop
      vertex 3.8 3.8 0
      vertex 27.9222 26.7097 0
      vertex 28.2178 26.5926 0
    endloop
  endfacet
  facet normal 0 0 -1
    outer loop
      vertex 3.8 3.8 0
      vertex 28.2178 26.5926 0
      vertex 90.5431 3.8 0
    endloop
  endfacet
  facet normal 0 0 -1
    outer loop
      vertex 28.8411 26.4737 0
      vertex 90.5431 3.8 0
      vertex 28.5257 26.5136 0
    endloop
  endfacet
  facet normal 0 0 -1
    outer loop
      vertex 29.1589 26.4737 0
      vertex 90.5431 3.8 0
      vertex 28.8411 26.4737 0
    endloop
  endfacet
  facet normal 0 0 -1
    outer loop
      vertex 29.4743 26.5136 0
      vertex 90.5431 3.8 0
      vertex 29.1589 26.4737 0
    endloop
  endfacet
  facet normal 0 0 -1
    outer loop
      vertex 29.7822 26.5926 0
      vertex 90.5431 3.8 0
      vertex 29.4743 26.5136 0
    endloop
  endfacet
  facet normal 0 0 -1
    outer loop
      vertex 30.0778 26.7097 0
      vertex 90.5431 3.8 0
      vertex 29.7822 26.5926 0
    endloop
  endfacet
  facet normal 0 0 -1
    outer loop
      vertex 30.3563 26.8628 0
      vertex 90.5431 3.8 0
      vertex 30.0778 26.7097 0
    endloop
  endfacet
  facet normal 0 0 -1
    outer loop
      vertex 30.6135 27.0496 0
      vertex 90.5431 3.8 0
      vertex 30.3563 26.8628 0
    endloop
  endfacet
  facet normal 0 0 -1
    outer loop
      vertex 30.8452 27.2672 0
      vertex 90.5431 3.8 0
      vertex 30.6135 27.0496 0
    endloop
  endfacet
  facet normal 0 0 -1
    outer loop
      vertex 31.0478 27.5122 0
      vertex 90.5431 3.8 0
      vertex 30.8452 27.2672 0
    endloop
  endfacet
  facet normal 0 0 -1
    outer loop
      vertex 31.0478 30.4878 0
      vertex 3.8 90.5431 0
      vertex 31.2182 30.2194 0
    endloop
  endfacet
  facet normal 0 0 -1
    outer loop
      vertex 29.1589 31.5263 0
      vertex 3.8 90.5431 0
      vertex 29.4743 31.4864 0
    endloop
  endfacet
  facet normal 0 0 -1
    outer loop
      vertex 31.0478 27.5122 0
      vertex 31.2182 27.7806 0
      vertex 90.5431 3.8 0
    endloop
  endfacet
  facet normal 0 0 -1
    outer loop
      vertex 29.4743 31.4864 0
      vertex 3.8 90.5431 0
      vertex 29.7822 31.4074 0
    endloop
  endfacet
  facet normal 0 0 -1
    outer loop
      vertex 31.2182 27.7806 0
      vertex 31.3535 28.0682 0
      vertex 90.5431 3.8 0
    endloop
  endfacet
  facet normal 0 0 -1
    outer loop
      vertex 29.7822 31.4074 0
      vertex 3.8 90.5431 0
      vertex 30.0778 31.2903 0
    endloop
  endfacet
  facet normal 0 0 -1
    outer loop
      vertex 31.3535 28.0682 0
      vertex 31.4517 28.3705 0
      vertex 90.5431 3.8 0
    endloop
  endfacet
  facet normal 0 0 -1
    outer loop
      vertex 30.0778 31.2903 0
      vertex 3.8 90.5431 0
      vertex 30.3563 31.1372 0
    endloop
  endfacet
  facet normal 0 0 -1
    outer loop
      vertex 31.4517 28.3705 0
      vertex 31.5113 28.6827 0
      vertex 90.5431 3.8 0
    endloop
  endfacet
  facet normal 0 0 -1
    outer loop
      vertex 30.3563 31.1372 0
      vertex 3.8 90.5431 0
      vertex 30.6135 30.9504 0
    endloop
  endfacet
  facet normal 0 0 -1
    outer loop
      vertex 31.5113 28.6827 0
      vertex 31.5312 29 0
      vertex 90.5431 3.8 0
    endloop
  endfacet
  facet normal 0 0 -1
    outer loop
      vertex 30.6135 30.9504 0
      vertex 3.8 90.5431 0
      vertex 30.8452 30.7328 0
    endloop
  endfacet
  facet normal 0 0 -1
    outer loop
      vertex 31.5312 29 0
      vertex 31.5113 29.3172 0
      vertex 90.5431 3.8 0
    endloop
  endfacet
  facet normal 0 0 -1
    outer loop
      vertex 30.8452 30.7328 0
      vertex 3.8 90.5431 0
      vertex 31.0478 30.4878 0
    endloop
  endfacet
  facet normal 0 0 -1
    outer loop
      vertex 31.5113 29.3172 0
      vertex 31.4517 29.6295 0
      vertex 90.5431 3.8 0
    endloop
  endfacet
  facet normal 0 0 -1
    outer loop
      vertex 31.2182 30.2194 0
      vertex 3.8 90.5431 0
      vertex 31.3535 29.9318 0
    endloop
  endfacet
  facet normal 0 0 -1
    outer loop
      vertex 31.4517 29.6295 0
      vertex 31.3535 29.9318 0
      vertex 90.5431 3.8 0
    endloop
  endfacet
  facet normal 0 0 -1
    outer loop
      vertex 28.8411 31.5263 0
      vertex 3.8 90.5431 0
      vertex 29.1589 31.5263 0
    endloop
  endfacet
  facet normal 0 0 -1
    outer loop
      vertex 28.5257 31.4864 0
      vertex 3.8 90.5431 0
      vertex 28.8411 31.5263 0
    endloop
  endfacet
  facet normal 0 0 -1
    outer loop
      vertex 28.2178 31.4074 0
      vertex 3.8 90.5431 0
      vertex 28.5257 31.4864 0
    endloop
  endfacet
  facet normal 0 0 -1
    outer loop
      vertex 27.9222 31.2903 0
      vertex 3.8 90.5431 0
      vertex 28.2178 31.4074 0
    endloop
  endfacet
  facet normal 0 0 -1
    outer loop
      vertex 27.6437 31.1372 0
      vertex 3.8 90.5431 0
      vertex 27.9222 31.2903 0
    endloop
  endfacet
  facet normal 0 0 -1
    outer loop
      vertex 27.3865 30.9504 0
      vertex 3.8 90.5431 0
      vertex 27.6437 31.1372 0
    endloop
  endfacet
  facet normal 0 0 -1
    outer loop
      vertex 27.1548 30.7328 0
      vertex 3.8 90.5431 0
      vertex 27.3865 30.9504 0
    endloop
  endfacet
  facet normal 0 0 -1
    outer loop
      vertex 26.9522 30.4878 0
      vertex 3.8 90.5431 0
      vertex 27.1548 30.7328 0
    endloop
  endfacet
  facet normal 0 0 -1
    outer loop
      vertex 26.7818 30.2194 0
      vertex 3.8 90.5431 0
      vertex 26.9522 30.4878 0
    endloop
  endfacet
  facet normal 0 0 -1
    outer loop
      vertex 26.6465 29.9318 0
      vertex 3.8 90.5431 0
      vertex 26.7818 30.2194 0
    endloop
  endfacet
  facet normal 0 0 -1
    outer loop
      vertex 26.5483 29.6295 0
      vertex 3.8 90.5431 0
      vertex 26.6465 29.9318 0
    endloop
  endfacet
  facet normal 0 0 -1
    outer loop
      vertex 26.4887 29.3172 0
      vertex 3.8 90.5431 0
      vertex 26.5483 29.6295 0
    endloop
  endfacet
  facet normal 0 0 -1
    outer loop
      vertex 26.4688 29 0
      vertex 3.8 90.5431 0
      vertex 26.4887 29.3172 0
    endloop
  endfacet
  facet normal 0 0 -1
    outer loop
      vertex 28.5257 26.5136 0
      vertex 90.5431 3.8 0
      vertex 28.2178 26.5926 0
    endloop
  endfacet
  facet normal 0.998027 -0.0627915 0
    outer loop
      vertex 26.4887 29.3172 0
      vertex 26.4887 29.3172 1.7875
      vertex 26.4688 29 1.7875
    endloop
  endfacet
  facet normal 0.998027 -0.0627915 0
    outer loop
      vertex 26.4688 29 0
      vertex 26.4887 29.3172 0
      vertex 26.4688 29 1.7875
    endloop
  endfacet
  facet normal 0.998027 0.0627915 0
    outer loop
      vertex 26.4688 29 1.7875
      vertex 26.4887 28.6827 1.7875
      vertex 26.4887 28.6827 0
    endloop
  endfacet
  facet normal 0.998027 0.0627915 0
    outer loop
      vertex 26.4688 29 0
      vertex 26.4688 29 1.7875
      vertex 26.4887 28.6827 0
    endloop
  endfacet
  facet normal 0.982287 -0.187381 0
    outer loop
      vertex 26.5483 29.6295 0
      vertex 26.5483 29.6295 1.7875
      vertex 26.4887 29.3172 1.7875
    endloop
  endfacet
  facet normal 0.982287 -0.187381 0
    outer loop
      vertex 26.4887 29.3172 0
      vertex 26.5483 29.6295 0
      vertex 26.4887 29.3172 1.7875
    endloop
  endfacet
  facet normal 0.951057 -0.309016 0
    outer loop
      vertex 26.6465 29.9318 0
      vertex 26.6465 29.9318 1.7875
      vertex 26.5483 29.6295 1.7875
    endloop
  endfacet
  facet normal 0.951057 -0.309016 0
    outer loop
      vertex 26.5483 29.6295 0
      vertex 26.6465 29.9318 0
      vertex 26.5483 29.6295 1.7875
    endloop
  endfacet
  facet normal 0.904827 -0.42578 0
    outer loop
      vertex 26.7818 30.2194 0
      vertex 26.7818 30.2194 1.7875
      vertex 26.6465 29.9318 1.7875
    endloop
  endfacet
  facet normal 0.904827 -0.42578 0
    outer loop
      vertex 26.6465 29.9318 0
      vertex 26.7818 30.2194 0
      vertex 26.6465 29.9318 1.7875
    endloop
  endfacet
  facet normal 0.844328 -0.535827 0
    outer loop
      vertex 26.9522 30.4878 0
      vertex 26.9522 30.4878 1.7875
      vertex 26.7818 30.2194 1.7875
    endloop
  endfacet
  facet normal 0.844328 -0.535827 0
    outer loop
      vertex 26.7818 30.2194 0
      vertex 26.9522 30.4878 0
      vertex 26.7818 30.2194 1.7875
    endloop
  endfacet
  facet normal 0.770515 -0.637422 0
    outer loop
      vertex 27.1548 30.7328 0
      vertex 27.1548 30.7328 1.7875
      vertex 26.9522 30.4878 1.7875
    endloop
  endfacet
  facet normal 0.770515 -0.637422 0
    outer loop
      vertex 26.9522 30.4878 0
      vertex 27.1548 30.7328 0
      vertex 26.9522 30.4878 1.7875
    endloop
  endfacet
  facet normal 0.684546 -0.728969 0
    outer loop
      vertex 27.3865 30.9504 0
      vertex 27.3865 30.9504 1.7875
      vertex 27.1548 30.7328 1.7875
    endloop
  endfacet
  facet normal 0.684546 -0.728969 0
    outer loop
      vertex 27.1548 30.7328 0
      vertex 27.3865 30.9504 0
      vertex 27.1548 30.7328 1.7875
    endloop
  endfacet
  facet normal 0.587786 -0.809017 0
    outer loop
      vertex 27.6437 31.1372 0
      vertex 27.6437 31.1372 1.7875
      vertex 27.3865 30.9504 1.7875
    endloop
  endfacet
  facet normal 0.587786 -0.809017 0
    outer loop
      vertex 27.3865 30.9504 0
      vertex 27.6437 31.1372 0
      vertex 27.3865 30.9504 1.7875
    endloop
  endfacet
  facet normal 0.481752 -0.876307 0
    outer loop
      vertex 27.9222 31.2903 0
      vertex 27.9222 31.2903 1.7875
      vertex 27.6437 31.1372 1.7875
    endloop
  endfacet
  facet normal 0.481752 -0.876307 0
    outer loop
      vertex 27.6437 31.1372 0
      vertex 27.9222 31.2903 0
      vertex 27.6437 31.1372 1.7875
    endloop
  endfacet
  facet normal 0.368126 -0.929776 0
    outer loop
      vertex 28.2178 31.4074 0
      vertex 28.2178 31.4074 1.7875
      vertex 27.9222 31.2903 1.7875
    endloop
  endfacet
  facet normal 0.368126 -0.929776 0
    outer loop
      vertex 27.9222 31.2903 0
      vertex 28.2178 31.4074 0
      vertex 27.9222 31.2903 1.7875
    endloop
  endfacet
  facet normal 0.248691 -0.968583 0
    outer loop
      vertex 28.5257 31.4864 0
      vertex 28.5257 31.4864 1.7875
      vertex 28.2178 31.4074 1.7875
    endloop
  endfacet
  facet normal 0.248691 -0.968583 0
    outer loop
      vertex 28.2178 31.4074 0
      vertex 28.5257 31.4864 0
      vertex 28.2178 31.4074 1.7875
    endloop
  endfacet
  facet normal 0.125332 -0.992115 0
    outer loop
      vertex 28.8411 31.5263 0
      vertex 28.8411 31.5263 1.7875
      vertex 28.5257 31.4864 1.7875
    endloop
  endfacet
  facet normal 0.125332 -0.992115 0
    outer loop
      vertex 28.5257 31.4864 0
      vertex 28.8411 31.5263 0
      vertex 28.5257 31.4864 1.7875
    endloop
  endfacet
  facet normal 0 -1 0
    outer loop
      vertex 29.1589 31.5263 0
      vertex 29.1589 31.5263 1.7875
      vertex 28.8411 31.5263 1.7875
    endloop
  endfacet
  facet normal 0 -1 0
    outer loop
      vertex 28.8411 31.5263 0
      vertex 29.1589 31.5263 0
      vertex 28.8411 31.5263 1.7875
    endloop
  endfacet
  facet normal -0.125332 -0.992115 0
    outer loop
      vertex 29.4743 31.4864 0
      vertex 29.4743 31.4864 1.7875
      vertex 29.1589 31.5263 1.7875
    endloop
  endfacet
  facet normal -0.125332 -0.992115 0
    outer loop
      vertex 29.1589 31.5263 0
      vertex 29.4743 31.4864 0
      vertex 29.1589 31.5263 1.7875
    endloop
  endfacet
  facet normal -0.248691 -0.968583 0
    outer loop
      vertex 29.7822 31.4074 0
      vertex 29.7822 31.4074 1.7875
      vertex 29.4743 31.4864 1.7875
    endloop
  endfacet
  facet normal -0.248691 -0.968583 0
    outer loop
      vertex 29.4743 31.4864 0
      vertex 29.7822 31.4074 0
      vertex 29.4743 31.4864 1.7875
    endloop
  endfacet
  facet normal -0.368126 -0.929776 0
    outer loop
      vertex 30.0778 31.2903 0
      vertex 30.0778 31.2903 1.7875
      vertex 29.7822 31.4074 1.7875
    endloop
  endfacet
  facet normal -0.368126 -0.929776 0
    outer loop
      vertex 29.7822 31.4074 0
      vertex 30.0778 31.2903 0
      vertex 29.7822 31.4074 1.7875
    endloop
  endfacet
  facet normal -0.481752 -0.876307 0
    outer loop
      vertex 30.3563 31.1372 0
      vertex 30.3563 31.1372 1.7875
      vertex 30.0778 31.2903 1.7875
    endloop
  endfacet
  facet normal -0.481752 -0.876307 0
    outer loop
      vertex 30.0778 31.2903 0
      vertex 30.3563 31.1372 0
      vertex 30.0778 31.2903 1.7875
    endloop
  endfacet
  facet normal -0.587786 -0.809017 0
    outer loop
      vertex 30.6135 30.9504 0
      vertex 30.6135 30.9504 1.7875
      vertex 30.3563 31.1372 1.7875
    endloop
  endfacet
  facet normal -0.587786 -0.809017 0
    outer loop
      vertex 30.3563 31.1372 0
      vertex 30.6135 30.9504 0
      vertex 30.3563 31.1372 1.7875
    endloop
  endfacet
  facet normal -0.684546 -0.728969 0
    outer loop
      vertex 30.8452 30.7328 0
      vertex 30.8452 30.7328 1.7875
      vertex 30.6135 30.9504 1.7875
    endloop
  endfacet
  facet normal -0.684546 -0.728969 0
    outer loop
      vertex 30.6135 30.9504 0
      vertex 30.8452 30.7328 0
      vertex 30.6135 30.9504 1.7875
    endloop
  endfacet
  facet normal -0.770515 -0.637422 0
    outer loop
      vertex 31.0478 30.4878 1.7875
      vertex 30.8452 30.7328 1.7875
      vertex 31.0478 30.4878 0
    endloop
  endfacet
  facet normal -0.770515 -0.637422 0
    outer loop
      vertex 31.0478 30.4878 0
      vertex 30.8452 30.7328 1.7875
      vertex 30.8452 30.7328 0
    endloop
  endfacet
  facet normal -0.844328 -0.535827 0
    outer loop
      vertex 31.2182 30.2194 1.7875
      vertex 31.0478 30.4878 1.7875
      vertex 31.2182 30.2194 0
    endloop
  endfacet
  facet normal -0.844328 -0.535827 0
    outer loop
      vertex 31.2182 30.2194 0
      vertex 31.0478 30.4878 1.7875
      vertex 31.0478 30.4878 0
    endloop
  endfacet
  facet normal -0.904827 -0.42578 0
    outer loop
      vertex 31.3535 29.9318 1.7875
      vertex 31.2182 30.2194 1.7875
      vertex 31.3535 29.9318 0
    endloop
  endfacet
  facet normal -0.904827 -0.42578 0
    outer loop
      vertex 31.3535 29.9318 0
      vertex 31.2182 30.2194 1.7875
      vertex 31.2182 30.2194 0
    endloop
  endfacet
  facet normal -0.951057 -0.309016 0
    outer loop
      vertex 31.4517 29.6295 1.7875
      vertex 31.3535 29.9318 1.7875
      vertex 31.4517 29.6295 0
    endloop
  endfacet
  facet normal -0.951057 -0.309016 0
    outer loop
      vertex 31.4517 29.6295 0
      vertex 31.3535 29.9318 1.7875
      vertex 31.3535 29.9318 0
    endloop
  endfacet
  facet normal -0.982287 -0.187381 0
    outer loop
      vertex 31.5113 29.3172 1.7875
      vertex 31.4517 29.6295 1.7875
      vertex 31.5113 29.3172 0
    endloop
  endfacet
  facet normal -0.982287 -0.187381 0
    outer loop
      vertex 31.5113 29.3172 0
      vertex 31.4517 29.6295 1.7875
      vertex 31.4517 29.6295 0
    endloop
  endfacet
  facet normal -0.998027 -0.0627915 0
    outer loop
      vertex 31.5312 29 1.7875
      vertex 31.5113 29.3172 1.7875
      vertex 31.5312 29 0
    endloop
  endfacet
  facet normal -0.998027 -0.0627915 0
    outer loop
      vertex 31.5312 29 0
      vertex 31.5113 29.3172 1.7875
      vertex 31.5113 29.3172 0
    endloop
  endfacet
  facet normal -0.998027 0.0627915 0
    outer loop
      vertex 31.5312 29 1.7875
      vertex 31.5312 29 0
      vertex 31.5113 28.6827 1.7875
    endloop
  endfacet
  facet normal -0.998027 0.0627915 0
    outer loop
      vertex 31.5113 28.6827 1.7875
      vertex 31.5312 29 0
      vertex 31.5113 28.6827 0
    endloop
  endfacet
  facet normal -0.982287 0.187381 0
    outer loop
      vertex 31.5113 28.6827 1.7875
      vertex 31.5113 28.6827 0
      vertex 31.4517 28.3705 1.7875
    endloop
  endfacet
  facet normal -0.982287 0.187381 0
    outer loop
      vertex 31.4517 28.3705 1.7875
      vertex 31.5113 28.6827 0
      vertex 31.4517 28.3705 0
    endloop
  endfacet
  facet normal -0.951057 0.309016 0
    outer loop
      vertex 31.4517 28.3705 1.7875
      vertex 31.4517 28.3705 0
      vertex 31.3535 28.0682 1.7875
    endloop
  endfacet
  facet normal -0.951057 0.309016 0
    outer loop
      vertex 31.3535 28.0682 1.7875
      vertex 31.4517 28.3705 0
      vertex 31.3535 28.0682 0
    endloop
  endfacet
  facet normal -0.904827 0.42578 0
    outer loop
      vertex 31.3535 28.0682 1.7875
      vertex 31.3535 28.0682 0
      vertex 31.2182 27.7806 1.7875
    endloop
  endfacet
  facet normal -0.904827 0.42578 0
    outer loop
      vertex 31.2182 27.7806 1.7875
      vertex 31.3535 28.0682 0
      vertex 31.2182 27.7806 0
    endloop
  endfacet
  facet normal -0.844328 0.535827 0
    outer loop
      vertex 31.2182 27.7806 1.7875
      vertex 31.2182 27.7806 0
      vertex 31.0478 27.5122 1.7875
    endloop
  endfacet
  facet normal -0.844328 0.535827 0
    outer loop
      vertex 31.0478 27.5122 1.7875
      vertex 31.2182 27.7806 0
      vertex 31.0478 27.5122 0
    endloop
  endfacet
  facet normal -0.770515 0.637422 0
    outer loop
      vertex 31.0478 27.5122 1.7875
      vertex 31.0478 27.5122 0
      vertex 30.8452 27.2672 1.7875
    endloop
  endfacet
  facet normal -0.770515 0.637422 0
    outer loop
      vertex 30.8452 27.2672 1.7875
      vertex 31.0478 27.5122 0
      vertex 30.8452 27.2672 0
    endloop
  endfacet
  facet normal -0.684546 0.728969 0
    outer loop
      vertex 30.8452 27.2672 1.7875
      vertex 30.8452 27.2672 0
      vertex 30.6135 27.0496 1.7875
    endloop
  endfacet
  facet normal -0.684546 0.728969 0
    outer loop
      vertex 30.6135 27.0496 1.7875
      vertex 30.8452 27.2672 0
      vertex 30.6135 27.0496 0
    endloop
  endfacet
  facet normal -0.587786 0.809017 0
    outer loop
      vertex 30.6135 27.0496 1.7875
      vertex 30.6135 27.0496 0
      vertex 30.3563 26.8628 1.7875
    endloop
  endfacet
  facet normal -0.587786 0.809017 0
    outer loop
      vertex 30.3563 26.8628 1.7875
      vertex 30.6135 27.0496 0
      vertex 30.3563 26.8628 0
    endloop
  endfacet
  facet normal -0.481752 0.876307 0
    outer loop
      vertex 30.3563 26.8628 1.7875
      vertex 30.3563 26.8628 0
      vertex 30.0778 26.7097 1.7875
    endloop
  endfacet
  facet normal -0.481752 0.876307 0
    outer loop
      vertex 30.0778 26.7097 1.7875
      vertex 30.3563 26.8628 0
      vertex 30.0778 26.7097 0
    endloop
  endfacet
  facet normal -0.368126 0.929776 0
    outer loop
      vertex 30.0778 26.7097 1.7875
      vertex 30.0778 26.7097 0
      vertex 29.7822 26.5926 1.7875
    endloop
  endfacet
  facet normal -0.368126 0.929776 0
    outer loop
      vertex 29.7822 26.5926 1.7875
      vertex 30.0778 26.7097 0
      vertex 29.7822 26.5926 0
    endloop
  endfacet
  facet normal -0.248691 0.968583 0
    outer loop
      vertex 29.7822 26.5926 1.7875
      vertex 29.7822 26.5926 0
      vertex 29.4743 26.5136 1.7875
    endloop
  endfacet
  facet normal -0.248691 0.968583 0
    outer loop
      vertex 29.4743 26.5136 1.7875
      vertex 29.7822 26.5926 0
      vertex 29.4743 26.5136 0
    endloop
  endfacet
  facet normal -0.125332 0.992115 0
    outer loop
      vertex 29.4743 26.5136 1.7875
      vertex 29.4743 26.5136 0
      vertex 29.1589 26.4737 1.7875
    endloop
  endfacet
  facet normal -0.125332 0.992115 0
    outer loop
      vertex 29.1589 26.4737 1.7875
      vertex 29.4743 26.5136 0
      vertex 29.1589 26.4737 0
    endloop
  endfacet
  facet normal 0 1 0
    outer loop
      vertex 29.1589 26.4737 1.7875
      vertex 29.1589 26.4737 0
      vertex 28.8411 26.4737 1.7875
    endloop
  endfacet
  facet normal 0 1 0
    outer loop
      vertex 28.8411 26.4737 1.7875
      vertex 29.1589 26.4737 0
      vertex 28.8411 26.4737 0
    endloop
  endfacet
  facet normal 0.125332 0.992115 0
    outer loop
      vertex 28.8411 26.4737 1.7875
      vertex 28.8411 26.4737 0
      vertex 28.5257 26.5136 1.7875
    endloop
  endfacet
  facet normal 0.125332 0.992115 0
    outer loop
      vertex 28.5257 26.5136 1.7875
      vertex 28.8411 26.4737 0
      vertex 28.5257 26.5136 0
    endloop
  endfacet
  facet normal 0.248691 0.968583 0
    outer loop
      vertex 28.5257 26.5136 1.7875
      vertex 28.5257 26.5136 0
      vertex 28.2178 26.5926 1.7875
    endloop
  endfacet
  facet normal 0.248691 0.968583 0
    outer loop
      vertex 28.2178 26.5926 1.7875
      vertex 28.5257 26.5136 0
      vertex 28.2178 26.5926 0
    endloop
  endfacet
  facet normal 0.368126 0.929776 0
    outer loop
      vertex 28.2178 26.5926 1.7875
      vertex 28.2178 26.5926 0
      vertex 27.9222 26.7097 1.7875
    endloop
  endfacet
  facet normal 0.368126 0.929776 0
    outer loop
      vertex 27.9222 26.7097 1.7875
      vertex 28.2178 26.5926 0
      vertex 27.9222 26.7097 0
    endloop
  endfacet
  facet normal 0.481752 0.876307 0
    outer loop
      vertex 27.9222 26.7097 1.7875
      vertex 27.9222 26.7097 0
      vertex 27.6437 26.8628 1.7875
    endloop
  endfacet
  facet normal 0.481752 0.876307 0
    outer loop
      vertex 27.6437 26.8628 1.7875
      vertex 27.9222 26.7097 0
      vertex 27.6437 26.8628 0
    endloop
  endfacet
  facet normal 0.587786 0.809017 0
    outer loop
      vertex 27.6437 26.8628 1.7875
      vertex 27.6437 26.8628 0
      vertex 27.3865 27.0496 1.7875
    endloop
  endfacet
  facet normal 0.587786 0.809017 0
    outer loop
      vertex 27.3865 27.0496 1.7875
      vertex 27.6437 26.8628 0
      vertex 27.3865 27.0496 0
    endloop
  endfacet
  facet normal 0.684546 0.728969 0
    outer loop
      vertex 27.3865 27.0496 1.7875
      vertex 27.3865 27.0496 0
      vertex 27.1548 27.2672 1.7875
    endloop
  endfacet
  facet normal 0.684546 0.728969 0
    outer loop
      vertex 27.1548 27.2672 1.7875
      vertex 27.3865 27.0496 0
      vertex 27.1548 27.2672 0
    endloop
  endfacet
  facet normal 0.770515 0.637422 0
    outer loop
      vertex 26.9522 27.5122 1.7875
      vertex 27.1548 27.2672 1.7875
      vertex 27.1548 27.2672 0
    endloop
  endfacet
  facet normal 0.770515 0.637422 0
    outer loop
      vertex 26.9522 27.5122 0
      vertex 26.9522 27.5122 1.7875
      vertex 27.1548 27.2672 0
    endloop
  endfacet
  facet normal 0.844328 0.535827 0
    outer loop
      vertex 26.7818 27.7806 1.7875
      vertex 26.9522 27.5122 1.7875
      vertex 26.9522 27.5122 0
    endloop
  endfacet
  facet normal 0.844328 0.535827 0
    outer loop
      vertex 26.7818 27.7806 0
      vertex 26.7818 27.7806 1.7875
      vertex 26.9522 27.5122 0
    endloop
  endfacet
  facet normal 0.904827 0.42578 0
    outer loop
      vertex 26.6465 28.0682 1.7875
      vertex 26.7818 27.7806 1.7875
      vertex 26.7818 27.7806 0
    endloop
  endfacet
  facet normal 0.904827 0.42578 0
    outer loop
      vertex 26.6465 28.0682 0
      vertex 26.6465 28.0682 1.7875
      vertex 26.7818 27.7806 0
    endloop
  endfacet
  facet normal 0.951057 0.309016 0
    outer loop
      vertex 26.5483 28.3705 1.7875
      vertex 26.6465 28.0682 1.7875
      vertex 26.6465 28.0682 0
    endloop
  endfacet
  facet normal 0.951057 0.309016 0
    outer loop
      vertex 26.5483 28.3705 0
      vertex 26.5483 28.3705 1.7875
      vertex 26.6465 28.0682 0
    endloop
  endfacet
  facet normal 0.982287 0.187381 0
    outer loop
      vertex 26.4887 28.6827 1.7875
      vertex 26.5483 28.3705 1.7875
      vertex 26.5483 28.3705 0
    endloop
  endfacet
  facet normal 0.982287 0.187381 0
    outer loop
      vertex 26.4887 28.6827 0
      vertex 26.4887 28.6827 1.7875
      vertex 26.5483 28.3705 0
    endloop
  endfacet
  facet normal 0 0 -1
    outer loop
      vertex 26.5483 29.6295 1.7875
      vertex 26.6465 29.9318 1.7875
      vertex 26.4887 29.3172 1.7875
    endloop
  endfacet
  facet normal 0 0 -1
    outer loop
      vertex 26.4887 29.3172 1.7875
      vertex 26.6465 29.9318 1.7875
      vertex 26.7818 30.2194 1.7875
    endloop
  endfacet
  facet normal 0 0 -1
    outer loop
      vertex 26.4887 29.3172 1.7875
      vertex 26.7818 30.2194 1.7875
      vertex 26.9522 30.4878 1.7875
    endloop
  endfacet
  facet normal 0 0 -1
    outer loop
      vertex 26.4887 29.3172 1.7875
      vertex 26.9522 30.4878 1.7875
      vertex 27.1548 30.7328 1.7875
    endloop
  endfacet
  facet normal 0 0 -1
    outer loop
      vertex 26.4887 29.3172 1.7875
      vertex 27.1548 30.7328 1.7875
      vertex 27.3865 30.9504 1.7875
    endloop
  endfacet
  facet normal 0 0 -1
    outer loop
      vertex 26.4887 29.3172 1.7875
      vertex 27.3865 30.9504 1.7875
      vertex 27.6437 31.1372 1.7875
    endloop
  endfacet
  facet normal 0 0 -1
    outer loop
      vertex 26.4887 29.3172 1.7875
      vertex 27.6437 31.1372 1.7875
      vertex 27.9222 31.2903 1.7875
    endloop
  endfacet
  facet normal 0 0 -1
    outer loop
      vertex 26.4887 29.3172 1.7875
      vertex 27.9222 31.2903 1.7875
      vertex 28.2178 31.4074 1.7875
    endloop
  endfacet
  facet normal 0 0 -1
    outer loop
      vertex 26.4887 29.3172 1.7875
      vertex 28.2178 31.4074 1.7875
      vertex 28.5257 31.4864 1.7875
    endloop
  endfacet
  facet normal 0 0 -1
    outer loop
      vertex 26.4887 29.3172 1.7875
      vertex 28.5257 31.4864 1.7875
      vertex 28.8411 31.5263 1.7875
    endloop
  endfacet
  facet normal 0 0 -1
    outer loop
      vertex 26.4887 29.3172 1.7875
      vertex 28.8411 31.5263 1.7875
      vertex 29.1589 31.5263 1.7875
    endloop
  endfacet
  facet normal 0 0 -1
    outer loop
      vertex 26.4887 29.3172 1.7875
      vertex 29.1589 31.5263 1.7875
      vertex 29.4743 31.4864 1.7875
    endloop
  endfacet
  facet normal 0 0 -1
    outer loop
      vertex 26.4887 29.3172 1.7875
      vertex 29.4743 31.4864 1.7875
      vertex 29.7822 31.4074 1.7875
    endloop
  endfacet
  facet normal 0 0 -1
    outer loop
      vertex 26.4887 29.3172 1.7875
      vertex 29.7822 31.4074 1.7875
      vertex 30.0778 31.2903 1.7875
    endloop
  endfacet
  facet normal 0 0 -1
    outer loop
      vertex 26.4887 29.3172 1.7875
      vertex 30.0778 31.2903 1.7875
      vertex 30.3563 31.1372 1.7875
    endloop
  endfacet
  facet normal 0 0 -1
    outer loop
      vertex 26.4887 29.3172 1.7875
      vertex 30.3563 31.1372 1.7875
      vertex 30.6135 30.9504 1.7875
    endloop
  endfacet
  facet normal 0 0 -1
    outer loop
      vertex 26.4887 29.3172 1.7875
      vertex 30.6135 30.9504 1.7875
      vertex 30.8452 30.7328 1.7875
    endloop
  endfacet
  facet normal 0 0 -1
    outer loop
      vertex 26.4887 29.3172 1.7875
      vertex 30.8452 30.7328 1.7875
      vertex 31.0478 30.4878 1.7875
    endloop
  endfacet
  facet normal 0 0 -1
    outer loop
      vertex 26.4887 29.3172 1.7875
      vertex 31.0478 30.4878 1.7875
      vertex 31.2182 30.2194 1.7875
    endloop
  endfacet
  facet normal 0 0 -1
    outer loop
      vertex 26.4887 29.3172 1.7875
      vertex 31.2182 30.2194 1.7875
      vertex 31.3535 29.9318 1.7875
    endloop
  endfacet
  facet normal 0 0 -1
    outer loop
      vertex 26.4887 29.3172 1.7875
      vertex 31.3535 29.9318 1.7875
      vertex 31.4517 29.6295 1.7875
    endloop
  endfacet
  facet normal 0 0 -1
    outer loop
      vertex 26.4887 29.3172 1.7875
      vertex 31.4517 29.6295 1.7875
      vertex 31.5113 29.3172 1.7875
    endloop
  endfacet
  facet normal 0 0 -1
    outer loop
      vertex 26.4887 29.3172 1.7875
      vertex 31.5113 29.3172 1.7875
      vertex 31.5312 29 1.7875
    endloop
  endfacet
  facet normal 0 0 -1
    outer loop
      vertex 26.4887 29.3172 1.7875
      vertex 31.5312 29 1.7875
      vertex 31.5113 28.6827 1.7875
    endloop
  endfacet
  facet normal 0 0 -1
    outer loop
      vertex 26.4887 29.3172 1.7875
      vertex 31.5113 28.6827 1.7875
      vertex 31.4517 28.3705 1.7875
    endloop
  endfacet
  facet normal 0 0 -1
    outer loop
      vertex 26.4887 29.3172 1.7875
      vertex 31.4517 28.3705 1.7875
      vertex 31.3535 28.0682 1.7875
    endloop
  endfacet
  facet normal 0 0 -1
    outer loop
      vertex 26.4887 29.3172 1.7875
      vertex 31.3535 28.0682 1.7875
      vertex 31.2182 27.7806 1.7875
    endloop
  endfacet
  facet normal 0 0 -1
    outer loop
      vertex 26.4887 29.3172 1.7875
      vertex 31.2182 27.7806 1.7875
      vertex 31.0478 27.5122 1.7875
    endloop
  endfacet
  facet normal 0 0 -1
    outer loop
      vertex 26.4887 29.3172 1.7875
      vertex 31.0478 27.5122 1.7875
      vertex 30.8452 27.2672 1.7875
    endloop
  endfacet
  facet normal 0 0 -1
    outer loop
      vertex 26.4887 29.3172 1.7875
      vertex 30.8452 27.2672 1.7875
      vertex 30.6135 27.0496 1.7875
    endloop
  endfacet
  facet normal 0 0 -1
    outer loop
      vertex 26.4887 29.3172 1.7875
      vertex 30.6135 27.0496 1.7875
      vertex 30.3563 26.8628 1.7875
    endloop
  endfacet
  facet normal 0 0 -1
    outer loop
      vertex 26.4887 29.3172 1.7875
      vertex 30.3563 26.8628 1.7875
      vertex 30.0778 26.7097 1.7875
    endloop
  endfacet
  facet normal 0 0 -1
    outer loop
      vertex 26.4887 29.3172 1.7875
      vertex 30.0778 26.7097 1.7875
      vertex 29.7822 26.5926 1.7875
    endloop
  endfacet
  facet normal 0 0 -1
    outer loop
      vertex 26.4887 29.3172 1.7875
      vertex 29.7822 26.5926 1.7875
      vertex 29.4743 26.5136 1.7875
    endloop
  endfacet
  facet normal 0 0 -1
    outer loop
      vertex 26.4887 29.3172 1.7875
      vertex 29.4743 26.5136 1.7875
      vertex 29.1589 26.4737 1.7875
    endloop
  endfacet
  facet normal 0 0 -1
    outer loop
      vertex 26.4887 29.3172 1.7875
      vertex 29.1589 26.4737 1.7875
      vertex 28.8411 26.4737 1.7875
    endloop
  endfacet
  facet normal 0 0 -1
    outer loop
      vertex 26.4887 29.3172 1.7875
      vertex 28.8411 26.4737 1.7875
      vertex 28.5257 26.5136 1.7875
    endloop
  endfacet
  facet normal 0 0 -1
    outer loop
      vertex 26.4887 29.3172 1.7875
      vertex 28.5257 26.5136 1.7875
      vertex 28.2178 26.5926 1.7875
    endloop
  endfacet
  facet normal 0 0 -1
    outer loop
      vertex 26.4887 29.3172 1.7875
      vertex 28.2178 26.5926 1.7875
      vertex 27.9222 26.7097 1.7875
    endloop
  endfacet
  facet normal 0 0 -1
    outer loop
      vertex 26.4887 29.3172 1.7875
      vertex 27.9222 26.7097 1.7875
      vertex 27.6437 26.8628 1.7875
    endloop
  endfacet
  facet normal 0 0 -1
    outer loop
      vertex 26.4887 29.3172 1.7875
      vertex 27.6437 26.8628 1.7875
      vertex 27.3865 27.0496 1.7875
    endloop
  endfacet
  facet normal 0 0 -1
    outer loop
      vertex 26.4887 29.3172 1.7875
      vertex 27.3865 27.0496 1.7875
      vertex 27.1548 27.2672 1.7875
    endloop
  endfacet
  facet normal 0 0 -1
    outer loop
      vertex 26.4887 29.3172 1.7875
      vertex 27.1548 27.2672 1.7875
      vertex 26.9522 27.5122 1.7875
    endloop
  endfacet
  facet normal 0 0 -1
    outer loop
      vertex 26.4887 29.3172 1.7875
      vertex 26.9522 27.5122 1.7875
      vertex 26.7818 27.7806 1.7875
    endloop
  endfacet
  facet normal 0 0 -1
    outer loop
      vertex 26.4887 29.3172 1.7875
      vertex 26.7818 27.7806 1.7875
      vertex 26.6465 28.0682 1.7875
    endloop
  endfacet
  facet normal 0 0 -1
    outer loop
      vertex 26.4887 29.3172 1.7875
      vertex 26.6465 28.0682 1.7875
      vertex 26.5483 28.3705 1.7875
    endloop
  endfacet
  facet normal 0 0 -1
    outer loop
      vertex 26.4887 29.3172 1.7875
      vertex 26.5483 28.3705 1.7875
      vertex 26.4887 28.6827 1.7875
    endloop
  endfacet
  facet normal 0 0 -1
    outer loop
      vertex 26.4887 29.3172 1.7875
      vertex 26.4887 28.6827 1.7875
      vertex 26.4688 29 1.7875
    endloop
  endfacet
endsolid OpenSCAD_Model
