solid OpenSCAD_Model
  facet normal -1 0 0
    outer loop
      vertex 0 0 0
      vertex 0 0 7.5
      vertex 0 75 0
    endloop
  endfacet
  facet normal -1 0 0
    outer loop
      vertex 0 75 0
      vertex 0 0 7.5
      vertex 0 75 7.5
    endloop
  endfacet
  facet normal 0 -1 0
    outer loop
      vertex 0 0 7.5
      vertex 0 0 0
      vertex 75 0 0
    endloop
  endfacet
  facet normal 0 -1 0
    outer loop
      vertex 75 0 7.5
      vertex 0 0 7.5
      vertex 75 0 0
    endloop
  endfacet
  facet normal 0 0 -1
    outer loop
      vertex 2.4 68.923 0
      vertex 0 75 0
      vertex 75 0 0
    endloop
  endfacet
  facet normal 0 0 -1
    outer loop
      vertex 75 0 0
      vertex 0 75 0
      vertex 0 84.2 0
    endloop
  endfacet
  facet normal 0 0 -1
    outer loop
      vertex 75 0 0
      vertex 0 84.2 0
      vertex 75 9.2 0
    endloop
  endfacet
  facet normal 0 0 -1
    outer loop
      vertex 0 0 0
      vertex 0 75 0
      vertex 2.4 68.923 0
    endloop
  endfacet
  facet normal 0 0 -1
    outer loop
      vertex 68.923 2.4 0
      vertex 2.4 68.923 0
      vertex 75 0 0
    endloop
  endfacet
  facet normal 0 0 -1
    outer loop
      vertex 0 0 0
      vertex 2.4 68.923 0
      vertex 2.4 2.4 0
    endloop
  endfacet
  facet normal 0 0 -1
    outer loop
      vertex 0 0 0
      vertex 2.4 2.4 0
      vertex 75 0 0
    endloop
  endfacet
  facet normal 0 0 -1
    outer loop
      vertex 2.4 2.4 0
      vertex 68.923 2.4 0
      vertex 75 0 0
    endloop
  endfacet
  facet normal -1 0 0
    outer loop
      vertex 0 75 49
      vertex 0 84.2 49
      vertex 0 75 7.5
    endloop
  endfacet
  facet normal -1 0 0
    outer loop
      vertex 0 75 7.5
      vertex 0 84.2 49
      vertex 0 84.2 0
    endloop
  endfacet
  facet normal -1 0 0
    outer loop
      vertex 0 75 7.5
      vertex 0 84.2 0
      vertex 0 75 0
    endloop
  endfacet
  facet normal 0 0 1
    outer loop
      vertex 74.675 0.325 7.5
      vertex 0 0 7.5
      vertex 75 0 7.5
    endloop
  endfacet
  facet normal 0 0 1
    outer loop
      vertex 0.325 49.675 7.5
      vertex 24.675 49.675 7.5
      vertex 0.325 50.325 7.5
    endloop
  endfacet
  facet normal 0 0 1
    outer loop
      vertex 25.325 0.325 7.5
      vertex 25.325 24.675 7.5
      vertex 24.675 24.675 7.5
    endloop
  endfacet
  facet normal 0 0 1
    outer loop
      vertex 49.675 0.325 7.5
      vertex 0 0 7.5
      vertex 50.325 0.325 7.5
    endloop
  endfacet
  facet normal 0 0 1
    outer loop
      vertex 49.675 25.325 7.5
      vertex 50.325 0.325 7.5
      vertex 50.325 24.675 7.5
    endloop
  endfacet
  facet normal 0 0 1
    outer loop
      vertex 49.675 24.675 7.5
      vertex 50.325 0.325 7.5
      vertex 49.675 25.325 7.5
    endloop
  endfacet
  facet normal 0 0 1
    outer loop
      vertex 0.325 50.325 7.5
      vertex 0.325 74.675 7.5
      vertex 0 75 7.5
    endloop
  endfacet
  facet normal 0 0 1
    outer loop
      vertex 0.325 24.675 7.5
      vertex 0 0 7.5
      vertex 0.325 0.325 7.5
    endloop
  endfacet
  facet normal 0 0 1
    outer loop
      vertex 24.675 50.325 7.5
      vertex 0.325 50.325 7.5
      vertex 24.675 49.675 7.5
    endloop
  endfacet
  facet normal 0 0 1
    outer loop
      vertex 0 75 7.5
      vertex 0 0 7.5
      vertex 0.325 50.325 7.5
    endloop
  endfacet
  facet normal 0 0 1
    outer loop
      vertex 24.675 49.675 7.5
      vertex 24.675 25.325 7.5
      vertex 25.325 25.325 7.5
    endloop
  endfacet
  facet normal 0 0 1
    outer loop
      vertex 0.325 25.325 7.5
      vertex 0 0 7.5
      vertex 0.325 24.675 7.5
    endloop
  endfacet
  facet normal 0 0 1
    outer loop
      vertex 25.325 25.325 7.5
      vertex 0.325 24.675 7.5
      vertex 24.675 24.675 7.5
    endloop
  endfacet
  facet normal 0 0 1
    outer loop
      vertex 24.675 24.675 7.5
      vertex 24.675 0.325 7.5
      vertex 25.325 0.325 7.5
    endloop
  endfacet
  facet normal 0 0 1
    outer loop
      vertex 0.325 0.325 7.5
      vertex 0 0 7.5
      vertex 24.675 0.325 7.5
    endloop
  endfacet
  facet normal 0 0 1
    outer loop
      vertex 24.675 25.325 7.5
      vertex 0.325 25.325 7.5
      vertex 0.325 24.675 7.5
    endloop
  endfacet
  facet normal 0 0 1
    outer loop
      vertex 0.325 49.675 7.5
      vertex 0 0 7.5
      vertex 0.325 25.325 7.5
    endloop
  endfacet
  facet normal 0 0 1
    outer loop
      vertex 0.325 50.325 7.5
      vertex 0 0 7.5
      vertex 0.325 49.675 7.5
    endloop
  endfacet
  facet normal 0 0 1
    outer loop
      vertex 25.325 25.325 7.5
      vertex 24.675 25.325 7.5
      vertex 0.325 24.675 7.5
    endloop
  endfacet
  facet normal 0 0 1
    outer loop
      vertex 24.675 0.325 7.5
      vertex 0 0 7.5
      vertex 25.325 0.325 7.5
    endloop
  endfacet
  facet normal 0 0 1
    outer loop
      vertex 49.675 24.675 7.5
      vertex 49.675 0.325 7.5
      vertex 50.325 0.325 7.5
    endloop
  endfacet
  facet normal 0 0 1
    outer loop
      vertex 25.325 25.325 7.5
      vertex 24.675 24.675 7.5
      vertex 25.325 24.675 7.5
    endloop
  endfacet
  facet normal 0 0 1
    outer loop
      vertex 25.325 24.675 7.5
      vertex 49.675 24.675 7.5
      vertex 25.325 25.325 7.5
    endloop
  endfacet
  facet normal 0 0 1
    outer loop
      vertex 25.325 0.325 7.5
      vertex 0 0 7.5
      vertex 49.675 0.325 7.5
    endloop
  endfacet
  facet normal 0 0 1
    outer loop
      vertex 74.675 0.325 7.5
      vertex 50.325 0.325 7.5
      vertex 0 0 7.5
    endloop
  endfacet
  facet normal 0 0 1
    outer loop
      vertex 25.325 25.325 7.5
      vertex 24.675 50.325 7.5
      vertex 24.675 49.675 7.5
    endloop
  endfacet
  facet normal 0 0 1
    outer loop
      vertex 25.325 25.325 7.5
      vertex 25.325 49.675 7.5
      vertex 24.675 50.325 7.5
    endloop
  endfacet
  facet normal 0 0 1
    outer loop
      vertex 49.675 25.325 7.5
      vertex 25.325 25.325 7.5
      vertex 49.675 24.675 7.5
    endloop
  endfacet
  facet normal -0.707107 -0.707107 0
    outer loop
      vertex 0 75 49
      vertex 0 75 7.5
      vertex 0.325 74.675 7.5
    endloop
  endfacet
  facet normal -0.707107 -0.707107 0
    outer loop
      vertex 24.675 50.325 9.5
      vertex 0 75 49
      vertex 0.325 74.675 9.5
    endloop
  endfacet
  facet normal -0.707107 -0.707107 0
    outer loop
      vertex 0.325 74.675 9.5
      vertex 0 75 49
      vertex 0.325 74.675 7.5
    endloop
  endfacet
  facet normal -0.707107 -0.707107 0
    outer loop
      vertex 25.325 49.675 9.5
      vertex 0 75 49
      vertex 24.675 50.325 9.5
    endloop
  endfacet
  facet normal -0.707107 -0.707107 0
    outer loop
      vertex 25.325 49.675 7.5
      vertex 24.675 50.325 9.5
      vertex 24.675 50.325 7.5
    endloop
  endfacet
  facet normal -0.707107 -0.707107 0
    outer loop
      vertex 25.325 49.675 9.5
      vertex 24.675 50.325 9.5
      vertex 25.325 49.675 7.5
    endloop
  endfacet
  facet normal -0.707107 -0.707107 0
    outer loop
      vertex 49.675 25.325 9.5
      vertex 0 75 49
      vertex 25.325 49.675 9.5
    endloop
  endfacet
  facet normal -0.707107 -0.707107 0
    outer loop
      vertex 50.325 24.675 9.5
      vertex 0 75 49
      vertex 49.675 25.325 9.5
    endloop
  endfacet
  facet normal -0.707107 -0.707107 0
    outer loop
      vertex 50.325 24.675 7.5
      vertex 49.675 25.325 9.5
      vertex 49.675 25.325 7.5
    endloop
  endfacet
  facet normal -0.707107 -0.707107 0
    outer loop
      vertex 50.325 24.675 9.5
      vertex 49.675 25.325 9.5
      vertex 50.325 24.675 7.5
    endloop
  endfacet
  facet normal -0.707107 -0.707107 0
    outer loop
      vertex 74.675 0.325 9.5
      vertex 0 75 49
      vertex 50.325 24.675 9.5
    endloop
  endfacet
  facet normal -0.707107 -0.707107 0
    outer loop
      vertex 75 0 49
      vertex 0 75 49
      vertex 74.675 0.325 9.5
    endloop
  endfacet
  facet normal -0.707107 -0.707107 0
    outer loop
      vertex 75 0 7.5
      vertex 74.675 0.325 9.5
      vertex 74.675 0.325 7.5
    endloop
  endfacet
  facet normal -0.707107 -0.707107 0
    outer loop
      vertex 75 0 49
      vertex 74.675 0.325 9.5
      vertex 75 0 7.5
    endloop
  endfacet
  facet normal 0 -1 0
    outer loop
      vertex 75 0 7.5
      vertex 75 0 0
      vertex 75 0 49
    endloop
  endfacet
  facet normal 1 -2.22045e-16 0
    outer loop
      vertex 75 0 49
      vertex 75 0 0
      vertex 75 9.2 0
    endloop
  endfacet
  facet normal 1 -2.22045e-16 0
    outer loop
      vertex 75 9.2 49
      vertex 75 0 49
      vertex 75 9.2 0
    endloop
  endfacet
  facet normal 0.707107 0.707107 0
    outer loop
      vertex 0 84.2 0
      vertex 0 84.2 49
      vertex 75 9.2 0
    endloop
  endfacet
  facet normal 0.707107 0.707107 0
    outer loop
      vertex 75 9.2 0
      vertex 0 84.2 49
      vertex 75 9.2 49
    endloop
  endfacet
  facet normal 1 0 0
    outer loop
      vertex 2.4 68.923 0
      vertex 2.4 68.923 2.2
      vertex 2.4 2.4 2.2
    endloop
  endfacet
  facet normal 1 0 0
    outer loop
      vertex 2.4 2.4 0
      vertex 2.4 68.923 0
      vertex 2.4 2.4 2.2
    endloop
  endfacet
  facet normal -0.707107 -0.707107 0
    outer loop
      vertex 2.4 68.923 2.2
      vertex 2.4 68.923 0
      vertex 68.923 2.4 0
    endloop
  endfacet
  facet normal -0.707107 -0.707107 0
    outer loop
      vertex 68.923 2.4 2.2
      vertex 2.4 68.923 2.2
      vertex 68.923 2.4 0
    endloop
  endfacet
  facet normal 0 1 0
    outer loop
      vertex 68.923 2.4 2.2
      vertex 68.923 2.4 0
      vertex 2.4 2.4 2.2
    endloop
  endfacet
  facet normal 0 1 0
    outer loop
      vertex 2.4 2.4 2.2
      vertex 68.923 2.4 0
      vertex 2.4 2.4 0
    endloop
  endfacet
  facet normal 0 0 1
    outer loop
      vertex 0 84.2 49
      vertex 0 75 49
      vertex 75 0 49
    endloop
  endfacet
  facet normal 0 0 1
    outer loop
      vertex 75 9.2 49
      vertex 0 84.2 49
      vertex 75 0 49
    endloop
  endfacet
  facet normal -1 0 0
    outer loop
      vertex 0.325 50.325 7.5
      vertex 0.325 50.325 9.5
      vertex 0.325 74.675 7.5
    endloop
  endfacet
  facet normal -1 0 0
    outer loop
      vertex 0.325 74.675 7.5
      vertex 0.325 50.325 9.5
      vertex 0.325 74.675 9.5
    endloop
  endfacet
  facet normal 0 -1 0
    outer loop
      vertex 0.325 50.325 9.5
      vertex 0.325 50.325 7.5
      vertex 24.675 50.325 7.5
    endloop
  endfacet
  facet normal 0 -1 0
    outer loop
      vertex 24.675 50.325 9.5
      vertex 0.325 50.325 9.5
      vertex 24.675 50.325 7.5
    endloop
  endfacet
  facet normal -1 0 0
    outer loop
      vertex 25.325 25.325 7.5
      vertex 25.325 25.325 9.5
      vertex 25.325 49.675 7.5
    endloop
  endfacet
  facet normal -1 0 0
    outer loop
      vertex 25.325 49.675 7.5
      vertex 25.325 25.325 9.5
      vertex 25.325 49.675 9.5
    endloop
  endfacet
  facet normal 0 -1 0
    outer loop
      vertex 25.325 25.325 9.5
      vertex 25.325 25.325 7.5
      vertex 49.675 25.325 7.5
    endloop
  endfacet
  facet normal 0 -1 0
    outer loop
      vertex 49.675 25.325 9.5
      vertex 25.325 25.325 9.5
      vertex 49.675 25.325 7.5
    endloop
  endfacet
  facet normal -1 0 0
    outer loop
      vertex 50.325 0.325 7.5
      vertex 50.325 0.325 9.5
      vertex 50.325 24.675 7.5
    endloop
  endfacet
  facet normal -1 0 0
    outer loop
      vertex 50.325 24.675 7.5
      vertex 50.325 0.325 9.5
      vertex 50.325 24.675 9.5
    endloop
  endfacet
  facet normal 0 -1 0
    outer loop
      vertex 50.325 0.325 9.5
      vertex 50.325 0.325 7.5
      vertex 74.675 0.325 7.5
    endloop
  endfacet
  facet normal 0 -1 0
    outer loop
      vertex 74.675 0.325 9.5
      vertex 50.325 0.325 9.5
      vertex 74.675 0.325 7.5
    endloop
  endfacet
  facet normal -1 0 0
    outer loop
      vertex 0.325 0.325 7.5
      vertex 0.325 0.325 9.5
      vertex 0.325 24.675 7.5
    endloop
  endfacet
  facet normal -1 0 0
    outer loop
      vertex 0.325 24.675 7.5
      vertex 0.325 0.325 9.5
      vertex 0.325 24.675 9.5
    endloop
  endfacet
  facet normal 0 -1 0
    outer loop
      vertex 0.325 0.325 9.5
      vertex 0.325 0.325 7.5
      vertex 24.675 0.325 7.5
    endloop
  endfacet
  facet normal 0 -1 0
    outer loop
      vertex 24.675 0.325 9.5
      vertex 0.325 0.325 9.5
      vertex 24.675 0.325 7.5
    endloop
  endfacet
  facet normal 1 0 0
    outer loop
      vertex 24.675 0.325 9.5
      vertex 24.675 0.325 7.5
      vertex 24.675 24.675 7.5
    endloop
  endfacet
  facet normal 1 0 0
    outer loop
      vertex 24.675 24.675 9.5
      vertex 24.675 0.325 9.5
      vertex 24.675 24.675 7.5
    endloop
  endfacet
  facet normal 0 1 0
    outer loop
      vertex 0.325 24.675 7.5
      vertex 0.325 24.675 9.5
      vertex 24.675 24.675 7.5
    endloop
  endfacet
  facet normal 0 1 0
    outer loop
      vertex 24.675 24.675 7.5
      vertex 0.325 24.675 9.5
      vertex 24.675 24.675 9.5
    endloop
  endfacet
  facet normal -1 0 0
    outer loop
      vertex 0.325 25.325 7.5
      vertex 0.325 25.325 9.5
      vertex 0.325 49.675 7.5
    endloop
  endfacet
  facet normal -1 0 0
    outer loop
      vertex 0.325 49.675 7.5
      vertex 0.325 25.325 9.5
      vertex 0.325 49.675 9.5
    endloop
  endfacet
  facet normal 0 -1 0
    outer loop
      vertex 0.325 25.325 9.5
      vertex 0.325 25.325 7.5
      vertex 24.675 25.325 7.5
    endloop
  endfacet
  facet normal 0 -1 0
    outer loop
      vertex 24.675 25.325 9.5
      vertex 0.325 25.325 9.5
      vertex 24.675 25.325 7.5
    endloop
  endfacet
  facet normal 1 0 0
    outer loop
      vertex 24.675 25.325 9.5
      vertex 24.675 25.325 7.5
      vertex 24.675 49.675 7.5
    endloop
  endfacet
  facet normal 1 0 0
    outer loop
      vertex 24.675 49.675 9.5
      vertex 24.675 25.325 9.5
      vertex 24.675 49.675 7.5
    endloop
  endfacet
  facet normal 0 1 0
    outer loop
      vertex 0.325 49.675 7.5
      vertex 0.325 49.675 9.5
      vertex 24.675 49.675 7.5
    endloop
  endfacet
  facet normal 0 1 0
    outer loop
      vertex 24.675 49.675 7.5
      vertex 0.325 49.675 9.5
      vertex 24.675 49.675 9.5
    endloop
  endfacet
  facet normal -1 0 0
    outer loop
      vertex 25.325 0.325 7.5
      vertex 25.325 0.325 9.5
      vertex 25.325 24.675 7.5
    endloop
  endfacet
  facet normal -1 0 0
    outer loop
      vertex 25.325 24.675 7.5
      vertex 25.325 0.325 9.5
      vertex 25.325 24.675 9.5
    endloop
  endfacet
  facet normal 0 -1 0
    outer loop
      vertex 25.325 0.325 9.5
      vertex 25.325 0.325 7.5
      vertex 49.675 0.325 7.5
    endloop
  endfacet
  facet normal 0 -1 0
    outer loop
      vertex 49.675 0.325 9.5
      vertex 25.325 0.325 9.5
      vertex 49.675 0.325 7.5
    endloop
  endfacet
  facet normal 1 0 0
    outer loop
      vertex 49.675 0.325 9.5
      vertex 49.675 0.325 7.5
      vertex 49.675 24.675 7.5
    endloop
  endfacet
  facet normal 1 0 0
    outer loop
      vertex 49.675 24.675 9.5
      vertex 49.675 0.325 9.5
      vertex 49.675 24.675 7.5
    endloop
  endfacet
  facet normal 0 1 0
    outer loop
      vertex 25.325 24.675 7.5
      vertex 25.325 24.675 9.5
      vertex 49.675 24.675 7.5
    endloop
  endfacet
  facet normal 0 1 0
    outer loop
      vertex 49.675 24.675 7.5
      vertex 25.325 24.675 9.5
      vertex 49.675 24.675 9.5
    endloop
  endfacet
  facet normal 0 0 1
    outer loop
      vertex 50.325 24.675 9.5
      vertex 50.325 0.325 9.5
      vertex 74.675 0.325 9.5
    endloop
  endfacet
  facet normal 0 0 1
    outer loop
      vertex 25.325 49.675 9.5
      vertex 25.325 25.325 9.5
      vertex 49.675 25.325 9.5
    endloop
  endfacet
  facet normal 0 0 1
    outer loop
      vertex 0.325 74.675 9.5
      vertex 0.325 50.325 9.5
      vertex 24.675 50.325 9.5
    endloop
  endfacet
  facet normal 0 0 -1
    outer loop
      vertex 3.8 3.8 2.2
      vertex 2.4 2.4 2.2
      vertex 2.4 68.923 2.2
    endloop
  endfacet
  facet normal 0 0 -1
    outer loop
      vertex 3.8 65.5431 2.2
      vertex 3.8 3.8 2.2
      vertex 2.4 68.923 2.2
    endloop
  endfacet
  facet normal 0 0 -1
    outer loop
      vertex 68.923 2.4 2.2
      vertex 2.4 2.4 2.2
      vertex 3.8 3.8 2.2
    endloop
  endfacet
  facet normal 0 0 -1
    outer loop
      vertex 68.923 2.4 2.2
      vertex 3.8 3.8 2.2
      vertex 65.5431 3.8 2.2
    endloop
  endfacet
  facet normal 0 0 -1
    outer loop
      vertex 68.923 2.4 2.2
      vertex 65.5431 3.8 2.2
      vertex 2.4 68.923 2.2
    endloop
  endfacet
  facet normal 0 0 -1
    outer loop
      vertex 65.5431 3.8 2.2
      vertex 3.8 65.5431 2.2
      vertex 2.4 68.923 2.2
    endloop
  endfacet
  facet normal 0 0 1
    outer loop
      vertex 0.325 24.675 9.5
      vertex 0.325 0.325 9.5
      vertex 24.675 0.325 9.5
    endloop
  endfacet
  facet normal 0 0 1
    outer loop
      vertex 24.675 24.675 9.5
      vertex 0.325 24.675 9.5
      vertex 24.675 0.325 9.5
    endloop
  endfacet
  facet normal 0 0 1
    outer loop
      vertex 0.325 49.675 9.5
      vertex 0.325 25.325 9.5
      vertex 24.675 25.325 9.5
    endloop
  endfacet
  facet normal 0 0 1
    outer loop
      vertex 24.675 49.675 9.5
      vertex 0.325 49.675 9.5
      vertex 24.675 25.325 9.5
    endloop
  endfacet
  facet normal 0 0 1
    outer loop
      vertex 25.325 24.675 9.5
      vertex 25.325 0.325 9.5
      vertex 49.675 0.325 9.5
    endloop
  endfacet
  facet normal 0 0 1
    outer loop
      vertex 49.675 24.675 9.5
      vertex 25.325 24.675 9.5
      vertex 49.675 0.325 9.5
    endloop
  endfacet
  facet normal -1 0 0
    outer loop
      vertex 3.8 3.8 0
      vertex 3.8 3.8 2.2
      vertex 3.8 65.5431 0
    endloop
  endfacet
  facet normal -1 0 0
    outer loop
      vertex 3.8 65.5431 0
      vertex 3.8 3.8 2.2
      vertex 3.8 65.5431 2.2
    endloop
  endfacet
  facet normal 0 -1 0
    outer loop
      vertex 3.8 3.8 2.2
      vertex 3.8 3.8 0
      vertex 65.5431 3.8 0
    endloop
  endfacet
  facet normal 0 -1 0
    outer loop
      vertex 65.5431 3.8 2.2
      vertex 3.8 3.8 2.2
      vertex 65.5431 3.8 0
    endloop
  endfacet
  facet normal 0.707107 0.707107 0
    outer loop
      vertex 65.5431 3.8 2.2
      vertex 65.5431 3.8 0
      vertex 3.8 65.5431 2.2
    endloop
  endfacet
  facet normal 0.707107 0.707107 0
    outer loop
      vertex 3.8 65.5431 2.2
      vertex 65.5431 3.8 0
      vertex 3.8 65.5431 0
    endloop
  endfacet
  facet normal 0 0 -1
    outer loop
      vertex 23.9682 22.9694 0
      vertex 3.8 65.5431 0
      vertex 65.5431 3.8 0
    endloop
  endfacet
  facet normal 0 0 -1
    outer loop
      vertex 3.8 3.8 0
      vertex 3.8 65.5431 0
      vertex 19.2188 21.75 0
    endloop
  endfacet
  facet normal 0 0 -1
    outer loop
      vertex 3.8 3.8 0
      vertex 19.2188 21.75 0
      vertex 19.2387 21.4327 0
    endloop
  endfacet
  facet normal 0 0 -1
    outer loop
      vertex 3.8 3.8 0
      vertex 19.2387 21.4327 0
      vertex 19.2983 21.1205 0
    endloop
  endfacet
  facet normal 0 0 -1
    outer loop
      vertex 3.8 3.8 0
      vertex 19.2983 21.1205 0
      vertex 19.3965 20.8182 0
    endloop
  endfacet
  facet normal 0 0 -1
    outer loop
      vertex 3.8 3.8 0
      vertex 19.3965 20.8182 0
      vertex 19.5318 20.5306 0
    endloop
  endfacet
  facet normal 0 0 -1
    outer loop
      vertex 3.8 3.8 0
      vertex 19.5318 20.5306 0
      vertex 19.7022 20.2622 0
    endloop
  endfacet
  facet normal 0 0 -1
    outer loop
      vertex 3.8 3.8 0
      vertex 19.7022 20.2622 0
      vertex 19.9048 20.0172 0
    endloop
  endfacet
  facet normal 0 0 -1
    outer loop
      vertex 3.8 3.8 0
      vertex 19.9048 20.0172 0
      vertex 20.1365 19.7996 0
    endloop
  endfacet
  facet normal 0 0 -1
    outer loop
      vertex 3.8 3.8 0
      vertex 20.1365 19.7996 0
      vertex 20.3937 19.6128 0
    endloop
  endfacet
  facet normal 0 0 -1
    outer loop
      vertex 3.8 3.8 0
      vertex 20.3937 19.6128 0
      vertex 20.6722 19.4597 0
    endloop
  endfacet
  facet normal 0 0 -1
    outer loop
      vertex 3.8 3.8 0
      vertex 20.6722 19.4597 0
      vertex 20.9678 19.3426 0
    endloop
  endfacet
  facet normal 0 0 -1
    outer loop
      vertex 3.8 3.8 0
      vertex 20.9678 19.3426 0
      vertex 65.5431 3.8 0
    endloop
  endfacet
  facet normal 0 0 -1
    outer loop
      vertex 21.5911 19.2237 0
      vertex 65.5431 3.8 0
      vertex 21.2757 19.2636 0
    endloop
  endfacet
  facet normal 0 0 -1
    outer loop
      vertex 21.9089 19.2237 0
      vertex 65.5431 3.8 0
      vertex 21.5911 19.2237 0
    endloop
  endfacet
  facet normal 0 0 -1
    outer loop
      vertex 22.2243 19.2636 0
      vertex 65.5431 3.8 0
      vertex 21.9089 19.2237 0
    endloop
  endfacet
  facet normal 0 0 -1
    outer loop
      vertex 22.5322 19.3426 0
      vertex 65.5431 3.8 0
      vertex 22.2243 19.2636 0
    endloop
  endfacet
  facet normal 0 0 -1
    outer loop
      vertex 22.8278 19.4597 0
      vertex 65.5431 3.8 0
      vertex 22.5322 19.3426 0
    endloop
  endfacet
  facet normal 0 0 -1
    outer loop
      vertex 23.1063 19.6128 0
      vertex 65.5431 3.8 0
      vertex 22.8278 19.4597 0
    endloop
  endfacet
  facet normal 0 0 -1
    outer loop
      vertex 23.3635 19.7996 0
      vertex 65.5431 3.8 0
      vertex 23.1063 19.6128 0
    endloop
  endfacet
  facet normal 0 0 -1
    outer loop
      vertex 23.5952 20.0172 0
      vertex 65.5431 3.8 0
      vertex 23.3635 19.7996 0
    endloop
  endfacet
  facet normal 0 0 -1
    outer loop
      vertex 23.7978 20.2622 0
      vertex 65.5431 3.8 0
      vertex 23.5952 20.0172 0
    endloop
  endfacet
  facet normal 0 0 -1
    outer loop
      vertex 23.7978 23.2378 0
      vertex 3.8 65.5431 0
      vertex 23.9682 22.9694 0
    endloop
  endfacet
  facet normal 0 0 -1
    outer loop
      vertex 21.9089 24.2763 0
      vertex 3.8 65.5431 0
      vertex 22.2243 24.2364 0
    endloop
  endfacet
  facet normal 0 0 -1
    outer loop
      vertex 23.7978 20.2622 0
      vertex 23.9682 20.5306 0
      vertex 65.5431 3.8 0
    endloop
  endfacet
  facet normal 0 0 -1
    outer loop
      vertex 22.2243 24.2364 0
      vertex 3.8 65.5431 0
      vertex 22.5322 24.1574 0
    endloop
  endfacet
  facet normal 0 0 -1
    outer loop
      vertex 23.9682 20.5306 0
      vertex 24.1035 20.8182 0
      vertex 65.5431 3.8 0
    endloop
  endfacet
  facet normal 0 0 -1
    outer loop
      vertex 22.5322 24.1574 0
      vertex 3.8 65.5431 0
      vertex 22.8278 24.0403 0
    endloop
  endfacet
  facet normal 0 0 -1
    outer loop
      vertex 24.1035 20.8182 0
      vertex 24.2017 21.1205 0
      vertex 65.5431 3.8 0
    endloop
  endfacet
  facet normal 0 0 -1
    outer loop
      vertex 22.8278 24.0403 0
      vertex 3.8 65.5431 0
      vertex 23.1063 23.8872 0
    endloop
  endfacet
  facet normal 0 0 -1
    outer loop
      vertex 24.2017 21.1205 0
      vertex 24.2613 21.4327 0
      vertex 65.5431 3.8 0
    endloop
  endfacet
  facet normal 0 0 -1
    outer loop
      vertex 23.1063 23.8872 0
      vertex 3.8 65.5431 0
      vertex 23.3635 23.7004 0
    endloop
  endfacet
  facet normal 0 0 -1
    outer loop
      vertex 24.2613 21.4327 0
      vertex 24.2812 21.75 0
      vertex 65.5431 3.8 0
    endloop
  endfacet
  facet normal 0 0 -1
    outer loop
      vertex 24.2812 21.75 0
      vertex 24.2613 22.0672 0
      vertex 65.5431 3.8 0
    endloop
  endfacet
  facet normal 0 0 -1
    outer loop
      vertex 23.3635 23.7004 0
      vertex 3.8 65.5431 0
      vertex 23.5952 23.4828 0
    endloop
  endfacet
  facet normal 0 0 -1
    outer loop
      vertex 24.2613 22.0672 0
      vertex 24.2017 22.3795 0
      vertex 65.5431 3.8 0
    endloop
  endfacet
  facet normal 0 0 -1
    outer loop
      vertex 23.5952 23.4828 0
      vertex 3.8 65.5431 0
      vertex 23.7978 23.2378 0
    endloop
  endfacet
  facet normal 0 0 -1
    outer loop
      vertex 24.2017 22.3795 0
      vertex 24.1035 22.6818 0
      vertex 65.5431 3.8 0
    endloop
  endfacet
  facet normal 0 0 -1
    outer loop
      vertex 24.1035 22.6818 0
      vertex 23.9682 22.9694 0
      vertex 65.5431 3.8 0
    endloop
  endfacet
  facet normal 0 0 -1
    outer loop
      vertex 21.5911 24.2763 0
      vertex 3.8 65.5431 0
      vertex 21.9089 24.2763 0
    endloop
  endfacet
  facet normal 0 0 -1
    outer loop
      vertex 21.2757 24.2364 0
      vertex 3.8 65.5431 0
      vertex 21.5911 24.2763 0
    endloop
  endfacet
  facet normal 0 0 -1
    outer loop
      vertex 20.9678 24.1574 0
      vertex 3.8 65.5431 0
      vertex 21.2757 24.2364 0
    endloop
  endfacet
  facet normal 0 0 -1
    outer loop
      vertex 20.6722 24.0403 0
      vertex 3.8 65.5431 0
      vertex 20.9678 24.1574 0
    endloop
  endfacet
  facet normal 0 0 -1
    outer loop
      vertex 20.3937 23.8872 0
      vertex 3.8 65.5431 0
      vertex 20.6722 24.0403 0
    endloop
  endfacet
  facet normal 0 0 -1
    outer loop
      vertex 20.1365 23.7004 0
      vertex 3.8 65.5431 0
      vertex 20.3937 23.8872 0
    endloop
  endfacet
  facet normal 0 0 -1
    outer loop
      vertex 19.9048 23.4828 0
      vertex 3.8 65.5431 0
      vertex 20.1365 23.7004 0
    endloop
  endfacet
  facet normal 0 0 -1
    outer loop
      vertex 19.7022 23.2378 0
      vertex 3.8 65.5431 0
      vertex 19.9048 23.4828 0
    endloop
  endfacet
  facet normal 0 0 -1
    outer loop
      vertex 19.5318 22.9694 0
      vertex 3.8 65.5431 0
      vertex 19.7022 23.2378 0
    endloop
  endfacet
  facet normal 0 0 -1
    outer loop
      vertex 19.3965 22.6818 0
      vertex 3.8 65.5431 0
      vertex 19.5318 22.9694 0
    endloop
  endfacet
  facet normal 0 0 -1
    outer loop
      vertex 19.2983 22.3795 0
      vertex 3.8 65.5431 0
      vertex 19.3965 22.6818 0
    endloop
  endfacet
  facet normal 0 0 -1
    outer loop
      vertex 19.2387 22.0672 0
      vertex 3.8 65.5431 0
      vertex 19.2983 22.3795 0
    endloop
  endfacet
  facet normal 0 0 -1
    outer loop
      vertex 19.2188 21.75 0
      vertex 3.8 65.5431 0
      vertex 19.2387 22.0672 0
    endloop
  endfacet
  facet normal 0 0 -1
    outer loop
      vertex 21.2757 19.2636 0
      vertex 65.5431 3.8 0
      vertex 20.9678 19.3426 0
    endloop
  endfacet
  facet normal 0.998027 -0.0627915 0
    outer loop
      vertex 19.2387 22.0672 0
      vertex 19.2387 22.0672 1.7875
      vertex 19.2188 21.75 1.7875
    endloop
  endfacet
  facet normal 0.998027 -0.0627915 0
    outer loop
      vertex 19.2188 21.75 0
      vertex 19.2387 22.0672 0
      vertex 19.2188 21.75 1.7875
    endloop
  endfacet
  facet normal 0.998027 0.0627915 0
    outer loop
      vertex 19.2188 21.75 1.7875
      vertex 19.2387 21.4327 1.7875
      vertex 19.2387 21.4327 0
    endloop
  endfacet
  facet normal 0.998027 0.0627915 0
    outer loop
      vertex 19.2188 21.75 0
      vertex 19.2188 21.75 1.7875
      vertex 19.2387 21.4327 0
    endloop
  endfacet
  facet normal 0.982287 -0.187381 0
    outer loop
      vertex 19.2983 22.3795 0
      vertex 19.2983 22.3795 1.7875
      vertex 19.2387 22.0672 1.7875
    endloop
  endfacet
  facet normal 0.982287 -0.187381 0
    outer loop
      vertex 19.2387 22.0672 0
      vertex 19.2983 22.3795 0
      vertex 19.2387 22.0672 1.7875
    endloop
  endfacet
  facet normal 0.951057 -0.309016 0
    outer loop
      vertex 19.3965 22.6818 0
      vertex 19.3965 22.6818 1.7875
      vertex 19.2983 22.3795 1.7875
    endloop
  endfacet
  facet normal 0.951057 -0.309016 0
    outer loop
      vertex 19.2983 22.3795 0
      vertex 19.3965 22.6818 0
      vertex 19.2983 22.3795 1.7875
    endloop
  endfacet
  facet normal 0.904827 -0.42578 0
    outer loop
      vertex 19.5318 22.9694 0
      vertex 19.5318 22.9694 1.7875
      vertex 19.3965 22.6818 1.7875
    endloop
  endfacet
  facet normal 0.904827 -0.42578 0
    outer loop
      vertex 19.3965 22.6818 0
      vertex 19.5318 22.9694 0
      vertex 19.3965 22.6818 1.7875
    endloop
  endfacet
  facet normal 0.844328 -0.535827 0
    outer loop
      vertex 19.7022 23.2378 0
      vertex 19.7022 23.2378 1.7875
      vertex 19.5318 22.9694 1.7875
    endloop
  endfacet
  facet normal 0.844328 -0.535827 0
    outer loop
      vertex 19.5318 22.9694 0
      vertex 19.7022 23.2378 0
      vertex 19.5318 22.9694 1.7875
    endloop
  endfacet
  facet normal 0.770515 -0.637422 0
    outer loop
      vertex 19.9048 23.4828 0
      vertex 19.9048 23.4828 1.7875
      vertex 19.7022 23.2378 1.7875
    endloop
  endfacet
  facet normal 0.770515 -0.637422 0
    outer loop
      vertex 19.7022 23.2378 0
      vertex 19.9048 23.4828 0
      vertex 19.7022 23.2378 1.7875
    endloop
  endfacet
  facet normal 0.684546 -0.728969 0
    outer loop
      vertex 20.1365 23.7004 0
      vertex 20.1365 23.7004 1.7875
      vertex 19.9048 23.4828 1.7875
    endloop
  endfacet
  facet normal 0.684546 -0.728969 0
    outer loop
      vertex 19.9048 23.4828 0
      vertex 20.1365 23.7004 0
      vertex 19.9048 23.4828 1.7875
    endloop
  endfacet
  facet normal 0.587786 -0.809017 0
    outer loop
      vertex 20.3937 23.8872 0
      vertex 20.3937 23.8872 1.7875
      vertex 20.1365 23.7004 1.7875
    endloop
  endfacet
  facet normal 0.587786 -0.809017 0
    outer loop
      vertex 20.1365 23.7004 0
      vertex 20.3937 23.8872 0
      vertex 20.1365 23.7004 1.7875
    endloop
  endfacet
  facet normal 0.481752 -0.876307 0
    outer loop
      vertex 20.6722 24.0403 0
      vertex 20.6722 24.0403 1.7875
      vertex 20.3937 23.8872 1.7875
    endloop
  endfacet
  facet normal 0.481752 -0.876307 0
    outer loop
      vertex 20.3937 23.8872 0
      vertex 20.6722 24.0403 0
      vertex 20.3937 23.8872 1.7875
    endloop
  endfacet
  facet normal 0.368126 -0.929776 0
    outer loop
      vertex 20.9678 24.1574 0
      vertex 20.9678 24.1574 1.7875
      vertex 20.6722 24.0403 1.7875
    endloop
  endfacet
  facet normal 0.368126 -0.929776 0
    outer loop
      vertex 20.6722 24.0403 0
      vertex 20.9678 24.1574 0
      vertex 20.6722 24.0403 1.7875
    endloop
  endfacet
  facet normal 0.248691 -0.968583 0
    outer loop
      vertex 21.2757 24.2364 0
      vertex 21.2757 24.2364 1.7875
      vertex 20.9678 24.1574 1.7875
    endloop
  endfacet
  facet normal 0.248691 -0.968583 0
    outer loop
      vertex 20.9678 24.1574 0
      vertex 21.2757 24.2364 0
      vertex 20.9678 24.1574 1.7875
    endloop
  endfacet
  facet normal 0.125332 -0.992115 0
    outer loop
      vertex 21.5911 24.2763 0
      vertex 21.5911 24.2763 1.7875
      vertex 21.2757 24.2364 1.7875
    endloop
  endfacet
  facet normal 0.125332 -0.992115 0
    outer loop
      vertex 21.2757 24.2364 0
      vertex 21.5911 24.2763 0
      vertex 21.2757 24.2364 1.7875
    endloop
  endfacet
  facet normal 0 -1 0
    outer loop
      vertex 21.9089 24.2763 0
      vertex 21.9089 24.2763 1.7875
      vertex 21.5911 24.2763 1.7875
    endloop
  endfacet
  facet normal 0 -1 0
    outer loop
      vertex 21.5911 24.2763 0
      vertex 21.9089 24.2763 0
      vertex 21.5911 24.2763 1.7875
    endloop
  endfacet
  facet normal -0.125332 -0.992115 0
    outer loop
      vertex 22.2243 24.2364 0
      vertex 22.2243 24.2364 1.7875
      vertex 21.9089 24.2763 1.7875
    endloop
  endfacet
  facet normal -0.125332 -0.992115 0
    outer loop
      vertex 21.9089 24.2763 0
      vertex 22.2243 24.2364 0
      vertex 21.9089 24.2763 1.7875
    endloop
  endfacet
  facet normal -0.248691 -0.968583 0
    outer loop
      vertex 22.5322 24.1574 0
      vertex 22.5322 24.1574 1.7875
      vertex 22.2243 24.2364 1.7875
    endloop
  endfacet
  facet normal -0.248691 -0.968583 0
    outer loop
      vertex 22.2243 24.2364 0
      vertex 22.5322 24.1574 0
      vertex 22.2243 24.2364 1.7875
    endloop
  endfacet
  facet normal -0.368126 -0.929776 0
    outer loop
      vertex 22.8278 24.0403 0
      vertex 22.8278 24.0403 1.7875
      vertex 22.5322 24.1574 1.7875
    endloop
  endfacet
  facet normal -0.368126 -0.929776 0
    outer loop
      vertex 22.5322 24.1574 0
      vertex 22.8278 24.0403 0
      vertex 22.5322 24.1574 1.7875
    endloop
  endfacet
  facet normal -0.481752 -0.876307 0
    outer loop
      vertex 23.1063 23.8872 0
      vertex 23.1063 23.8872 1.7875
      vertex 22.8278 24.0403 1.7875
    endloop
  endfacet
  facet normal -0.481752 -0.876307 0
    outer loop
      vertex 22.8278 24.0403 0
      vertex 23.1063 23.8872 0
      vertex 22.8278 24.0403 1.7875
    endloop
  endfacet
  facet normal -0.587786 -0.809017 0
    outer loop
      vertex 23.3635 23.7004 0
      vertex 23.3635 23.7004 1.7875
      vertex 23.1063 23.8872 1.7875
    endloop
  endfacet
  facet normal -0.587786 -0.809017 0
    outer loop
      vertex 23.1063 23.8872 0
      vertex 23.3635 23.7004 0
      vertex 23.1063 23.8872 1.7875
    endloop
  endfacet
  facet normal -0.684546 -0.728969 0
    outer loop
      vertex 23.5952 23.4828 0
      vertex 23.5952 23.4828 1.7875
      vertex 23.3635 23.7004 1.7875
    endloop
  endfacet
  facet normal -0.684546 -0.728969 0
    outer loop
      vertex 23.3635 23.7004 0
      vertex 23.5952 23.4828 0
      vertex 23.3635 23.7004 1.7875
    endloop
  endfacet
  facet normal -0.770515 -0.637422 0
    outer loop
      vertex 23.7978 23.2378 1.7875
      vertex 23.5952 23.4828 1.7875
      vertex 23.7978 23.2378 0
    endloop
  endfacet
  facet normal -0.770515 -0.637422 0
    outer loop
      vertex 23.7978 23.2378 0
      vertex 23.5952 23.4828 1.7875
      vertex 23.5952 23.4828 0
    endloop
  endfacet
  facet normal -0.844328 -0.535827 0
    outer loop
      vertex 23.9682 22.9694 1.7875
      vertex 23.7978 23.2378 1.7875
      vertex 23.9682 22.9694 0
    endloop
  endfacet
  facet normal -0.844328 -0.535827 0
    outer loop
      vertex 23.9682 22.9694 0
      vertex 23.7978 23.2378 1.7875
      vertex 23.7978 23.2378 0
    endloop
  endfacet
  facet normal -0.904827 -0.42578 0
    outer loop
      vertex 24.1035 22.6818 1.7875
      vertex 23.9682 22.9694 1.7875
      vertex 24.1035 22.6818 0
    endloop
  endfacet
  facet normal -0.904827 -0.42578 0
    outer loop
      vertex 24.1035 22.6818 0
      vertex 23.9682 22.9694 1.7875
      vertex 23.9682 22.9694 0
    endloop
  endfacet
  facet normal -0.951057 -0.309016 0
    outer loop
      vertex 24.2017 22.3795 1.7875
      vertex 24.1035 22.6818 1.7875
      vertex 24.2017 22.3795 0
    endloop
  endfacet
  facet normal -0.951057 -0.309016 0
    outer loop
      vertex 24.2017 22.3795 0
      vertex 24.1035 22.6818 1.7875
      vertex 24.1035 22.6818 0
    endloop
  endfacet
  facet normal -0.982287 -0.187381 0
    outer loop
      vertex 24.2613 22.0672 1.7875
      vertex 24.2017 22.3795 1.7875
      vertex 24.2613 22.0672 0
    endloop
  endfacet
  facet normal -0.982287 -0.187381 0
    outer loop
      vertex 24.2613 22.0672 0
      vertex 24.2017 22.3795 1.7875
      vertex 24.2017 22.3795 0
    endloop
  endfacet
  facet normal -0.998027 -0.0627915 0
    outer loop
      vertex 24.2812 21.75 1.7875
      vertex 24.2613 22.0672 1.7875
      vertex 24.2812 21.75 0
    endloop
  endfacet
  facet normal -0.998027 -0.0627915 0
    outer loop
      vertex 24.2812 21.75 0
      vertex 24.2613 22.0672 1.7875
      vertex 24.2613 22.0672 0
    endloop
  endfacet
  facet normal -0.998027 0.0627915 0
    outer loop
      vertex 24.2812 21.75 1.7875
      vertex 24.2812 21.75 0
      vertex 24.2613 21.4327 1.7875
    endloop
  endfacet
  facet normal -0.998027 0.0627915 0
    outer loop
      vertex 24.2613 21.4327 1.7875
      vertex 24.2812 21.75 0
      vertex 24.2613 21.4327 0
    endloop
  endfacet
  facet normal -0.982287 0.187381 0
    outer loop
      vertex 24.2613 21.4327 1.7875
      vertex 24.2613 21.4327 0
      vertex 24.2017 21.1205 1.7875
    endloop
  endfacet
  facet normal -0.982287 0.187381 0
    outer loop
      vertex 24.2017 21.1205 1.7875
      vertex 24.2613 21.4327 0
      vertex 24.2017 21.1205 0
    endloop
  endfacet
  facet normal -0.951057 0.309016 0
    outer loop
      vertex 24.2017 21.1205 1.7875
      vertex 24.2017 21.1205 0
      vertex 24.1035 20.8182 1.7875
    endloop
  endfacet
  facet normal -0.951057 0.309016 0
    outer loop
      vertex 24.1035 20.8182 1.7875
      vertex 24.2017 21.1205 0
      vertex 24.1035 20.8182 0
    endloop
  endfacet
  facet normal -0.904827 0.42578 0
    outer loop
      vertex 24.1035 20.8182 1.7875
      vertex 24.1035 20.8182 0
      vertex 23.9682 20.5306 1.7875
    endloop
  endfacet
  facet normal -0.904827 0.42578 0
    outer loop
      vertex 23.9682 20.5306 1.7875
      vertex 24.1035 20.8182 0
      vertex 23.9682 20.5306 0
    endloop
  endfacet
  facet normal -0.844328 0.535827 0
    outer loop
      vertex 23.9682 20.5306 1.7875
      vertex 23.9682 20.5306 0
      vertex 23.7978 20.2622 1.7875
    endloop
  endfacet
  facet normal -0.844328 0.535827 0
    outer loop
      vertex 23.7978 20.2622 1.7875
      vertex 23.9682 20.5306 0
      vertex 23.7978 20.2622 0
    endloop
  endfacet
  facet normal -0.770515 0.637422 0
    outer loop
      vertex 23.7978 20.2622 1.7875
      vertex 23.7978 20.2622 0
      vertex 23.5952 20.0172 1.7875
    endloop
  endfacet
  facet normal -0.770515 0.637422 0
    outer loop
      vertex 23.5952 20.0172 1.7875
      vertex 23.7978 20.2622 0
      vertex 23.5952 20.0172 0
    endloop
  endfacet
  facet normal -0.684546 0.728969 0
    outer loop
      vertex 23.5952 20.0172 1.7875
      vertex 23.5952 20.0172 0
      vertex 23.3635 19.7996 1.7875
    endloop
  endfacet
  facet normal -0.684546 0.728969 0
    outer loop
      vertex 23.3635 19.7996 1.7875
      vertex 23.5952 20.0172 0
      vertex 23.3635 19.7996 0
    endloop
  endfacet
  facet normal -0.587786 0.809017 0
    outer loop
      vertex 23.3635 19.7996 1.7875
      vertex 23.3635 19.7996 0
      vertex 23.1063 19.6128 1.7875
    endloop
  endfacet
  facet normal -0.587786 0.809017 0
    outer loop
      vertex 23.1063 19.6128 1.7875
      vertex 23.3635 19.7996 0
      vertex 23.1063 19.6128 0
    endloop
  endfacet
  facet normal -0.481752 0.876307 0
    outer loop
      vertex 23.1063 19.6128 1.7875
      vertex 23.1063 19.6128 0
      vertex 22.8278 19.4597 1.7875
    endloop
  endfacet
  facet normal -0.481752 0.876307 0
    outer loop
      vertex 22.8278 19.4597 1.7875
      vertex 23.1063 19.6128 0
      vertex 22.8278 19.4597 0
    endloop
  endfacet
  facet normal -0.368126 0.929776 0
    outer loop
      vertex 22.8278 19.4597 1.7875
      vertex 22.8278 19.4597 0
      vertex 22.5322 19.3426 1.7875
    endloop
  endfacet
  facet normal -0.368126 0.929776 0
    outer loop
      vertex 22.5322 19.3426 1.7875
      vertex 22.8278 19.4597 0
      vertex 22.5322 19.3426 0
    endloop
  endfacet
  facet normal -0.248691 0.968583 0
    outer loop
      vertex 22.5322 19.3426 1.7875
      vertex 22.5322 19.3426 0
      vertex 22.2243 19.2636 1.7875
    endloop
  endfacet
  facet normal -0.248691 0.968583 0
    outer loop
      vertex 22.2243 19.2636 1.7875
      vertex 22.5322 19.3426 0
      vertex 22.2243 19.2636 0
    endloop
  endfacet
  facet normal -0.125332 0.992115 0
    outer loop
      vertex 22.2243 19.2636 1.7875
      vertex 22.2243 19.2636 0
      vertex 21.9089 19.2237 1.7875
    endloop
  endfacet
  facet normal -0.125332 0.992115 0
    outer loop
      vertex 21.9089 19.2237 1.7875
      vertex 22.2243 19.2636 0
      vertex 21.9089 19.2237 0
    endloop
  endfacet
  facet normal 0 1 0
    outer loop
      vertex 21.9089 19.2237 1.7875
      vertex 21.9089 19.2237 0
      vertex 21.5911 19.2237 1.7875
    endloop
  endfacet
  facet normal 0 1 0
    outer loop
      vertex 21.5911 19.2237 1.7875
      vertex 21.9089 19.2237 0
      vertex 21.5911 19.2237 0
    endloop
  endfacet
  facet normal 0.125332 0.992115 0
    outer loop
      vertex 21.5911 19.2237 1.7875
      vertex 21.5911 19.2237 0
      vertex 21.2757 19.2636 1.7875
    endloop
  endfacet
  facet normal 0.125332 0.992115 0
    outer loop
      vertex 21.2757 19.2636 1.7875
      vertex 21.5911 19.2237 0
      vertex 21.2757 19.2636 0
    endloop
  endfacet
  facet normal 0.248691 0.968583 0
    outer loop
      vertex 21.2757 19.2636 1.7875
      vertex 21.2757 19.2636 0
      vertex 20.9678 19.3426 1.7875
    endloop
  endfacet
  facet normal 0.248691 0.968583 0
    outer loop
      vertex 20.9678 19.3426 1.7875
      vertex 21.2757 19.2636 0
      vertex 20.9678 19.3426 0
    endloop
  endfacet
  facet normal 0.368126 0.929776 0
    outer loop
      vertex 20.9678 19.3426 1.7875
      vertex 20.9678 19.3426 0
      vertex 20.6722 19.4597 1.7875
    endloop
  endfacet
  facet normal 0.368126 0.929776 0
    outer loop
      vertex 20.6722 19.4597 1.7875
      vertex 20.9678 19.3426 0
      vertex 20.6722 19.4597 0
    endloop
  endfacet
  facet normal 0.481752 0.876307 0
    outer loop
      vertex 20.6722 19.4597 1.7875
      vertex 20.6722 19.4597 0
      vertex 20.3937 19.6128 1.7875
    endloop
  endfacet
  facet normal 0.481752 0.876307 0
    outer loop
      vertex 20.3937 19.6128 1.7875
      vertex 20.6722 19.4597 0
      vertex 20.3937 19.6128 0
    endloop
  endfacet
  facet normal 0.587786 0.809017 0
    outer loop
      vertex 20.3937 19.6128 1.7875
      vertex 20.3937 19.6128 0
      vertex 20.1365 19.7996 1.7875
    endloop
  endfacet
  facet normal 0.587786 0.809017 0
    outer loop
      vertex 20.1365 19.7996 1.7875
      vertex 20.3937 19.6128 0
      vertex 20.1365 19.7996 0
    endloop
  endfacet
  facet normal 0.684546 0.728969 0
    outer loop
      vertex 20.1365 19.7996 1.7875
      vertex 20.1365 19.7996 0
      vertex 19.9048 20.0172 1.7875
    endloop
  endfacet
  facet normal 0.684546 0.728969 0
    outer loop
      vertex 19.9048 20.0172 1.7875
      vertex 20.1365 19.7996 0
      vertex 19.9048 20.0172 0
    endloop
  endfacet
  facet normal 0.770515 0.637422 0
    outer loop
      vertex 19.7022 20.2622 1.7875
      vertex 19.9048 20.0172 1.7875
      vertex 19.9048 20.0172 0
    endloop
  endfacet
  facet normal 0.770515 0.637422 0
    outer loop
      vertex 19.7022 20.2622 0
      vertex 19.7022 20.2622 1.7875
      vertex 19.9048 20.0172 0
    endloop
  endfacet
  facet normal 0.844328 0.535827 0
    outer loop
      vertex 19.5318 20.5306 1.7875
      vertex 19.7022 20.2622 1.7875
      vertex 19.7022 20.2622 0
    endloop
  endfacet
  facet normal 0.844328 0.535827 0
    outer loop
      vertex 19.5318 20.5306 0
      vertex 19.5318 20.5306 1.7875
      vertex 19.7022 20.2622 0
    endloop
  endfacet
  facet normal 0.904827 0.42578 0
    outer loop
      vertex 19.3965 20.8182 1.7875
      vertex 19.5318 20.5306 1.7875
      vertex 19.5318 20.5306 0
    endloop
  endfacet
  facet normal 0.904827 0.42578 0
    outer loop
      vertex 19.3965 20.8182 0
      vertex 19.3965 20.8182 1.7875
      vertex 19.5318 20.5306 0
    endloop
  endfacet
  facet normal 0.951057 0.309016 0
    outer loop
      vertex 19.2983 21.1205 1.7875
      vertex 19.3965 20.8182 1.7875
      vertex 19.3965 20.8182 0
    endloop
  endfacet
  facet normal 0.951057 0.309016 0
    outer loop
      vertex 19.2983 21.1205 0
      vertex 19.2983 21.1205 1.7875
      vertex 19.3965 20.8182 0
    endloop
  endfacet
  facet normal 0.982287 0.187381 0
    outer loop
      vertex 19.2387 21.4327 1.7875
      vertex 19.2983 21.1205 1.7875
      vertex 19.2983 21.1205 0
    endloop
  endfacet
  facet normal 0.982287 0.187381 0
    outer loop
      vertex 19.2387 21.4327 0
      vertex 19.2387 21.4327 1.7875
      vertex 19.2983 21.1205 0
    endloop
  endfacet
  facet normal 0 0 -1
    outer loop
      vertex 19.2983 22.3795 1.7875
      vertex 19.3965 22.6818 1.7875
      vertex 19.2387 22.0672 1.7875
    endloop
  endfacet
  facet normal 0 0 -1
    outer loop
      vertex 19.2387 22.0672 1.7875
      vertex 19.3965 22.6818 1.7875
      vertex 19.5318 22.9694 1.7875
    endloop
  endfacet
  facet normal 0 0 -1
    outer loop
      vertex 19.2387 22.0672 1.7875
      vertex 19.5318 22.9694 1.7875
      vertex 19.7022 23.2378 1.7875
    endloop
  endfacet
  facet normal 0 0 -1
    outer loop
      vertex 19.2387 22.0672 1.7875
      vertex 19.7022 23.2378 1.7875
      vertex 19.9048 23.4828 1.7875
    endloop
  endfacet
  facet normal 0 0 -1
    outer loop
      vertex 19.2387 22.0672 1.7875
      vertex 19.9048 23.4828 1.7875
      vertex 20.1365 23.7004 1.7875
    endloop
  endfacet
  facet normal 0 0 -1
    outer loop
      vertex 19.2387 22.0672 1.7875
      vertex 20.1365 23.7004 1.7875
      vertex 20.3937 23.8872 1.7875
    endloop
  endfacet
  facet normal 0 0 -1
    outer loop
      vertex 19.2387 22.0672 1.7875
      vertex 20.3937 23.8872 1.7875
      vertex 20.6722 24.0403 1.7875
    endloop
  endfacet
  facet normal 0 0 -1
    outer loop
      vertex 19.2387 22.0672 1.7875
      vertex 20.6722 24.0403 1.7875
      vertex 20.9678 24.1574 1.7875
    endloop
  endfacet
  facet normal 0 0 -1
    outer loop
      vertex 19.2387 22.0672 1.7875
      vertex 20.9678 24.1574 1.7875
      vertex 21.2757 24.2364 1.7875
    endloop
  endfacet
  facet normal 0 0 -1
    outer loop
      vertex 19.2387 22.0672 1.7875
      vertex 21.2757 24.2364 1.7875
      vertex 21.5911 24.2763 1.7875
    endloop
  endfacet
  facet normal 0 0 -1
    outer loop
      vertex 19.2387 22.0672 1.7875
      vertex 21.5911 24.2763 1.7875
      vertex 21.9089 24.2763 1.7875
    endloop
  endfacet
  facet normal 0 0 -1
    outer loop
      vertex 19.2387 22.0672 1.7875
      vertex 21.9089 24.2763 1.7875
      vertex 22.2243 24.2364 1.7875
    endloop
  endfacet
  facet normal 0 0 -1
    outer loop
      vertex 19.2387 22.0672 1.7875
      vertex 22.2243 24.2364 1.7875
      vertex 22.5322 24.1574 1.7875
    endloop
  endfacet
  facet normal 0 0 -1
    outer loop
      vertex 19.2387 22.0672 1.7875
      vertex 22.5322 24.1574 1.7875
      vertex 22.8278 24.0403 1.7875
    endloop
  endfacet
  facet normal 0 0 -1
    outer loop
      vertex 19.2387 22.0672 1.7875
      vertex 22.8278 24.0403 1.7875
      vertex 23.1063 23.8872 1.7875
    endloop
  endfacet
  facet normal 0 0 -1
    outer loop
      vertex 19.2387 22.0672 1.7875
      vertex 23.1063 23.8872 1.7875
      vertex 23.3635 23.7004 1.7875
    endloop
  endfacet
  facet normal 0 0 -1
    outer loop
      vertex 19.2387 22.0672 1.7875
      vertex 23.3635 23.7004 1.7875
      vertex 23.5952 23.4828 1.7875
    endloop
  endfacet
  facet normal 0 0 -1
    outer loop
      vertex 19.2387 22.0672 1.7875
      vertex 23.5952 23.4828 1.7875
      vertex 23.7978 23.2378 1.7875
    endloop
  endfacet
  facet normal 0 0 -1
    outer loop
      vertex 19.2387 22.0672 1.7875
      vertex 23.7978 23.2378 1.7875
      vertex 23.9682 22.9694 1.7875
    endloop
  endfacet
  facet normal 0 0 -1
    outer loop
      vertex 19.2387 22.0672 1.7875
      vertex 23.9682 22.9694 1.7875
      vertex 24.1035 22.6818 1.7875
    endloop
  endfacet
  facet normal 0 0 -1
    outer loop
      vertex 19.2387 22.0672 1.7875
      vertex 24.1035 22.6818 1.7875
      vertex 24.2017 22.3795 1.7875
    endloop
  endfacet
  facet normal 0 0 -1
    outer loop
      vertex 19.2387 22.0672 1.7875
      vertex 24.2017 22.3795 1.7875
      vertex 24.2613 22.0672 1.7875
    endloop
  endfacet
  facet normal 0 0 -1
    outer loop
      vertex 19.2387 22.0672 1.7875
      vertex 24.2613 22.0672 1.7875
      vertex 24.2812 21.75 1.7875
    endloop
  endfacet
  facet normal 0 0 -1
    outer loop
      vertex 19.2387 22.0672 1.7875
      vertex 24.2812 21.75 1.7875
      vertex 24.2613 21.4327 1.7875
    endloop
  endfacet
  facet normal 0 0 -1
    outer loop
      vertex 19.2387 22.0672 1.7875
      vertex 24.2613 21.4327 1.7875
      vertex 24.2017 21.1205 1.7875
    endloop
  endfacet
  facet normal 0 0 -1
    outer loop
      vertex 19.2387 22.0672 1.7875
      vertex 24.2017 21.1205 1.7875
      vertex 24.1035 20.8182 1.7875
    endloop
  endfacet
  facet normal 0 0 -1
    outer loop
      vertex 19.2387 22.0672 1.7875
      vertex 24.1035 20.8182 1.7875
      vertex 23.9682 20.5306 1.7875
    endloop
  endfacet
  facet normal 0 0 -1
    outer loop
      vertex 19.2387 22.0672 1.7875
      vertex 23.9682 20.5306 1.7875
      vertex 23.7978 20.2622 1.7875
    endloop
  endfacet
  facet normal 0 0 -1
    outer loop
      vertex 19.2387 22.0672 1.7875
      vertex 23.7978 20.2622 1.7875
      vertex 23.5952 20.0172 1.7875
    endloop
  endfacet
  facet normal 0 0 -1
    outer loop
      vertex 19.2387 22.0672 1.7875
      vertex 23.5952 20.0172 1.7875
      vertex 23.3635 19.7996 1.7875
    endloop
  endfacet
  facet normal 0 0 -1
    outer loop
      vertex 19.2387 22.0672 1.7875
      vertex 23.3635 19.7996 1.7875
      vertex 23.1063 19.6128 1.7875
    endloop
  endfacet
  facet normal 0 0 -1
    outer loop
      vertex 19.2387 22.0672 1.7875
      vertex 23.1063 19.6128 1.7875
      vertex 22.8278 19.4597 1.7875
    endloop
  endfacet
  facet normal 0 0 -1
    outer loop
      vertex 19.2387 22.0672 1.7875
      vertex 22.8278 19.4597 1.7875
      vertex 22.5322 19.3426 1.7875
    endloop
  endfacet
  facet normal 0 0 -1
    outer loop
      vertex 19.2387 22.0672 1.7875
      vertex 22.5322 19.3426 1.7875
      vertex 22.2243 19.2636 1.7875
    endloop
  endfacet
  facet normal 0 0 -1
    outer loop
      vertex 19.2387 22.0672 1.7875
      vertex 22.2243 19.2636 1.7875
      vertex 21.9089 19.2237 1.7875
    endloop
  endfacet
  facet normal 0 0 -1
    outer loop
      vertex 19.2387 22.0672 1.7875
      vertex 21.9089 19.2237 1.7875
      vertex 21.5911 19.2237 1.7875
    endloop
  endfacet
  facet normal 0 0 -1
    outer loop
      vertex 19.2387 22.0672 1.7875
      vertex 21.5911 19.2237 1.7875
      vertex 21.2757 19.2636 1.7875
    endloop
  endfacet
  facet normal 0 0 -1
    outer loop
      vertex 19.2387 22.0672 1.7875
      vertex 21.2757 19.2636 1.7875
      vertex 20.9678 19.3426 1.7875
    endloop
  endfacet
  facet normal 0 0 -1
    outer loop
      vertex 19.2387 22.0672 1.7875
      vertex 20.9678 19.3426 1.7875
      vertex 20.6722 19.4597 1.7875
    endloop
  endfacet
  facet normal 0 0 -1
    outer loop
      vertex 19.2387 22.0672 1.7875
      vertex 20.6722 19.4597 1.7875
      vertex 20.3937 19.6128 1.7875
    endloop
  endfacet
  facet normal 0 0 -1
    outer loop
      vertex 19.2387 22.0672 1.7875
      vertex 20.3937 19.6128 1.7875
      vertex 20.1365 19.7996 1.7875
    endloop
  endfacet
  facet normal 0 0 -1
    outer loop
      vertex 19.2387 22.0672 1.7875
      vertex 20.1365 19.7996 1.7875
      vertex 19.9048 20.0172 1.7875
    endloop
  endfacet
  facet normal 0 0 -1
    outer loop
      vertex 19.2387 22.0672 1.7875
      vertex 19.9048 20.0172 1.7875
      vertex 19.7022 20.2622 1.7875
    endloop
  endfacet
  facet normal 0 0 -1
    outer loop
      vertex 19.2387 22.0672 1.7875
      vertex 19.7022 20.2622 1.7875
      vertex 19.5318 20.5306 1.7875
    endloop
  endfacet
  facet normal 0 0 -1
    outer loop
      vertex 19.2387 22.0672 1.7875
      vertex 19.5318 20.5306 1.7875
      vertex 19.3965 20.8182 1.7875
    endloop
  endfacet
  facet normal 0 0 -1
    outer loop
      vertex 19.2387 22.0672 1.7875
      vertex 19.3965 20.8182 1.7875
      vertex 19.2983 21.1205 1.7875
    endloop
  endfacet
  facet normal 0 0 -1
    outer loop
      vertex 19.2387 22.0672 1.7875
      vertex 19.2983 21.1205 1.7875
      vertex 19.2387 21.4327 1.7875
    endloop
  endfacet
  facet normal 0 0 -1
    outer loop
      vertex 19.2387 22.0672 1.7875
      vertex 19.2387 21.4327 1.7875
      vertex 19.2188 21.75 1.7875
    endloop
  endfacet
endsolid OpenSCAD_Model
